solid OpenSCAD_Model
  facet normal 0.998027 0.0627906 0
    outer loop
      vertex 10.9 0 6
      vertex 10.814 1.36613 0
      vertex 10.814 1.36613 6
    endloop
  endfacet
  facet normal 0.998027 0.0627906 0
    outer loop
      vertex 10.814 1.36613 0
      vertex 10.9 0 6
      vertex 10.9 0 0
    endloop
  endfacet
  facet normal -0.998027 0.0627906 0
    outer loop
      vertex -10.9 0 0
      vertex -10.814 1.36613 6
      vertex -10.814 1.36613 0
    endloop
  endfacet
  facet normal -0.998027 0.0627906 0
    outer loop
      vertex -10.814 1.36613 6
      vertex -10.9 0 0
      vertex -10.9 0 6
    endloop
  endfacet
  facet normal 0 1 -0
    outer loop
      vertex 0.684416 10.8785 0
      vertex -0.684416 10.8785 6
      vertex 0.684416 10.8785 6
    endloop
  endfacet
  facet normal 0 1 0
    outer loop
      vertex -0.684416 10.8785 6
      vertex 0.684416 10.8785 0
      vertex -0.684416 10.8785 0
    endloop
  endfacet
  facet normal 0 -1 0
    outer loop
      vertex -0.684416 -10.8785 0
      vertex 0.684416 -10.8785 6
      vertex -0.684416 -10.8785 6
    endloop
  endfacet
  facet normal 0 -1 -0
    outer loop
      vertex 0.684416 -10.8785 6
      vertex -0.684416 -10.8785 0
      vertex 0.684416 -10.8785 0
    endloop
  endfacet
  facet normal 0.684547 0.728969 -0
    outer loop
      vertex 7.94576 7.46156 0
      vertex 6.94792 8.39859 6
      vertex 7.94576 7.46156 6
    endloop
  endfacet
  facet normal 0.684547 0.728969 0
    outer loop
      vertex 6.94792 8.39859 6
      vertex 7.94576 7.46156 0
      vertex 6.94792 8.39859 0
    endloop
  endfacet
  facet normal -0.684547 0.728969 0
    outer loop
      vertex -6.94792 8.39859 0
      vertex -7.94576 7.46156 6
      vertex -6.94792 8.39859 6
    endloop
  endfacet
  facet normal -0.684547 0.728969 0
    outer loop
      vertex -7.94576 7.46156 6
      vertex -6.94792 8.39859 0
      vertex -7.94576 7.46156 0
    endloop
  endfacet
  facet normal -0.368124 0.929777 0
    outer loop
      vertex -3.36829 10.3665 0
      vertex -4.64099 9.86261 6
      vertex -3.36829 10.3665 6
    endloop
  endfacet
  facet normal -0.368124 0.929777 0
    outer loop
      vertex -4.64099 9.86261 6
      vertex -3.36829 10.3665 0
      vertex -4.64099 9.86261 0
    endloop
  endfacet
  facet normal 0.904827 0.425779 0
    outer loop
      vertex 10.1346 4.01256 6
      vertex 9.55174 5.25111 0
      vertex 9.55174 5.25111 6
    endloop
  endfacet
  facet normal 0.904827 0.425779 0
    outer loop
      vertex 9.55174 5.25111 0
      vertex 10.1346 4.01256 6
      vertex 10.1346 4.01256 0
    endloop
  endfacet
  facet normal 0.982287 0.187381 0
    outer loop
      vertex 10.814 1.36613 6
      vertex 10.5576 2.71072 0
      vertex 10.5576 2.71072 6
    endloop
  endfacet
  facet normal 0.982287 0.187381 0
    outer loop
      vertex 10.5576 2.71072 0
      vertex 10.814 1.36613 6
      vertex 10.814 1.36613 0
    endloop
  endfacet
  facet normal 0.368124 0.929777 -0
    outer loop
      vertex 4.64099 9.86261 0
      vertex 3.36829 10.3665 6
      vertex 4.64099 9.86261 6
    endloop
  endfacet
  facet normal 0.368124 0.929777 0
    outer loop
      vertex 3.36829 10.3665 6
      vertex 4.64099 9.86261 0
      vertex 3.36829 10.3665 0
    endloop
  endfacet
  facet normal 0.24869 0.968583 -0
    outer loop
      vertex 3.36829 10.3665 0
      vertex 2.04246 10.7069 6
      vertex 3.36829 10.3665 6
    endloop
  endfacet
  facet normal 0.24869 0.968583 0
    outer loop
      vertex 2.04246 10.7069 6
      vertex 3.36829 10.3665 0
      vertex 2.04246 10.7069 0
    endloop
  endfacet
  facet normal 0.481754 0.876306 -0
    outer loop
      vertex 5.84051 9.20317 0
      vertex 4.64099 9.86261 6
      vertex 5.84051 9.20317 6
    endloop
  endfacet
  facet normal 0.481754 0.876306 0
    outer loop
      vertex 4.64099 9.86261 6
      vertex 5.84051 9.20317 0
      vertex 4.64099 9.86261 0
    endloop
  endfacet
  facet normal -0.904827 0.425779 0
    outer loop
      vertex -10.1346 4.01256 0
      vertex -9.55174 5.25111 6
      vertex -9.55174 5.25111 0
    endloop
  endfacet
  facet normal -0.904827 0.425779 0
    outer loop
      vertex -9.55174 5.25111 6
      vertex -10.1346 4.01256 0
      vertex -10.1346 4.01256 6
    endloop
  endfacet
  facet normal -0.951057 0.309017 0
    outer loop
      vertex -10.5576 2.71072 0
      vertex -10.1346 4.01256 6
      vertex -10.1346 4.01256 0
    endloop
  endfacet
  facet normal -0.951057 0.309017 0
    outer loop
      vertex -10.1346 4.01256 6
      vertex -10.5576 2.71072 0
      vertex -10.5576 2.71072 6
    endloop
  endfacet
  facet normal -0.125333 0.992115 0
    outer loop
      vertex -0.684416 10.8785 0
      vertex -2.04246 10.7069 6
      vertex -0.684416 10.8785 6
    endloop
  endfacet
  facet normal -0.125333 0.992115 0
    outer loop
      vertex -2.04246 10.7069 6
      vertex -0.684416 10.8785 0
      vertex -2.04246 10.7069 0
    endloop
  endfacet
  facet normal 0.125333 -0.992115 0
    outer loop
      vertex 0.684416 -10.8785 0
      vertex 2.04246 -10.7069 6
      vertex 0.684416 -10.8785 6
    endloop
  endfacet
  facet normal 0.125333 -0.992115 0
    outer loop
      vertex 2.04246 -10.7069 6
      vertex 0.684416 -10.8785 0
      vertex 2.04246 -10.7069 0
    endloop
  endfacet
  facet normal 0.951057 0.309017 0
    outer loop
      vertex 10.5576 2.71072 6
      vertex 10.1346 4.01256 0
      vertex 10.1346 4.01256 6
    endloop
  endfacet
  facet normal 0.951057 0.309017 0
    outer loop
      vertex 10.1346 4.01256 0
      vertex 10.5576 2.71072 6
      vertex 10.5576 2.71072 0
    endloop
  endfacet
  facet normal 0.770513 0.637424 0
    outer loop
      vertex 8.81828 6.40686 6
      vertex 7.94576 7.46156 0
      vertex 7.94576 7.46156 6
    endloop
  endfacet
  facet normal 0.770513 0.637424 0
    outer loop
      vertex 7.94576 7.46156 0
      vertex 8.81828 6.40686 6
      vertex 8.81828 6.40686 0
    endloop
  endfacet
  facet normal 0.844328 0.535827 0
    outer loop
      vertex 9.55174 5.25111 6
      vertex 8.81828 6.40686 0
      vertex 8.81828 6.40686 6
    endloop
  endfacet
  facet normal 0.844328 0.535827 0
    outer loop
      vertex 8.81828 6.40686 0
      vertex 9.55174 5.25111 6
      vertex 9.55174 5.25111 0
    endloop
  endfacet
  facet normal 0.125333 0.992115 -0
    outer loop
      vertex 2.04246 10.7069 0
      vertex 0.684416 10.8785 6
      vertex 2.04246 10.7069 6
    endloop
  endfacet
  facet normal 0.125333 0.992115 0
    outer loop
      vertex 0.684416 10.8785 6
      vertex 2.04246 10.7069 0
      vertex 0.684416 10.8785 0
    endloop
  endfacet
  facet normal 0.587785 0.809017 -0
    outer loop
      vertex 6.94792 8.39859 0
      vertex 5.84051 9.20317 6
      vertex 6.94792 8.39859 6
    endloop
  endfacet
  facet normal 0.587785 0.809017 0
    outer loop
      vertex 5.84051 9.20317 6
      vertex 6.94792 8.39859 0
      vertex 5.84051 9.20317 0
    endloop
  endfacet
  facet normal -0.844328 0.535827 0
    outer loop
      vertex -9.55174 5.25111 0
      vertex -8.81828 6.40686 6
      vertex -8.81828 6.40686 0
    endloop
  endfacet
  facet normal -0.844328 0.535827 0
    outer loop
      vertex -8.81828 6.40686 6
      vertex -9.55174 5.25111 0
      vertex -9.55174 5.25111 6
    endloop
  endfacet
  facet normal -0.770513 0.637424 0
    outer loop
      vertex -8.81828 6.40686 0
      vertex -7.94576 7.46156 6
      vertex -7.94576 7.46156 0
    endloop
  endfacet
  facet normal -0.770513 0.637424 0
    outer loop
      vertex -7.94576 7.46156 6
      vertex -8.81828 6.40686 0
      vertex -8.81828 6.40686 6
    endloop
  endfacet
  facet normal -0.982287 0.187381 0
    outer loop
      vertex -10.814 1.36613 0
      vertex -10.5576 2.71072 6
      vertex -10.5576 2.71072 0
    endloop
  endfacet
  facet normal -0.982287 0.187381 0
    outer loop
      vertex -10.5576 2.71072 6
      vertex -10.814 1.36613 0
      vertex -10.814 1.36613 6
    endloop
  endfacet
  facet normal 0 0 1
    outer loop
      vertex 8.9 0 6
      vertex 10.9 0 6
      vertex 10.814 1.36613 6
    endloop
  endfacet
  facet normal 0 0 1
    outer loop
      vertex 8.82982 1.11547 6
      vertex 10.814 1.36613 6
      vertex 10.5576 2.71072 6
    endloop
  endfacet
  facet normal 0 0 1
    outer loop
      vertex 10.9 0 6
      vertex 8.9 0 6
      vertex 10.814 -1.36613 6
    endloop
  endfacet
  facet normal 0 0 1
    outer loop
      vertex 8.62039 2.21334 6
      vertex 10.5576 2.71072 6
      vertex 10.1346 4.01256 6
    endloop
  endfacet
  facet normal -0 0 1
    outer loop
      vertex 8.82982 -1.11547 6
      vertex 10.814 -1.36613 6
      vertex 8.9 0 6
    endloop
  endfacet
  facet normal 0 0 1
    outer loop
      vertex 8.27501 3.27631 6
      vertex 10.1346 4.01256 6
      vertex 9.55174 5.25111 6
    endloop
  endfacet
  facet normal 0 0 1
    outer loop
      vertex 10.814 -1.36613 6
      vertex 8.82982 -1.11547 6
      vertex 10.5576 -2.71072 6
    endloop
  endfacet
  facet normal -0 0 1
    outer loop
      vertex 8.62039 -2.21334 6
      vertex 10.5576 -2.71072 6
      vertex 8.82982 -1.11547 6
    endloop
  endfacet
  facet normal 0 0 1
    outer loop
      vertex 10.814 1.36613 6
      vertex 8.82982 1.11547 6
      vertex 8.9 0 6
    endloop
  endfacet
  facet normal 0 0 1
    outer loop
      vertex 7.79913 4.28761 6
      vertex 9.55174 5.25111 6
      vertex 8.81828 6.40686 6
    endloop
  endfacet
  facet normal 0 0 1
    outer loop
      vertex 10.5576 2.71072 6
      vertex 8.62039 2.21334 6
      vertex 8.82982 1.11547 6
    endloop
  endfacet
  facet normal 0 0 1
    outer loop
      vertex 10.1346 4.01256 6
      vertex 8.27501 3.27631 6
      vertex 8.62039 2.21334 6
    endloop
  endfacet
  facet normal 0 0 1
    outer loop
      vertex 7.20025 5.23129 6
      vertex 8.81828 6.40686 6
      vertex 7.94576 7.46156 6
    endloop
  endfacet
  facet normal 0 0 1
    outer loop
      vertex 9.55174 5.25111 6
      vertex 7.79913 4.28761 6
      vertex 8.27501 3.27631 6
    endloop
  endfacet
  facet normal 0 0 1
    outer loop
      vertex 8.81828 6.40686 6
      vertex 7.20025 5.23129 6
      vertex 7.79913 4.28761 6
    endloop
  endfacet
  facet normal 0 0 1
    outer loop
      vertex 6.48782 6.09247 6
      vertex 7.94576 7.46156 6
      vertex 6.94792 8.39859 6
    endloop
  endfacet
  facet normal 0 0 1
    outer loop
      vertex 7.94576 7.46156 6
      vertex 6.48782 6.09247 6
      vertex 7.20025 5.23129 6
    endloop
  endfacet
  facet normal 0 0 1
    outer loop
      vertex 5.67307 6.85757 6
      vertex 6.94792 8.39859 6
      vertex 5.84051 9.20317 6
    endloop
  endfacet
  facet normal 0 0 1
    outer loop
      vertex 6.94792 8.39859 6
      vertex 5.67307 6.85757 6
      vertex 6.48782 6.09247 6
    endloop
  endfacet
  facet normal 0 0 1
    outer loop
      vertex 5.84051 9.20317 6
      vertex 4.76886 7.51452 6
      vertex 5.67307 6.85757 6
    endloop
  endfacet
  facet normal 0 0 1
    outer loop
      vertex 4.64099 9.86261 6
      vertex 4.76886 7.51452 6
      vertex 5.84051 9.20317 6
    endloop
  endfacet
  facet normal 0 0 1
    outer loop
      vertex 4.64099 9.86261 6
      vertex 3.78944 8.05296 6
      vertex 4.76886 7.51452 6
    endloop
  endfacet
  facet normal 0 0 1
    outer loop
      vertex 3.36829 10.3665 6
      vertex 3.78944 8.05296 6
      vertex 4.64099 9.86261 6
    endloop
  endfacet
  facet normal 0 0 1
    outer loop
      vertex 3.36829 10.3665 6
      vertex 2.75025 8.4644 6
      vertex 3.78944 8.05296 6
    endloop
  endfacet
  facet normal 0 0 1
    outer loop
      vertex 2.04246 10.7069 6
      vertex 2.75025 8.4644 6
      vertex 3.36829 10.3665 6
    endloop
  endfacet
  facet normal 0 0 1
    outer loop
      vertex 2.04246 10.7069 6
      vertex 1.66769 8.74236 6
      vertex 2.75025 8.4644 6
    endloop
  endfacet
  facet normal 0 0 1
    outer loop
      vertex 0.684416 10.8785 6
      vertex 1.66769 8.74236 6
      vertex 2.04246 10.7069 6
    endloop
  endfacet
  facet normal 0 0 1
    outer loop
      vertex 0.684416 10.8785 6
      vertex 0.558835 8.88244 6
      vertex 1.66769 8.74236 6
    endloop
  endfacet
  facet normal 0 0 1
    outer loop
      vertex 0.684416 10.8785 6
      vertex -0.558835 8.88244 6
      vertex 0.558835 8.88244 6
    endloop
  endfacet
  facet normal -0 0 1
    outer loop
      vertex -0.684416 10.8785 6
      vertex -0.558835 8.88244 6
      vertex 0.684416 10.8785 6
    endloop
  endfacet
  facet normal 0 0 1
    outer loop
      vertex -0.684416 10.8785 6
      vertex -1.66769 8.74236 6
      vertex -0.558835 8.88244 6
    endloop
  endfacet
  facet normal -0 0 1
    outer loop
      vertex -2.04246 10.7069 6
      vertex -1.66769 8.74236 6
      vertex -0.684416 10.8785 6
    endloop
  endfacet
  facet normal 0 0 1
    outer loop
      vertex -2.04246 10.7069 6
      vertex -2.75025 8.4644 6
      vertex -1.66769 8.74236 6
    endloop
  endfacet
  facet normal -0 0 1
    outer loop
      vertex -3.36829 10.3665 6
      vertex -2.75025 8.4644 6
      vertex -2.04246 10.7069 6
    endloop
  endfacet
  facet normal 0 0 1
    outer loop
      vertex -3.36829 10.3665 6
      vertex -3.78944 8.05296 6
      vertex -2.75025 8.4644 6
    endloop
  endfacet
  facet normal -0 0 1
    outer loop
      vertex -4.64099 9.86261 6
      vertex -3.78944 8.05296 6
      vertex -3.36829 10.3665 6
    endloop
  endfacet
  facet normal 0 0 1
    outer loop
      vertex -4.64099 9.86261 6
      vertex -4.76886 7.51452 6
      vertex -3.78944 8.05296 6
    endloop
  endfacet
  facet normal -0 0 1
    outer loop
      vertex -5.84051 9.20317 6
      vertex -4.76886 7.51452 6
      vertex -4.64099 9.86261 6
    endloop
  endfacet
  facet normal 0 0 1
    outer loop
      vertex -4.76886 7.51452 6
      vertex -5.84051 9.20317 6
      vertex -5.67307 6.85757 6
    endloop
  endfacet
  facet normal -0 0 1
    outer loop
      vertex -6.94792 8.39859 6
      vertex -5.67307 6.85757 6
      vertex -5.84051 9.20317 6
    endloop
  endfacet
  facet normal 0 0 1
    outer loop
      vertex -5.67307 6.85757 6
      vertex -6.94792 8.39859 6
      vertex -6.48782 6.09247 6
    endloop
  endfacet
  facet normal -0 0 1
    outer loop
      vertex -7.94576 7.46156 6
      vertex -6.48782 6.09247 6
      vertex -6.94792 8.39859 6
    endloop
  endfacet
  facet normal 0 0 1
    outer loop
      vertex -6.48782 6.09247 6
      vertex -7.94576 7.46156 6
      vertex -7.20025 5.23129 6
    endloop
  endfacet
  facet normal -0 0 1
    outer loop
      vertex -8.81828 6.40686 6
      vertex -7.20025 5.23129 6
      vertex -7.94576 7.46156 6
    endloop
  endfacet
  facet normal 0 0 1
    outer loop
      vertex -7.20025 5.23129 6
      vertex -8.81828 6.40686 6
      vertex -7.79913 4.28761 6
    endloop
  endfacet
  facet normal -0 0 1
    outer loop
      vertex -9.55174 5.25111 6
      vertex -7.79913 4.28761 6
      vertex -8.81828 6.40686 6
    endloop
  endfacet
  facet normal 0 0 1
    outer loop
      vertex -7.79913 4.28761 6
      vertex -9.55174 5.25111 6
      vertex -8.27501 3.27631 6
    endloop
  endfacet
  facet normal -0 0 1
    outer loop
      vertex -10.1346 4.01256 6
      vertex -8.27501 3.27631 6
      vertex -9.55174 5.25111 6
    endloop
  endfacet
  facet normal 0 0 1
    outer loop
      vertex -8.27501 3.27631 6
      vertex -10.1346 4.01256 6
      vertex -8.62039 2.21334 6
    endloop
  endfacet
  facet normal -0 0 1
    outer loop
      vertex -10.5576 2.71072 6
      vertex -8.62039 2.21334 6
      vertex -10.1346 4.01256 6
    endloop
  endfacet
  facet normal 0 0 1
    outer loop
      vertex 10.5576 -2.71072 6
      vertex 8.62039 -2.21334 6
      vertex 10.1346 -4.01256 6
    endloop
  endfacet
  facet normal -0 0 1
    outer loop
      vertex 8.27501 -3.27631 6
      vertex 10.1346 -4.01256 6
      vertex 8.62039 -2.21334 6
    endloop
  endfacet
  facet normal 0 0 1
    outer loop
      vertex 10.1346 -4.01256 6
      vertex 8.27501 -3.27631 6
      vertex 9.55174 -5.25111 6
    endloop
  endfacet
  facet normal -0 0 1
    outer loop
      vertex 7.79913 -4.28761 6
      vertex 9.55174 -5.25111 6
      vertex 8.27501 -3.27631 6
    endloop
  endfacet
  facet normal 0 0 1
    outer loop
      vertex 9.55174 -5.25111 6
      vertex 7.79913 -4.28761 6
      vertex 8.81828 -6.40686 6
    endloop
  endfacet
  facet normal -0 0 1
    outer loop
      vertex 7.20025 -5.23129 6
      vertex 8.81828 -6.40686 6
      vertex 7.79913 -4.28761 6
    endloop
  endfacet
  facet normal 0 0 1
    outer loop
      vertex 8.81828 -6.40686 6
      vertex 7.20025 -5.23129 6
      vertex 7.94576 -7.46156 6
    endloop
  endfacet
  facet normal -0 0 1
    outer loop
      vertex 6.48782 -6.09247 6
      vertex 7.94576 -7.46156 6
      vertex 7.20025 -5.23129 6
    endloop
  endfacet
  facet normal 0 0 1
    outer loop
      vertex 7.94576 -7.46156 6
      vertex 6.48782 -6.09247 6
      vertex 6.94792 -8.39859 6
    endloop
  endfacet
  facet normal -0 0 1
    outer loop
      vertex 5.67307 -6.85757 6
      vertex 6.94792 -8.39859 6
      vertex 6.48782 -6.09247 6
    endloop
  endfacet
  facet normal 0 0 1
    outer loop
      vertex 6.94792 -8.39859 6
      vertex 5.67307 -6.85757 6
      vertex 5.84051 -9.20317 6
    endloop
  endfacet
  facet normal -0 0 1
    outer loop
      vertex 4.76886 -7.51452 6
      vertex 5.84051 -9.20317 6
      vertex 5.67307 -6.85757 6
    endloop
  endfacet
  facet normal 0 0 1
    outer loop
      vertex 4.76886 -7.51452 6
      vertex 4.64099 -9.86261 6
      vertex 5.84051 -9.20317 6
    endloop
  endfacet
  facet normal -0 0 1
    outer loop
      vertex 3.78944 -8.05296 6
      vertex 4.64099 -9.86261 6
      vertex 4.76886 -7.51452 6
    endloop
  endfacet
  facet normal 0 0 1
    outer loop
      vertex 3.78944 -8.05296 6
      vertex 3.36829 -10.3665 6
      vertex 4.64099 -9.86261 6
    endloop
  endfacet
  facet normal -0 0 1
    outer loop
      vertex 2.75025 -8.4644 6
      vertex 3.36829 -10.3665 6
      vertex 3.78944 -8.05296 6
    endloop
  endfacet
  facet normal 0 0 1
    outer loop
      vertex 2.75025 -8.4644 6
      vertex 2.04246 -10.7069 6
      vertex 3.36829 -10.3665 6
    endloop
  endfacet
  facet normal -0 0 1
    outer loop
      vertex 1.66769 -8.74236 6
      vertex 2.04246 -10.7069 6
      vertex 2.75025 -8.4644 6
    endloop
  endfacet
  facet normal 0 0 1
    outer loop
      vertex 1.66769 -8.74236 6
      vertex 0.684416 -10.8785 6
      vertex 2.04246 -10.7069 6
    endloop
  endfacet
  facet normal -0 0 1
    outer loop
      vertex 0.558835 -8.88244 6
      vertex 0.684416 -10.8785 6
      vertex 1.66769 -8.74236 6
    endloop
  endfacet
  facet normal -0 0 1
    outer loop
      vertex -0.558835 -8.88244 6
      vertex 0.684416 -10.8785 6
      vertex 0.558835 -8.88244 6
    endloop
  endfacet
  facet normal 0 0 1
    outer loop
      vertex -0.558835 -8.88244 6
      vertex -0.684416 -10.8785 6
      vertex 0.684416 -10.8785 6
    endloop
  endfacet
  facet normal 0 0 1
    outer loop
      vertex -1.66769 -8.74236 6
      vertex -0.684416 -10.8785 6
      vertex -0.558835 -8.88244 6
    endloop
  endfacet
  facet normal 0 0 1
    outer loop
      vertex -1.66769 -8.74236 6
      vertex -2.04246 -10.7069 6
      vertex -0.684416 -10.8785 6
    endloop
  endfacet
  facet normal 0 0 1
    outer loop
      vertex -2.75025 -8.4644 6
      vertex -2.04246 -10.7069 6
      vertex -1.66769 -8.74236 6
    endloop
  endfacet
  facet normal 0 0 1
    outer loop
      vertex -2.75025 -8.4644 6
      vertex -3.36829 -10.3665 6
      vertex -2.04246 -10.7069 6
    endloop
  endfacet
  facet normal 0 0 1
    outer loop
      vertex -3.78944 -8.05296 6
      vertex -3.36829 -10.3665 6
      vertex -2.75025 -8.4644 6
    endloop
  endfacet
  facet normal 0 0 1
    outer loop
      vertex -3.78944 -8.05296 6
      vertex -4.64099 -9.86261 6
      vertex -3.36829 -10.3665 6
    endloop
  endfacet
  facet normal 0 0 1
    outer loop
      vertex -4.76886 -7.51452 6
      vertex -4.64099 -9.86261 6
      vertex -3.78944 -8.05296 6
    endloop
  endfacet
  facet normal 0 0 1
    outer loop
      vertex -5.84051 -9.20317 6
      vertex -4.76886 -7.51452 6
      vertex -5.67307 -6.85757 6
    endloop
  endfacet
  facet normal 0 0 1
    outer loop
      vertex -4.76886 -7.51452 6
      vertex -5.84051 -9.20317 6
      vertex -4.64099 -9.86261 6
    endloop
  endfacet
  facet normal 0 0 1
    outer loop
      vertex -6.94792 -8.39859 6
      vertex -5.67307 -6.85757 6
      vertex -6.48782 -6.09247 6
    endloop
  endfacet
  facet normal 0 0 1
    outer loop
      vertex -5.67307 -6.85757 6
      vertex -6.94792 -8.39859 6
      vertex -5.84051 -9.20317 6
    endloop
  endfacet
  facet normal 0 0 1
    outer loop
      vertex -7.94576 -7.46156 6
      vertex -6.48782 -6.09247 6
      vertex -7.20025 -5.23129 6
    endloop
  endfacet
  facet normal 0 0 1
    outer loop
      vertex -8.81828 -6.40686 6
      vertex -7.20025 -5.23129 6
      vertex -7.79913 -4.28761 6
    endloop
  endfacet
  facet normal 0 0 1
    outer loop
      vertex -6.48782 -6.09247 6
      vertex -7.94576 -7.46156 6
      vertex -6.94792 -8.39859 6
    endloop
  endfacet
  facet normal 0 0 1
    outer loop
      vertex -9.55174 -5.25111 6
      vertex -7.79913 -4.28761 6
      vertex -8.27501 -3.27631 6
    endloop
  endfacet
  facet normal 0 0 1
    outer loop
      vertex -10.1346 -4.01256 6
      vertex -8.27501 -3.27631 6
      vertex -8.62039 -2.21334 6
    endloop
  endfacet
  facet normal 0 0 1
    outer loop
      vertex -7.20025 -5.23129 6
      vertex -8.81828 -6.40686 6
      vertex -7.94576 -7.46156 6
    endloop
  endfacet
  facet normal 0 0 1
    outer loop
      vertex -10.5576 -2.71072 6
      vertex -8.62039 -2.21334 6
      vertex -8.82982 -1.11547 6
    endloop
  endfacet
  facet normal 0 0 1
    outer loop
      vertex -10.814 -1.36613 6
      vertex -8.82982 -1.11547 6
      vertex -8.9 0 6
    endloop
  endfacet
  facet normal 0 0 1
    outer loop
      vertex -8.62039 2.21334 6
      vertex -10.5576 2.71072 6
      vertex -8.82982 1.11547 6
    endloop
  endfacet
  facet normal 0 0 1
    outer loop
      vertex -7.79913 -4.28761 6
      vertex -9.55174 -5.25111 6
      vertex -8.81828 -6.40686 6
    endloop
  endfacet
  facet normal -0 0 1
    outer loop
      vertex -10.814 1.36613 6
      vertex -8.82982 1.11547 6
      vertex -10.5576 2.71072 6
    endloop
  endfacet
  facet normal 0 0 1
    outer loop
      vertex -8.27501 -3.27631 6
      vertex -10.1346 -4.01256 6
      vertex -9.55174 -5.25111 6
    endloop
  endfacet
  facet normal 0 0 1
    outer loop
      vertex -8.82982 1.11547 6
      vertex -10.814 1.36613 6
      vertex -8.9 0 6
    endloop
  endfacet
  facet normal 0 0 1
    outer loop
      vertex -8.62039 -2.21334 6
      vertex -10.5576 -2.71072 6
      vertex -10.1346 -4.01256 6
    endloop
  endfacet
  facet normal 0 0 1
    outer loop
      vertex -10.9 0 6
      vertex -8.9 0 6
      vertex -10.814 1.36613 6
    endloop
  endfacet
  facet normal 0 0 1
    outer loop
      vertex -8.82982 -1.11547 6
      vertex -10.814 -1.36613 6
      vertex -10.5576 -2.71072 6
    endloop
  endfacet
  facet normal 0 0 1
    outer loop
      vertex -8.9 0 6
      vertex -10.9 0 6
      vertex -10.814 -1.36613 6
    endloop
  endfacet
  facet normal -0.481754 0.876306 0
    outer loop
      vertex -4.64099 9.86261 0
      vertex -5.84051 9.20317 6
      vertex -4.64099 9.86261 6
    endloop
  endfacet
  facet normal -0.481754 0.876306 0
    outer loop
      vertex -5.84051 9.20317 6
      vertex -4.64099 9.86261 0
      vertex -5.84051 9.20317 0
    endloop
  endfacet
  facet normal -0.587785 0.809017 0
    outer loop
      vertex -5.84051 9.20317 0
      vertex -6.94792 8.39859 6
      vertex -5.84051 9.20317 6
    endloop
  endfacet
  facet normal -0.587785 0.809017 0
    outer loop
      vertex -6.94792 8.39859 6
      vertex -5.84051 9.20317 0
      vertex -6.94792 8.39859 0
    endloop
  endfacet
  facet normal -0.24869 0.968583 0
    outer loop
      vertex -2.04246 10.7069 0
      vertex -3.36829 10.3665 6
      vertex -2.04246 10.7069 6
    endloop
  endfacet
  facet normal -0.24869 0.968583 0
    outer loop
      vertex -3.36829 10.3665 6
      vertex -2.04246 10.7069 0
      vertex -3.36829 10.3665 0
    endloop
  endfacet
  facet normal 0.998027 -0.0627906 0
    outer loop
      vertex 10.814 -1.36613 6
      vertex 10.9 0 0
      vertex 10.9 0 6
    endloop
  endfacet
  facet normal 0.998027 -0.0627906 0
    outer loop
      vertex 10.9 0 0
      vertex 10.814 -1.36613 6
      vertex 10.814 -1.36613 0
    endloop
  endfacet
  facet normal 0.904827 -0.425779 0
    outer loop
      vertex 9.55174 -5.25111 6
      vertex 10.1346 -4.01256 0
      vertex 10.1346 -4.01256 6
    endloop
  endfacet
  facet normal 0.904827 -0.425779 0
    outer loop
      vertex 10.1346 -4.01256 0
      vertex 9.55174 -5.25111 6
      vertex 9.55174 -5.25111 0
    endloop
  endfacet
  facet normal -0.684547 -0.728969 0
    outer loop
      vertex -7.94576 -7.46156 0
      vertex -6.94792 -8.39859 6
      vertex -7.94576 -7.46156 6
    endloop
  endfacet
  facet normal -0.684547 -0.728969 -0
    outer loop
      vertex -6.94792 -8.39859 6
      vertex -7.94576 -7.46156 0
      vertex -6.94792 -8.39859 0
    endloop
  endfacet
  facet normal -0.904827 -0.425779 0
    outer loop
      vertex -9.55174 -5.25111 0
      vertex -10.1346 -4.01256 6
      vertex -10.1346 -4.01256 0
    endloop
  endfacet
  facet normal -0.904827 -0.425779 0
    outer loop
      vertex -10.1346 -4.01256 6
      vertex -9.55174 -5.25111 0
      vertex -9.55174 -5.25111 6
    endloop
  endfacet
  facet normal -0.844328 -0.535827 0
    outer loop
      vertex -8.81828 -6.40686 0
      vertex -9.55174 -5.25111 6
      vertex -9.55174 -5.25111 0
    endloop
  endfacet
  facet normal -0.844328 -0.535827 0
    outer loop
      vertex -9.55174 -5.25111 6
      vertex -8.81828 -6.40686 0
      vertex -8.81828 -6.40686 6
    endloop
  endfacet
  facet normal 0 0 -1
    outer loop
      vertex 10.814 -1.36613 0
      vertex 10.814 1.36613 0
      vertex 10.9 0 0
    endloop
  endfacet
  facet normal 0 0 -1
    outer loop
      vertex 10.5576 -2.71072 0
      vertex 10.814 1.36613 0
      vertex 10.814 -1.36613 0
    endloop
  endfacet
  facet normal 0 0 -1
    outer loop
      vertex 10.5576 -2.71072 0
      vertex 10.5576 2.71072 0
      vertex 10.814 1.36613 0
    endloop
  endfacet
  facet normal 0 0 -1
    outer loop
      vertex 10.1346 -4.01256 0
      vertex 10.5576 2.71072 0
      vertex 10.5576 -2.71072 0
    endloop
  endfacet
  facet normal 0 0 -1
    outer loop
      vertex 10.1346 -4.01256 0
      vertex 10.1346 4.01256 0
      vertex 10.5576 2.71072 0
    endloop
  endfacet
  facet normal 0 0 -1
    outer loop
      vertex 9.55174 -5.25111 0
      vertex 10.1346 4.01256 0
      vertex 10.1346 -4.01256 0
    endloop
  endfacet
  facet normal 0 0 -1
    outer loop
      vertex 9.55174 -5.25111 0
      vertex 9.55174 5.25111 0
      vertex 10.1346 4.01256 0
    endloop
  endfacet
  facet normal 0 0 -1
    outer loop
      vertex 8.81828 -6.40686 0
      vertex 9.55174 5.25111 0
      vertex 9.55174 -5.25111 0
    endloop
  endfacet
  facet normal 0 0 -1
    outer loop
      vertex 8.81828 -6.40686 0
      vertex 8.81828 6.40686 0
      vertex 9.55174 5.25111 0
    endloop
  endfacet
  facet normal 0 0 -1
    outer loop
      vertex 7.94576 -7.46156 0
      vertex 8.81828 6.40686 0
      vertex 8.81828 -6.40686 0
    endloop
  endfacet
  facet normal 0 0 -1
    outer loop
      vertex 7.94576 -7.46156 0
      vertex 7.94576 7.46156 0
      vertex 8.81828 6.40686 0
    endloop
  endfacet
  facet normal 0 0 -1
    outer loop
      vertex 6.94792 -8.39859 0
      vertex 7.94576 7.46156 0
      vertex 7.94576 -7.46156 0
    endloop
  endfacet
  facet normal 0 0 -1
    outer loop
      vertex 6.94792 -8.39859 0
      vertex 6.94792 8.39859 0
      vertex 7.94576 7.46156 0
    endloop
  endfacet
  facet normal 0 0 -1
    outer loop
      vertex 5.84051 -9.20317 0
      vertex 6.94792 8.39859 0
      vertex 6.94792 -8.39859 0
    endloop
  endfacet
  facet normal 0 0 -1
    outer loop
      vertex 5.84051 -9.20317 0
      vertex 5.84051 9.20317 0
      vertex 6.94792 8.39859 0
    endloop
  endfacet
  facet normal 0 0 -1
    outer loop
      vertex 4.64099 -9.86261 0
      vertex 5.84051 9.20317 0
      vertex 5.84051 -9.20317 0
    endloop
  endfacet
  facet normal 0 0 -1
    outer loop
      vertex 4.64099 -9.86261 0
      vertex 4.64099 9.86261 0
      vertex 5.84051 9.20317 0
    endloop
  endfacet
  facet normal 0 0 -1
    outer loop
      vertex 3.36829 -10.3665 0
      vertex 4.64099 9.86261 0
      vertex 4.64099 -9.86261 0
    endloop
  endfacet
  facet normal 0 0 -1
    outer loop
      vertex 3.36829 -10.3665 0
      vertex 3.36829 10.3665 0
      vertex 4.64099 9.86261 0
    endloop
  endfacet
  facet normal 0 0 -1
    outer loop
      vertex 2.04246 -10.7069 0
      vertex 3.36829 10.3665 0
      vertex 3.36829 -10.3665 0
    endloop
  endfacet
  facet normal 0 0 -1
    outer loop
      vertex 2.04246 -10.7069 0
      vertex 2.04246 10.7069 0
      vertex 3.36829 10.3665 0
    endloop
  endfacet
  facet normal 0 0 -1
    outer loop
      vertex 0.684416 -10.8785 0
      vertex 2.04246 10.7069 0
      vertex 2.04246 -10.7069 0
    endloop
  endfacet
  facet normal 0 0 -1
    outer loop
      vertex 0.684416 -10.8785 0
      vertex 0.684416 10.8785 0
      vertex 2.04246 10.7069 0
    endloop
  endfacet
  facet normal 0 0 -1
    outer loop
      vertex -0.684416 -10.8785 0
      vertex 0.684416 10.8785 0
      vertex 0.684416 -10.8785 0
    endloop
  endfacet
  facet normal 0 0 -1
    outer loop
      vertex -0.684416 -10.8785 0
      vertex -0.684416 10.8785 0
      vertex 0.684416 10.8785 0
    endloop
  endfacet
  facet normal 0 0 -1
    outer loop
      vertex -2.04246 -10.7069 0
      vertex -0.684416 10.8785 0
      vertex -0.684416 -10.8785 0
    endloop
  endfacet
  facet normal 0 0 -1
    outer loop
      vertex -2.04246 -10.7069 0
      vertex -2.04246 10.7069 0
      vertex -0.684416 10.8785 0
    endloop
  endfacet
  facet normal 0 0 -1
    outer loop
      vertex -3.36829 -10.3665 0
      vertex -2.04246 10.7069 0
      vertex -2.04246 -10.7069 0
    endloop
  endfacet
  facet normal 0 0 -1
    outer loop
      vertex -3.36829 -10.3665 0
      vertex -3.36829 10.3665 0
      vertex -2.04246 10.7069 0
    endloop
  endfacet
  facet normal 0 0 -1
    outer loop
      vertex -4.64099 -9.86261 0
      vertex -3.36829 10.3665 0
      vertex -3.36829 -10.3665 0
    endloop
  endfacet
  facet normal 0 0 -1
    outer loop
      vertex -4.64099 -9.86261 0
      vertex -4.64099 9.86261 0
      vertex -3.36829 10.3665 0
    endloop
  endfacet
  facet normal 0 0 -1
    outer loop
      vertex -5.84051 -9.20317 0
      vertex -4.64099 9.86261 0
      vertex -4.64099 -9.86261 0
    endloop
  endfacet
  facet normal 0 0 -1
    outer loop
      vertex -5.84051 -9.20317 0
      vertex -5.84051 9.20317 0
      vertex -4.64099 9.86261 0
    endloop
  endfacet
  facet normal 0 0 -1
    outer loop
      vertex -6.94792 -8.39859 0
      vertex -5.84051 9.20317 0
      vertex -5.84051 -9.20317 0
    endloop
  endfacet
  facet normal 0 0 -1
    outer loop
      vertex -6.94792 -8.39859 0
      vertex -6.94792 8.39859 0
      vertex -5.84051 9.20317 0
    endloop
  endfacet
  facet normal 0 0 -1
    outer loop
      vertex -7.94576 -7.46156 0
      vertex -6.94792 8.39859 0
      vertex -6.94792 -8.39859 0
    endloop
  endfacet
  facet normal 0 0 -1
    outer loop
      vertex -7.94576 -7.46156 0
      vertex -7.94576 7.46156 0
      vertex -6.94792 8.39859 0
    endloop
  endfacet
  facet normal 0 0 -1
    outer loop
      vertex -8.81828 -6.40686 0
      vertex -7.94576 7.46156 0
      vertex -7.94576 -7.46156 0
    endloop
  endfacet
  facet normal 0 0 -1
    outer loop
      vertex -8.81828 -6.40686 0
      vertex -8.81828 6.40686 0
      vertex -7.94576 7.46156 0
    endloop
  endfacet
  facet normal 0 0 -1
    outer loop
      vertex -9.55174 -5.25111 0
      vertex -8.81828 6.40686 0
      vertex -8.81828 -6.40686 0
    endloop
  endfacet
  facet normal 0 0 -1
    outer loop
      vertex -9.55174 -5.25111 0
      vertex -9.55174 5.25111 0
      vertex -8.81828 6.40686 0
    endloop
  endfacet
  facet normal 0 0 -1
    outer loop
      vertex -10.1346 -4.01256 0
      vertex -9.55174 5.25111 0
      vertex -9.55174 -5.25111 0
    endloop
  endfacet
  facet normal 0 0 -1
    outer loop
      vertex -10.1346 -4.01256 0
      vertex -10.1346 4.01256 0
      vertex -9.55174 5.25111 0
    endloop
  endfacet
  facet normal 0 0 -1
    outer loop
      vertex -10.5576 -2.71072 0
      vertex -10.1346 4.01256 0
      vertex -10.1346 -4.01256 0
    endloop
  endfacet
  facet normal 0 0 -1
    outer loop
      vertex -10.5576 -2.71072 0
      vertex -10.5576 2.71072 0
      vertex -10.1346 4.01256 0
    endloop
  endfacet
  facet normal 0 0 -1
    outer loop
      vertex -10.814 -1.36613 0
      vertex -10.5576 2.71072 0
      vertex -10.5576 -2.71072 0
    endloop
  endfacet
  facet normal 0 0 -1
    outer loop
      vertex -10.814 -1.36613 0
      vertex -10.814 1.36613 0
      vertex -10.5576 2.71072 0
    endloop
  endfacet
  facet normal 0 -0 -1
    outer loop
      vertex -10.814 1.36613 0
      vertex -10.814 -1.36613 0
      vertex -10.9 0 0
    endloop
  endfacet
  facet normal 0.481754 -0.876306 0
    outer loop
      vertex 4.64099 -9.86261 0
      vertex 5.84051 -9.20317 6
      vertex 4.64099 -9.86261 6
    endloop
  endfacet
  facet normal 0.481754 -0.876306 0
    outer loop
      vertex 5.84051 -9.20317 6
      vertex 4.64099 -9.86261 0
      vertex 5.84051 -9.20317 0
    endloop
  endfacet
  facet normal 0.951057 -0.309017 0
    outer loop
      vertex 10.1346 -4.01256 6
      vertex 10.5576 -2.71072 0
      vertex 10.5576 -2.71072 6
    endloop
  endfacet
  facet normal 0.951057 -0.309017 0
    outer loop
      vertex 10.5576 -2.71072 0
      vertex 10.1346 -4.01256 6
      vertex 10.1346 -4.01256 0
    endloop
  endfacet
  facet normal -0.368124 -0.929777 0
    outer loop
      vertex -4.64099 -9.86261 0
      vertex -3.36829 -10.3665 6
      vertex -4.64099 -9.86261 6
    endloop
  endfacet
  facet normal -0.368124 -0.929777 -0
    outer loop
      vertex -3.36829 -10.3665 6
      vertex -4.64099 -9.86261 0
      vertex -3.36829 -10.3665 0
    endloop
  endfacet
  facet normal -0.481754 -0.876306 0
    outer loop
      vertex -5.84051 -9.20317 0
      vertex -4.64099 -9.86261 6
      vertex -5.84051 -9.20317 6
    endloop
  endfacet
  facet normal -0.481754 -0.876306 -0
    outer loop
      vertex -4.64099 -9.86261 6
      vertex -5.84051 -9.20317 0
      vertex -4.64099 -9.86261 0
    endloop
  endfacet
  facet normal -0.770513 -0.637424 0
    outer loop
      vertex -7.94576 -7.46156 0
      vertex -8.81828 -6.40686 6
      vertex -8.81828 -6.40686 0
    endloop
  endfacet
  facet normal -0.770513 -0.637424 0
    outer loop
      vertex -8.81828 -6.40686 6
      vertex -7.94576 -7.46156 0
      vertex -7.94576 -7.46156 6
    endloop
  endfacet
  facet normal -0.951057 -0.309017 0
    outer loop
      vertex -10.1346 -4.01256 0
      vertex -10.5576 -2.71072 6
      vertex -10.5576 -2.71072 0
    endloop
  endfacet
  facet normal -0.951057 -0.309017 0
    outer loop
      vertex -10.5576 -2.71072 6
      vertex -10.1346 -4.01256 0
      vertex -10.1346 -4.01256 6
    endloop
  endfacet
  facet normal 0.684547 -0.728969 0
    outer loop
      vertex 6.94792 -8.39859 0
      vertex 7.94576 -7.46156 6
      vertex 6.94792 -8.39859 6
    endloop
  endfacet
  facet normal 0.684547 -0.728969 0
    outer loop
      vertex 7.94576 -7.46156 6
      vertex 6.94792 -8.39859 0
      vertex 7.94576 -7.46156 0
    endloop
  endfacet
  facet normal 0.368124 -0.929777 0
    outer loop
      vertex 3.36829 -10.3665 0
      vertex 4.64099 -9.86261 6
      vertex 3.36829 -10.3665 6
    endloop
  endfacet
  facet normal 0.368124 -0.929777 0
    outer loop
      vertex 4.64099 -9.86261 6
      vertex 3.36829 -10.3665 0
      vertex 4.64099 -9.86261 0
    endloop
  endfacet
  facet normal 0.24869 -0.968583 0
    outer loop
      vertex 2.04246 -10.7069 0
      vertex 3.36829 -10.3665 6
      vertex 2.04246 -10.7069 6
    endloop
  endfacet
  facet normal 0.24869 -0.968583 0
    outer loop
      vertex 3.36829 -10.3665 6
      vertex 2.04246 -10.7069 0
      vertex 3.36829 -10.3665 0
    endloop
  endfacet
  facet normal 0.982287 -0.187381 0
    outer loop
      vertex 10.5576 -2.71072 6
      vertex 10.814 -1.36613 0
      vertex 10.814 -1.36613 6
    endloop
  endfacet
  facet normal 0.982287 -0.187381 0
    outer loop
      vertex 10.814 -1.36613 0
      vertex 10.5576 -2.71072 6
      vertex 10.5576 -2.71072 0
    endloop
  endfacet
  facet normal 0.844328 -0.535827 0
    outer loop
      vertex 8.81828 -6.40686 6
      vertex 9.55174 -5.25111 0
      vertex 9.55174 -5.25111 6
    endloop
  endfacet
  facet normal 0.844328 -0.535827 0
    outer loop
      vertex 9.55174 -5.25111 0
      vertex 8.81828 -6.40686 6
      vertex 8.81828 -6.40686 0
    endloop
  endfacet
  facet normal 0.770513 -0.637424 0
    outer loop
      vertex 7.94576 -7.46156 6
      vertex 8.81828 -6.40686 0
      vertex 8.81828 -6.40686 6
    endloop
  endfacet
  facet normal 0.770513 -0.637424 0
    outer loop
      vertex 8.81828 -6.40686 0
      vertex 7.94576 -7.46156 6
      vertex 7.94576 -7.46156 0
    endloop
  endfacet
  facet normal -0.125333 -0.992115 0
    outer loop
      vertex -2.04246 -10.7069 0
      vertex -0.684416 -10.8785 6
      vertex -2.04246 -10.7069 6
    endloop
  endfacet
  facet normal -0.125333 -0.992115 -0
    outer loop
      vertex -0.684416 -10.8785 6
      vertex -2.04246 -10.7069 0
      vertex -0.684416 -10.8785 0
    endloop
  endfacet
  facet normal -0.587785 -0.809017 0
    outer loop
      vertex -6.94792 -8.39859 0
      vertex -5.84051 -9.20317 6
      vertex -6.94792 -8.39859 6
    endloop
  endfacet
  facet normal -0.587785 -0.809017 -0
    outer loop
      vertex -5.84051 -9.20317 6
      vertex -6.94792 -8.39859 0
      vertex -5.84051 -9.20317 0
    endloop
  endfacet
  facet normal -0.982287 -0.187381 0
    outer loop
      vertex -10.5576 -2.71072 0
      vertex -10.814 -1.36613 6
      vertex -10.814 -1.36613 0
    endloop
  endfacet
  facet normal -0.982287 -0.187381 0
    outer loop
      vertex -10.814 -1.36613 6
      vertex -10.5576 -2.71072 0
      vertex -10.5576 -2.71072 6
    endloop
  endfacet
  facet normal -0.998027 -0.0627906 0
    outer loop
      vertex -10.814 -1.36613 0
      vertex -10.9 0 6
      vertex -10.9 0 0
    endloop
  endfacet
  facet normal -0.998027 -0.0627906 0
    outer loop
      vertex -10.9 0 6
      vertex -10.814 -1.36613 0
      vertex -10.814 -1.36613 6
    endloop
  endfacet
  facet normal 0.587785 -0.809017 0
    outer loop
      vertex 5.84051 -9.20317 0
      vertex 6.94792 -8.39859 6
      vertex 5.84051 -9.20317 6
    endloop
  endfacet
  facet normal 0.587785 -0.809017 0
    outer loop
      vertex 6.94792 -8.39859 6
      vertex 5.84051 -9.20317 0
      vertex 6.94792 -8.39859 0
    endloop
  endfacet
  facet normal -0.24869 -0.968583 0
    outer loop
      vertex -3.36829 -10.3665 0
      vertex -2.04246 -10.7069 6
      vertex -3.36829 -10.3665 6
    endloop
  endfacet
  facet normal -0.24869 -0.968583 -0
    outer loop
      vertex -2.04246 -10.7069 6
      vertex -3.36829 -10.3665 0
      vertex -2.04246 -10.7069 0
    endloop
  endfacet
  facet normal -0.998027 -0.0627904 0
    outer loop
      vertex 8.9 0 2
      vertex 8.82982 1.11547 6
      vertex 8.82982 1.11547 2
    endloop
  endfacet
  facet normal -0.998027 -0.0627904 0
    outer loop
      vertex 8.82982 1.11547 6
      vertex 8.9 0 2
      vertex 8.9 0 6
    endloop
  endfacet
  facet normal 0.998027 -0.0627904 0
    outer loop
      vertex -8.9 0 6
      vertex -8.82982 1.11547 2
      vertex -8.82982 1.11547 6
    endloop
  endfacet
  facet normal 0.998027 -0.0627904 0
    outer loop
      vertex -8.82982 1.11547 2
      vertex -8.9 0 6
      vertex -8.9 0 2
    endloop
  endfacet
  facet normal 0 -1 0
    outer loop
      vertex -0.558835 8.88244 2
      vertex 0.558835 8.88244 6
      vertex -0.558835 8.88244 6
    endloop
  endfacet
  facet normal 0 -1 -0
    outer loop
      vertex 0.558835 8.88244 6
      vertex -0.558835 8.88244 2
      vertex 0.558835 8.88244 2
    endloop
  endfacet
  facet normal 0 1 -0
    outer loop
      vertex 0.558835 -8.88244 2
      vertex -0.558835 -8.88244 6
      vertex 0.558835 -8.88244 6
    endloop
  endfacet
  facet normal 0 1 0
    outer loop
      vertex -0.558835 -8.88244 6
      vertex 0.558835 -8.88244 2
      vertex -0.558835 -8.88244 2
    endloop
  endfacet
  facet normal -0.684547 -0.728969 0
    outer loop
      vertex 5.67307 6.85757 2
      vertex 6.48782 6.09247 6
      vertex 5.67307 6.85757 6
    endloop
  endfacet
  facet normal -0.684547 -0.728969 -0
    outer loop
      vertex 6.48782 6.09247 6
      vertex 5.67307 6.85757 2
      vertex 6.48782 6.09247 2
    endloop
  endfacet
  facet normal 0.684547 -0.728969 0
    outer loop
      vertex -6.48782 6.09247 2
      vertex -5.67307 6.85757 6
      vertex -6.48782 6.09247 6
    endloop
  endfacet
  facet normal 0.684547 -0.728969 0
    outer loop
      vertex -5.67307 6.85757 6
      vertex -6.48782 6.09247 2
      vertex -5.67307 6.85757 2
    endloop
  endfacet
  facet normal 0.368124 -0.929777 0
    outer loop
      vertex -3.78944 8.05296 2
      vertex -2.75025 8.4644 6
      vertex -3.78944 8.05296 6
    endloop
  endfacet
  facet normal 0.368124 -0.929777 0
    outer loop
      vertex -2.75025 8.4644 6
      vertex -3.78944 8.05296 2
      vertex -2.75025 8.4644 2
    endloop
  endfacet
  facet normal -0.904827 -0.42578 0
    outer loop
      vertex 8.27501 3.27631 2
      vertex 7.79913 4.28761 6
      vertex 7.79913 4.28761 2
    endloop
  endfacet
  facet normal -0.904827 -0.42578 0
    outer loop
      vertex 7.79913 4.28761 6
      vertex 8.27501 3.27631 2
      vertex 8.27501 3.27631 6
    endloop
  endfacet
  facet normal -0.982287 -0.187381 0
    outer loop
      vertex 8.82982 1.11547 2
      vertex 8.62039 2.21334 6
      vertex 8.62039 2.21334 2
    endloop
  endfacet
  facet normal -0.982287 -0.187381 0
    outer loop
      vertex 8.62039 2.21334 6
      vertex 8.82982 1.11547 2
      vertex 8.82982 1.11547 6
    endloop
  endfacet
  facet normal -0.368124 -0.929777 0
    outer loop
      vertex 2.75025 8.4644 2
      vertex 3.78944 8.05296 6
      vertex 2.75025 8.4644 6
    endloop
  endfacet
  facet normal -0.368124 -0.929777 -0
    outer loop
      vertex 3.78944 8.05296 6
      vertex 2.75025 8.4644 2
      vertex 3.78944 8.05296 2
    endloop
  endfacet
  facet normal -0.24869 -0.968583 0
    outer loop
      vertex 1.66769 8.74236 2
      vertex 2.75025 8.4644 6
      vertex 1.66769 8.74236 6
    endloop
  endfacet
  facet normal -0.24869 -0.968583 -0
    outer loop
      vertex 2.75025 8.4644 6
      vertex 1.66769 8.74236 2
      vertex 2.75025 8.4644 2
    endloop
  endfacet
  facet normal -0.481754 -0.876306 0
    outer loop
      vertex 3.78944 8.05296 2
      vertex 4.76886 7.51452 6
      vertex 3.78944 8.05296 6
    endloop
  endfacet
  facet normal -0.481754 -0.876306 -0
    outer loop
      vertex 4.76886 7.51452 6
      vertex 3.78944 8.05296 2
      vertex 4.76886 7.51452 2
    endloop
  endfacet
  facet normal 0.904827 -0.42578 0
    outer loop
      vertex -8.27501 3.27631 6
      vertex -7.79913 4.28761 2
      vertex -7.79913 4.28761 6
    endloop
  endfacet
  facet normal 0.904827 -0.42578 0
    outer loop
      vertex -7.79913 4.28761 2
      vertex -8.27501 3.27631 6
      vertex -8.27501 3.27631 2
    endloop
  endfacet
  facet normal 0.951056 -0.309017 0
    outer loop
      vertex -8.62039 2.21334 6
      vertex -8.27501 3.27631 2
      vertex -8.27501 3.27631 6
    endloop
  endfacet
  facet normal 0.951056 -0.309017 0
    outer loop
      vertex -8.27501 3.27631 2
      vertex -8.62039 2.21334 6
      vertex -8.62039 2.21334 2
    endloop
  endfacet
  facet normal 0.125333 -0.992115 0
    outer loop
      vertex -1.66769 8.74236 2
      vertex -0.558835 8.88244 6
      vertex -1.66769 8.74236 6
    endloop
  endfacet
  facet normal 0.125333 -0.992115 0
    outer loop
      vertex -0.558835 8.88244 6
      vertex -1.66769 8.74236 2
      vertex -0.558835 8.88244 2
    endloop
  endfacet
  facet normal -0.982287 0.187381 0
    outer loop
      vertex 8.62039 -2.21334 2
      vertex 8.82982 -1.11547 6
      vertex 8.82982 -1.11547 2
    endloop
  endfacet
  facet normal -0.982287 0.187381 0
    outer loop
      vertex 8.82982 -1.11547 6
      vertex 8.62039 -2.21334 2
      vertex 8.62039 -2.21334 6
    endloop
  endfacet
  facet normal -0.125333 0.992115 0
    outer loop
      vertex 1.66769 -8.74236 2
      vertex 0.558835 -8.88244 6
      vertex 1.66769 -8.74236 6
    endloop
  endfacet
  facet normal -0.125333 0.992115 0
    outer loop
      vertex 0.558835 -8.88244 6
      vertex 1.66769 -8.74236 2
      vertex 0.558835 -8.88244 2
    endloop
  endfacet
  facet normal -0.951056 -0.309017 0
    outer loop
      vertex 8.62039 2.21334 2
      vertex 8.27501 3.27631 6
      vertex 8.27501 3.27631 2
    endloop
  endfacet
  facet normal -0.951056 -0.309017 0
    outer loop
      vertex 8.27501 3.27631 6
      vertex 8.62039 2.21334 2
      vertex 8.62039 2.21334 6
    endloop
  endfacet
  facet normal -0.770514 -0.637423 0
    outer loop
      vertex 7.20025 5.23129 2
      vertex 6.48782 6.09247 6
      vertex 6.48782 6.09247 2
    endloop
  endfacet
  facet normal -0.770514 -0.637423 0
    outer loop
      vertex 6.48782 6.09247 6
      vertex 7.20025 5.23129 2
      vertex 7.20025 5.23129 6
    endloop
  endfacet
  facet normal -0.844328 -0.535827 0
    outer loop
      vertex 7.79913 4.28761 2
      vertex 7.20025 5.23129 6
      vertex 7.20025 5.23129 2
    endloop
  endfacet
  facet normal -0.844328 -0.535827 0
    outer loop
      vertex 7.20025 5.23129 6
      vertex 7.79913 4.28761 2
      vertex 7.79913 4.28761 6
    endloop
  endfacet
  facet normal -0.125333 -0.992115 0
    outer loop
      vertex 0.558835 8.88244 2
      vertex 1.66769 8.74236 6
      vertex 0.558835 8.88244 6
    endloop
  endfacet
  facet normal -0.125333 -0.992115 -0
    outer loop
      vertex 1.66769 8.74236 6
      vertex 0.558835 8.88244 2
      vertex 1.66769 8.74236 2
    endloop
  endfacet
  facet normal -0.587785 -0.809017 0
    outer loop
      vertex 4.76886 7.51452 2
      vertex 5.67307 6.85757 6
      vertex 4.76886 7.51452 6
    endloop
  endfacet
  facet normal -0.587785 -0.809017 -0
    outer loop
      vertex 5.67307 6.85757 6
      vertex 4.76886 7.51452 2
      vertex 5.67307 6.85757 2
    endloop
  endfacet
  facet normal 0.844328 -0.535827 0
    outer loop
      vertex -7.79913 4.28761 6
      vertex -7.20025 5.23129 2
      vertex -7.20025 5.23129 6
    endloop
  endfacet
  facet normal 0.844328 -0.535827 0
    outer loop
      vertex -7.20025 5.23129 2
      vertex -7.79913 4.28761 6
      vertex -7.79913 4.28761 2
    endloop
  endfacet
  facet normal 0.770514 -0.637423 0
    outer loop
      vertex -7.20025 5.23129 6
      vertex -6.48782 6.09247 2
      vertex -6.48782 6.09247 6
    endloop
  endfacet
  facet normal 0.770514 -0.637423 0
    outer loop
      vertex -6.48782 6.09247 2
      vertex -7.20025 5.23129 6
      vertex -7.20025 5.23129 2
    endloop
  endfacet
  facet normal 0.982287 -0.187381 0
    outer loop
      vertex -8.82982 1.11547 6
      vertex -8.62039 2.21334 2
      vertex -8.62039 2.21334 6
    endloop
  endfacet
  facet normal 0.982287 -0.187381 0
    outer loop
      vertex -8.62039 2.21334 2
      vertex -8.82982 1.11547 6
      vertex -8.82982 1.11547 2
    endloop
  endfacet
  facet normal 0.481754 -0.876306 0
    outer loop
      vertex -4.76886 7.51452 2
      vertex -3.78944 8.05296 6
      vertex -4.76886 7.51452 6
    endloop
  endfacet
  facet normal 0.481754 -0.876306 0
    outer loop
      vertex -3.78944 8.05296 6
      vertex -4.76886 7.51452 2
      vertex -3.78944 8.05296 2
    endloop
  endfacet
  facet normal 0.587785 -0.809017 0
    outer loop
      vertex -5.67307 6.85757 2
      vertex -4.76886 7.51452 6
      vertex -5.67307 6.85757 6
    endloop
  endfacet
  facet normal 0.587785 -0.809017 0
    outer loop
      vertex -4.76886 7.51452 6
      vertex -5.67307 6.85757 2
      vertex -4.76886 7.51452 2
    endloop
  endfacet
  facet normal 0.24869 -0.968583 0
    outer loop
      vertex -2.75025 8.4644 2
      vertex -1.66769 8.74236 6
      vertex -2.75025 8.4644 6
    endloop
  endfacet
  facet normal 0.24869 -0.968583 0
    outer loop
      vertex -1.66769 8.74236 6
      vertex -2.75025 8.4644 2
      vertex -1.66769 8.74236 2
    endloop
  endfacet
  facet normal -0.998027 0.0627904 0
    outer loop
      vertex 8.82982 -1.11547 2
      vertex 8.9 0 6
      vertex 8.9 0 2
    endloop
  endfacet
  facet normal -0.998027 0.0627904 0
    outer loop
      vertex 8.9 0 6
      vertex 8.82982 -1.11547 2
      vertex 8.82982 -1.11547 6
    endloop
  endfacet
  facet normal 0.684547 0.728969 -0
    outer loop
      vertex -5.67307 -6.85757 2
      vertex -6.48782 -6.09247 6
      vertex -5.67307 -6.85757 6
    endloop
  endfacet
  facet normal 0.684547 0.728969 0
    outer loop
      vertex -6.48782 -6.09247 6
      vertex -5.67307 -6.85757 2
      vertex -6.48782 -6.09247 2
    endloop
  endfacet
  facet normal 0.904827 0.42578 0
    outer loop
      vertex -7.79913 -4.28761 6
      vertex -8.27501 -3.27631 2
      vertex -8.27501 -3.27631 6
    endloop
  endfacet
  facet normal 0.904827 0.42578 0
    outer loop
      vertex -8.27501 -3.27631 2
      vertex -7.79913 -4.28761 6
      vertex -7.79913 -4.28761 2
    endloop
  endfacet
  facet normal 0.844328 0.535827 0
    outer loop
      vertex -7.20025 -5.23129 6
      vertex -7.79913 -4.28761 2
      vertex -7.79913 -4.28761 6
    endloop
  endfacet
  facet normal 0.844328 0.535827 0
    outer loop
      vertex -7.79913 -4.28761 2
      vertex -7.20025 -5.23129 6
      vertex -7.20025 -5.23129 2
    endloop
  endfacet
  facet normal 0 0 1
    outer loop
      vertex 8.82982 1.11547 2
      vertex 8.82982 -1.11547 2
      vertex 8.9 0 2
    endloop
  endfacet
  facet normal 0 0 1
    outer loop
      vertex 8.62039 2.21334 2
      vertex 8.82982 -1.11547 2
      vertex 8.82982 1.11547 2
    endloop
  endfacet
  facet normal 0 0 1
    outer loop
      vertex 8.62039 2.21334 2
      vertex 8.62039 -2.21334 2
      vertex 8.82982 -1.11547 2
    endloop
  endfacet
  facet normal 0 0 1
    outer loop
      vertex 8.27501 3.27631 2
      vertex 8.62039 -2.21334 2
      vertex 8.62039 2.21334 2
    endloop
  endfacet
  facet normal 0 0 1
    outer loop
      vertex 8.27501 3.27631 2
      vertex 8.27501 -3.27631 2
      vertex 8.62039 -2.21334 2
    endloop
  endfacet
  facet normal 0 0 1
    outer loop
      vertex 7.79913 4.28761 2
      vertex 8.27501 -3.27631 2
      vertex 8.27501 3.27631 2
    endloop
  endfacet
  facet normal 0 0 1
    outer loop
      vertex 7.79913 4.28761 2
      vertex 7.79913 -4.28761 2
      vertex 8.27501 -3.27631 2
    endloop
  endfacet
  facet normal 0 0 1
    outer loop
      vertex 7.20025 5.23129 2
      vertex 7.79913 -4.28761 2
      vertex 7.79913 4.28761 2
    endloop
  endfacet
  facet normal 0 0 1
    outer loop
      vertex 7.20025 5.23129 2
      vertex 7.20025 -5.23129 2
      vertex 7.79913 -4.28761 2
    endloop
  endfacet
  facet normal 0 0 1
    outer loop
      vertex 6.48782 6.09247 2
      vertex 7.20025 -5.23129 2
      vertex 7.20025 5.23129 2
    endloop
  endfacet
  facet normal 0 0 1
    outer loop
      vertex 6.48782 6.09247 2
      vertex 6.48782 -6.09247 2
      vertex 7.20025 -5.23129 2
    endloop
  endfacet
  facet normal 0 0 1
    outer loop
      vertex 5.67307 6.85757 2
      vertex 6.48782 -6.09247 2
      vertex 6.48782 6.09247 2
    endloop
  endfacet
  facet normal 0 0 1
    outer loop
      vertex 5.67307 6.85757 2
      vertex 5.67307 -6.85757 2
      vertex 6.48782 -6.09247 2
    endloop
  endfacet
  facet normal 0 0 1
    outer loop
      vertex 4.76886 7.51452 2
      vertex 5.67307 -6.85757 2
      vertex 5.67307 6.85757 2
    endloop
  endfacet
  facet normal 0 0 1
    outer loop
      vertex 4.76886 7.51452 2
      vertex 4.76886 -7.51452 2
      vertex 5.67307 -6.85757 2
    endloop
  endfacet
  facet normal 0 0 1
    outer loop
      vertex 3.78944 8.05296 2
      vertex 4.76886 -7.51452 2
      vertex 4.76886 7.51452 2
    endloop
  endfacet
  facet normal 0 0 1
    outer loop
      vertex 3.78944 8.05296 2
      vertex 3.78944 -8.05296 2
      vertex 4.76886 -7.51452 2
    endloop
  endfacet
  facet normal 0 0 1
    outer loop
      vertex 2.75025 8.4644 2
      vertex 3.78944 -8.05296 2
      vertex 3.78944 8.05296 2
    endloop
  endfacet
  facet normal 0 0 1
    outer loop
      vertex 2.75025 8.4644 2
      vertex 2.75025 -8.4644 2
      vertex 3.78944 -8.05296 2
    endloop
  endfacet
  facet normal 0 0 1
    outer loop
      vertex 1.66769 8.74236 2
      vertex 2.75025 -8.4644 2
      vertex 2.75025 8.4644 2
    endloop
  endfacet
  facet normal 0 0 1
    outer loop
      vertex 1.66769 8.74236 2
      vertex 1.66769 -8.74236 2
      vertex 2.75025 -8.4644 2
    endloop
  endfacet
  facet normal 0 0 1
    outer loop
      vertex 0.558835 8.88244 2
      vertex 1.66769 -8.74236 2
      vertex 1.66769 8.74236 2
    endloop
  endfacet
  facet normal 0 0 1
    outer loop
      vertex 0.558835 8.88244 2
      vertex 0.558835 -8.88244 2
      vertex 1.66769 -8.74236 2
    endloop
  endfacet
  facet normal -0 0 1
    outer loop
      vertex -0.558835 8.88244 2
      vertex 0.558835 -8.88244 2
      vertex 0.558835 8.88244 2
    endloop
  endfacet
  facet normal 0 0 1
    outer loop
      vertex -0.558835 8.88244 2
      vertex -0.558835 -8.88244 2
      vertex 0.558835 -8.88244 2
    endloop
  endfacet
  facet normal -0 0 1
    outer loop
      vertex -1.66769 8.74236 2
      vertex -0.558835 -8.88244 2
      vertex -0.558835 8.88244 2
    endloop
  endfacet
  facet normal 0 0 1
    outer loop
      vertex -1.66769 8.74236 2
      vertex -1.66769 -8.74236 2
      vertex -0.558835 -8.88244 2
    endloop
  endfacet
  facet normal -0 0 1
    outer loop
      vertex -2.75025 8.4644 2
      vertex -1.66769 -8.74236 2
      vertex -1.66769 8.74236 2
    endloop
  endfacet
  facet normal 0 0 1
    outer loop
      vertex -2.75025 8.4644 2
      vertex -2.75025 -8.4644 2
      vertex -1.66769 -8.74236 2
    endloop
  endfacet
  facet normal -0 0 1
    outer loop
      vertex -3.78944 8.05296 2
      vertex -2.75025 -8.4644 2
      vertex -2.75025 8.4644 2
    endloop
  endfacet
  facet normal 0 0 1
    outer loop
      vertex -3.78944 8.05296 2
      vertex -3.78944 -8.05296 2
      vertex -2.75025 -8.4644 2
    endloop
  endfacet
  facet normal -0 0 1
    outer loop
      vertex -4.76886 7.51452 2
      vertex -3.78944 -8.05296 2
      vertex -3.78944 8.05296 2
    endloop
  endfacet
  facet normal 0 0 1
    outer loop
      vertex -4.76886 7.51452 2
      vertex -4.76886 -7.51452 2
      vertex -3.78944 -8.05296 2
    endloop
  endfacet
  facet normal -0 0 1
    outer loop
      vertex -5.67307 6.85757 2
      vertex -4.76886 -7.51452 2
      vertex -4.76886 7.51452 2
    endloop
  endfacet
  facet normal 0 0 1
    outer loop
      vertex -5.67307 6.85757 2
      vertex -5.67307 -6.85757 2
      vertex -4.76886 -7.51452 2
    endloop
  endfacet
  facet normal -0 0 1
    outer loop
      vertex -6.48782 6.09247 2
      vertex -5.67307 -6.85757 2
      vertex -5.67307 6.85757 2
    endloop
  endfacet
  facet normal 0 0 1
    outer loop
      vertex -6.48782 6.09247 2
      vertex -6.48782 -6.09247 2
      vertex -5.67307 -6.85757 2
    endloop
  endfacet
  facet normal -0 0 1
    outer loop
      vertex -7.20025 5.23129 2
      vertex -6.48782 -6.09247 2
      vertex -6.48782 6.09247 2
    endloop
  endfacet
  facet normal 0 0 1
    outer loop
      vertex -7.20025 5.23129 2
      vertex -7.20025 -5.23129 2
      vertex -6.48782 -6.09247 2
    endloop
  endfacet
  facet normal -0 0 1
    outer loop
      vertex -7.79913 4.28761 2
      vertex -7.20025 -5.23129 2
      vertex -7.20025 5.23129 2
    endloop
  endfacet
  facet normal 0 0 1
    outer loop
      vertex -7.79913 4.28761 2
      vertex -7.79913 -4.28761 2
      vertex -7.20025 -5.23129 2
    endloop
  endfacet
  facet normal -0 0 1
    outer loop
      vertex -8.27501 3.27631 2
      vertex -7.79913 -4.28761 2
      vertex -7.79913 4.28761 2
    endloop
  endfacet
  facet normal 0 0 1
    outer loop
      vertex -8.27501 3.27631 2
      vertex -8.27501 -3.27631 2
      vertex -7.79913 -4.28761 2
    endloop
  endfacet
  facet normal -0 0 1
    outer loop
      vertex -8.62039 2.21334 2
      vertex -8.27501 -3.27631 2
      vertex -8.27501 3.27631 2
    endloop
  endfacet
  facet normal 0 0 1
    outer loop
      vertex -8.62039 2.21334 2
      vertex -8.62039 -2.21334 2
      vertex -8.27501 -3.27631 2
    endloop
  endfacet
  facet normal -0 0 1
    outer loop
      vertex -8.82982 1.11547 2
      vertex -8.62039 -2.21334 2
      vertex -8.62039 2.21334 2
    endloop
  endfacet
  facet normal 0 0 1
    outer loop
      vertex -8.82982 1.11547 2
      vertex -8.82982 -1.11547 2
      vertex -8.62039 -2.21334 2
    endloop
  endfacet
  facet normal 0 -0 1
    outer loop
      vertex -8.82982 -1.11547 2
      vertex -8.82982 1.11547 2
      vertex -8.9 0 2
    endloop
  endfacet
  facet normal -0.481754 0.876306 0
    outer loop
      vertex 4.76886 -7.51452 2
      vertex 3.78944 -8.05296 6
      vertex 4.76886 -7.51452 6
    endloop
  endfacet
  facet normal -0.481754 0.876306 0
    outer loop
      vertex 3.78944 -8.05296 6
      vertex 4.76886 -7.51452 2
      vertex 3.78944 -8.05296 2
    endloop
  endfacet
  facet normal -0.770514 0.637423 0
    outer loop
      vertex 6.48782 -6.09247 2
      vertex 7.20025 -5.23129 6
      vertex 7.20025 -5.23129 2
    endloop
  endfacet
  facet normal -0.770514 0.637423 0
    outer loop
      vertex 7.20025 -5.23129 6
      vertex 6.48782 -6.09247 2
      vertex 6.48782 -6.09247 6
    endloop
  endfacet
  facet normal -0.904827 0.42578 0
    outer loop
      vertex 7.79913 -4.28761 2
      vertex 8.27501 -3.27631 6
      vertex 8.27501 -3.27631 2
    endloop
  endfacet
  facet normal -0.904827 0.42578 0
    outer loop
      vertex 8.27501 -3.27631 6
      vertex 7.79913 -4.28761 2
      vertex 7.79913 -4.28761 6
    endloop
  endfacet
  facet normal 0.368124 0.929777 -0
    outer loop
      vertex -2.75025 -8.4644 2
      vertex -3.78944 -8.05296 6
      vertex -2.75025 -8.4644 6
    endloop
  endfacet
  facet normal 0.368124 0.929777 0
    outer loop
      vertex -3.78944 -8.05296 6
      vertex -2.75025 -8.4644 2
      vertex -3.78944 -8.05296 2
    endloop
  endfacet
  facet normal 0.481754 0.876306 -0
    outer loop
      vertex -3.78944 -8.05296 2
      vertex -4.76886 -7.51452 6
      vertex -3.78944 -8.05296 6
    endloop
  endfacet
  facet normal 0.481754 0.876306 0
    outer loop
      vertex -4.76886 -7.51452 6
      vertex -3.78944 -8.05296 2
      vertex -4.76886 -7.51452 2
    endloop
  endfacet
  facet normal 0.770514 0.637423 0
    outer loop
      vertex -6.48782 -6.09247 6
      vertex -7.20025 -5.23129 2
      vertex -7.20025 -5.23129 6
    endloop
  endfacet
  facet normal 0.770514 0.637423 0
    outer loop
      vertex -7.20025 -5.23129 2
      vertex -6.48782 -6.09247 6
      vertex -6.48782 -6.09247 2
    endloop
  endfacet
  facet normal 0.951056 0.309017 0
    outer loop
      vertex -8.27501 -3.27631 6
      vertex -8.62039 -2.21334 2
      vertex -8.62039 -2.21334 6
    endloop
  endfacet
  facet normal 0.951056 0.309017 0
    outer loop
      vertex -8.62039 -2.21334 2
      vertex -8.27501 -3.27631 6
      vertex -8.27501 -3.27631 2
    endloop
  endfacet
  facet normal -0.684547 0.728969 0
    outer loop
      vertex 6.48782 -6.09247 2
      vertex 5.67307 -6.85757 6
      vertex 6.48782 -6.09247 6
    endloop
  endfacet
  facet normal -0.684547 0.728969 0
    outer loop
      vertex 5.67307 -6.85757 6
      vertex 6.48782 -6.09247 2
      vertex 5.67307 -6.85757 2
    endloop
  endfacet
  facet normal -0.368124 0.929777 0
    outer loop
      vertex 3.78944 -8.05296 2
      vertex 2.75025 -8.4644 6
      vertex 3.78944 -8.05296 6
    endloop
  endfacet
  facet normal -0.368124 0.929777 0
    outer loop
      vertex 2.75025 -8.4644 6
      vertex 3.78944 -8.05296 2
      vertex 2.75025 -8.4644 2
    endloop
  endfacet
  facet normal -0.24869 0.968583 0
    outer loop
      vertex 2.75025 -8.4644 2
      vertex 1.66769 -8.74236 6
      vertex 2.75025 -8.4644 6
    endloop
  endfacet
  facet normal -0.24869 0.968583 0
    outer loop
      vertex 1.66769 -8.74236 6
      vertex 2.75025 -8.4644 2
      vertex 1.66769 -8.74236 2
    endloop
  endfacet
  facet normal -0.844328 0.535827 0
    outer loop
      vertex 7.20025 -5.23129 2
      vertex 7.79913 -4.28761 6
      vertex 7.79913 -4.28761 2
    endloop
  endfacet
  facet normal -0.844328 0.535827 0
    outer loop
      vertex 7.79913 -4.28761 6
      vertex 7.20025 -5.23129 2
      vertex 7.20025 -5.23129 6
    endloop
  endfacet
  facet normal -0.951056 0.309017 0
    outer loop
      vertex 8.27501 -3.27631 2
      vertex 8.62039 -2.21334 6
      vertex 8.62039 -2.21334 2
    endloop
  endfacet
  facet normal -0.951056 0.309017 0
    outer loop
      vertex 8.62039 -2.21334 6
      vertex 8.27501 -3.27631 2
      vertex 8.27501 -3.27631 6
    endloop
  endfacet
  facet normal 0.125333 0.992115 -0
    outer loop
      vertex -0.558835 -8.88244 2
      vertex -1.66769 -8.74236 6
      vertex -0.558835 -8.88244 6
    endloop
  endfacet
  facet normal 0.125333 0.992115 0
    outer loop
      vertex -1.66769 -8.74236 6
      vertex -0.558835 -8.88244 2
      vertex -1.66769 -8.74236 2
    endloop
  endfacet
  facet normal 0.587785 0.809017 -0
    outer loop
      vertex -4.76886 -7.51452 2
      vertex -5.67307 -6.85757 6
      vertex -4.76886 -7.51452 6
    endloop
  endfacet
  facet normal 0.587785 0.809017 0
    outer loop
      vertex -5.67307 -6.85757 6
      vertex -4.76886 -7.51452 2
      vertex -5.67307 -6.85757 2
    endloop
  endfacet
  facet normal 0.982287 0.187381 0
    outer loop
      vertex -8.62039 -2.21334 6
      vertex -8.82982 -1.11547 2
      vertex -8.82982 -1.11547 6
    endloop
  endfacet
  facet normal 0.982287 0.187381 0
    outer loop
      vertex -8.82982 -1.11547 2
      vertex -8.62039 -2.21334 6
      vertex -8.62039 -2.21334 2
    endloop
  endfacet
  facet normal 0.998027 0.0627904 0
    outer loop
      vertex -8.82982 -1.11547 6
      vertex -8.9 0 2
      vertex -8.9 0 6
    endloop
  endfacet
  facet normal 0.998027 0.0627904 0
    outer loop
      vertex -8.9 0 2
      vertex -8.82982 -1.11547 6
      vertex -8.82982 -1.11547 2
    endloop
  endfacet
  facet normal -0.587785 0.809017 0
    outer loop
      vertex 5.67307 -6.85757 2
      vertex 4.76886 -7.51452 6
      vertex 5.67307 -6.85757 6
    endloop
  endfacet
  facet normal -0.587785 0.809017 0
    outer loop
      vertex 4.76886 -7.51452 6
      vertex 5.67307 -6.85757 2
      vertex 4.76886 -7.51452 2
    endloop
  endfacet
  facet normal 0.24869 0.968583 -0
    outer loop
      vertex -1.66769 -8.74236 2
      vertex -2.75025 -8.4644 6
      vertex -1.66769 -8.74236 6
    endloop
  endfacet
  facet normal 0.24869 0.968583 0
    outer loop
      vertex -2.75025 -8.4644 6
      vertex -1.66769 -8.74236 2
      vertex -2.75025 -8.4644 2
    endloop
  endfacet
endsolid OpenSCAD_Model
