solid OpenSCAD_Model
  facet normal 0.998027 0.0627909 0
    outer loop
      vertex 9.9 0 6
      vertex 9.82193 1.2408 0
      vertex 9.82193 1.2408 6
    endloop
  endfacet
  facet normal 0.998027 0.0627909 0
    outer loop
      vertex 9.82193 1.2408 0
      vertex 9.9 0 6
      vertex 9.9 0 0
    endloop
  endfacet
  facet normal -0.998027 0.0627909 0
    outer loop
      vertex -9.9 0 0
      vertex -9.82193 1.2408 6
      vertex -9.82193 1.2408 0
    endloop
  endfacet
  facet normal -0.998027 0.0627909 0
    outer loop
      vertex -9.82193 1.2408 6
      vertex -9.9 0 0
      vertex -9.9 0 6
    endloop
  endfacet
  facet normal 0 1 -0
    outer loop
      vertex 0.621626 9.88046 0
      vertex -0.621626 9.88046 6
      vertex 0.621626 9.88046 6
    endloop
  endfacet
  facet normal 0 1 0
    outer loop
      vertex -0.621626 9.88046 6
      vertex 0.621626 9.88046 0
      vertex -0.621626 9.88046 0
    endloop
  endfacet
  facet normal 0 -1 0
    outer loop
      vertex -0.621626 -9.88046 0
      vertex 0.621626 -9.88046 6
      vertex -0.621626 -9.88046 6
    endloop
  endfacet
  facet normal 0 -1 -0
    outer loop
      vertex 0.621626 -9.88046 6
      vertex -0.621626 -9.88046 0
      vertex 0.621626 -9.88046 0
    endloop
  endfacet
  facet normal 0.684547 0.728969 -0
    outer loop
      vertex 7.21679 6.77702 0
      vertex 6.3105 7.62808 6
      vertex 7.21679 6.77702 6
    endloop
  endfacet
  facet normal 0.684547 0.728969 0
    outer loop
      vertex 6.3105 7.62808 6
      vertex 7.21679 6.77702 0
      vertex 6.3105 7.62808 0
    endloop
  endfacet
  facet normal -0.684547 0.728969 0
    outer loop
      vertex -6.3105 7.62808 0
      vertex -7.21679 6.77702 6
      vertex -6.3105 7.62808 6
    endloop
  endfacet
  facet normal -0.684547 0.728969 0
    outer loop
      vertex -7.21679 6.77702 6
      vertex -6.3105 7.62808 0
      vertex -7.21679 6.77702 0
    endloop
  endfacet
  facet normal -0.368124 0.929777 0
    outer loop
      vertex -3.05927 9.41546 0
      vertex -4.21521 8.95779 6
      vertex -3.05927 9.41546 6
    endloop
  endfacet
  facet normal -0.368124 0.929777 0
    outer loop
      vertex -4.21521 8.95779 6
      vertex -3.05927 9.41546 0
      vertex -4.21521 8.95779 0
    endloop
  endfacet
  facet normal 0.951056 -0.309017 0
    outer loop
      vertex 9.20479 -3.64443 6
      vertex 9.58897 -2.46203 0
      vertex 9.58897 -2.46203 6
    endloop
  endfacet
  facet normal 0.951056 -0.309017 0
    outer loop
      vertex 9.58897 -2.46203 0
      vertex 9.20479 -3.64443 6
      vertex 9.20479 -3.64443 0
    endloop
  endfacet
  facet normal 0.904827 0.425779 0
    outer loop
      vertex 9.20479 3.64443 6
      vertex 8.67544 4.76936 0
      vertex 8.67544 4.76936 6
    endloop
  endfacet
  facet normal 0.904827 0.425779 0
    outer loop
      vertex 8.67544 4.76936 0
      vertex 9.20479 3.64443 6
      vertex 9.20479 3.64443 0
    endloop
  endfacet
  facet normal 0.982287 0.187381 0
    outer loop
      vertex 9.82193 1.2408 6
      vertex 9.58897 2.46203 0
      vertex 9.58897 2.46203 6
    endloop
  endfacet
  facet normal 0.982287 0.187381 0
    outer loop
      vertex 9.58897 2.46203 0
      vertex 9.82193 1.2408 6
      vertex 9.82193 1.2408 0
    endloop
  endfacet
  facet normal 0.844328 0.535827 0
    outer loop
      vertex 8.67544 4.76936 6
      vertex 8.00927 5.81907 0
      vertex 8.00927 5.81907 6
    endloop
  endfacet
  facet normal 0.844328 0.535827 0
    outer loop
      vertex 8.00927 5.81907 0
      vertex 8.67544 4.76936 6
      vertex 8.67544 4.76936 0
    endloop
  endfacet
  facet normal 0.368124 0.929777 -0
    outer loop
      vertex 4.21521 8.95779 0
      vertex 3.05927 9.41546 6
      vertex 4.21521 8.95779 6
    endloop
  endfacet
  facet normal 0.368124 0.929777 0
    outer loop
      vertex 3.05927 9.41546 6
      vertex 4.21521 8.95779 0
      vertex 3.05927 9.41546 0
    endloop
  endfacet
  facet normal 0.24869 0.968583 -0
    outer loop
      vertex 3.05927 9.41546 0
      vertex 1.85507 9.72464 6
      vertex 3.05927 9.41546 6
    endloop
  endfacet
  facet normal 0.24869 0.968583 0
    outer loop
      vertex 1.85507 9.72464 6
      vertex 3.05927 9.41546 0
      vertex 1.85507 9.72464 0
    endloop
  endfacet
  facet normal 0.481754 0.876306 -0
    outer loop
      vertex 5.30468 8.35885 0
      vertex 4.21521 8.95779 6
      vertex 5.30468 8.35885 6
    endloop
  endfacet
  facet normal 0.481754 0.876306 0
    outer loop
      vertex 4.21521 8.95779 6
      vertex 5.30468 8.35885 0
      vertex 4.21521 8.95779 0
    endloop
  endfacet
  facet normal -0.904827 0.425779 0
    outer loop
      vertex -9.20479 3.64443 0
      vertex -8.67544 4.76936 6
      vertex -8.67544 4.76936 0
    endloop
  endfacet
  facet normal -0.904827 0.425779 0
    outer loop
      vertex -8.67544 4.76936 6
      vertex -9.20479 3.64443 0
      vertex -9.20479 3.64443 6
    endloop
  endfacet
  facet normal -0.951056 0.309017 0
    outer loop
      vertex -9.58897 2.46203 0
      vertex -9.20479 3.64443 6
      vertex -9.20479 3.64443 0
    endloop
  endfacet
  facet normal -0.951056 0.309017 0
    outer loop
      vertex -9.20479 3.64443 6
      vertex -9.58897 2.46203 0
      vertex -9.58897 2.46203 6
    endloop
  endfacet
  facet normal -0.125333 0.992115 0
    outer loop
      vertex -0.621626 9.88046 0
      vertex -1.85507 9.72464 6
      vertex -0.621626 9.88046 6
    endloop
  endfacet
  facet normal -0.125333 0.992115 0
    outer loop
      vertex -1.85507 9.72464 6
      vertex -0.621626 9.88046 0
      vertex -1.85507 9.72464 0
    endloop
  endfacet
  facet normal 0.125333 -0.992115 0
    outer loop
      vertex 0.621626 -9.88046 0
      vertex 1.85507 -9.72464 6
      vertex 0.621626 -9.88046 6
    endloop
  endfacet
  facet normal 0.125333 -0.992115 0
    outer loop
      vertex 1.85507 -9.72464 6
      vertex 0.621626 -9.88046 0
      vertex 1.85507 -9.72464 0
    endloop
  endfacet
  facet normal 0.951056 0.309017 0
    outer loop
      vertex 9.58897 2.46203 6
      vertex 9.20479 3.64443 0
      vertex 9.20479 3.64443 6
    endloop
  endfacet
  facet normal 0.951056 0.309017 0
    outer loop
      vertex 9.20479 3.64443 0
      vertex 9.58897 2.46203 6
      vertex 9.58897 2.46203 0
    endloop
  endfacet
  facet normal 0.770513 0.637424 0
    outer loop
      vertex 8.00927 5.81907 6
      vertex 7.21679 6.77702 0
      vertex 7.21679 6.77702 6
    endloop
  endfacet
  facet normal 0.770513 0.637424 0
    outer loop
      vertex 7.21679 6.77702 0
      vertex 8.00927 5.81907 6
      vertex 8.00927 5.81907 0
    endloop
  endfacet
  facet normal 0.125333 0.992115 -0
    outer loop
      vertex 1.85507 9.72464 0
      vertex 0.621626 9.88046 6
      vertex 1.85507 9.72464 6
    endloop
  endfacet
  facet normal 0.125333 0.992115 0
    outer loop
      vertex 0.621626 9.88046 6
      vertex 1.85507 9.72464 0
      vertex 0.621626 9.88046 0
    endloop
  endfacet
  facet normal 0.587785 0.809017 -0
    outer loop
      vertex 6.3105 7.62808 0
      vertex 5.30468 8.35885 6
      vertex 6.3105 7.62808 6
    endloop
  endfacet
  facet normal 0.587785 0.809017 0
    outer loop
      vertex 5.30468 8.35885 6
      vertex 6.3105 7.62808 0
      vertex 5.30468 8.35885 0
    endloop
  endfacet
  facet normal -0.844328 0.535827 0
    outer loop
      vertex -8.67544 4.76936 0
      vertex -8.00927 5.81907 6
      vertex -8.00927 5.81907 0
    endloop
  endfacet
  facet normal -0.844328 0.535827 0
    outer loop
      vertex -8.00927 5.81907 6
      vertex -8.67544 4.76936 0
      vertex -8.67544 4.76936 6
    endloop
  endfacet
  facet normal -0.770513 0.637424 0
    outer loop
      vertex -8.00927 5.81907 0
      vertex -7.21679 6.77702 6
      vertex -7.21679 6.77702 0
    endloop
  endfacet
  facet normal -0.770513 0.637424 0
    outer loop
      vertex -7.21679 6.77702 6
      vertex -8.00927 5.81907 0
      vertex -8.00927 5.81907 6
    endloop
  endfacet
  facet normal -0.982287 0.187381 0
    outer loop
      vertex -9.82193 1.2408 0
      vertex -9.58897 2.46203 6
      vertex -9.58897 2.46203 0
    endloop
  endfacet
  facet normal -0.982287 0.187381 0
    outer loop
      vertex -9.58897 2.46203 6
      vertex -9.82193 1.2408 0
      vertex -9.82193 1.2408 6
    endloop
  endfacet
  facet normal 0 0 1
    outer loop
      vertex 8.9 0 6
      vertex 9.9 0 6
      vertex 9.82193 1.2408 6
    endloop
  endfacet
  facet normal 0 0 1
    outer loop
      vertex 8.82982 1.11547 6
      vertex 9.82193 1.2408 6
      vertex 9.58897 2.46203 6
    endloop
  endfacet
  facet normal 0 0 1
    outer loop
      vertex 9.9 0 6
      vertex 8.9 0 6
      vertex 9.82193 -1.2408 6
    endloop
  endfacet
  facet normal 0 0 1
    outer loop
      vertex 8.62039 2.21334 6
      vertex 9.58897 2.46203 6
      vertex 9.20479 3.64443 6
    endloop
  endfacet
  facet normal -0 0 1
    outer loop
      vertex 8.82982 -1.11547 6
      vertex 9.82193 -1.2408 6
      vertex 8.9 0 6
    endloop
  endfacet
  facet normal 0 0 1
    outer loop
      vertex 9.82193 -1.2408 6
      vertex 8.82982 -1.11547 6
      vertex 9.58897 -2.46203 6
    endloop
  endfacet
  facet normal 0 0 1
    outer loop
      vertex 9.82193 1.2408 6
      vertex 8.82982 1.11547 6
      vertex 8.9 0 6
    endloop
  endfacet
  facet normal 0 0 1
    outer loop
      vertex 8.27501 3.27631 6
      vertex 9.20479 3.64443 6
      vertex 8.67544 4.76936 6
    endloop
  endfacet
  facet normal 0 0 1
    outer loop
      vertex 9.58897 2.46203 6
      vertex 8.62039 2.21334 6
      vertex 8.82982 1.11547 6
    endloop
  endfacet
  facet normal 0 0 1
    outer loop
      vertex 9.20479 3.64443 6
      vertex 8.27501 3.27631 6
      vertex 8.62039 2.21334 6
    endloop
  endfacet
  facet normal 0 0 1
    outer loop
      vertex 7.79913 4.28761 6
      vertex 8.67544 4.76936 6
      vertex 8.00927 5.81907 6
    endloop
  endfacet
  facet normal 0 0 1
    outer loop
      vertex 8.67544 4.76936 6
      vertex 7.79913 4.28761 6
      vertex 8.27501 3.27631 6
    endloop
  endfacet
  facet normal 0 0 1
    outer loop
      vertex 7.20025 5.23129 6
      vertex 8.00927 5.81907 6
      vertex 7.21679 6.77702 6
    endloop
  endfacet
  facet normal 0 0 1
    outer loop
      vertex 8.00927 5.81907 6
      vertex 7.20025 5.23129 6
      vertex 7.79913 4.28761 6
    endloop
  endfacet
  facet normal 0 0 1
    outer loop
      vertex 7.21679 6.77702 6
      vertex 6.48782 6.09247 6
      vertex 7.20025 5.23129 6
    endloop
  endfacet
  facet normal 0 0 1
    outer loop
      vertex 6.3105 7.62808 6
      vertex 6.48782 6.09247 6
      vertex 7.21679 6.77702 6
    endloop
  endfacet
  facet normal 0 0 1
    outer loop
      vertex 6.3105 7.62808 6
      vertex 5.67307 6.85757 6
      vertex 6.48782 6.09247 6
    endloop
  endfacet
  facet normal 0 0 1
    outer loop
      vertex 5.30468 8.35885 6
      vertex 5.67307 6.85757 6
      vertex 6.3105 7.62808 6
    endloop
  endfacet
  facet normal 0 0 1
    outer loop
      vertex 5.30468 8.35885 6
      vertex 4.76886 7.51452 6
      vertex 5.67307 6.85757 6
    endloop
  endfacet
  facet normal 0 0 1
    outer loop
      vertex 4.21521 8.95779 6
      vertex 4.76886 7.51452 6
      vertex 5.30468 8.35885 6
    endloop
  endfacet
  facet normal 0 0 1
    outer loop
      vertex 4.21521 8.95779 6
      vertex 3.78944 8.05296 6
      vertex 4.76886 7.51452 6
    endloop
  endfacet
  facet normal 0 0 1
    outer loop
      vertex 3.05927 9.41546 6
      vertex 3.78944 8.05296 6
      vertex 4.21521 8.95779 6
    endloop
  endfacet
  facet normal 0 0 1
    outer loop
      vertex 3.05927 9.41546 6
      vertex 2.75025 8.4644 6
      vertex 3.78944 8.05296 6
    endloop
  endfacet
  facet normal 0 0 1
    outer loop
      vertex 1.85507 9.72464 6
      vertex 2.75025 8.4644 6
      vertex 3.05927 9.41546 6
    endloop
  endfacet
  facet normal 0 0 1
    outer loop
      vertex 1.85507 9.72464 6
      vertex 1.66769 8.74236 6
      vertex 2.75025 8.4644 6
    endloop
  endfacet
  facet normal 0 0 1
    outer loop
      vertex 0.621626 9.88046 6
      vertex 1.66769 8.74236 6
      vertex 1.85507 9.72464 6
    endloop
  endfacet
  facet normal 0 0 1
    outer loop
      vertex 0.621626 9.88046 6
      vertex 0.558835 8.88244 6
      vertex 1.66769 8.74236 6
    endloop
  endfacet
  facet normal 0 0 1
    outer loop
      vertex 0.621626 9.88046 6
      vertex -0.558835 8.88244 6
      vertex 0.558835 8.88244 6
    endloop
  endfacet
  facet normal -0 0 1
    outer loop
      vertex -0.621626 9.88046 6
      vertex -0.558835 8.88244 6
      vertex 0.621626 9.88046 6
    endloop
  endfacet
  facet normal 0 0 1
    outer loop
      vertex -0.621626 9.88046 6
      vertex -1.66769 8.74236 6
      vertex -0.558835 8.88244 6
    endloop
  endfacet
  facet normal -0 0 1
    outer loop
      vertex -1.85507 9.72464 6
      vertex -1.66769 8.74236 6
      vertex -0.621626 9.88046 6
    endloop
  endfacet
  facet normal 0 0 1
    outer loop
      vertex -1.85507 9.72464 6
      vertex -2.75025 8.4644 6
      vertex -1.66769 8.74236 6
    endloop
  endfacet
  facet normal -0 0 1
    outer loop
      vertex -3.05927 9.41546 6
      vertex -2.75025 8.4644 6
      vertex -1.85507 9.72464 6
    endloop
  endfacet
  facet normal 0 0 1
    outer loop
      vertex -3.05927 9.41546 6
      vertex -3.78944 8.05296 6
      vertex -2.75025 8.4644 6
    endloop
  endfacet
  facet normal -0 0 1
    outer loop
      vertex -4.21521 8.95779 6
      vertex -3.78944 8.05296 6
      vertex -3.05927 9.41546 6
    endloop
  endfacet
  facet normal 0 0 1
    outer loop
      vertex -4.21521 8.95779 6
      vertex -4.76886 7.51452 6
      vertex -3.78944 8.05296 6
    endloop
  endfacet
  facet normal -0 0 1
    outer loop
      vertex -5.30468 8.35885 6
      vertex -4.76886 7.51452 6
      vertex -4.21521 8.95779 6
    endloop
  endfacet
  facet normal 0 0 1
    outer loop
      vertex -5.30468 8.35885 6
      vertex -5.67307 6.85757 6
      vertex -4.76886 7.51452 6
    endloop
  endfacet
  facet normal -0 0 1
    outer loop
      vertex -6.3105 7.62808 6
      vertex -5.67307 6.85757 6
      vertex -5.30468 8.35885 6
    endloop
  endfacet
  facet normal 0 0 1
    outer loop
      vertex -6.3105 7.62808 6
      vertex -6.48782 6.09247 6
      vertex -5.67307 6.85757 6
    endloop
  endfacet
  facet normal -0 0 1
    outer loop
      vertex -7.21679 6.77702 6
      vertex -6.48782 6.09247 6
      vertex -6.3105 7.62808 6
    endloop
  endfacet
  facet normal 0 0 1
    outer loop
      vertex -6.48782 6.09247 6
      vertex -7.21679 6.77702 6
      vertex -7.20025 5.23129 6
    endloop
  endfacet
  facet normal -0 0 1
    outer loop
      vertex -8.00927 5.81907 6
      vertex -7.20025 5.23129 6
      vertex -7.21679 6.77702 6
    endloop
  endfacet
  facet normal 0 0 1
    outer loop
      vertex -7.20025 5.23129 6
      vertex -8.00927 5.81907 6
      vertex -7.79913 4.28761 6
    endloop
  endfacet
  facet normal -0 0 1
    outer loop
      vertex -8.67544 4.76936 6
      vertex -7.79913 4.28761 6
      vertex -8.00927 5.81907 6
    endloop
  endfacet
  facet normal 0 0 1
    outer loop
      vertex -7.79913 4.28761 6
      vertex -8.67544 4.76936 6
      vertex -8.27501 3.27631 6
    endloop
  endfacet
  facet normal -0 0 1
    outer loop
      vertex -9.20479 3.64443 6
      vertex -8.27501 3.27631 6
      vertex -8.67544 4.76936 6
    endloop
  endfacet
  facet normal 0 0 1
    outer loop
      vertex -8.27501 3.27631 6
      vertex -9.20479 3.64443 6
      vertex -8.62039 2.21334 6
    endloop
  endfacet
  facet normal -0 0 1
    outer loop
      vertex -9.58897 2.46203 6
      vertex -8.62039 2.21334 6
      vertex -9.20479 3.64443 6
    endloop
  endfacet
  facet normal 0 0 1
    outer loop
      vertex -8.62039 2.21334 6
      vertex -9.58897 2.46203 6
      vertex -8.82982 1.11547 6
    endloop
  endfacet
  facet normal -0 0 1
    outer loop
      vertex 8.62039 -2.21334 6
      vertex 9.58897 -2.46203 6
      vertex 8.82982 -1.11547 6
    endloop
  endfacet
  facet normal 0 0 1
    outer loop
      vertex 9.58897 -2.46203 6
      vertex 8.62039 -2.21334 6
      vertex 9.20479 -3.64443 6
    endloop
  endfacet
  facet normal -0 0 1
    outer loop
      vertex 8.27501 -3.27631 6
      vertex 9.20479 -3.64443 6
      vertex 8.62039 -2.21334 6
    endloop
  endfacet
  facet normal 0 0 1
    outer loop
      vertex 9.20479 -3.64443 6
      vertex 8.27501 -3.27631 6
      vertex 8.67544 -4.76936 6
    endloop
  endfacet
  facet normal -0 0 1
    outer loop
      vertex 7.79913 -4.28761 6
      vertex 8.67544 -4.76936 6
      vertex 8.27501 -3.27631 6
    endloop
  endfacet
  facet normal 0 0 1
    outer loop
      vertex 8.67544 -4.76936 6
      vertex 7.79913 -4.28761 6
      vertex 8.00927 -5.81907 6
    endloop
  endfacet
  facet normal -0 0 1
    outer loop
      vertex 7.20025 -5.23129 6
      vertex 8.00927 -5.81907 6
      vertex 7.79913 -4.28761 6
    endloop
  endfacet
  facet normal 0 0 1
    outer loop
      vertex 8.00927 -5.81907 6
      vertex 7.20025 -5.23129 6
      vertex 7.21679 -6.77702 6
    endloop
  endfacet
  facet normal -0 0 1
    outer loop
      vertex 6.48782 -6.09247 6
      vertex 7.21679 -6.77702 6
      vertex 7.20025 -5.23129 6
    endloop
  endfacet
  facet normal 0 0 1
    outer loop
      vertex 6.48782 -6.09247 6
      vertex 6.3105 -7.62808 6
      vertex 7.21679 -6.77702 6
    endloop
  endfacet
  facet normal -0 0 1
    outer loop
      vertex 5.67307 -6.85757 6
      vertex 6.3105 -7.62808 6
      vertex 6.48782 -6.09247 6
    endloop
  endfacet
  facet normal 0 0 1
    outer loop
      vertex 5.67307 -6.85757 6
      vertex 5.30468 -8.35885 6
      vertex 6.3105 -7.62808 6
    endloop
  endfacet
  facet normal -0 0 1
    outer loop
      vertex 4.76886 -7.51452 6
      vertex 5.30468 -8.35885 6
      vertex 5.67307 -6.85757 6
    endloop
  endfacet
  facet normal 0 0 1
    outer loop
      vertex 4.76886 -7.51452 6
      vertex 4.21521 -8.95779 6
      vertex 5.30468 -8.35885 6
    endloop
  endfacet
  facet normal -0 0 1
    outer loop
      vertex 3.78944 -8.05296 6
      vertex 4.21521 -8.95779 6
      vertex 4.76886 -7.51452 6
    endloop
  endfacet
  facet normal 0 0 1
    outer loop
      vertex 3.78944 -8.05296 6
      vertex 3.05927 -9.41546 6
      vertex 4.21521 -8.95779 6
    endloop
  endfacet
  facet normal -0 0 1
    outer loop
      vertex 2.75025 -8.4644 6
      vertex 3.05927 -9.41546 6
      vertex 3.78944 -8.05296 6
    endloop
  endfacet
  facet normal 0 0 1
    outer loop
      vertex 2.75025 -8.4644 6
      vertex 1.85507 -9.72464 6
      vertex 3.05927 -9.41546 6
    endloop
  endfacet
  facet normal -0 0 1
    outer loop
      vertex 1.66769 -8.74236 6
      vertex 1.85507 -9.72464 6
      vertex 2.75025 -8.4644 6
    endloop
  endfacet
  facet normal 0 0 1
    outer loop
      vertex 1.66769 -8.74236 6
      vertex 0.621626 -9.88046 6
      vertex 1.85507 -9.72464 6
    endloop
  endfacet
  facet normal -0 0 1
    outer loop
      vertex 0.558835 -8.88244 6
      vertex 0.621626 -9.88046 6
      vertex 1.66769 -8.74236 6
    endloop
  endfacet
  facet normal -0 0 1
    outer loop
      vertex -0.558835 -8.88244 6
      vertex 0.621626 -9.88046 6
      vertex 0.558835 -8.88244 6
    endloop
  endfacet
  facet normal 0 0 1
    outer loop
      vertex -0.558835 -8.88244 6
      vertex -0.621626 -9.88046 6
      vertex 0.621626 -9.88046 6
    endloop
  endfacet
  facet normal 0 0 1
    outer loop
      vertex -1.66769 -8.74236 6
      vertex -0.621626 -9.88046 6
      vertex -0.558835 -8.88244 6
    endloop
  endfacet
  facet normal 0 0 1
    outer loop
      vertex -1.66769 -8.74236 6
      vertex -1.85507 -9.72464 6
      vertex -0.621626 -9.88046 6
    endloop
  endfacet
  facet normal 0 0 1
    outer loop
      vertex -2.75025 -8.4644 6
      vertex -1.85507 -9.72464 6
      vertex -1.66769 -8.74236 6
    endloop
  endfacet
  facet normal 0 0 1
    outer loop
      vertex -2.75025 -8.4644 6
      vertex -3.05927 -9.41546 6
      vertex -1.85507 -9.72464 6
    endloop
  endfacet
  facet normal 0 0 1
    outer loop
      vertex -3.78944 -8.05296 6
      vertex -3.05927 -9.41546 6
      vertex -2.75025 -8.4644 6
    endloop
  endfacet
  facet normal 0 0 1
    outer loop
      vertex -3.78944 -8.05296 6
      vertex -4.21521 -8.95779 6
      vertex -3.05927 -9.41546 6
    endloop
  endfacet
  facet normal 0 0 1
    outer loop
      vertex -4.76886 -7.51452 6
      vertex -4.21521 -8.95779 6
      vertex -3.78944 -8.05296 6
    endloop
  endfacet
  facet normal 0 0 1
    outer loop
      vertex -4.76886 -7.51452 6
      vertex -5.30468 -8.35885 6
      vertex -4.21521 -8.95779 6
    endloop
  endfacet
  facet normal 0 0 1
    outer loop
      vertex -5.67307 -6.85757 6
      vertex -5.30468 -8.35885 6
      vertex -4.76886 -7.51452 6
    endloop
  endfacet
  facet normal 0 0 1
    outer loop
      vertex -5.67307 -6.85757 6
      vertex -6.3105 -7.62808 6
      vertex -5.30468 -8.35885 6
    endloop
  endfacet
  facet normal 0 0 1
    outer loop
      vertex -6.48782 -6.09247 6
      vertex -6.3105 -7.62808 6
      vertex -5.67307 -6.85757 6
    endloop
  endfacet
  facet normal 0 0 1
    outer loop
      vertex -7.21679 -6.77702 6
      vertex -6.48782 -6.09247 6
      vertex -7.20025 -5.23129 6
    endloop
  endfacet
  facet normal 0 0 1
    outer loop
      vertex -6.48782 -6.09247 6
      vertex -7.21679 -6.77702 6
      vertex -6.3105 -7.62808 6
    endloop
  endfacet
  facet normal 0 0 1
    outer loop
      vertex -8.00927 -5.81907 6
      vertex -7.20025 -5.23129 6
      vertex -7.79913 -4.28761 6
    endloop
  endfacet
  facet normal 0 0 1
    outer loop
      vertex -7.20025 -5.23129 6
      vertex -8.00927 -5.81907 6
      vertex -7.21679 -6.77702 6
    endloop
  endfacet
  facet normal 0 0 1
    outer loop
      vertex -8.67544 -4.76936 6
      vertex -7.79913 -4.28761 6
      vertex -8.27501 -3.27631 6
    endloop
  endfacet
  facet normal 0 0 1
    outer loop
      vertex -9.20479 -3.64443 6
      vertex -8.27501 -3.27631 6
      vertex -8.62039 -2.21334 6
    endloop
  endfacet
  facet normal 0 0 1
    outer loop
      vertex -7.79913 -4.28761 6
      vertex -8.67544 -4.76936 6
      vertex -8.00927 -5.81907 6
    endloop
  endfacet
  facet normal 0 0 1
    outer loop
      vertex -9.58897 -2.46203 6
      vertex -8.62039 -2.21334 6
      vertex -8.82982 -1.11547 6
    endloop
  endfacet
  facet normal 0 0 1
    outer loop
      vertex -9.82193 -1.2408 6
      vertex -8.82982 -1.11547 6
      vertex -8.9 0 6
    endloop
  endfacet
  facet normal -0 0 1
    outer loop
      vertex -9.82193 1.2408 6
      vertex -8.82982 1.11547 6
      vertex -9.58897 2.46203 6
    endloop
  endfacet
  facet normal 0 0 1
    outer loop
      vertex -8.27501 -3.27631 6
      vertex -9.20479 -3.64443 6
      vertex -8.67544 -4.76936 6
    endloop
  endfacet
  facet normal 0 0 1
    outer loop
      vertex -8.82982 1.11547 6
      vertex -9.82193 1.2408 6
      vertex -8.9 0 6
    endloop
  endfacet
  facet normal 0 0 1
    outer loop
      vertex -8.62039 -2.21334 6
      vertex -9.58897 -2.46203 6
      vertex -9.20479 -3.64443 6
    endloop
  endfacet
  facet normal 0 0 1
    outer loop
      vertex -9.9 0 6
      vertex -8.9 0 6
      vertex -9.82193 1.2408 6
    endloop
  endfacet
  facet normal 0 0 1
    outer loop
      vertex -8.82982 -1.11547 6
      vertex -9.82193 -1.2408 6
      vertex -9.58897 -2.46203 6
    endloop
  endfacet
  facet normal 0 0 1
    outer loop
      vertex -8.9 0 6
      vertex -9.9 0 6
      vertex -9.82193 -1.2408 6
    endloop
  endfacet
  facet normal -0.481754 0.876306 0
    outer loop
      vertex -4.21521 8.95779 0
      vertex -5.30468 8.35885 6
      vertex -4.21521 8.95779 6
    endloop
  endfacet
  facet normal -0.481754 0.876306 0
    outer loop
      vertex -5.30468 8.35885 6
      vertex -4.21521 8.95779 0
      vertex -5.30468 8.35885 0
    endloop
  endfacet
  facet normal -0.587785 0.809017 0
    outer loop
      vertex -5.30468 8.35885 0
      vertex -6.3105 7.62808 6
      vertex -5.30468 8.35885 6
    endloop
  endfacet
  facet normal -0.587785 0.809017 0
    outer loop
      vertex -6.3105 7.62808 6
      vertex -5.30468 8.35885 0
      vertex -6.3105 7.62808 0
    endloop
  endfacet
  facet normal -0.24869 0.968583 0
    outer loop
      vertex -1.85507 9.72464 0
      vertex -3.05927 9.41546 6
      vertex -1.85507 9.72464 6
    endloop
  endfacet
  facet normal -0.24869 0.968583 0
    outer loop
      vertex -3.05927 9.41546 6
      vertex -1.85507 9.72464 0
      vertex -3.05927 9.41546 0
    endloop
  endfacet
  facet normal 0.770513 -0.637424 0
    outer loop
      vertex 7.21679 -6.77702 6
      vertex 8.00927 -5.81907 0
      vertex 8.00927 -5.81907 6
    endloop
  endfacet
  facet normal 0.770513 -0.637424 0
    outer loop
      vertex 8.00927 -5.81907 0
      vertex 7.21679 -6.77702 6
      vertex 7.21679 -6.77702 0
    endloop
  endfacet
  facet normal 0.904827 -0.425779 0
    outer loop
      vertex 8.67544 -4.76936 6
      vertex 9.20479 -3.64443 0
      vertex 9.20479 -3.64443 6
    endloop
  endfacet
  facet normal 0.904827 -0.425779 0
    outer loop
      vertex 9.20479 -3.64443 0
      vertex 8.67544 -4.76936 6
      vertex 8.67544 -4.76936 0
    endloop
  endfacet
  facet normal 0.982287 -0.187381 0
    outer loop
      vertex 9.58897 -2.46203 6
      vertex 9.82193 -1.2408 0
      vertex 9.82193 -1.2408 6
    endloop
  endfacet
  facet normal 0.982287 -0.187381 0
    outer loop
      vertex 9.82193 -1.2408 0
      vertex 9.58897 -2.46203 6
      vertex 9.58897 -2.46203 0
    endloop
  endfacet
  facet normal -0.684547 -0.728969 0
    outer loop
      vertex -7.21679 -6.77702 0
      vertex -6.3105 -7.62808 6
      vertex -7.21679 -6.77702 6
    endloop
  endfacet
  facet normal -0.684547 -0.728969 -0
    outer loop
      vertex -6.3105 -7.62808 6
      vertex -7.21679 -6.77702 0
      vertex -6.3105 -7.62808 0
    endloop
  endfacet
  facet normal -0.904827 -0.425779 0
    outer loop
      vertex -8.67544 -4.76936 0
      vertex -9.20479 -3.64443 6
      vertex -9.20479 -3.64443 0
    endloop
  endfacet
  facet normal -0.904827 -0.425779 0
    outer loop
      vertex -9.20479 -3.64443 6
      vertex -8.67544 -4.76936 0
      vertex -8.67544 -4.76936 6
    endloop
  endfacet
  facet normal -0.844328 -0.535827 0
    outer loop
      vertex -8.00927 -5.81907 0
      vertex -8.67544 -4.76936 6
      vertex -8.67544 -4.76936 0
    endloop
  endfacet
  facet normal -0.844328 -0.535827 0
    outer loop
      vertex -8.67544 -4.76936 6
      vertex -8.00927 -5.81907 0
      vertex -8.00927 -5.81907 6
    endloop
  endfacet
  facet normal 0 0 -1
    outer loop
      vertex 9.82193 -1.2408 0
      vertex 9.82193 1.2408 0
      vertex 9.9 0 0
    endloop
  endfacet
  facet normal 0 0 -1
    outer loop
      vertex 9.58897 -2.46203 0
      vertex 9.82193 1.2408 0
      vertex 9.82193 -1.2408 0
    endloop
  endfacet
  facet normal 0 0 -1
    outer loop
      vertex 9.58897 -2.46203 0
      vertex 9.58897 2.46203 0
      vertex 9.82193 1.2408 0
    endloop
  endfacet
  facet normal 0 0 -1
    outer loop
      vertex 9.20479 -3.64443 0
      vertex 9.58897 2.46203 0
      vertex 9.58897 -2.46203 0
    endloop
  endfacet
  facet normal 0 0 -1
    outer loop
      vertex 9.20479 -3.64443 0
      vertex 9.20479 3.64443 0
      vertex 9.58897 2.46203 0
    endloop
  endfacet
  facet normal 0 0 -1
    outer loop
      vertex 8.67544 -4.76936 0
      vertex 9.20479 3.64443 0
      vertex 9.20479 -3.64443 0
    endloop
  endfacet
  facet normal 0 0 -1
    outer loop
      vertex 8.67544 -4.76936 0
      vertex 8.67544 4.76936 0
      vertex 9.20479 3.64443 0
    endloop
  endfacet
  facet normal 0 0 -1
    outer loop
      vertex 8.00927 -5.81907 0
      vertex 8.67544 4.76936 0
      vertex 8.67544 -4.76936 0
    endloop
  endfacet
  facet normal 0 0 -1
    outer loop
      vertex 8.00927 -5.81907 0
      vertex 8.00927 5.81907 0
      vertex 8.67544 4.76936 0
    endloop
  endfacet
  facet normal 0 0 -1
    outer loop
      vertex 7.21679 -6.77702 0
      vertex 8.00927 5.81907 0
      vertex 8.00927 -5.81907 0
    endloop
  endfacet
  facet normal 0 0 -1
    outer loop
      vertex 7.21679 -6.77702 0
      vertex 7.21679 6.77702 0
      vertex 8.00927 5.81907 0
    endloop
  endfacet
  facet normal 0 0 -1
    outer loop
      vertex 6.3105 -7.62808 0
      vertex 7.21679 6.77702 0
      vertex 7.21679 -6.77702 0
    endloop
  endfacet
  facet normal 0 0 -1
    outer loop
      vertex 6.3105 -7.62808 0
      vertex 6.3105 7.62808 0
      vertex 7.21679 6.77702 0
    endloop
  endfacet
  facet normal 0 0 -1
    outer loop
      vertex 5.30468 -8.35885 0
      vertex 6.3105 7.62808 0
      vertex 6.3105 -7.62808 0
    endloop
  endfacet
  facet normal 0 0 -1
    outer loop
      vertex 5.30468 -8.35885 0
      vertex 5.30468 8.35885 0
      vertex 6.3105 7.62808 0
    endloop
  endfacet
  facet normal 0 0 -1
    outer loop
      vertex 4.21521 -8.95779 0
      vertex 5.30468 8.35885 0
      vertex 5.30468 -8.35885 0
    endloop
  endfacet
  facet normal 0 0 -1
    outer loop
      vertex 4.21521 -8.95779 0
      vertex 4.21521 8.95779 0
      vertex 5.30468 8.35885 0
    endloop
  endfacet
  facet normal 0 0 -1
    outer loop
      vertex 3.05927 -9.41546 0
      vertex 4.21521 8.95779 0
      vertex 4.21521 -8.95779 0
    endloop
  endfacet
  facet normal 0 0 -1
    outer loop
      vertex 3.05927 -9.41546 0
      vertex 3.05927 9.41546 0
      vertex 4.21521 8.95779 0
    endloop
  endfacet
  facet normal 0 0 -1
    outer loop
      vertex 1.85507 -9.72464 0
      vertex 3.05927 9.41546 0
      vertex 3.05927 -9.41546 0
    endloop
  endfacet
  facet normal 0 0 -1
    outer loop
      vertex 1.85507 -9.72464 0
      vertex 1.85507 9.72464 0
      vertex 3.05927 9.41546 0
    endloop
  endfacet
  facet normal 0 0 -1
    outer loop
      vertex 0.621626 -9.88046 0
      vertex 1.85507 9.72464 0
      vertex 1.85507 -9.72464 0
    endloop
  endfacet
  facet normal 0 0 -1
    outer loop
      vertex 0.621626 -9.88046 0
      vertex 0.621626 9.88046 0
      vertex 1.85507 9.72464 0
    endloop
  endfacet
  facet normal 0 0 -1
    outer loop
      vertex -0.621626 -9.88046 0
      vertex 0.621626 9.88046 0
      vertex 0.621626 -9.88046 0
    endloop
  endfacet
  facet normal 0 0 -1
    outer loop
      vertex -0.621626 -9.88046 0
      vertex -0.621626 9.88046 0
      vertex 0.621626 9.88046 0
    endloop
  endfacet
  facet normal 0 0 -1
    outer loop
      vertex -1.85507 -9.72464 0
      vertex -0.621626 9.88046 0
      vertex -0.621626 -9.88046 0
    endloop
  endfacet
  facet normal 0 0 -1
    outer loop
      vertex -1.85507 -9.72464 0
      vertex -1.85507 9.72464 0
      vertex -0.621626 9.88046 0
    endloop
  endfacet
  facet normal 0 0 -1
    outer loop
      vertex -3.05927 -9.41546 0
      vertex -1.85507 9.72464 0
      vertex -1.85507 -9.72464 0
    endloop
  endfacet
  facet normal 0 0 -1
    outer loop
      vertex -3.05927 -9.41546 0
      vertex -3.05927 9.41546 0
      vertex -1.85507 9.72464 0
    endloop
  endfacet
  facet normal 0 0 -1
    outer loop
      vertex -4.21521 -8.95779 0
      vertex -3.05927 9.41546 0
      vertex -3.05927 -9.41546 0
    endloop
  endfacet
  facet normal 0 0 -1
    outer loop
      vertex -4.21521 -8.95779 0
      vertex -4.21521 8.95779 0
      vertex -3.05927 9.41546 0
    endloop
  endfacet
  facet normal 0 0 -1
    outer loop
      vertex -5.30468 -8.35885 0
      vertex -4.21521 8.95779 0
      vertex -4.21521 -8.95779 0
    endloop
  endfacet
  facet normal 0 0 -1
    outer loop
      vertex -5.30468 -8.35885 0
      vertex -5.30468 8.35885 0
      vertex -4.21521 8.95779 0
    endloop
  endfacet
  facet normal 0 0 -1
    outer loop
      vertex -6.3105 -7.62808 0
      vertex -5.30468 8.35885 0
      vertex -5.30468 -8.35885 0
    endloop
  endfacet
  facet normal 0 0 -1
    outer loop
      vertex -6.3105 -7.62808 0
      vertex -6.3105 7.62808 0
      vertex -5.30468 8.35885 0
    endloop
  endfacet
  facet normal 0 0 -1
    outer loop
      vertex -7.21679 -6.77702 0
      vertex -6.3105 7.62808 0
      vertex -6.3105 -7.62808 0
    endloop
  endfacet
  facet normal 0 0 -1
    outer loop
      vertex -7.21679 -6.77702 0
      vertex -7.21679 6.77702 0
      vertex -6.3105 7.62808 0
    endloop
  endfacet
  facet normal 0 0 -1
    outer loop
      vertex -8.00927 -5.81907 0
      vertex -7.21679 6.77702 0
      vertex -7.21679 -6.77702 0
    endloop
  endfacet
  facet normal 0 0 -1
    outer loop
      vertex -8.00927 -5.81907 0
      vertex -8.00927 5.81907 0
      vertex -7.21679 6.77702 0
    endloop
  endfacet
  facet normal 0 0 -1
    outer loop
      vertex -8.67544 -4.76936 0
      vertex -8.00927 5.81907 0
      vertex -8.00927 -5.81907 0
    endloop
  endfacet
  facet normal 0 0 -1
    outer loop
      vertex -8.67544 -4.76936 0
      vertex -8.67544 4.76936 0
      vertex -8.00927 5.81907 0
    endloop
  endfacet
  facet normal 0 0 -1
    outer loop
      vertex -9.20479 -3.64443 0
      vertex -8.67544 4.76936 0
      vertex -8.67544 -4.76936 0
    endloop
  endfacet
  facet normal 0 0 -1
    outer loop
      vertex -9.20479 -3.64443 0
      vertex -9.20479 3.64443 0
      vertex -8.67544 4.76936 0
    endloop
  endfacet
  facet normal 0 0 -1
    outer loop
      vertex -9.58897 -2.46203 0
      vertex -9.20479 3.64443 0
      vertex -9.20479 -3.64443 0
    endloop
  endfacet
  facet normal 0 0 -1
    outer loop
      vertex -9.58897 -2.46203 0
      vertex -9.58897 2.46203 0
      vertex -9.20479 3.64443 0
    endloop
  endfacet
  facet normal 0 0 -1
    outer loop
      vertex -9.82193 -1.2408 0
      vertex -9.58897 2.46203 0
      vertex -9.58897 -2.46203 0
    endloop
  endfacet
  facet normal 0 0 -1
    outer loop
      vertex -9.82193 -1.2408 0
      vertex -9.82193 1.2408 0
      vertex -9.58897 2.46203 0
    endloop
  endfacet
  facet normal 0 -0 -1
    outer loop
      vertex -9.82193 1.2408 0
      vertex -9.82193 -1.2408 0
      vertex -9.9 0 0
    endloop
  endfacet
  facet normal 0.481754 -0.876306 0
    outer loop
      vertex 4.21521 -8.95779 0
      vertex 5.30468 -8.35885 6
      vertex 4.21521 -8.95779 6
    endloop
  endfacet
  facet normal 0.481754 -0.876306 0
    outer loop
      vertex 5.30468 -8.35885 6
      vertex 4.21521 -8.95779 0
      vertex 5.30468 -8.35885 0
    endloop
  endfacet
  facet normal 0.684547 -0.728969 0
    outer loop
      vertex 6.3105 -7.62808 0
      vertex 7.21679 -6.77702 6
      vertex 6.3105 -7.62808 6
    endloop
  endfacet
  facet normal 0.684547 -0.728969 0
    outer loop
      vertex 7.21679 -6.77702 6
      vertex 6.3105 -7.62808 0
      vertex 7.21679 -6.77702 0
    endloop
  endfacet
  facet normal 0.844328 -0.535827 0
    outer loop
      vertex 8.00927 -5.81907 6
      vertex 8.67544 -4.76936 0
      vertex 8.67544 -4.76936 6
    endloop
  endfacet
  facet normal 0.844328 -0.535827 0
    outer loop
      vertex 8.67544 -4.76936 0
      vertex 8.00927 -5.81907 6
      vertex 8.00927 -5.81907 0
    endloop
  endfacet
  facet normal 0.998027 -0.0627909 0
    outer loop
      vertex 9.82193 -1.2408 6
      vertex 9.9 0 0
      vertex 9.9 0 6
    endloop
  endfacet
  facet normal 0.998027 -0.0627909 0
    outer loop
      vertex 9.9 0 0
      vertex 9.82193 -1.2408 6
      vertex 9.82193 -1.2408 0
    endloop
  endfacet
  facet normal -0.368124 -0.929777 0
    outer loop
      vertex -4.21521 -8.95779 0
      vertex -3.05927 -9.41546 6
      vertex -4.21521 -8.95779 6
    endloop
  endfacet
  facet normal -0.368124 -0.929777 -0
    outer loop
      vertex -3.05927 -9.41546 6
      vertex -4.21521 -8.95779 0
      vertex -3.05927 -9.41546 0
    endloop
  endfacet
  facet normal -0.481754 -0.876306 0
    outer loop
      vertex -5.30468 -8.35885 0
      vertex -4.21521 -8.95779 6
      vertex -5.30468 -8.35885 6
    endloop
  endfacet
  facet normal -0.481754 -0.876306 -0
    outer loop
      vertex -4.21521 -8.95779 6
      vertex -5.30468 -8.35885 0
      vertex -4.21521 -8.95779 0
    endloop
  endfacet
  facet normal -0.770513 -0.637424 0
    outer loop
      vertex -7.21679 -6.77702 0
      vertex -8.00927 -5.81907 6
      vertex -8.00927 -5.81907 0
    endloop
  endfacet
  facet normal -0.770513 -0.637424 0
    outer loop
      vertex -8.00927 -5.81907 6
      vertex -7.21679 -6.77702 0
      vertex -7.21679 -6.77702 6
    endloop
  endfacet
  facet normal -0.951056 -0.309017 0
    outer loop
      vertex -9.20479 -3.64443 0
      vertex -9.58897 -2.46203 6
      vertex -9.58897 -2.46203 0
    endloop
  endfacet
  facet normal -0.951056 -0.309017 0
    outer loop
      vertex -9.58897 -2.46203 6
      vertex -9.20479 -3.64443 0
      vertex -9.20479 -3.64443 6
    endloop
  endfacet
  facet normal -0.998027 -0.0627909 0
    outer loop
      vertex -9.82193 -1.2408 0
      vertex -9.9 0 6
      vertex -9.9 0 0
    endloop
  endfacet
  facet normal -0.998027 -0.0627909 0
    outer loop
      vertex -9.9 0 6
      vertex -9.82193 -1.2408 0
      vertex -9.82193 -1.2408 6
    endloop
  endfacet
  facet normal 0.368124 -0.929777 0
    outer loop
      vertex 3.05927 -9.41546 0
      vertex 4.21521 -8.95779 6
      vertex 3.05927 -9.41546 6
    endloop
  endfacet
  facet normal 0.368124 -0.929777 0
    outer loop
      vertex 4.21521 -8.95779 6
      vertex 3.05927 -9.41546 0
      vertex 4.21521 -8.95779 0
    endloop
  endfacet
  facet normal 0.24869 -0.968583 0
    outer loop
      vertex 1.85507 -9.72464 0
      vertex 3.05927 -9.41546 6
      vertex 1.85507 -9.72464 6
    endloop
  endfacet
  facet normal 0.24869 -0.968583 0
    outer loop
      vertex 3.05927 -9.41546 6
      vertex 1.85507 -9.72464 0
      vertex 3.05927 -9.41546 0
    endloop
  endfacet
  facet normal -0.587785 -0.809017 0
    outer loop
      vertex -6.3105 -7.62808 0
      vertex -5.30468 -8.35885 6
      vertex -6.3105 -7.62808 6
    endloop
  endfacet
  facet normal -0.587785 -0.809017 -0
    outer loop
      vertex -5.30468 -8.35885 6
      vertex -6.3105 -7.62808 0
      vertex -5.30468 -8.35885 0
    endloop
  endfacet
  facet normal -0.982287 -0.187381 0
    outer loop
      vertex -9.58897 -2.46203 0
      vertex -9.82193 -1.2408 6
      vertex -9.82193 -1.2408 0
    endloop
  endfacet
  facet normal -0.982287 -0.187381 0
    outer loop
      vertex -9.82193 -1.2408 6
      vertex -9.58897 -2.46203 0
      vertex -9.58897 -2.46203 6
    endloop
  endfacet
  facet normal 0.587785 -0.809017 0
    outer loop
      vertex 5.30468 -8.35885 0
      vertex 6.3105 -7.62808 6
      vertex 5.30468 -8.35885 6
    endloop
  endfacet
  facet normal 0.587785 -0.809017 0
    outer loop
      vertex 6.3105 -7.62808 6
      vertex 5.30468 -8.35885 0
      vertex 6.3105 -7.62808 0
    endloop
  endfacet
  facet normal -0.24869 -0.968583 0
    outer loop
      vertex -3.05927 -9.41546 0
      vertex -1.85507 -9.72464 6
      vertex -3.05927 -9.41546 6
    endloop
  endfacet
  facet normal -0.24869 -0.968583 -0
    outer loop
      vertex -1.85507 -9.72464 6
      vertex -3.05927 -9.41546 0
      vertex -1.85507 -9.72464 0
    endloop
  endfacet
  facet normal -0.125333 -0.992115 0
    outer loop
      vertex -1.85507 -9.72464 0
      vertex -0.621626 -9.88046 6
      vertex -1.85507 -9.72464 6
    endloop
  endfacet
  facet normal -0.125333 -0.992115 -0
    outer loop
      vertex -0.621626 -9.88046 6
      vertex -1.85507 -9.72464 0
      vertex -0.621626 -9.88046 0
    endloop
  endfacet
  facet normal -0.998027 -0.0627904 0
    outer loop
      vertex 8.9 0 1
      vertex 8.82982 1.11547 6
      vertex 8.82982 1.11547 1
    endloop
  endfacet
  facet normal -0.998027 -0.0627904 0
    outer loop
      vertex 8.82982 1.11547 6
      vertex 8.9 0 1
      vertex 8.9 0 6
    endloop
  endfacet
  facet normal 0.998027 -0.0627904 0
    outer loop
      vertex -8.9 0 6
      vertex -8.82982 1.11547 1
      vertex -8.82982 1.11547 6
    endloop
  endfacet
  facet normal 0.998027 -0.0627904 0
    outer loop
      vertex -8.82982 1.11547 1
      vertex -8.9 0 6
      vertex -8.9 0 1
    endloop
  endfacet
  facet normal 0 -1 0
    outer loop
      vertex -0.558835 8.88244 1
      vertex 0.558835 8.88244 6
      vertex -0.558835 8.88244 6
    endloop
  endfacet
  facet normal 0 -1 -0
    outer loop
      vertex 0.558835 8.88244 6
      vertex -0.558835 8.88244 1
      vertex 0.558835 8.88244 1
    endloop
  endfacet
  facet normal 0 1 -0
    outer loop
      vertex 0.558835 -8.88244 1
      vertex -0.558835 -8.88244 6
      vertex 0.558835 -8.88244 6
    endloop
  endfacet
  facet normal 0 1 0
    outer loop
      vertex -0.558835 -8.88244 6
      vertex 0.558835 -8.88244 1
      vertex -0.558835 -8.88244 1
    endloop
  endfacet
  facet normal -0.684547 -0.728969 0
    outer loop
      vertex 5.67307 6.85757 1
      vertex 6.48782 6.09247 6
      vertex 5.67307 6.85757 6
    endloop
  endfacet
  facet normal -0.684547 -0.728969 -0
    outer loop
      vertex 6.48782 6.09247 6
      vertex 5.67307 6.85757 1
      vertex 6.48782 6.09247 1
    endloop
  endfacet
  facet normal 0.684547 -0.728969 0
    outer loop
      vertex -6.48782 6.09247 1
      vertex -5.67307 6.85757 6
      vertex -6.48782 6.09247 6
    endloop
  endfacet
  facet normal 0.684547 -0.728969 0
    outer loop
      vertex -5.67307 6.85757 6
      vertex -6.48782 6.09247 1
      vertex -5.67307 6.85757 1
    endloop
  endfacet
  facet normal 0.368124 -0.929777 0
    outer loop
      vertex -3.78944 8.05296 1
      vertex -2.75025 8.4644 6
      vertex -3.78944 8.05296 6
    endloop
  endfacet
  facet normal 0.368124 -0.929777 0
    outer loop
      vertex -2.75025 8.4644 6
      vertex -3.78944 8.05296 1
      vertex -2.75025 8.4644 1
    endloop
  endfacet
  facet normal -0.904827 -0.42578 0
    outer loop
      vertex 8.27501 3.27631 1
      vertex 7.79913 4.28761 6
      vertex 7.79913 4.28761 1
    endloop
  endfacet
  facet normal -0.904827 -0.42578 0
    outer loop
      vertex 7.79913 4.28761 6
      vertex 8.27501 3.27631 1
      vertex 8.27501 3.27631 6
    endloop
  endfacet
  facet normal -0.982287 -0.187381 0
    outer loop
      vertex 8.82982 1.11547 1
      vertex 8.62039 2.21334 6
      vertex 8.62039 2.21334 1
    endloop
  endfacet
  facet normal -0.982287 -0.187381 0
    outer loop
      vertex 8.62039 2.21334 6
      vertex 8.82982 1.11547 1
      vertex 8.82982 1.11547 6
    endloop
  endfacet
  facet normal -0.368124 -0.929777 0
    outer loop
      vertex 2.75025 8.4644 1
      vertex 3.78944 8.05296 6
      vertex 2.75025 8.4644 6
    endloop
  endfacet
  facet normal -0.368124 -0.929777 -0
    outer loop
      vertex 3.78944 8.05296 6
      vertex 2.75025 8.4644 1
      vertex 3.78944 8.05296 1
    endloop
  endfacet
  facet normal -0.24869 -0.968583 0
    outer loop
      vertex 1.66769 8.74236 1
      vertex 2.75025 8.4644 6
      vertex 1.66769 8.74236 6
    endloop
  endfacet
  facet normal -0.24869 -0.968583 -0
    outer loop
      vertex 2.75025 8.4644 6
      vertex 1.66769 8.74236 1
      vertex 2.75025 8.4644 1
    endloop
  endfacet
  facet normal -0.481754 -0.876306 0
    outer loop
      vertex 3.78944 8.05296 1
      vertex 4.76886 7.51452 6
      vertex 3.78944 8.05296 6
    endloop
  endfacet
  facet normal -0.481754 -0.876306 -0
    outer loop
      vertex 4.76886 7.51452 6
      vertex 3.78944 8.05296 1
      vertex 4.76886 7.51452 1
    endloop
  endfacet
  facet normal 0.904827 -0.42578 0
    outer loop
      vertex -8.27501 3.27631 6
      vertex -7.79913 4.28761 1
      vertex -7.79913 4.28761 6
    endloop
  endfacet
  facet normal 0.904827 -0.42578 0
    outer loop
      vertex -7.79913 4.28761 1
      vertex -8.27501 3.27631 6
      vertex -8.27501 3.27631 1
    endloop
  endfacet
  facet normal 0.951056 -0.309017 0
    outer loop
      vertex -8.62039 2.21334 6
      vertex -8.27501 3.27631 1
      vertex -8.27501 3.27631 6
    endloop
  endfacet
  facet normal 0.951056 -0.309017 0
    outer loop
      vertex -8.27501 3.27631 1
      vertex -8.62039 2.21334 6
      vertex -8.62039 2.21334 1
    endloop
  endfacet
  facet normal 0.125333 -0.992115 0
    outer loop
      vertex -1.66769 8.74236 1
      vertex -0.558835 8.88244 6
      vertex -1.66769 8.74236 6
    endloop
  endfacet
  facet normal 0.125333 -0.992115 0
    outer loop
      vertex -0.558835 8.88244 6
      vertex -1.66769 8.74236 1
      vertex -0.558835 8.88244 1
    endloop
  endfacet
  facet normal -0.982287 0.187381 0
    outer loop
      vertex 8.62039 -2.21334 1
      vertex 8.82982 -1.11547 6
      vertex 8.82982 -1.11547 1
    endloop
  endfacet
  facet normal -0.982287 0.187381 0
    outer loop
      vertex 8.82982 -1.11547 6
      vertex 8.62039 -2.21334 1
      vertex 8.62039 -2.21334 6
    endloop
  endfacet
  facet normal -0.125333 0.992115 0
    outer loop
      vertex 1.66769 -8.74236 1
      vertex 0.558835 -8.88244 6
      vertex 1.66769 -8.74236 6
    endloop
  endfacet
  facet normal -0.125333 0.992115 0
    outer loop
      vertex 0.558835 -8.88244 6
      vertex 1.66769 -8.74236 1
      vertex 0.558835 -8.88244 1
    endloop
  endfacet
  facet normal -0.951056 -0.309017 0
    outer loop
      vertex 8.62039 2.21334 1
      vertex 8.27501 3.27631 6
      vertex 8.27501 3.27631 1
    endloop
  endfacet
  facet normal -0.951056 -0.309017 0
    outer loop
      vertex 8.27501 3.27631 6
      vertex 8.62039 2.21334 1
      vertex 8.62039 2.21334 6
    endloop
  endfacet
  facet normal -0.770514 -0.637423 0
    outer loop
      vertex 7.20025 5.23129 1
      vertex 6.48782 6.09247 6
      vertex 6.48782 6.09247 1
    endloop
  endfacet
  facet normal -0.770514 -0.637423 0
    outer loop
      vertex 6.48782 6.09247 6
      vertex 7.20025 5.23129 1
      vertex 7.20025 5.23129 6
    endloop
  endfacet
  facet normal -0.844328 -0.535827 0
    outer loop
      vertex 7.79913 4.28761 1
      vertex 7.20025 5.23129 6
      vertex 7.20025 5.23129 1
    endloop
  endfacet
  facet normal -0.844328 -0.535827 0
    outer loop
      vertex 7.20025 5.23129 6
      vertex 7.79913 4.28761 1
      vertex 7.79913 4.28761 6
    endloop
  endfacet
  facet normal -0.125333 -0.992115 0
    outer loop
      vertex 0.558835 8.88244 1
      vertex 1.66769 8.74236 6
      vertex 0.558835 8.88244 6
    endloop
  endfacet
  facet normal -0.125333 -0.992115 -0
    outer loop
      vertex 1.66769 8.74236 6
      vertex 0.558835 8.88244 1
      vertex 1.66769 8.74236 1
    endloop
  endfacet
  facet normal -0.587785 -0.809017 0
    outer loop
      vertex 4.76886 7.51452 1
      vertex 5.67307 6.85757 6
      vertex 4.76886 7.51452 6
    endloop
  endfacet
  facet normal -0.587785 -0.809017 -0
    outer loop
      vertex 5.67307 6.85757 6
      vertex 4.76886 7.51452 1
      vertex 5.67307 6.85757 1
    endloop
  endfacet
  facet normal 0.844328 -0.535827 0
    outer loop
      vertex -7.79913 4.28761 6
      vertex -7.20025 5.23129 1
      vertex -7.20025 5.23129 6
    endloop
  endfacet
  facet normal 0.844328 -0.535827 0
    outer loop
      vertex -7.20025 5.23129 1
      vertex -7.79913 4.28761 6
      vertex -7.79913 4.28761 1
    endloop
  endfacet
  facet normal 0.770514 -0.637423 0
    outer loop
      vertex -7.20025 5.23129 6
      vertex -6.48782 6.09247 1
      vertex -6.48782 6.09247 6
    endloop
  endfacet
  facet normal 0.770514 -0.637423 0
    outer loop
      vertex -6.48782 6.09247 1
      vertex -7.20025 5.23129 6
      vertex -7.20025 5.23129 1
    endloop
  endfacet
  facet normal 0.982287 -0.187381 0
    outer loop
      vertex -8.82982 1.11547 6
      vertex -8.62039 2.21334 1
      vertex -8.62039 2.21334 6
    endloop
  endfacet
  facet normal 0.982287 -0.187381 0
    outer loop
      vertex -8.62039 2.21334 1
      vertex -8.82982 1.11547 6
      vertex -8.82982 1.11547 1
    endloop
  endfacet
  facet normal 0.481754 -0.876306 0
    outer loop
      vertex -4.76886 7.51452 1
      vertex -3.78944 8.05296 6
      vertex -4.76886 7.51452 6
    endloop
  endfacet
  facet normal 0.481754 -0.876306 0
    outer loop
      vertex -3.78944 8.05296 6
      vertex -4.76886 7.51452 1
      vertex -3.78944 8.05296 1
    endloop
  endfacet
  facet normal 0.587785 -0.809017 0
    outer loop
      vertex -5.67307 6.85757 1
      vertex -4.76886 7.51452 6
      vertex -5.67307 6.85757 6
    endloop
  endfacet
  facet normal 0.587785 -0.809017 0
    outer loop
      vertex -4.76886 7.51452 6
      vertex -5.67307 6.85757 1
      vertex -4.76886 7.51452 1
    endloop
  endfacet
  facet normal 0.24869 -0.968583 0
    outer loop
      vertex -2.75025 8.4644 1
      vertex -1.66769 8.74236 6
      vertex -2.75025 8.4644 6
    endloop
  endfacet
  facet normal 0.24869 -0.968583 0
    outer loop
      vertex -1.66769 8.74236 6
      vertex -2.75025 8.4644 1
      vertex -1.66769 8.74236 1
    endloop
  endfacet
  facet normal -0.998027 0.0627904 0
    outer loop
      vertex 8.82982 -1.11547 1
      vertex 8.9 0 6
      vertex 8.9 0 1
    endloop
  endfacet
  facet normal -0.998027 0.0627904 0
    outer loop
      vertex 8.9 0 6
      vertex 8.82982 -1.11547 1
      vertex 8.82982 -1.11547 6
    endloop
  endfacet
  facet normal 0.684547 0.728969 -0
    outer loop
      vertex -5.67307 -6.85757 1
      vertex -6.48782 -6.09247 6
      vertex -5.67307 -6.85757 6
    endloop
  endfacet
  facet normal 0.684547 0.728969 0
    outer loop
      vertex -6.48782 -6.09247 6
      vertex -5.67307 -6.85757 1
      vertex -6.48782 -6.09247 1
    endloop
  endfacet
  facet normal 0.904827 0.42578 0
    outer loop
      vertex -7.79913 -4.28761 6
      vertex -8.27501 -3.27631 1
      vertex -8.27501 -3.27631 6
    endloop
  endfacet
  facet normal 0.904827 0.42578 0
    outer loop
      vertex -8.27501 -3.27631 1
      vertex -7.79913 -4.28761 6
      vertex -7.79913 -4.28761 1
    endloop
  endfacet
  facet normal 0.844328 0.535827 0
    outer loop
      vertex -7.20025 -5.23129 6
      vertex -7.79913 -4.28761 1
      vertex -7.79913 -4.28761 6
    endloop
  endfacet
  facet normal 0.844328 0.535827 0
    outer loop
      vertex -7.79913 -4.28761 1
      vertex -7.20025 -5.23129 6
      vertex -7.20025 -5.23129 1
    endloop
  endfacet
  facet normal 0 0 1
    outer loop
      vertex 8.82982 1.11547 1
      vertex 8.82982 -1.11547 1
      vertex 8.9 0 1
    endloop
  endfacet
  facet normal 0 0 1
    outer loop
      vertex 8.62039 2.21334 1
      vertex 8.82982 -1.11547 1
      vertex 8.82982 1.11547 1
    endloop
  endfacet
  facet normal 0 0 1
    outer loop
      vertex 8.62039 2.21334 1
      vertex 8.62039 -2.21334 1
      vertex 8.82982 -1.11547 1
    endloop
  endfacet
  facet normal 0 0 1
    outer loop
      vertex 8.27501 3.27631 1
      vertex 8.62039 -2.21334 1
      vertex 8.62039 2.21334 1
    endloop
  endfacet
  facet normal 0 0 1
    outer loop
      vertex 8.27501 3.27631 1
      vertex 8.27501 -3.27631 1
      vertex 8.62039 -2.21334 1
    endloop
  endfacet
  facet normal 0 0 1
    outer loop
      vertex 7.79913 4.28761 1
      vertex 8.27501 -3.27631 1
      vertex 8.27501 3.27631 1
    endloop
  endfacet
  facet normal 0 0 1
    outer loop
      vertex 7.79913 4.28761 1
      vertex 7.79913 -4.28761 1
      vertex 8.27501 -3.27631 1
    endloop
  endfacet
  facet normal 0 0 1
    outer loop
      vertex 7.20025 5.23129 1
      vertex 7.79913 -4.28761 1
      vertex 7.79913 4.28761 1
    endloop
  endfacet
  facet normal 0 0 1
    outer loop
      vertex 7.20025 5.23129 1
      vertex 7.20025 -5.23129 1
      vertex 7.79913 -4.28761 1
    endloop
  endfacet
  facet normal 0 0 1
    outer loop
      vertex 6.48782 6.09247 1
      vertex 7.20025 -5.23129 1
      vertex 7.20025 5.23129 1
    endloop
  endfacet
  facet normal 0 0 1
    outer loop
      vertex 6.48782 6.09247 1
      vertex 6.48782 -6.09247 1
      vertex 7.20025 -5.23129 1
    endloop
  endfacet
  facet normal 0 0 1
    outer loop
      vertex 5.67307 6.85757 1
      vertex 6.48782 -6.09247 1
      vertex 6.48782 6.09247 1
    endloop
  endfacet
  facet normal 0 0 1
    outer loop
      vertex 5.67307 6.85757 1
      vertex 5.67307 -6.85757 1
      vertex 6.48782 -6.09247 1
    endloop
  endfacet
  facet normal 0 0 1
    outer loop
      vertex 4.76886 7.51452 1
      vertex 5.67307 -6.85757 1
      vertex 5.67307 6.85757 1
    endloop
  endfacet
  facet normal 0 0 1
    outer loop
      vertex 4.76886 7.51452 1
      vertex 4.76886 -7.51452 1
      vertex 5.67307 -6.85757 1
    endloop
  endfacet
  facet normal 0 0 1
    outer loop
      vertex 3.78944 8.05296 1
      vertex 4.76886 -7.51452 1
      vertex 4.76886 7.51452 1
    endloop
  endfacet
  facet normal 0 0 1
    outer loop
      vertex 3.78944 8.05296 1
      vertex 3.78944 -8.05296 1
      vertex 4.76886 -7.51452 1
    endloop
  endfacet
  facet normal 0 0 1
    outer loop
      vertex 2.75025 8.4644 1
      vertex 3.78944 -8.05296 1
      vertex 3.78944 8.05296 1
    endloop
  endfacet
  facet normal 0 0 1
    outer loop
      vertex 2.75025 8.4644 1
      vertex 2.75025 -8.4644 1
      vertex 3.78944 -8.05296 1
    endloop
  endfacet
  facet normal 0 0 1
    outer loop
      vertex 1.66769 8.74236 1
      vertex 2.75025 -8.4644 1
      vertex 2.75025 8.4644 1
    endloop
  endfacet
  facet normal 0 0 1
    outer loop
      vertex 1.66769 8.74236 1
      vertex 1.66769 -8.74236 1
      vertex 2.75025 -8.4644 1
    endloop
  endfacet
  facet normal 0 0 1
    outer loop
      vertex 0.558835 8.88244 1
      vertex 1.66769 -8.74236 1
      vertex 1.66769 8.74236 1
    endloop
  endfacet
  facet normal 0 0 1
    outer loop
      vertex 0.558835 8.88244 1
      vertex 0.558835 -8.88244 1
      vertex 1.66769 -8.74236 1
    endloop
  endfacet
  facet normal -0 0 1
    outer loop
      vertex -0.558835 8.88244 1
      vertex 0.558835 -8.88244 1
      vertex 0.558835 8.88244 1
    endloop
  endfacet
  facet normal 0 0 1
    outer loop
      vertex -0.558835 8.88244 1
      vertex -0.558835 -8.88244 1
      vertex 0.558835 -8.88244 1
    endloop
  endfacet
  facet normal -0 0 1
    outer loop
      vertex -1.66769 8.74236 1
      vertex -0.558835 -8.88244 1
      vertex -0.558835 8.88244 1
    endloop
  endfacet
  facet normal 0 0 1
    outer loop
      vertex -1.66769 8.74236 1
      vertex -1.66769 -8.74236 1
      vertex -0.558835 -8.88244 1
    endloop
  endfacet
  facet normal -0 0 1
    outer loop
      vertex -2.75025 8.4644 1
      vertex -1.66769 -8.74236 1
      vertex -1.66769 8.74236 1
    endloop
  endfacet
  facet normal 0 0 1
    outer loop
      vertex -2.75025 8.4644 1
      vertex -2.75025 -8.4644 1
      vertex -1.66769 -8.74236 1
    endloop
  endfacet
  facet normal -0 0 1
    outer loop
      vertex -3.78944 8.05296 1
      vertex -2.75025 -8.4644 1
      vertex -2.75025 8.4644 1
    endloop
  endfacet
  facet normal 0 0 1
    outer loop
      vertex -3.78944 8.05296 1
      vertex -3.78944 -8.05296 1
      vertex -2.75025 -8.4644 1
    endloop
  endfacet
  facet normal -0 0 1
    outer loop
      vertex -4.76886 7.51452 1
      vertex -3.78944 -8.05296 1
      vertex -3.78944 8.05296 1
    endloop
  endfacet
  facet normal 0 0 1
    outer loop
      vertex -4.76886 7.51452 1
      vertex -4.76886 -7.51452 1
      vertex -3.78944 -8.05296 1
    endloop
  endfacet
  facet normal -0 0 1
    outer loop
      vertex -5.67307 6.85757 1
      vertex -4.76886 -7.51452 1
      vertex -4.76886 7.51452 1
    endloop
  endfacet
  facet normal 0 0 1
    outer loop
      vertex -5.67307 6.85757 1
      vertex -5.67307 -6.85757 1
      vertex -4.76886 -7.51452 1
    endloop
  endfacet
  facet normal -0 0 1
    outer loop
      vertex -6.48782 6.09247 1
      vertex -5.67307 -6.85757 1
      vertex -5.67307 6.85757 1
    endloop
  endfacet
  facet normal 0 0 1
    outer loop
      vertex -6.48782 6.09247 1
      vertex -6.48782 -6.09247 1
      vertex -5.67307 -6.85757 1
    endloop
  endfacet
  facet normal -0 0 1
    outer loop
      vertex -7.20025 5.23129 1
      vertex -6.48782 -6.09247 1
      vertex -6.48782 6.09247 1
    endloop
  endfacet
  facet normal 0 0 1
    outer loop
      vertex -7.20025 5.23129 1
      vertex -7.20025 -5.23129 1
      vertex -6.48782 -6.09247 1
    endloop
  endfacet
  facet normal -0 0 1
    outer loop
      vertex -7.79913 4.28761 1
      vertex -7.20025 -5.23129 1
      vertex -7.20025 5.23129 1
    endloop
  endfacet
  facet normal 0 0 1
    outer loop
      vertex -7.79913 4.28761 1
      vertex -7.79913 -4.28761 1
      vertex -7.20025 -5.23129 1
    endloop
  endfacet
  facet normal -0 0 1
    outer loop
      vertex -8.27501 3.27631 1
      vertex -7.79913 -4.28761 1
      vertex -7.79913 4.28761 1
    endloop
  endfacet
  facet normal 0 0 1
    outer loop
      vertex -8.27501 3.27631 1
      vertex -8.27501 -3.27631 1
      vertex -7.79913 -4.28761 1
    endloop
  endfacet
  facet normal -0 0 1
    outer loop
      vertex -8.62039 2.21334 1
      vertex -8.27501 -3.27631 1
      vertex -8.27501 3.27631 1
    endloop
  endfacet
  facet normal 0 0 1
    outer loop
      vertex -8.62039 2.21334 1
      vertex -8.62039 -2.21334 1
      vertex -8.27501 -3.27631 1
    endloop
  endfacet
  facet normal -0 0 1
    outer loop
      vertex -8.82982 1.11547 1
      vertex -8.62039 -2.21334 1
      vertex -8.62039 2.21334 1
    endloop
  endfacet
  facet normal 0 0 1
    outer loop
      vertex -8.82982 1.11547 1
      vertex -8.82982 -1.11547 1
      vertex -8.62039 -2.21334 1
    endloop
  endfacet
  facet normal 0 -0 1
    outer loop
      vertex -8.82982 -1.11547 1
      vertex -8.82982 1.11547 1
      vertex -8.9 0 1
    endloop
  endfacet
  facet normal -0.481754 0.876306 0
    outer loop
      vertex 4.76886 -7.51452 1
      vertex 3.78944 -8.05296 6
      vertex 4.76886 -7.51452 6
    endloop
  endfacet
  facet normal -0.481754 0.876306 0
    outer loop
      vertex 3.78944 -8.05296 6
      vertex 4.76886 -7.51452 1
      vertex 3.78944 -8.05296 1
    endloop
  endfacet
  facet normal -0.904827 0.42578 0
    outer loop
      vertex 7.79913 -4.28761 1
      vertex 8.27501 -3.27631 6
      vertex 8.27501 -3.27631 1
    endloop
  endfacet
  facet normal -0.904827 0.42578 0
    outer loop
      vertex 8.27501 -3.27631 6
      vertex 7.79913 -4.28761 1
      vertex 7.79913 -4.28761 6
    endloop
  endfacet
  facet normal 0.481754 0.876306 -0
    outer loop
      vertex -3.78944 -8.05296 1
      vertex -4.76886 -7.51452 6
      vertex -3.78944 -8.05296 6
    endloop
  endfacet
  facet normal 0.481754 0.876306 0
    outer loop
      vertex -4.76886 -7.51452 6
      vertex -3.78944 -8.05296 1
      vertex -4.76886 -7.51452 1
    endloop
  endfacet
  facet normal 0.770514 0.637423 0
    outer loop
      vertex -6.48782 -6.09247 6
      vertex -7.20025 -5.23129 1
      vertex -7.20025 -5.23129 6
    endloop
  endfacet
  facet normal 0.770514 0.637423 0
    outer loop
      vertex -7.20025 -5.23129 1
      vertex -6.48782 -6.09247 6
      vertex -6.48782 -6.09247 1
    endloop
  endfacet
  facet normal 0.951056 0.309017 0
    outer loop
      vertex -8.27501 -3.27631 6
      vertex -8.62039 -2.21334 1
      vertex -8.62039 -2.21334 6
    endloop
  endfacet
  facet normal 0.951056 0.309017 0
    outer loop
      vertex -8.62039 -2.21334 1
      vertex -8.27501 -3.27631 6
      vertex -8.27501 -3.27631 1
    endloop
  endfacet
  facet normal 0.998027 0.0627904 0
    outer loop
      vertex -8.82982 -1.11547 6
      vertex -8.9 0 1
      vertex -8.9 0 6
    endloop
  endfacet
  facet normal 0.998027 0.0627904 0
    outer loop
      vertex -8.9 0 1
      vertex -8.82982 -1.11547 6
      vertex -8.82982 -1.11547 1
    endloop
  endfacet
  facet normal -0.684547 0.728969 0
    outer loop
      vertex 6.48782 -6.09247 1
      vertex 5.67307 -6.85757 6
      vertex 6.48782 -6.09247 6
    endloop
  endfacet
  facet normal -0.684547 0.728969 0
    outer loop
      vertex 5.67307 -6.85757 6
      vertex 6.48782 -6.09247 1
      vertex 5.67307 -6.85757 1
    endloop
  endfacet
  facet normal -0.368124 0.929777 0
    outer loop
      vertex 3.78944 -8.05296 1
      vertex 2.75025 -8.4644 6
      vertex 3.78944 -8.05296 6
    endloop
  endfacet
  facet normal -0.368124 0.929777 0
    outer loop
      vertex 2.75025 -8.4644 6
      vertex 3.78944 -8.05296 1
      vertex 2.75025 -8.4644 1
    endloop
  endfacet
  facet normal -0.24869 0.968583 0
    outer loop
      vertex 2.75025 -8.4644 1
      vertex 1.66769 -8.74236 6
      vertex 2.75025 -8.4644 6
    endloop
  endfacet
  facet normal -0.24869 0.968583 0
    outer loop
      vertex 1.66769 -8.74236 6
      vertex 2.75025 -8.4644 1
      vertex 1.66769 -8.74236 1
    endloop
  endfacet
  facet normal -0.844328 0.535827 0
    outer loop
      vertex 7.20025 -5.23129 1
      vertex 7.79913 -4.28761 6
      vertex 7.79913 -4.28761 1
    endloop
  endfacet
  facet normal -0.844328 0.535827 0
    outer loop
      vertex 7.79913 -4.28761 6
      vertex 7.20025 -5.23129 1
      vertex 7.20025 -5.23129 6
    endloop
  endfacet
  facet normal -0.770514 0.637423 0
    outer loop
      vertex 6.48782 -6.09247 1
      vertex 7.20025 -5.23129 6
      vertex 7.20025 -5.23129 1
    endloop
  endfacet
  facet normal -0.770514 0.637423 0
    outer loop
      vertex 7.20025 -5.23129 6
      vertex 6.48782 -6.09247 1
      vertex 6.48782 -6.09247 6
    endloop
  endfacet
  facet normal -0.951056 0.309017 0
    outer loop
      vertex 8.27501 -3.27631 1
      vertex 8.62039 -2.21334 6
      vertex 8.62039 -2.21334 1
    endloop
  endfacet
  facet normal -0.951056 0.309017 0
    outer loop
      vertex 8.62039 -2.21334 6
      vertex 8.27501 -3.27631 1
      vertex 8.27501 -3.27631 6
    endloop
  endfacet
  facet normal 0.125333 0.992115 -0
    outer loop
      vertex -0.558835 -8.88244 1
      vertex -1.66769 -8.74236 6
      vertex -0.558835 -8.88244 6
    endloop
  endfacet
  facet normal 0.125333 0.992115 0
    outer loop
      vertex -1.66769 -8.74236 6
      vertex -0.558835 -8.88244 1
      vertex -1.66769 -8.74236 1
    endloop
  endfacet
  facet normal 0.587785 0.809017 -0
    outer loop
      vertex -4.76886 -7.51452 1
      vertex -5.67307 -6.85757 6
      vertex -4.76886 -7.51452 6
    endloop
  endfacet
  facet normal 0.587785 0.809017 0
    outer loop
      vertex -5.67307 -6.85757 6
      vertex -4.76886 -7.51452 1
      vertex -5.67307 -6.85757 1
    endloop
  endfacet
  facet normal 0.982287 0.187381 0
    outer loop
      vertex -8.62039 -2.21334 6
      vertex -8.82982 -1.11547 1
      vertex -8.82982 -1.11547 6
    endloop
  endfacet
  facet normal 0.982287 0.187381 0
    outer loop
      vertex -8.82982 -1.11547 1
      vertex -8.62039 -2.21334 6
      vertex -8.62039 -2.21334 1
    endloop
  endfacet
  facet normal -0.587785 0.809017 0
    outer loop
      vertex 5.67307 -6.85757 1
      vertex 4.76886 -7.51452 6
      vertex 5.67307 -6.85757 6
    endloop
  endfacet
  facet normal -0.587785 0.809017 0
    outer loop
      vertex 4.76886 -7.51452 6
      vertex 5.67307 -6.85757 1
      vertex 4.76886 -7.51452 1
    endloop
  endfacet
  facet normal 0.24869 0.968583 -0
    outer loop
      vertex -1.66769 -8.74236 1
      vertex -2.75025 -8.4644 6
      vertex -1.66769 -8.74236 6
    endloop
  endfacet
  facet normal 0.24869 0.968583 0
    outer loop
      vertex -2.75025 -8.4644 6
      vertex -1.66769 -8.74236 1
      vertex -2.75025 -8.4644 1
    endloop
  endfacet
  facet normal 0.368124 0.929777 -0
    outer loop
      vertex -2.75025 -8.4644 1
      vertex -3.78944 -8.05296 6
      vertex -2.75025 -8.4644 6
    endloop
  endfacet
  facet normal 0.368124 0.929777 0
    outer loop
      vertex -3.78944 -8.05296 6
      vertex -2.75025 -8.4644 1
      vertex -3.78944 -8.05296 1
    endloop
  endfacet
endsolid OpenSCAD_Model
