solid OpenSCAD_Model
  facet normal -1 0 0
    outer loop
      vertex 0 62.4 0
      vertex 0 0 2
      vertex 0 62.4 9.9
    endloop
  endfacet
  facet normal -1 0 0
    outer loop
      vertex 0 -10 0
      vertex 0 0 2
      vertex 0 62.4 0
    endloop
  endfacet
  facet normal -1 -0 0
    outer loop
      vertex 0 0 2
      vertex 0 -10 0
      vertex 0 -10 2
    endloop
  endfacet
  facet normal -1 -0 0
    outer loop
      vertex 0 62.4 9.9
      vertex 0 0 2
      vertex 0 0 9.9
    endloop
  endfacet
  facet normal 0 0 1
    outer loop
      vertex 23 11.5 3.4
      vertex 21 5 3.4
      vertex 23 4 3.4
    endloop
  endfacet
  facet normal 0 0 1
    outer loop
      vertex 23 11.5 3.4
      vertex 6 5 3.4
      vertex 21 5 3.4
    endloop
  endfacet
  facet normal -0 0 1
    outer loop
      vertex 4 11.5 3.4
      vertex 6 5 3.4
      vertex 23 11.5 3.4
    endloop
  endfacet
  facet normal 0 0 1
    outer loop
      vertex 4 4 3.4
      vertex 6 5 3.4
      vertex 4 11.5 3.4
    endloop
  endfacet
  facet normal 0 0 1
    outer loop
      vertex 6 5 3.4
      vertex 4 4 3.4
      vertex 6 4 3.4
    endloop
  endfacet
  facet normal 0 0 1
    outer loop
      vertex 23 4 3.4
      vertex 21 5 3.4
      vertex 21 4 3.4
    endloop
  endfacet
  facet normal 0 0 1
    outer loop
      vertex 4 54 3.4
      vertex 23 54 3.4
      vertex 23 58.4 3.4
    endloop
  endfacet
  facet normal 0 0 1
    outer loop
      vertex 23 54 3.4
      vertex 4 54 3.4
      vertex 23 51 3.4
    endloop
  endfacet
  facet normal 0 0 1
    outer loop
      vertex 4 54 3.4
      vertex 23 58.4 3.4
      vertex 4 58.4 3.4
    endloop
  endfacet
  facet normal 0 0 1
    outer loop
      vertex 23 51 3.4
      vertex 4 54 3.4
      vertex 4 51 3.4
    endloop
  endfacet
  facet normal 0 0 1
    outer loop
      vertex 23 51 3.4
      vertex 4 51 3.4
      vertex 23 41.5 3.4
    endloop
  endfacet
  facet normal 0 0 1
    outer loop
      vertex 23 41.5 3.4
      vertex 4 51 3.4
      vertex 4 41.5 3.4
    endloop
  endfacet
  facet normal 0 0 1
    outer loop
      vertex 6 4 3.4
      vertex 21 4 3.4
      vertex 21 5 3.4
    endloop
  endfacet
  facet normal 0 0 1
    outer loop
      vertex 6 4 3.4
      vertex 21 5 3.4
      vertex 6 5 3.4
    endloop
  endfacet
  facet normal 0 0 1
    outer loop
      vertex 21 4 3.4
      vertex 6 4 3.4
      vertex 21 0 3.4
    endloop
  endfacet
  facet normal 0 0 1
    outer loop
      vertex 21 0 3.4
      vertex 6 4 3.4
      vertex 6 0 3.4
    endloop
  endfacet
  facet normal 1 0 0
    outer loop
      vertex 27 0 2
      vertex 27 62.4 9.9
      vertex 27 0 9.9
    endloop
  endfacet
  facet normal 1 0 0
    outer loop
      vertex 27 62.4 9.9
      vertex 27 0 2
      vertex 27 62.4 0
    endloop
  endfacet
  facet normal 1 0 0
    outer loop
      vertex 27 -10 0
      vertex 27 0 2
      vertex 27 -10 2
    endloop
  endfacet
  facet normal 1 0 0
    outer loop
      vertex 27 0 2
      vertex 27 -10 0
      vertex 27 62.4 0
    endloop
  endfacet
  facet normal 0 1 -0
    outer loop
      vertex 27 62.4 0
      vertex 0 62.4 9.9
      vertex 27 62.4 9.9
    endloop
  endfacet
  facet normal 0 1 0
    outer loop
      vertex 0 62.4 9.9
      vertex 27 62.4 0
      vertex 0 62.4 0
    endloop
  endfacet
  facet normal 0 0 -1
    outer loop
      vertex 2 32.7 0
      vertex 4 51 0
      vertex 4 32.7 0
    endloop
  endfacet
  facet normal -0 0 -1
    outer loop
      vertex 4 51 0
      vertex 2 32.7 0
      vertex 2 51 0
    endloop
  endfacet
  facet normal 0 0 -1
    outer loop
      vertex 2 16 0
      vertex 4 29.7 0
      vertex 4 16 0
    endloop
  endfacet
  facet normal -0 0 -1
    outer loop
      vertex 4 29.7 0
      vertex 2 16 0
      vertex 2 29.7 0
    endloop
  endfacet
  facet normal 0 0 -1
    outer loop
      vertex 3.79443 -3.47831 0
      vertex 4 13 0
      vertex 4.59443 -4.05954 0
    endloop
  endfacet
  facet normal 0 0 -1
    outer loop
      vertex 2.80557 -3.47831 0
      vertex 4 13 0
      vertex 3.79443 -3.47831 0
    endloop
  endfacet
  facet normal 0 0 -1
    outer loop
      vertex 2 13 0
      vertex 2.80557 -3.47831 0
      vertex 2.00557 -4.05954 0
    endloop
  endfacet
  facet normal 0 0 -1
    outer loop
      vertex 2.80557 -3.47831 0
      vertex 2 13 0
      vertex 4 13 0
    endloop
  endfacet
  facet normal 0 0 -1
    outer loop
      vertex 0 -10 0
      vertex 2 16 0
      vertex 2 13 0
    endloop
  endfacet
  facet normal -0 0 -1
    outer loop
      vertex 2 16 0
      vertex 0 -10 0
      vertex 2 29.7 0
    endloop
  endfacet
  facet normal 0 0 -1
    outer loop
      vertex 0 62.4 0
      vertex 2 29.7 0
      vertex 0 -10 0
    endloop
  endfacet
  facet normal 0 0 -1
    outer loop
      vertex 2 32.7 0
      vertex 0 62.4 0
      vertex 2 51 0
    endloop
  endfacet
  facet normal 0 0 -1
    outer loop
      vertex 0 -10 0
      vertex 2 13 0
      vertex 1.7 -5 0
    endloop
  endfacet
  facet normal 0 0 -1
    outer loop
      vertex 1.7 -5 0
      vertex 2 13 0
      vertex 2.00557 -4.05954 0
    endloop
  endfacet
  facet normal 0 0 -1
    outer loop
      vertex 23 32.7 0
      vertex 25 51 0
      vertex 25 32.7 0
    endloop
  endfacet
  facet normal -0 0 -1
    outer loop
      vertex 25 51 0
      vertex 23 32.7 0
      vertex 23 51 0
    endloop
  endfacet
  facet normal 0 0 -1
    outer loop
      vertex 23 16 0
      vertex 25 29.7 0
      vertex 25 16 0
    endloop
  endfacet
  facet normal -0 0 -1
    outer loop
      vertex 25 29.7 0
      vertex 23 16 0
      vertex 23 29.7 0
    endloop
  endfacet
  facet normal 0 0 -1
    outer loop
      vertex 25 16 0
      vertex 27 -10 0
      vertex 25 13 0
    endloop
  endfacet
  facet normal 0 0 -1
    outer loop
      vertex 27 -10 0
      vertex 24.9 -5 0
      vertex 25 13 0
    endloop
  endfacet
  facet normal 0 0 -1
    outer loop
      vertex 27 -10 0
      vertex 24.5944 -5.94046 0
      vertex 24.9 -5 0
    endloop
  endfacet
  facet normal 0 0 -1
    outer loop
      vertex 27 -10 0
      vertex 23.7944 -6.52169 0
      vertex 24.5944 -5.94046 0
    endloop
  endfacet
  facet normal 0 0 -1
    outer loop
      vertex 27 -10 0
      vertex 22.8056 -6.52169 0
      vertex 23.7944 -6.52169 0
    endloop
  endfacet
  facet normal 0 0 -1
    outer loop
      vertex 0 -10 0
      vertex 22.8056 -6.52169 0
      vertex 27 -10 0
    endloop
  endfacet
  facet normal 0 0 -1
    outer loop
      vertex 22.0056 -5.94046 0
      vertex 4.9 -5 0
      vertex 21.7 -5 0
    endloop
  endfacet
  facet normal 0 -0 -1
    outer loop
      vertex 3.79443 -6.52169 0
      vertex 22.8056 -6.52169 0
      vertex 0 -10 0
    endloop
  endfacet
  facet normal 0 0 -1
    outer loop
      vertex 22.0056 -5.94046 0
      vertex 4.59443 -5.94046 0
      vertex 4.9 -5 0
    endloop
  endfacet
  facet normal -0 0 -1
    outer loop
      vertex 22.0056 -5.94046 0
      vertex 3.79443 -6.52169 0
      vertex 4.59443 -5.94046 0
    endloop
  endfacet
  facet normal 0 0 -1
    outer loop
      vertex 22.8056 -6.52169 0
      vertex 3.79443 -6.52169 0
      vertex 22.0056 -5.94046 0
    endloop
  endfacet
  facet normal -0 0 -1
    outer loop
      vertex 2.00557 -5.94046 0
      vertex 0 -10 0
      vertex 1.7 -5 0
    endloop
  endfacet
  facet normal -0 0 -1
    outer loop
      vertex 2.80557 -6.52169 0
      vertex 0 -10 0
      vertex 2.00557 -5.94046 0
    endloop
  endfacet
  facet normal -0 0 -1
    outer loop
      vertex 3.79443 -6.52169 0
      vertex 0 -10 0
      vertex 2.80557 -6.52169 0
    endloop
  endfacet
  facet normal 0 0 -1
    outer loop
      vertex 25 29.7 0
      vertex 27 -10 0
      vertex 25 16 0
    endloop
  endfacet
  facet normal 0 0 -1
    outer loop
      vertex 27 -10 0
      vertex 25 29.7 0
      vertex 27 62.4 0
    endloop
  endfacet
  facet normal 0 0 -1
    outer loop
      vertex 25 32.7 0
      vertex 27 62.4 0
      vertex 25 29.7 0
    endloop
  endfacet
  facet normal 0 0 -1
    outer loop
      vertex 25 51 0
      vertex 27 62.4 0
      vertex 25 32.7 0
    endloop
  endfacet
  facet normal 0 0 -1
    outer loop
      vertex 25 54 0
      vertex 27 62.4 0
      vertex 25 51 0
    endloop
  endfacet
  facet normal 0 0 -1
    outer loop
      vertex 23 54 0
      vertex 27 62.4 0
      vertex 25 54 0
    endloop
  endfacet
  facet normal 0 0 -1
    outer loop
      vertex 4 32.7 0
      vertex 23 32.7 0
      vertex 4 29.7 0
    endloop
  endfacet
  facet normal 0 0 -1
    outer loop
      vertex 4.59443 -4.05954 0
      vertex 22.0056 -4.05954 0
      vertex 21.7 -5 0
    endloop
  endfacet
  facet normal 0 0 -1
    outer loop
      vertex 4.59443 -4.05954 0
      vertex 21.7 -5 0
      vertex 4.9 -5 0
    endloop
  endfacet
  facet normal 0 0 -1
    outer loop
      vertex 22.0056 -4.05954 0
      vertex 4.59443 -4.05954 0
      vertex 4 13 0
    endloop
  endfacet
  facet normal 0 0 -1
    outer loop
      vertex 22.0056 -4.05954 0
      vertex 4 13 0
      vertex 4 16 0
    endloop
  endfacet
  facet normal 0 0 -1
    outer loop
      vertex 22.0056 -4.05954 0
      vertex 4 16 0
      vertex 4 29.7 0
    endloop
  endfacet
  facet normal 0 0 -1
    outer loop
      vertex 23 32.7 0
      vertex 4 32.7 0
      vertex 23 51 0
    endloop
  endfacet
  facet normal 0 0 -1
    outer loop
      vertex 4 51 0
      vertex 23 51 0
      vertex 4 32.7 0
    endloop
  endfacet
  facet normal 0 0 -1
    outer loop
      vertex 23 51 0
      vertex 4 51 0
      vertex 23 54 0
    endloop
  endfacet
  facet normal 0 0 -1
    outer loop
      vertex 4 54 0
      vertex 23 54 0
      vertex 4 51 0
    endloop
  endfacet
  facet normal 0 0 -1
    outer loop
      vertex 23 54 0
      vertex 4 54 0
      vertex 27 62.4 0
    endloop
  endfacet
  facet normal 0 0 -1
    outer loop
      vertex 0 62.4 0
      vertex 4 54 0
      vertex 2 54 0
    endloop
  endfacet
  facet normal 0 0 -1
    outer loop
      vertex 2 29.7 0
      vertex 0 62.4 0
      vertex 2 32.7 0
    endloop
  endfacet
  facet normal 0 0 -1
    outer loop
      vertex 4 54 0
      vertex 0 62.4 0
      vertex 27 62.4 0
    endloop
  endfacet
  facet normal 0 0 -1
    outer loop
      vertex 2 51 0
      vertex 0 62.4 0
      vertex 2 54 0
    endloop
  endfacet
  facet normal 0 0 -1
    outer loop
      vertex 24.5944 -4.05954 0
      vertex 25 13 0
      vertex 24.9 -5 0
    endloop
  endfacet
  facet normal 0 0 -1
    outer loop
      vertex 23.7944 -3.47831 0
      vertex 25 13 0
      vertex 24.5944 -4.05954 0
    endloop
  endfacet
  facet normal 0 0 -1
    outer loop
      vertex 23.7944 -3.47831 0
      vertex 23 13 0
      vertex 25 13 0
    endloop
  endfacet
  facet normal 0 0 -1
    outer loop
      vertex 4 29.7 0
      vertex 23 13 0
      vertex 22.0056 -4.05954 0
    endloop
  endfacet
  facet normal 0 0 -1
    outer loop
      vertex 23 13 0
      vertex 4 29.7 0
      vertex 23 16 0
    endloop
  endfacet
  facet normal 0 0 -1
    outer loop
      vertex 23 16 0
      vertex 4 29.7 0
      vertex 23 29.7 0
    endloop
  endfacet
  facet normal 0 0 -1
    outer loop
      vertex 23 29.7 0
      vertex 4 29.7 0
      vertex 23 32.7 0
    endloop
  endfacet
  facet normal 0 0 -1
    outer loop
      vertex 22.0056 -4.05954 0
      vertex 23 13 0
      vertex 22.8056 -3.47831 0
    endloop
  endfacet
  facet normal 0 0 -1
    outer loop
      vertex 22.8056 -3.47831 0
      vertex 23 13 0
      vertex 23.7944 -3.47831 0
    endloop
  endfacet
  facet normal 0 -1 0
    outer loop
      vertex 0 0 9.9
      vertex 6 0 7.9
      vertex 27 0 9.9
    endloop
  endfacet
  facet normal 0 -1 0
    outer loop
      vertex 0 0 2
      vertex 6 0 7.9
      vertex 0 0 9.9
    endloop
  endfacet
  facet normal 0 -1 -0
    outer loop
      vertex 6 0 3.4
      vertex 0 0 2
      vertex 21 0 3.4
    endloop
  endfacet
  facet normal 0 -1 -0
    outer loop
      vertex 6 0 7.9
      vertex 0 0 2
      vertex 6 0 3.4
    endloop
  endfacet
  facet normal 0 -1 0
    outer loop
      vertex 21 0 7.9
      vertex 27 0 9.9
      vertex 6 0 7.9
    endloop
  endfacet
  facet normal 0 -1 0
    outer loop
      vertex 27 0 2
      vertex 21 0 7.9
      vertex 21 0 3.4
    endloop
  endfacet
  facet normal 0 -1 0
    outer loop
      vertex 21 0 7.9
      vertex 27 0 2
      vertex 27 0 9.9
    endloop
  endfacet
  facet normal 0 -1 0
    outer loop
      vertex 27 0 2
      vertex 21 0 3.4
      vertex 0 0 2
    endloop
  endfacet
  facet normal 1 0 0
    outer loop
      vertex 4 13 7.9
      vertex 4 11.5 3.4
      vertex 4 13 2
    endloop
  endfacet
  facet normal 1 -0 0
    outer loop
      vertex 4 4 7.9
      vertex 4 11.5 3.4
      vertex 4 13 7.9
    endloop
  endfacet
  facet normal 1 0 0
    outer loop
      vertex 4 11.5 3.4
      vertex 4 4 7.9
      vertex 4 4 3.4
    endloop
  endfacet
  facet normal 1 0 0
    outer loop
      vertex 4 13 2
      vertex 4 11.5 3.4
      vertex 4 11.5 2
    endloop
  endfacet
  facet normal 1 -0 0
    outer loop
      vertex 4 54 7.9
      vertex 4 58.4 3.4
      vertex 4 58.4 7.9
    endloop
  endfacet
  facet normal 1 0 0
    outer loop
      vertex 4 58.4 3.4
      vertex 4 54 7.9
      vertex 4 54 3.4
    endloop
  endfacet
  facet normal 1 0 0
    outer loop
      vertex 4 51 7.9
      vertex 4 41.5 3.4
      vertex 4 51 3.4
    endloop
  endfacet
  facet normal 1 -0 0
    outer loop
      vertex 4 32.7 7.9
      vertex 4 41.5 3.4
      vertex 4 51 7.9
    endloop
  endfacet
  facet normal 1 0 0
    outer loop
      vertex 4 32.7 2
      vertex 4 41.5 3.4
      vertex 4 32.7 7.9
    endloop
  endfacet
  facet normal 1 0 0
    outer loop
      vertex 4 41.5 3.4
      vertex 4 32.7 2
      vertex 4 41.5 2
    endloop
  endfacet
  facet normal 1 -0 0
    outer loop
      vertex 4 16 7.9
      vertex 4 29.7 2
      vertex 4 29.7 7.9
    endloop
  endfacet
  facet normal 1 0 0
    outer loop
      vertex 4 29.7 2
      vertex 4 16 7.9
      vertex 4 16 2
    endloop
  endfacet
  facet normal -1 0 0
    outer loop
      vertex 4 29.7 0
      vertex 4 32.7 2
      vertex 4 32.7 0
    endloop
  endfacet
  facet normal -1 -0 0
    outer loop
      vertex 4 32.7 2
      vertex 4 29.7 0
      vertex 4 29.7 2
    endloop
  endfacet
  facet normal -1 0 0
    outer loop
      vertex 4 13 0
      vertex 4 16 2
      vertex 4 16 0
    endloop
  endfacet
  facet normal -1 -0 0
    outer loop
      vertex 4 16 2
      vertex 4 13 0
      vertex 4 13 2
    endloop
  endfacet
  facet normal -1 0 0
    outer loop
      vertex 4 51 0
      vertex 4 54 3.4
      vertex 4 54 0
    endloop
  endfacet
  facet normal -1 -0 0
    outer loop
      vertex 4 54 3.4
      vertex 4 51 0
      vertex 4 51 3.4
    endloop
  endfacet
  facet normal -1 0 0
    outer loop
      vertex 23 11.5 3.4
      vertex 23 13 2
      vertex 23 11.5 2
    endloop
  endfacet
  facet normal -1 0 0
    outer loop
      vertex 23 13 2
      vertex 23 11.5 3.4
      vertex 23 13 7.9
    endloop
  endfacet
  facet normal -1 0 0
    outer loop
      vertex 23 4 7.9
      vertex 23 11.5 3.4
      vertex 23 4 3.4
    endloop
  endfacet
  facet normal -1 0 0
    outer loop
      vertex 23 11.5 3.4
      vertex 23 4 7.9
      vertex 23 13 7.9
    endloop
  endfacet
  facet normal -1 0 0
    outer loop
      vertex 23 54 3.4
      vertex 23 58.4 7.9
      vertex 23 58.4 3.4
    endloop
  endfacet
  facet normal -1 -0 0
    outer loop
      vertex 23 58.4 7.9
      vertex 23 54 3.4
      vertex 23 54 7.9
    endloop
  endfacet
  facet normal -1 0 0
    outer loop
      vertex 23 41.5 2
      vertex 23 32.7 2
      vertex 23 41.5 3.4
    endloop
  endfacet
  facet normal -1 0 0
    outer loop
      vertex 23 41.5 3.4
      vertex 23 51 7.9
      vertex 23 51 3.4
    endloop
  endfacet
  facet normal -1 0 0
    outer loop
      vertex 23 32.7 7.9
      vertex 23 41.5 3.4
      vertex 23 32.7 2
    endloop
  endfacet
  facet normal -1 0 0
    outer loop
      vertex 23 41.5 3.4
      vertex 23 32.7 7.9
      vertex 23 51 7.9
    endloop
  endfacet
  facet normal -1 0 0
    outer loop
      vertex 23 16 2
      vertex 23 29.7 7.9
      vertex 23 29.7 2
    endloop
  endfacet
  facet normal -1 -0 0
    outer loop
      vertex 23 29.7 7.9
      vertex 23 16 2
      vertex 23 16 7.9
    endloop
  endfacet
  facet normal 1 -0 0
    outer loop
      vertex 23 29.7 2
      vertex 23 32.7 0
      vertex 23 32.7 2
    endloop
  endfacet
  facet normal 1 0 0
    outer loop
      vertex 23 32.7 0
      vertex 23 29.7 2
      vertex 23 29.7 0
    endloop
  endfacet
  facet normal 1 -0 0
    outer loop
      vertex 23 13 2
      vertex 23 16 0
      vertex 23 16 2
    endloop
  endfacet
  facet normal 1 0 0
    outer loop
      vertex 23 16 0
      vertex 23 13 2
      vertex 23 13 0
    endloop
  endfacet
  facet normal 1 -0 0
    outer loop
      vertex 23 51 3.4
      vertex 23 54 0
      vertex 23 54 3.4
    endloop
  endfacet
  facet normal 1 0 0
    outer loop
      vertex 23 54 0
      vertex 23 51 3.4
      vertex 23 51 0
    endloop
  endfacet
  facet normal 0 -1 0
    outer loop
      vertex 4 41.5 2
      vertex 23 41.5 3.4
      vertex 4 41.5 3.4
    endloop
  endfacet
  facet normal 0 -1 -0
    outer loop
      vertex 23 41.5 3.4
      vertex 4 41.5 2
      vertex 23 41.5 2
    endloop
  endfacet
  facet normal 0 0 1
    outer loop
      vertex 4 32.7 2
      vertex 23 32.7 2
      vertex 23 41.5 2
    endloop
  endfacet
  facet normal 0 0 1
    outer loop
      vertex 23 32.7 2
      vertex 4 32.7 2
      vertex 23 29.7 2
    endloop
  endfacet
  facet normal 0 0 1
    outer loop
      vertex 23 29.7 2
      vertex 4 29.7 2
      vertex 23 16 2
    endloop
  endfacet
  facet normal 0 0 1
    outer loop
      vertex 4 16 2
      vertex 23 16 2
      vertex 4 29.7 2
    endloop
  endfacet
  facet normal 0 0 1
    outer loop
      vertex 4 32.7 2
      vertex 23 41.5 2
      vertex 4 41.5 2
    endloop
  endfacet
  facet normal 0 0 1
    outer loop
      vertex 23 29.7 2
      vertex 4 32.7 2
      vertex 4 29.7 2
    endloop
  endfacet
  facet normal 0 0 1
    outer loop
      vertex 23 16 2
      vertex 4 16 2
      vertex 23 13 2
    endloop
  endfacet
  facet normal 0 0 1
    outer loop
      vertex 4 13 2
      vertex 23 13 2
      vertex 4 16 2
    endloop
  endfacet
  facet normal 0 0 1
    outer loop
      vertex 23 13 2
      vertex 4 13 2
      vertex 23 11.5 2
    endloop
  endfacet
  facet normal 0 0 1
    outer loop
      vertex 23 11.5 2
      vertex 4 13 2
      vertex 4 11.5 2
    endloop
  endfacet
  facet normal 0 1 -0
    outer loop
      vertex 23 11.5 2
      vertex 4 11.5 3.4
      vertex 23 11.5 3.4
    endloop
  endfacet
  facet normal 0 1 0
    outer loop
      vertex 4 11.5 3.4
      vertex 23 11.5 2
      vertex 4 11.5 2
    endloop
  endfacet
  facet normal 1 -0 0
    outer loop
      vertex 2 2 9.9
      vertex 2 13 7.9
      vertex 2 13 9.9
    endloop
  endfacet
  facet normal 1 0 0
    outer loop
      vertex 2 13 7.9
      vertex 2 2 9.9
      vertex 2 2 7.9
    endloop
  endfacet
  facet normal 1 -0 0
    outer loop
      vertex 2 54 9.9
      vertex 2 60.4 7.9
      vertex 2 60.4 9.9
    endloop
  endfacet
  facet normal 1 0 0
    outer loop
      vertex 2 60.4 7.9
      vertex 2 54 9.9
      vertex 2 54 7.9
    endloop
  endfacet
  facet normal 1 -0 0
    outer loop
      vertex 2 16 9.9
      vertex 2 29.7 7.9
      vertex 2 29.7 9.9
    endloop
  endfacet
  facet normal 1 0 0
    outer loop
      vertex 2 29.7 7.9
      vertex 2 16 9.9
      vertex 2 16 7.9
    endloop
  endfacet
  facet normal 1 0 0
    outer loop
      vertex 2 29.7 7.9
      vertex 2 32.7 7.9
      vertex 2 32.7 9.9
    endloop
  endfacet
  facet normal 1 0 0
    outer loop
      vertex 2 29.7 7.9
      vertex 2 32.7 9.9
      vertex 2 29.7 9.9
    endloop
  endfacet
  facet normal 1 0 0
    outer loop
      vertex 2 32.7 7.9
      vertex 2 29.7 7.9
      vertex 2 32.7 0
    endloop
  endfacet
  facet normal 1 0 0
    outer loop
      vertex 2 32.7 0
      vertex 2 29.7 7.9
      vertex 2 29.7 0
    endloop
  endfacet
  facet normal 1 -0 0
    outer loop
      vertex 2 32.7 9.9
      vertex 2 51 7.9
      vertex 2 51 9.9
    endloop
  endfacet
  facet normal 1 0 0
    outer loop
      vertex 2 51 7.9
      vertex 2 32.7 9.9
      vertex 2 32.7 7.9
    endloop
  endfacet
  facet normal 1 0 0
    outer loop
      vertex 2 13 7.9
      vertex 2 16 7.9
      vertex 2 16 9.9
    endloop
  endfacet
  facet normal 1 0 0
    outer loop
      vertex 2 13 7.9
      vertex 2 16 9.9
      vertex 2 13 9.9
    endloop
  endfacet
  facet normal 1 0 0
    outer loop
      vertex 2 16 7.9
      vertex 2 13 7.9
      vertex 2 16 0
    endloop
  endfacet
  facet normal 1 0 0
    outer loop
      vertex 2 16 0
      vertex 2 13 7.9
      vertex 2 13 0
    endloop
  endfacet
  facet normal 1 0 0
    outer loop
      vertex 2 51 7.9
      vertex 2 54 7.9
      vertex 2 54 9.9
    endloop
  endfacet
  facet normal 1 0 0
    outer loop
      vertex 2 51 7.9
      vertex 2 54 9.9
      vertex 2 51 9.9
    endloop
  endfacet
  facet normal 1 0 0
    outer loop
      vertex 2 54 7.9
      vertex 2 51 7.9
      vertex 2 54 0
    endloop
  endfacet
  facet normal 1 0 0
    outer loop
      vertex 2 54 0
      vertex 2 51 7.9
      vertex 2 51 0
    endloop
  endfacet
  facet normal 0 0 1
    outer loop
      vertex 23 4 7.9
      vertex 25 13 7.9
      vertex 23 13 7.9
    endloop
  endfacet
  facet normal 0 0 1
    outer loop
      vertex 25 13 7.9
      vertex 23 4 7.9
      vertex 25 2 7.9
    endloop
  endfacet
  facet normal 0 0 1
    outer loop
      vertex 21 2 7.9
      vertex 23 4 7.9
      vertex 21 4 7.9
    endloop
  endfacet
  facet normal 0 0 1
    outer loop
      vertex 23 4 7.9
      vertex 21 2 7.9
      vertex 25 2 7.9
    endloop
  endfacet
  facet normal 0 0 1
    outer loop
      vertex 25 60.4 7.9
      vertex 23 58.4 7.9
      vertex 25 54 7.9
    endloop
  endfacet
  facet normal 0 0 1
    outer loop
      vertex 25 60.4 7.9
      vertex 4 58.4 7.9
      vertex 23 58.4 7.9
    endloop
  endfacet
  facet normal -0 0 1
    outer loop
      vertex 2 60.4 7.9
      vertex 4 58.4 7.9
      vertex 25 60.4 7.9
    endloop
  endfacet
  facet normal 0 0 1
    outer loop
      vertex 2 54 7.9
      vertex 4 58.4 7.9
      vertex 2 60.4 7.9
    endloop
  endfacet
  facet normal 0 0 1
    outer loop
      vertex 4 58.4 7.9
      vertex 2 54 7.9
      vertex 4 54 7.9
    endloop
  endfacet
  facet normal 0 0 1
    outer loop
      vertex 25 54 7.9
      vertex 23 58.4 7.9
      vertex 23 54 7.9
    endloop
  endfacet
  facet normal 0 0 1
    outer loop
      vertex 4 13 7.9
      vertex 2 13 7.9
      vertex 4 4 7.9
    endloop
  endfacet
  facet normal -0 0 1
    outer loop
      vertex 4 4 7.9
      vertex 6 2 7.9
      vertex 6 4 7.9
    endloop
  endfacet
  facet normal 0 0 1
    outer loop
      vertex 4 4 7.9
      vertex 2 2 7.9
      vertex 6 2 7.9
    endloop
  endfacet
  facet normal 0 0 1
    outer loop
      vertex 2 2 7.9
      vertex 4 4 7.9
      vertex 2 13 7.9
    endloop
  endfacet
  facet normal 0 0 -1
    outer loop
      vertex 6 0 7.9
      vertex 21 2 7.9
      vertex 21 0 7.9
    endloop
  endfacet
  facet normal -0 0 -1
    outer loop
      vertex 21 2 7.9
      vertex 6 0 7.9
      vertex 6 2 7.9
    endloop
  endfacet
  facet normal -0 0 1
    outer loop
      vertex 2 29.7 7.9
      vertex 4 16 7.9
      vertex 4 29.7 7.9
    endloop
  endfacet
  facet normal 0 0 1
    outer loop
      vertex 4 16 7.9
      vertex 2 29.7 7.9
      vertex 2 16 7.9
    endloop
  endfacet
  facet normal -0 0 1
    outer loop
      vertex 2 51 7.9
      vertex 4 32.7 7.9
      vertex 4 51 7.9
    endloop
  endfacet
  facet normal 0 0 1
    outer loop
      vertex 4 32.7 7.9
      vertex 2 51 7.9
      vertex 2 32.7 7.9
    endloop
  endfacet
  facet normal -0 0 1
    outer loop
      vertex 23 29.7 7.9
      vertex 25 16 7.9
      vertex 25 29.7 7.9
    endloop
  endfacet
  facet normal 0 0 1
    outer loop
      vertex 25 16 7.9
      vertex 23 29.7 7.9
      vertex 23 16 7.9
    endloop
  endfacet
  facet normal -0 0 1
    outer loop
      vertex 23 51 7.9
      vertex 25 32.7 7.9
      vertex 25 51 7.9
    endloop
  endfacet
  facet normal 0 0 1
    outer loop
      vertex 25 32.7 7.9
      vertex 23 51 7.9
      vertex 23 32.7 7.9
    endloop
  endfacet
  facet normal -1 0 0
    outer loop
      vertex 25 2 7.9
      vertex 25 13 9.9
      vertex 25 13 7.9
    endloop
  endfacet
  facet normal -1 -0 0
    outer loop
      vertex 25 13 9.9
      vertex 25 2 7.9
      vertex 25 2 9.9
    endloop
  endfacet
  facet normal -1 0 0
    outer loop
      vertex 25 54 7.9
      vertex 25 60.4 9.9
      vertex 25 60.4 7.9
    endloop
  endfacet
  facet normal -1 -0 0
    outer loop
      vertex 25 60.4 9.9
      vertex 25 54 7.9
      vertex 25 54 9.9
    endloop
  endfacet
  facet normal -1 0 0
    outer loop
      vertex 25 16 7.9
      vertex 25 29.7 9.9
      vertex 25 29.7 7.9
    endloop
  endfacet
  facet normal -1 -0 0
    outer loop
      vertex 25 29.7 9.9
      vertex 25 16 7.9
      vertex 25 16 9.9
    endloop
  endfacet
  facet normal -1 0 0
    outer loop
      vertex 25 29.7 7.9
      vertex 25 32.7 7.9
      vertex 25 32.7 0
    endloop
  endfacet
  facet normal -1 0 0
    outer loop
      vertex 25 29.7 7.9
      vertex 25 32.7 0
      vertex 25 29.7 0
    endloop
  endfacet
  facet normal -1 0 0
    outer loop
      vertex 25 32.7 7.9
      vertex 25 29.7 7.9
      vertex 25 32.7 9.9
    endloop
  endfacet
  facet normal -1 -0 0
    outer loop
      vertex 25 32.7 9.9
      vertex 25 29.7 7.9
      vertex 25 29.7 9.9
    endloop
  endfacet
  facet normal -1 0 0
    outer loop
      vertex 25 32.7 7.9
      vertex 25 51 9.9
      vertex 25 51 7.9
    endloop
  endfacet
  facet normal -1 -0 0
    outer loop
      vertex 25 51 9.9
      vertex 25 32.7 7.9
      vertex 25 32.7 9.9
    endloop
  endfacet
  facet normal -1 0 0
    outer loop
      vertex 25 13 7.9
      vertex 25 16 7.9
      vertex 25 16 0
    endloop
  endfacet
  facet normal -1 0 0
    outer loop
      vertex 25 13 7.9
      vertex 25 16 0
      vertex 25 13 0
    endloop
  endfacet
  facet normal -1 0 0
    outer loop
      vertex 25 16 7.9
      vertex 25 13 7.9
      vertex 25 16 9.9
    endloop
  endfacet
  facet normal -1 -0 0
    outer loop
      vertex 25 16 9.9
      vertex 25 13 7.9
      vertex 25 13 9.9
    endloop
  endfacet
  facet normal -1 0 0
    outer loop
      vertex 25 51 7.9
      vertex 25 54 7.9
      vertex 25 54 0
    endloop
  endfacet
  facet normal -1 0 0
    outer loop
      vertex 25 51 7.9
      vertex 25 54 0
      vertex 25 51 0
    endloop
  endfacet
  facet normal -1 0 0
    outer loop
      vertex 25 54 7.9
      vertex 25 51 7.9
      vertex 25 54 9.9
    endloop
  endfacet
  facet normal -1 -0 0
    outer loop
      vertex 25 54 9.9
      vertex 25 51 7.9
      vertex 25 51 9.9
    endloop
  endfacet
  facet normal 0 1 0
    outer loop
      vertex 21 2 7.9
      vertex 25 2 9.9
      vertex 25 2 7.9
    endloop
  endfacet
  facet normal 0 1 0
    outer loop
      vertex 25 2 9.9
      vertex 21 2 7.9
      vertex 2 2 9.9
    endloop
  endfacet
  facet normal 0 1 -0
    outer loop
      vertex 6 2 7.9
      vertex 2 2 9.9
      vertex 21 2 7.9
    endloop
  endfacet
  facet normal 0 1 0
    outer loop
      vertex 2 2 9.9
      vertex 6 2 7.9
      vertex 2 2 7.9
    endloop
  endfacet
  facet normal 0 1 -0
    outer loop
      vertex 23 4 3.4
      vertex 21 4 7.9
      vertex 23 4 7.9
    endloop
  endfacet
  facet normal 0 1 0
    outer loop
      vertex 21 4 7.9
      vertex 23 4 3.4
      vertex 21 4 3.4
    endloop
  endfacet
  facet normal 0 1 -0
    outer loop
      vertex 6 4 3.4
      vertex 4 4 7.9
      vertex 6 4 7.9
    endloop
  endfacet
  facet normal 0 1 0
    outer loop
      vertex 4 4 7.9
      vertex 6 4 3.4
      vertex 4 4 3.4
    endloop
  endfacet
  facet normal 0 -1 0
    outer loop
      vertex 2 60.4 7.9
      vertex 25 60.4 9.9
      vertex 2 60.4 9.9
    endloop
  endfacet
  facet normal 0 -1 -0
    outer loop
      vertex 25 60.4 9.9
      vertex 2 60.4 7.9
      vertex 25 60.4 7.9
    endloop
  endfacet
  facet normal 0 -1 0
    outer loop
      vertex 4 58.4 3.4
      vertex 23 58.4 7.9
      vertex 4 58.4 7.9
    endloop
  endfacet
  facet normal 0 -1 -0
    outer loop
      vertex 23 58.4 7.9
      vertex 4 58.4 3.4
      vertex 23 58.4 3.4
    endloop
  endfacet
  facet normal 0 0 1
    outer loop
      vertex 25 54 9.9
      vertex 27 62.4 9.9
      vertex 25 60.4 9.9
    endloop
  endfacet
  facet normal 0 0 1
    outer loop
      vertex 27 62.4 9.9
      vertex 2 60.4 9.9
      vertex 25 60.4 9.9
    endloop
  endfacet
  facet normal 0 0 1
    outer loop
      vertex 0 62.4 9.9
      vertex 2 54 9.9
      vertex 2 60.4 9.9
    endloop
  endfacet
  facet normal 0 0 1
    outer loop
      vertex 2 54 9.9
      vertex 0 62.4 9.9
      vertex 2 51 9.9
    endloop
  endfacet
  facet normal 0 0 1
    outer loop
      vertex 2 51 9.9
      vertex 0 62.4 9.9
      vertex 2 32.7 9.9
    endloop
  endfacet
  facet normal 0 0 1
    outer loop
      vertex 2 32.7 9.9
      vertex 0 62.4 9.9
      vertex 2 29.7 9.9
    endloop
  endfacet
  facet normal 0 0 1
    outer loop
      vertex 0 0 9.9
      vertex 2 29.7 9.9
      vertex 0 62.4 9.9
    endloop
  endfacet
  facet normal 0 0 1
    outer loop
      vertex 2 29.7 9.9
      vertex 0 0 9.9
      vertex 2 16 9.9
    endloop
  endfacet
  facet normal 0 0 1
    outer loop
      vertex 2 16 9.9
      vertex 0 0 9.9
      vertex 2 13 9.9
    endloop
  endfacet
  facet normal -0 0 1
    outer loop
      vertex 0 62.4 9.9
      vertex 2 60.4 9.9
      vertex 27 62.4 9.9
    endloop
  endfacet
  facet normal 0 0 1
    outer loop
      vertex 25 51 9.9
      vertex 27 62.4 9.9
      vertex 25 54 9.9
    endloop
  endfacet
  facet normal 0 0 1
    outer loop
      vertex 25 32.7 9.9
      vertex 27 62.4 9.9
      vertex 25 51 9.9
    endloop
  endfacet
  facet normal 0 0 1
    outer loop
      vertex 27 62.4 9.9
      vertex 25 32.7 9.9
      vertex 27 0 9.9
    endloop
  endfacet
  facet normal -0 0 1
    outer loop
      vertex 25 29.7 9.9
      vertex 27 0 9.9
      vertex 25 32.7 9.9
    endloop
  endfacet
  facet normal -0 0 1
    outer loop
      vertex 25 16 9.9
      vertex 27 0 9.9
      vertex 25 29.7 9.9
    endloop
  endfacet
  facet normal -0 0 1
    outer loop
      vertex 25 13 9.9
      vertex 27 0 9.9
      vertex 25 16 9.9
    endloop
  endfacet
  facet normal -0 0 1
    outer loop
      vertex 25 2 9.9
      vertex 27 0 9.9
      vertex 25 13 9.9
    endloop
  endfacet
  facet normal -0 0 1
    outer loop
      vertex 2 2 9.9
      vertex 27 0 9.9
      vertex 25 2 9.9
    endloop
  endfacet
  facet normal 0 0 1
    outer loop
      vertex 2 2 9.9
      vertex 0 0 9.9
      vertex 27 0 9.9
    endloop
  endfacet
  facet normal 0 0 1
    outer loop
      vertex 2 13 9.9
      vertex 0 0 9.9
      vertex 2 2 9.9
    endloop
  endfacet
  facet normal 1 -0 0
    outer loop
      vertex 6 2 7.9
      vertex 6 4 3.4
      vertex 6 4 7.9
    endloop
  endfacet
  facet normal 1 0 0
    outer loop
      vertex 6 0 3.4
      vertex 6 2 7.9
      vertex 6 0 7.9
    endloop
  endfacet
  facet normal 1 0 0
    outer loop
      vertex 6 2 7.9
      vertex 6 0 3.4
      vertex 6 4 3.4
    endloop
  endfacet
  facet normal -1 0 0
    outer loop
      vertex 21 4 3.4
      vertex 21 2 7.9
      vertex 21 4 7.9
    endloop
  endfacet
  facet normal -1 0 0
    outer loop
      vertex 21 0 3.4
      vertex 21 2 7.9
      vertex 21 4 3.4
    endloop
  endfacet
  facet normal -1 -0 0
    outer loop
      vertex 21 2 7.9
      vertex 21 0 3.4
      vertex 21 0 7.9
    endloop
  endfacet
  facet normal 0 1 -0
    outer loop
      vertex 4 29.7 2
      vertex 2 29.7 7.9
      vertex 4 29.7 7.9
    endloop
  endfacet
  facet normal 0 1 0
    outer loop
      vertex 2 29.7 0
      vertex 4 29.7 2
      vertex 4 29.7 0
    endloop
  endfacet
  facet normal 0 1 0
    outer loop
      vertex 4 29.7 2
      vertex 2 29.7 0
      vertex 2 29.7 7.9
    endloop
  endfacet
  facet normal 0 -1 0
    outer loop
      vertex 2 32.7 7.9
      vertex 4 32.7 2
      vertex 4 32.7 7.9
    endloop
  endfacet
  facet normal 0 -1 0
    outer loop
      vertex 2 32.7 0
      vertex 4 32.7 2
      vertex 2 32.7 7.9
    endloop
  endfacet
  facet normal 0 -1 -0
    outer loop
      vertex 4 32.7 2
      vertex 2 32.7 0
      vertex 4 32.7 0
    endloop
  endfacet
  facet normal 0 1 0
    outer loop
      vertex 25 29.7 7.9
      vertex 23 29.7 2
      vertex 23 29.7 7.9
    endloop
  endfacet
  facet normal 0 1 -0
    outer loop
      vertex 25 29.7 0
      vertex 23 29.7 2
      vertex 25 29.7 7.9
    endloop
  endfacet
  facet normal 0 1 0
    outer loop
      vertex 23 29.7 2
      vertex 25 29.7 0
      vertex 23 29.7 0
    endloop
  endfacet
  facet normal 0 -1 0
    outer loop
      vertex 23 32.7 2
      vertex 25 32.7 7.9
      vertex 23 32.7 7.9
    endloop
  endfacet
  facet normal 0 -1 0
    outer loop
      vertex 25 32.7 0
      vertex 23 32.7 2
      vertex 23 32.7 0
    endloop
  endfacet
  facet normal 0 -1 0
    outer loop
      vertex 23 32.7 2
      vertex 25 32.7 0
      vertex 25 32.7 7.9
    endloop
  endfacet
  facet normal 0 -1 0
    outer loop
      vertex 2 16 7.9
      vertex 4 16 2
      vertex 4 16 7.9
    endloop
  endfacet
  facet normal 0 -1 0
    outer loop
      vertex 2 16 0
      vertex 4 16 2
      vertex 2 16 7.9
    endloop
  endfacet
  facet normal 0 -1 -0
    outer loop
      vertex 4 16 2
      vertex 2 16 0
      vertex 4 16 0
    endloop
  endfacet
  facet normal 0 1 -0
    outer loop
      vertex 4 13 2
      vertex 2 13 7.9
      vertex 4 13 7.9
    endloop
  endfacet
  facet normal 0 1 0
    outer loop
      vertex 2 13 0
      vertex 4 13 2
      vertex 4 13 0
    endloop
  endfacet
  facet normal 0 1 0
    outer loop
      vertex 4 13 2
      vertex 2 13 0
      vertex 2 13 7.9
    endloop
  endfacet
  facet normal 0 1 0
    outer loop
      vertex 25 13 7.9
      vertex 23 13 2
      vertex 23 13 7.9
    endloop
  endfacet
  facet normal 0 1 -0
    outer loop
      vertex 25 13 0
      vertex 23 13 2
      vertex 25 13 7.9
    endloop
  endfacet
  facet normal 0 1 0
    outer loop
      vertex 23 13 2
      vertex 25 13 0
      vertex 23 13 0
    endloop
  endfacet
  facet normal 0 -1 0
    outer loop
      vertex 23 16 2
      vertex 25 16 7.9
      vertex 23 16 7.9
    endloop
  endfacet
  facet normal 0 -1 0
    outer loop
      vertex 25 16 0
      vertex 23 16 2
      vertex 23 16 0
    endloop
  endfacet
  facet normal 0 -1 0
    outer loop
      vertex 23 16 2
      vertex 25 16 0
      vertex 25 16 7.9
    endloop
  endfacet
  facet normal 0 -1 0
    outer loop
      vertex 2 54 7.9
      vertex 4 54 3.4
      vertex 4 54 7.9
    endloop
  endfacet
  facet normal 0 -1 0
    outer loop
      vertex 2 54 0
      vertex 4 54 3.4
      vertex 2 54 7.9
    endloop
  endfacet
  facet normal 0 -1 -0
    outer loop
      vertex 4 54 3.4
      vertex 2 54 0
      vertex 4 54 0
    endloop
  endfacet
  facet normal 0 1 -0
    outer loop
      vertex 4 51 3.4
      vertex 2 51 7.9
      vertex 4 51 7.9
    endloop
  endfacet
  facet normal 0 1 0
    outer loop
      vertex 2 51 0
      vertex 4 51 3.4
      vertex 4 51 0
    endloop
  endfacet
  facet normal 0 1 0
    outer loop
      vertex 4 51 3.4
      vertex 2 51 0
      vertex 2 51 7.9
    endloop
  endfacet
  facet normal 0 1 0
    outer loop
      vertex 25 51 7.9
      vertex 23 51 3.4
      vertex 23 51 7.9
    endloop
  endfacet
  facet normal 0 1 -0
    outer loop
      vertex 25 51 0
      vertex 23 51 3.4
      vertex 25 51 7.9
    endloop
  endfacet
  facet normal 0 1 0
    outer loop
      vertex 23 51 3.4
      vertex 25 51 0
      vertex 23 51 0
    endloop
  endfacet
  facet normal 0 -1 0
    outer loop
      vertex 23 54 3.4
      vertex 25 54 7.9
      vertex 23 54 7.9
    endloop
  endfacet
  facet normal 0 -1 0
    outer loop
      vertex 25 54 0
      vertex 23 54 3.4
      vertex 23 54 0
    endloop
  endfacet
  facet normal 0 -1 0
    outer loop
      vertex 23 54 3.4
      vertex 25 54 0
      vertex 25 54 7.9
    endloop
  endfacet
  facet normal 0 0 1
    outer loop
      vertex 27 0 2
      vertex 24.9 -5 2
      vertex 27 -10 2
    endloop
  endfacet
  facet normal 0 0 1
    outer loop
      vertex 27 0 2
      vertex 24.5944 -4.05954 2
      vertex 24.9 -5 2
    endloop
  endfacet
  facet normal 0 0 1
    outer loop
      vertex 27 0 2
      vertex 23.7944 -3.47831 2
      vertex 24.5944 -4.05954 2
    endloop
  endfacet
  facet normal 0 0 1
    outer loop
      vertex 27 0 2
      vertex 22.8056 -3.47831 2
      vertex 23.7944 -3.47831 2
    endloop
  endfacet
  facet normal -0 0 1
    outer loop
      vertex 0 0 2
      vertex 22.8056 -3.47831 2
      vertex 27 0 2
    endloop
  endfacet
  facet normal 0 0 1
    outer loop
      vertex 22.0056 -4.05954 2
      vertex 4.9 -5 2
      vertex 21.7 -5 2
    endloop
  endfacet
  facet normal 0 -0 1
    outer loop
      vertex 3.79443 -3.47831 2
      vertex 22.8056 -3.47831 2
      vertex 0 0 2
    endloop
  endfacet
  facet normal 0 0 1
    outer loop
      vertex 22.0056 -4.05954 2
      vertex 4.59443 -4.05954 2
      vertex 4.9 -5 2
    endloop
  endfacet
  facet normal 0 0 1
    outer loop
      vertex 22.0056 -4.05954 2
      vertex 3.79443 -3.47831 2
      vertex 4.59443 -4.05954 2
    endloop
  endfacet
  facet normal 0 0 1
    outer loop
      vertex 22.8056 -3.47831 2
      vertex 3.79443 -3.47831 2
      vertex 22.0056 -4.05954 2
    endloop
  endfacet
  facet normal 0 0 1
    outer loop
      vertex 2.00557 -4.05954 2
      vertex 0 0 2
      vertex 1.7 -5 2
    endloop
  endfacet
  facet normal 0 0 1
    outer loop
      vertex 2.80557 -3.47831 2
      vertex 0 0 2
      vertex 2.00557 -4.05954 2
    endloop
  endfacet
  facet normal 0 0 1
    outer loop
      vertex 3.79443 -3.47831 2
      vertex 0 0 2
      vertex 2.80557 -3.47831 2
    endloop
  endfacet
  facet normal -0 0 1
    outer loop
      vertex 24.5944 -5.94046 2
      vertex 27 -10 2
      vertex 24.9 -5 2
    endloop
  endfacet
  facet normal -0 0 1
    outer loop
      vertex 23.7944 -6.52169 2
      vertex 27 -10 2
      vertex 24.5944 -5.94046 2
    endloop
  endfacet
  facet normal -0 0 1
    outer loop
      vertex 22.8056 -6.52169 2
      vertex 27 -10 2
      vertex 23.7944 -6.52169 2
    endloop
  endfacet
  facet normal 0 0 1
    outer loop
      vertex 3.79443 -6.52169 2
      vertex 22.8056 -6.52169 2
      vertex 22.0056 -5.94046 2
    endloop
  endfacet
  facet normal -0 0 1
    outer loop
      vertex 4.9 -5 2
      vertex 22.0056 -5.94046 2
      vertex 21.7 -5 2
    endloop
  endfacet
  facet normal 0 0 1
    outer loop
      vertex 4.59443 -5.94046 2
      vertex 22.0056 -5.94046 2
      vertex 4.9 -5 2
    endloop
  endfacet
  facet normal 0 0 1
    outer loop
      vertex 3.79443 -6.52169 2
      vertex 22.0056 -5.94046 2
      vertex 4.59443 -5.94046 2
    endloop
  endfacet
  facet normal 0 0 1
    outer loop
      vertex 22.8056 -6.52169 2
      vertex 3.79443 -6.52169 2
      vertex 0 -10 2
    endloop
  endfacet
  facet normal 0 0 1
    outer loop
      vertex 0 -10 2
      vertex 3.79443 -6.52169 2
      vertex 2.80557 -6.52169 2
    endloop
  endfacet
  facet normal 0 0 1
    outer loop
      vertex 0 -10 2
      vertex 1.7 -5 2
      vertex 0 0 2
    endloop
  endfacet
  facet normal 0 0 1
    outer loop
      vertex 22.8056 -6.52169 2
      vertex 0 -10 2
      vertex 27 -10 2
    endloop
  endfacet
  facet normal 0 0 1
    outer loop
      vertex 2.00557 -5.94046 2
      vertex 0 -10 2
      vertex 2.80557 -6.52169 2
    endloop
  endfacet
  facet normal 0 0 1
    outer loop
      vertex 1.7 -5 2
      vertex 0 -10 2
      vertex 2.00557 -5.94046 2
    endloop
  endfacet
  facet normal 0 -1 0
    outer loop
      vertex 0 -10 0
      vertex 27 -10 2
      vertex 0 -10 2
    endloop
  endfacet
  facet normal 0 -1 -0
    outer loop
      vertex 27 -10 2
      vertex 0 -10 0
      vertex 27 -10 0
    endloop
  endfacet
  facet normal -0.951057 -0.309017 0
    outer loop
      vertex 4.9 -5 0
      vertex 4.59443 -4.05954 2
      vertex 4.59443 -4.05954 0
    endloop
  endfacet
  facet normal -0.951057 -0.309017 0
    outer loop
      vertex 4.59443 -4.05954 2
      vertex 4.9 -5 0
      vertex 4.9 -5 2
    endloop
  endfacet
  facet normal -0.587785 0.809017 0
    outer loop
      vertex 4.59443 -5.94046 0
      vertex 3.79443 -6.52169 2
      vertex 4.59443 -5.94046 2
    endloop
  endfacet
  facet normal -0.587785 0.809017 0
    outer loop
      vertex 3.79443 -6.52169 2
      vertex 4.59443 -5.94046 0
      vertex 3.79443 -6.52169 0
    endloop
  endfacet
  facet normal 0.587785 -0.809017 0
    outer loop
      vertex 2.00557 -4.05954 0
      vertex 2.80557 -3.47831 2
      vertex 2.00557 -4.05954 2
    endloop
  endfacet
  facet normal 0.587785 -0.809017 0
    outer loop
      vertex 2.80557 -3.47831 2
      vertex 2.00557 -4.05954 0
      vertex 2.80557 -3.47831 0
    endloop
  endfacet
  facet normal -0.587785 -0.809017 0
    outer loop
      vertex 3.79443 -3.47831 0
      vertex 4.59443 -4.05954 2
      vertex 3.79443 -3.47831 2
    endloop
  endfacet
  facet normal -0.587785 -0.809017 -0
    outer loop
      vertex 4.59443 -4.05954 2
      vertex 3.79443 -3.47831 0
      vertex 4.59443 -4.05954 0
    endloop
  endfacet
  facet normal 0.951057 -0.309017 0
    outer loop
      vertex 1.7 -5 2
      vertex 2.00557 -4.05954 0
      vertex 2.00557 -4.05954 2
    endloop
  endfacet
  facet normal 0.951057 -0.309017 0
    outer loop
      vertex 2.00557 -4.05954 0
      vertex 1.7 -5 2
      vertex 1.7 -5 0
    endloop
  endfacet
  facet normal -0.951057 0.309016 0
    outer loop
      vertex 4.59443 -5.94046 0
      vertex 4.9 -5 2
      vertex 4.9 -5 0
    endloop
  endfacet
  facet normal -0.951057 0.309016 0
    outer loop
      vertex 4.9 -5 2
      vertex 4.59443 -5.94046 0
      vertex 4.59443 -5.94046 2
    endloop
  endfacet
  facet normal 0 -1 0
    outer loop
      vertex 2.80557 -3.47831 0
      vertex 3.79443 -3.47831 2
      vertex 2.80557 -3.47831 2
    endloop
  endfacet
  facet normal 0 -1 -0
    outer loop
      vertex 3.79443 -3.47831 2
      vertex 2.80557 -3.47831 0
      vertex 3.79443 -3.47831 0
    endloop
  endfacet
  facet normal 0.951057 0.309016 0
    outer loop
      vertex 2.00557 -5.94046 2
      vertex 1.7 -5 0
      vertex 1.7 -5 2
    endloop
  endfacet
  facet normal 0.951057 0.309016 0
    outer loop
      vertex 1.7 -5 0
      vertex 2.00557 -5.94046 2
      vertex 2.00557 -5.94046 0
    endloop
  endfacet
  facet normal 0 1 -0
    outer loop
      vertex 3.79443 -6.52169 0
      vertex 2.80557 -6.52169 2
      vertex 3.79443 -6.52169 2
    endloop
  endfacet
  facet normal 0 1 0
    outer loop
      vertex 2.80557 -6.52169 2
      vertex 3.79443 -6.52169 0
      vertex 2.80557 -6.52169 0
    endloop
  endfacet
  facet normal 0.587785 0.809017 -0
    outer loop
      vertex 2.80557 -6.52169 0
      vertex 2.00557 -5.94046 2
      vertex 2.80557 -6.52169 2
    endloop
  endfacet
  facet normal 0.587785 0.809017 0
    outer loop
      vertex 2.00557 -5.94046 2
      vertex 2.80557 -6.52169 0
      vertex 2.00557 -5.94046 0
    endloop
  endfacet
  facet normal -0.951057 -0.309017 0
    outer loop
      vertex 24.9 -5 0
      vertex 24.5944 -4.05954 2
      vertex 24.5944 -4.05954 0
    endloop
  endfacet
  facet normal -0.951057 -0.309017 0
    outer loop
      vertex 24.5944 -4.05954 2
      vertex 24.9 -5 0
      vertex 24.9 -5 2
    endloop
  endfacet
  facet normal 0.587786 -0.809017 0
    outer loop
      vertex 22.0056 -4.05954 0
      vertex 22.8056 -3.47831 2
      vertex 22.0056 -4.05954 2
    endloop
  endfacet
  facet normal 0.587786 -0.809017 0
    outer loop
      vertex 22.8056 -3.47831 2
      vertex 22.0056 -4.05954 0
      vertex 22.8056 -3.47831 0
    endloop
  endfacet
  facet normal -0.587785 -0.809017 0
    outer loop
      vertex 23.7944 -3.47831 0
      vertex 24.5944 -4.05954 2
      vertex 23.7944 -3.47831 2
    endloop
  endfacet
  facet normal -0.587785 -0.809017 -0
    outer loop
      vertex 24.5944 -4.05954 2
      vertex 23.7944 -3.47831 0
      vertex 24.5944 -4.05954 0
    endloop
  endfacet
  facet normal 0.951057 -0.309017 0
    outer loop
      vertex 21.7 -5 2
      vertex 22.0056 -4.05954 0
      vertex 22.0056 -4.05954 2
    endloop
  endfacet
  facet normal 0.951057 -0.309017 0
    outer loop
      vertex 22.0056 -4.05954 0
      vertex 21.7 -5 2
      vertex 21.7 -5 0
    endloop
  endfacet
  facet normal 0 -1 0
    outer loop
      vertex 22.8056 -3.47831 0
      vertex 23.7944 -3.47831 2
      vertex 22.8056 -3.47831 2
    endloop
  endfacet
  facet normal 0 -1 -0
    outer loop
      vertex 23.7944 -3.47831 2
      vertex 22.8056 -3.47831 0
      vertex 23.7944 -3.47831 0
    endloop
  endfacet
  facet normal 0.951057 0.309016 0
    outer loop
      vertex 22.0056 -5.94046 2
      vertex 21.7 -5 0
      vertex 21.7 -5 2
    endloop
  endfacet
  facet normal 0.951057 0.309016 0
    outer loop
      vertex 21.7 -5 0
      vertex 22.0056 -5.94046 2
      vertex 22.0056 -5.94046 0
    endloop
  endfacet
  facet normal 0.587786 0.809017 -0
    outer loop
      vertex 22.8056 -6.52169 0
      vertex 22.0056 -5.94046 2
      vertex 22.8056 -6.52169 2
    endloop
  endfacet
  facet normal 0.587786 0.809017 0
    outer loop
      vertex 22.0056 -5.94046 2
      vertex 22.8056 -6.52169 0
      vertex 22.0056 -5.94046 0
    endloop
  endfacet
  facet normal -0.587785 0.809017 0
    outer loop
      vertex 24.5944 -5.94046 0
      vertex 23.7944 -6.52169 2
      vertex 24.5944 -5.94046 2
    endloop
  endfacet
  facet normal -0.587785 0.809017 0
    outer loop
      vertex 23.7944 -6.52169 2
      vertex 24.5944 -5.94046 0
      vertex 23.7944 -6.52169 0
    endloop
  endfacet
  facet normal -0.951057 0.309016 0
    outer loop
      vertex 24.5944 -5.94046 0
      vertex 24.9 -5 2
      vertex 24.9 -5 0
    endloop
  endfacet
  facet normal -0.951057 0.309016 0
    outer loop
      vertex 24.9 -5 2
      vertex 24.5944 -5.94046 0
      vertex 24.5944 -5.94046 2
    endloop
  endfacet
  facet normal 0 1 -0
    outer loop
      vertex 23.7944 -6.52169 0
      vertex 22.8056 -6.52169 2
      vertex 23.7944 -6.52169 2
    endloop
  endfacet
  facet normal 0 1 0
    outer loop
      vertex 22.8056 -6.52169 2
      vertex 23.7944 -6.52169 0
      vertex 22.8056 -6.52169 0
    endloop
  endfacet
endsolid OpenSCAD_Model
