solid OpenSCAD_Model
  facet normal 0.377897 0 0.925848
    outer loop
      vertex 10 7.25 0
      vertex 5.1 0 2
      vertex 10 5.25 0
    endloop
  endfacet
  facet normal 1 -0 0
    outer loop
      vertex 10 5.25 0
      vertex 10 7.25 -20
      vertex 10 7.25 0
    endloop
  endfacet
  facet normal 1 0 0
    outer loop
      vertex 10 7.25 -20
      vertex 10 5.25 0
      vertex 10 5.25 -20
    endloop
  endfacet
  facet normal -0.377897 0 0.925848
    outer loop
      vertex -10 7.25 0
      vertex -10 5.25 0
      vertex -5.1 0 2
    endloop
  endfacet
  facet normal 0 0.676378 0.736555
    outer loop
      vertex 10 7.25 0
      vertex -0.533094 5.07206 2
      vertex 0.533094 5.07206 2
    endloop
  endfacet
  facet normal 0 0.676378 0.736555
    outer loop
      vertex -0.533094 5.07206 2
      vertex 10 7.25 0
      vertex -10 7.25 0
    endloop
  endfacet
  facet normal -0.390637 -0.877386 -0.27856
    outer loop
      vertex -2.55 -4.41673 0
      vertex -3.31443 -2.76599 -4.12736
      vertex -1.57599 -4.85039 0
    endloop
  endfacet
  facet normal -0.390639 -0.877386 -0.27856
    outer loop
      vertex -2.55 -4.41673 0
      vertex -3.375 -2.73046 -4.15433
      vertex -3.31443 -2.76599 -4.12736
    endloop
  endfacet
  facet normal -0.390637 -0.877386 -0.27856
    outer loop
      vertex -3.375 -2.73046 -4.15433
      vertex -2.55 -4.41673 0
      vertex -4.36557 -2.06094 -4.87402
    endloop
  endfacet
  facet normal -0.390637 -0.877386 -0.27856
    outer loop
      vertex -6.6025 1.00801 -11.4034
      vertex -10 5.25 -20
      vertex -6.50522 1.05976 -11.7028
    endloop
  endfacet
  facet normal -0.390637 -0.877386 -0.27856
    outer loop
      vertex -10 5.25 -20
      vertex -6.6025 1.00801 -11.4034
      vertex -6.64547 0.897337 -10.9945
    endloop
  endfacet
  facet normal 0 0 -1
    outer loop
      vertex -10 5.25 -20
      vertex 10 7.25 -20
      vertex 10 5.25 -20
    endloop
  endfacet
  facet normal -0 0 -1
    outer loop
      vertex 10 7.25 -20
      vertex -10 5.25 -20
      vertex -10 7.25 -20
    endloop
  endfacet
  facet normal -1 0 0
    outer loop
      vertex -10 5.25 -20
      vertex -10 7.25 0
      vertex -10 7.25 -20
    endloop
  endfacet
  facet normal -1 -0 0
    outer loop
      vertex -10 7.25 0
      vertex -10 5.25 -20
      vertex -10 5.25 0
    endloop
  endfacet
  facet normal 0 -0.88863 -0.458625
    outer loop
      vertex -0.705566 3.55358 -16.713
      vertex -10 5.25 -20
      vertex 0.705566 3.55358 -16.713
    endloop
  endfacet
  facet normal 2.01958e-07 -0.88863 -0.458625
    outer loop
      vertex -2.08586 3.40216 -16.4196
      vertex -10 5.25 -20
      vertex -0.705566 3.55358 -16.713
    endloop
  endfacet
  facet normal -1.90177e-07 -0.88863 -0.458624
    outer loop
      vertex -3.375 3.10594 -15.8457
      vertex -10 5.25 -20
      vertex -2.08586 3.40216 -16.4196
    endloop
  endfacet
  facet normal 3.77089e-08 -0.88863 -0.458625
    outer loop
      vertex -4.51663 2.67786 -15.0162
      vertex -10 5.25 -20
      vertex -3.375 3.10594 -15.8457
    endloop
  endfacet
  facet normal 1.37916e-08 -0.88863 -0.458625
    outer loop
      vertex -5.46086 2.13663 -13.9676
      vertex -10 5.25 -20
      vertex -4.51663 2.67786 -15.0162
    endloop
  endfacet
  facet normal -2.06105e-08 -0.88863 -0.458625
    outer loop
      vertex -6.16643 1.50592 -12.7455
      vertex -10 5.25 -20
      vertex -5.46086 2.13663 -13.9676
    endloop
  endfacet
  facet normal -3.7998e-07 -0.88863 -0.458625
    outer loop
      vertex -10 5.25 -20
      vertex -6.16643 1.50592 -12.7455
      vertex -6.32911 1.24752 -12.2448
    endloop
  endfacet
  facet normal -0 -0.88863 -0.458625
    outer loop
      vertex 10 5.25 -20
      vertex 0.705566 3.55358 -16.713
      vertex -10 5.25 -20
    endloop
  endfacet
  facet normal 3.7998e-07 -0.88863 -0.458625
    outer loop
      vertex 6.16643 1.50592 -12.7455
      vertex 10 5.25 -20
      vertex 6.32911 1.24752 -12.2448
    endloop
  endfacet
  facet normal 2.06105e-08 -0.88863 -0.458625
    outer loop
      vertex 5.46086 2.13663 -13.9676
      vertex 10 5.25 -20
      vertex 6.16643 1.50592 -12.7455
    endloop
  endfacet
  facet normal -1.37916e-08 -0.88863 -0.458625
    outer loop
      vertex 4.51663 2.67786 -15.0162
      vertex 10 5.25 -20
      vertex 5.46086 2.13663 -13.9676
    endloop
  endfacet
  facet normal -3.77089e-08 -0.88863 -0.458625
    outer loop
      vertex 3.375 3.10594 -15.8457
      vertex 10 5.25 -20
      vertex 4.51663 2.67786 -15.0162
    endloop
  endfacet
  facet normal 1.90177e-07 -0.88863 -0.458624
    outer loop
      vertex 2.08586 3.40216 -16.4196
      vertex 10 5.25 -20
      vertex 3.375 3.10594 -15.8457
    endloop
  endfacet
  facet normal -2.01958e-07 -0.88863 -0.458625
    outer loop
      vertex 0.705566 3.55358 -16.713
      vertex 10 5.25 -20
      vertex 2.08586 3.40216 -16.4196
    endloop
  endfacet
  facet normal 0 -0.88863 -0.458625
    outer loop
      vertex -0.533094 -5.07206 0
      vertex -0.705566 -3.37564 -3.28698
      vertex 0.533094 -5.07206 0
    endloop
  endfacet
  facet normal -5.65034e-09 -0.88863 -0.458625
    outer loop
      vertex -0.533094 -5.07206 0
      vertex -2.08586 -3.22422 -3.58037
      vertex -0.705566 -3.37564 -3.28698
    endloop
  endfacet
  facet normal -5.90636e-07 -0.88863 -0.458624
    outer loop
      vertex -2.08586 -3.22422 -3.58037
      vertex -0.533094 -5.07206 0
      vertex -2.26576 -3.18289 -3.66046
    endloop
  endfacet
  facet normal -0 -0.88863 -0.458625
    outer loop
      vertex 0.705566 -3.37564 -3.28698
      vertex 0.533094 -5.07206 0
      vertex -0.705566 -3.37564 -3.28698
    endloop
  endfacet
  facet normal 5.65034e-09 -0.88863 -0.458625
    outer loop
      vertex 2.08586 -3.22422 -3.58037
      vertex 0.533094 -5.07206 0
      vertex 0.705566 -3.37564 -3.28698
    endloop
  endfacet
  facet normal 5.90636e-07 -0.88863 -0.458624
    outer loop
      vertex 0.533094 -5.07206 0
      vertex 2.08586 -3.22422 -3.58037
      vertex 2.26576 -3.18289 -3.66046
    endloop
  endfacet
  facet normal 0.743145 -0.669131 0
    outer loop
      vertex 3.41257 -3.79004 22
      vertex 4.12599 -2.9977 2
      vertex 4.12599 -2.9977 22
    endloop
  endfacet
  facet normal 0.743145 -0.669131 0
    outer loop
      vertex 3.41257 -3.79004 0
      vertex 4.12599 -2.9977 2
      vertex 3.41257 -3.79004 22
    endloop
  endfacet
  facet normal 0.743145 -0.669131 0
    outer loop
      vertex 4.12599 -2.9977 2
      vertex 3.41257 -3.79004 0
      vertex 4.12599 -2.9977 0
    endloop
  endfacet
  facet normal 0.168794 0.232326 0.95788
    outer loop
      vertex 10 7.25 0
      vertex 2.55 4.41673 2
      vertex 3.41257 3.79004 2
    endloop
  endfacet
  facet normal 0 1 0
    outer loop
      vertex 10 7.25 0
      vertex 0.444245 7.25 -5.77328
      vertex -10 7.25 0
    endloop
  endfacet
  facet normal 0 1 0
    outer loop
      vertex 10 7.25 0
      vertex 1.31332 7.25 -5.95801
      vertex 0.444245 7.25 -5.77328
    endloop
  endfacet
  facet normal 0 1 0
    outer loop
      vertex 10 7.25 0
      vertex 2.125 7.25 -6.31939
      vertex 1.31332 7.25 -5.95801
    endloop
  endfacet
  facet normal 0 1 0
    outer loop
      vertex 10 7.25 0
      vertex 2.8438 7.25 -6.84163
      vertex 2.125 7.25 -6.31939
    endloop
  endfacet
  facet normal 0 1 0
    outer loop
      vertex 10 7.25 0
      vertex 3.43832 7.25 -7.50191
      vertex 2.8438 7.25 -6.84163
    endloop
  endfacet
  facet normal 0 1 0
    outer loop
      vertex 10 7.25 0
      vertex 3.88257 7.25 -8.27137
      vertex 3.43832 7.25 -7.50191
    endloop
  endfacet
  facet normal 0 1 0
    outer loop
      vertex 10 7.25 0
      vertex 4.15713 7.25 -9.11637
      vertex 3.88257 7.25 -8.27137
    endloop
  endfacet
  facet normal 0 1 0
    outer loop
      vertex 10 7.25 0
      vertex 4.19428 7.25 -9.46982
      vertex 4.15713 7.25 -9.11637
    endloop
  endfacet
  facet normal 0 1 0
    outer loop
      vertex 10 7.25 0
      vertex 4.25 7.25 -10
      vertex 4.19428 7.25 -9.46982
    endloop
  endfacet
  facet normal 0 1 -0
    outer loop
      vertex 10 7.25 -20
      vertex 4.25 7.25 -10
      vertex 10 7.25 0
    endloop
  endfacet
  facet normal 0 1 0
    outer loop
      vertex 4.25 7.25 -10
      vertex 10 7.25 -20
      vertex 4.21285 7.25 -10.3534
    endloop
  endfacet
  facet normal 0 1 0
    outer loop
      vertex 4.21285 7.25 -10.3534
      vertex 10 7.25 -20
      vertex 4.15713 7.25 -10.8836
    endloop
  endfacet
  facet normal 0 1 0
    outer loop
      vertex 0.444245 7.25 -14.2267
      vertex 10 7.25 -20
      vertex -0.444245 7.25 -14.2267
    endloop
  endfacet
  facet normal 0 1 0
    outer loop
      vertex 1.31332 7.25 -14.042
      vertex 10 7.25 -20
      vertex 0.444245 7.25 -14.2267
    endloop
  endfacet
  facet normal 0 1 0
    outer loop
      vertex 2.125 7.25 -13.6806
      vertex 10 7.25 -20
      vertex 1.31332 7.25 -14.042
    endloop
  endfacet
  facet normal 0 1 0
    outer loop
      vertex 2.8438 7.25 -13.1584
      vertex 10 7.25 -20
      vertex 2.125 7.25 -13.6806
    endloop
  endfacet
  facet normal 0 1 0
    outer loop
      vertex 3.43832 7.25 -12.4981
      vertex 10 7.25 -20
      vertex 2.8438 7.25 -13.1584
    endloop
  endfacet
  facet normal 0 1 0
    outer loop
      vertex 3.88257 7.25 -11.7286
      vertex 10 7.25 -20
      vertex 3.43832 7.25 -12.4981
    endloop
  endfacet
  facet normal 0 1 0
    outer loop
      vertex 4.15713 7.25 -10.8836
      vertex 10 7.25 -20
      vertex 3.88257 7.25 -11.7286
    endloop
  endfacet
  facet normal 0 1 -0
    outer loop
      vertex -0.444245 7.25 -5.77328
      vertex -10 7.25 0
      vertex 0.444245 7.25 -5.77328
    endloop
  endfacet
  facet normal 0 1 -0
    outer loop
      vertex -1.31332 7.25 -5.95801
      vertex -10 7.25 0
      vertex -0.444245 7.25 -5.77328
    endloop
  endfacet
  facet normal 0 1 -0
    outer loop
      vertex -2.125 7.25 -6.31939
      vertex -10 7.25 0
      vertex -1.31332 7.25 -5.95801
    endloop
  endfacet
  facet normal 0 1 -0
    outer loop
      vertex -2.8438 7.25 -6.84163
      vertex -10 7.25 0
      vertex -2.125 7.25 -6.31939
    endloop
  endfacet
  facet normal 0 1 -0
    outer loop
      vertex -3.43832 7.25 -7.50191
      vertex -10 7.25 0
      vertex -2.8438 7.25 -6.84163
    endloop
  endfacet
  facet normal 0 1 -0
    outer loop
      vertex -3.88257 7.25 -8.27137
      vertex -10 7.25 0
      vertex -3.43832 7.25 -7.50191
    endloop
  endfacet
  facet normal 0 1 -0
    outer loop
      vertex -4.15713 7.25 -9.11637
      vertex -10 7.25 0
      vertex -3.88257 7.25 -8.27137
    endloop
  endfacet
  facet normal 0 1 -0
    outer loop
      vertex -4.25 7.25 -10
      vertex -10 7.25 0
      vertex -4.15713 7.25 -9.11637
    endloop
  endfacet
  facet normal 0 1 0
    outer loop
      vertex -10 7.25 -20
      vertex -4.25 7.25 -10
      vertex -4.15713 7.25 -10.8836
    endloop
  endfacet
  facet normal 0 1 0
    outer loop
      vertex -10 7.25 -20
      vertex -4.15713 7.25 -10.8836
      vertex -3.88257 7.25 -11.7286
    endloop
  endfacet
  facet normal 0 1 0
    outer loop
      vertex -10 7.25 -20
      vertex -0.444245 7.25 -14.2267
      vertex 10 7.25 -20
    endloop
  endfacet
  facet normal 0 1 0
    outer loop
      vertex -0.444245 7.25 -14.2267
      vertex -10 7.25 -20
      vertex -1.31332 7.25 -14.042
    endloop
  endfacet
  facet normal 0 1 0
    outer loop
      vertex -4.25 7.25 -10
      vertex -10 7.25 -20
      vertex -10 7.25 0
    endloop
  endfacet
  facet normal 0 1 0
    outer loop
      vertex -3.43832 7.25 -12.4981
      vertex -10 7.25 -20
      vertex -3.88257 7.25 -11.7286
    endloop
  endfacet
  facet normal 0 1 0
    outer loop
      vertex -2.8438 7.25 -13.1584
      vertex -10 7.25 -20
      vertex -3.43832 7.25 -12.4981
    endloop
  endfacet
  facet normal 0 1 0
    outer loop
      vertex -2.125 7.25 -13.6806
      vertex -10 7.25 -20
      vertex -2.8438 7.25 -13.1584
    endloop
  endfacet
  facet normal 0 1 0
    outer loop
      vertex -1.31332 7.25 -14.042
      vertex -10 7.25 -20
      vertex -2.125 7.25 -13.6806
    endloop
  endfacet
  facet normal -0.743145 -0.669131 0
    outer loop
      vertex -3.41257 -3.79004 0
      vertex -4.12599 -2.9977 2
      vertex -4.12599 -2.9977 0
    endloop
  endfacet
  facet normal -0.743145 -0.669131 -0
    outer loop
      vertex -3.41257 -3.79004 22
      vertex -4.12599 -2.9977 2
      vertex -3.41257 -3.79004 0
    endloop
  endfacet
  facet normal -0.743145 -0.669131 0
    outer loop
      vertex -4.12599 -2.9977 2
      vertex -3.41257 -3.79004 22
      vertex -4.12599 -2.9977 22
    endloop
  endfacet
  facet normal 0.587785 -0.809017 0
    outer loop
      vertex 2.55 -4.41673 0
      vertex 3.41257 -3.79004 22
      vertex 2.55 -4.41673 22
    endloop
  endfacet
  facet normal 0.587785 -0.809017 0
    outer loop
      vertex 3.41257 -3.79004 22
      vertex 2.55 -4.41673 0
      vertex 3.41257 -3.79004 0
    endloop
  endfacet
  facet normal -0.741911 -0.668021 -0.0575822
    outer loop
      vertex -10 5.25 -20
      vertex -6.73942 0.775462 -10.1006
      vertex -6.75 0.778534 -10
    endloop
  endfacet
  facet normal -0.741912 -0.668021 -0.0575819
    outer loop
      vertex -6.6025 0.493744 -8.5966
      vertex -10 5.25 -20
      vertex -6.75 0.778534 -10
    endloop
  endfacet
  facet normal -0.741912 -0.668021 -0.0575819
    outer loop
      vertex -6.6025 0.493744 -8.5966
      vertex -4.12599 -2.9977 0
      vertex -10 5.25 -20
    endloop
  endfacet
  facet normal -0.741911 -0.668021 -0.0575819
    outer loop
      vertex -6.16643 -0.106238 -7.25453
      vertex -4.12599 -2.9977 0
      vertex -6.6025 0.493744 -8.5966
    endloop
  endfacet
  facet normal -0.741912 -0.668021 -0.0575819
    outer loop
      vertex -5.46086 -0.99519 -6.03245
      vertex -4.12599 -2.9977 0
      vertex -6.16643 -0.106238 -7.25453
    endloop
  endfacet
  facet normal -0.741912 -0.668021 -0.0575819
    outer loop
      vertex -5.36408 -1.11195 -5.92496
      vertex -4.12599 -2.9977 0
      vertex -5.46086 -0.99519 -6.03245
    endloop
  endfacet
  facet normal -0.741912 -0.668021 -0.0575819
    outer loop
      vertex -4.12599 -2.9977 0
      vertex -5.36408 -1.11195 -5.92496
      vertex -3.41257 -3.79004 0
    endloop
  endfacet
  facet normal -0.198627 0.178845 0.963619
    outer loop
      vertex -3.41257 3.79004 2
      vertex -10 7.25 0
      vertex -4.12599 2.9977 2
    endloop
  endfacet
  facet normal 0.780255 -0.45048 0.4339
    outer loop
      vertex 4.65908 -2.07436 2
      vertex 4.12599 -2.9977 2
      vertex 10 5.25 0
    endloop
  endfacet
  facet normal -0.587785 -0.809017 0
    outer loop
      vertex -3.41257 -3.79004 0
      vertex -2.55 -4.41673 22
      vertex -3.41257 -3.79004 22
    endloop
  endfacet
  facet normal -0.587785 -0.809017 -0
    outer loop
      vertex -2.55 -4.41673 22
      vertex -3.41257 -3.79004 0
      vertex -2.55 -4.41673 0
    endloop
  endfacet
  facet normal -0.814536 -0.580113 0
    outer loop
      vertex -4.12599 -2.9977 0
      vertex -10 5.25 0
      vertex -10 5.25 -20
    endloop
  endfacet
  facet normal -0.814536 -0.580113 0
    outer loop
      vertex -10 5.25 0
      vertex -4.12599 -2.9977 0
      vertex -4.12599 -2.9977 2
    endloop
  endfacet
  facet normal -0.192613 -0.90617 -0.376505
    outer loop
      vertex -6.50522 1.05976 -11.7028
      vertex -10 5.25 -20
      vertex -6.32911 1.24752 -12.2448
    endloop
  endfacet
  facet normal -0.192613 -0.90617 -0.376505
    outer loop
      vertex -1.57599 -4.85039 0
      vertex -2.26576 -3.18289 -3.66046
      vertex -0.533094 -5.07206 0
    endloop
  endfacet
  facet normal -0.192613 -0.90617 -0.376505
    outer loop
      vertex -2.26576 -3.18289 -3.66046
      vertex -1.57599 -4.85039 0
      vertex -3.31443 -2.76599 -4.12736
    endloop
  endfacet
  facet normal -0.579272 -0.797299 -0.169585
    outer loop
      vertex -3.41257 -3.79004 0
      vertex -4.36557 -2.06094 -4.87402
      vertex -2.55 -4.41673 0
    endloop
  endfacet
  facet normal -0.579271 -0.797299 -0.169585
    outer loop
      vertex -3.41257 -3.79004 0
      vertex -4.51663 -1.92784 -4.98377
      vertex -4.36557 -2.06094 -4.87402
    endloop
  endfacet
  facet normal -0.579271 -0.797299 -0.169585
    outer loop
      vertex -4.51663 -1.92784 -4.98377
      vertex -3.41257 -3.79004 0
      vertex -5.36408 -1.11195 -5.92496
    endloop
  endfacet
  facet normal -0.579272 -0.797299 -0.169585
    outer loop
      vertex -6.73942 0.775462 -10.1006
      vertex -10 5.25 -20
      vertex -6.64547 0.897337 -10.9945
    endloop
  endfacet
  facet normal -0.33286 0.034985 0.942327
    outer loop
      vertex -4.98855 1.06035 2
      vertex -10 7.25 0
      vertex -5.1 0 2
    endloop
  endfacet
  facet normal 0.0911782 0.428959 0.898711
    outer loop
      vertex 10 7.25 0
      vertex 0.533094 5.07206 2
      vertex 1.57599 4.85039 2
    endloop
  endfacet
  facet normal 0.550683 -0.178928 0.815312
    outer loop
      vertex 4.98855 -1.06035 2
      vertex 4.65908 -2.07436 2
      vertex 10 5.25 0
    endloop
  endfacet
  facet normal 0.579272 -0.797298 -0.169585
    outer loop
      vertex 10 5.25 -20
      vertex 6.66448 0.872671 -10.8136
      vertex 6.64547 0.897337 -10.9945
    endloop
  endfacet
  facet normal 0.579271 -0.797299 -0.169585
    outer loop
      vertex 6.66448 0.872671 -10.8136
      vertex 10 5.25 -20
      vertex 6.73942 0.775462 -10.1006
    endloop
  endfacet
  facet normal 0.579272 -0.797299 -0.169585
    outer loop
      vertex 4.36557 -2.06094 -4.87402
      vertex 3.41257 -3.79004 0
      vertex 2.55 -4.41673 0
    endloop
  endfacet
  facet normal 0.579271 -0.797299 -0.169585
    outer loop
      vertex 4.51663 -1.92784 -4.98377
      vertex 3.41257 -3.79004 0
      vertex 4.36557 -2.06094 -4.87402
    endloop
  endfacet
  facet normal 0.579271 -0.797299 -0.169585
    outer loop
      vertex 3.41257 -3.79004 0
      vertex 4.51663 -1.92784 -4.98377
      vertex 5.36408 -1.11195 -5.92496
    endloop
  endfacet
  facet normal -0.207912 -0.978147 0
    outer loop
      vertex -1.57599 -4.85039 0
      vertex -0.533094 -5.07206 22
      vertex -1.57599 -4.85039 22
    endloop
  endfacet
  facet normal -0.207912 -0.978147 -0
    outer loop
      vertex -0.533094 -5.07206 22
      vertex -1.57599 -4.85039 0
      vertex -0.533094 -5.07206 0
    endloop
  endfacet
  facet normal 0 -1 0
    outer loop
      vertex -0.533094 -5.07206 0
      vertex 0.533094 -5.07206 22
      vertex -0.533094 -5.07206 22
    endloop
  endfacet
  facet normal 0 -1 -0
    outer loop
      vertex 0.533094 -5.07206 22
      vertex -0.533094 -5.07206 0
      vertex 0.533094 -5.07206 0
    endloop
  endfacet
  facet normal -0.406737 -0.913545 0
    outer loop
      vertex -2.55 -4.41673 0
      vertex -1.57599 -4.85039 22
      vertex -2.55 -4.41673 22
    endloop
  endfacet
  facet normal -0.406737 -0.913545 -0
    outer loop
      vertex -1.57599 -4.85039 22
      vertex -2.55 -4.41673 0
      vertex -1.57599 -4.85039 0
    endloop
  endfacet
  facet normal -0.417473 -0.0438783 0.907629
    outer loop
      vertex -5.1 0 2
      vertex -10 5.25 0
      vertex -4.98855 -1.06035 2
    endloop
  endfacet
  facet normal -0.231393 0.133595 0.963644
    outer loop
      vertex -4.12599 2.9977 2
      vertex -10 7.25 0
      vertex -4.65908 2.07436 2
    endloop
  endfacet
  facet normal -0.168794 0.232326 0.95788
    outer loop
      vertex -2.55 4.41673 2
      vertex -10 7.25 0
      vertex -3.41257 3.79004 2
    endloop
  endfacet
  facet normal 0.1364 0.30636 0.942092
    outer loop
      vertex 10 7.25 0
      vertex 1.57599 4.85039 2
      vertex 2.55 4.41673 2
    endloop
  endfacet
  facet normal 0.33286 0.034985 0.942327
    outer loop
      vertex 10 7.25 0
      vertex 4.98855 1.06035 2
      vertex 5.1 0 2
    endloop
  endfacet
  facet normal 0.272826 0.0886464 0.957971
    outer loop
      vertex 10 7.25 0
      vertex 4.65908 2.07436 2
      vertex 4.98855 1.06035 2
    endloop
  endfacet
  facet normal 0.231393 0.133595 0.963644
    outer loop
      vertex 10 7.25 0
      vertex 4.12599 2.9977 2
      vertex 4.65908 2.07436 2
    endloop
  endfacet
  facet normal 0.198627 0.178845 0.963619
    outer loop
      vertex 10 7.25 0
      vertex 3.41257 3.79004 2
      vertex 4.12599 2.9977 2
    endloop
  endfacet
  facet normal 0.417473 -0.0438783 0.907629
    outer loop
      vertex 5.1 0 2
      vertex 4.98855 -1.06035 2
      vertex 10 5.25 0
    endloop
  endfacet
  facet normal 0.741911 -0.668021 -0.057582
    outer loop
      vertex 10 5.25 -20
      vertex 6.69081 0.664249 -9.43682
      vertex 6.75 0.778534 -10
    endloop
  endfacet
  facet normal 0.741912 -0.668021 -0.0575819
    outer loop
      vertex 10 5.25 -20
      vertex 6.6025 0.493744 -8.5966
      vertex 6.69081 0.664249 -9.43682
    endloop
  endfacet
  facet normal 0.741912 -0.668021 -0.0575819
    outer loop
      vertex 4.12599 -2.9977 0
      vertex 6.6025 0.493744 -8.5966
      vertex 10 5.25 -20
    endloop
  endfacet
  facet normal 0.741911 -0.668021 -0.0575819
    outer loop
      vertex 4.12599 -2.9977 0
      vertex 6.16643 -0.106238 -7.25453
      vertex 6.6025 0.493744 -8.5966
    endloop
  endfacet
  facet normal 0.741912 -0.668021 -0.0575819
    outer loop
      vertex 4.12599 -2.9977 0
      vertex 5.46086 -0.99519 -6.03245
      vertex 6.16643 -0.106238 -7.25453
    endloop
  endfacet
  facet normal 0.741912 -0.668021 -0.0575819
    outer loop
      vertex 4.12599 -2.9977 0
      vertex 5.36408 -1.11195 -5.92496
      vertex 5.46086 -0.99519 -6.03245
    endloop
  endfacet
  facet normal 0.741912 -0.668021 -0.0575819
    outer loop
      vertex 5.36408 -1.11195 -5.92496
      vertex 4.12599 -2.9977 0
      vertex 3.41257 -3.79004 0
    endloop
  endfacet
  facet normal 0.741912 -0.66802 -0.0575817
    outer loop
      vertex 10 5.25 -20
      vertex 6.75 0.778534 -10
      vertex 6.73942 0.775462 -10.1006
    endloop
  endfacet
  facet normal 0.814536 -0.580113 0
    outer loop
      vertex 4.12599 -2.9977 0
      vertex 10 5.25 0
      vertex 4.12599 -2.9977 2
    endloop
  endfacet
  facet normal 0.814536 -0.580113 0
    outer loop
      vertex 10 5.25 0
      vertex 4.12599 -2.9977 0
      vertex 10 5.25 -20
    endloop
  endfacet
  facet normal 0.207912 -0.978147 0
    outer loop
      vertex 0.533094 -5.07206 0
      vertex 1.57599 -4.85039 22
      vertex 0.533094 -5.07206 22
    endloop
  endfacet
  facet normal 0.207912 -0.978147 0
    outer loop
      vertex 1.57599 -4.85039 22
      vertex 0.533094 -5.07206 0
      vertex 1.57599 -4.85039 0
    endloop
  endfacet
  facet normal 0.406737 -0.913545 0
    outer loop
      vertex 1.57599 -4.85039 0
      vertex 2.55 -4.41673 22
      vertex 1.57599 -4.85039 22
    endloop
  endfacet
  facet normal 0.406737 -0.913545 0
    outer loop
      vertex 2.55 -4.41673 22
      vertex 1.57599 -4.85039 0
      vertex 2.55 -4.41673 0
    endloop
  endfacet
  facet normal -0.780255 -0.45048 0.4339
    outer loop
      vertex -4.65908 -2.07436 2
      vertex -10 5.25 0
      vertex -4.12599 -2.9977 2
    endloop
  endfacet
  facet normal -0.272826 0.0886464 0.957971
    outer loop
      vertex -4.65908 2.07436 2
      vertex -10 7.25 0
      vertex -4.98855 1.06035 2
    endloop
  endfacet
  facet normal -0.0911782 0.428959 0.898711
    outer loop
      vertex -0.533094 5.07206 2
      vertex -10 7.25 0
      vertex -1.57599 4.85039 2
    endloop
  endfacet
  facet normal -0.1364 0.30636 0.942092
    outer loop
      vertex -1.57599 4.85039 2
      vertex -10 7.25 0
      vertex -2.55 4.41673 2
    endloop
  endfacet
  facet normal 0.192613 -0.90617 -0.376505
    outer loop
      vertex 6.50522 1.05976 -11.7028
      vertex 6.32911 1.24752 -12.2448
      vertex 10 5.25 -20
    endloop
  endfacet
  facet normal 0.192613 -0.90617 -0.376505
    outer loop
      vertex 2.26576 -3.18289 -3.66046
      vertex 1.57599 -4.85039 0
      vertex 0.533094 -5.07206 0
    endloop
  endfacet
  facet normal 0.192613 -0.90617 -0.376505
    outer loop
      vertex 1.57599 -4.85039 0
      vertex 2.26576 -3.18289 -3.66046
      vertex 3.31443 -2.76599 -4.12736
    endloop
  endfacet
  facet normal 0.390637 -0.877386 -0.27856
    outer loop
      vertex 6.6025 1.00801 -11.4034
      vertex 10 5.25 -20
      vertex 6.64547 0.897337 -10.9945
    endloop
  endfacet
  facet normal 0.390637 -0.877386 -0.27856
    outer loop
      vertex 10 5.25 -20
      vertex 6.6025 1.00801 -11.4034
      vertex 6.50522 1.05976 -11.7028
    endloop
  endfacet
  facet normal 0.390637 -0.877386 -0.27856
    outer loop
      vertex 3.31443 -2.76599 -4.12736
      vertex 2.55 -4.41673 0
      vertex 1.57599 -4.85039 0
    endloop
  endfacet
  facet normal 0.390641 -0.877385 -0.278559
    outer loop
      vertex 3.375 -2.73046 -4.15433
      vertex 2.55 -4.41673 0
      vertex 3.31443 -2.76599 -4.12736
    endloop
  endfacet
  facet normal 0.390637 -0.877386 -0.27856
    outer loop
      vertex 2.55 -4.41673 0
      vertex 3.375 -2.73046 -4.15433
      vertex 4.36557 -2.06094 -4.87402
    endloop
  endfacet
  facet normal -0.550683 -0.178928 0.815312
    outer loop
      vertex -4.98855 -1.06035 2
      vertex -10 5.25 0
      vertex -4.65908 -2.07436 2
    endloop
  endfacet
  facet normal 0.994522 0 0.104529
    outer loop
      vertex 6.75 -3.75 -10
      vertex 6.6025 0.493744 -8.5966
      vertex 6.6025 -3.75 -8.5966
    endloop
  endfacet
  facet normal 0.994522 2.48453e-08 0.104529
    outer loop
      vertex 6.6025 0.493744 -8.5966
      vertex 6.75 -3.75 -10
      vertex 6.69081 0.664249 -9.43682
    endloop
  endfacet
  facet normal 0.994522 0 0.104529
    outer loop
      vertex 6.75 0.778534 -10
      vertex 6.69081 0.664249 -9.43682
      vertex 6.75 -3.75 -10
    endloop
  endfacet
  facet normal -0.994522 -3.22927e-08 -0.104528
    outer loop
      vertex -6.64547 0.897337 -10.9945
      vertex -6.6025 -3.75 -11.4034
      vertex -6.73942 0.775462 -10.1006
    endloop
  endfacet
  facet normal -0.994522 0 -0.104529
    outer loop
      vertex -6.6025 -3.75 -11.4034
      vertex -6.64547 0.897337 -10.9945
      vertex -6.6025 1.00801 -11.4034
    endloop
  endfacet
  facet normal -0.994522 1.0045e-08 -0.104529
    outer loop
      vertex -6.75 -3.75 -10
      vertex -6.73942 0.775462 -10.1006
      vertex -6.6025 -3.75 -11.4034
    endloop
  endfacet
  facet normal -0.994522 0 -0.104529
    outer loop
      vertex -6.73942 0.775462 -10.1006
      vertex -6.75 -3.75 -10
      vertex -6.75 0.778534 -10
    endloop
  endfacet
  facet normal -4.47218e-07 -1 1.00447e-06
    outer loop
      vertex -3.375 -3.75 -4.15433
      vertex -5.46086 -3.75 -6.03245
      vertex -2.08586 -3.75 -3.58037
    endloop
  endfacet
  facet normal 0.207912 0 0.978148
    outer loop
      vertex 0.705566 -3.37564 -3.28698
      vertex 2.08586 -3.75 -3.58037
      vertex 2.08586 -3.22422 -3.58037
    endloop
  endfacet
  facet normal 0.207912 0 0.978148
    outer loop
      vertex 2.08586 -3.75 -3.58037
      vertex 0.705566 -3.37564 -3.28698
      vertex 0.705566 -3.75 -3.28698
    endloop
  endfacet
  facet normal 0.587785 0 -0.809017
    outer loop
      vertex 3.375 -3.75 -15.8457
      vertex 4.51663 2.67786 -15.0162
      vertex 4.51663 -3.75 -15.0162
    endloop
  endfacet
  facet normal 0.587785 0 -0.809017
    outer loop
      vertex 4.51663 2.67786 -15.0162
      vertex 3.375 -3.75 -15.8457
      vertex 3.375 3.10594 -15.8457
    endloop
  endfacet
  facet normal 0.866025 0 0.5
    outer loop
      vertex 6.16643 -3.75 -7.25453
      vertex 5.46086 -0.99519 -6.03245
      vertex 5.46086 -3.75 -6.03245
    endloop
  endfacet
  facet normal 0.866025 0 0.5
    outer loop
      vertex 5.46086 -0.99519 -6.03245
      vertex 6.16643 -3.75 -7.25453
      vertex 6.16643 -0.106238 -7.25453
    endloop
  endfacet
  facet normal -0 0 1
    outer loop
      vertex -0.705566 -3.37564 -3.28698
      vertex 0.705566 -3.75 -3.28698
      vertex 0.705566 -3.37564 -3.28698
    endloop
  endfacet
  facet normal 0 0 1
    outer loop
      vertex 0.705566 -3.75 -3.28698
      vertex -0.705566 -3.37564 -3.28698
      vertex -0.705566 -3.75 -3.28698
    endloop
  endfacet
  facet normal 0.587786 0 0.809016
    outer loop
      vertex 4.36557 -2.06094 -4.87402
      vertex 4.51663 -3.75 -4.98377
      vertex 4.51663 -1.92784 -4.98377
    endloop
  endfacet
  facet normal 0.587785 -7.72203e-08 0.809017
    outer loop
      vertex 3.375 -2.73046 -4.15433
      vertex 4.51663 -3.75 -4.98377
      vertex 4.36557 -2.06094 -4.87402
    endloop
  endfacet
  facet normal 0.587785 0 0.809017
    outer loop
      vertex 4.51663 -3.75 -4.98377
      vertex 3.375 -2.73046 -4.15433
      vertex 3.375 -3.75 -4.15433
    endloop
  endfacet
  facet normal 0.743145 0 0.669131
    outer loop
      vertex 5.46086 -3.75 -6.03245
      vertex 4.51663 -1.92784 -4.98377
      vertex 4.51663 -3.75 -4.98377
    endloop
  endfacet
  facet normal 0.743145 3.40416e-08 0.669131
    outer loop
      vertex 4.51663 -1.92784 -4.98377
      vertex 5.46086 -3.75 -6.03245
      vertex 5.36408 -1.11195 -5.92496
    endloop
  endfacet
  facet normal 0.743144 0 0.669131
    outer loop
      vertex 5.36408 -1.11195 -5.92496
      vertex 5.46086 -3.75 -6.03245
      vertex 5.46086 -0.99519 -6.03245
    endloop
  endfacet
  facet normal -0.207912 0 0.978148
    outer loop
      vertex -2.08586 -3.75 -3.58037
      vertex -0.705566 -3.37564 -3.28698
      vertex -2.08586 -3.22422 -3.58037
    endloop
  endfacet
  facet normal -0.207912 0 0.978148
    outer loop
      vertex -0.705566 -3.37564 -3.28698
      vertex -2.08586 -3.75 -3.58037
      vertex -0.705566 -3.75 -3.28698
    endloop
  endfacet
  facet normal 0 -1 3.83571e-07
    outer loop
      vertex -0.705566 -3.75 -3.28698
      vertex -0.444245 -3.75 -5.77328
      vertex 0.705566 -3.75 -3.28698
    endloop
  endfacet
  facet normal -7.97492e-08 -1 3.75189e-07
    outer loop
      vertex -0.705566 -3.75 -3.28698
      vertex -1.31332 -3.75 -5.95801
      vertex -0.444245 -3.75 -5.77328
    endloop
  endfacet
  facet normal 0 -1 3.47363e-07
    outer loop
      vertex -1.48052 -3.75 -6.03245
      vertex -0.705566 -3.75 -3.28698
      vertex -5.46086 -3.75 -6.03245
    endloop
  endfacet
  facet normal -1.76885e-07 -1 3.97291e-07
    outer loop
      vertex -0.705566 -3.75 -3.28698
      vertex -1.48052 -3.75 -6.03245
      vertex -1.31332 -3.75 -5.95801
    endloop
  endfacet
  facet normal 0 -1 3.83571e-07
    outer loop
      vertex 0.444245 -3.75 -5.77328
      vertex 0.705566 -3.75 -3.28698
      vertex -0.444245 -3.75 -5.77328
    endloop
  endfacet
  facet normal 7.97492e-08 -1 3.75189e-07
    outer loop
      vertex 1.31332 -3.75 -5.95801
      vertex 0.705566 -3.75 -3.28698
      vertex 0.444245 -3.75 -5.77328
    endloop
  endfacet
  facet normal 1.76885e-07 -1 3.97291e-07
    outer loop
      vertex 1.48052 -3.75 -6.03245
      vertex 0.705566 -3.75 -3.28698
      vertex 1.31332 -3.75 -5.95801
    endloop
  endfacet
  facet normal 0 -1 3.47363e-07
    outer loop
      vertex 0.705566 -3.75 -3.28698
      vertex 1.48052 -3.75 -6.03245
      vertex 5.46086 -3.75 -6.03245
    endloop
  endfacet
  facet normal 4.47217e-07 -1 1.00447e-06
    outer loop
      vertex 3.375 -3.75 -4.15433
      vertex 2.08586 -3.75 -3.58037
      vertex 5.46086 -3.75 -6.03245
    endloop
  endfacet
  facet normal 0.406736 0 0.913546
    outer loop
      vertex 3.31443 -2.76599 -4.12736
      vertex 3.375 -3.75 -4.15433
      vertex 3.375 -2.73046 -4.15433
    endloop
  endfacet
  facet normal 0.406737 7.3205e-08 0.913545
    outer loop
      vertex 2.26576 -3.18289 -3.66046
      vertex 3.375 -3.75 -4.15433
      vertex 3.31443 -2.76599 -4.12736
    endloop
  endfacet
  facet normal 0.406737 -0 0.913545
    outer loop
      vertex 2.08586 -3.75 -3.58037
      vertex 2.26576 -3.18289 -3.66046
      vertex 2.08586 -3.22422 -3.58037
    endloop
  endfacet
  facet normal 0.406737 1.0253e-07 0.913545
    outer loop
      vertex 2.26576 -3.18289 -3.66046
      vertex 2.08586 -3.75 -3.58037
      vertex 3.375 -3.75 -4.15433
    endloop
  endfacet
  facet normal -0.866025 0 0.5
    outer loop
      vertex -6.16643 -3.75 -7.25453
      vertex -5.46086 -0.99519 -6.03245
      vertex -6.16643 -0.106238 -7.25453
    endloop
  endfacet
  facet normal -0.866025 0 0.5
    outer loop
      vertex -5.46086 -0.99519 -6.03245
      vertex -6.16643 -3.75 -7.25453
      vertex -5.46086 -3.75 -6.03245
    endloop
  endfacet
  facet normal -0.587785 1.23272e-07 0.809017
    outer loop
      vertex -4.51663 -3.75 -4.98377
      vertex -3.375 -2.73046 -4.15433
      vertex -4.36557 -2.06094 -4.87402
    endloop
  endfacet
  facet normal -0.587784 0 0.809018
    outer loop
      vertex -4.51663 -3.75 -4.98377
      vertex -4.36557 -2.06094 -4.87402
      vertex -4.51663 -1.92784 -4.98377
    endloop
  endfacet
  facet normal -0.587785 0 0.809017
    outer loop
      vertex -3.375 -2.73046 -4.15433
      vertex -4.51663 -3.75 -4.98377
      vertex -3.375 -3.75 -4.15433
    endloop
  endfacet
  facet normal 0.994522 0 -0.104528
    outer loop
      vertex 6.75 0.778534 -10
      vertex 6.75 -3.75 -10
      vertex 6.73942 0.775462 -10.1006
    endloop
  endfacet
  facet normal 0.994522 -1.19829e-08 -0.104529
    outer loop
      vertex 6.6025 -3.75 -11.4034
      vertex 6.73942 0.775462 -10.1006
      vertex 6.75 -3.75 -10
    endloop
  endfacet
  facet normal 0.994522 1.34623e-08 -0.104529
    outer loop
      vertex 6.73942 0.775462 -10.1006
      vertex 6.6025 -3.75 -11.4034
      vertex 6.66448 0.872671 -10.8136
    endloop
  endfacet
  facet normal 0.951056 0 0.309017
    outer loop
      vertex 6.6025 -3.75 -8.5966
      vertex 6.16643 -0.106238 -7.25453
      vertex 6.16643 -3.75 -7.25453
    endloop
  endfacet
  facet normal 0.951056 0 0.309017
    outer loop
      vertex 6.16643 -0.106238 -7.25453
      vertex 6.6025 -3.75 -8.5966
      vertex 6.6025 0.493744 -8.5966
    endloop
  endfacet
  facet normal 1.91061e-06 -1 2.62973e-06
    outer loop
      vertex 4.51663 -3.75 -4.98377
      vertex 3.375 -3.75 -4.15433
      vertex 5.46086 -3.75 -6.03245
    endloop
  endfacet
  facet normal -1.16856e-07 -1 5.49762e-07
    outer loop
      vertex -2.08586 -3.75 -3.58037
      vertex -5.46086 -3.75 -6.03245
      vertex -0.705566 -3.75 -3.28698
    endloop
  endfacet
  facet normal 1.16856e-07 -1 5.49762e-07
    outer loop
      vertex 2.08586 -3.75 -3.58037
      vertex 0.705566 -3.75 -3.28698
      vertex 5.46086 -3.75 -6.03245
    endloop
  endfacet
  facet normal 0 -1 0
    outer loop
      vertex -5.46086 -3.75 -6.03245
      vertex -2.125 -3.75 -6.31939
      vertex -1.48052 -3.75 -6.03245
    endloop
  endfacet
  facet normal 0 -1 0
    outer loop
      vertex -5.46086 -3.75 -6.03245
      vertex -2.8438 -3.75 -6.84163
      vertex -2.125 -3.75 -6.31939
    endloop
  endfacet
  facet normal 0 -1 0
    outer loop
      vertex -3.43832 -3.75 -7.50191
      vertex -5.46086 -3.75 -6.03245
      vertex -6.16643 -3.75 -7.25453
    endloop
  endfacet
  facet normal 0 -1 0
    outer loop
      vertex -5.46086 -3.75 -6.03245
      vertex -3.43832 -3.75 -7.50191
      vertex -2.8438 -3.75 -6.84163
    endloop
  endfacet
  facet normal 0 -1 0
    outer loop
      vertex -6.16643 -3.75 -7.25453
      vertex -3.88257 -3.75 -8.27137
      vertex -3.43832 -3.75 -7.50191
    endloop
  endfacet
  facet normal 0 -1 0
    outer loop
      vertex -6.6025 -3.75 -8.5966
      vertex -3.88257 -3.75 -8.27137
      vertex -6.16643 -3.75 -7.25453
    endloop
  endfacet
  facet normal 0 -1 0
    outer loop
      vertex -6.6025 -3.75 -8.5966
      vertex -4.15713 -3.75 -9.11637
      vertex -3.88257 -3.75 -8.27137
    endloop
  endfacet
  facet normal 0 -1 0
    outer loop
      vertex -6.75 -3.75 -10
      vertex -4.15713 -3.75 -9.11637
      vertex -6.6025 -3.75 -8.5966
    endloop
  endfacet
  facet normal 0 -1 0
    outer loop
      vertex -6.75 -3.75 -10
      vertex -4.25 -3.75 -10
      vertex -4.15713 -3.75 -9.11637
    endloop
  endfacet
  facet normal 0 -1 0
    outer loop
      vertex -6.75 -3.75 -10
      vertex -4.15713 -3.75 -10.8836
      vertex -4.25 -3.75 -10
    endloop
  endfacet
  facet normal 0 -1 0
    outer loop
      vertex -6.6025 -3.75 -11.4034
      vertex -4.15713 -3.75 -10.8836
      vertex -6.75 -3.75 -10
    endloop
  endfacet
  facet normal 0 -1 0
    outer loop
      vertex -6.6025 -3.75 -11.4034
      vertex -3.88257 -3.75 -11.7286
      vertex -4.15713 -3.75 -10.8836
    endloop
  endfacet
  facet normal 0 -1 0
    outer loop
      vertex -6.16643 -3.75 -12.7455
      vertex -3.88257 -3.75 -11.7286
      vertex -6.6025 -3.75 -11.4034
    endloop
  endfacet
  facet normal 0 -1 -0
    outer loop
      vertex -3.88257 -3.75 -11.7286
      vertex -6.16643 -3.75 -12.7455
      vertex -3.43832 -3.75 -12.4981
    endloop
  endfacet
  facet normal 0 -1 0
    outer loop
      vertex -5.46086 -3.75 -13.9676
      vertex -3.43832 -3.75 -12.4981
      vertex -6.16643 -3.75 -12.7455
    endloop
  endfacet
  facet normal 0 -1 -0
    outer loop
      vertex -3.43832 -3.75 -12.4981
      vertex -5.46086 -3.75 -13.9676
      vertex -2.8438 -3.75 -13.1584
    endloop
  endfacet
  facet normal 0 -1 0
    outer loop
      vertex -4.51663 -3.75 -15.0162
      vertex -2.8438 -3.75 -13.1584
      vertex -5.46086 -3.75 -13.9676
    endloop
  endfacet
  facet normal 0 -1 -0
    outer loop
      vertex -2.8438 -3.75 -13.1584
      vertex -4.51663 -3.75 -15.0162
      vertex -2.125 -3.75 -13.6806
    endloop
  endfacet
  facet normal 0 -1 0
    outer loop
      vertex -3.375 -3.75 -15.8457
      vertex -2.125 -3.75 -13.6806
      vertex -4.51663 -3.75 -15.0162
    endloop
  endfacet
  facet normal 0 -1 0
    outer loop
      vertex -2.08586 -3.75 -16.4196
      vertex -1.31332 -3.75 -14.042
      vertex -3.375 -3.75 -15.8457
    endloop
  endfacet
  facet normal 0 -1 -0
    outer loop
      vertex -2.125 -3.75 -13.6806
      vertex -3.375 -3.75 -15.8457
      vertex -1.31332 -3.75 -14.042
    endloop
  endfacet
  facet normal 0 -1 0
    outer loop
      vertex 2.125 -3.75 -6.31939
      vertex 5.46086 -3.75 -6.03245
      vertex 1.48052 -3.75 -6.03245
    endloop
  endfacet
  facet normal 0 -1 0
    outer loop
      vertex 2.8438 -3.75 -6.84163
      vertex 5.46086 -3.75 -6.03245
      vertex 2.125 -3.75 -6.31939
    endloop
  endfacet
  facet normal 0 -1 0
    outer loop
      vertex 3.43832 -3.75 -7.50191
      vertex 5.46086 -3.75 -6.03245
      vertex 2.8438 -3.75 -6.84163
    endloop
  endfacet
  facet normal 0 -1 -0
    outer loop
      vertex 5.46086 -3.75 -6.03245
      vertex 3.43832 -3.75 -7.50191
      vertex 6.16643 -3.75 -7.25453
    endloop
  endfacet
  facet normal 0 -1 0
    outer loop
      vertex 3.88257 -3.75 -8.27137
      vertex 6.16643 -3.75 -7.25453
      vertex 3.43832 -3.75 -7.50191
    endloop
  endfacet
  facet normal 0 -1 0
    outer loop
      vertex 3.88257 -3.75 -8.27137
      vertex 6.6025 -3.75 -8.5966
      vertex 6.16643 -3.75 -7.25453
    endloop
  endfacet
  facet normal 0 -1 0
    outer loop
      vertex 4.15713 -3.75 -9.11637
      vertex 6.6025 -3.75 -8.5966
      vertex 3.88257 -3.75 -8.27137
    endloop
  endfacet
  facet normal 0 -1 0
    outer loop
      vertex 4.24536 -3.75 -9.95582
      vertex 6.6025 -3.75 -8.5966
      vertex 4.15713 -3.75 -9.11637
    endloop
  endfacet
  facet normal 0 -1 0
    outer loop
      vertex 6.75 -3.75 -10
      vertex 4.24536 -3.75 -9.95582
      vertex 4.25 -3.75 -10
    endloop
  endfacet
  facet normal 0 -1 0
    outer loop
      vertex 4.24536 -3.75 -9.95582
      vertex 6.75 -3.75 -10
      vertex 6.6025 -3.75 -8.5966
    endloop
  endfacet
  facet normal 0 -1 0
    outer loop
      vertex 4.16177 -3.75 -10.8394
      vertex 6.75 -3.75 -10
      vertex 4.25 -3.75 -10
    endloop
  endfacet
  facet normal 0 -1 0
    outer loop
      vertex 6.6025 -3.75 -11.4034
      vertex 4.16177 -3.75 -10.8394
      vertex 4.15713 -3.75 -10.8836
    endloop
  endfacet
  facet normal 0 -1 0
    outer loop
      vertex 4.16177 -3.75 -10.8394
      vertex 6.6025 -3.75 -11.4034
      vertex 6.75 -3.75 -10
    endloop
  endfacet
  facet normal 0 -1 0
    outer loop
      vertex 3.88257 -3.75 -11.7286
      vertex 6.6025 -3.75 -11.4034
      vertex 4.15713 -3.75 -10.8836
    endloop
  endfacet
  facet normal 0 -1 0
    outer loop
      vertex 6.16643 -3.75 -12.7455
      vertex 3.88257 -3.75 -11.7286
      vertex 3.43832 -3.75 -12.4981
    endloop
  endfacet
  facet normal 0 -1 0
    outer loop
      vertex 3.88257 -3.75 -11.7286
      vertex 6.16643 -3.75 -12.7455
      vertex 6.6025 -3.75 -11.4034
    endloop
  endfacet
  facet normal 0 -1 0
    outer loop
      vertex 5.46086 -3.75 -13.9676
      vertex 3.43832 -3.75 -12.4981
      vertex 2.8438 -3.75 -13.1584
    endloop
  endfacet
  facet normal 0 -1 0
    outer loop
      vertex 4.51663 -3.75 -15.0162
      vertex 2.8438 -3.75 -13.1584
      vertex 2.125 -3.75 -13.6806
    endloop
  endfacet
  facet normal 0 -1 0
    outer loop
      vertex 3.43832 -3.75 -12.4981
      vertex 5.46086 -3.75 -13.9676
      vertex 6.16643 -3.75 -12.7455
    endloop
  endfacet
  facet normal 0 -1 0
    outer loop
      vertex 3.375 -3.75 -15.8457
      vertex 2.125 -3.75 -13.6806
      vertex 1.31332 -3.75 -14.042
    endloop
  endfacet
  facet normal 0 -1 0
    outer loop
      vertex 2.08586 -3.75 -16.4196
      vertex 1.31332 -3.75 -14.042
      vertex 0.444245 -3.75 -14.2267
    endloop
  endfacet
  facet normal 0 -1 -0
    outer loop
      vertex -1.31332 -3.75 -14.042
      vertex -2.08586 -3.75 -16.4196
      vertex -0.444245 -3.75 -14.2267
    endloop
  endfacet
  facet normal 0 -1 0
    outer loop
      vertex 2.8438 -3.75 -13.1584
      vertex 4.51663 -3.75 -15.0162
      vertex 5.46086 -3.75 -13.9676
    endloop
  endfacet
  facet normal 0 -1 0
    outer loop
      vertex -0.705566 -3.75 -16.713
      vertex -0.444245 -3.75 -14.2267
      vertex -2.08586 -3.75 -16.4196
    endloop
  endfacet
  facet normal 0 -1 0
    outer loop
      vertex 2.125 -3.75 -13.6806
      vertex 3.375 -3.75 -15.8457
      vertex 4.51663 -3.75 -15.0162
    endloop
  endfacet
  facet normal 0 -1 -0
    outer loop
      vertex -0.444245 -3.75 -14.2267
      vertex -0.705566 -3.75 -16.713
      vertex 0.444245 -3.75 -14.2267
    endloop
  endfacet
  facet normal 0 -1 0
    outer loop
      vertex 1.31332 -3.75 -14.042
      vertex 2.08586 -3.75 -16.4196
      vertex 3.375 -3.75 -15.8457
    endloop
  endfacet
  facet normal 0 -1 0
    outer loop
      vertex 0.705566 -3.75 -16.713
      vertex 0.444245 -3.75 -14.2267
      vertex -0.705566 -3.75 -16.713
    endloop
  endfacet
  facet normal 0 -1 0
    outer loop
      vertex 0.444245 -3.75 -14.2267
      vertex 0.705566 -3.75 -16.713
      vertex 2.08586 -3.75 -16.4196
    endloop
  endfacet
  facet normal -0.994522 0 0.104529
    outer loop
      vertex -6.75 -3.75 -10
      vertex -6.6025 0.493744 -8.5966
      vertex -6.75 0.778534 -10
    endloop
  endfacet
  facet normal -0.994522 0 0.104529
    outer loop
      vertex -6.6025 0.493744 -8.5966
      vertex -6.75 -3.75 -10
      vertex -6.6025 -3.75 -8.5966
    endloop
  endfacet
  facet normal -0.951056 0 0.309017
    outer loop
      vertex -6.6025 -3.75 -8.5966
      vertex -6.16643 -0.106238 -7.25453
      vertex -6.6025 0.493744 -8.5966
    endloop
  endfacet
  facet normal -0.951056 0 0.309017
    outer loop
      vertex -6.16643 -0.106238 -7.25453
      vertex -6.6025 -3.75 -8.5966
      vertex -6.16643 -3.75 -7.25453
    endloop
  endfacet
  facet normal -0.406737 0 0.913545
    outer loop
      vertex -2.26576 -3.18289 -3.66046
      vertex -2.08586 -3.75 -3.58037
      vertex -2.08586 -3.22422 -3.58037
    endloop
  endfacet
  facet normal -0.406737 1.45497e-07 0.913545
    outer loop
      vertex -3.375 -3.75 -4.15433
      vertex -2.26576 -3.18289 -3.66046
      vertex -3.31443 -2.76599 -4.12736
    endloop
  endfacet
  facet normal -0.406735 0 0.913546
    outer loop
      vertex -3.375 -3.75 -4.15433
      vertex -3.31443 -2.76599 -4.12736
      vertex -3.375 -2.73046 -4.15433
    endloop
  endfacet
  facet normal -0.406737 7.08369e-09 0.913545
    outer loop
      vertex -2.26576 -3.18289 -3.66046
      vertex -3.375 -3.75 -4.15433
      vertex -2.08586 -3.75 -3.58037
    endloop
  endfacet
  facet normal -1.91061e-06 -1 2.62973e-06
    outer loop
      vertex -4.51663 -3.75 -4.98377
      vertex -5.46086 -3.75 -6.03245
      vertex -3.375 -3.75 -4.15433
    endloop
  endfacet
  facet normal -0.743145 3.40416e-08 0.669131
    outer loop
      vertex -5.46086 -3.75 -6.03245
      vertex -4.51663 -1.92784 -4.98377
      vertex -5.36408 -1.11195 -5.92496
    endloop
  endfacet
  facet normal -0.743144 0 0.669131
    outer loop
      vertex -5.46086 -3.75 -6.03245
      vertex -5.36408 -1.11195 -5.92496
      vertex -5.46086 -0.99519 -6.03245
    endloop
  endfacet
  facet normal -0.743145 0 0.669131
    outer loop
      vertex -4.51663 -1.92784 -4.98377
      vertex -5.46086 -3.75 -6.03245
      vertex -4.51663 -3.75 -4.98377
    endloop
  endfacet
  facet normal -0.951056 0 -0.309017
    outer loop
      vertex -6.16643 -3.75 -12.7455
      vertex -6.32911 1.24752 -12.2448
      vertex -6.16643 1.50592 -12.7455
    endloop
  endfacet
  facet normal -0.951056 -1.14673e-09 -0.309017
    outer loop
      vertex -6.16643 -3.75 -12.7455
      vertex -6.50522 1.05976 -11.7028
      vertex -6.32911 1.24752 -12.2448
    endloop
  endfacet
  facet normal -0.951056 -2.45184e-08 -0.309017
    outer loop
      vertex -6.6025 -3.75 -11.4034
      vertex -6.50522 1.05976 -11.7028
      vertex -6.16643 -3.75 -12.7455
    endloop
  endfacet
  facet normal -0.951057 0 -0.309017
    outer loop
      vertex -6.50522 1.05976 -11.7028
      vertex -6.6025 -3.75 -11.4034
      vertex -6.6025 1.00801 -11.4034
    endloop
  endfacet
  facet normal -0.587785 -0 -0.809017
    outer loop
      vertex -4.51663 2.67786 -15.0162
      vertex -3.375 -3.75 -15.8457
      vertex -4.51663 -3.75 -15.0162
    endloop
  endfacet
  facet normal -0.587785 0 -0.809017
    outer loop
      vertex -3.375 -3.75 -15.8457
      vertex -4.51663 2.67786 -15.0162
      vertex -3.375 3.10594 -15.8457
    endloop
  endfacet
  facet normal -0.743145 0 -0.669131
    outer loop
      vertex -4.51663 -3.75 -15.0162
      vertex -5.46086 2.13663 -13.9676
      vertex -4.51663 2.67786 -15.0162
    endloop
  endfacet
  facet normal -0.743145 -0 -0.669131
    outer loop
      vertex -5.46086 2.13663 -13.9676
      vertex -4.51663 -3.75 -15.0162
      vertex -5.46086 -3.75 -13.9676
    endloop
  endfacet
  facet normal 0.207911 0 -0.978148
    outer loop
      vertex 0.705566 -3.75 -16.713
      vertex 2.08586 3.40216 -16.4196
      vertex 2.08586 -3.75 -16.4196
    endloop
  endfacet
  facet normal 0.207911 0 -0.978148
    outer loop
      vertex 2.08586 3.40216 -16.4196
      vertex 0.705566 -3.75 -16.713
      vertex 0.705566 3.55358 -16.713
    endloop
  endfacet
  facet normal 0.406737 0 -0.913545
    outer loop
      vertex 2.08586 -3.75 -16.4196
      vertex 3.375 3.10594 -15.8457
      vertex 3.375 -3.75 -15.8457
    endloop
  endfacet
  facet normal 0.406737 0 -0.913545
    outer loop
      vertex 3.375 3.10594 -15.8457
      vertex 2.08586 -3.75 -16.4196
      vertex 2.08586 3.40216 -16.4196
    endloop
  endfacet
  facet normal 0.866025 0 -0.5
    outer loop
      vertex 5.46086 -3.75 -13.9676
      vertex 6.16643 1.50592 -12.7455
      vertex 6.16643 -3.75 -12.7455
    endloop
  endfacet
  facet normal 0.866025 0 -0.5
    outer loop
      vertex 6.16643 1.50592 -12.7455
      vertex 5.46086 -3.75 -13.9676
      vertex 5.46086 2.13663 -13.9676
    endloop
  endfacet
  facet normal 0.951057 0 -0.309017
    outer loop
      vertex 6.6025 -3.75 -11.4034
      vertex 6.50522 1.05976 -11.7028
      vertex 6.6025 1.00801 -11.4034
    endloop
  endfacet
  facet normal 0.951056 -2.45184e-08 -0.309017
    outer loop
      vertex 6.16643 -3.75 -12.7455
      vertex 6.50522 1.05976 -11.7028
      vertex 6.6025 -3.75 -11.4034
    endloop
  endfacet
  facet normal 0.951056 -1.14673e-09 -0.309017
    outer loop
      vertex 6.50522 1.05976 -11.7028
      vertex 6.16643 -3.75 -12.7455
      vertex 6.32911 1.24752 -12.2448
    endloop
  endfacet
  facet normal 0.951056 0 -0.309017
    outer loop
      vertex 6.32911 1.24752 -12.2448
      vertex 6.16643 -3.75 -12.7455
      vertex 6.16643 1.50592 -12.7455
    endloop
  endfacet
  facet normal 0.994522 0 -0.104529
    outer loop
      vertex 6.64547 0.897337 -10.9945
      vertex 6.6025 -3.75 -11.4034
      vertex 6.6025 1.00801 -11.4034
    endloop
  endfacet
  facet normal 0.994522 -6.72003e-08 -0.104528
    outer loop
      vertex 6.6025 -3.75 -11.4034
      vertex 6.64547 0.897337 -10.9945
      vertex 6.66448 0.872671 -10.8136
    endloop
  endfacet
  facet normal -0.207911 -0 -0.978148
    outer loop
      vertex -2.08586 3.40216 -16.4196
      vertex -0.705566 -3.75 -16.713
      vertex -2.08586 -3.75 -16.4196
    endloop
  endfacet
  facet normal -0.207911 0 -0.978148
    outer loop
      vertex -0.705566 -3.75 -16.713
      vertex -2.08586 3.40216 -16.4196
      vertex -0.705566 3.55358 -16.713
    endloop
  endfacet
  facet normal -0.866025 0 -0.5
    outer loop
      vertex -5.46086 -3.75 -13.9676
      vertex -6.16643 1.50592 -12.7455
      vertex -5.46086 2.13663 -13.9676
    endloop
  endfacet
  facet normal -0.866025 -0 -0.5
    outer loop
      vertex -6.16643 1.50592 -12.7455
      vertex -5.46086 -3.75 -13.9676
      vertex -6.16643 -3.75 -12.7455
    endloop
  endfacet
  facet normal 0.743145 0 -0.669131
    outer loop
      vertex 4.51663 -3.75 -15.0162
      vertex 5.46086 2.13663 -13.9676
      vertex 5.46086 -3.75 -13.9676
    endloop
  endfacet
  facet normal 0.743145 0 -0.669131
    outer loop
      vertex 5.46086 2.13663 -13.9676
      vertex 4.51663 -3.75 -15.0162
      vertex 4.51663 2.67786 -15.0162
    endloop
  endfacet
  facet normal -0.406737 -0 -0.913545
    outer loop
      vertex -3.375 3.10594 -15.8457
      vertex -2.08586 -3.75 -16.4196
      vertex -3.375 -3.75 -15.8457
    endloop
  endfacet
  facet normal -0.406737 0 -0.913545
    outer loop
      vertex -2.08586 -3.75 -16.4196
      vertex -3.375 3.10594 -15.8457
      vertex -2.08586 3.40216 -16.4196
    endloop
  endfacet
  facet normal 0 0 -1
    outer loop
      vertex -0.705566 -3.75 -16.713
      vertex 0.705566 3.55358 -16.713
      vertex 0.705566 -3.75 -16.713
    endloop
  endfacet
  facet normal -0 0 -1
    outer loop
      vertex 0.705566 3.55358 -16.713
      vertex -0.705566 -3.75 -16.713
      vertex -0.705566 3.55358 -16.713
    endloop
  endfacet
  facet normal -0.994522 -9.55305e-09 -0.10453
    outer loop
      vertex 4.15713 -3.75 -9.11637
      vertex 4.19428 7.25 -9.46982
      vertex 4.24536 -3.75 -9.95582
    endloop
  endfacet
  facet normal -0.994522 0 -0.104529
    outer loop
      vertex 4.19428 7.25 -9.46982
      vertex 4.15713 -3.75 -9.11637
      vertex 4.15713 7.25 -9.11637
    endloop
  endfacet
  facet normal -0.994522 0 0.104525
    outer loop
      vertex 4.16177 -3.75 -10.8394
      vertex 4.15713 7.25 -10.8836
      vertex 4.15713 -3.75 -10.8836
    endloop
  endfacet
  facet normal -0.994522 1.85349e-08 0.10453
    outer loop
      vertex 4.15713 7.25 -10.8836
      vertex 4.16177 -3.75 -10.8394
      vertex 4.21285 7.25 -10.3534
    endloop
  endfacet
  facet normal -0 0 1
    outer loop
      vertex -0.444245 7.25 -14.2267
      vertex 0.444245 -3.75 -14.2267
      vertex 0.444245 7.25 -14.2267
    endloop
  endfacet
  facet normal 0 0 1
    outer loop
      vertex 0.444245 -3.75 -14.2267
      vertex -0.444245 7.25 -14.2267
      vertex -0.444245 -3.75 -14.2267
    endloop
  endfacet
  facet normal 0 0 -1
    outer loop
      vertex -0.444245 -3.75 -5.77328
      vertex 0.444245 7.25 -5.77328
      vertex 0.444245 -3.75 -5.77328
    endloop
  endfacet
  facet normal -0 0 -1
    outer loop
      vertex 0.444245 7.25 -5.77328
      vertex -0.444245 -3.75 -5.77328
      vertex -0.444245 7.25 -5.77328
    endloop
  endfacet
  facet normal -0.406736 0 -0.913546
    outer loop
      vertex 1.48052 -3.75 -6.03245
      vertex 2.125 7.25 -6.31939
      vertex 2.125 -3.75 -6.31939
    endloop
  endfacet
  facet normal -0.406736 -0 -0.913546
    outer loop
      vertex 1.31332 7.25 -5.95801
      vertex 1.48052 -3.75 -6.03245
      vertex 1.31332 -3.75 -5.95801
    endloop
  endfacet
  facet normal -0.406736 8.11839e-10 -0.913546
    outer loop
      vertex 1.48052 -3.75 -6.03245
      vertex 1.31332 7.25 -5.95801
      vertex 2.125 7.25 -6.31939
    endloop
  endfacet
  facet normal 0.406736 0 -0.913546
    outer loop
      vertex -1.48052 -3.75 -6.03245
      vertex -1.31332 7.25 -5.95801
      vertex -1.31332 -3.75 -5.95801
    endloop
  endfacet
  facet normal 0.406736 0 -0.913546
    outer loop
      vertex -2.125 7.25 -6.31939
      vertex -1.48052 -3.75 -6.03245
      vertex -2.125 -3.75 -6.31939
    endloop
  endfacet
  facet normal 0.406736 -2.04393e-09 -0.913546
    outer loop
      vertex -1.48052 -3.75 -6.03245
      vertex -2.125 7.25 -6.31939
      vertex -1.31332 7.25 -5.95801
    endloop
  endfacet
  facet normal 0.951057 0 -0.309017
    outer loop
      vertex -3.88257 -3.75 -8.27137
      vertex -4.15713 7.25 -9.11637
      vertex -3.88257 7.25 -8.27137
    endloop
  endfacet
  facet normal 0.951057 0 -0.309017
    outer loop
      vertex -4.15713 7.25 -9.11637
      vertex -3.88257 -3.75 -8.27137
      vertex -4.15713 -3.75 -9.11637
    endloop
  endfacet
  facet normal -0.866026 0 -0.499999
    outer loop
      vertex 3.88257 -3.75 -8.27137
      vertex 3.43832 7.25 -7.50191
      vertex 3.88257 7.25 -8.27137
    endloop
  endfacet
  facet normal -0.866026 -0 -0.499999
    outer loop
      vertex 3.43832 7.25 -7.50191
      vertex 3.88257 -3.75 -8.27137
      vertex 3.43832 -3.75 -7.50191
    endloop
  endfacet
  facet normal -0.587786 0 -0.809017
    outer loop
      vertex 2.125 -3.75 -6.31939
      vertex 2.8438 7.25 -6.84163
      vertex 2.8438 -3.75 -6.84163
    endloop
  endfacet
  facet normal -0.587786 0 -0.809017
    outer loop
      vertex 2.8438 7.25 -6.84163
      vertex 2.125 -3.75 -6.31939
      vertex 2.125 7.25 -6.31939
    endloop
  endfacet
  facet normal -0.207912 0 -0.978147
    outer loop
      vertex 0.444245 -3.75 -5.77328
      vertex 1.31332 7.25 -5.95801
      vertex 1.31332 -3.75 -5.95801
    endloop
  endfacet
  facet normal -0.207912 0 -0.978147
    outer loop
      vertex 1.31332 7.25 -5.95801
      vertex 0.444245 -3.75 -5.77328
      vertex 0.444245 7.25 -5.77328
    endloop
  endfacet
  facet normal 0.994522 -0 0.104529
    outer loop
      vertex -4.25 -3.75 -10
      vertex -4.15713 7.25 -10.8836
      vertex -4.25 7.25 -10
    endloop
  endfacet
  facet normal 0.994522 0 0.104529
    outer loop
      vertex -4.15713 7.25 -10.8836
      vertex -4.25 -3.75 -10
      vertex -4.15713 -3.75 -10.8836
    endloop
  endfacet
  facet normal 0.866026 0 -0.499999
    outer loop
      vertex -3.43832 -3.75 -7.50191
      vertex -3.88257 7.25 -8.27137
      vertex -3.43832 7.25 -7.50191
    endloop
  endfacet
  facet normal 0.866026 0 -0.499999
    outer loop
      vertex -3.88257 7.25 -8.27137
      vertex -3.43832 -3.75 -7.50191
      vertex -3.88257 -3.75 -8.27137
    endloop
  endfacet
  facet normal -0.994522 -9.06207e-09 -0.104525
    outer loop
      vertex 4.24536 -3.75 -9.95582
      vertex 4.25 7.25 -10
      vertex 4.25 -3.75 -10
    endloop
  endfacet
  facet normal -0.994522 -2.68421e-08 -0.104529
    outer loop
      vertex 4.25 7.25 -10
      vertex 4.24536 -3.75 -9.95582
      vertex 4.19428 7.25 -9.46982
    endloop
  endfacet
  facet normal -0.994522 1.47997e-08 0.10453
    outer loop
      vertex 4.25 -3.75 -10
      vertex 4.21285 7.25 -10.3534
      vertex 4.16177 -3.75 -10.8394
    endloop
  endfacet
  facet normal -0.994522 9.06246e-09 0.104529
    outer loop
      vertex 4.21285 7.25 -10.3534
      vertex 4.25 -3.75 -10
      vertex 4.25 7.25 -10
    endloop
  endfacet
  facet normal -0.866026 0 0.499999
    outer loop
      vertex 3.43832 -3.75 -12.4981
      vertex 3.88257 7.25 -11.7286
      vertex 3.43832 7.25 -12.4981
    endloop
  endfacet
  facet normal -0.866026 0 0.499999
    outer loop
      vertex 3.88257 7.25 -11.7286
      vertex 3.43832 -3.75 -12.4981
      vertex 3.88257 -3.75 -11.7286
    endloop
  endfacet
  facet normal -0.406736 0 0.913546
    outer loop
      vertex 1.31332 7.25 -14.042
      vertex 2.125 -3.75 -13.6806
      vertex 2.125 7.25 -13.6806
    endloop
  endfacet
  facet normal -0.406736 0 0.913546
    outer loop
      vertex 2.125 -3.75 -13.6806
      vertex 1.31332 7.25 -14.042
      vertex 1.31332 -3.75 -14.042
    endloop
  endfacet
  facet normal 0.406736 0 0.913546
    outer loop
      vertex -2.125 7.25 -13.6806
      vertex -1.31332 -3.75 -14.042
      vertex -1.31332 7.25 -14.042
    endloop
  endfacet
  facet normal 0.406736 0 0.913546
    outer loop
      vertex -1.31332 -3.75 -14.042
      vertex -2.125 7.25 -13.6806
      vertex -2.125 -3.75 -13.6806
    endloop
  endfacet
  facet normal -0.951057 0 -0.309017
    outer loop
      vertex 4.15713 -3.75 -9.11637
      vertex 3.88257 7.25 -8.27137
      vertex 4.15713 7.25 -9.11637
    endloop
  endfacet
  facet normal -0.951057 -0 -0.309017
    outer loop
      vertex 3.88257 7.25 -8.27137
      vertex 4.15713 -3.75 -9.11637
      vertex 3.88257 -3.75 -8.27137
    endloop
  endfacet
  facet normal -0.743145 0 -0.669131
    outer loop
      vertex 3.43832 -3.75 -7.50191
      vertex 2.8438 7.25 -6.84163
      vertex 3.43832 7.25 -7.50191
    endloop
  endfacet
  facet normal -0.743145 -0 -0.669131
    outer loop
      vertex 2.8438 7.25 -6.84163
      vertex 3.43832 -3.75 -7.50191
      vertex 2.8438 -3.75 -6.84163
    endloop
  endfacet
  facet normal 0.994522 0 -0.10453
    outer loop
      vertex -4.15713 -3.75 -9.11637
      vertex -4.25 7.25 -10
      vertex -4.15713 7.25 -9.11637
    endloop
  endfacet
  facet normal 0.994522 0 -0.10453
    outer loop
      vertex -4.25 7.25 -10
      vertex -4.15713 -3.75 -9.11637
      vertex -4.25 -3.75 -10
    endloop
  endfacet
  facet normal 0.207912 0 -0.978147
    outer loop
      vertex -1.31332 -3.75 -5.95801
      vertex -0.444245 7.25 -5.77328
      vertex -0.444245 -3.75 -5.77328
    endloop
  endfacet
  facet normal 0.207912 0 -0.978147
    outer loop
      vertex -0.444245 7.25 -5.77328
      vertex -1.31332 -3.75 -5.95801
      vertex -1.31332 7.25 -5.95801
    endloop
  endfacet
  facet normal 0.587785 0 -0.809017
    outer loop
      vertex -2.8438 -3.75 -6.84163
      vertex -2.125 7.25 -6.31939
      vertex -2.125 -3.75 -6.31939
    endloop
  endfacet
  facet normal 0.587785 0 -0.809017
    outer loop
      vertex -2.125 7.25 -6.31939
      vertex -2.8438 -3.75 -6.84163
      vertex -2.8438 7.25 -6.84163
    endloop
  endfacet
  facet normal 0.743145 0 -0.669131
    outer loop
      vertex -2.8438 -3.75 -6.84163
      vertex -3.43832 7.25 -7.50191
      vertex -2.8438 7.25 -6.84163
    endloop
  endfacet
  facet normal 0.743145 0 -0.669131
    outer loop
      vertex -3.43832 7.25 -7.50191
      vertex -2.8438 -3.75 -6.84163
      vertex -3.43832 -3.75 -7.50191
    endloop
  endfacet
  facet normal -0.951057 0 0.309017
    outer loop
      vertex 3.88257 -3.75 -11.7286
      vertex 4.15713 7.25 -10.8836
      vertex 3.88257 7.25 -11.7286
    endloop
  endfacet
  facet normal -0.951057 0 0.309017
    outer loop
      vertex 4.15713 7.25 -10.8836
      vertex 3.88257 -3.75 -11.7286
      vertex 4.15713 -3.75 -10.8836
    endloop
  endfacet
  facet normal -0.207912 0 0.978147
    outer loop
      vertex 0.444245 7.25 -14.2267
      vertex 1.31332 -3.75 -14.042
      vertex 1.31332 7.25 -14.042
    endloop
  endfacet
  facet normal -0.207912 0 0.978147
    outer loop
      vertex 1.31332 -3.75 -14.042
      vertex 0.444245 7.25 -14.2267
      vertex 0.444245 -3.75 -14.2267
    endloop
  endfacet
  facet normal -0.587786 0 0.809017
    outer loop
      vertex 2.125 7.25 -13.6806
      vertex 2.8438 -3.75 -13.1584
      vertex 2.8438 7.25 -13.1584
    endloop
  endfacet
  facet normal -0.587786 0 0.809017
    outer loop
      vertex 2.8438 -3.75 -13.1584
      vertex 2.125 7.25 -13.6806
      vertex 2.125 -3.75 -13.6806
    endloop
  endfacet
  facet normal -0.743145 0 0.669131
    outer loop
      vertex 2.8438 -3.75 -13.1584
      vertex 3.43832 7.25 -12.4981
      vertex 2.8438 7.25 -13.1584
    endloop
  endfacet
  facet normal -0.743145 0 0.669131
    outer loop
      vertex 3.43832 7.25 -12.4981
      vertex 2.8438 -3.75 -13.1584
      vertex 3.43832 -3.75 -12.4981
    endloop
  endfacet
  facet normal 0.207912 0 0.978147
    outer loop
      vertex -1.31332 7.25 -14.042
      vertex -0.444245 -3.75 -14.2267
      vertex -0.444245 7.25 -14.2267
    endloop
  endfacet
  facet normal 0.207912 0 0.978147
    outer loop
      vertex -0.444245 -3.75 -14.2267
      vertex -1.31332 7.25 -14.042
      vertex -1.31332 -3.75 -14.042
    endloop
  endfacet
  facet normal 0.951057 -0 0.309017
    outer loop
      vertex -4.15713 -3.75 -10.8836
      vertex -3.88257 7.25 -11.7286
      vertex -4.15713 7.25 -10.8836
    endloop
  endfacet
  facet normal 0.951057 0 0.309017
    outer loop
      vertex -3.88257 7.25 -11.7286
      vertex -4.15713 -3.75 -10.8836
      vertex -3.88257 -3.75 -11.7286
    endloop
  endfacet
  facet normal 0.866026 -0 0.499999
    outer loop
      vertex -3.88257 -3.75 -11.7286
      vertex -3.43832 7.25 -12.4981
      vertex -3.88257 7.25 -11.7286
    endloop
  endfacet
  facet normal 0.866026 0 0.499999
    outer loop
      vertex -3.43832 7.25 -12.4981
      vertex -3.88257 -3.75 -11.7286
      vertex -3.43832 -3.75 -12.4981
    endloop
  endfacet
  facet normal 0.743145 -0 0.669131
    outer loop
      vertex -3.43832 -3.75 -12.4981
      vertex -2.8438 7.25 -13.1584
      vertex -3.43832 7.25 -12.4981
    endloop
  endfacet
  facet normal 0.743145 0 0.669131
    outer loop
      vertex -2.8438 7.25 -13.1584
      vertex -3.43832 -3.75 -12.4981
      vertex -2.8438 -3.75 -13.1584
    endloop
  endfacet
  facet normal 0.587786 0 0.809017
    outer loop
      vertex -2.8438 7.25 -13.1584
      vertex -2.125 -3.75 -13.6806
      vertex -2.125 7.25 -13.6806
    endloop
  endfacet
  facet normal 0.587786 0 0.809017
    outer loop
      vertex -2.125 -3.75 -13.6806
      vertex -2.8438 7.25 -13.1584
      vertex -2.8438 -3.75 -13.1584
    endloop
  endfacet
  facet normal 0.866025 0.5 0
    outer loop
      vertex 4.65908 2.07436 22
      vertex 4.12599 2.9977 2
      vertex 4.12599 2.9977 22
    endloop
  endfacet
  facet normal 0.866025 0.5 0
    outer loop
      vertex 4.12599 2.9977 2
      vertex 4.65908 2.07436 22
      vertex 4.65908 2.07436 2
    endloop
  endfacet
  facet normal -0.951057 0.309017 0
    outer loop
      vertex -4.98855 1.06035 2
      vertex -4.65908 2.07436 22
      vertex -4.65908 2.07436 2
    endloop
  endfacet
  facet normal -0.951057 0.309017 0
    outer loop
      vertex -4.65908 2.07436 22
      vertex -4.98855 1.06035 2
      vertex -4.98855 1.06035 22
    endloop
  endfacet
  facet normal 0.743145 0.669131 0
    outer loop
      vertex 4.12599 2.9977 22
      vertex 3.41257 3.79004 2
      vertex 3.41257 3.79004 22
    endloop
  endfacet
  facet normal 0.743145 0.669131 0
    outer loop
      vertex 3.41257 3.79004 2
      vertex 4.12599 2.9977 22
      vertex 4.12599 2.9977 2
    endloop
  endfacet
  facet normal 0.207912 0.978147 -0
    outer loop
      vertex 1.57599 4.85039 2
      vertex 0.533094 5.07206 22
      vertex 1.57599 4.85039 22
    endloop
  endfacet
  facet normal 0.207912 0.978147 0
    outer loop
      vertex 0.533094 5.07206 22
      vertex 1.57599 4.85039 2
      vertex 0.533094 5.07206 2
    endloop
  endfacet
  facet normal 0.406737 0.913545 -0
    outer loop
      vertex 2.55 4.41673 2
      vertex 1.57599 4.85039 22
      vertex 2.55 4.41673 22
    endloop
  endfacet
  facet normal 0.406737 0.913545 0
    outer loop
      vertex 1.57599 4.85039 22
      vertex 2.55 4.41673 2
      vertex 1.57599 4.85039 2
    endloop
  endfacet
  facet normal -0.406737 0.913545 0
    outer loop
      vertex -1.57599 4.85039 2
      vertex -2.55 4.41673 22
      vertex -1.57599 4.85039 22
    endloop
  endfacet
  facet normal -0.406737 0.913545 0
    outer loop
      vertex -2.55 4.41673 22
      vertex -1.57599 4.85039 2
      vertex -2.55 4.41673 2
    endloop
  endfacet
  facet normal -0.866025 0.5 0
    outer loop
      vertex -4.65908 2.07436 2
      vertex -4.12599 2.9977 22
      vertex -4.12599 2.9977 2
    endloop
  endfacet
  facet normal -0.866025 0.5 0
    outer loop
      vertex -4.12599 2.9977 22
      vertex -4.65908 2.07436 2
      vertex -4.65908 2.07436 22
    endloop
  endfacet
  facet normal 0.994522 -0.104529 0
    outer loop
      vertex 4.98855 -1.06035 22
      vertex 5.1 0 2
      vertex 5.1 0 22
    endloop
  endfacet
  facet normal 0.994522 -0.104529 0
    outer loop
      vertex 5.1 0 2
      vertex 4.98855 -1.06035 22
      vertex 4.98855 -1.06035 2
    endloop
  endfacet
  facet normal 0.951057 0.309017 0
    outer loop
      vertex 4.98855 1.06035 22
      vertex 4.65908 2.07436 2
      vertex 4.65908 2.07436 22
    endloop
  endfacet
  facet normal 0.951057 0.309017 0
    outer loop
      vertex 4.65908 2.07436 2
      vertex 4.98855 1.06035 22
      vertex 4.98855 1.06035 2
    endloop
  endfacet
  facet normal 0 1 -0
    outer loop
      vertex 0.533094 5.07206 2
      vertex -0.533094 5.07206 22
      vertex 0.533094 5.07206 22
    endloop
  endfacet
  facet normal 0 1 0
    outer loop
      vertex -0.533094 5.07206 22
      vertex 0.533094 5.07206 2
      vertex -0.533094 5.07206 2
    endloop
  endfacet
  facet normal 0.587785 0.809017 -0
    outer loop
      vertex 3.41257 3.79004 2
      vertex 2.55 4.41673 22
      vertex 3.41257 3.79004 22
    endloop
  endfacet
  facet normal 0.587785 0.809017 0
    outer loop
      vertex 2.55 4.41673 22
      vertex 3.41257 3.79004 2
      vertex 2.55 4.41673 2
    endloop
  endfacet
  facet normal -0.994522 0.104529 0
    outer loop
      vertex -5.1 0 2
      vertex -4.98855 1.06035 22
      vertex -4.98855 1.06035 2
    endloop
  endfacet
  facet normal -0.994522 0.104529 0
    outer loop
      vertex -4.98855 1.06035 22
      vertex -5.1 0 2
      vertex -5.1 0 22
    endloop
  endfacet
  facet normal -0.587785 0.809017 0
    outer loop
      vertex -2.55 4.41673 2
      vertex -3.41257 3.79004 22
      vertex -2.55 4.41673 22
    endloop
  endfacet
  facet normal -0.587785 0.809017 0
    outer loop
      vertex -3.41257 3.79004 22
      vertex -2.55 4.41673 2
      vertex -3.41257 3.79004 2
    endloop
  endfacet
  facet normal -0.207912 0.978147 0
    outer loop
      vertex -0.533094 5.07206 2
      vertex -1.57599 4.85039 22
      vertex -0.533094 5.07206 22
    endloop
  endfacet
  facet normal -0.207912 0.978147 0
    outer loop
      vertex -1.57599 4.85039 22
      vertex -0.533094 5.07206 2
      vertex -1.57599 4.85039 2
    endloop
  endfacet
  facet normal -0.743145 0.669131 0
    outer loop
      vertex -4.12599 2.9977 2
      vertex -3.41257 3.79004 22
      vertex -3.41257 3.79004 2
    endloop
  endfacet
  facet normal -0.743145 0.669131 0
    outer loop
      vertex -3.41257 3.79004 22
      vertex -4.12599 2.9977 2
      vertex -4.12599 2.9977 22
    endloop
  endfacet
  facet normal 0.994522 0.104529 0
    outer loop
      vertex 5.1 0 22
      vertex 4.98855 1.06035 2
      vertex 4.98855 1.06035 22
    endloop
  endfacet
  facet normal 0.994522 0.104529 0
    outer loop
      vertex 4.98855 1.06035 2
      vertex 5.1 0 22
      vertex 5.1 0 2
    endloop
  endfacet
  facet normal 0.951057 -0.309017 0
    outer loop
      vertex 4.65908 -2.07436 22
      vertex 4.98855 -1.06035 2
      vertex 4.98855 -1.06035 22
    endloop
  endfacet
  facet normal 0.951057 -0.309017 0
    outer loop
      vertex 4.98855 -1.06035 2
      vertex 4.65908 -2.07436 22
      vertex 4.65908 -2.07436 2
    endloop
  endfacet
  facet normal 0 0 1
    outer loop
      vertex 4.98855 1.06035 22
      vertex 4.98855 -1.06035 22
      vertex 5.1 0 22
    endloop
  endfacet
  facet normal 0 0 1
    outer loop
      vertex 4.65908 2.07436 22
      vertex 4.98855 -1.06035 22
      vertex 4.98855 1.06035 22
    endloop
  endfacet
  facet normal 0 0 1
    outer loop
      vertex 4.65908 2.07436 22
      vertex 4.65908 -2.07436 22
      vertex 4.98855 -1.06035 22
    endloop
  endfacet
  facet normal 0 0 1
    outer loop
      vertex 4.12599 2.9977 22
      vertex 4.65908 -2.07436 22
      vertex 4.65908 2.07436 22
    endloop
  endfacet
  facet normal 0 0 1
    outer loop
      vertex 4.12599 2.9977 22
      vertex 4.12599 -2.9977 22
      vertex 4.65908 -2.07436 22
    endloop
  endfacet
  facet normal 0 0 1
    outer loop
      vertex 3.41257 3.79004 22
      vertex 4.12599 -2.9977 22
      vertex 4.12599 2.9977 22
    endloop
  endfacet
  facet normal 0 0 1
    outer loop
      vertex 3.41257 3.79004 22
      vertex 3.41257 -3.79004 22
      vertex 4.12599 -2.9977 22
    endloop
  endfacet
  facet normal 0 0 1
    outer loop
      vertex 2.55 4.41673 22
      vertex 3.41257 -3.79004 22
      vertex 3.41257 3.79004 22
    endloop
  endfacet
  facet normal 0 0 1
    outer loop
      vertex 2.55 4.41673 22
      vertex 2.55 -4.41673 22
      vertex 3.41257 -3.79004 22
    endloop
  endfacet
  facet normal 0 0 1
    outer loop
      vertex 1.57599 4.85039 22
      vertex 2.55 -4.41673 22
      vertex 2.55 4.41673 22
    endloop
  endfacet
  facet normal 0 0 1
    outer loop
      vertex 1.57599 4.85039 22
      vertex 1.57599 -4.85039 22
      vertex 2.55 -4.41673 22
    endloop
  endfacet
  facet normal 0 0 1
    outer loop
      vertex 0.533094 5.07206 22
      vertex 1.57599 -4.85039 22
      vertex 1.57599 4.85039 22
    endloop
  endfacet
  facet normal 0 0 1
    outer loop
      vertex 0.533094 5.07206 22
      vertex 0.533094 -5.07206 22
      vertex 1.57599 -4.85039 22
    endloop
  endfacet
  facet normal -0 0 1
    outer loop
      vertex -0.533094 5.07206 22
      vertex 0.533094 -5.07206 22
      vertex 0.533094 5.07206 22
    endloop
  endfacet
  facet normal 0 0 1
    outer loop
      vertex -0.533094 5.07206 22
      vertex -0.533094 -5.07206 22
      vertex 0.533094 -5.07206 22
    endloop
  endfacet
  facet normal -0 0 1
    outer loop
      vertex -1.57599 4.85039 22
      vertex -0.533094 -5.07206 22
      vertex -0.533094 5.07206 22
    endloop
  endfacet
  facet normal 0 0 1
    outer loop
      vertex -1.57599 4.85039 22
      vertex -1.57599 -4.85039 22
      vertex -0.533094 -5.07206 22
    endloop
  endfacet
  facet normal -0 0 1
    outer loop
      vertex -2.55 4.41673 22
      vertex -1.57599 -4.85039 22
      vertex -1.57599 4.85039 22
    endloop
  endfacet
  facet normal 0 0 1
    outer loop
      vertex -2.55 4.41673 22
      vertex -2.55 -4.41673 22
      vertex -1.57599 -4.85039 22
    endloop
  endfacet
  facet normal -0 0 1
    outer loop
      vertex -3.41257 3.79004 22
      vertex -2.55 -4.41673 22
      vertex -2.55 4.41673 22
    endloop
  endfacet
  facet normal 0 0 1
    outer loop
      vertex -3.41257 3.79004 22
      vertex -3.41257 -3.79004 22
      vertex -2.55 -4.41673 22
    endloop
  endfacet
  facet normal -0 0 1
    outer loop
      vertex -4.12599 2.9977 22
      vertex -3.41257 -3.79004 22
      vertex -3.41257 3.79004 22
    endloop
  endfacet
  facet normal 0 0 1
    outer loop
      vertex -4.12599 2.9977 22
      vertex -4.12599 -2.9977 22
      vertex -3.41257 -3.79004 22
    endloop
  endfacet
  facet normal -0 0 1
    outer loop
      vertex -4.65908 2.07436 22
      vertex -4.12599 -2.9977 22
      vertex -4.12599 2.9977 22
    endloop
  endfacet
  facet normal 0 0 1
    outer loop
      vertex -4.65908 2.07436 22
      vertex -4.65908 -2.07436 22
      vertex -4.12599 -2.9977 22
    endloop
  endfacet
  facet normal -0 0 1
    outer loop
      vertex -4.98855 1.06035 22
      vertex -4.65908 -2.07436 22
      vertex -4.65908 2.07436 22
    endloop
  endfacet
  facet normal 0 0 1
    outer loop
      vertex -4.98855 1.06035 22
      vertex -4.98855 -1.06035 22
      vertex -4.65908 -2.07436 22
    endloop
  endfacet
  facet normal 0 -0 1
    outer loop
      vertex -4.98855 -1.06035 22
      vertex -4.98855 1.06035 22
      vertex -5.1 0 22
    endloop
  endfacet
  facet normal 0.866025 -0.5 0
    outer loop
      vertex 4.12599 -2.9977 22
      vertex 4.65908 -2.07436 2
      vertex 4.65908 -2.07436 22
    endloop
  endfacet
  facet normal 0.866025 -0.5 0
    outer loop
      vertex 4.65908 -2.07436 2
      vertex 4.12599 -2.9977 22
      vertex 4.12599 -2.9977 2
    endloop
  endfacet
  facet normal -0.994522 -0.104529 0
    outer loop
      vertex -4.98855 -1.06035 2
      vertex -5.1 0 22
      vertex -5.1 0 2
    endloop
  endfacet
  facet normal -0.994522 -0.104529 0
    outer loop
      vertex -5.1 0 22
      vertex -4.98855 -1.06035 2
      vertex -4.98855 -1.06035 22
    endloop
  endfacet
  facet normal -0.866025 -0.5 0
    outer loop
      vertex -4.12599 -2.9977 2
      vertex -4.65908 -2.07436 22
      vertex -4.65908 -2.07436 2
    endloop
  endfacet
  facet normal -0.866025 -0.5 0
    outer loop
      vertex -4.65908 -2.07436 22
      vertex -4.12599 -2.9977 2
      vertex -4.12599 -2.9977 22
    endloop
  endfacet
  facet normal -0.951057 -0.309017 0
    outer loop
      vertex -4.65908 -2.07436 2
      vertex -4.98855 -1.06035 22
      vertex -4.98855 -1.06035 2
    endloop
  endfacet
  facet normal -0.951057 -0.309017 0
    outer loop
      vertex -4.98855 -1.06035 22
      vertex -4.65908 -2.07436 2
      vertex -4.65908 -2.07436 22
    endloop
  endfacet
endsolid OpenSCAD_Model
