solid OpenSCAD_Model
  facet normal 0.866025 0.5 0
    outer loop
      vertex 2.5 0 25
      vertex 1.25 2.16506 0
      vertex 1.25 2.16506 25
    endloop
  endfacet
  facet normal 0.866025 0.5 0
    outer loop
      vertex 1.25 2.16506 0
      vertex 2.5 0 25
      vertex 2.5 0 0
    endloop
  endfacet
  facet normal -0.866025 0.5 0
    outer loop
      vertex -2.5 0 0
      vertex -1.25 2.16506 25
      vertex -1.25 2.16506 0
    endloop
  endfacet
  facet normal -0.866025 0.5 0
    outer loop
      vertex -1.25 2.16506 25
      vertex -2.5 0 0
      vertex -2.5 0 25
    endloop
  endfacet
  facet normal 0 1 -0
    outer loop
      vertex 1.25 2.16506 0
      vertex -1.25 2.16506 25
      vertex 1.25 2.16506 25
    endloop
  endfacet
  facet normal 0 1 0
    outer loop
      vertex -1.25 2.16506 25
      vertex 1.25 2.16506 0
      vertex -1.25 2.16506 0
    endloop
  endfacet
  facet normal 0 0 1
    outer loop
      vertex 1 0 25
      vertex 2.5 0 25
      vertex 1.25 2.16506 25
    endloop
  endfacet
  facet normal 0 0 1
    outer loop
      vertex 2.5 0 25
      vertex 1 0 25
      vertex 1.25 -2.16506 25
    endloop
  endfacet
  facet normal 0 0 1
    outer loop
      vertex 1.25 2.16506 25
      vertex 0.5 0.866025 25
      vertex 1 0 25
    endloop
  endfacet
  facet normal 0 0 1
    outer loop
      vertex 1.25 2.16506 25
      vertex -0.499999 0.866025 25
      vertex 0.5 0.866025 25
    endloop
  endfacet
  facet normal 0 0 1
    outer loop
      vertex -0.499999 0.866025 25
      vertex -1.25 2.16506 25
      vertex -1 0 25
    endloop
  endfacet
  facet normal -0 0 1
    outer loop
      vertex -1.25 2.16506 25
      vertex -0.499999 0.866025 25
      vertex 1.25 2.16506 25
    endloop
  endfacet
  facet normal -0 0 1
    outer loop
      vertex 0.5 -0.866025 25
      vertex 1.25 -2.16506 25
      vertex 1 0 25
    endloop
  endfacet
  facet normal -0 0 1
    outer loop
      vertex -0.5 -0.866025 25
      vertex 1.25 -2.16506 25
      vertex 0.5 -0.866025 25
    endloop
  endfacet
  facet normal 0 0 1
    outer loop
      vertex -0.5 -0.866025 25
      vertex -1.25 -2.16506 25
      vertex 1.25 -2.16506 25
    endloop
  endfacet
  facet normal 0 0 1
    outer loop
      vertex -1 0 25
      vertex -1.25 -2.16506 25
      vertex -0.5 -0.866025 25
    endloop
  endfacet
  facet normal 0 0 1
    outer loop
      vertex -2.5 0 25
      vertex -1 0 25
      vertex -1.25 2.16506 25
    endloop
  endfacet
  facet normal 0 0 1
    outer loop
      vertex -1 0 25
      vertex -2.5 0 25
      vertex -1.25 -2.16506 25
    endloop
  endfacet
  facet normal 0.866025 -0.5 0
    outer loop
      vertex 1.25 -2.16506 25
      vertex 2.5 0 0
      vertex 2.5 0 25
    endloop
  endfacet
  facet normal 0.866025 -0.5 0
    outer loop
      vertex 2.5 0 0
      vertex 1.25 -2.16506 25
      vertex 1.25 -2.16506 0
    endloop
  endfacet
  facet normal 0 0 -1
    outer loop
      vertex 1 0 0
      vertex 2.5 0 0
      vertex 1.25 -2.16506 0
    endloop
  endfacet
  facet normal 0 0 -1
    outer loop
      vertex 2.5 0 0
      vertex 1 0 0
      vertex 1.25 2.16506 0
    endloop
  endfacet
  facet normal 0 0 -1
    outer loop
      vertex 1.25 -2.16506 0
      vertex 0.5 -0.866025 0
      vertex 1 0 0
    endloop
  endfacet
  facet normal 0 0 -1
    outer loop
      vertex 1.25 -2.16506 0
      vertex -0.5 -0.866025 0
      vertex 0.5 -0.866025 0
    endloop
  endfacet
  facet normal 0 0 -1
    outer loop
      vertex -1.25 -2.16506 0
      vertex -0.5 -0.866025 0
      vertex 1.25 -2.16506 0
    endloop
  endfacet
  facet normal 0 0 -1
    outer loop
      vertex -1.25 -2.16506 0
      vertex -1 0 0
      vertex -0.5 -0.866025 0
    endloop
  endfacet
  facet normal 0 0 -1
    outer loop
      vertex -2.5 0 0
      vertex -1 0 0
      vertex -1.25 -2.16506 0
    endloop
  endfacet
  facet normal 0 0 -1
    outer loop
      vertex -1 0 0
      vertex -2.5 0 0
      vertex -1.25 2.16506 0
    endloop
  endfacet
  facet normal 0 0 -1
    outer loop
      vertex 0.5 0.866025 0
      vertex 1.25 2.16506 0
      vertex 1 0 0
    endloop
  endfacet
  facet normal 0 0 -1
    outer loop
      vertex -0.499999 0.866025 0
      vertex 1.25 2.16506 0
      vertex 0.5 0.866025 0
    endloop
  endfacet
  facet normal 0 0 -1
    outer loop
      vertex -0.499999 0.866025 0
      vertex -1.25 2.16506 0
      vertex 1.25 2.16506 0
    endloop
  endfacet
  facet normal 0 0 -1
    outer loop
      vertex -1.25 2.16506 0
      vertex -0.499999 0.866025 0
      vertex -1 0 0
    endloop
  endfacet
  facet normal 0 -1 0
    outer loop
      vertex -1.25 -2.16506 0
      vertex 1.25 -2.16506 25
      vertex -1.25 -2.16506 25
    endloop
  endfacet
  facet normal 0 -1 -0
    outer loop
      vertex 1.25 -2.16506 25
      vertex -1.25 -2.16506 0
      vertex 1.25 -2.16506 0
    endloop
  endfacet
  facet normal -0.866025 -0.5 0
    outer loop
      vertex -1.25 -2.16506 0
      vertex -2.5 0 25
      vertex -2.5 0 0
    endloop
  endfacet
  facet normal -0.866025 -0.5 0
    outer loop
      vertex -2.5 0 25
      vertex -1.25 -2.16506 0
      vertex -1.25 -2.16506 25
    endloop
  endfacet
  facet normal -0.866025 -0.5 0
    outer loop
      vertex 1 0 0
      vertex 0.5 0.866025 25
      vertex 0.5 0.866025 0
    endloop
  endfacet
  facet normal -0.866025 -0.5 0
    outer loop
      vertex 0.5 0.866025 25
      vertex 1 0 0
      vertex 1 0 25
    endloop
  endfacet
  facet normal 0.866025 -0.500001 0
    outer loop
      vertex -1 0 25
      vertex -0.499999 0.866025 0
      vertex -0.499999 0.866025 25
    endloop
  endfacet
  facet normal 0.866025 -0.500001 0
    outer loop
      vertex -0.499999 0.866025 0
      vertex -1 0 25
      vertex -1 0 0
    endloop
  endfacet
  facet normal 0 -1 0
    outer loop
      vertex -0.499999 0.866025 0
      vertex 0.5 0.866025 25
      vertex -0.499999 0.866025 25
    endloop
  endfacet
  facet normal 0 -1 -0
    outer loop
      vertex 0.5 0.866025 25
      vertex -0.499999 0.866025 0
      vertex 0.5 0.866025 0
    endloop
  endfacet
  facet normal -0.866025 0.5 0
    outer loop
      vertex 0.5 -0.866025 0
      vertex 1 0 25
      vertex 1 0 0
    endloop
  endfacet
  facet normal -0.866025 0.5 0
    outer loop
      vertex 1 0 25
      vertex 0.5 -0.866025 0
      vertex 0.5 -0.866025 25
    endloop
  endfacet
  facet normal 0 1 -0
    outer loop
      vertex 0.5 -0.866025 0
      vertex -0.5 -0.866025 25
      vertex 0.5 -0.866025 25
    endloop
  endfacet
  facet normal 0 1 0
    outer loop
      vertex -0.5 -0.866025 25
      vertex 0.5 -0.866025 0
      vertex -0.5 -0.866025 0
    endloop
  endfacet
  facet normal 0.866025 0.5 0
    outer loop
      vertex -0.5 -0.866025 25
      vertex -1 0 0
      vertex -1 0 25
    endloop
  endfacet
  facet normal 0.866025 0.5 0
    outer loop
      vertex -1 0 0
      vertex -0.5 -0.866025 25
      vertex -0.5 -0.866025 0
    endloop
  endfacet
endsolid OpenSCAD_Model
