solid OpenSCAD_Model
  facet normal -0 0 1
    outer loop
      vertex 53.6 8 3
      vertex 73.6 4.44089e-15 3
      vertex 73.6 8 3
    endloop
  endfacet
  facet normal 0 0 1
    outer loop
      vertex 73.6 4.44089e-15 3
      vertex 53.6 8 3
      vertex 53.6 0 3
    endloop
  endfacet
  facet normal 2.22045e-16 -1 0
    outer loop
      vertex 67.6 3.10862e-15 -5
      vertex 67.6 3.10862e-15 -8
      vertex 70.6 3.77476e-15 -5
    endloop
  endfacet
  facet normal 2.22045e-16 -1 0
    outer loop
      vertex 53.6 0 3
      vertex 70.6 3.77476e-15 3.77476e-15
      vertex 73.6 4.44089e-15 3
    endloop
  endfacet
  facet normal 2.22045e-16 -1 0
    outer loop
      vertex 53.6 0 3
      vertex 56.6 6.66134e-16 6.66134e-16
      vertex 70.6 3.77476e-15 3.77476e-15
    endloop
  endfacet
  facet normal 2.22045e-16 -1 0
    outer loop
      vertex 53.6 0 -3
      vertex 56.6 6.66134e-16 6.66134e-16
      vertex 53.6 0 3
    endloop
  endfacet
  facet normal 2.22045e-16 -1 0
    outer loop
      vertex 56.6 6.66134e-16 6.66134e-16
      vertex 53.6 0 -3
      vertex 56.6 6.66134e-16 -3
    endloop
  endfacet
  facet normal 2.22045e-16 -1 0
    outer loop
      vertex 70.6 3.77476e-15 -5
      vertex 73.6 4.44089e-15 3
      vertex 70.6 3.77476e-15 3.77476e-15
    endloop
  endfacet
  facet normal 2.22045e-16 -1 0
    outer loop
      vertex 70.6 3.77476e-15 -5
      vertex 73.6 4.44089e-15 -8
      vertex 73.6 4.44089e-15 3
    endloop
  endfacet
  facet normal 2.22045e-16 -1 0
    outer loop
      vertex 73.6 4.44089e-15 -8
      vertex 70.6 3.77476e-15 -5
      vertex 67.6 3.10862e-15 -8
    endloop
  endfacet
  facet normal 2.22045e-16 0 -1
    outer loop
      vertex 56.6 6.66134e-16 6.66134e-16
      vertex 70.6 8 3.77476e-15
      vertex 70.6 3.77476e-15 3.77476e-15
    endloop
  endfacet
  facet normal 2.22045e-16 0 -1
    outer loop
      vertex 70.6 8 3.77476e-15
      vertex 56.6 6.66134e-16 6.66134e-16
      vertex 56.6 8 6.66134e-16
    endloop
  endfacet
  facet normal -1 0 0
    outer loop
      vertex 70.6 3.77476e-15 -5
      vertex 70.6 8 3.77476e-15
      vertex 70.6 8 -5
    endloop
  endfacet
  facet normal -1 -0 0
    outer loop
      vertex 70.6 8 3.77476e-15
      vertex 70.6 3.77476e-15 -5
      vertex 70.6 3.77476e-15 3.77476e-15
    endloop
  endfacet
  facet normal 0 1 0
    outer loop
      vertex 73.6 8 3
      vertex 70.6 8 3.77476e-15
      vertex 53.6 8 3
    endloop
  endfacet
  facet normal 0 1 0
    outer loop
      vertex 73.6 8 3
      vertex 70.6 8 -5
      vertex 70.6 8 3.77476e-15
    endloop
  endfacet
  facet normal 0 1 -0
    outer loop
      vertex 73.6 8 -8
      vertex 70.6 8 -5
      vertex 73.6 8 3
    endloop
  endfacet
  facet normal 0 1 0
    outer loop
      vertex 67.6 8 -8
      vertex 70.6 8 -5
      vertex 73.6 8 -8
    endloop
  endfacet
  facet normal 0 1 0
    outer loop
      vertex 70.6 8 -5
      vertex 67.6 8 -8
      vertex 67.6 8 -5
    endloop
  endfacet
  facet normal 0 1 -0
    outer loop
      vertex 56.6 8 6.66134e-16
      vertex 53.6 8 3
      vertex 70.6 8 3.77476e-15
    endloop
  endfacet
  facet normal 0 1 0
    outer loop
      vertex 53.6 8 -3
      vertex 56.6 8 6.66134e-16
      vertex 56.6 8 -3
    endloop
  endfacet
  facet normal 0 1 0
    outer loop
      vertex 56.6 8 6.66134e-16
      vertex 53.6 8 -3
      vertex 53.6 8 3
    endloop
  endfacet
  facet normal -1 0 0
    outer loop
      vertex 53.6 0 -3
      vertex 53.6 8 3
      vertex 53.6 8 -3
    endloop
  endfacet
  facet normal -1 -0 0
    outer loop
      vertex 53.6 8 3
      vertex 53.6 0 -3
      vertex 53.6 0 3
    endloop
  endfacet
  facet normal 0 0 -1
    outer loop
      vertex 67.6 3.10862e-15 -8
      vertex 73.6 8 -8
      vertex 73.6 4.44089e-15 -8
    endloop
  endfacet
  facet normal -0 0 -1
    outer loop
      vertex 73.6 8 -8
      vertex 67.6 3.10862e-15 -8
      vertex 67.6 8 -8
    endloop
  endfacet
  facet normal 1 -0 0
    outer loop
      vertex 73.6 4.44089e-15 3
      vertex 73.6 8 -8
      vertex 73.6 8 3
    endloop
  endfacet
  facet normal 1 0 0
    outer loop
      vertex 73.6 8 -8
      vertex 73.6 4.44089e-15 3
      vertex 73.6 4.44089e-15 -8
    endloop
  endfacet
  facet normal -0 0 1
    outer loop
      vertex 67.6 8 -5
      vertex 70.6 3.77476e-15 -5
      vertex 70.6 8 -5
    endloop
  endfacet
  facet normal 0 0 1
    outer loop
      vertex 70.6 3.77476e-15 -5
      vertex 67.6 8 -5
      vertex 67.6 3.10862e-15 -5
    endloop
  endfacet
  facet normal -1 0 0
    outer loop
      vertex 67.6 3.10862e-15 -8
      vertex 67.6 8 -5
      vertex 67.6 8 -8
    endloop
  endfacet
  facet normal -1 -0 0
    outer loop
      vertex 67.6 8 -5
      vertex 67.6 3.10862e-15 -8
      vertex 67.6 3.10862e-15 -5
    endloop
  endfacet
  facet normal 0 0 -1
    outer loop
      vertex 53.6 0 -3
      vertex 56.6 8 -3
      vertex 56.6 6.66134e-16 -3
    endloop
  endfacet
  facet normal -0 0 -1
    outer loop
      vertex 56.6 8 -3
      vertex 53.6 0 -3
      vertex 53.6 8 -3
    endloop
  endfacet
  facet normal 1 -0 0
    outer loop
      vertex 56.6 6.66134e-16 6.66134e-16
      vertex 56.6 8 -3
      vertex 56.6 8 6.66134e-16
    endloop
  endfacet
  facet normal 1 0 0
    outer loop
      vertex 56.6 8 -3
      vertex 56.6 6.66134e-16 6.66134e-16
      vertex 56.6 6.66134e-16 -3
    endloop
  endfacet
  facet normal 1 -0 0
    outer loop
      vertex 53.6 0 3
      vertex 53.6 8 0
      vertex 53.6 8 3
    endloop
  endfacet
  facet normal 1 0 0
    outer loop
      vertex 53.6 8 0
      vertex 53.6 0 3
      vertex 53.6 0 0
    endloop
  endfacet
  facet normal 0 0 1
    outer loop
      vertex 53.6 8 3
      vertex 50.9205 4.28068 3
      vertex 53.6 0 3
    endloop
  endfacet
  facet normal 0 0 1
    outer loop
      vertex 53.6 8 3
      vertex 50.6922 4.79351 3
      vertex 50.9205 4.28068 3
    endloop
  endfacet
  facet normal 0 0 1
    outer loop
      vertex 53.6 8 3
      vertex 50.275 5.16913 3
      vertex 50.6922 4.79351 3
    endloop
  endfacet
  facet normal 0 0 1
    outer loop
      vertex 53.6 8 3
      vertex 49.7411 5.3426 3
      vertex 50.275 5.16913 3
    endloop
  endfacet
  facet normal 0 0 1
    outer loop
      vertex 53.6 8 3
      vertex 49.1828 5.28393 3
      vertex 49.7411 5.3426 3
    endloop
  endfacet
  facet normal 0 0 1
    outer loop
      vertex 45.6 4 3
      vertex 49.1828 5.28393 3
      vertex 53.6 8 3
    endloop
  endfacet
  facet normal 0 0 1
    outer loop
      vertex 48.3667 4.54909 3
      vertex 45.6 4 3
      vertex 48.25 4 3
    endloop
  endfacet
  facet normal 0 0 1
    outer loop
      vertex 48.6967 5.00325 3
      vertex 45.6 4 3
      vertex 48.3667 4.54909 3
    endloop
  endfacet
  facet normal 0 0 1
    outer loop
      vertex 49.1828 5.28393 3
      vertex 45.6 4 3
      vertex 48.6967 5.00325 3
    endloop
  endfacet
  facet normal 0 0 1
    outer loop
      vertex 53.6 8 3
      vertex 8 4 3
      vertex 45.6 4 3
    endloop
  endfacet
  facet normal 0 0 1
    outer loop
      vertex 5.3205 3.71932 3
      vertex 8 4 3
      vertex 5.3205 4.28068 3
    endloop
  endfacet
  facet normal -0 0 1
    outer loop
      vertex 5.72205e-07 8 3
      vertex 8 4 3
      vertex 53.6 8 3
    endloop
  endfacet
  facet normal 0 0 1
    outer loop
      vertex 8 4 3
      vertex 5.09217 4.79351 3
      vertex 5.3205 4.28068 3
    endloop
  endfacet
  facet normal 0 0 1
    outer loop
      vertex 8 4 3
      vertex 4.675 5.16913 3
      vertex 5.09217 4.79351 3
    endloop
  endfacet
  facet normal 0 0 1
    outer loop
      vertex 8 4 3
      vertex 5.72205e-07 8 3
      vertex 4.675 5.16913 3
    endloop
  endfacet
  facet normal 0 0 1
    outer loop
      vertex 2.76671 4.54909 3
      vertex 5.72205e-07 8 3
      vertex 2.65 4 3
    endloop
  endfacet
  facet normal 0 0 1
    outer loop
      vertex 3.09667 5.00325 3
      vertex 5.72205e-07 8 3
      vertex 2.76671 4.54909 3
    endloop
  endfacet
  facet normal 0 0 1
    outer loop
      vertex 3.58283 5.28393 3
      vertex 5.72205e-07 8 3
      vertex 3.09667 5.00325 3
    endloop
  endfacet
  facet normal 0 0 1
    outer loop
      vertex 4.14111 5.3426 3
      vertex 5.72205e-07 8 3
      vertex 3.58283 5.28393 3
    endloop
  endfacet
  facet normal 0 0 1
    outer loop
      vertex 4.675 5.16913 3
      vertex 5.72205e-07 8 3
      vertex 4.14111 5.3426 3
    endloop
  endfacet
  facet normal -0 0 1
    outer loop
      vertex 50.9205 3.71932 3
      vertex 53.6 0 3
      vertex 50.9205 4.28068 3
    endloop
  endfacet
  facet normal -0 0 1
    outer loop
      vertex 50.6922 3.20649 3
      vertex 53.6 0 3
      vertex 50.9205 3.71932 3
    endloop
  endfacet
  facet normal -0 0 1
    outer loop
      vertex 50.275 2.83087 3
      vertex 53.6 0 3
      vertex 50.6922 3.20649 3
    endloop
  endfacet
  facet normal -0 0 1
    outer loop
      vertex 49.7411 2.6574 3
      vertex 53.6 0 3
      vertex 50.275 2.83087 3
    endloop
  endfacet
  facet normal 0 0 1
    outer loop
      vertex 45.6 9.79717e-16 3
      vertex 49.7411 2.6574 3
      vertex 49.1828 2.71607 3
    endloop
  endfacet
  facet normal 0 0 1
    outer loop
      vertex 45.6 9.79717e-16 3
      vertex 49.1828 2.71607 3
      vertex 48.6967 2.99675 3
    endloop
  endfacet
  facet normal -0 0 1
    outer loop
      vertex 45.6 4 3
      vertex 48.3667 3.45091 3
      vertex 48.25 4 3
    endloop
  endfacet
  facet normal 0 0 1
    outer loop
      vertex 45.6 9.79717e-16 3
      vertex 48.3667 3.45091 3
      vertex 45.6 4 3
    endloop
  endfacet
  facet normal 0 0 1
    outer loop
      vertex 48.3667 3.45091 3
      vertex 45.6 9.79717e-16 3
      vertex 48.6967 2.99675 3
    endloop
  endfacet
  facet normal 0 0 1
    outer loop
      vertex 49.7411 2.6574 3
      vertex 45.6 9.79717e-16 3
      vertex 53.6 0 3
    endloop
  endfacet
  facet normal 0 0 1
    outer loop
      vertex 5.09217 3.20649 3
      vertex 8 4 3
      vertex 5.3205 3.71932 3
    endloop
  endfacet
  facet normal 0 0 1
    outer loop
      vertex 8 4 3
      vertex 5.09217 3.20649 3
      vertex 8 5.58439e-15 3
    endloop
  endfacet
  facet normal -0 0 1
    outer loop
      vertex 4.675 2.83087 3
      vertex 8 5.58439e-15 3
      vertex 5.09217 3.20649 3
    endloop
  endfacet
  facet normal -0 0 1
    outer loop
      vertex 4.14111 2.6574 3
      vertex 8 5.58439e-15 3
      vertex 4.675 2.83087 3
    endloop
  endfacet
  facet normal 0 0 1
    outer loop
      vertex 5.72205e-07 6.56411e-15 3
      vertex 4.14111 2.6574 3
      vertex 3.58283 2.71607 3
    endloop
  endfacet
  facet normal 0 0 1
    outer loop
      vertex 5.72205e-07 6.56411e-15 3
      vertex 3.58283 2.71607 3
      vertex 3.09667 2.99675 3
    endloop
  endfacet
  facet normal 0 0 1
    outer loop
      vertex 5.72205e-07 6.56411e-15 3
      vertex 2.65 4 3
      vertex 5.72205e-07 8 3
    endloop
  endfacet
  facet normal 0 0 1
    outer loop
      vertex 4.14111 2.6574 3
      vertex 5.72205e-07 6.56411e-15 3
      vertex 8 5.58439e-15 3
    endloop
  endfacet
  facet normal 0 0 1
    outer loop
      vertex 2.76671 3.45091 3
      vertex 5.72205e-07 6.56411e-15 3
      vertex 3.09667 2.99675 3
    endloop
  endfacet
  facet normal 0 0 1
    outer loop
      vertex 2.65 4 3
      vertex 5.72205e-07 6.56411e-15 3
      vertex 2.76671 3.45091 3
    endloop
  endfacet
  facet normal -1 0 0
    outer loop
      vertex 5.72205e-07 6.56411e-15 0
      vertex 5.72205e-07 8 3
      vertex 5.72205e-07 8 0
    endloop
  endfacet
  facet normal -1 -0 0
    outer loop
      vertex 5.72205e-07 8 3
      vertex 5.72205e-07 6.56411e-15 0
      vertex 5.72205e-07 6.56411e-15 3
    endloop
  endfacet
  facet normal 0 0 -1
    outer loop
      vertex 5.09217 3.20649 0
      vertex 8 4 0
      vertex 8 5.58439e-15 0
    endloop
  endfacet
  facet normal 0 0 -1
    outer loop
      vertex 8 4 0
      vertex 5.09217 3.20649 0
      vertex 5.3205 3.71932 0
    endloop
  endfacet
  facet normal 0 0 -1
    outer loop
      vertex 8 5.58439e-15 0
      vertex 4.675 2.83087 0
      vertex 5.09217 3.20649 0
    endloop
  endfacet
  facet normal 0 0 -1
    outer loop
      vertex 8 5.58439e-15 0
      vertex 4.14111 2.6574 0
      vertex 4.675 2.83087 0
    endloop
  endfacet
  facet normal 0 0 -1
    outer loop
      vertex 5.72205e-07 6.56411e-15 0
      vertex 4.14111 2.6574 0
      vertex 8 5.58439e-15 0
    endloop
  endfacet
  facet normal -0 0 -1
    outer loop
      vertex 4.14111 2.6574 0
      vertex 5.72205e-07 6.56411e-15 0
      vertex 3.58283 2.71607 0
    endloop
  endfacet
  facet normal -0 0 -1
    outer loop
      vertex 2.76671 3.45091 0
      vertex 5.72205e-07 6.56411e-15 0
      vertex 2.65 4 0
    endloop
  endfacet
  facet normal -0 0 -1
    outer loop
      vertex 3.09667 2.99675 0
      vertex 5.72205e-07 6.56411e-15 0
      vertex 2.76671 3.45091 0
    endloop
  endfacet
  facet normal -0 0 -1
    outer loop
      vertex 3.58283 2.71607 0
      vertex 5.72205e-07 6.56411e-15 0
      vertex 3.09667 2.99675 0
    endloop
  endfacet
  facet normal 0 0 -1
    outer loop
      vertex 53.6 0 0
      vertex 50.9205 3.71932 0
      vertex 53.6 8 0
    endloop
  endfacet
  facet normal 0 0 -1
    outer loop
      vertex 53.6 0 0
      vertex 50.6922 3.20649 0
      vertex 50.9205 3.71932 0
    endloop
  endfacet
  facet normal 0 0 -1
    outer loop
      vertex 53.6 0 0
      vertex 50.275 2.83087 0
      vertex 50.6922 3.20649 0
    endloop
  endfacet
  facet normal 0 0 -1
    outer loop
      vertex 53.6 0 0
      vertex 49.7411 2.6574 0
      vertex 50.275 2.83087 0
    endloop
  endfacet
  facet normal 0 0 -1
    outer loop
      vertex 45.6 9.79717e-16 0
      vertex 49.7411 2.6574 0
      vertex 53.6 0 0
    endloop
  endfacet
  facet normal -0 0 -1
    outer loop
      vertex 49.7411 2.6574 0
      vertex 45.6 9.79717e-16 0
      vertex 49.1828 2.71607 0
    endloop
  endfacet
  facet normal 0 0 -1
    outer loop
      vertex 45.6 4 0
      vertex 48.3667 3.45091 0
      vertex 45.6 9.79717e-16 0
    endloop
  endfacet
  facet normal -0 0 -1
    outer loop
      vertex 48.6967 2.99675 0
      vertex 45.6 9.79717e-16 0
      vertex 48.3667 3.45091 0
    endloop
  endfacet
  facet normal -0 0 -1
    outer loop
      vertex 49.1828 2.71607 0
      vertex 45.6 9.79717e-16 0
      vertex 48.6967 2.99675 0
    endloop
  endfacet
  facet normal 0 0 -1
    outer loop
      vertex 50.9205 4.28068 0
      vertex 53.6 8 0
      vertex 50.9205 3.71932 0
    endloop
  endfacet
  facet normal 0 0 -1
    outer loop
      vertex 50.6922 4.79351 0
      vertex 53.6 8 0
      vertex 50.9205 4.28068 0
    endloop
  endfacet
  facet normal 0 0 -1
    outer loop
      vertex 50.275 5.16913 0
      vertex 53.6 8 0
      vertex 50.6922 4.79351 0
    endloop
  endfacet
  facet normal 0 0 -1
    outer loop
      vertex 49.7411 5.3426 0
      vertex 53.6 8 0
      vertex 50.275 5.16913 0
    endloop
  endfacet
  facet normal 0 0 -1
    outer loop
      vertex 49.1828 5.28393 0
      vertex 53.6 8 0
      vertex 49.7411 5.3426 0
    endloop
  endfacet
  facet normal 0 0 -1
    outer loop
      vertex 45.6 4 0
      vertex 49.1828 5.28393 0
      vertex 48.6967 5.00325 0
    endloop
  endfacet
  facet normal 0 0 -1
    outer loop
      vertex 48.3667 3.45091 0
      vertex 45.6 4 0
      vertex 48.25 4 0
    endloop
  endfacet
  facet normal 0 0 -1
    outer loop
      vertex 48.25 4 0
      vertex 45.6 4 0
      vertex 48.3667 4.54909 0
    endloop
  endfacet
  facet normal 0 0 -1
    outer loop
      vertex 45.6 4 0
      vertex 48.6967 5.00325 0
      vertex 48.3667 4.54909 0
    endloop
  endfacet
  facet normal -0 0 -1
    outer loop
      vertex 49.1828 5.28393 0
      vertex 45.6 4 0
      vertex 53.6 8 0
    endloop
  endfacet
  facet normal 0 0 -1
    outer loop
      vertex 8 4 0
      vertex 53.6 8 0
      vertex 45.6 4 0
    endloop
  endfacet
  facet normal 0 0 -1
    outer loop
      vertex 5.3205 4.28068 0
      vertex 8 4 0
      vertex 5.3205 3.71932 0
    endloop
  endfacet
  facet normal 0 0 -1
    outer loop
      vertex 5.09217 4.79351 0
      vertex 8 4 0
      vertex 5.3205 4.28068 0
    endloop
  endfacet
  facet normal 0 0 -1
    outer loop
      vertex 4.675 5.16913 0
      vertex 8 4 0
      vertex 5.09217 4.79351 0
    endloop
  endfacet
  facet normal 0 0 -1
    outer loop
      vertex 5.72205e-07 8 0
      vertex 8 4 0
      vertex 4.675 5.16913 0
    endloop
  endfacet
  facet normal 0 0 -1
    outer loop
      vertex 5.72205e-07 8 0
      vertex 4.675 5.16913 0
      vertex 4.14111 5.3426 0
    endloop
  endfacet
  facet normal 0 0 -1
    outer loop
      vertex 5.72205e-07 8 0
      vertex 2.65 4 0
      vertex 5.72205e-07 6.56411e-15 0
    endloop
  endfacet
  facet normal 0 0 -1
    outer loop
      vertex 8 4 0
      vertex 5.72205e-07 8 0
      vertex 53.6 8 0
    endloop
  endfacet
  facet normal 0 0 -1
    outer loop
      vertex 3.58283 5.28393 0
      vertex 5.72205e-07 8 0
      vertex 4.14111 5.3426 0
    endloop
  endfacet
  facet normal 0 0 -1
    outer loop
      vertex 3.09667 5.00325 0
      vertex 5.72205e-07 8 0
      vertex 3.58283 5.28393 0
    endloop
  endfacet
  facet normal 0 0 -1
    outer loop
      vertex 2.76671 4.54909 0
      vertex 5.72205e-07 8 0
      vertex 3.09667 5.00325 0
    endloop
  endfacet
  facet normal 0 0 -1
    outer loop
      vertex 2.65 4 0
      vertex 5.72205e-07 8 0
      vertex 2.76671 4.54909 0
    endloop
  endfacet
  facet normal 0 1 -0
    outer loop
      vertex 53.6 8 0
      vertex 5.72205e-07 8 3
      vertex 53.6 8 3
    endloop
  endfacet
  facet normal 0 1 0
    outer loop
      vertex 5.72205e-07 8 3
      vertex 53.6 8 0
      vertex 5.72205e-07 8 0
    endloop
  endfacet
  facet normal 0 -1 0
    outer loop
      vertex 8 4 0
      vertex 45.6 4 3
      vertex 8 4 3
    endloop
  endfacet
  facet normal 0 -1 -0
    outer loop
      vertex 45.6 4 3
      vertex 8 4 0
      vertex 45.6 4 0
    endloop
  endfacet
  facet normal -1 0 0
    outer loop
      vertex 45.6 9.79717e-16 0
      vertex 45.6 4 3
      vertex 45.6 4 0
    endloop
  endfacet
  facet normal -1 -0 0
    outer loop
      vertex 45.6 4 3
      vertex 45.6 9.79717e-16 0
      vertex 45.6 9.79717e-16 3
    endloop
  endfacet
  facet normal -1.22465e-16 -1 0
    outer loop
      vertex 45.6 9.79717e-16 0
      vertex 53.6 0 3
      vertex 45.6 9.79717e-16 3
    endloop
  endfacet
  facet normal -1.22465e-16 -1 -0
    outer loop
      vertex 53.6 0 3
      vertex 45.6 9.79717e-16 0
      vertex 53.6 0 0
    endloop
  endfacet
  facet normal 1 -0 0
    outer loop
      vertex 8 5.58439e-15 3
      vertex 8 4 0
      vertex 8 4 3
    endloop
  endfacet
  facet normal 1 0 0
    outer loop
      vertex 8 4 0
      vertex 8 5.58439e-15 3
      vertex 8 5.58439e-15 0
    endloop
  endfacet
  facet normal -1.22465e-16 -1 0
    outer loop
      vertex 5.72205e-07 6.56411e-15 0
      vertex 8 5.58439e-15 3
      vertex 5.72205e-07 6.56411e-15 3
    endloop
  endfacet
  facet normal -1.22465e-16 -1 -0
    outer loop
      vertex 8 5.58439e-15 3
      vertex 5.72205e-07 6.56411e-15 0
      vertex 8 5.58439e-15 0
    endloop
  endfacet
  facet normal 0.978147 0.207913 0
    outer loop
      vertex 48.3667 3.45091 3
      vertex 48.25 4 0
      vertex 48.25 4 3
    endloop
  endfacet
  facet normal 0.978147 0.207913 0
    outer loop
      vertex 48.25 4 0
      vertex 48.3667 3.45091 3
      vertex 48.3667 3.45091 0
    endloop
  endfacet
  facet normal -1 0 0
    outer loop
      vertex 50.9205 3.71932 0
      vertex 50.9205 4.28068 3
      vertex 50.9205 4.28068 0
    endloop
  endfacet
  facet normal -1 -0 0
    outer loop
      vertex 50.9205 4.28068 3
      vertex 50.9205 3.71932 0
      vertex 50.9205 3.71932 3
    endloop
  endfacet
  facet normal -0.309016 0.951057 0
    outer loop
      vertex 50.275 2.83087 0
      vertex 49.7411 2.6574 3
      vertex 50.275 2.83087 3
    endloop
  endfacet
  facet normal -0.309016 0.951057 0
    outer loop
      vertex 49.7411 2.6574 3
      vertex 50.275 2.83087 0
      vertex 49.7411 2.6574 0
    endloop
  endfacet
  facet normal -0.669129 0.743146 0
    outer loop
      vertex 50.6922 3.20649 0
      vertex 50.275 2.83087 3
      vertex 50.6922 3.20649 3
    endloop
  endfacet
  facet normal -0.669129 0.743146 0
    outer loop
      vertex 50.275 2.83087 3
      vertex 50.6922 3.20649 0
      vertex 50.275 2.83087 0
    endloop
  endfacet
  facet normal 0.104528 -0.994522 0
    outer loop
      vertex 49.1828 5.28393 0
      vertex 49.7411 5.3426 3
      vertex 49.1828 5.28393 3
    endloop
  endfacet
  facet normal 0.104528 -0.994522 0
    outer loop
      vertex 49.7411 5.3426 3
      vertex 49.1828 5.28393 0
      vertex 49.7411 5.3426 0
    endloop
  endfacet
  facet normal 0.5 -0.866025 0
    outer loop
      vertex 48.6967 5.00325 0
      vertex 49.1828 5.28393 3
      vertex 48.6967 5.00325 3
    endloop
  endfacet
  facet normal 0.5 -0.866025 0
    outer loop
      vertex 49.1828 5.28393 3
      vertex 48.6967 5.00325 0
      vertex 49.1828 5.28393 0
    endloop
  endfacet
  facet normal 0.5 0.866025 -0
    outer loop
      vertex 49.1828 2.71607 0
      vertex 48.6967 2.99675 3
      vertex 49.1828 2.71607 3
    endloop
  endfacet
  facet normal 0.5 0.866025 0
    outer loop
      vertex 48.6967 2.99675 3
      vertex 49.1828 2.71607 0
      vertex 48.6967 2.99675 0
    endloop
  endfacet
  facet normal 0.809017 0.587785 0
    outer loop
      vertex 48.6967 2.99675 3
      vertex 48.3667 3.45091 0
      vertex 48.3667 3.45091 3
    endloop
  endfacet
  facet normal 0.809017 0.587785 0
    outer loop
      vertex 48.3667 3.45091 0
      vertex 48.6967 2.99675 3
      vertex 48.6967 2.99675 0
    endloop
  endfacet
  facet normal 0.104528 0.994522 -0
    outer loop
      vertex 49.7411 2.6574 0
      vertex 49.1828 2.71607 3
      vertex 49.7411 2.6574 3
    endloop
  endfacet
  facet normal 0.104528 0.994522 0
    outer loop
      vertex 49.1828 2.71607 3
      vertex 49.7411 2.6574 0
      vertex 49.1828 2.71607 0
    endloop
  endfacet
  facet normal -0.913546 0.406735 0
    outer loop
      vertex 50.6922 3.20649 0
      vertex 50.9205 3.71932 3
      vertex 50.9205 3.71932 0
    endloop
  endfacet
  facet normal -0.913546 0.406735 0
    outer loop
      vertex 50.9205 3.71932 3
      vertex 50.6922 3.20649 0
      vertex 50.6922 3.20649 3
    endloop
  endfacet
  facet normal -0.309016 -0.951057 0
    outer loop
      vertex 49.7411 5.3426 0
      vertex 50.275 5.16913 3
      vertex 49.7411 5.3426 3
    endloop
  endfacet
  facet normal -0.309016 -0.951057 -0
    outer loop
      vertex 50.275 5.16913 3
      vertex 49.7411 5.3426 0
      vertex 50.275 5.16913 0
    endloop
  endfacet
  facet normal -0.913546 -0.406735 0
    outer loop
      vertex 50.9205 4.28068 0
      vertex 50.6922 4.79351 3
      vertex 50.6922 4.79351 0
    endloop
  endfacet
  facet normal -0.913546 -0.406735 0
    outer loop
      vertex 50.6922 4.79351 3
      vertex 50.9205 4.28068 0
      vertex 50.9205 4.28068 3
    endloop
  endfacet
  facet normal 0.809017 -0.587785 0
    outer loop
      vertex 48.3667 4.54909 3
      vertex 48.6967 5.00325 0
      vertex 48.6967 5.00325 3
    endloop
  endfacet
  facet normal 0.809017 -0.587785 0
    outer loop
      vertex 48.6967 5.00325 0
      vertex 48.3667 4.54909 3
      vertex 48.3667 4.54909 0
    endloop
  endfacet
  facet normal -0.669129 -0.743146 0
    outer loop
      vertex 50.275 5.16913 0
      vertex 50.6922 4.79351 3
      vertex 50.275 5.16913 3
    endloop
  endfacet
  facet normal -0.669129 -0.743146 -0
    outer loop
      vertex 50.6922 4.79351 3
      vertex 50.275 5.16913 0
      vertex 50.6922 4.79351 0
    endloop
  endfacet
  facet normal 0.978147 -0.207913 0
    outer loop
      vertex 48.25 4 3
      vertex 48.3667 4.54909 0
      vertex 48.3667 4.54909 3
    endloop
  endfacet
  facet normal 0.978147 -0.207913 0
    outer loop
      vertex 48.3667 4.54909 0
      vertex 48.25 4 3
      vertex 48.25 4 0
    endloop
  endfacet
  facet normal 0.978148 0.207912 0
    outer loop
      vertex 2.76671 3.45091 3
      vertex 2.65 4 0
      vertex 2.65 4 3
    endloop
  endfacet
  facet normal 0.978148 0.207912 0
    outer loop
      vertex 2.65 4 0
      vertex 2.76671 3.45091 3
      vertex 2.76671 3.45091 0
    endloop
  endfacet
  facet normal -1 0 0
    outer loop
      vertex 5.3205 3.71932 0
      vertex 5.3205 4.28068 3
      vertex 5.3205 4.28068 0
    endloop
  endfacet
  facet normal -1 -0 0
    outer loop
      vertex 5.3205 4.28068 3
      vertex 5.3205 3.71932 0
      vertex 5.3205 3.71932 3
    endloop
  endfacet
  facet normal -0.309016 0.951057 0
    outer loop
      vertex 4.675 2.83087 0
      vertex 4.14111 2.6574 3
      vertex 4.675 2.83087 3
    endloop
  endfacet
  facet normal -0.309016 0.951057 0
    outer loop
      vertex 4.14111 2.6574 3
      vertex 4.675 2.83087 0
      vertex 4.14111 2.6574 0
    endloop
  endfacet
  facet normal 0.104527 -0.994522 0
    outer loop
      vertex 3.58283 5.28393 0
      vertex 4.14111 5.3426 3
      vertex 3.58283 5.28393 3
    endloop
  endfacet
  facet normal 0.104527 -0.994522 0
    outer loop
      vertex 4.14111 5.3426 3
      vertex 3.58283 5.28393 0
      vertex 4.14111 5.3426 0
    endloop
  endfacet
  facet normal 0.5 0.866025 -0
    outer loop
      vertex 3.58283 2.71607 0
      vertex 3.09667 2.99675 3
      vertex 3.58283 2.71607 3
    endloop
  endfacet
  facet normal 0.5 0.866025 0
    outer loop
      vertex 3.09667 2.99675 3
      vertex 3.58283 2.71607 0
      vertex 3.09667 2.99675 0
    endloop
  endfacet
  facet normal 0.809016 0.587786 0
    outer loop
      vertex 3.09667 2.99675 3
      vertex 2.76671 3.45091 0
      vertex 2.76671 3.45091 3
    endloop
  endfacet
  facet normal 0.809016 0.587786 0
    outer loop
      vertex 2.76671 3.45091 0
      vertex 3.09667 2.99675 3
      vertex 3.09667 2.99675 0
    endloop
  endfacet
  facet normal 0.104527 0.994522 -0
    outer loop
      vertex 4.14111 2.6574 0
      vertex 3.58283 2.71607 3
      vertex 4.14111 2.6574 3
    endloop
  endfacet
  facet normal 0.104527 0.994522 0
    outer loop
      vertex 3.58283 2.71607 3
      vertex 4.14111 2.6574 0
      vertex 3.58283 2.71607 0
    endloop
  endfacet
  facet normal -0.913545 0.406738 0
    outer loop
      vertex 5.09217 3.20649 0
      vertex 5.3205 3.71932 3
      vertex 5.3205 3.71932 0
    endloop
  endfacet
  facet normal -0.913545 0.406738 0
    outer loop
      vertex 5.3205 3.71932 3
      vertex 5.09217 3.20649 0
      vertex 5.09217 3.20649 3
    endloop
  endfacet
  facet normal -0.669132 0.743144 0
    outer loop
      vertex 5.09217 3.20649 0
      vertex 4.675 2.83087 3
      vertex 5.09217 3.20649 3
    endloop
  endfacet
  facet normal -0.669132 0.743144 0
    outer loop
      vertex 4.675 2.83087 3
      vertex 5.09217 3.20649 0
      vertex 4.675 2.83087 0
    endloop
  endfacet
  facet normal 0.978148 -0.207912 0
    outer loop
      vertex 2.65 4 3
      vertex 2.76671 4.54909 0
      vertex 2.76671 4.54909 3
    endloop
  endfacet
  facet normal 0.978148 -0.207912 0
    outer loop
      vertex 2.76671 4.54909 0
      vertex 2.65 4 3
      vertex 2.65 4 0
    endloop
  endfacet
  facet normal -0.309016 -0.951057 0
    outer loop
      vertex 4.14111 5.3426 0
      vertex 4.675 5.16913 3
      vertex 4.14111 5.3426 3
    endloop
  endfacet
  facet normal -0.309016 -0.951057 -0
    outer loop
      vertex 4.675 5.16913 3
      vertex 4.14111 5.3426 0
      vertex 4.675 5.16913 0
    endloop
  endfacet
  facet normal -0.913545 -0.406738 0
    outer loop
      vertex 5.3205 4.28068 0
      vertex 5.09217 4.79351 3
      vertex 5.09217 4.79351 0
    endloop
  endfacet
  facet normal -0.913545 -0.406738 0
    outer loop
      vertex 5.09217 4.79351 3
      vertex 5.3205 4.28068 0
      vertex 5.3205 4.28068 3
    endloop
  endfacet
  facet normal 0.809016 -0.587786 0
    outer loop
      vertex 2.76671 4.54909 3
      vertex 3.09667 5.00325 0
      vertex 3.09667 5.00325 3
    endloop
  endfacet
  facet normal 0.809016 -0.587786 0
    outer loop
      vertex 3.09667 5.00325 0
      vertex 2.76671 4.54909 3
      vertex 2.76671 4.54909 0
    endloop
  endfacet
  facet normal 0.5 -0.866025 0
    outer loop
      vertex 3.09667 5.00325 0
      vertex 3.58283 5.28393 3
      vertex 3.09667 5.00325 3
    endloop
  endfacet
  facet normal 0.5 -0.866025 0
    outer loop
      vertex 3.58283 5.28393 3
      vertex 3.09667 5.00325 0
      vertex 3.58283 5.28393 0
    endloop
  endfacet
  facet normal -0.669132 -0.743144 0
    outer loop
      vertex 4.675 5.16913 0
      vertex 5.09217 4.79351 3
      vertex 4.675 5.16913 3
    endloop
  endfacet
  facet normal -0.669132 -0.743144 -0
    outer loop
      vertex 5.09217 4.79351 3
      vertex 4.675 5.16913 0
      vertex 5.09217 4.79351 0
    endloop
  endfacet
endsolid OpenSCAD_Model
