solid OpenSCAD_Model
  facet normal -1 0 0
    outer loop
      vertex 0 0 0
      vertex 0 8 3
      vertex 0 8 0
    endloop
  endfacet
  facet normal -1 -0 0
    outer loop
      vertex 0 8 3
      vertex 0 0 0
      vertex 0 0 3
    endloop
  endfacet
  facet normal -0 0 1
    outer loop
      vertex 5.23329 4.54909 3
      vertex 8 4 3
      vertex 8 8 3
    endloop
  endfacet
  facet normal 0 0 1
    outer loop
      vertex 8 4 3
      vertex 5.23329 4.54909 3
      vertex 5.35 4 3
    endloop
  endfacet
  facet normal 0 0 1
    outer loop
      vertex 8 8 3
      vertex 4.90333 5.00325 3
      vertex 5.23329 4.54909 3
    endloop
  endfacet
  facet normal 0 0 1
    outer loop
      vertex 8 8 3
      vertex 4.41717 5.28393 3
      vertex 4.90333 5.00325 3
    endloop
  endfacet
  facet normal 0 0 1
    outer loop
      vertex 8 8 3
      vertex 3.85889 5.3426 3
      vertex 4.41717 5.28393 3
    endloop
  endfacet
  facet normal -0 0 1
    outer loop
      vertex 0 8 3
      vertex 3.85889 5.3426 3
      vertex 8 8 3
    endloop
  endfacet
  facet normal 0 0 1
    outer loop
      vertex 2.6795 4.28068 3
      vertex 0 8 3
      vertex 2.6795 3.71932 3
    endloop
  endfacet
  facet normal 0 0 1
    outer loop
      vertex 2.90783 4.79351 3
      vertex 0 8 3
      vertex 2.6795 4.28068 3
    endloop
  endfacet
  facet normal 0 0 1
    outer loop
      vertex 3.325 5.16913 3
      vertex 0 8 3
      vertex 2.90783 4.79351 3
    endloop
  endfacet
  facet normal 0 0 1
    outer loop
      vertex 3.85889 5.3426 3
      vertex 0 8 3
      vertex 3.325 5.16913 3
    endloop
  endfacet
  facet normal 0 0 1
    outer loop
      vertex 53.6 8 3
      vertex 50.95 4 3
      vertex 53.6 0 3
    endloop
  endfacet
  facet normal 0 0 1
    outer loop
      vertex 53.6 8 3
      vertex 50.8333 4.54909 3
      vertex 50.95 4 3
    endloop
  endfacet
  facet normal 0 0 1
    outer loop
      vertex 53.6 8 3
      vertex 50.5033 5.00325 3
      vertex 50.8333 4.54909 3
    endloop
  endfacet
  facet normal 0 0 1
    outer loop
      vertex 53.6 8 3
      vertex 50.0172 5.28393 3
      vertex 50.5033 5.00325 3
    endloop
  endfacet
  facet normal 0 0 1
    outer loop
      vertex 53.6 8 3
      vertex 49.4589 5.3426 3
      vertex 50.0172 5.28393 3
    endloop
  endfacet
  facet normal -0 0 1
    outer loop
      vertex 45.6 8 3
      vertex 49.4589 5.3426 3
      vertex 53.6 8 3
    endloop
  endfacet
  facet normal 0 0 1
    outer loop
      vertex 48.5078 4.79351 3
      vertex 45.6 4 3
      vertex 48.2795 4.28068 3
    endloop
  endfacet
  facet normal 0 0 1
    outer loop
      vertex 45.6 4 3
      vertex 48.5078 4.79351 3
      vertex 45.6 8 3
    endloop
  endfacet
  facet normal 0 0 1
    outer loop
      vertex 48.925 5.16913 3
      vertex 45.6 8 3
      vertex 48.5078 4.79351 3
    endloop
  endfacet
  facet normal 0 0 1
    outer loop
      vertex 49.4589 5.3426 3
      vertex 45.6 8 3
      vertex 48.925 5.16913 3
    endloop
  endfacet
  facet normal -0 0 1
    outer loop
      vertex 50.8333 3.45091 3
      vertex 53.6 0 3
      vertex 50.95 4 3
    endloop
  endfacet
  facet normal -0 0 1
    outer loop
      vertex 50.5033 2.99675 3
      vertex 53.6 0 3
      vertex 50.8333 3.45091 3
    endloop
  endfacet
  facet normal -0 0 1
    outer loop
      vertex 50.0172 2.71607 3
      vertex 53.6 0 3
      vertex 50.5033 2.99675 3
    endloop
  endfacet
  facet normal -0 0 1
    outer loop
      vertex 49.4589 2.6574 3
      vertex 53.6 0 3
      vertex 50.0172 2.71607 3
    endloop
  endfacet
  facet normal 0 0 1
    outer loop
      vertex 48.925 2.83087 3
      vertex 53.6 0 3
      vertex 49.4589 2.6574 3
    endloop
  endfacet
  facet normal 0 0 1
    outer loop
      vertex 48.2795 4.28068 3
      vertex 45.6 4 3
      vertex 48.2795 3.71932 3
    endloop
  endfacet
  facet normal 0 0 1
    outer loop
      vertex 48.2795 3.71932 3
      vertex 45.6 4 3
      vertex 48.5078 3.20649 3
    endloop
  endfacet
  facet normal 0 0 1
    outer loop
      vertex 45.6 4 3
      vertex 48.925 2.83087 3
      vertex 48.5078 3.20649 3
    endloop
  endfacet
  facet normal 0 0 1
    outer loop
      vertex 45.6 4 3
      vertex 53.6 0 3
      vertex 48.925 2.83087 3
    endloop
  endfacet
  facet normal -0 0 1
    outer loop
      vertex 8 4 3
      vertex 53.6 0 3
      vertex 45.6 4 3
    endloop
  endfacet
  facet normal 0 0 1
    outer loop
      vertex 5.23329 3.45091 3
      vertex 8 4 3
      vertex 5.35 4 3
    endloop
  endfacet
  facet normal 0 0 1
    outer loop
      vertex 4.90333 2.99675 3
      vertex 8 4 3
      vertex 5.23329 3.45091 3
    endloop
  endfacet
  facet normal 0 0 1
    outer loop
      vertex 4.41717 2.71607 3
      vertex 8 4 3
      vertex 4.90333 2.99675 3
    endloop
  endfacet
  facet normal 0 0 1
    outer loop
      vertex 0 0 3
      vertex 8 4 3
      vertex 4.41717 2.71607 3
    endloop
  endfacet
  facet normal 0 0 1
    outer loop
      vertex 0 0 3
      vertex 4.41717 2.71607 3
      vertex 3.85889 2.6574 3
    endloop
  endfacet
  facet normal 0 0 1
    outer loop
      vertex 0 0 3
      vertex 2.6795 3.71932 3
      vertex 0 8 3
    endloop
  endfacet
  facet normal 0 0 1
    outer loop
      vertex 8 4 3
      vertex 0 0 3
      vertex 53.6 0 3
    endloop
  endfacet
  facet normal 0 0 1
    outer loop
      vertex 3.325 2.83087 3
      vertex 0 0 3
      vertex 3.85889 2.6574 3
    endloop
  endfacet
  facet normal 0 0 1
    outer loop
      vertex 2.90783 3.20649 3
      vertex 0 0 3
      vertex 3.325 2.83087 3
    endloop
  endfacet
  facet normal 0 0 1
    outer loop
      vertex 2.6795 3.71932 3
      vertex 0 0 3
      vertex 2.90783 3.20649 3
    endloop
  endfacet
  facet normal 1 -0 0
    outer loop
      vertex 53.6 0 3
      vertex 53.6 8 0
      vertex 53.6 8 3
    endloop
  endfacet
  facet normal 1 0 0
    outer loop
      vertex 53.6 8 0
      vertex 53.6 0 3
      vertex 53.6 0 0
    endloop
  endfacet
  facet normal 0 0 -1
    outer loop
      vertex 53.6 0 0
      vertex 50.95 4 0
      vertex 53.6 8 0
    endloop
  endfacet
  facet normal 0 0 -1
    outer loop
      vertex 53.6 0 0
      vertex 50.8333 3.45091 0
      vertex 50.95 4 0
    endloop
  endfacet
  facet normal 0 0 -1
    outer loop
      vertex 53.6 0 0
      vertex 50.5033 2.99675 0
      vertex 50.8333 3.45091 0
    endloop
  endfacet
  facet normal 0 0 -1
    outer loop
      vertex 53.6 0 0
      vertex 50.0172 2.71607 0
      vertex 50.5033 2.99675 0
    endloop
  endfacet
  facet normal 0 0 -1
    outer loop
      vertex 53.6 0 0
      vertex 49.4589 2.6574 0
      vertex 50.0172 2.71607 0
    endloop
  endfacet
  facet normal 0 0 -1
    outer loop
      vertex 53.6 0 0
      vertex 48.925 2.83087 0
      vertex 49.4589 2.6574 0
    endloop
  endfacet
  facet normal 0 0 -1
    outer loop
      vertex 48.2795 3.71932 0
      vertex 45.6 4 0
      vertex 48.2795 4.28068 0
    endloop
  endfacet
  facet normal 0 0 -1
    outer loop
      vertex 48.5078 3.20649 0
      vertex 45.6 4 0
      vertex 48.2795 3.71932 0
    endloop
  endfacet
  facet normal 0 0 -1
    outer loop
      vertex 48.925 2.83087 0
      vertex 45.6 4 0
      vertex 48.5078 3.20649 0
    endloop
  endfacet
  facet normal 0 0 -1
    outer loop
      vertex 53.6 0 0
      vertex 45.6 4 0
      vertex 48.925 2.83087 0
    endloop
  endfacet
  facet normal 0 0 -1
    outer loop
      vertex 53.6 0 0
      vertex 8 4 0
      vertex 45.6 4 0
    endloop
  endfacet
  facet normal 0 0 -1
    outer loop
      vertex 5.23329 4.54909 0
      vertex 8 4 0
      vertex 5.35 4 0
    endloop
  endfacet
  facet normal 0 0 -1
    outer loop
      vertex 0 0 0
      vertex 8 4 0
      vertex 53.6 0 0
    endloop
  endfacet
  facet normal -0 0 -1
    outer loop
      vertex 8 4 0
      vertex 5.23329 3.45091 0
      vertex 5.35 4 0
    endloop
  endfacet
  facet normal 0 0 -1
    outer loop
      vertex 8 4 0
      vertex 4.90333 2.99675 0
      vertex 5.23329 3.45091 0
    endloop
  endfacet
  facet normal 0 0 -1
    outer loop
      vertex 8 4 0
      vertex 4.41717 2.71607 0
      vertex 4.90333 2.99675 0
    endloop
  endfacet
  facet normal 0 0 -1
    outer loop
      vertex 8 4 0
      vertex 0 0 0
      vertex 4.41717 2.71607 0
    endloop
  endfacet
  facet normal -0 0 -1
    outer loop
      vertex 2.6795 3.71932 0
      vertex 0 0 0
      vertex 2.6795 4.28068 0
    endloop
  endfacet
  facet normal -0 0 -1
    outer loop
      vertex 2.90783 3.20649 0
      vertex 0 0 0
      vertex 2.6795 3.71932 0
    endloop
  endfacet
  facet normal -0 0 -1
    outer loop
      vertex 3.325 2.83087 0
      vertex 0 0 0
      vertex 2.90783 3.20649 0
    endloop
  endfacet
  facet normal -0 0 -1
    outer loop
      vertex 3.85889 2.6574 0
      vertex 0 0 0
      vertex 3.325 2.83087 0
    endloop
  endfacet
  facet normal 0 0 -1
    outer loop
      vertex 4.41717 2.71607 0
      vertex 0 0 0
      vertex 3.85889 2.6574 0
    endloop
  endfacet
  facet normal 0 0 -1
    outer loop
      vertex 50.8333 4.54909 0
      vertex 53.6 8 0
      vertex 50.95 4 0
    endloop
  endfacet
  facet normal 0 0 -1
    outer loop
      vertex 50.5033 5.00325 0
      vertex 53.6 8 0
      vertex 50.8333 4.54909 0
    endloop
  endfacet
  facet normal 0 0 -1
    outer loop
      vertex 50.0172 5.28393 0
      vertex 53.6 8 0
      vertex 50.5033 5.00325 0
    endloop
  endfacet
  facet normal 0 0 -1
    outer loop
      vertex 49.4589 5.3426 0
      vertex 53.6 8 0
      vertex 50.0172 5.28393 0
    endloop
  endfacet
  facet normal 0 0 -1
    outer loop
      vertex 45.6 8 0
      vertex 49.4589 5.3426 0
      vertex 48.925 5.16913 0
    endloop
  endfacet
  facet normal 0 0 -1
    outer loop
      vertex 45.6 4 0
      vertex 48.5078 4.79351 0
      vertex 48.2795 4.28068 0
    endloop
  endfacet
  facet normal 0 0 -1
    outer loop
      vertex 45.6 8 0
      vertex 48.5078 4.79351 0
      vertex 45.6 4 0
    endloop
  endfacet
  facet normal 0 0 -1
    outer loop
      vertex 48.5078 4.79351 0
      vertex 45.6 8 0
      vertex 48.925 5.16913 0
    endloop
  endfacet
  facet normal 0 0 -1
    outer loop
      vertex 49.4589 5.3426 0
      vertex 45.6 8 0
      vertex 53.6 8 0
    endloop
  endfacet
  facet normal 0 0 -1
    outer loop
      vertex 8 4 0
      vertex 5.23329 4.54909 0
      vertex 8 8 0
    endloop
  endfacet
  facet normal 0 0 -1
    outer loop
      vertex 4.90333 5.00325 0
      vertex 8 8 0
      vertex 5.23329 4.54909 0
    endloop
  endfacet
  facet normal 0 0 -1
    outer loop
      vertex 4.41717 5.28393 0
      vertex 8 8 0
      vertex 4.90333 5.00325 0
    endloop
  endfacet
  facet normal 0 0 -1
    outer loop
      vertex 3.85889 5.3426 0
      vertex 8 8 0
      vertex 4.41717 5.28393 0
    endloop
  endfacet
  facet normal 0 0 -1
    outer loop
      vertex 0 8 0
      vertex 3.85889 5.3426 0
      vertex 3.325 5.16913 0
    endloop
  endfacet
  facet normal 0 0 -1
    outer loop
      vertex 0 8 0
      vertex 2.6795 4.28068 0
      vertex 0 0 0
    endloop
  endfacet
  facet normal 0 0 -1
    outer loop
      vertex 3.85889 5.3426 0
      vertex 0 8 0
      vertex 8 8 0
    endloop
  endfacet
  facet normal 0 0 -1
    outer loop
      vertex 2.90783 4.79351 0
      vertex 0 8 0
      vertex 3.325 5.16913 0
    endloop
  endfacet
  facet normal 0 0 -1
    outer loop
      vertex 2.6795 4.28068 0
      vertex 0 8 0
      vertex 2.90783 4.79351 0
    endloop
  endfacet
  facet normal 0 -1 0
    outer loop
      vertex 0 0 0
      vertex 53.6 0 3
      vertex 0 0 3
    endloop
  endfacet
  facet normal 0 -1 -0
    outer loop
      vertex 53.6 0 3
      vertex 0 0 0
      vertex 53.6 0 0
    endloop
  endfacet
  facet normal 0 1 -0
    outer loop
      vertex 45.6 4 0
      vertex 8 4 3
      vertex 45.6 4 3
    endloop
  endfacet
  facet normal 0 1 0
    outer loop
      vertex 8 4 3
      vertex 45.6 4 0
      vertex 8 4 0
    endloop
  endfacet
  facet normal 1 -0 0
    outer loop
      vertex 8 4 3
      vertex 8 8 0
      vertex 8 8 3
    endloop
  endfacet
  facet normal 1 0 0
    outer loop
      vertex 8 8 0
      vertex 8 4 3
      vertex 8 4 0
    endloop
  endfacet
  facet normal 0 1 -0
    outer loop
      vertex 8 8 0
      vertex 0 8 3
      vertex 8 8 3
    endloop
  endfacet
  facet normal 0 1 0
    outer loop
      vertex 0 8 3
      vertex 8 8 0
      vertex 0 8 0
    endloop
  endfacet
  facet normal -1 0 0
    outer loop
      vertex 45.6 4 0
      vertex 45.6 8 3
      vertex 45.6 8 0
    endloop
  endfacet
  facet normal -1 -0 0
    outer loop
      vertex 45.6 8 3
      vertex 45.6 4 0
      vertex 45.6 4 3
    endloop
  endfacet
  facet normal 0 1 -0
    outer loop
      vertex 53.6 8 0
      vertex 45.6 8 3
      vertex 53.6 8 3
    endloop
  endfacet
  facet normal 0 1 0
    outer loop
      vertex 45.6 8 3
      vertex 53.6 8 0
      vertex 45.6 8 0
    endloop
  endfacet
  facet normal -0.978148 -0.207912 0
    outer loop
      vertex 5.35 4 0
      vertex 5.23329 4.54909 3
      vertex 5.23329 4.54909 0
    endloop
  endfacet
  facet normal -0.978148 -0.207912 0
    outer loop
      vertex 5.23329 4.54909 3
      vertex 5.35 4 0
      vertex 5.35 4 3
    endloop
  endfacet
  facet normal 1 -0 0
    outer loop
      vertex 2.6795 3.71932 3
      vertex 2.6795 4.28068 0
      vertex 2.6795 4.28068 3
    endloop
  endfacet
  facet normal 1 0 0
    outer loop
      vertex 2.6795 4.28068 0
      vertex 2.6795 3.71932 3
      vertex 2.6795 3.71932 0
    endloop
  endfacet
  facet normal 0.309016 -0.951057 0
    outer loop
      vertex 3.325 5.16913 0
      vertex 3.85889 5.3426 3
      vertex 3.325 5.16913 3
    endloop
  endfacet
  facet normal 0.309016 -0.951057 0
    outer loop
      vertex 3.85889 5.3426 3
      vertex 3.325 5.16913 0
      vertex 3.85889 5.3426 0
    endloop
  endfacet
  facet normal 0.669131 -0.743145 0
    outer loop
      vertex 2.90783 4.79351 0
      vertex 3.325 5.16913 3
      vertex 2.90783 4.79351 3
    endloop
  endfacet
  facet normal 0.669131 -0.743145 0
    outer loop
      vertex 3.325 5.16913 3
      vertex 2.90783 4.79351 0
      vertex 3.325 5.16913 0
    endloop
  endfacet
  facet normal -0.104528 0.994522 0
    outer loop
      vertex 4.41717 2.71607 0
      vertex 3.85889 2.6574 3
      vertex 4.41717 2.71607 3
    endloop
  endfacet
  facet normal -0.104528 0.994522 0
    outer loop
      vertex 3.85889 2.6574 3
      vertex 4.41717 2.71607 0
      vertex 3.85889 2.6574 0
    endloop
  endfacet
  facet normal -0.5 0.866026 0
    outer loop
      vertex 4.90333 2.99675 0
      vertex 4.41717 2.71607 3
      vertex 4.90333 2.99675 3
    endloop
  endfacet
  facet normal -0.5 0.866026 0
    outer loop
      vertex 4.41717 2.71607 3
      vertex 4.90333 2.99675 0
      vertex 4.41717 2.71607 0
    endloop
  endfacet
  facet normal -0.5 -0.866026 0
    outer loop
      vertex 4.41717 5.28393 0
      vertex 4.90333 5.00325 3
      vertex 4.41717 5.28393 3
    endloop
  endfacet
  facet normal -0.5 -0.866026 -0
    outer loop
      vertex 4.90333 5.00325 3
      vertex 4.41717 5.28393 0
      vertex 4.90333 5.00325 0
    endloop
  endfacet
  facet normal -0.809017 -0.587785 0
    outer loop
      vertex 5.23329 4.54909 0
      vertex 4.90333 5.00325 3
      vertex 4.90333 5.00325 0
    endloop
  endfacet
  facet normal -0.809017 -0.587785 0
    outer loop
      vertex 4.90333 5.00325 3
      vertex 5.23329 4.54909 0
      vertex 5.23329 4.54909 3
    endloop
  endfacet
  facet normal -0.104528 -0.994522 0
    outer loop
      vertex 3.85889 5.3426 0
      vertex 4.41717 5.28393 3
      vertex 3.85889 5.3426 3
    endloop
  endfacet
  facet normal -0.104528 -0.994522 -0
    outer loop
      vertex 4.41717 5.28393 3
      vertex 3.85889 5.3426 0
      vertex 4.41717 5.28393 0
    endloop
  endfacet
  facet normal 0.913546 -0.406736 0
    outer loop
      vertex 2.6795 4.28068 3
      vertex 2.90783 4.79351 0
      vertex 2.90783 4.79351 3
    endloop
  endfacet
  facet normal 0.913546 -0.406736 0
    outer loop
      vertex 2.90783 4.79351 0
      vertex 2.6795 4.28068 3
      vertex 2.6795 4.28068 0
    endloop
  endfacet
  facet normal 0.309016 0.951057 -0
    outer loop
      vertex 3.85889 2.6574 0
      vertex 3.325 2.83087 3
      vertex 3.85889 2.6574 3
    endloop
  endfacet
  facet normal 0.309016 0.951057 0
    outer loop
      vertex 3.325 2.83087 3
      vertex 3.85889 2.6574 0
      vertex 3.325 2.83087 0
    endloop
  endfacet
  facet normal 0.913546 0.406736 0
    outer loop
      vertex 2.90783 3.20649 3
      vertex 2.6795 3.71932 0
      vertex 2.6795 3.71932 3
    endloop
  endfacet
  facet normal 0.913546 0.406736 0
    outer loop
      vertex 2.6795 3.71932 0
      vertex 2.90783 3.20649 3
      vertex 2.90783 3.20649 0
    endloop
  endfacet
  facet normal -0.809017 0.587785 0
    outer loop
      vertex 4.90333 2.99675 0
      vertex 5.23329 3.45091 3
      vertex 5.23329 3.45091 0
    endloop
  endfacet
  facet normal -0.809017 0.587785 0
    outer loop
      vertex 5.23329 3.45091 3
      vertex 4.90333 2.99675 0
      vertex 4.90333 2.99675 3
    endloop
  endfacet
  facet normal 0.669131 0.743145 -0
    outer loop
      vertex 3.325 2.83087 0
      vertex 2.90783 3.20649 3
      vertex 3.325 2.83087 3
    endloop
  endfacet
  facet normal 0.669131 0.743145 0
    outer loop
      vertex 2.90783 3.20649 3
      vertex 3.325 2.83087 0
      vertex 2.90783 3.20649 0
    endloop
  endfacet
  facet normal -0.978148 0.207912 0
    outer loop
      vertex 5.23329 3.45091 0
      vertex 5.35 4 3
      vertex 5.35 4 0
    endloop
  endfacet
  facet normal -0.978148 0.207912 0
    outer loop
      vertex 5.35 4 3
      vertex 5.23329 3.45091 0
      vertex 5.23329 3.45091 3
    endloop
  endfacet
  facet normal -0.978147 -0.207913 0
    outer loop
      vertex 50.95 4 0
      vertex 50.8333 4.54909 3
      vertex 50.8333 4.54909 0
    endloop
  endfacet
  facet normal -0.978147 -0.207913 0
    outer loop
      vertex 50.8333 4.54909 3
      vertex 50.95 4 0
      vertex 50.95 4 3
    endloop
  endfacet
  facet normal 1 -0 0
    outer loop
      vertex 48.2795 3.71932 3
      vertex 48.2795 4.28068 0
      vertex 48.2795 4.28068 3
    endloop
  endfacet
  facet normal 1 0 0
    outer loop
      vertex 48.2795 4.28068 0
      vertex 48.2795 3.71932 3
      vertex 48.2795 3.71932 0
    endloop
  endfacet
  facet normal 0.309016 -0.951057 0
    outer loop
      vertex 48.925 5.16913 0
      vertex 49.4589 5.3426 3
      vertex 48.925 5.16913 3
    endloop
  endfacet
  facet normal 0.309016 -0.951057 0
    outer loop
      vertex 49.4589 5.3426 3
      vertex 48.925 5.16913 0
      vertex 49.4589 5.3426 0
    endloop
  endfacet
  facet normal -0.104527 0.994522 0
    outer loop
      vertex 50.0172 2.71607 0
      vertex 49.4589 2.6574 3
      vertex 50.0172 2.71607 3
    endloop
  endfacet
  facet normal -0.104527 0.994522 0
    outer loop
      vertex 49.4589 2.6574 3
      vertex 50.0172 2.71607 0
      vertex 49.4589 2.6574 0
    endloop
  endfacet
  facet normal -0.5 -0.866025 0
    outer loop
      vertex 50.0172 5.28393 0
      vertex 50.5033 5.00325 3
      vertex 50.0172 5.28393 3
    endloop
  endfacet
  facet normal -0.5 -0.866025 -0
    outer loop
      vertex 50.5033 5.00325 3
      vertex 50.0172 5.28393 0
      vertex 50.5033 5.00325 0
    endloop
  endfacet
  facet normal -0.809017 -0.587785 0
    outer loop
      vertex 50.8333 4.54909 0
      vertex 50.5033 5.00325 3
      vertex 50.5033 5.00325 0
    endloop
  endfacet
  facet normal -0.809017 -0.587785 0
    outer loop
      vertex 50.5033 5.00325 3
      vertex 50.8333 4.54909 0
      vertex 50.8333 4.54909 3
    endloop
  endfacet
  facet normal -0.104527 -0.994522 0
    outer loop
      vertex 49.4589 5.3426 0
      vertex 50.0172 5.28393 3
      vertex 49.4589 5.3426 3
    endloop
  endfacet
  facet normal -0.104527 -0.994522 -0
    outer loop
      vertex 50.0172 5.28393 3
      vertex 49.4589 5.3426 0
      vertex 50.0172 5.28393 0
    endloop
  endfacet
  facet normal 0.913544 -0.406741 0
    outer loop
      vertex 48.2795 4.28068 3
      vertex 48.5078 4.79351 0
      vertex 48.5078 4.79351 3
    endloop
  endfacet
  facet normal 0.913544 -0.406741 0
    outer loop
      vertex 48.5078 4.79351 0
      vertex 48.2795 4.28068 3
      vertex 48.2795 4.28068 0
    endloop
  endfacet
  facet normal 0.669132 -0.743143 0
    outer loop
      vertex 48.5078 4.79351 0
      vertex 48.925 5.16913 3
      vertex 48.5078 4.79351 3
    endloop
  endfacet
  facet normal 0.669132 -0.743143 0
    outer loop
      vertex 48.925 5.16913 3
      vertex 48.5078 4.79351 0
      vertex 48.925 5.16913 0
    endloop
  endfacet
  facet normal -0.978147 0.207913 0
    outer loop
      vertex 50.8333 3.45091 0
      vertex 50.95 4 3
      vertex 50.95 4 0
    endloop
  endfacet
  facet normal -0.978147 0.207913 0
    outer loop
      vertex 50.95 4 3
      vertex 50.8333 3.45091 0
      vertex 50.8333 3.45091 3
    endloop
  endfacet
  facet normal 0.309016 0.951057 -0
    outer loop
      vertex 49.4589 2.6574 0
      vertex 48.925 2.83087 3
      vertex 49.4589 2.6574 3
    endloop
  endfacet
  facet normal 0.309016 0.951057 0
    outer loop
      vertex 48.925 2.83087 3
      vertex 49.4589 2.6574 0
      vertex 48.925 2.83087 0
    endloop
  endfacet
  facet normal 0.913544 0.406741 0
    outer loop
      vertex 48.5078 3.20649 3
      vertex 48.2795 3.71932 0
      vertex 48.2795 3.71932 3
    endloop
  endfacet
  facet normal 0.913544 0.406741 0
    outer loop
      vertex 48.2795 3.71932 0
      vertex 48.5078 3.20649 3
      vertex 48.5078 3.20649 0
    endloop
  endfacet
  facet normal -0.809017 0.587785 0
    outer loop
      vertex 50.5033 2.99675 0
      vertex 50.8333 3.45091 3
      vertex 50.8333 3.45091 0
    endloop
  endfacet
  facet normal -0.809017 0.587785 0
    outer loop
      vertex 50.8333 3.45091 3
      vertex 50.5033 2.99675 0
      vertex 50.5033 2.99675 3
    endloop
  endfacet
  facet normal -0.5 0.866025 0
    outer loop
      vertex 50.5033 2.99675 0
      vertex 50.0172 2.71607 3
      vertex 50.5033 2.99675 3
    endloop
  endfacet
  facet normal -0.5 0.866025 0
    outer loop
      vertex 50.0172 2.71607 3
      vertex 50.5033 2.99675 0
      vertex 50.0172 2.71607 0
    endloop
  endfacet
  facet normal 0.669132 0.743143 -0
    outer loop
      vertex 48.925 2.83087 0
      vertex 48.5078 3.20649 3
      vertex 48.925 2.83087 3
    endloop
  endfacet
  facet normal 0.669132 0.743143 0
    outer loop
      vertex 48.5078 3.20649 3
      vertex 48.925 2.83087 0
      vertex 48.5078 3.20649 0
    endloop
  endfacet
  facet normal -0 0 1
    outer loop
      vertex 53.6 8 3
      vertex 73.6 4.44089e-15 3
      vertex 73.6 8 3
    endloop
  endfacet
  facet normal 0 0 1
    outer loop
      vertex 73.6 4.44089e-15 3
      vertex 53.6 8 3
      vertex 53.6 0 3
    endloop
  endfacet
  facet normal 2.22045e-16 -1 0
    outer loop
      vertex 67.6 3.10862e-15 -5
      vertex 67.6 3.10862e-15 -8
      vertex 70.6 3.77476e-15 -5
    endloop
  endfacet
  facet normal 2.22045e-16 -1 0
    outer loop
      vertex 53.6 0 3
      vertex 70.6 3.77476e-15 3.77476e-15
      vertex 73.6 4.44089e-15 3
    endloop
  endfacet
  facet normal 2.22045e-16 -1 0
    outer loop
      vertex 53.6 0 3
      vertex 56.6 6.66134e-16 6.66134e-16
      vertex 70.6 3.77476e-15 3.77476e-15
    endloop
  endfacet
  facet normal 2.22045e-16 -1 0
    outer loop
      vertex 53.6 0 -3
      vertex 56.6 6.66134e-16 6.66134e-16
      vertex 53.6 0 3
    endloop
  endfacet
  facet normal 2.22045e-16 -1 0
    outer loop
      vertex 56.6 6.66134e-16 6.66134e-16
      vertex 53.6 0 -3
      vertex 56.6 6.66134e-16 -3
    endloop
  endfacet
  facet normal 2.22045e-16 -1 0
    outer loop
      vertex 70.6 3.77476e-15 -5
      vertex 73.6 4.44089e-15 3
      vertex 70.6 3.77476e-15 3.77476e-15
    endloop
  endfacet
  facet normal 2.22045e-16 -1 0
    outer loop
      vertex 70.6 3.77476e-15 -5
      vertex 73.6 4.44089e-15 -8
      vertex 73.6 4.44089e-15 3
    endloop
  endfacet
  facet normal 2.22045e-16 -1 0
    outer loop
      vertex 73.6 4.44089e-15 -8
      vertex 70.6 3.77476e-15 -5
      vertex 67.6 3.10862e-15 -8
    endloop
  endfacet
  facet normal 2.22045e-16 0 -1
    outer loop
      vertex 56.6 6.66134e-16 6.66134e-16
      vertex 70.6 8 3.77476e-15
      vertex 70.6 3.77476e-15 3.77476e-15
    endloop
  endfacet
  facet normal 2.22045e-16 0 -1
    outer loop
      vertex 70.6 8 3.77476e-15
      vertex 56.6 6.66134e-16 6.66134e-16
      vertex 56.6 8 6.66134e-16
    endloop
  endfacet
  facet normal -1 0 0
    outer loop
      vertex 70.6 3.77476e-15 -5
      vertex 70.6 8 3.77476e-15
      vertex 70.6 8 -5
    endloop
  endfacet
  facet normal -1 -0 0
    outer loop
      vertex 70.6 8 3.77476e-15
      vertex 70.6 3.77476e-15 -5
      vertex 70.6 3.77476e-15 3.77476e-15
    endloop
  endfacet
  facet normal 0 1 0
    outer loop
      vertex 73.6 8 3
      vertex 70.6 8 3.77476e-15
      vertex 53.6 8 3
    endloop
  endfacet
  facet normal 0 1 0
    outer loop
      vertex 73.6 8 3
      vertex 70.6 8 -5
      vertex 70.6 8 3.77476e-15
    endloop
  endfacet
  facet normal 0 1 -0
    outer loop
      vertex 73.6 8 -8
      vertex 70.6 8 -5
      vertex 73.6 8 3
    endloop
  endfacet
  facet normal 0 1 0
    outer loop
      vertex 67.6 8 -8
      vertex 70.6 8 -5
      vertex 73.6 8 -8
    endloop
  endfacet
  facet normal 0 1 0
    outer loop
      vertex 70.6 8 -5
      vertex 67.6 8 -8
      vertex 67.6 8 -5
    endloop
  endfacet
  facet normal 0 1 -0
    outer loop
      vertex 56.6 8 6.66134e-16
      vertex 53.6 8 3
      vertex 70.6 8 3.77476e-15
    endloop
  endfacet
  facet normal 0 1 0
    outer loop
      vertex 53.6 8 -3
      vertex 56.6 8 6.66134e-16
      vertex 56.6 8 -3
    endloop
  endfacet
  facet normal 0 1 0
    outer loop
      vertex 56.6 8 6.66134e-16
      vertex 53.6 8 -3
      vertex 53.6 8 3
    endloop
  endfacet
  facet normal -1 0 0
    outer loop
      vertex 53.6 0 -3
      vertex 53.6 8 3
      vertex 53.6 8 -3
    endloop
  endfacet
  facet normal -1 -0 0
    outer loop
      vertex 53.6 8 3
      vertex 53.6 0 -3
      vertex 53.6 0 3
    endloop
  endfacet
  facet normal 0 0 -1
    outer loop
      vertex 67.6 3.10862e-15 -8
      vertex 73.6 8 -8
      vertex 73.6 4.44089e-15 -8
    endloop
  endfacet
  facet normal -0 0 -1
    outer loop
      vertex 73.6 8 -8
      vertex 67.6 3.10862e-15 -8
      vertex 67.6 8 -8
    endloop
  endfacet
  facet normal 1 -0 0
    outer loop
      vertex 73.6 4.44089e-15 3
      vertex 73.6 8 -8
      vertex 73.6 8 3
    endloop
  endfacet
  facet normal 1 0 0
    outer loop
      vertex 73.6 8 -8
      vertex 73.6 4.44089e-15 3
      vertex 73.6 4.44089e-15 -8
    endloop
  endfacet
  facet normal -0 0 1
    outer loop
      vertex 67.6 8 -5
      vertex 70.6 3.77476e-15 -5
      vertex 70.6 8 -5
    endloop
  endfacet
  facet normal 0 0 1
    outer loop
      vertex 70.6 3.77476e-15 -5
      vertex 67.6 8 -5
      vertex 67.6 3.10862e-15 -5
    endloop
  endfacet
  facet normal -1 0 0
    outer loop
      vertex 67.6 3.10862e-15 -8
      vertex 67.6 8 -5
      vertex 67.6 8 -8
    endloop
  endfacet
  facet normal -1 -0 0
    outer loop
      vertex 67.6 8 -5
      vertex 67.6 3.10862e-15 -8
      vertex 67.6 3.10862e-15 -5
    endloop
  endfacet
  facet normal 0 0 -1
    outer loop
      vertex 53.6 0 -3
      vertex 56.6 8 -3
      vertex 56.6 6.66134e-16 -3
    endloop
  endfacet
  facet normal -0 0 -1
    outer loop
      vertex 56.6 8 -3
      vertex 53.6 0 -3
      vertex 53.6 8 -3
    endloop
  endfacet
  facet normal 1 -0 0
    outer loop
      vertex 56.6 6.66134e-16 6.66134e-16
      vertex 56.6 8 -3
      vertex 56.6 8 6.66134e-16
    endloop
  endfacet
  facet normal 1 0 0
    outer loop
      vertex 56.6 8 -3
      vertex 56.6 6.66134e-16 6.66134e-16
      vertex 56.6 6.66134e-16 -3
    endloop
  endfacet
endsolid OpenSCAD_Model
