solid OpenSCAD_Model
  facet normal -1 0 0
    outer loop
      vertex -39 -5 0
      vertex -39 13 1
      vertex -39 13 0
    endloop
  endfacet
  facet normal -1 -0 0
    outer loop
      vertex -39 13 1
      vertex -39 -5 0
      vertex -39 -5 1
    endloop
  endfacet
  facet normal 0 0 1
    outer loop
      vertex -26 5 1
      vertex -32.7161 1.01684 1
      vertex -32.5 0 1
    endloop
  endfacet
  facet normal 0 0 1
    outer loop
      vertex -29.6253 7.52291 1
      vertex -33.3272 1.85786 1
      vertex -32.7161 1.01684 1
    endloop
  endfacet
  facet normal 0 0 1
    outer loop
      vertex -29.6253 7.52291 1
      vertex -34.2275 2.37764 1
      vertex -33.3272 1.85786 1
    endloop
  endfacet
  facet normal 0 0 1
    outer loop
      vertex -34.3805 9.06799 1
      vertex -34.2275 2.37764 1
      vertex -29.6253 7.52291 1
    endloop
  endfacet
  facet normal 0 0 1
    outer loop
      vertex -34.2275 2.37764 1
      vertex -34.3805 9.06799 1
      vertex -35.2613 2.4863 1
    endloop
  endfacet
  facet normal 0 0 1
    outer loop
      vertex -26 13 1
      vertex -29.0072 9.42502 1
      vertex -26 5 1
    endloop
  endfacet
  facet normal 0 0 1
    outer loop
      vertex -26 13 1
      vertex -33.7625 10.9701 1
      vertex -29.0072 9.42502 1
    endloop
  endfacet
  facet normal 0 0 1
    outer loop
      vertex -34.3805 9.06799 1
      vertex -36.25 2.16506 1
      vertex -35.2613 2.4863 1
    endloop
  endfacet
  facet normal 0 0 1
    outer loop
      vertex -39 13 1
      vertex -36.25 2.16506 1
      vertex -34.3805 9.06799 1
    endloop
  endfacet
  facet normal 0 0 1
    outer loop
      vertex -39 13 1
      vertex -34.3805 9.06799 1
      vertex -33.7625 10.9701 1
    endloop
  endfacet
  facet normal 0 0 1
    outer loop
      vertex -36.25 2.16506 1
      vertex -39 13 1
      vertex -37.0225 1.46946 1
    endloop
  endfacet
  facet normal 0 0 1
    outer loop
      vertex -39 -5 1
      vertex -37.4454 0.519779 1
      vertex -39 13 1
    endloop
  endfacet
  facet normal 0 0 1
    outer loop
      vertex -37.0225 1.46946 1
      vertex -39 13 1
      vertex -37.4454 0.519779 1
    endloop
  endfacet
  facet normal -0 0 1
    outer loop
      vertex -39 13 1
      vertex -33.7625 10.9701 1
      vertex -26 13 1
    endloop
  endfacet
  facet normal 0 0 1
    outer loop
      vertex 33.75 -2.16506 1
      vertex 34.3805 -9.06799 1
      vertex 34.7387 -2.48631 1
    endloop
  endfacet
  facet normal 0 0 1
    outer loop
      vertex 29.6253 -7.52291 1
      vertex 33.75 -2.16506 1
      vertex 32.9775 -1.46946 1
    endloop
  endfacet
  facet normal 0 0 1
    outer loop
      vertex 26 -5 1
      vertex 32.9775 -1.46946 1
      vertex 32.5546 -0.51978 1
    endloop
  endfacet
  facet normal 0 0 1
    outer loop
      vertex 33.75 -2.16506 1
      vertex 29.6253 -7.52291 1
      vertex 34.3805 -9.06799 1
    endloop
  endfacet
  facet normal 0 0 1
    outer loop
      vertex 39 5 1
      vertex 37.5 0 1
      vertex 39 -13 1
    endloop
  endfacet
  facet normal 0 0 1
    outer loop
      vertex 39 5 1
      vertex 37.2839 1.01684 1
      vertex 37.5 0 1
    endloop
  endfacet
  facet normal 0 0 1
    outer loop
      vertex 39 5 1
      vertex 36.6728 1.85786 1
      vertex 37.2839 1.01684 1
    endloop
  endfacet
  facet normal 0 0 1
    outer loop
      vertex 39 5 1
      vertex 35.7725 2.37764 1
      vertex 36.6728 1.85786 1
    endloop
  endfacet
  facet normal 0 0 1
    outer loop
      vertex 39 5 1
      vertex 34.7387 2.4863 1
      vertex 35.7725 2.37764 1
    endloop
  endfacet
  facet normal 0 0 1
    outer loop
      vertex 39 5 1
      vertex 33.75 2.16506 1
      vertex 34.7387 2.4863 1
    endloop
  endfacet
  facet normal 0 0 1
    outer loop
      vertex 26 -5 1
      vertex 32.5546 -0.51978 1
      vertex 32.5546 0.519779 1
    endloop
  endfacet
  facet normal 0 0 1
    outer loop
      vertex 29.6253 -7.52291 1
      vertex 26 -5 1
      vertex 29.0072 -9.42502 1
    endloop
  endfacet
  facet normal 0 0 1
    outer loop
      vertex 32.9775 -1.46946 1
      vertex 26 -5 1
      vertex 29.6253 -7.52291 1
    endloop
  endfacet
  facet normal 0 0 1
    outer loop
      vertex 32.9775 1.46946 1
      vertex 26 -5 1
      vertex 32.5546 0.519779 1
    endloop
  endfacet
  facet normal -0 0 1
    outer loop
      vertex -26 5 1
      vertex 33.75 2.16506 1
      vertex 39 5 1
    endloop
  endfacet
  facet normal 0 0 1
    outer loop
      vertex -26 5 1
      vertex 32.9775 1.46946 1
      vertex 33.75 2.16506 1
    endloop
  endfacet
  facet normal 0 0 1
    outer loop
      vertex -26 5 1
      vertex 26 -5 1
      vertex 32.9775 1.46946 1
    endloop
  endfacet
  facet normal -0 0 1
    outer loop
      vertex -29.6253 7.52291 1
      vertex -26 5 1
      vertex -29.0072 9.42502 1
    endloop
  endfacet
  facet normal 0 0 1
    outer loop
      vertex -32.7161 1.01684 1
      vertex -26 5 1
      vertex -29.6253 7.52291 1
    endloop
  endfacet
  facet normal 0 0 1
    outer loop
      vertex -32.7161 -1.01684 1
      vertex -26 5 1
      vertex -32.5 0 1
    endloop
  endfacet
  facet normal 0 0 1
    outer loop
      vertex -33.3272 -1.85786 1
      vertex -26 5 1
      vertex -32.7161 -1.01684 1
    endloop
  endfacet
  facet normal 0 0 1
    outer loop
      vertex -26 5 1
      vertex -33.3272 -1.85786 1
      vertex 26 -5 1
    endloop
  endfacet
  facet normal -0 0 1
    outer loop
      vertex -34.2275 -2.37764 1
      vertex 26 -5 1
      vertex -33.3272 -1.85786 1
    endloop
  endfacet
  facet normal 0 0 1
    outer loop
      vertex -39 -5 1
      vertex -34.2275 -2.37764 1
      vertex -35.2613 -2.48631 1
    endloop
  endfacet
  facet normal 0 0 1
    outer loop
      vertex -34.2275 -2.37764 1
      vertex -39 -5 1
      vertex 26 -5 1
    endloop
  endfacet
  facet normal 0 0 1
    outer loop
      vertex -36.25 -2.16506 1
      vertex -39 -5 1
      vertex -35.2613 -2.48631 1
    endloop
  endfacet
  facet normal 0 0 1
    outer loop
      vertex -37.0225 -1.46946 1
      vertex -39 -5 1
      vertex -36.25 -2.16506 1
    endloop
  endfacet
  facet normal 0 0 1
    outer loop
      vertex -37.4454 -0.51978 1
      vertex -39 -5 1
      vertex -37.0225 -1.46946 1
    endloop
  endfacet
  facet normal 0 0 1
    outer loop
      vertex -37.4454 0.519779 1
      vertex -39 -5 1
      vertex -37.4454 -0.51978 1
    endloop
  endfacet
  facet normal -0 0 1
    outer loop
      vertex 37.2839 -1.01684 1
      vertex 39 -13 1
      vertex 37.5 0 1
    endloop
  endfacet
  facet normal -0 0 1
    outer loop
      vertex 36.6728 -1.85786 1
      vertex 39 -13 1
      vertex 37.2839 -1.01684 1
    endloop
  endfacet
  facet normal 0 0 1
    outer loop
      vertex 34.3805 -9.06799 1
      vertex 36.6728 -1.85786 1
      vertex 35.7725 -2.37764 1
    endloop
  endfacet
  facet normal 0 0 1
    outer loop
      vertex 34.3805 -9.06799 1
      vertex 35.7725 -2.37764 1
      vertex 34.7387 -2.48631 1
    endloop
  endfacet
  facet normal 0 0 1
    outer loop
      vertex 36.6728 -1.85786 1
      vertex 34.3805 -9.06799 1
      vertex 39 -13 1
    endloop
  endfacet
  facet normal -0 0 1
    outer loop
      vertex 33.7625 -10.9701 1
      vertex 39 -13 1
      vertex 34.3805 -9.06799 1
    endloop
  endfacet
  facet normal 0 0 1
    outer loop
      vertex 26 -13 1
      vertex 33.7625 -10.9701 1
      vertex 29.0072 -9.42502 1
    endloop
  endfacet
  facet normal 0 0 1
    outer loop
      vertex 33.7625 -10.9701 1
      vertex 26 -13 1
      vertex 39 -13 1
    endloop
  endfacet
  facet normal 0 0 1
    outer loop
      vertex 26 -13 1
      vertex 29.0072 -9.42502 1
      vertex 26 -5 1
    endloop
  endfacet
  facet normal 1 -0 0
    outer loop
      vertex 39 -13 1
      vertex 39 5 0
      vertex 39 5 1
    endloop
  endfacet
  facet normal 1 0 0
    outer loop
      vertex 39 5 0
      vertex 39 -13 1
      vertex 39 -13 0
    endloop
  endfacet
  facet normal 0 0 -1
    outer loop
      vertex -33.3272 1.85786 0
      vertex -26 5 0
      vertex -32.7161 1.01684 0
    endloop
  endfacet
  facet normal 0 0 -1
    outer loop
      vertex -34.2275 2.37764 0
      vertex -26 5 0
      vertex -33.3272 1.85786 0
    endloop
  endfacet
  facet normal -0 0 -1
    outer loop
      vertex -26 5 0
      vertex -34.2275 2.37764 0
      vertex -26 13 0
    endloop
  endfacet
  facet normal 0 0 -1
    outer loop
      vertex -39 13 0
      vertex -34.2275 2.37764 0
      vertex -35.2613 2.4863 0
    endloop
  endfacet
  facet normal 0 0 -1
    outer loop
      vertex -39 13 0
      vertex -35.2613 2.4863 0
      vertex -36.25 2.16506 0
    endloop
  endfacet
  facet normal 0 0 -1
    outer loop
      vertex -39 13 0
      vertex -36.25 2.16506 0
      vertex -37.0225 1.46946 0
    endloop
  endfacet
  facet normal 0 0 -1
    outer loop
      vertex -34.2275 2.37764 0
      vertex -39 13 0
      vertex -26 13 0
    endloop
  endfacet
  facet normal 0 0 -1
    outer loop
      vertex -37.4454 0.519779 0
      vertex -39 13 0
      vertex -37.0225 1.46946 0
    endloop
  endfacet
  facet normal 0 0 -1
    outer loop
      vertex -39 13 0
      vertex -37.4454 0.519779 0
      vertex -39 -5 0
    endloop
  endfacet
  facet normal 0 0 -1
    outer loop
      vertex 39 -13 0
      vertex 37.5 0 0
      vertex 39 5 0
    endloop
  endfacet
  facet normal 0 0 -1
    outer loop
      vertex 39 -13 0
      vertex 37.2839 -1.01684 0
      vertex 37.5 0 0
    endloop
  endfacet
  facet normal 0 0 -1
    outer loop
      vertex 39 -13 0
      vertex 36.6728 -1.85786 0
      vertex 37.2839 -1.01684 0
    endloop
  endfacet
  facet normal 0 0 -1
    outer loop
      vertex 39 -13 0
      vertex 35.7725 -2.37764 0
      vertex 36.6728 -1.85786 0
    endloop
  endfacet
  facet normal 0 0 -1
    outer loop
      vertex 39 -13 0
      vertex 34.7387 -2.48631 0
      vertex 35.7725 -2.37764 0
    endloop
  endfacet
  facet normal 0 0 -1
    outer loop
      vertex 26 -13 0
      vertex 34.7387 -2.48631 0
      vertex 39 -13 0
    endloop
  endfacet
  facet normal -0 0 -1
    outer loop
      vertex 34.7387 -2.48631 0
      vertex 26 -13 0
      vertex 33.75 -2.16506 0
    endloop
  endfacet
  facet normal -0 0 -1
    outer loop
      vertex 32.9775 -1.46946 0
      vertex 26 -5 0
      vertex 32.5546 -0.51978 0
    endloop
  endfacet
  facet normal -0 0 -1
    outer loop
      vertex 33.75 -2.16506 0
      vertex 26 -5 0
      vertex 32.9775 -1.46946 0
    endloop
  endfacet
  facet normal 0 0 -1
    outer loop
      vertex 26 -5 0
      vertex 33.75 -2.16506 0
      vertex 26 -13 0
    endloop
  endfacet
  facet normal 0 0 -1
    outer loop
      vertex 37.2839 1.01684 0
      vertex 39 5 0
      vertex 37.5 0 0
    endloop
  endfacet
  facet normal 0 0 -1
    outer loop
      vertex 36.6728 1.85786 0
      vertex 39 5 0
      vertex 37.2839 1.01684 0
    endloop
  endfacet
  facet normal 0 0 -1
    outer loop
      vertex 35.7725 2.37764 0
      vertex 39 5 0
      vertex 36.6728 1.85786 0
    endloop
  endfacet
  facet normal 0 0 -1
    outer loop
      vertex 34.7387 2.4863 0
      vertex 39 5 0
      vertex 35.7725 2.37764 0
    endloop
  endfacet
  facet normal 0 0 -1
    outer loop
      vertex 33.75 2.16506 0
      vertex 39 5 0
      vertex 34.7387 2.4863 0
    endloop
  endfacet
  facet normal -0 0 -1
    outer loop
      vertex 32.5546 -0.51978 0
      vertex 26 -5 0
      vertex 32.5546 0.519779 0
    endloop
  endfacet
  facet normal -0 0 -1
    outer loop
      vertex 32.5546 0.519779 0
      vertex 26 -5 0
      vertex 32.9775 1.46946 0
    endloop
  endfacet
  facet normal 0 0 -1
    outer loop
      vertex 33.75 2.16506 0
      vertex -26 5 0
      vertex 39 5 0
    endloop
  endfacet
  facet normal 0 0 -1
    outer loop
      vertex 32.9775 1.46946 0
      vertex -26 5 0
      vertex 33.75 2.16506 0
    endloop
  endfacet
  facet normal 0 0 -1
    outer loop
      vertex 26 -5 0
      vertex -26 5 0
      vertex 32.9775 1.46946 0
    endloop
  endfacet
  facet normal 0 0 -1
    outer loop
      vertex -32.7161 1.01684 0
      vertex -26 5 0
      vertex -32.5 0 0
    endloop
  endfacet
  facet normal 0 0 -1
    outer loop
      vertex -33.3272 -1.85786 0
      vertex -26 5 0
      vertex 26 -5 0
    endloop
  endfacet
  facet normal 0 0 -1
    outer loop
      vertex -26 5 0
      vertex -32.7161 -1.01684 0
      vertex -32.5 0 0
    endloop
  endfacet
  facet normal 0 0 -1
    outer loop
      vertex -26 5 0
      vertex -33.3272 -1.85786 0
      vertex -32.7161 -1.01684 0
    endloop
  endfacet
  facet normal 0 0 -1
    outer loop
      vertex 26 -5 0
      vertex -34.2275 -2.37764 0
      vertex -33.3272 -1.85786 0
    endloop
  endfacet
  facet normal 0 0 -1
    outer loop
      vertex -39 -5 0
      vertex -34.2275 -2.37764 0
      vertex 26 -5 0
    endloop
  endfacet
  facet normal -0 0 -1
    outer loop
      vertex -37.4454 -0.51978 0
      vertex -39 -5 0
      vertex -37.4454 0.519779 0
    endloop
  endfacet
  facet normal -0 0 -1
    outer loop
      vertex -37.0225 -1.46946 0
      vertex -39 -5 0
      vertex -37.4454 -0.51978 0
    endloop
  endfacet
  facet normal -0 0 -1
    outer loop
      vertex -36.25 -2.16506 0
      vertex -39 -5 0
      vertex -37.0225 -1.46946 0
    endloop
  endfacet
  facet normal -0 0 -1
    outer loop
      vertex -35.2613 -2.48631 0
      vertex -39 -5 0
      vertex -36.25 -2.16506 0
    endloop
  endfacet
  facet normal 0 0 -1
    outer loop
      vertex -34.2275 -2.37764 0
      vertex -39 -5 0
      vertex -35.2613 -2.48631 0
    endloop
  endfacet
  facet normal 0 -1 0
    outer loop
      vertex -39 -5 0
      vertex 26 -5 1
      vertex -39 -5 1
    endloop
  endfacet
  facet normal 0 -1 -0
    outer loop
      vertex 26 -5 1
      vertex -39 -5 0
      vertex 26 -5 0
    endloop
  endfacet
  facet normal 0 1 -0
    outer loop
      vertex 39 5 0
      vertex -26 5 1
      vertex 39 5 1
    endloop
  endfacet
  facet normal 0 1 0
    outer loop
      vertex -26 5 1
      vertex 39 5 0
      vertex -26 5 0
    endloop
  endfacet
  facet normal 1 -0 0
    outer loop
      vertex -26 5 1
      vertex -26 13 0
      vertex -26 13 1
    endloop
  endfacet
  facet normal 1 0 0
    outer loop
      vertex -26 13 0
      vertex -26 5 1
      vertex -26 5 0
    endloop
  endfacet
  facet normal 0 1 -0
    outer loop
      vertex -26 13 0
      vertex -39 13 1
      vertex -26 13 1
    endloop
  endfacet
  facet normal 0 1 0
    outer loop
      vertex -39 13 1
      vertex -26 13 0
      vertex -39 13 0
    endloop
  endfacet
  facet normal -1 0 0
    outer loop
      vertex 26 -13 0
      vertex 26 -5 1
      vertex 26 -5 0
    endloop
  endfacet
  facet normal -1 -0 0
    outer loop
      vertex 26 -5 1
      vertex 26 -13 0
      vertex 26 -13 1
    endloop
  endfacet
  facet normal 0 -1 0
    outer loop
      vertex 26 -13 0
      vertex 39 -13 1
      vertex 26 -13 1
    endloop
  endfacet
  facet normal 0 -1 -0
    outer loop
      vertex 39 -13 1
      vertex 26 -13 0
      vertex 39 -13 0
    endloop
  endfacet
  facet normal -0.978147 -0.207912 0
    outer loop
      vertex -32.5 0 0
      vertex -32.7161 1.01684 1
      vertex -32.7161 1.01684 0
    endloop
  endfacet
  facet normal -0.978147 -0.207912 0
    outer loop
      vertex -32.7161 1.01684 1
      vertex -32.5 0 0
      vertex -32.5 0 1
    endloop
  endfacet
  facet normal 1 -0 0
    outer loop
      vertex -37.4454 -0.51978 1
      vertex -37.4454 0.519779 0
      vertex -37.4454 0.519779 1
    endloop
  endfacet
  facet normal 1 0 0
    outer loop
      vertex -37.4454 0.519779 0
      vertex -37.4454 -0.51978 1
      vertex -37.4454 -0.51978 0
    endloop
  endfacet
  facet normal -0.104529 -0.994522 0
    outer loop
      vertex -35.2613 2.4863 0
      vertex -34.2275 2.37764 1
      vertex -35.2613 2.4863 1
    endloop
  endfacet
  facet normal -0.104529 -0.994522 -0
    outer loop
      vertex -34.2275 2.37764 1
      vertex -35.2613 2.4863 0
      vertex -34.2275 2.37764 0
    endloop
  endfacet
  facet normal -0.5 -0.866025 0
    outer loop
      vertex -34.2275 2.37764 0
      vertex -33.3272 1.85786 1
      vertex -34.2275 2.37764 1
    endloop
  endfacet
  facet normal -0.5 -0.866025 -0
    outer loop
      vertex -33.3272 1.85786 1
      vertex -34.2275 2.37764 0
      vertex -33.3272 1.85786 0
    endloop
  endfacet
  facet normal -0.809017 -0.587786 0
    outer loop
      vertex -32.7161 1.01684 0
      vertex -33.3272 1.85786 1
      vertex -33.3272 1.85786 0
    endloop
  endfacet
  facet normal -0.809017 -0.587786 0
    outer loop
      vertex -33.3272 1.85786 1
      vertex -32.7161 1.01684 0
      vertex -32.7161 1.01684 1
    endloop
  endfacet
  facet normal 0.66913 -0.743146 0
    outer loop
      vertex -37.0225 1.46946 0
      vertex -36.25 2.16506 1
      vertex -37.0225 1.46946 1
    endloop
  endfacet
  facet normal 0.66913 -0.743146 0
    outer loop
      vertex -36.25 2.16506 1
      vertex -37.0225 1.46946 0
      vertex -36.25 2.16506 0
    endloop
  endfacet
  facet normal 0.913546 -0.406736 0
    outer loop
      vertex -37.4454 0.519779 1
      vertex -37.0225 1.46946 0
      vertex -37.0225 1.46946 1
    endloop
  endfacet
  facet normal 0.913546 -0.406736 0
    outer loop
      vertex -37.0225 1.46946 0
      vertex -37.4454 0.519779 1
      vertex -37.4454 0.519779 0
    endloop
  endfacet
  facet normal 0.309017 -0.951056 0
    outer loop
      vertex -36.25 2.16506 0
      vertex -35.2613 2.4863 1
      vertex -36.25 2.16506 1
    endloop
  endfacet
  facet normal 0.309017 -0.951056 0
    outer loop
      vertex -35.2613 2.4863 1
      vertex -36.25 2.16506 0
      vertex -35.2613 2.4863 0
    endloop
  endfacet
  facet normal -0.978147 0.207912 0
    outer loop
      vertex -32.7161 -1.01684 0
      vertex -32.5 0 1
      vertex -32.5 0 0
    endloop
  endfacet
  facet normal -0.978147 0.207912 0
    outer loop
      vertex -32.5 0 1
      vertex -32.7161 -1.01684 0
      vertex -32.7161 -1.01684 1
    endloop
  endfacet
  facet normal 0.309017 0.951056 -0
    outer loop
      vertex -35.2613 -2.48631 0
      vertex -36.25 -2.16506 1
      vertex -35.2613 -2.48631 1
    endloop
  endfacet
  facet normal 0.309017 0.951056 0
    outer loop
      vertex -36.25 -2.16506 1
      vertex -35.2613 -2.48631 0
      vertex -36.25 -2.16506 0
    endloop
  endfacet
  facet normal 0.913546 0.406736 0
    outer loop
      vertex -37.0225 -1.46946 1
      vertex -37.4454 -0.51978 0
      vertex -37.4454 -0.51978 1
    endloop
  endfacet
  facet normal 0.913546 0.406736 0
    outer loop
      vertex -37.4454 -0.51978 0
      vertex -37.0225 -1.46946 1
      vertex -37.0225 -1.46946 0
    endloop
  endfacet
  facet normal -0.809017 0.587786 0
    outer loop
      vertex -33.3272 -1.85786 0
      vertex -32.7161 -1.01684 1
      vertex -32.7161 -1.01684 0
    endloop
  endfacet
  facet normal -0.809017 0.587786 0
    outer loop
      vertex -32.7161 -1.01684 1
      vertex -33.3272 -1.85786 0
      vertex -33.3272 -1.85786 1
    endloop
  endfacet
  facet normal -0.5 0.866025 0
    outer loop
      vertex -33.3272 -1.85786 0
      vertex -34.2275 -2.37764 1
      vertex -33.3272 -1.85786 1
    endloop
  endfacet
  facet normal -0.5 0.866025 0
    outer loop
      vertex -34.2275 -2.37764 1
      vertex -33.3272 -1.85786 0
      vertex -34.2275 -2.37764 0
    endloop
  endfacet
  facet normal -0.104529 0.994522 0
    outer loop
      vertex -34.2275 -2.37764 0
      vertex -35.2613 -2.48631 1
      vertex -34.2275 -2.37764 1
    endloop
  endfacet
  facet normal -0.104529 0.994522 0
    outer loop
      vertex -35.2613 -2.48631 1
      vertex -34.2275 -2.37764 0
      vertex -35.2613 -2.48631 0
    endloop
  endfacet
  facet normal 0.66913 0.743146 -0
    outer loop
      vertex -36.25 -2.16506 0
      vertex -37.0225 -1.46946 1
      vertex -36.25 -2.16506 1
    endloop
  endfacet
  facet normal 0.66913 0.743146 0
    outer loop
      vertex -37.0225 -1.46946 1
      vertex -36.25 -2.16506 0
      vertex -37.0225 -1.46946 0
    endloop
  endfacet
  facet normal -0.978147 -0.207912 0
    outer loop
      vertex 37.5 0 0
      vertex 37.2839 1.01684 1
      vertex 37.2839 1.01684 0
    endloop
  endfacet
  facet normal -0.978147 -0.207912 0
    outer loop
      vertex 37.2839 1.01684 1
      vertex 37.5 0 0
      vertex 37.5 0 1
    endloop
  endfacet
  facet normal 1 -0 0
    outer loop
      vertex 32.5546 -0.51978 1
      vertex 32.5546 0.519779 0
      vertex 32.5546 0.519779 1
    endloop
  endfacet
  facet normal 1 0 0
    outer loop
      vertex 32.5546 0.519779 0
      vertex 32.5546 -0.51978 1
      vertex 32.5546 -0.51978 0
    endloop
  endfacet
  facet normal -0.104529 -0.994522 0
    outer loop
      vertex 34.7387 2.4863 0
      vertex 35.7725 2.37764 1
      vertex 34.7387 2.4863 1
    endloop
  endfacet
  facet normal -0.104529 -0.994522 -0
    outer loop
      vertex 35.7725 2.37764 1
      vertex 34.7387 2.4863 0
      vertex 35.7725 2.37764 0
    endloop
  endfacet
  facet normal -0.104529 0.994522 0
    outer loop
      vertex 35.7725 -2.37764 0
      vertex 34.7387 -2.48631 1
      vertex 35.7725 -2.37764 1
    endloop
  endfacet
  facet normal -0.104529 0.994522 0
    outer loop
      vertex 34.7387 -2.48631 1
      vertex 35.7725 -2.37764 0
      vertex 34.7387 -2.48631 0
    endloop
  endfacet
  facet normal -0.5 0.866025 0
    outer loop
      vertex 36.6728 -1.85786 0
      vertex 35.7725 -2.37764 1
      vertex 36.6728 -1.85786 1
    endloop
  endfacet
  facet normal -0.5 0.866025 0
    outer loop
      vertex 35.7725 -2.37764 1
      vertex 36.6728 -1.85786 0
      vertex 35.7725 -2.37764 0
    endloop
  endfacet
  facet normal -0.5 -0.866025 0
    outer loop
      vertex 35.7725 2.37764 0
      vertex 36.6728 1.85786 1
      vertex 35.7725 2.37764 1
    endloop
  endfacet
  facet normal -0.5 -0.866025 -0
    outer loop
      vertex 36.6728 1.85786 1
      vertex 35.7725 2.37764 0
      vertex 36.6728 1.85786 0
    endloop
  endfacet
  facet normal -0.809017 -0.587786 0
    outer loop
      vertex 37.2839 1.01684 0
      vertex 36.6728 1.85786 1
      vertex 36.6728 1.85786 0
    endloop
  endfacet
  facet normal -0.809017 -0.587786 0
    outer loop
      vertex 36.6728 1.85786 1
      vertex 37.2839 1.01684 0
      vertex 37.2839 1.01684 1
    endloop
  endfacet
  facet normal 0.66913 -0.743146 0
    outer loop
      vertex 32.9775 1.46946 0
      vertex 33.75 2.16506 1
      vertex 32.9775 1.46946 1
    endloop
  endfacet
  facet normal 0.66913 -0.743146 0
    outer loop
      vertex 33.75 2.16506 1
      vertex 32.9775 1.46946 0
      vertex 33.75 2.16506 0
    endloop
  endfacet
  facet normal 0.913546 -0.406736 0
    outer loop
      vertex 32.5546 0.519779 1
      vertex 32.9775 1.46946 0
      vertex 32.9775 1.46946 1
    endloop
  endfacet
  facet normal 0.913546 -0.406736 0
    outer loop
      vertex 32.9775 1.46946 0
      vertex 32.5546 0.519779 1
      vertex 32.5546 0.519779 0
    endloop
  endfacet
  facet normal 0.309017 -0.951056 0
    outer loop
      vertex 33.75 2.16506 0
      vertex 34.7387 2.4863 1
      vertex 33.75 2.16506 1
    endloop
  endfacet
  facet normal 0.309017 -0.951056 0
    outer loop
      vertex 34.7387 2.4863 1
      vertex 33.75 2.16506 0
      vertex 34.7387 2.4863 0
    endloop
  endfacet
  facet normal 0.309017 0.951056 -0
    outer loop
      vertex 34.7387 -2.48631 0
      vertex 33.75 -2.16506 1
      vertex 34.7387 -2.48631 1
    endloop
  endfacet
  facet normal 0.309017 0.951056 0
    outer loop
      vertex 33.75 -2.16506 1
      vertex 34.7387 -2.48631 0
      vertex 33.75 -2.16506 0
    endloop
  endfacet
  facet normal 0.913546 0.406736 0
    outer loop
      vertex 32.9775 -1.46946 1
      vertex 32.5546 -0.51978 0
      vertex 32.5546 -0.51978 1
    endloop
  endfacet
  facet normal 0.913546 0.406736 0
    outer loop
      vertex 32.5546 -0.51978 0
      vertex 32.9775 -1.46946 1
      vertex 32.9775 -1.46946 0
    endloop
  endfacet
  facet normal -0.809017 0.587786 0
    outer loop
      vertex 36.6728 -1.85786 0
      vertex 37.2839 -1.01684 1
      vertex 37.2839 -1.01684 0
    endloop
  endfacet
  facet normal -0.809017 0.587786 0
    outer loop
      vertex 37.2839 -1.01684 1
      vertex 36.6728 -1.85786 0
      vertex 36.6728 -1.85786 1
    endloop
  endfacet
  facet normal -0.978147 0.207912 0
    outer loop
      vertex 37.2839 -1.01684 0
      vertex 37.5 0 1
      vertex 37.5 0 0
    endloop
  endfacet
  facet normal -0.978147 0.207912 0
    outer loop
      vertex 37.5 0 1
      vertex 37.2839 -1.01684 0
      vertex 37.2839 -1.01684 1
    endloop
  endfacet
  facet normal 0.66913 0.743146 -0
    outer loop
      vertex 33.75 -2.16506 0
      vertex 32.9775 -1.46946 1
      vertex 33.75 -2.16506 1
    endloop
  endfacet
  facet normal 0.66913 0.743146 0
    outer loop
      vertex 32.9775 -1.46946 1
      vertex 33.75 -2.16506 0
      vertex 32.9775 -1.46946 0
    endloop
  endfacet
  facet normal -0.951056 0.309017 0
    outer loop
      vertex 29.6253 -7.52291 1
      vertex 29.0072 -9.42502 1
      vertex 29.6253 -7.52291 7.5
    endloop
  endfacet
  facet normal -0.951056 0.309017 0
    outer loop
      vertex 29.6253 -7.52291 7.5
      vertex 30.5523 -4.66974 9.5
      vertex 30.5523 -4.66974 7.5
    endloop
  endfacet
  facet normal -0.951056 0.309017 0
    outer loop
      vertex 29.6253 -7.52291 7.5
      vertex 29.0072 -9.42502 9.5
      vertex 30.5523 -4.66974 9.5
    endloop
  endfacet
  facet normal -0.951056 0.309017 0
    outer loop
      vertex 29.0072 -9.42502 9.5
      vertex 29.6253 -7.52291 7.5
      vertex 29.0072 -9.42502 1
    endloop
  endfacet
  facet normal 0 0 -1
    outer loop
      vertex 34.3805 -9.06799 7.5
      vertex 30.5523 -4.66974 7.5
      vertex 35.3076 -6.21482 7.5
    endloop
  endfacet
  facet normal 0 -0 -1
    outer loop
      vertex 30.5523 -4.66974 7.5
      vertex 34.3805 -9.06799 7.5
      vertex 29.6253 -7.52291 7.5
    endloop
  endfacet
  facet normal 0.951056 -0.309017 0
    outer loop
      vertex 35.3076 -6.21482 9.5
      vertex 34.3805 -9.06799 7.5
      vertex 35.3076 -6.21482 7.5
    endloop
  endfacet
  facet normal 0.951056 -0.309017 0
    outer loop
      vertex 33.7625 -10.9701 9.5
      vertex 34.3805 -9.06799 7.5
      vertex 35.3076 -6.21482 9.5
    endloop
  endfacet
  facet normal 0.951056 -0.309017 0
    outer loop
      vertex 33.7625 -10.9701 1
      vertex 34.3805 -9.06799 7.5
      vertex 33.7625 -10.9701 9.5
    endloop
  endfacet
  facet normal 0.951056 -0.309017 0
    outer loop
      vertex 34.3805 -9.06799 7.5
      vertex 33.7625 -10.9701 1
      vertex 34.3805 -9.06799 1
    endloop
  endfacet
  facet normal 0.309017 0.951056 -0
    outer loop
      vertex 34.3805 -9.06799 1
      vertex 29.6253 -7.52291 7.5
      vertex 34.3805 -9.06799 7.5
    endloop
  endfacet
  facet normal 0.309017 0.951056 0
    outer loop
      vertex 29.6253 -7.52291 7.5
      vertex 34.3805 -9.06799 1
      vertex 29.6253 -7.52291 1
    endloop
  endfacet
  facet normal -0.309017 -0.951056 0
    outer loop
      vertex 29.0072 -9.42502 1
      vertex 33.7625 -10.9701 9.5
      vertex 29.0072 -9.42502 9.5
    endloop
  endfacet
  facet normal -0.309017 -0.951056 -0
    outer loop
      vertex 33.7625 -10.9701 9.5
      vertex 29.0072 -9.42502 1
      vertex 33.7625 -10.9701 1
    endloop
  endfacet
  facet normal 0 0 1
    outer loop
      vertex 30.5523 -4.66974 9.5
      vertex 33.7625 -10.9701 9.5
      vertex 35.3076 -6.21482 9.5
    endloop
  endfacet
  facet normal 0 0 1
    outer loop
      vertex 33.7625 -10.9701 9.5
      vertex 30.5523 -4.66974 9.5
      vertex 29.0072 -9.42502 9.5
    endloop
  endfacet
  facet normal 0.309017 0.951056 -0
    outer loop
      vertex 35.3076 -6.21482 7.5
      vertex 30.5523 -4.66974 9.5
      vertex 35.3076 -6.21482 9.5
    endloop
  endfacet
  facet normal 0.309017 0.951056 0
    outer loop
      vertex 30.5523 -4.66974 9.5
      vertex 35.3076 -6.21482 7.5
      vertex 30.5523 -4.66974 7.5
    endloop
  endfacet
  facet normal 0.951056 -0.309017 0
    outer loop
      vertex -29.0072 9.42502 9.5
      vertex -29.6253 7.52291 7.5
      vertex -29.0072 9.42502 1
    endloop
  endfacet
  facet normal 0.951056 -0.309017 0
    outer loop
      vertex -30.5523 4.66974 9.5
      vertex -29.6253 7.52291 7.5
      vertex -29.0072 9.42502 9.5
    endloop
  endfacet
  facet normal 0.951056 -0.309017 0
    outer loop
      vertex -29.6253 7.52291 7.5
      vertex -30.5523 4.66974 9.5
      vertex -30.5523 4.66974 7.5
    endloop
  endfacet
  facet normal 0.951056 -0.309017 0
    outer loop
      vertex -29.0072 9.42502 1
      vertex -29.6253 7.52291 7.5
      vertex -29.6253 7.52291 1
    endloop
  endfacet
  facet normal 0 0 -1
    outer loop
      vertex -30.5523 4.66974 7.5
      vertex -34.3805 9.06799 7.5
      vertex -29.6253 7.52291 7.5
    endloop
  endfacet
  facet normal 0 -0 -1
    outer loop
      vertex -34.3805 9.06799 7.5
      vertex -30.5523 4.66974 7.5
      vertex -35.3076 6.21482 7.5
    endloop
  endfacet
  facet normal -0.951056 0.309017 0
    outer loop
      vertex -34.3805 9.06799 7.5
      vertex -33.7625 10.9701 1
      vertex -34.3805 9.06799 1
    endloop
  endfacet
  facet normal -0.951056 0.309017 0
    outer loop
      vertex -33.7625 10.9701 1
      vertex -34.3805 9.06799 7.5
      vertex -33.7625 10.9701 9.5
    endloop
  endfacet
  facet normal -0.951056 0.309017 0
    outer loop
      vertex -35.3076 6.21482 9.5
      vertex -34.3805 9.06799 7.5
      vertex -35.3076 6.21482 7.5
    endloop
  endfacet
  facet normal -0.951056 0.309017 0
    outer loop
      vertex -34.3805 9.06799 7.5
      vertex -35.3076 6.21482 9.5
      vertex -33.7625 10.9701 9.5
    endloop
  endfacet
  facet normal -0.309017 -0.951056 0
    outer loop
      vertex -34.3805 9.06799 1
      vertex -29.6253 7.52291 7.5
      vertex -34.3805 9.06799 7.5
    endloop
  endfacet
  facet normal -0.309017 -0.951056 -0
    outer loop
      vertex -29.6253 7.52291 7.5
      vertex -34.3805 9.06799 1
      vertex -29.6253 7.52291 1
    endloop
  endfacet
  facet normal 0.309017 0.951056 -0
    outer loop
      vertex -29.0072 9.42502 1
      vertex -33.7625 10.9701 9.5
      vertex -29.0072 9.42502 9.5
    endloop
  endfacet
  facet normal 0.309017 0.951056 0
    outer loop
      vertex -33.7625 10.9701 9.5
      vertex -29.0072 9.42502 1
      vertex -33.7625 10.9701 1
    endloop
  endfacet
  facet normal 0 0 1
    outer loop
      vertex -33.7625 10.9701 9.5
      vertex -30.5523 4.66974 9.5
      vertex -29.0072 9.42502 9.5
    endloop
  endfacet
  facet normal 0 0 1
    outer loop
      vertex -30.5523 4.66974 9.5
      vertex -33.7625 10.9701 9.5
      vertex -35.3076 6.21482 9.5
    endloop
  endfacet
  facet normal -0.309017 -0.951056 0
    outer loop
      vertex -35.3076 6.21482 7.5
      vertex -30.5523 4.66974 9.5
      vertex -35.3076 6.21482 9.5
    endloop
  endfacet
  facet normal -0.309017 -0.951056 -0
    outer loop
      vertex -30.5523 4.66974 9.5
      vertex -35.3076 6.21482 7.5
      vertex -30.5523 4.66974 7.5
    endloop
  endfacet
endsolid OpenSCAD_Model
