solid OpenSCAD_Model
  facet normal -0.272005 0.0839104 0.95863
    outer loop
      vertex 0.43589 19.5309 4.99491
      vertex 0.312862 19.5901 4.95482
      vertex 0.429638 19.5106 4.99491
    endloop
  endfacet
  facet normal -0.623486 0.781834 0
    outer loop
      vertex 0.250001 19.933 0
      vertex 0.133474 19.8401 4.5
      vertex 0.250001 19.933 4.5
    endloop
  endfacet
  facet normal -0.623486 0.781834 0
    outer loop
      vertex 0.133474 19.8401 4.5
      vertex 0.250001 19.933 0
      vertex 0.133474 19.8401 0
    endloop
  endfacet
  facet normal 0 -1 0
    outer loop
      vertex 0.537365 0.00139904 0
      vertex 64.5374 0.00139904 4.5
      vertex 0.537365 0.00139904 4.5
    endloop
  endfacet
  facet normal 0 -1 -0
    outer loop
      vertex 64.5374 0.00139904 4.5
      vertex 0.537365 0.00139904 0
      vertex 64.5374 0.00139904 0
    endloop
  endfacet
  facet normal 0.755748 0 0.654862
    outer loop
      vertex 2.82743 17.1735 4.87787
      vertex 2.92063 2.91945 4.77032
      vertex 2.92063 17.0806 4.77032
    endloop
  endfacet
  facet normal 0.755748 0 0.654862
    outer loop
      vertex 2.92063 2.91945 4.77032
      vertex 2.82743 17.1735 4.87787
      vertex 2.82743 2.82651 4.87787
    endloop
  endfacet
  facet normal 0 1 -0
    outer loop
      vertex 64.5374 19.9986 0
      vertex 0.537365 19.9986 4.5
      vertex 64.5374 19.9986 4.5
    endloop
  endfacet
  facet normal 0 1 0
    outer loop
      vertex 0.537365 19.9986 4.5
      vertex 64.5374 19.9986 0
      vertex 0.537365 19.9986 0
    endloop
  endfacet
  facet normal -0.199099 0.507267 0.838475
    outer loop
      vertex 0.42714 19.8192 4.87787
      vertex 0.336286 19.7836 4.87787
      vertex 0.453781 19.7025 4.95482
    endloop
  endfacet
  facet normal -0.056748 -0.757253 0.650652
    outer loop
      vertex 0.524468 0.173486 4.87787
      vertex 0.42714 0.180779 4.87787
      vertex 0.531433 0.0805502 4.77032
    endloop
  endfacet
  facet normal -0.0739868 0.987275 0.140765
    outer loop
      vertex 0.535851 19.9784 4.64087
      vertex 0.38874 19.9875 4.5
      vertex 0.393247 19.9677 4.64087
    endloop
  endfacet
  facet normal 1 -0 0
    outer loop
      vertex 3 2.9986 4.5
      vertex 3 17.0014 3.01
      vertex 3 17.0014 4.5
    endloop
  endfacet
  facet normal 1 0 0
    outer loop
      vertex 3 17.0014 3.01
      vertex 3 2.9986 4.5
      vertex 3 2.9986 3.01
    endloop
  endfacet
  facet normal 0.281729 0 0.959494
    outer loop
      vertex 2.57116 17.429 4.99491
      vertex 2.70771 2.70713 4.95482
      vertex 2.70771 17.2929 4.95482
    endloop
  endfacet
  facet normal 0.281729 0 0.959494
    outer loop
      vertex 2.70771 2.70713 4.95482
      vertex 2.57116 17.429 4.99491
      vertex 2.57116 2.57096 4.99491
    endloop
  endfacet
  facet normal -0.946059 0.291819 0.140766
    outer loop
      vertex 0.0495157 19.7169 4.5
      vertex 0.00558472 19.5745 4.5
      vertex 0.0677643 19.7082 4.64087
    endloop
  endfacet
  facet normal -0.473456 0.593712 0.650651
    outer loop
      vertex 0.336286 19.7836 4.87787
      vertex 0.191659 19.7861 4.77032
      vertex 0.259977 19.7227 4.87787
    endloop
  endfacet
  facet normal -0.955573 0.294753 0
    outer loop
      vertex 0.00558472 19.5745 0
      vertex 0.0495157 19.7169 4.5
      vertex 0.0495157 19.7169 0
    endloop
  endfacet
  facet normal -0.955573 0.294753 0
    outer loop
      vertex 0.0495157 19.7169 4.5
      vertex 0.00558472 19.5745 0
      vertex 0.00558472 19.5745 4.5
    endloop
  endfacet
  facet normal -0.617279 0.774051 0.140755
    outer loop
      vertex 0.250001 19.933 4.5
      vertex 0.133474 19.8401 4.5
      vertex 0.260127 19.9155 4.64087
    endloop
  endfacet
  facet normal -0.0747239 -0.997204 0
    outer loop
      vertex 0.38874 0.012536 0
      vertex 0.537365 0.00139904 4.5
      vertex 0.38874 0.012536 4.5
    endloop
  endfacet
  facet normal -0.0747239 -0.997204 -0
    outer loop
      vertex 0.537365 0.00139904 4.5
      vertex 0.38874 0.012536 0
      vertex 0.537365 0.00139904 0
    endloop
  endfacet
  facet normal -0.0739801 -0.987277 0.140752
    outer loop
      vertex 0.535851 0.021595 4.64087
      vertex 0.38874 0.012536 4.5
      vertex 0.537365 0.00139904 4.5
    endloop
  endfacet
  facet normal -0.946058 -0.29182 0.140765
    outer loop
      vertex 0.0256128 0.428498 4.64087
      vertex 0.00558472 0.425479 4.5
      vertex 0.0677643 0.291846 4.64087
    endloop
  endfacet
  facet normal -0.361707 -0.921605 0.140759
    outer loop
      vertex 0.393247 0.0322819 4.64087
      vertex 0.260127 0.084528 4.64087
      vertex 0.38874 0.012536 4.5
    endloop
  endfacet
  facet normal 0.540644 0 0.841252
    outer loop
      vertex 2.70771 17.2929 4.95482
      vertex 2.82743 2.82651 4.87787
      vertex 2.82743 17.1735 4.87787
    endloop
  endfacet
  facet normal 0.540644 0 0.841252
    outer loop
      vertex 2.82743 2.82651 4.87787
      vertex 2.70771 17.2929 4.95482
      vertex 2.70771 2.70713 4.95482
    endloop
  endfacet
  facet normal 0.989821 0 0.14232
    outer loop
      vertex 2.97975 17.0216 4.64087
      vertex 3 2.9986 4.5
      vertex 3 17.0014 4.5
    endloop
  endfacet
  facet normal 0.989821 0 0.14232
    outer loop
      vertex 3 2.9986 4.5
      vertex 2.97975 17.0216 4.64087
      vertex 2.97975 2.9784 4.64087
    endloop
  endfacet
  facet normal 0 -0.910069 0.414456
    outer loop
      vertex 0.535851 0.021595 4.64087
      vertex 64.5314 0.0805502 4.77032
      vertex 0.531433 0.0805502 4.77032
    endloop
  endfacet
  facet normal 0 -0.910069 0.414456
    outer loop
      vertex 64.5314 0.0805502 4.77032
      vertex 0.535851 0.021595 4.64087
      vertex 64.5359 0.021595 4.64087
    endloop
  endfacet
  facet normal -0.473463 -0.593702 0.650655
    outer loop
      vertex 0.259977 0.277291 4.87787
      vertex 0.191659 0.213902 4.77032
      vertex 0.336286 0.216437 4.87787
    endloop
  endfacet
  facet normal -0.990043 0 0.140764
    outer loop
      vertex 0.00558472 19.5745 4.5
      vertex 0.0256128 0.428498 4.64087
      vertex 0.0256128 19.5715 4.64087
    endloop
  endfacet
  facet normal -0.990043 0 0.140764
    outer loop
      vertex 0.0256128 0.428498 4.64087
      vertex 0.00558472 19.5745 4.5
      vertex 0.00558472 0.425479 4.5
    endloop
  endfacet
  facet normal 0 -0.756657 0.653812
    outer loop
      vertex 0.531433 0.0805502 4.77032
      vertex 64.5245 0.173486 4.87787
      vertex 0.524468 0.173486 4.87787
    endloop
  endfacet
  facet normal 0 -0.756657 0.653812
    outer loop
      vertex 64.5245 0.173486 4.87787
      vertex 0.531433 0.0805502 4.77032
      vertex 64.5314 0.0805502 4.77032
    endloop
  endfacet
  facet normal 0 -0.282457 0.95928
    outer loop
      vertex 64.5053 0.429042 4.99491
      vertex 0.515521 0.292873 4.95482
      vertex 64.5155 0.292873 4.95482
    endloop
  endfacet
  facet normal 0 -0.282457 0.95928
    outer loop
      vertex 0.515521 0.292873 4.95482
      vertex 64.5053 0.429042 4.99491
      vertex 0.505317 0.429042 4.99491
    endloop
  endfacet
  facet normal 0 0 1
    outer loop
      vertex 64.5053 19.571 4.99491
      vertex 64.5712 19.5 4.99491
      vertex 64.568 19.521 4.99491
    endloop
  endfacet
  facet normal 0 0 1
    outer loop
      vertex 64.5712 19.5 4.99491
      vertex 62.4296 17.429 4.99491
      vertex 64.5712 0.5 4.99491
    endloop
  endfacet
  facet normal 0 0 1
    outer loop
      vertex 64.5053 19.571 4.99491
      vertex 64.568 19.521 4.99491
      vertex 64.5588 19.5401 4.99491
    endloop
  endfacet
  facet normal -0 0 1
    outer loop
      vertex 62.4296 2.57096 4.99491
      vertex 64.5712 0.5 4.99491
      vertex 62.4296 17.429 4.99491
    endloop
  endfacet
  facet normal 0 0 1
    outer loop
      vertex 64.5053 19.571 4.99491
      vertex 64.5588 19.5401 4.99491
      vertex 64.5444 19.5556 4.99491
    endloop
  endfacet
  facet normal 0 -0 1
    outer loop
      vertex 64.5053 0.429042 4.99491
      vertex 64.5712 0.5 4.99491
      vertex 62.4296 2.57096 4.99491
    endloop
  endfacet
  facet normal 0 0 1
    outer loop
      vertex 64.5053 19.571 4.99491
      vertex 64.5444 19.5556 4.99491
      vertex 64.526 19.5662 4.99491
    endloop
  endfacet
  facet normal 0 0 1
    outer loop
      vertex 64.5712 0.5 4.99491
      vertex 64.5053 0.429042 4.99491
      vertex 64.568 0.479027 4.99491
    endloop
  endfacet
  facet normal 0 0 1
    outer loop
      vertex 64.5712 19.5 4.99491
      vertex 64.5053 19.571 4.99491
      vertex 62.4296 17.429 4.99491
    endloop
  endfacet
  facet normal 0 0 1
    outer loop
      vertex 64.568 0.479027 4.99491
      vertex 64.5053 0.429042 4.99491
      vertex 64.5588 0.459916 4.99491
    endloop
  endfacet
  facet normal 0 0 1
    outer loop
      vertex 64.5588 0.459916 4.99491
      vertex 64.5053 0.429042 4.99491
      vertex 64.5444 0.444367 4.99491
    endloop
  endfacet
  facet normal 0 0 1
    outer loop
      vertex 64.5053 19.571 4.99491
      vertex 2.57116 17.429 4.99491
      vertex 62.4296 17.429 4.99491
    endloop
  endfacet
  facet normal -0 0 1
    outer loop
      vertex 0.429638 19.5106 4.99491
      vertex 2.57116 17.429 4.99491
      vertex 0.505317 19.571 4.99491
    endloop
  endfacet
  facet normal -0 0 1
    outer loop
      vertex 0.505317 19.571 4.99491
      vertex 2.57116 17.429 4.99491
      vertex 64.5053 19.571 4.99491
    endloop
  endfacet
  facet normal 0 0 1
    outer loop
      vertex 64.5444 0.444367 4.99491
      vertex 64.5053 0.429042 4.99491
      vertex 64.526 0.433762 4.99491
    endloop
  endfacet
  facet normal -0 0 1
    outer loop
      vertex 2.57116 2.57096 4.99491
      vertex 64.5053 0.429042 4.99491
      vertex 62.4296 2.57096 4.99491
    endloop
  endfacet
  facet normal 0 0 1
    outer loop
      vertex 2.57116 2.57096 4.99491
      vertex 0.505317 0.429042 4.99491
      vertex 64.5053 0.429042 4.99491
    endloop
  endfacet
  facet normal 0 0 1
    outer loop
      vertex 2.57116 17.429 4.99491
      vertex 0.429638 19.5106 4.99491
      vertex 2.57116 2.57096 4.99491
    endloop
  endfacet
  facet normal 0 0 1
    outer loop
      vertex 0.429638 19.5106 4.99491
      vertex 0.505317 19.571 4.99491
      vertex 0.484166 19.5694 4.99491
    endloop
  endfacet
  facet normal 0 0 1
    outer loop
      vertex 0.429638 0.489395 4.99491
      vertex 2.57116 2.57096 4.99491
      vertex 0.429638 19.5106 4.99491
    endloop
  endfacet
  facet normal 0 0 1
    outer loop
      vertex 0.429638 19.5106 4.99491
      vertex 0.484166 19.5694 4.99491
      vertex 0.464422 19.5616 4.99491
    endloop
  endfacet
  facet normal 0 0 1
    outer loop
      vertex 2.57116 2.57096 4.99491
      vertex 0.429638 0.489395 4.99491
      vertex 0.505317 0.429042 4.99491
    endloop
  endfacet
  facet normal 0 0 1
    outer loop
      vertex 0.429638 19.5106 4.99491
      vertex 0.464422 19.5616 4.99491
      vertex 0.447839 19.5484 4.99491
    endloop
  endfacet
  facet normal 0 0 1
    outer loop
      vertex 0.505317 0.429042 4.99491
      vertex 0.429638 0.489395 4.99491
      vertex 0.484166 0.430627 4.99491
    endloop
  endfacet
  facet normal 0 0 1
    outer loop
      vertex 0.429638 19.5106 4.99491
      vertex 0.447839 19.5484 4.99491
      vertex 0.43589 19.5309 4.99491
    endloop
  endfacet
  facet normal 0 0 1
    outer loop
      vertex 0.484166 0.430627 4.99491
      vertex 0.429638 0.489395 4.99491
      vertex 0.464422 0.438376 4.99491
    endloop
  endfacet
  facet normal 0 0 1
    outer loop
      vertex 0.464422 0.438376 4.99491
      vertex 0.429638 0.489395 4.99491
      vertex 0.447839 0.451601 4.99491
    endloop
  endfacet
  facet normal 0 0 1
    outer loop
      vertex 0.447839 0.451601 4.99491
      vertex 0.429638 0.489395 4.99491
      vertex 0.43589 0.469127 4.99491
    endloop
  endfacet
  facet normal -0.568237 0.712549 0.411559
    outer loop
      vertex 0.289687 19.8643 4.77032
      vertex 0.148321 19.8263 4.64087
      vertex 0.191659 19.7861 4.77032
    endloop
  endfacet
  facet normal -1 0 0
    outer loop
      vertex 0.00558472 0.425479 0
      vertex 0.00558472 19.5745 4.5
      vertex 0.00558472 19.5745 0
    endloop
  endfacet
  facet normal -1 -0 0
    outer loop
      vertex 0.00558472 19.5745 4.5
      vertex 0.00558472 0.425479 0
      vertex 0.00558472 0.425479 4.5
    endloop
  endfacet
  facet normal 0.909634 0 0.415411
    outer loop
      vertex 2.92063 17.0806 4.77032
      vertex 2.97975 2.9784 4.64087
      vertex 2.97975 17.0216 4.64087
    endloop
  endfacet
  facet normal 0.909634 0 0.415411
    outer loop
      vertex 2.97975 2.9784 4.64087
      vertex 2.92063 17.0806 4.77032
      vertex 2.92063 2.91945 4.77032
    endloop
  endfacet
  facet normal 0 -0.989878 0.14192
    outer loop
      vertex 0.537365 0.00139904 4.5
      vertex 64.5359 0.021595 4.64087
      vertex 0.535851 0.021595 4.64087
    endloop
  endfacet
  facet normal 0 -0.989878 0.14192
    outer loop
      vertex 64.5359 0.021595 4.64087
      vertex 0.537365 0.00139904 4.5
      vertex 64.5374 0.00139904 4.5
    endloop
  endfacet
  facet normal -0.627425 -0.427769 0.650654
    outer loop
      vertex 0.204996 0.357934 4.87787
      vertex 0.121029 0.317497 4.77032
      vertex 0.191659 0.213902 4.77032
    endloop
  endfacet
  facet normal -0.544944 0 0.838473
    outer loop
      vertex 0.176228 19.5488 4.87787
      vertex 0.294613 0.469044 4.95482
      vertex 0.294613 19.531 4.95482
    endloop
  endfacet
  facet normal -0.544944 0 0.838473
    outer loop
      vertex 0.294613 0.469044 4.95482
      vertex 0.176228 19.5488 4.87787
      vertex 0.176228 0.4512 4.87787
    endloop
  endfacet
  facet normal -0.284656 0 0.95863
    outer loop
      vertex 0.294613 19.531 4.95482
      vertex 0.429638 0.489395 4.99491
      vertex 0.429638 19.5106 4.99491
    endloop
  endfacet
  facet normal -0.284656 0 0.95863
    outer loop
      vertex 0.429638 0.489395 4.99491
      vertex 0.294613 19.531 4.95482
      vertex 0.294613 0.469044 4.95482
    endloop
  endfacet
  facet normal -0.0407276 -0.543418 0.838474
    outer loop
      vertex 0.453781 0.297501 4.95482
      vertex 0.42714 0.180779 4.87787
      vertex 0.515521 0.292873 4.95482
    endloop
  endfacet
  facet normal -0.0407235 -0.54342 0.838472
    outer loop
      vertex 0.515521 0.292873 4.95482
      vertex 0.42714 0.180779 4.87787
      vertex 0.524468 0.173486 4.87787
    endloop
  endfacet
  facet normal -0.339767 -0.426053 0.838473
    outer loop
      vertex 0.34774 0.358724 4.95482
      vertex 0.259977 0.277291 4.87787
      vertex 0.336286 0.216437 4.87787
    endloop
  endfacet
  facet normal -0.0212745 -0.28386 0.95863
    outer loop
      vertex 0.484166 0.430627 4.99491
      vertex 0.453781 0.297501 4.95482
      vertex 0.515521 0.292873 4.95482
    endloop
  endfacet
  facet normal -0.332961 -0.84838 0.411569
    outer loop
      vertex 0.406403 0.08992 4.77032
      vertex 0.289687 0.135727 4.77032
      vertex 0.393247 0.0322819 4.64087
    endloop
  endfacet
  facet normal -0.520733 -0.160623 0.838473
    outer loop
      vertex 0.294613 0.469044 4.95482
      vertex 0.176228 0.4512 4.87787
      vertex 0.312862 0.40988 4.95482
    endloop
  endfacet
  facet normal -0.826238 -0.563322 0
    outer loop
      vertex 0.133474 0.159914 0
      vertex 0.0495157 0.283058 4.5
      vertex 0.0495157 0.283058 0
    endloop
  endfacet
  facet normal -0.826238 -0.563322 0
    outer loop
      vertex 0.0495157 0.283058 4.5
      vertex 0.133474 0.159914 0
      vertex 0.133474 0.159914 4.5
    endloop
  endfacet
  facet normal -0.753023 0.513397 0.411558
    outer loop
      vertex 0.148321 19.8263 4.64087
      vertex 0.0677643 19.7082 4.64087
      vertex 0.121029 19.6825 4.77032
    endloop
  endfacet
  facet normal -0.627427 0.42777 0.650652
    outer loop
      vertex 0.191659 19.7861 4.77032
      vertex 0.121029 19.6825 4.77032
      vertex 0.204996 19.6421 4.87787
    endloop
  endfacet
  facet normal -0.818014 0.557707 0.140768
    outer loop
      vertex 0.148321 19.8263 4.64087
      vertex 0.0495157 19.7169 4.5
      vertex 0.0677643 19.7082 4.64087
    endloop
  endfacet
  facet normal -0.332968 0.84838 0.411563
    outer loop
      vertex 0.393247 19.9677 4.64087
      vertex 0.260127 19.9155 4.64087
      vertex 0.289687 19.8643 4.77032
    endloop
  endfacet
  facet normal -0.365353 0.930869 0
    outer loop
      vertex 0.38874 19.9875 0
      vertex 0.250001 19.933 4.5
      vertex 0.38874 19.9875 4.5
    endloop
  endfacet
  facet normal -0.365353 0.930869 0
    outer loop
      vertex 0.250001 19.933 4.5
      vertex 0.38874 19.9875 0
      vertex 0.250001 19.933 0
    endloop
  endfacet
  facet normal -0.332961 0.84838 0.411569
    outer loop
      vertex 0.393247 19.9677 4.64087
      vertex 0.289687 19.8643 4.77032
      vertex 0.406403 19.9101 4.77032
    endloop
  endfacet
  facet normal -0.068108 0.908828 0.411573
    outer loop
      vertex 0.535851 19.9784 4.64087
      vertex 0.393247 19.9677 4.64087
      vertex 0.531433 19.9194 4.77032
    endloop
  endfacet
  facet normal -0.911381 0 0.411563
    outer loop
      vertex 0.0256128 19.5715 4.64087
      vertex 0.0840721 0.437309 4.77032
      vertex 0.0840721 19.5627 4.77032
    endloop
  endfacet
  facet normal -0.911381 0 0.411563
    outer loop
      vertex 0.0840721 0.437309 4.77032
      vertex 0.0256128 19.5715 4.64087
      vertex 0.0256128 0.428498 4.64087
    endloop
  endfacet
  facet normal -0.27201 0.0839031 0.95863
    outer loop
      vertex 0.312862 19.5901 4.95482
      vertex 0.294613 19.531 4.95482
      vertex 0.429638 19.5106 4.99491
    endloop
  endfacet
  facet normal -0.0681082 -0.908831 0.411568
    outer loop
      vertex 0.531433 0.0805502 4.77032
      vertex 0.393247 0.0322819 4.64087
      vertex 0.535851 0.021595 4.64087
    endloop
  endfacet
  facet normal -0.0739869 -0.987275 0.140759
    outer loop
      vertex 0.393247 0.0322819 4.64087
      vertex 0.38874 0.012536 4.5
      vertex 0.535851 0.021595 4.64087
    endloop
  endfacet
  facet normal -0.623489 -0.781832 0
    outer loop
      vertex 0.133474 0.159914 0
      vertex 0.25 0.066988 4.5
      vertex 0.133474 0.159914 4.5
    endloop
  endfacet
  facet normal -0.623489 -0.781832 -0
    outer loop
      vertex 0.25 0.066988 4.5
      vertex 0.133474 0.159914 0
      vertex 0.25 0.066988 0
    endloop
  endfacet
  facet normal -0.946058 -0.29182 0.140764
    outer loop
      vertex 0.0677643 0.291846 4.64087
      vertex 0.00558472 0.425479 4.5
      vertex 0.0495157 0.283058 4.5
    endloop
  endfacet
  facet normal -0.277429 -0.706885 0.650651
    outer loop
      vertex 0.42714 0.180779 4.87787
      vertex 0.289687 0.135727 4.77032
      vertex 0.406403 0.08992 4.77032
    endloop
  endfacet
  facet normal -0.0681082 -0.908831 0.411568
    outer loop
      vertex 0.406403 0.08992 4.77032
      vertex 0.393247 0.0322819 4.64087
      vertex 0.531433 0.0805502 4.77032
    endloop
  endfacet
  facet normal -0.235193 -0.160353 0.95863
    outer loop
      vertex 0.447839 0.451601 4.99491
      vertex 0.312862 0.40988 4.95482
      vertex 0.34774 0.358724 4.95482
    endloop
  endfacet
  facet normal -0.199092 -0.50727 0.838474
    outer loop
      vertex 0.396147 0.320121 4.95482
      vertex 0.336286 0.216437 4.87787
      vertex 0.453781 0.297501 4.95482
    endloop
  endfacet
  facet normal -0.339765 -0.426053 0.838474
    outer loop
      vertex 0.34774 0.358724 4.95482
      vertex 0.336286 0.216437 4.87787
      vertex 0.396147 0.320121 4.95482
    endloop
  endfacet
  facet normal 0 -0.541715 0.840562
    outer loop
      vertex 64.5155 0.292873 4.95482
      vertex 0.524468 0.173486 4.87787
      vertex 64.5245 0.173486 4.87787
    endloop
  endfacet
  facet normal 0 -0.541715 0.840562
    outer loop
      vertex 0.524468 0.173486 4.87787
      vertex 64.5155 0.292873 4.95482
      vertex 0.515521 0.292873 4.95482
    endloop
  endfacet
  facet normal -0.0212722 -0.28386 0.95863
    outer loop
      vertex 0.505317 0.429042 4.99491
      vertex 0.484166 0.430627 4.99491
      vertex 0.515521 0.292873 4.95482
    endloop
  endfacet
  facet normal -0.104025 0.264963 0.958631
    outer loop
      vertex 0.484166 19.5694 4.99491
      vertex 0.396147 19.6799 4.95482
      vertex 0.464422 19.5616 4.99491
    endloop
  endfacet
  facet normal -0.339754 0.42606 0.838475
    outer loop
      vertex 0.396147 19.6799 4.95482
      vertex 0.336286 19.7836 4.87787
      vertex 0.34774 19.6413 4.95482
    endloop
  endfacet
  facet normal -0.177474 0.222557 0.95863
    outer loop
      vertex 0.396147 19.6799 4.95482
      vertex 0.34774 19.6413 4.95482
      vertex 0.447839 19.5484 4.99491
    endloop
  endfacet
  facet normal -0.277431 -0.706882 0.650653
    outer loop
      vertex 0.336286 0.216437 4.87787
      vertex 0.289687 0.135727 4.77032
      vertex 0.42714 0.180779 4.87787
    endloop
  endfacet
  facet normal -0.0567435 0.757257 0.650647
    outer loop
      vertex 0.531433 19.9194 4.77032
      vertex 0.406403 19.9101 4.77032
      vertex 0.42714 19.8192 4.87787
    endloop
  endfacet
  facet normal -0.361706 0.921604 0.140765
    outer loop
      vertex 0.38874 19.9875 4.5
      vertex 0.260127 19.9155 4.64087
      vertex 0.393247 19.9677 4.64087
    endloop
  endfacet
  facet normal -0.520733 0.160624 0.838473
    outer loop
      vertex 0.204996 19.6421 4.87787
      vertex 0.176228 19.5488 4.87787
      vertex 0.312862 19.5901 4.95482
    endloop
  endfacet
  facet normal -0.627425 0.427771 0.650653
    outer loop
      vertex 0.259977 19.7227 4.87787
      vertex 0.191659 19.7861 4.77032
      vertex 0.204996 19.6421 4.87787
    endloop
  endfacet
  facet normal -0.0407274 0.543415 0.838476
    outer loop
      vertex 0.515521 19.7071 4.95482
      vertex 0.42714 19.8192 4.87787
      vertex 0.453781 19.7025 4.95482
    endloop
  endfacet
  facet normal -0 0.282455 0.959281
    outer loop
      vertex 0.515521 19.7071 4.95482
      vertex 64.5053 19.571 4.99491
      vertex 64.5155 19.7071 4.95482
    endloop
  endfacet
  facet normal 0 0.282455 0.959281
    outer loop
      vertex 64.5053 19.571 4.99491
      vertex 0.515521 19.7071 4.95482
      vertex 0.505317 19.571 4.99491
    endloop
  endfacet
  facet normal -0.0212463 0.283856 0.958631
    outer loop
      vertex 0.515521 19.7071 4.95482
      vertex 0.484166 19.5694 4.99491
      vertex 0.505317 19.571 4.99491
    endloop
  endfacet
  facet normal -0.0681013 0.908831 0.411567
    outer loop
      vertex 0.531433 19.9194 4.77032
      vertex 0.393247 19.9677 4.64087
      vertex 0.406403 19.9101 4.77032
    endloop
  endfacet
  facet normal -0 0.541712 0.840564
    outer loop
      vertex 0.524468 19.8265 4.87787
      vertex 64.5155 19.7071 4.95482
      vertex 64.5245 19.8265 4.87787
    endloop
  endfacet
  facet normal 0 0.541712 0.840564
    outer loop
      vertex 64.5155 19.7071 4.95482
      vertex 0.524468 19.8265 4.87787
      vertex 0.515521 19.7071 4.95482
    endloop
  endfacet
  facet normal -0.361715 0.921602 0.140756
    outer loop
      vertex 0.38874 19.9875 4.5
      vertex 0.250001 19.933 4.5
      vertex 0.260127 19.9155 4.64087
    endloop
  endfacet
  facet normal -0.753021 0.513399 0.41156
    outer loop
      vertex 0.148321 19.8263 4.64087
      vertex 0.121029 19.6825 4.77032
      vertex 0.191659 19.7861 4.77032
    endloop
  endfacet
  facet normal -0.826238 0.563322 0
    outer loop
      vertex 0.0495157 19.7169 0
      vertex 0.133474 19.8401 4.5
      vertex 0.133474 19.8401 0
    endloop
  endfacet
  facet normal -0.826238 0.563322 0
    outer loop
      vertex 0.133474 19.8401 4.5
      vertex 0.0495157 19.7169 0
      vertex 0.0495157 19.7169 4.5
    endloop
  endfacet
  facet normal -0.0747112 0.997205 0
    outer loop
      vertex 0.537365 19.9986 0
      vertex 0.38874 19.9875 4.5
      vertex 0.537365 19.9986 4.5
    endloop
  endfacet
  facet normal -0.0747112 0.997205 0
    outer loop
      vertex 0.38874 19.9875 4.5
      vertex 0.537365 19.9986 0
      vertex 0.38874 19.9875 0
    endloop
  endfacet
  facet normal -0.955573 -0.294755 0
    outer loop
      vertex 0.0495157 0.283058 0
      vertex 0.00558472 0.425479 4.5
      vertex 0.00558472 0.425479 0
    endloop
  endfacet
  facet normal -0.955573 -0.294755 0
    outer loop
      vertex 0.00558472 0.425479 4.5
      vertex 0.0495157 0.283058 0
      vertex 0.0495157 0.283058 4.5
    endloop
  endfacet
  facet normal -0.568235 -0.712548 0.411563
    outer loop
      vertex 0.289687 0.135727 4.77032
      vertex 0.148321 0.17369 4.64087
      vertex 0.260127 0.084528 4.64087
    endloop
  endfacet
  facet normal -0.946058 0.291824 0.140761
    outer loop
      vertex 0.0677643 19.7082 4.64087
      vertex 0.00558472 19.5745 4.5
      vertex 0.0256128 19.5715 4.64087
    endloop
  endfacet
  facet normal -0.365345 -0.930872 0
    outer loop
      vertex 0.25 0.066988 0
      vertex 0.38874 0.012536 4.5
      vertex 0.25 0.066988 4.5
    endloop
  endfacet
  facet normal -0.365345 -0.930872 -0
    outer loop
      vertex 0.38874 0.012536 4.5
      vertex 0.25 0.066988 0
      vertex 0.38874 0.012536 0
    endloop
  endfacet
  facet normal -0.759375 0 0.650653
    outer loop
      vertex 0.0840721 19.5627 4.77032
      vertex 0.176228 0.4512 4.87787
      vertex 0.176228 19.5488 4.87787
    endloop
  endfacet
  facet normal -0.759375 0 0.650653
    outer loop
      vertex 0.176228 0.4512 4.87787
      vertex 0.0840721 19.5627 4.77032
      vertex 0.0840721 0.437309 4.77032
    endloop
  endfacet
  facet normal -0.568236 -0.712547 0.411564
    outer loop
      vertex 0.191659 0.213902 4.77032
      vertex 0.148321 0.17369 4.64087
      vertex 0.289687 0.135727 4.77032
    endloop
  endfacet
  facet normal -0.0567489 -0.757253 0.650651
    outer loop
      vertex 0.42714 0.180779 4.87787
      vertex 0.406403 0.08992 4.77032
      vertex 0.531433 0.0805502 4.77032
    endloop
  endfacet
  facet normal -0.627424 -0.42777 0.650655
    outer loop
      vertex 0.204996 0.357934 4.87787
      vertex 0.191659 0.213902 4.77032
      vertex 0.259977 0.277291 4.87787
    endloop
  endfacet
  facet normal -0.617281 -0.774049 0.140759
    outer loop
      vertex 0.260127 0.084528 4.64087
      vertex 0.148321 0.17369 4.64087
      vertex 0.25 0.066988 4.5
    endloop
  endfacet
  facet normal -0.520733 -0.160625 0.838473
    outer loop
      vertex 0.312862 0.40988 4.95482
      vertex 0.176228 0.4512 4.87787
      vertex 0.204996 0.357934 4.87787
    endloop
  endfacet
  facet normal -0.103998 -0.264979 0.958629
    outer loop
      vertex 0.484166 0.430627 4.99491
      vertex 0.396147 0.320121 4.95482
      vertex 0.453781 0.297501 4.95482
    endloop
  endfacet
  facet normal -0.104004 -0.264975 0.95863
    outer loop
      vertex 0.464422 0.438376 4.99491
      vertex 0.396147 0.320121 4.95482
      vertex 0.484166 0.430627 4.99491
    endloop
  endfacet
  facet normal -0.235194 0.16035 0.95863
    outer loop
      vertex 0.34774 19.6413 4.95482
      vertex 0.312862 19.5901 4.95482
      vertex 0.447839 19.5484 4.99491
    endloop
  endfacet
  facet normal -0.0212746 0.283862 0.958629
    outer loop
      vertex 0.515521 19.7071 4.95482
      vertex 0.453781 19.7025 4.95482
      vertex 0.484166 19.5694 4.99491
    endloop
  endfacet
  facet normal -0 0.756664 0.653804
    outer loop
      vertex 0.531433 19.9194 4.77032
      vertex 64.5245 19.8265 4.87787
      vertex 64.5314 19.9194 4.77032
    endloop
  endfacet
  facet normal 0 0.756664 0.653804
    outer loop
      vertex 64.5245 19.8265 4.87787
      vertex 0.531433 19.9194 4.77032
      vertex 0.524468 19.8265 4.87787
    endloop
  endfacet
  facet normal -0.870892 0.268638 0.41156
    outer loop
      vertex 0.0677643 19.7082 4.64087
      vertex 0.0256128 19.5715 4.64087
      vertex 0.121029 19.6825 4.77032
    endloop
  endfacet
  facet normal -0.870891 0.268632 0.411564
    outer loop
      vertex 0.121029 19.6825 4.77032
      vertex 0.0256128 19.5715 4.64087
      vertex 0.0840721 19.5627 4.77032
    endloop
  endfacet
  facet normal -0.520732 0.160623 0.838474
    outer loop
      vertex 0.312862 19.5901 4.95482
      vertex 0.176228 19.5488 4.87787
      vertex 0.294613 19.531 4.95482
    endloop
  endfacet
  facet normal -0.339761 0.426059 0.838473
    outer loop
      vertex 0.336286 19.7836 4.87787
      vertex 0.259977 19.7227 4.87787
      vertex 0.34774 19.6413 4.95482
    endloop
  endfacet
  facet normal -0.725639 0.223829 0.650653
    outer loop
      vertex 0.204996 19.6421 4.87787
      vertex 0.121029 19.6825 4.77032
      vertex 0.176228 19.5488 4.87787
    endloop
  endfacet
  facet normal -0.72564 0.223828 0.650652
    outer loop
      vertex 0.121029 19.6825 4.77032
      vertex 0.0840721 19.5627 4.77032
      vertex 0.176228 19.5488 4.87787
    endloop
  endfacet
  facet normal -0.450255 0.306975 0.838473
    outer loop
      vertex 0.34774 19.6413 4.95482
      vertex 0.259977 19.7227 4.87787
      vertex 0.312862 19.5901 4.95482
    endloop
  endfacet
  facet normal -0.450252 0.306977 0.838474
    outer loop
      vertex 0.259977 19.7227 4.87787
      vertex 0.204996 19.6421 4.87787
      vertex 0.312862 19.5901 4.95482
    endloop
  endfacet
  facet normal -0.0567485 0.757259 0.650644
    outer loop
      vertex 0.531433 19.9194 4.77032
      vertex 0.42714 19.8192 4.87787
      vertex 0.524468 19.8265 4.87787
    endloop
  endfacet
  facet normal -0.0407233 0.543417 0.838474
    outer loop
      vertex 0.524468 19.8265 4.87787
      vertex 0.42714 19.8192 4.87787
      vertex 0.515521 19.7071 4.95482
    endloop
  endfacet
  facet normal -0 0.910067 0.414462
    outer loop
      vertex 0.535851 19.9784 4.64087
      vertex 64.5314 19.9194 4.77032
      vertex 64.5359 19.9784 4.64087
    endloop
  endfacet
  facet normal 0 0.910067 0.414462
    outer loop
      vertex 64.5314 19.9194 4.77032
      vertex 0.535851 19.9784 4.64087
      vertex 0.531433 19.9194 4.77032
    endloop
  endfacet
  facet normal -0 0.989879 0.141913
    outer loop
      vertex 0.537365 19.9986 4.5
      vertex 64.5359 19.9784 4.64087
      vertex 64.5374 19.9986 4.5
    endloop
  endfacet
  facet normal 0 0.989879 0.141913
    outer loop
      vertex 64.5359 19.9784 4.64087
      vertex 0.537365 19.9986 4.5
      vertex 0.535851 19.9784 4.64087
    endloop
  endfacet
  facet normal -0.568239 0.712545 0.411563
    outer loop
      vertex 0.260127 19.9155 4.64087
      vertex 0.148321 19.8263 4.64087
      vertex 0.289687 19.8643 4.77032
    endloop
  endfacet
  facet normal -0.47346 0.593702 0.650656
    outer loop
      vertex 0.289687 19.8643 4.77032
      vertex 0.191659 19.7861 4.77032
      vertex 0.336286 19.7836 4.87787
    endloop
  endfacet
  facet normal -0.0739675 0.987279 0.140745
    outer loop
      vertex 0.537365 19.9986 4.5
      vertex 0.38874 19.9875 4.5
      vertex 0.535851 19.9784 4.64087
    endloop
  endfacet
  facet normal -0.753019 -0.513398 0.411564
    outer loop
      vertex 0.191659 0.213902 4.77032
      vertex 0.121029 0.317497 4.77032
      vertex 0.148321 0.17369 4.64087
    endloop
  endfacet
  facet normal -0.361708 -0.921604 0.140758
    outer loop
      vertex 0.260127 0.084528 4.64087
      vertex 0.25 0.066988 4.5
      vertex 0.38874 0.012536 4.5
    endloop
  endfacet
  facet normal -0.870892 -0.268634 0.411561
    outer loop
      vertex 0.121029 0.317497 4.77032
      vertex 0.0256128 0.428498 4.64087
      vertex 0.0677643 0.291846 4.64087
    endloop
  endfacet
  facet normal -0.753022 -0.513396 0.411561
    outer loop
      vertex 0.121029 0.317497 4.77032
      vertex 0.0677643 0.291846 4.64087
      vertex 0.148321 0.17369 4.64087
    endloop
  endfacet
  facet normal -0.450254 -0.306978 0.838473
    outer loop
      vertex 0.312862 0.40988 4.95482
      vertex 0.204996 0.357934 4.87787
      vertex 0.259977 0.277291 4.87787
    endloop
  endfacet
  facet normal -0.725638 -0.223829 0.650654
    outer loop
      vertex 0.176228 0.4512 4.87787
      vertex 0.121029 0.317497 4.77032
      vertex 0.204996 0.357934 4.87787
    endloop
  endfacet
  facet normal -0.450252 -0.306978 0.838473
    outer loop
      vertex 0.312862 0.40988 4.95482
      vertex 0.259977 0.277291 4.87787
      vertex 0.34774 0.358724 4.95482
    endloop
  endfacet
  facet normal -0.473461 -0.593704 0.650653
    outer loop
      vertex 0.336286 0.216437 4.87787
      vertex 0.191659 0.213902 4.77032
      vertex 0.289687 0.135727 4.77032
    endloop
  endfacet
  facet normal -0.19909 -0.507273 0.838473
    outer loop
      vertex 0.453781 0.297501 4.95482
      vertex 0.336286 0.216437 4.87787
      vertex 0.42714 0.180779 4.87787
    endloop
  endfacet
  facet normal -0.235197 0.160343 0.958631
    outer loop
      vertex 0.447839 19.5484 4.99491
      vertex 0.312862 19.5901 4.95482
      vertex 0.43589 19.5309 4.99491
    endloop
  endfacet
  facet normal -0.104003 0.26498 0.958629
    outer loop
      vertex 0.453781 19.7025 4.95482
      vertex 0.396147 19.6799 4.95482
      vertex 0.484166 19.5694 4.99491
    endloop
  endfacet
  facet normal -0.199099 0.507267 0.838475
    outer loop
      vertex 0.453781 19.7025 4.95482
      vertex 0.336286 19.7836 4.87787
      vertex 0.396147 19.6799 4.95482
    endloop
  endfacet
  facet normal -0.27743 0.706888 0.650647
    outer loop
      vertex 0.406403 19.9101 4.77032
      vertex 0.289687 19.8643 4.77032
      vertex 0.42714 19.8192 4.87787
    endloop
  endfacet
  facet normal -0.277443 0.706873 0.650658
    outer loop
      vertex 0.42714 19.8192 4.87787
      vertex 0.289687 19.8643 4.77032
      vertex 0.336286 19.7836 4.87787
    endloop
  endfacet
  facet normal -0.617284 0.774045 0.140762
    outer loop
      vertex 0.260127 19.9155 4.64087
      vertex 0.133474 19.8401 4.5
      vertex 0.148321 19.8263 4.64087
    endloop
  endfacet
  facet normal -0.818011 0.557713 0.140761
    outer loop
      vertex 0.133474 19.8401 4.5
      vertex 0.0495157 19.7169 4.5
      vertex 0.148321 19.8263 4.64087
    endloop
  endfacet
  facet normal -0.818015 -0.557707 0.140764
    outer loop
      vertex 0.0677643 0.291846 4.64087
      vertex 0.0495157 0.283058 4.5
      vertex 0.148321 0.17369 4.64087
    endloop
  endfacet
  facet normal -0.332968 -0.84838 0.411563
    outer loop
      vertex 0.289687 0.135727 4.77032
      vertex 0.260127 0.084528 4.64087
      vertex 0.393247 0.0322819 4.64087
    endloop
  endfacet
  facet normal -0.818012 -0.557713 0.140757
    outer loop
      vertex 0.148321 0.17369 4.64087
      vertex 0.0495157 0.283058 4.5
      vertex 0.133474 0.159914 4.5
    endloop
  endfacet
  facet normal -0.617282 -0.774048 0.140757
    outer loop
      vertex 0.148321 0.17369 4.64087
      vertex 0.133474 0.159914 4.5
      vertex 0.25 0.066988 4.5
    endloop
  endfacet
  facet normal -0.725639 -0.223828 0.650653
    outer loop
      vertex 0.176228 0.4512 4.87787
      vertex 0.0840721 0.437309 4.77032
      vertex 0.121029 0.317497 4.77032
    endloop
  endfacet
  facet normal -0.870892 -0.268632 0.411562
    outer loop
      vertex 0.0840721 0.437309 4.77032
      vertex 0.0256128 0.428498 4.64087
      vertex 0.121029 0.317497 4.77032
    endloop
  endfacet
  facet normal -0.272007 -0.0839071 0.95863
    outer loop
      vertex 0.429638 0.489395 4.99491
      vertex 0.312862 0.40988 4.95482
      vertex 0.43589 0.469127 4.99491
    endloop
  endfacet
  facet normal -0.27201 -0.0839031 0.95863
    outer loop
      vertex 0.429638 0.489395 4.99491
      vertex 0.294613 0.469044 4.95482
      vertex 0.312862 0.40988 4.95482
    endloop
  endfacet
  facet normal -0.17748 -0.222553 0.95863
    outer loop
      vertex 0.447839 0.451601 4.99491
      vertex 0.34774 0.358724 4.95482
      vertex 0.396147 0.320121 4.95482
    endloop
  endfacet
  facet normal -0.177478 -0.222554 0.95863
    outer loop
      vertex 0.447839 0.451601 4.99491
      vertex 0.396147 0.320121 4.95482
      vertex 0.464422 0.438376 4.99491
    endloop
  endfacet
  facet normal -0.177469 0.222559 0.95863
    outer loop
      vertex 0.464422 19.5616 4.99491
      vertex 0.396147 19.6799 4.95482
      vertex 0.447839 19.5484 4.99491
    endloop
  endfacet
  facet normal -0.235194 -0.16035 0.95863
    outer loop
      vertex 0.43589 0.469127 4.99491
      vertex 0.312862 0.40988 4.95482
      vertex 0.447839 0.451601 4.99491
    endloop
  endfacet
  facet normal -0 0.282457 0.95928
    outer loop
      vertex 2.70771 2.70713 4.95482
      vertex 62.4296 2.57096 4.99491
      vertex 62.2946 2.70713 4.95482
    endloop
  endfacet
  facet normal 0 0.282457 0.95928
    outer loop
      vertex 62.4296 2.57096 4.99491
      vertex 2.70771 2.70713 4.95482
      vertex 2.57116 2.57096 4.99491
    endloop
  endfacet
  facet normal 0 0.756657 0.653812
    outer loop
      vertex 62.0841 2.91945 4.77032
      vertex 2.82743 2.82651 4.87787
      vertex 62.1762 2.82651 4.87787
    endloop
  endfacet
  facet normal 0 0.756657 0.653812
    outer loop
      vertex 2.82743 2.82651 4.87787
      vertex 62.0841 2.91945 4.77032
      vertex 2.92063 2.91945 4.77032
    endloop
  endfacet
  facet normal 0.909631 -0 0.415416
    outer loop
      vertex 64.9206 0.5 4.77032
      vertex 64.9797 19.5 4.64087
      vertex 64.9206 19.5 4.77032
    endloop
  endfacet
  facet normal 0.909631 0 0.415416
    outer loop
      vertex 64.9797 19.5 4.64087
      vertex 64.9206 0.5 4.77032
      vertex 64.9797 0.5 4.64087
    endloop
  endfacet
  facet normal 0.821112 -0.395441 0.411585
    outer loop
      vertex 64.9584 0.358593 4.64087
      vertex 64.8475 0.263053 4.77032
      vertex 64.8964 0.22975 4.64087
    endloop
  endfacet
  facet normal 0 1 -0
    outer loop
      vertex 62.0056 2.9986 3.01
      vertex 3 2.9986 4.5
      vertex 62.0056 2.9986 4.5
    endloop
  endfacet
  facet normal 0 1 0
    outer loop
      vertex 3 2.9986 4.5
      vertex 62.0056 2.9986 3.01
      vertex 3 2.9986 3.01
    endloop
  endfacet
  facet normal 0.455703 -0.789273 0.411561
    outer loop
      vertex 64.7623 0.171142 4.77032
      vertex 64.6537 0.10845 4.77032
      vertex 64.6753 0.0534172 4.64087
    endloop
  endfacet
  facet normal 0.168975 -0.740336 0.650653
    outer loop
      vertex 64.6196 0.195204 4.87787
      vertex 64.5314 0.0805502 4.77032
      vertex 64.6537 0.10845 4.77032
    endloop
  endfacet
  facet normal 0 0.989878 0.14192
    outer loop
      vertex 62.0056 2.9986 4.5
      vertex 2.97975 2.9784 4.64087
      vertex 62.0256 2.9784 4.64087
    endloop
  endfacet
  facet normal 0 0.989878 0.14192
    outer loop
      vertex 2.97975 2.9784 4.64087
      vertex 62.0056 2.9986 4.5
      vertex 3 2.9986 4.5
    endloop
  endfacet
  facet normal 0.22031 -0.96522 0.140759
    outer loop
      vertex 64.6827 0.034564 4.5
      vertex 64.5359 0.021595 4.64087
      vertex 64.5374 0.00139904 4.5
    endloop
  endfacet
  facet normal 0.281729 0 0.959494
    outer loop
      vertex 64.5712 19.5 4.99491
      vertex 64.7077 0.5 4.95482
      vertex 64.7077 19.5 4.95482
    endloop
  endfacet
  facet normal 0.281729 0 0.959494
    outer loop
      vertex 64.7077 0.5 4.95482
      vertex 64.5712 19.5 4.99491
      vertex 64.5712 0.5 4.99491
    endloop
  endfacet
  facet normal 0.755761 -0 0.654847
    outer loop
      vertex 64.8274 0.5 4.87787
      vertex 64.9206 19.5 4.77032
      vertex 64.8274 19.5 4.87787
    endloop
  endfacet
  facet normal 0.755761 0 0.654847
    outer loop
      vertex 64.9206 19.5 4.77032
      vertex 64.8274 0.5 4.87787
      vertex 64.9206 0.5 4.77032
    endloop
  endfacet
  facet normal 0.538863 -0.0812349 0.838467
    outer loop
      vertex 64.8274 0.5 4.87787
      vertex 64.7077 0.5 4.95482
      vertex 64.8129 0.403489 4.87787
    endloop
  endfacet
  facet normal 0.168975 -0.740336 0.650653
    outer loop
      vertex 64.6196 0.195204 4.87787
      vertex 64.5245 0.173486 4.87787
      vertex 64.5314 0.0805502 4.77032
    endloop
  endfacet
  facet normal 0.54065 0 0.841248
    outer loop
      vertex 64.7077 19.5 4.95482
      vertex 64.8274 0.5 4.87787
      vertex 64.8274 19.5 4.87787
    endloop
  endfacet
  facet normal 0.54065 0 0.841248
    outer loop
      vertex 64.8274 0.5 4.87787
      vertex 64.7077 19.5 4.95482
      vertex 64.7077 0.5 4.95482
    endloop
  endfacet
  facet normal 0.495022 -0.857403 0.14076
    outer loop
      vertex 64.8117 0.109085 4.5
      vertex 64.6753 0.0534172 4.64087
      vertex 64.6827 0.034564 4.5
    endloop
  endfacet
  facet normal 0.725757 -0.673399 0.140752
    outer loop
      vertex 64.8964 0.22975 4.64087
      vertex 64.7991 0.12492 4.64087
      vertex 64.8117 0.109085 4.5
    endloop
  endfacet
  facet normal 1 -0 0
    outer loop
      vertex 65 0.5 4.5
      vertex 65 19.5 0
      vertex 65 19.5 4.5
    endloop
  endfacet
  facet normal 1 0 0
    outer loop
      vertex 65 19.5 0
      vertex 65 0.5 4.5
      vertex 65 0.5 0
    endloop
  endfacet
  facet normal 0.272471 -0.471933 0.838474
    outer loop
      vertex 64.6295 0.337608 4.95482
      vertex 64.5759 0.306651 4.95482
      vertex 64.6196 0.195204 4.87787
    endloop
  endfacet
  facet normal 0.379688 -0.657636 0.650655
    outer loop
      vertex 64.7041 0.244005 4.87787
      vertex 64.6196 0.195204 4.87787
      vertex 64.6537 0.10845 4.77032
    endloop
  endfacet
  facet normal 0.220309 -0.965221 0.140758
    outer loop
      vertex 64.6753 0.0534172 4.64087
      vertex 64.5359 0.021595 4.64087
      vertex 64.6827 0.034564 4.5
    endloop
  endfacet
  facet normal 0.142319 -0.246528 0.958629
    outer loop
      vertex 64.5444 0.444367 4.99491
      vertex 64.526 0.433762 4.99491
      vertex 64.6295 0.337608 4.95482
    endloop
  endfacet
  facet normal 0.12126 -0.53128 0.838474
    outer loop
      vertex 64.6196 0.195204 4.87787
      vertex 64.5155 0.292873 4.95482
      vertex 64.5245 0.173486 4.87787
    endloop
  endfacet
  facet normal -0 0.541715 0.840562
    outer loop
      vertex 2.82743 2.82651 4.87787
      vertex 62.2946 2.70713 4.95482
      vertex 62.1762 2.82651 4.87787
    endloop
  endfacet
  facet normal 0 0.541715 0.840562
    outer loop
      vertex 62.2946 2.70713 4.95482
      vertex 2.82743 2.82651 4.87787
      vertex 2.70771 2.70713 4.95482
    endloop
  endfacet
  facet normal 0.500001 -0.866025 0
    outer loop
      vertex 64.6827 0.034564 0
      vertex 64.8117 0.109085 4.5
      vertex 64.6827 0.034564 4.5
    endloop
  endfacet
  facet normal 0.500001 -0.866025 0
    outer loop
      vertex 64.8117 0.109085 4.5
      vertex 64.6827 0.034564 0
      vertex 64.8117 0.109085 0
    endloop
  endfacet
  facet normal 0.222526 -0.974927 0
    outer loop
      vertex 64.5374 0.00139904 0
      vertex 64.6827 0.034564 4.5
      vertex 64.5374 0.00139904 4.5
    endloop
  endfacet
  facet normal 0.222526 -0.974927 0
    outer loop
      vertex 64.6827 0.034564 4.5
      vertex 64.5374 0.00139904 0
      vertex 64.6827 0.034564 0
    endloop
  endfacet
  facet normal 0.142328 -0.246519 0.95863
    outer loop
      vertex 64.6295 0.337608 4.95482
      vertex 64.526 0.433762 4.99491
      vertex 64.5759 0.306651 4.95482
    endloop
  endfacet
  facet normal 0.891995 -0.429578 0.140739
    outer loop
      vertex 64.9584 0.358593 4.64087
      vertex 64.8964 0.22975 4.64087
      vertex 64.9131 0.218341 4.5
    endloop
  endfacet
  facet normal 0.733061 -0.680163 0
    outer loop
      vertex 64.8117 0.109085 4.5
      vertex 64.9131 0.218341 0
      vertex 64.9131 0.218341 4.5
    endloop
  endfacet
  facet normal 0.733061 -0.680163 0
    outer loop
      vertex 64.9131 0.218341 0
      vertex 64.8117 0.109085 4.5
      vertex 64.8117 0.109085 0
    endloop
  endfacet
  facet normal 0.399462 -0.370663 0.838474
    outer loop
      vertex 64.6716 0.382995 4.95482
      vertex 64.6295 0.337608 4.95482
      vertex 64.7041 0.244005 4.87787
    endloop
  endfacet
  facet normal 0.556664 -0.51651 0.650647
    outer loop
      vertex 64.8475 0.263053 4.77032
      vertex 64.7041 0.244005 4.87787
      vertex 64.7623 0.171142 4.77032
    endloop
  endfacet
  facet normal 0.121262 -0.531278 0.838474
    outer loop
      vertex 64.5759 0.306651 4.95482
      vertex 64.5155 0.292873 4.95482
      vertex 64.6196 0.195204 4.87787
    endloop
  endfacet
  facet normal 0.988828 -0.149064 0
    outer loop
      vertex 64.9778 0.352623 4.5
      vertex 65 0.5 0
      vertex 65 0.5 4.5
    endloop
  endfacet
  facet normal 0.988828 -0.149064 0
    outer loop
      vertex 65 0.5 0
      vertex 64.9778 0.352623 4.5
      vertex 64.9778 0.352623 0
    endloop
  endfacet
  facet normal 0.901204 -0.135804 0.411568
    outer loop
      vertex 64.9797 0.5 4.64087
      vertex 64.9206 0.5 4.77032
      vertex 64.9584 0.358593 4.64087
    endloop
  endfacet
  facet normal 0 0.910069 0.414456
    outer loop
      vertex 62.0256 2.9784 4.64087
      vertex 2.92063 2.91945 4.77032
      vertex 62.0841 2.91945 4.77032
    endloop
  endfacet
  facet normal 0 0.910069 0.414456
    outer loop
      vertex 2.92063 2.91945 4.77032
      vertex 62.0256 2.9784 4.64087
      vertex 2.97975 2.9784 4.64087
    endloop
  endfacet
  facet normal 0.202799 -0.88853 0.411567
    outer loop
      vertex 64.6537 0.10845 4.77032
      vertex 64.5314 0.0805502 4.77032
      vertex 64.5359 0.021595 4.64087
    endloop
  endfacet
  facet normal 0.202805 -0.888531 0.411562
    outer loop
      vertex 64.6537 0.10845 4.77032
      vertex 64.5359 0.021595 4.64087
      vertex 64.6753 0.0534172 4.64087
    endloop
  endfacet
  facet normal 0.379699 -0.657635 0.650649
    outer loop
      vertex 64.7041 0.244005 4.87787
      vertex 64.6537 0.10845 4.77032
      vertex 64.7623 0.171142 4.77032
    endloop
  endfacet
  facet normal 0.399455 -0.370666 0.838476
    outer loop
      vertex 64.7705 0.315553 4.87787
      vertex 64.6716 0.382995 4.95482
      vertex 64.7041 0.244005 4.87787
    endloop
  endfacet
  facet normal 0.490982 -0.236417 0.838477
    outer loop
      vertex 64.8129 0.403489 4.87787
      vertex 64.6716 0.382995 4.95482
      vertex 64.7705 0.315553 4.87787
    endloop
  endfacet
  facet normal 0.556657 -0.516538 0.650632
    outer loop
      vertex 64.7705 0.315553 4.87787
      vertex 64.7041 0.244005 4.87787
      vertex 64.8475 0.263053 4.77032
    endloop
  endfacet
  facet normal 0.668086 -0.619889 0.411581
    outer loop
      vertex 64.8475 0.263053 4.77032
      vertex 64.7991 0.12492 4.64087
      vertex 64.8964 0.22975 4.64087
    endloop
  endfacet
  facet normal 0.495017 -0.857407 0.140753
    outer loop
      vertex 64.7991 0.12492 4.64087
      vertex 64.6753 0.0534172 4.64087
      vertex 64.8117 0.109085 4.5
    endloop
  endfacet
  facet normal 0.725765 -0.673393 0.140741
    outer loop
      vertex 64.8964 0.22975 4.64087
      vertex 64.8117 0.109085 4.5
      vertex 64.9131 0.218341 4.5
    endloop
  endfacet
  facet normal 0.989819 -0 0.142333
    outer loop
      vertex 64.9797 0.5 4.64087
      vertex 65 19.5 4.5
      vertex 64.9797 19.5 4.64087
    endloop
  endfacet
  facet normal 0.989819 0 0.142333
    outer loop
      vertex 65 19.5 4.5
      vertex 64.9797 0.5 4.64087
      vertex 65 0.5 4.5
    endloop
  endfacet
  facet normal 0.978988 -0.147526 0.140776
    outer loop
      vertex 64.9797 0.5 4.64087
      vertex 64.9584 0.358593 4.64087
      vertex 65 0.5 4.5
    endloop
  endfacet
  facet normal 0.892003 -0.429566 0.140724
    outer loop
      vertex 64.9584 0.358593 4.64087
      vertex 64.9131 0.218341 4.5
      vertex 64.9778 0.352623 4.5
    endloop
  endfacet
  facet normal 0.900969 -0.433883 0
    outer loop
      vertex 64.9131 0.218341 4.5
      vertex 64.9778 0.352623 0
      vertex 64.9778 0.352623 4.5
    endloop
  endfacet
  facet normal 0.900969 -0.433883 0
    outer loop
      vertex 64.9778 0.352623 0
      vertex 64.9131 0.218341 4.5
      vertex 64.9131 0.218341 0
    endloop
  endfacet
  facet normal 0.208664 -0.193621 0.958629
    outer loop
      vertex 64.6716 0.382995 4.95482
      vertex 64.5444 0.444367 4.99491
      vertex 64.6295 0.337608 4.95482
    endloop
  endfacet
  facet normal 0.272472 -0.471933 0.838474
    outer loop
      vertex 64.6295 0.337608 4.95482
      vertex 64.6196 0.195204 4.87787
      vertex 64.7041 0.244005 4.87787
    endloop
  endfacet
  facet normal 0.684181 -0.329508 0.650631
    outer loop
      vertex 64.9019 0.376019 4.77032
      vertex 64.7705 0.315553 4.87787
      vertex 64.8475 0.263053 4.77032
    endloop
  endfacet
  facet normal 0.750903 -0.113201 0.650638
    outer loop
      vertex 64.8274 0.5 4.87787
      vertex 64.8129 0.403489 4.87787
      vertex 64.9206 0.5 4.77032
    endloop
  endfacet
  facet normal 0.281468 -0.042442 0.958632
    outer loop
      vertex 64.7077 0.5 4.95482
      vertex 64.568 0.479027 4.99491
      vertex 64.6985 0.438778 4.95482
    endloop
  endfacet
  facet normal 0.208667 -0.193615 0.95863
    outer loop
      vertex 64.5588 0.459916 4.99491
      vertex 64.5444 0.444367 4.99491
      vertex 64.6716 0.382995 4.95482
    endloop
  endfacet
  facet normal 0.0633508 -0.27752 0.958629
    outer loop
      vertex 64.526 0.433762 4.99491
      vertex 64.5053 0.429042 4.99491
      vertex 64.5155 0.292873 4.95482
    endloop
  endfacet
  facet normal 0.0633424 -0.277519 0.95863
    outer loop
      vertex 64.526 0.433762 4.99491
      vertex 64.5155 0.292873 4.95482
      vertex 64.5759 0.306651 4.95482
    endloop
  endfacet
  facet normal 0.821111 -0.395454 0.411574
    outer loop
      vertex 64.9019 0.376019 4.77032
      vertex 64.8475 0.263053 4.77032
      vertex 64.9584 0.358593 4.64087
    endloop
  endfacet
  facet normal 0.901199 -0.135813 0.411576
    outer loop
      vertex 64.9206 0.5 4.77032
      vertex 64.9019 0.376019 4.77032
      vertex 64.9584 0.358593 4.64087
    endloop
  endfacet
  facet normal 0.668082 -0.619891 0.411584
    outer loop
      vertex 64.8475 0.263053 4.77032
      vertex 64.7623 0.171142 4.77032
      vertex 64.7991 0.12492 4.64087
    endloop
  endfacet
  facet normal 0.455683 -0.789276 0.411577
    outer loop
      vertex 64.7623 0.171142 4.77032
      vertex 64.6753 0.0534172 4.64087
      vertex 64.7991 0.12492 4.64087
    endloop
  endfacet
  facet normal 0.978988 -0.147581 0.140721
    outer loop
      vertex 65 0.5 4.5
      vertex 64.9584 0.358593 4.64087
      vertex 64.9778 0.352623 4.5
    endloop
  endfacet
  facet normal 0.256464 -0.123503 0.958631
    outer loop
      vertex 64.6985 0.438778 4.95482
      vertex 64.568 0.479027 4.99491
      vertex 64.6716 0.382995 4.95482
    endloop
  endfacet
  facet normal 0.281474 -0.0424925 0.958627
    outer loop
      vertex 64.5712 0.5 4.99491
      vertex 64.568 0.479027 4.99491
      vertex 64.7077 0.5 4.95482
    endloop
  endfacet
  facet normal 0.490981 -0.236438 0.838471
    outer loop
      vertex 64.6985 0.438778 4.95482
      vertex 64.6716 0.382995 4.95482
      vertex 64.8129 0.403489 4.87787
    endloop
  endfacet
  facet normal 0.538851 -0.0812524 0.838473
    outer loop
      vertex 64.7077 0.5 4.95482
      vertex 64.6985 0.438778 4.95482
      vertex 64.8129 0.403489 4.87787
    endloop
  endfacet
  facet normal 0.75089 -0.113161 0.65066
    outer loop
      vertex 64.9206 0.5 4.77032
      vertex 64.8129 0.403489 4.87787
      vertex 64.9019 0.376019 4.77032
    endloop
  endfacet
  facet normal 0.68418 -0.329446 0.650663
    outer loop
      vertex 64.8129 0.403489 4.87787
      vertex 64.7705 0.315553 4.87787
      vertex 64.9019 0.376019 4.77032
    endloop
  endfacet
  facet normal 0.25648 -0.123485 0.958629
    outer loop
      vertex 64.568 0.479027 4.99491
      vertex 64.5588 0.459916 4.99491
      vertex 64.6716 0.382995 4.95482
    endloop
  endfacet
  facet normal 0.455708 0.789271 0.411561
    outer loop
      vertex 64.6753 19.9466 4.64087
      vertex 64.6537 19.8916 4.77032
      vertex 64.7623 19.8289 4.77032
    endloop
  endfacet
  facet normal 0.988828 0.149064 0
    outer loop
      vertex 65 19.5 4.5
      vertex 64.9778 19.6474 0
      vertex 64.9778 19.6474 4.5
    endloop
  endfacet
  facet normal 0.988828 0.149064 0
    outer loop
      vertex 64.9778 19.6474 0
      vertex 65 19.5 4.5
      vertex 65 19.5 0
    endloop
  endfacet
  facet normal 0.168984 0.740342 0.650645
    outer loop
      vertex 64.5314 19.9194 4.77032
      vertex 64.5245 19.8265 4.87787
      vertex 64.6196 19.8048 4.87787
    endloop
  endfacet
  facet normal 0.222526 0.974927 -0
    outer loop
      vertex 64.6827 19.9654 0
      vertex 64.5374 19.9986 4.5
      vertex 64.6827 19.9654 4.5
    endloop
  endfacet
  facet normal 0.222526 0.974927 0
    outer loop
      vertex 64.5374 19.9986 4.5
      vertex 64.6827 19.9654 0
      vertex 64.5374 19.9986 0
    endloop
  endfacet
  facet normal 0.538851 0.0812524 0.838474
    outer loop
      vertex 64.8129 19.5965 4.87787
      vertex 64.6985 19.5612 4.95482
      vertex 64.7077 19.5 4.95482
    endloop
  endfacet
  facet normal 0.220311 0.965221 0.140752
    outer loop
      vertex 64.5374 19.9986 4.5
      vertex 64.5359 19.9784 4.64087
      vertex 64.6827 19.9654 4.5
    endloop
  endfacet
  facet normal 0.272472 0.471933 0.838474
    outer loop
      vertex 64.7041 19.756 4.87787
      vertex 64.6196 19.8048 4.87787
      vertex 64.6295 19.6624 4.95482
    endloop
  endfacet
  facet normal 0.495018 0.857406 0.140754
    outer loop
      vertex 64.6827 19.9654 4.5
      vertex 64.6753 19.9466 4.64087
      vertex 64.8117 19.8909 4.5
    endloop
  endfacet
  facet normal 0.900968 0.433886 0
    outer loop
      vertex 64.9778 19.6474 4.5
      vertex 64.9131 19.7817 0
      vertex 64.9131 19.7817 4.5
    endloop
  endfacet
  facet normal 0.900968 0.433886 0
    outer loop
      vertex 64.9131 19.7817 0
      vertex 64.9778 19.6474 4.5
      vertex 64.9778 19.6474 0
    endloop
  endfacet
  facet normal 0.725757 0.673399 0.140752
    outer loop
      vertex 64.8117 19.8909 4.5
      vertex 64.7991 19.8751 4.64087
      vertex 64.8964 19.7703 4.64087
    endloop
  endfacet
  facet normal 0.22031 0.965222 0.140751
    outer loop
      vertex 64.6827 19.9654 4.5
      vertex 64.5359 19.9784 4.64087
      vertex 64.6753 19.9466 4.64087
    endloop
  endfacet
  facet normal 0.733064 0.680159 0
    outer loop
      vertex 64.9131 19.7817 4.5
      vertex 64.8117 19.8909 0
      vertex 64.8117 19.8909 4.5
    endloop
  endfacet
  facet normal 0.733064 0.680159 0
    outer loop
      vertex 64.8117 19.8909 0
      vertex 64.9131 19.7817 4.5
      vertex 64.9131 19.7817 0
    endloop
  endfacet
  facet normal -0.990044 0 0.140757
    outer loop
      vertex 62.0056 2.9986 4.5
      vertex 62.0256 17.0216 4.64087
      vertex 62.0056 17.0014 4.5
    endloop
  endfacet
  facet normal -0.990044 0 0.140757
    outer loop
      vertex 62.0256 17.0216 4.64087
      vertex 62.0056 2.9986 4.5
      vertex 62.0256 2.9784 4.64087
    endloop
  endfacet
  facet normal -1 0 0
    outer loop
      vertex 62.0056 2.9986 3.01
      vertex 62.0056 17.0014 4.5
      vertex 62.0056 17.0014 3.01
    endloop
  endfacet
  facet normal -1 -0 0
    outer loop
      vertex 62.0056 17.0014 4.5
      vertex 62.0056 2.9986 3.01
      vertex 62.0056 2.9986 4.5
    endloop
  endfacet
  facet normal 0.499996 0.866028 -0
    outer loop
      vertex 64.8117 19.8909 0
      vertex 64.6827 19.9654 4.5
      vertex 64.8117 19.8909 4.5
    endloop
  endfacet
  facet normal 0.499996 0.866028 0
    outer loop
      vertex 64.6827 19.9654 4.5
      vertex 64.8117 19.8909 0
      vertex 64.6827 19.9654 0
    endloop
  endfacet
  facet normal 0.901199 0.135813 0.411576
    outer loop
      vertex 64.9584 19.6414 4.64087
      vertex 64.9019 19.624 4.77032
      vertex 64.9206 19.5 4.77032
    endloop
  endfacet
  facet normal 0.208667 0.19362 0.958629
    outer loop
      vertex 64.6295 19.6624 4.95482
      vertex 64.5444 19.5556 4.99491
      vertex 64.6716 19.617 4.95482
    endloop
  endfacet
  facet normal 0.668085 0.619888 0.411584
    outer loop
      vertex 64.8964 19.7703 4.64087
      vertex 64.7991 19.8751 4.64087
      vertex 64.8475 19.7369 4.77032
    endloop
  endfacet
  facet normal 0.750891 0.113162 0.650659
    outer loop
      vertex 64.9019 19.624 4.77032
      vertex 64.8129 19.5965 4.87787
      vertex 64.9206 19.5 4.77032
    endloop
  endfacet
  facet normal 0.668081 0.61989 0.411588
    outer loop
      vertex 64.7991 19.8751 4.64087
      vertex 64.7623 19.8289 4.77032
      vertex 64.8475 19.7369 4.77032
    endloop
  endfacet
  facet normal 0.495017 0.857407 0.140753
    outer loop
      vertex 64.8117 19.8909 4.5
      vertex 64.6753 19.9466 4.64087
      vertex 64.7991 19.8751 4.64087
    endloop
  endfacet
  facet normal -0.544944 0 0.838473
    outer loop
      vertex 62.1762 17.1735 4.87787
      vertex 62.2946 2.70713 4.95482
      vertex 62.2946 17.2929 4.95482
    endloop
  endfacet
  facet normal -0.544944 0 0.838473
    outer loop
      vertex 62.2946 2.70713 4.95482
      vertex 62.1762 17.1735 4.87787
      vertex 62.1762 2.82651 4.87787
    endloop
  endfacet
  facet normal -0.284656 0 0.95863
    outer loop
      vertex 62.2946 17.2929 4.95482
      vertex 62.4296 2.57096 4.99491
      vertex 62.4296 17.429 4.99491
    endloop
  endfacet
  facet normal -0.284656 0 0.95863
    outer loop
      vertex 62.4296 2.57096 4.99491
      vertex 62.2946 17.2929 4.95482
      vertex 62.2946 2.70713 4.95482
    endloop
  endfacet
  facet normal -0.911379 0 0.411568
    outer loop
      vertex 62.0256 2.9784 4.64087
      vertex 62.0841 17.0806 4.77032
      vertex 62.0256 17.0216 4.64087
    endloop
  endfacet
  facet normal -0.911379 0 0.411568
    outer loop
      vertex 62.0841 17.0806 4.77032
      vertex 62.0256 2.9784 4.64087
      vertex 62.0841 2.91945 4.77032
    endloop
  endfacet
  facet normal 0.684183 0.329511 0.650628
    outer loop
      vertex 64.8475 19.7369 4.77032
      vertex 64.7705 19.6844 4.87787
      vertex 64.9019 19.624 4.77032
    endloop
  endfacet
  facet normal 0.901204 0.135804 0.411568
    outer loop
      vertex 64.9584 19.6414 4.64087
      vertex 64.9206 19.5 4.77032
      vertex 64.9797 19.5 4.64087
    endloop
  endfacet
  facet normal 0.39945 0.370666 0.838479
    outer loop
      vertex 64.7041 19.756 4.87787
      vertex 64.6716 19.617 4.95482
      vertex 64.7705 19.6844 4.87787
    endloop
  endfacet
  facet normal 0.399466 0.370659 0.838474
    outer loop
      vertex 64.7041 19.756 4.87787
      vertex 64.6295 19.6624 4.95482
      vertex 64.6716 19.617 4.95482
    endloop
  endfacet
  facet normal 0.142311 0.246536 0.958628
    outer loop
      vertex 64.6295 19.6624 4.95482
      vertex 64.526 19.5662 4.99491
      vertex 64.5444 19.5556 4.99491
    endloop
  endfacet
  facet normal 0.978988 0.147526 0.140776
    outer loop
      vertex 65 19.5 4.5
      vertex 64.9584 19.6414 4.64087
      vertex 64.9797 19.5 4.64087
    endloop
  endfacet
  facet normal 0.821111 0.39544 0.411588
    outer loop
      vertex 64.8964 19.7703 4.64087
      vertex 64.8475 19.7369 4.77032
      vertex 64.9584 19.6414 4.64087
    endloop
  endfacet
  facet normal 0.121264 0.531276 0.838475
    outer loop
      vertex 64.5245 19.8265 4.87787
      vertex 64.5155 19.7071 4.95482
      vertex 64.6196 19.8048 4.87787
    endloop
  endfacet
  facet normal 0.202805 0.888531 0.411562
    outer loop
      vertex 64.6753 19.9466 4.64087
      vertex 64.5359 19.9784 4.64087
      vertex 64.6537 19.8916 4.77032
    endloop
  endfacet
  facet normal 0.455682 0.789275 0.411582
    outer loop
      vertex 64.7991 19.8751 4.64087
      vertex 64.6753 19.9466 4.64087
      vertex 64.7623 19.8289 4.77032
    endloop
  endfacet
  facet normal 0.684181 0.329447 0.650662
    outer loop
      vertex 64.9019 19.624 4.77032
      vertex 64.7705 19.6844 4.87787
      vertex 64.8129 19.5965 4.87787
    endloop
  endfacet
  facet normal 0.281474 0.0424925 0.958627
    outer loop
      vertex 64.7077 19.5 4.95482
      vertex 64.568 19.521 4.99491
      vertex 64.5712 19.5 4.99491
    endloop
  endfacet
  facet normal 0.978988 0.147581 0.140721
    outer loop
      vertex 64.9778 19.6474 4.5
      vertex 64.9584 19.6414 4.64087
      vertex 65 19.5 4.5
    endloop
  endfacet
  facet normal 0.821109 0.395457 0.411574
    outer loop
      vertex 64.9584 19.6414 4.64087
      vertex 64.8475 19.7369 4.77032
      vertex 64.9019 19.624 4.77032
    endloop
  endfacet
  facet normal 0.892002 0.429568 0.140724
    outer loop
      vertex 64.9778 19.6474 4.5
      vertex 64.9131 19.7817 4.5
      vertex 64.9584 19.6414 4.64087
    endloop
  endfacet
  facet normal 0.490979 0.236416 0.838479
    outer loop
      vertex 64.7705 19.6844 4.87787
      vertex 64.6716 19.617 4.95482
      vertex 64.8129 19.5965 4.87787
    endloop
  endfacet
  facet normal 0.281468 0.042442 0.958632
    outer loop
      vertex 64.6985 19.5612 4.95482
      vertex 64.568 19.521 4.99491
      vertex 64.7077 19.5 4.95482
    endloop
  endfacet
  facet normal -0.759375 0 0.650653
    outer loop
      vertex 62.0841 2.91945 4.77032
      vertex 62.1762 17.1735 4.87787
      vertex 62.0841 17.0806 4.77032
    endloop
  endfacet
  facet normal -0.759375 0 0.650653
    outer loop
      vertex 62.1762 17.1735 4.87787
      vertex 62.0841 2.91945 4.77032
      vertex 62.1762 2.82651 4.87787
    endloop
  endfacet
  facet normal 0.272463 0.471934 0.838476
    outer loop
      vertex 64.6196 19.8048 4.87787
      vertex 64.5759 19.6933 4.95482
      vertex 64.6295 19.6624 4.95482
    endloop
  endfacet
  facet normal 0.256485 0.123481 0.958628
    outer loop
      vertex 64.6716 19.617 4.95482
      vertex 64.5588 19.5401 4.99491
      vertex 64.568 19.521 4.99491
    endloop
  endfacet
  facet normal 0.208668 0.193617 0.958629
    outer loop
      vertex 64.6716 19.617 4.95482
      vertex 64.5444 19.5556 4.99491
      vertex 64.5588 19.5401 4.99491
    endloop
  endfacet
  facet normal 0.538863 0.0812341 0.838467
    outer loop
      vertex 64.8129 19.5965 4.87787
      vertex 64.7077 19.5 4.95482
      vertex 64.8274 19.5 4.87787
    endloop
  endfacet
  facet normal 0.750904 0.113199 0.650638
    outer loop
      vertex 64.9206 19.5 4.77032
      vertex 64.8129 19.5965 4.87787
      vertex 64.8274 19.5 4.87787
    endloop
  endfacet
  facet normal 0.556666 0.516512 0.650645
    outer loop
      vertex 64.7623 19.8289 4.77032
      vertex 64.7041 19.756 4.87787
      vertex 64.8475 19.7369 4.77032
    endloop
  endfacet
  facet normal 0.556657 0.516545 0.650626
    outer loop
      vertex 64.8475 19.7369 4.77032
      vertex 64.7041 19.756 4.87787
      vertex 64.7705 19.6844 4.87787
    endloop
  endfacet
  facet normal 0.379688 0.657636 0.650655
    outer loop
      vertex 64.6537 19.8916 4.77032
      vertex 64.6196 19.8048 4.87787
      vertex 64.7041 19.756 4.87787
    endloop
  endfacet
  facet normal 0.379704 0.657635 0.650646
    outer loop
      vertex 64.7623 19.8289 4.77032
      vertex 64.6537 19.8916 4.77032
      vertex 64.7041 19.756 4.87787
    endloop
  endfacet
  facet normal 0.0633378 0.277519 0.95863
    outer loop
      vertex 64.5155 19.7071 4.95482
      vertex 64.5053 19.571 4.99491
      vertex 64.526 19.5662 4.99491
    endloop
  endfacet
  facet normal 0.121269 0.531273 0.838477
    outer loop
      vertex 64.6196 19.8048 4.87787
      vertex 64.5155 19.7071 4.95482
      vertex 64.5759 19.6933 4.95482
    endloop
  endfacet
  facet normal 0.490979 0.236441 0.838472
    outer loop
      vertex 64.8129 19.5965 4.87787
      vertex 64.6716 19.617 4.95482
      vertex 64.6985 19.5612 4.95482
    endloop
  endfacet
  facet normal 0.256463 0.123505 0.958631
    outer loop
      vertex 64.6716 19.617 4.95482
      vertex 64.568 19.521 4.99491
      vertex 64.6985 19.5612 4.95482
    endloop
  endfacet
  facet normal 0.891996 0.429578 0.140736
    outer loop
      vertex 64.9131 19.7817 4.5
      vertex 64.8964 19.7703 4.64087
      vertex 64.9584 19.6414 4.64087
    endloop
  endfacet
  facet normal 0.725768 0.67339 0.140737
    outer loop
      vertex 64.9131 19.7817 4.5
      vertex 64.8117 19.8909 4.5
      vertex 64.8964 19.7703 4.64087
    endloop
  endfacet
  facet normal 0.16897 0.740338 0.650653
    outer loop
      vertex 64.6537 19.8916 4.77032
      vertex 64.5314 19.9194 4.77032
      vertex 64.6196 19.8048 4.87787
    endloop
  endfacet
  facet normal 0.202792 0.888529 0.411573
    outer loop
      vertex 64.5359 19.9784 4.64087
      vertex 64.5314 19.9194 4.77032
      vertex 64.6537 19.8916 4.77032
    endloop
  endfacet
  facet normal 0.0633468 0.277519 0.958629
    outer loop
      vertex 64.5759 19.6933 4.95482
      vertex 64.5155 19.7071 4.95482
      vertex 64.526 19.5662 4.99491
    endloop
  endfacet
  facet normal 0.142325 0.246522 0.95863
    outer loop
      vertex 64.5759 19.6933 4.95482
      vertex 64.526 19.5662 4.99491
      vertex 64.6295 19.6624 4.95482
    endloop
  endfacet
  facet normal 0 -0.282455 0.959281
    outer loop
      vertex 62.4296 17.429 4.99491
      vertex 2.70771 17.2929 4.95482
      vertex 62.2946 17.2929 4.95482
    endloop
  endfacet
  facet normal 0 -0.282455 0.959281
    outer loop
      vertex 2.70771 17.2929 4.95482
      vertex 62.4296 17.429 4.99491
      vertex 2.57116 17.429 4.99491
    endloop
  endfacet
  facet normal 0 -0.989879 0.141913
    outer loop
      vertex 3 17.0014 4.5
      vertex 62.0256 17.0216 4.64087
      vertex 2.97975 17.0216 4.64087
    endloop
  endfacet
  facet normal 0 -0.989879 0.141913
    outer loop
      vertex 62.0256 17.0216 4.64087
      vertex 3 17.0014 4.5
      vertex 62.0056 17.0014 4.5
    endloop
  endfacet
  facet normal 0 -1 0
    outer loop
      vertex 3 17.0014 3.01
      vertex 62.0056 17.0014 4.5
      vertex 3 17.0014 4.5
    endloop
  endfacet
  facet normal 0 -1 -0
    outer loop
      vertex 62.0056 17.0014 4.5
      vertex 3 17.0014 3.01
      vertex 62.0056 17.0014 3.01
    endloop
  endfacet
  facet normal 0 -0.541712 0.840564
    outer loop
      vertex 62.2946 17.2929 4.95482
      vertex 2.82743 17.1735 4.87787
      vertex 62.1762 17.1735 4.87787
    endloop
  endfacet
  facet normal 0 -0.541712 0.840564
    outer loop
      vertex 2.82743 17.1735 4.87787
      vertex 62.2946 17.2929 4.95482
      vertex 2.70771 17.2929 4.95482
    endloop
  endfacet
  facet normal 0 -0.910067 0.414462
    outer loop
      vertex 2.97975 17.0216 4.64087
      vertex 62.0841 17.0806 4.77032
      vertex 2.92063 17.0806 4.77032
    endloop
  endfacet
  facet normal 0 -0.910067 0.414462
    outer loop
      vertex 62.0841 17.0806 4.77032
      vertex 2.97975 17.0216 4.64087
      vertex 62.0256 17.0216 4.64087
    endloop
  endfacet
  facet normal 0 -0.756664 0.653804
    outer loop
      vertex 2.92063 17.0806 4.77032
      vertex 62.1762 17.1735 4.87787
      vertex 2.82743 17.1735 4.87787
    endloop
  endfacet
  facet normal 0 -0.756664 0.653804
    outer loop
      vertex 62.1762 17.1735 4.87787
      vertex 2.92063 17.0806 4.77032
      vertex 62.0841 17.0806 4.77032
    endloop
  endfacet
  facet normal 0 0 -1
    outer loop
      vertex 64.5374 0.00139904 0
      vertex 65 0.5 0
      vertex 64.9778 0.352623 0
    endloop
  endfacet
  facet normal -0 0 -1
    outer loop
      vertex 65 0.5 0
      vertex 64.5374 0.00139904 0
      vertex 65 19.5 0
    endloop
  endfacet
  facet normal 0 0 -1
    outer loop
      vertex 64.5374 0.00139904 0
      vertex 64.9778 0.352623 0
      vertex 64.9131 0.218341 0
    endloop
  endfacet
  facet normal 0 0 -1
    outer loop
      vertex 64.5374 19.9986 0
      vertex 65 19.5 0
      vertex 64.5374 0.00139904 0
    endloop
  endfacet
  facet normal 0 0 -1
    outer loop
      vertex 64.5374 0.00139904 0
      vertex 64.9131 0.218341 0
      vertex 64.8117 0.109085 0
    endloop
  endfacet
  facet normal 0 0 -1
    outer loop
      vertex 65 19.5 0
      vertex 64.5374 19.9986 0
      vertex 64.9778 19.6474 0
    endloop
  endfacet
  facet normal 0 0 -1
    outer loop
      vertex 64.5374 0.00139904 0
      vertex 64.8117 0.109085 0
      vertex 64.6827 0.034564 0
    endloop
  endfacet
  facet normal 0 0 -1
    outer loop
      vertex 64.9778 19.6474 0
      vertex 64.5374 19.9986 0
      vertex 64.9131 19.7817 0
    endloop
  endfacet
  facet normal 0 0 -1
    outer loop
      vertex 64.9131 19.7817 0
      vertex 64.5374 19.9986 0
      vertex 64.8117 19.8909 0
    endloop
  endfacet
  facet normal 0 0 -1
    outer loop
      vertex 64.8117 19.8909 0
      vertex 64.5374 19.9986 0
      vertex 64.6827 19.9654 0
    endloop
  endfacet
  facet normal 0 0 -1
    outer loop
      vertex 0.537365 0.00139904 0
      vertex 64.5374 19.9986 0
      vertex 64.5374 0.00139904 0
    endloop
  endfacet
  facet normal 0 0 -1
    outer loop
      vertex 0.537365 0.00139904 0
      vertex 0.537365 19.9986 0
      vertex 64.5374 19.9986 0
    endloop
  endfacet
  facet normal 0 0 -1
    outer loop
      vertex 0.00558472 0.425479 0
      vertex 0.537365 0.00139904 0
      vertex 0.38874 0.012536 0
    endloop
  endfacet
  facet normal 0 0 -1
    outer loop
      vertex 0.537365 0.00139904 0
      vertex 0.00558472 0.425479 0
      vertex 0.537365 19.9986 0
    endloop
  endfacet
  facet normal 0 0 -1
    outer loop
      vertex 0.537365 19.9986 0
      vertex 0.00558472 19.5745 0
      vertex 0.38874 19.9875 0
    endloop
  endfacet
  facet normal 0 0 -1
    outer loop
      vertex 0.00558472 0.425479 0
      vertex 0.38874 0.012536 0
      vertex 0.25 0.066988 0
    endloop
  endfacet
  facet normal 0 0 -1
    outer loop
      vertex 0.00558472 0.425479 0
      vertex 0.25 0.066988 0
      vertex 0.133474 0.159914 0
    endloop
  endfacet
  facet normal 0 0 -1
    outer loop
      vertex 0.537365 19.9986 0
      vertex 0.00558472 0.425479 0
      vertex 0.00558472 19.5745 0
    endloop
  endfacet
  facet normal 0 0 -1
    outer loop
      vertex 0.00558472 0.425479 0
      vertex 0.133474 0.159914 0
      vertex 0.0495157 0.283058 0
    endloop
  endfacet
  facet normal 0 0 -1
    outer loop
      vertex 0.38874 19.9875 0
      vertex 0.00558472 19.5745 0
      vertex 0.250001 19.933 0
    endloop
  endfacet
  facet normal 0 0 -1
    outer loop
      vertex 0.250001 19.933 0
      vertex 0.00558472 19.5745 0
      vertex 0.133474 19.8401 0
    endloop
  endfacet
  facet normal 0 0 -1
    outer loop
      vertex 0.133474 19.8401 0
      vertex 0.00558472 19.5745 0
      vertex 0.0495157 19.7169 0
    endloop
  endfacet
  facet normal -0 0 1
    outer loop
      vertex 3 17.0014 3.01
      vertex 62.0056 2.9986 3.01
      vertex 62.0056 17.0014 3.01
    endloop
  endfacet
  facet normal 0 0 1
    outer loop
      vertex 62.0056 2.9986 3.01
      vertex 3 17.0014 3.01
      vertex 3 2.9986 3.01
    endloop
  endfacet
endsolid OpenSCAD_Model
