solid OpenSCAD_Model
  facet normal -0.982906 0.155677 0.0982906
    outer loop
      vertex -4.75528 1.54508 10
      vertex -6 0 0
      vertex -5 0 10
    endloop
  endfacet
  facet normal 0.982906 0.155677 0.0982906
    outer loop
      vertex 6 0 0
      vertex 4.75528 1.54508 10
      vertex 5 0 10
    endloop
  endfacet
  facet normal 0.982906 0.155677 0.0982906
    outer loop
      vertex 5.70634 1.8541 0
      vertex 4.75528 1.54508 10
      vertex 6 0 0
    endloop
  endfacet
  facet normal -0.155677 -0.982906 0.0982906
    outer loop
      vertex 0 -5 10
      vertex -1.54508 -4.75528 10
      vertex 0 -6 0
    endloop
  endfacet
  facet normal 0.886692 0.451792 0.0982905
    outer loop
      vertex 4.8541 3.52671 0
      vertex 4.04508 2.93893 10
      vertex 5.70634 1.8541 0
    endloop
  endfacet
  facet normal 0.703683 0.703683 0.0982906
    outer loop
      vertex 2.93893 4.04508 10
      vertex 4.8541 3.52671 0
      vertex 3.52671 4.8541 0
    endloop
  endfacet
  facet normal 0.703683 0.703683 0.0982906
    outer loop
      vertex 4.8541 3.52671 0
      vertex 2.93893 4.04508 10
      vertex 4.04508 2.93893 10
    endloop
  endfacet
  facet normal -0.982906 -0.155677 0.0982906
    outer loop
      vertex -4.75528 -1.54508 10
      vertex -6 0 0
      vertex -5.70634 -1.8541 0
    endloop
  endfacet
  facet normal 0 0 -1
    outer loop
      vertex 1.4 0 0
      vertex 6 0 0
      vertex 5.70634 -1.8541 0
    endloop
  endfacet
  facet normal 0 0 -1
    outer loop
      vertex 1.33148 -0.432623 0
      vertex 5.70634 -1.8541 0
      vertex 4.8541 -3.52671 0
    endloop
  endfacet
  facet normal 0 0 -1
    outer loop
      vertex 6 0 0
      vertex 1.4 0 0
      vertex 5.70634 1.8541 0
    endloop
  endfacet
  facet normal 0 0 -1
    outer loop
      vertex 1.13262 -0.822899 0
      vertex 4.8541 -3.52671 0
      vertex 3.52671 -4.8541 0
    endloop
  endfacet
  facet normal 0 0 -1
    outer loop
      vertex 1.33148 0.432623 0
      vertex 5.70634 1.8541 0
      vertex 1.4 0 0
    endloop
  endfacet
  facet normal 0 0 -1
    outer loop
      vertex 0.822899 -1.13262 0
      vertex 3.52671 -4.8541 0
      vertex 1.8541 -5.70634 0
    endloop
  endfacet
  facet normal -0 0 -1
    outer loop
      vertex 5.70634 1.8541 0
      vertex 1.33148 0.432623 0
      vertex 4.8541 3.52671 0
    endloop
  endfacet
  facet normal 0 0 -1
    outer loop
      vertex 1.13262 0.822899 0
      vertex 4.8541 3.52671 0
      vertex 1.33148 0.432623 0
    endloop
  endfacet
  facet normal 0 0 -1
    outer loop
      vertex 5.70634 -1.8541 0
      vertex 1.33148 -0.432623 0
      vertex 1.4 0 0
    endloop
  endfacet
  facet normal 0 0 -1
    outer loop
      vertex 4.8541 -3.52671 0
      vertex 1.13262 -0.822899 0
      vertex 1.33148 -0.432623 0
    endloop
  endfacet
  facet normal 0 0 -1
    outer loop
      vertex 3.52671 -4.8541 0
      vertex 0.822899 -1.13262 0
      vertex 1.13262 -0.822899 0
    endloop
  endfacet
  facet normal 0 0 -1
    outer loop
      vertex 1.8541 -5.70634 0
      vertex 0.432623 -1.33148 0
      vertex 0.822899 -1.13262 0
    endloop
  endfacet
  facet normal 0 0 -1
    outer loop
      vertex 0 -6 0
      vertex 0.432623 -1.33148 0
      vertex 1.8541 -5.70634 0
    endloop
  endfacet
  facet normal 0 0 -1
    outer loop
      vertex 0 -6 0
      vertex 0 -1.4 0
      vertex 0.432623 -1.33148 0
    endloop
  endfacet
  facet normal 0 0 -1
    outer loop
      vertex 0 -6 0
      vertex -0.432623 -1.33148 0
      vertex 0 -1.4 0
    endloop
  endfacet
  facet normal 0 0 -1
    outer loop
      vertex -1.8541 -5.70634 0
      vertex -0.432623 -1.33148 0
      vertex 0 -6 0
    endloop
  endfacet
  facet normal -0 0 -1
    outer loop
      vertex -0.432623 -1.33148 0
      vertex -1.8541 -5.70634 0
      vertex -0.822899 -1.13262 0
    endloop
  endfacet
  facet normal 0 0 -1
    outer loop
      vertex -3.52671 -4.8541 0
      vertex -0.822899 -1.13262 0
      vertex -1.8541 -5.70634 0
    endloop
  endfacet
  facet normal 0 0 -1
    outer loop
      vertex -4.8541 -3.52671 0
      vertex -1.13262 -0.822899 0
      vertex -3.52671 -4.8541 0
    endloop
  endfacet
  facet normal -0 0 -1
    outer loop
      vertex -0.822899 -1.13262 0
      vertex -3.52671 -4.8541 0
      vertex -1.13262 -0.822899 0
    endloop
  endfacet
  facet normal -0 0 -1
    outer loop
      vertex 4.8541 3.52671 0
      vertex 1.13262 0.822899 0
      vertex 3.52671 4.8541 0
    endloop
  endfacet
  facet normal 0 0 -1
    outer loop
      vertex 0.822899 1.13262 0
      vertex 3.52671 4.8541 0
      vertex 1.13262 0.822899 0
    endloop
  endfacet
  facet normal -0 0 -1
    outer loop
      vertex 3.52671 4.8541 0
      vertex 0.822899 1.13262 0
      vertex 1.8541 5.70634 0
    endloop
  endfacet
  facet normal 0 0 -1
    outer loop
      vertex 0.432623 1.33148 0
      vertex 1.8541 5.70634 0
      vertex 0.822899 1.13262 0
    endloop
  endfacet
  facet normal 0 0 -1
    outer loop
      vertex 0 1.4 0
      vertex 1.8541 5.70634 0
      vertex 0.432623 1.33148 0
    endloop
  endfacet
  facet normal 0 0 -1
    outer loop
      vertex 0 1.4 0
      vertex 0 6 0
      vertex 1.8541 5.70634 0
    endloop
  endfacet
  facet normal 0 0 -1
    outer loop
      vertex -0.432623 1.33148 0
      vertex 0 6 0
      vertex 0 1.4 0
    endloop
  endfacet
  facet normal 0 0 -1
    outer loop
      vertex -1.8541 5.70634 0
      vertex -0.432623 1.33148 0
      vertex -0.822899 1.13262 0
    endloop
  endfacet
  facet normal 0 0 -1
    outer loop
      vertex -3.52671 4.8541 0
      vertex -0.822899 1.13262 0
      vertex -1.13262 0.822899 0
    endloop
  endfacet
  facet normal 0 0 -1
    outer loop
      vertex -4.8541 3.52671 0
      vertex -1.13262 0.822899 0
      vertex -1.33148 0.432623 0
    endloop
  endfacet
  facet normal 0 0 -1
    outer loop
      vertex -0.432623 1.33148 0
      vertex -1.8541 5.70634 0
      vertex 0 6 0
    endloop
  endfacet
  facet normal 0 0 -1
    outer loop
      vertex -5.70634 1.8541 0
      vertex -1.33148 0.432623 0
      vertex -1.4 0 0
    endloop
  endfacet
  facet normal -0 0 -1
    outer loop
      vertex -1.13262 -0.822899 0
      vertex -4.8541 -3.52671 0
      vertex -1.33148 -0.432623 0
    endloop
  endfacet
  facet normal 0 0 -1
    outer loop
      vertex -5.70634 -1.8541 0
      vertex -1.33148 -0.432623 0
      vertex -4.8541 -3.52671 0
    endloop
  endfacet
  facet normal 0 0 -1
    outer loop
      vertex -0.822899 1.13262 0
      vertex -3.52671 4.8541 0
      vertex -1.8541 5.70634 0
    endloop
  endfacet
  facet normal -0 0 -1
    outer loop
      vertex -1.33148 -0.432623 0
      vertex -5.70634 -1.8541 0
      vertex -1.4 0 0
    endloop
  endfacet
  facet normal 0 0 -1
    outer loop
      vertex -1.13262 0.822899 0
      vertex -4.8541 3.52671 0
      vertex -3.52671 4.8541 0
    endloop
  endfacet
  facet normal 0 0 -1
    outer loop
      vertex -6 0 0
      vertex -1.4 0 0
      vertex -5.70634 -1.8541 0
    endloop
  endfacet
  facet normal 0 0 -1
    outer loop
      vertex -1.33148 0.432623 0
      vertex -5.70634 1.8541 0
      vertex -4.8541 3.52671 0
    endloop
  endfacet
  facet normal 0 0 -1
    outer loop
      vertex -1.4 0 0
      vertex -6 0 0
      vertex -5.70634 1.8541 0
    endloop
  endfacet
  facet normal 0.886692 -0.451792 0.0982905
    outer loop
      vertex 4.75528 -1.54508 10
      vertex 4.04508 -2.93893 10
      vertex 5.70634 -1.8541 0
    endloop
  endfacet
  facet normal 0.155677 0.982906 0.0982906
    outer loop
      vertex 0 6 0
      vertex 0 5 10
      vertex 1.54508 4.75528 10
    endloop
  endfacet
  facet normal 0 0 1
    outer loop
      vertex 1.4 0 10
      vertex 5 0 10
      vertex 4.75528 1.54508 10
    endloop
  endfacet
  facet normal 0 0 1
    outer loop
      vertex 1.33148 0.432623 10
      vertex 4.75528 1.54508 10
      vertex 4.04508 2.93893 10
    endloop
  endfacet
  facet normal 0 0 1
    outer loop
      vertex 5 0 10
      vertex 1.4 0 10
      vertex 4.75528 -1.54508 10
    endloop
  endfacet
  facet normal 0 0 1
    outer loop
      vertex 1.13262 0.822899 10
      vertex 4.04508 2.93893 10
      vertex 2.93893 4.04508 10
    endloop
  endfacet
  facet normal -0 0 1
    outer loop
      vertex 1.33148 -0.432623 10
      vertex 4.75528 -1.54508 10
      vertex 1.4 0 10
    endloop
  endfacet
  facet normal 0 0 1
    outer loop
      vertex 0.822899 1.13262 10
      vertex 2.93893 4.04508 10
      vertex 1.54508 4.75528 10
    endloop
  endfacet
  facet normal 0 0 1
    outer loop
      vertex 4.75528 -1.54508 10
      vertex 1.33148 -0.432623 10
      vertex 4.04508 -2.93893 10
    endloop
  endfacet
  facet normal -0 0 1
    outer loop
      vertex 1.13262 -0.822899 10
      vertex 4.04508 -2.93893 10
      vertex 1.33148 -0.432623 10
    endloop
  endfacet
  facet normal 0 0 1
    outer loop
      vertex 4.75528 1.54508 10
      vertex 1.33148 0.432623 10
      vertex 1.4 0 10
    endloop
  endfacet
  facet normal 0 0 1
    outer loop
      vertex 4.04508 2.93893 10
      vertex 1.13262 0.822899 10
      vertex 1.33148 0.432623 10
    endloop
  endfacet
  facet normal 0 0 1
    outer loop
      vertex 2.93893 4.04508 10
      vertex 0.822899 1.13262 10
      vertex 1.13262 0.822899 10
    endloop
  endfacet
  facet normal 0 0 1
    outer loop
      vertex 1.54508 4.75528 10
      vertex 0.432623 1.33148 10
      vertex 0.822899 1.13262 10
    endloop
  endfacet
  facet normal 0 0 1
    outer loop
      vertex 0 5 10
      vertex 0.432623 1.33148 10
      vertex 1.54508 4.75528 10
    endloop
  endfacet
  facet normal 0 0 1
    outer loop
      vertex 0 5 10
      vertex 0 1.4 10
      vertex 0.432623 1.33148 10
    endloop
  endfacet
  facet normal 0 0 1
    outer loop
      vertex 0 5 10
      vertex -0.432623 1.33148 10
      vertex 0 1.4 10
    endloop
  endfacet
  facet normal -0 0 1
    outer loop
      vertex -1.54508 4.75528 10
      vertex -0.432623 1.33148 10
      vertex 0 5 10
    endloop
  endfacet
  facet normal 0 0 1
    outer loop
      vertex -0.432623 1.33148 10
      vertex -1.54508 4.75528 10
      vertex -0.822899 1.13262 10
    endloop
  endfacet
  facet normal -0 0 1
    outer loop
      vertex -2.93893 4.04508 10
      vertex -0.822899 1.13262 10
      vertex -1.54508 4.75528 10
    endloop
  endfacet
  facet normal -0 0 1
    outer loop
      vertex -4.04508 2.93893 10
      vertex -1.13262 0.822899 10
      vertex -2.93893 4.04508 10
    endloop
  endfacet
  facet normal 0 0 1
    outer loop
      vertex -0.822899 1.13262 10
      vertex -2.93893 4.04508 10
      vertex -1.13262 0.822899 10
    endloop
  endfacet
  facet normal 0 0 1
    outer loop
      vertex 4.04508 -2.93893 10
      vertex 1.13262 -0.822899 10
      vertex 2.93893 -4.04508 10
    endloop
  endfacet
  facet normal -0 0 1
    outer loop
      vertex 0.822899 -1.13262 10
      vertex 2.93893 -4.04508 10
      vertex 1.13262 -0.822899 10
    endloop
  endfacet
  facet normal 0 0 1
    outer loop
      vertex 2.93893 -4.04508 10
      vertex 0.822899 -1.13262 10
      vertex 1.54508 -4.75528 10
    endloop
  endfacet
  facet normal -0 0 1
    outer loop
      vertex 0.432623 -1.33148 10
      vertex 1.54508 -4.75528 10
      vertex 0.822899 -1.13262 10
    endloop
  endfacet
  facet normal -0 0 1
    outer loop
      vertex 0 -1.4 10
      vertex 1.54508 -4.75528 10
      vertex 0.432623 -1.33148 10
    endloop
  endfacet
  facet normal 0 0 1
    outer loop
      vertex 0 -1.4 10
      vertex 0 -5 10
      vertex 1.54508 -4.75528 10
    endloop
  endfacet
  facet normal 0 0 1
    outer loop
      vertex -0.432623 -1.33148 10
      vertex 0 -5 10
      vertex 0 -1.4 10
    endloop
  endfacet
  facet normal 0 0 1
    outer loop
      vertex -1.54508 -4.75528 10
      vertex -0.432623 -1.33148 10
      vertex -0.822899 -1.13262 10
    endloop
  endfacet
  facet normal 0 0 1
    outer loop
      vertex -2.93893 -4.04508 10
      vertex -0.822899 -1.13262 10
      vertex -1.13262 -0.822899 10
    endloop
  endfacet
  facet normal 0 0 1
    outer loop
      vertex -4.04508 -2.93893 10
      vertex -1.13262 -0.822899 10
      vertex -1.33148 -0.432623 10
    endloop
  endfacet
  facet normal 0 0 1
    outer loop
      vertex -0.432623 -1.33148 10
      vertex -1.54508 -4.75528 10
      vertex 0 -5 10
    endloop
  endfacet
  facet normal 0 0 1
    outer loop
      vertex -4.75528 -1.54508 10
      vertex -1.33148 -0.432623 10
      vertex -1.4 0 10
    endloop
  endfacet
  facet normal 0 0 1
    outer loop
      vertex -1.13262 0.822899 10
      vertex -4.04508 2.93893 10
      vertex -1.33148 0.432623 10
    endloop
  endfacet
  facet normal -0 0 1
    outer loop
      vertex -4.75528 1.54508 10
      vertex -1.33148 0.432623 10
      vertex -4.04508 2.93893 10
    endloop
  endfacet
  facet normal 0 0 1
    outer loop
      vertex -0.822899 -1.13262 10
      vertex -2.93893 -4.04508 10
      vertex -1.54508 -4.75528 10
    endloop
  endfacet
  facet normal 0 0 1
    outer loop
      vertex -1.33148 0.432623 10
      vertex -4.75528 1.54508 10
      vertex -1.4 0 10
    endloop
  endfacet
  facet normal 0 0 1
    outer loop
      vertex -1.13262 -0.822899 10
      vertex -4.04508 -2.93893 10
      vertex -2.93893 -4.04508 10
    endloop
  endfacet
  facet normal 0 0 1
    outer loop
      vertex -5 0 10
      vertex -1.4 0 10
      vertex -4.75528 1.54508 10
    endloop
  endfacet
  facet normal 0 0 1
    outer loop
      vertex -1.33148 -0.432623 10
      vertex -4.75528 -1.54508 10
      vertex -4.04508 -2.93893 10
    endloop
  endfacet
  facet normal 0 0 1
    outer loop
      vertex -1.4 0 10
      vertex -5 0 10
      vertex -4.75528 -1.54508 10
    endloop
  endfacet
  facet normal -0.451792 0.886692 0.0982905
    outer loop
      vertex -1.8541 5.70634 0
      vertex -3.52671 4.8541 0
      vertex -2.93893 4.04508 10
    endloop
  endfacet
  facet normal -0.886692 -0.451792 0.0982905
    outer loop
      vertex -4.04508 -2.93893 10
      vertex -5.70634 -1.8541 0
      vertex -4.8541 -3.52671 0
    endloop
  endfacet
  facet normal -0.886692 -0.451792 0.0982905
    outer loop
      vertex -4.75528 -1.54508 10
      vertex -5.70634 -1.8541 0
      vertex -4.04508 -2.93893 10
    endloop
  endfacet
  facet normal 0.703683 -0.703683 0.0982906
    outer loop
      vertex 2.93893 -4.04508 10
      vertex 4.8541 -3.52671 0
      vertex 4.04508 -2.93893 10
    endloop
  endfacet
  facet normal 0.703683 -0.703683 0.0982906
    outer loop
      vertex 4.8541 -3.52671 0
      vertex 2.93893 -4.04508 10
      vertex 3.52671 -4.8541 0
    endloop
  endfacet
  facet normal 0.451792 -0.886692 0.0982905
    outer loop
      vertex 2.93893 -4.04508 10
      vertex 1.54508 -4.75528 10
      vertex 1.8541 -5.70634 0
    endloop
  endfacet
  facet normal 0.886692 0.451792 0.0982905
    outer loop
      vertex 5.70634 1.8541 0
      vertex 4.04508 2.93893 10
      vertex 4.75528 1.54508 10
    endloop
  endfacet
  facet normal 0.451792 0.886692 0.0982905
    outer loop
      vertex 3.52671 4.8541 0
      vertex 1.8541 5.70634 0
      vertex 2.93893 4.04508 10
    endloop
  endfacet
  facet normal -0.886692 0.451792 0.0982905
    outer loop
      vertex -4.04508 2.93893 10
      vertex -5.70634 1.8541 0
      vertex -4.75528 1.54508 10
    endloop
  endfacet
  facet normal -0.982906 0.155677 0.0982906
    outer loop
      vertex -5.70634 1.8541 0
      vertex -6 0 0
      vertex -4.75528 1.54508 10
    endloop
  endfacet
  facet normal -0.155677 0.982906 0.0982906
    outer loop
      vertex 0 6 0
      vertex -1.8541 5.70634 0
      vertex -1.54508 4.75528 10
    endloop
  endfacet
  facet normal -0.451792 0.886692 0.0982905
    outer loop
      vertex -1.8541 5.70634 0
      vertex -2.93893 4.04508 10
      vertex -1.54508 4.75528 10
    endloop
  endfacet
  facet normal -0.982906 -0.155677 0.0982906
    outer loop
      vertex -5 0 10
      vertex -6 0 0
      vertex -4.75528 -1.54508 10
    endloop
  endfacet
  facet normal -0.155677 -0.982906 0.0982906
    outer loop
      vertex -1.54508 -4.75528 10
      vertex -1.8541 -5.70634 0
      vertex 0 -6 0
    endloop
  endfacet
  facet normal 0.155677 -0.982906 0.0982906
    outer loop
      vertex 1.54508 -4.75528 10
      vertex 0 -6 0
      vertex 1.8541 -5.70634 0
    endloop
  endfacet
  facet normal 0.451792 -0.886692 0.0982905
    outer loop
      vertex 2.93893 -4.04508 10
      vertex 1.8541 -5.70634 0
      vertex 3.52671 -4.8541 0
    endloop
  endfacet
  facet normal 0.886692 -0.451792 0.0982905
    outer loop
      vertex 5.70634 -1.8541 0
      vertex 4.04508 -2.93893 10
      vertex 4.8541 -3.52671 0
    endloop
  endfacet
  facet normal 0.982906 -0.155677 0.0982906
    outer loop
      vertex 6 0 0
      vertex 4.75528 -1.54508 10
      vertex 5.70634 -1.8541 0
    endloop
  endfacet
  facet normal 0.982906 -0.155677 0.0982906
    outer loop
      vertex 5 0 10
      vertex 4.75528 -1.54508 10
      vertex 6 0 0
    endloop
  endfacet
  facet normal 0.451792 0.886692 0.0982905
    outer loop
      vertex 1.8541 5.70634 0
      vertex 1.54508 4.75528 10
      vertex 2.93893 4.04508 10
    endloop
  endfacet
  facet normal 0.155677 0.982906 0.0982906
    outer loop
      vertex 1.8541 5.70634 0
      vertex 0 6 0
      vertex 1.54508 4.75528 10
    endloop
  endfacet
  facet normal -0.703683 0.703683 0.0982906
    outer loop
      vertex -4.8541 3.52671 0
      vertex -2.93893 4.04508 10
      vertex -3.52671 4.8541 0
    endloop
  endfacet
  facet normal -0.703683 0.703683 0.0982906
    outer loop
      vertex -2.93893 4.04508 10
      vertex -4.8541 3.52671 0
      vertex -4.04508 2.93893 10
    endloop
  endfacet
  facet normal -0.155677 0.982906 0.0982906
    outer loop
      vertex 0 6 0
      vertex -1.54508 4.75528 10
      vertex 0 5 10
    endloop
  endfacet
  facet normal -0.451792 -0.886692 0.0982905
    outer loop
      vertex -2.93893 -4.04508 10
      vertex -3.52671 -4.8541 0
      vertex -1.8541 -5.70634 0
    endloop
  endfacet
  facet normal -0.703683 -0.703683 0.0982906
    outer loop
      vertex -4.8541 -3.52671 0
      vertex -2.93893 -4.04508 10
      vertex -4.04508 -2.93893 10
    endloop
  endfacet
  facet normal -0.703683 -0.703683 0.0982906
    outer loop
      vertex -2.93893 -4.04508 10
      vertex -4.8541 -3.52671 0
      vertex -3.52671 -4.8541 0
    endloop
  endfacet
  facet normal 0.155677 -0.982906 0.0982906
    outer loop
      vertex 0 -5 10
      vertex 0 -6 0
      vertex 1.54508 -4.75528 10
    endloop
  endfacet
  facet normal -0.886692 0.451792 0.0982905
    outer loop
      vertex -4.8541 3.52671 0
      vertex -5.70634 1.8541 0
      vertex -4.04508 2.93893 10
    endloop
  endfacet
  facet normal -0.451792 -0.886692 0.0982905
    outer loop
      vertex -1.54508 -4.75528 10
      vertex -2.93893 -4.04508 10
      vertex -1.8541 -5.70634 0
    endloop
  endfacet
  facet normal -0.987688 -0.156434 0
    outer loop
      vertex 1.4 0 0
      vertex 1.33148 0.432623 10
      vertex 1.33148 0.432623 0
    endloop
  endfacet
  facet normal -0.987688 -0.156434 0
    outer loop
      vertex 1.33148 0.432623 10
      vertex 1.4 0 0
      vertex 1.4 0 10
    endloop
  endfacet
  facet normal 0.987688 -0.156434 0
    outer loop
      vertex -1.4 0 10
      vertex -1.33148 0.432623 0
      vertex -1.33148 0.432623 10
    endloop
  endfacet
  facet normal 0.987688 -0.156434 0
    outer loop
      vertex -1.33148 0.432623 0
      vertex -1.4 0 10
      vertex -1.4 0 0
    endloop
  endfacet
  facet normal 0.156434 -0.987688 0
    outer loop
      vertex -0.432623 1.33148 0
      vertex 0 1.4 10
      vertex -0.432623 1.33148 10
    endloop
  endfacet
  facet normal 0.156434 -0.987688 0
    outer loop
      vertex 0 1.4 10
      vertex -0.432623 1.33148 0
      vertex 0 1.4 0
    endloop
  endfacet
  facet normal -0.156434 0.987688 0
    outer loop
      vertex 0.432623 -1.33148 0
      vertex 0 -1.4 10
      vertex 0.432623 -1.33148 10
    endloop
  endfacet
  facet normal -0.156434 0.987688 0
    outer loop
      vertex 0 -1.4 10
      vertex 0.432623 -1.33148 0
      vertex 0 -1.4 0
    endloop
  endfacet
  facet normal -0.45399 0.891007 0
    outer loop
      vertex 0.822899 -1.13262 0
      vertex 0.432623 -1.33148 10
      vertex 0.822899 -1.13262 10
    endloop
  endfacet
  facet normal -0.45399 0.891007 0
    outer loop
      vertex 0.432623 -1.33148 10
      vertex 0.822899 -1.13262 0
      vertex 0.432623 -1.33148 0
    endloop
  endfacet
  facet normal -0.707107 -0.707107 0
    outer loop
      vertex 1.13262 0.822899 0
      vertex 0.822899 1.13262 10
      vertex 0.822899 1.13262 0
    endloop
  endfacet
  facet normal -0.707107 -0.707107 0
    outer loop
      vertex 0.822899 1.13262 10
      vertex 1.13262 0.822899 0
      vertex 1.13262 0.822899 10
    endloop
  endfacet
  facet normal -0.891007 -0.45399 0
    outer loop
      vertex 1.33148 0.432623 0
      vertex 1.13262 0.822899 10
      vertex 1.13262 0.822899 0
    endloop
  endfacet
  facet normal -0.891007 -0.45399 0
    outer loop
      vertex 1.13262 0.822899 10
      vertex 1.33148 0.432623 0
      vertex 1.33148 0.432623 10
    endloop
  endfacet
  facet normal -0.45399 -0.891007 0
    outer loop
      vertex 0.432623 1.33148 0
      vertex 0.822899 1.13262 10
      vertex 0.432623 1.33148 10
    endloop
  endfacet
  facet normal -0.45399 -0.891007 -0
    outer loop
      vertex 0.822899 1.13262 10
      vertex 0.432623 1.33148 0
      vertex 0.822899 1.13262 0
    endloop
  endfacet
  facet normal 0.707107 -0.707107 0
    outer loop
      vertex -1.13262 0.822899 10
      vertex -0.822899 1.13262 0
      vertex -0.822899 1.13262 10
    endloop
  endfacet
  facet normal 0.707107 -0.707107 0
    outer loop
      vertex -0.822899 1.13262 0
      vertex -1.13262 0.822899 10
      vertex -1.13262 0.822899 0
    endloop
  endfacet
  facet normal 0.891007 -0.45399 0
    outer loop
      vertex -1.33148 0.432623 10
      vertex -1.13262 0.822899 0
      vertex -1.13262 0.822899 10
    endloop
  endfacet
  facet normal 0.891007 -0.45399 0
    outer loop
      vertex -1.13262 0.822899 0
      vertex -1.33148 0.432623 10
      vertex -1.33148 0.432623 0
    endloop
  endfacet
  facet normal 0.45399 -0.891007 0
    outer loop
      vertex -0.822899 1.13262 0
      vertex -0.432623 1.33148 10
      vertex -0.822899 1.13262 10
    endloop
  endfacet
  facet normal 0.45399 -0.891007 0
    outer loop
      vertex -0.432623 1.33148 10
      vertex -0.822899 1.13262 0
      vertex -0.432623 1.33148 0
    endloop
  endfacet
  facet normal 0.707107 0.707107 0
    outer loop
      vertex -0.822899 -1.13262 10
      vertex -1.13262 -0.822899 0
      vertex -1.13262 -0.822899 10
    endloop
  endfacet
  facet normal 0.707107 0.707107 0
    outer loop
      vertex -1.13262 -0.822899 0
      vertex -0.822899 -1.13262 10
      vertex -0.822899 -1.13262 0
    endloop
  endfacet
  facet normal -0.891007 0.45399 0
    outer loop
      vertex 1.13262 -0.822899 0
      vertex 1.33148 -0.432623 10
      vertex 1.33148 -0.432623 0
    endloop
  endfacet
  facet normal -0.891007 0.45399 0
    outer loop
      vertex 1.33148 -0.432623 10
      vertex 1.13262 -0.822899 0
      vertex 1.13262 -0.822899 10
    endloop
  endfacet
  facet normal -0.156434 -0.987688 0
    outer loop
      vertex 0 1.4 0
      vertex 0.432623 1.33148 10
      vertex 0 1.4 10
    endloop
  endfacet
  facet normal -0.156434 -0.987688 -0
    outer loop
      vertex 0.432623 1.33148 10
      vertex 0 1.4 0
      vertex 0.432623 1.33148 0
    endloop
  endfacet
  facet normal -0.987688 0.156434 0
    outer loop
      vertex 1.33148 -0.432623 0
      vertex 1.4 0 10
      vertex 1.4 0 0
    endloop
  endfacet
  facet normal -0.987688 0.156434 0
    outer loop
      vertex 1.4 0 10
      vertex 1.33148 -0.432623 0
      vertex 1.33148 -0.432623 10
    endloop
  endfacet
  facet normal 0.987688 0.156434 0
    outer loop
      vertex -1.33148 -0.432623 10
      vertex -1.4 0 0
      vertex -1.4 0 10
    endloop
  endfacet
  facet normal 0.987688 0.156434 0
    outer loop
      vertex -1.4 0 0
      vertex -1.33148 -0.432623 10
      vertex -1.33148 -0.432623 0
    endloop
  endfacet
  facet normal -0.707107 0.707107 0
    outer loop
      vertex 0.822899 -1.13262 0
      vertex 1.13262 -0.822899 10
      vertex 1.13262 -0.822899 0
    endloop
  endfacet
  facet normal -0.707107 0.707107 0
    outer loop
      vertex 1.13262 -0.822899 10
      vertex 0.822899 -1.13262 0
      vertex 0.822899 -1.13262 10
    endloop
  endfacet
  facet normal 0.45399 0.891007 -0
    outer loop
      vertex -0.432623 -1.33148 0
      vertex -0.822899 -1.13262 10
      vertex -0.432623 -1.33148 10
    endloop
  endfacet
  facet normal 0.45399 0.891007 0
    outer loop
      vertex -0.822899 -1.13262 10
      vertex -0.432623 -1.33148 0
      vertex -0.822899 -1.13262 0
    endloop
  endfacet
  facet normal 0.156434 0.987688 -0
    outer loop
      vertex 0 -1.4 0
      vertex -0.432623 -1.33148 10
      vertex 0 -1.4 10
    endloop
  endfacet
  facet normal 0.156434 0.987688 0
    outer loop
      vertex -0.432623 -1.33148 10
      vertex 0 -1.4 0
      vertex -0.432623 -1.33148 0
    endloop
  endfacet
  facet normal 0.891007 0.45399 0
    outer loop
      vertex -1.13262 -0.822899 10
      vertex -1.33148 -0.432623 0
      vertex -1.33148 -0.432623 10
    endloop
  endfacet
  facet normal 0.891007 0.45399 0
    outer loop
      vertex -1.33148 -0.432623 0
      vertex -1.13262 -0.822899 10
      vertex -1.13262 -0.822899 0
    endloop
  endfacet
endsolid OpenSCAD_Model
