solid OpenSCAD_Model
  facet normal 0.994522 0.104529 0
    outer loop
      vertex 6.5 0 7.5
      vertex 6.35796 1.35143 3
      vertex 6.35796 1.35143 7.5
    endloop
  endfacet
  facet normal 0.994522 0.104529 0
    outer loop
      vertex 6.35796 1.35143 3
      vertex 6.5 0 7.5
      vertex 6.5 0 3
    endloop
  endfacet
  facet normal -0.994522 0.104529 0
    outer loop
      vertex -6.5 0 3
      vertex -6.35796 1.35143 7.5
      vertex -6.35796 1.35143 3
    endloop
  endfacet
  facet normal -0.994522 0.104529 0
    outer loop
      vertex -6.35796 1.35143 7.5
      vertex -6.5 0 3
      vertex -6.5 0 7.5
    endloop
  endfacet
  facet normal 0 1 -0
    outer loop
      vertex 0.679435 6.46439 3
      vertex -0.679435 6.46439 7.5
      vertex 0.679435 6.46439 7.5
    endloop
  endfacet
  facet normal 0 1 0
    outer loop
      vertex -0.679435 6.46439 7.5
      vertex 0.679435 6.46439 3
      vertex -0.679435 6.46439 3
    endloop
  endfacet
  facet normal 0 -1 0
    outer loop
      vertex -0.679435 -6.46439 3
      vertex 0.679435 -6.46439 7.5
      vertex -0.679435 -6.46439 7.5
    endloop
  endfacet
  facet normal 0 -1 -0
    outer loop
      vertex 0.679435 -6.46439 7.5
      vertex -0.679435 -6.46439 3
      vertex 0.679435 -6.46439 3
    endloop
  endfacet
  facet normal 0.587786 0.809017 -0
    outer loop
      vertex 4.34935 4.83044 3
      vertex 3.25 5.62916 7.5
      vertex 4.34935 4.83044 7.5
    endloop
  endfacet
  facet normal 0.587786 0.809017 0
    outer loop
      vertex 3.25 5.62916 7.5
      vertex 4.34935 4.83044 3
      vertex 3.25 5.62916 3
    endloop
  endfacet
  facet normal -0.743145 0.669131 0
    outer loop
      vertex -5.25861 3.8206 3
      vertex -4.34935 4.83044 7.5
      vertex -4.34935 4.83044 3
    endloop
  endfacet
  facet normal -0.743145 0.669131 0
    outer loop
      vertex -4.34935 4.83044 7.5
      vertex -5.25861 3.8206 3
      vertex -5.25861 3.8206 7.5
    endloop
  endfacet
  facet normal -0.866025 0.5 0
    outer loop
      vertex -5.93804 2.64379 3
      vertex -5.25861 3.8206 7.5
      vertex -5.25861 3.8206 3
    endloop
  endfacet
  facet normal -0.866025 0.5 0
    outer loop
      vertex -5.25861 3.8206 7.5
      vertex -5.93804 2.64379 3
      vertex -5.93804 2.64379 7.5
    endloop
  endfacet
  facet normal -0.406737 0.913546 0
    outer loop
      vertex -2.00861 6.18187 3
      vertex -3.25 5.62916 7.5
      vertex -2.00861 6.18187 7.5
    endloop
  endfacet
  facet normal -0.406737 0.913546 0
    outer loop
      vertex -3.25 5.62916 7.5
      vertex -2.00861 6.18187 3
      vertex -3.25 5.62916 3
    endloop
  endfacet
  facet normal 0.951056 -0.309017 0
    outer loop
      vertex 5.93804 -2.64379 7.5
      vertex 6.35796 -1.35143 3
      vertex 6.35796 -1.35143 7.5
    endloop
  endfacet
  facet normal 0.951056 -0.309017 0
    outer loop
      vertex 6.35796 -1.35143 3
      vertex 5.93804 -2.64379 7.5
      vertex 5.93804 -2.64379 3
    endloop
  endfacet
  facet normal 0.866025 0.5 0
    outer loop
      vertex 5.93804 2.64379 7.5
      vertex 5.25861 3.8206 3
      vertex 5.25861 3.8206 7.5
    endloop
  endfacet
  facet normal 0.866025 0.5 0
    outer loop
      vertex 5.25861 3.8206 3
      vertex 5.93804 2.64379 7.5
      vertex 5.93804 2.64379 3
    endloop
  endfacet
  facet normal 0.951056 0.309017 0
    outer loop
      vertex 6.35796 1.35143 7.5
      vertex 5.93804 2.64379 3
      vertex 5.93804 2.64379 7.5
    endloop
  endfacet
  facet normal 0.951056 0.309017 0
    outer loop
      vertex 5.93804 2.64379 3
      vertex 6.35796 1.35143 7.5
      vertex 6.35796 1.35143 3
    endloop
  endfacet
  facet normal 0.743145 0.669131 0
    outer loop
      vertex 5.25861 3.8206 7.5
      vertex 4.34935 4.83044 3
      vertex 4.34935 4.83044 7.5
    endloop
  endfacet
  facet normal 0.743145 0.669131 0
    outer loop
      vertex 4.34935 4.83044 3
      vertex 5.25861 3.8206 7.5
      vertex 5.25861 3.8206 3
    endloop
  endfacet
  facet normal 0.207912 0.978148 -0
    outer loop
      vertex 2.00861 6.18187 3
      vertex 0.679435 6.46439 7.5
      vertex 2.00861 6.18187 7.5
    endloop
  endfacet
  facet normal 0.207912 0.978148 0
    outer loop
      vertex 0.679435 6.46439 7.5
      vertex 2.00861 6.18187 3
      vertex 0.679435 6.46439 3
    endloop
  endfacet
  facet normal 0.406736 0.913546 -0
    outer loop
      vertex 3.25 5.62916 3
      vertex 2.00861 6.18187 7.5
      vertex 3.25 5.62916 7.5
    endloop
  endfacet
  facet normal 0.406736 0.913546 0
    outer loop
      vertex 2.00861 6.18187 7.5
      vertex 3.25 5.62916 3
      vertex 2.00861 6.18187 3
    endloop
  endfacet
  facet normal -0.951056 0.309017 0
    outer loop
      vertex -6.35796 1.35143 3
      vertex -5.93804 2.64379 7.5
      vertex -5.93804 2.64379 3
    endloop
  endfacet
  facet normal -0.951056 0.309017 0
    outer loop
      vertex -5.93804 2.64379 7.5
      vertex -6.35796 1.35143 3
      vertex -6.35796 1.35143 7.5
    endloop
  endfacet
  facet normal 0 0 1
    outer loop
      vertex 5 0 7.5
      vertex 6.5 0 7.5
      vertex 6.35796 1.35143 7.5
    endloop
  endfacet
  facet normal 0 0 1
    outer loop
      vertex 4.89074 1.03956 7.5
      vertex 6.35796 1.35143 7.5
      vertex 5.93804 2.64379 7.5
    endloop
  endfacet
  facet normal 0 0 1
    outer loop
      vertex 6.5 0 7.5
      vertex 5 0 7.5
      vertex 6.35796 -1.35143 7.5
    endloop
  endfacet
  facet normal 0 0 1
    outer loop
      vertex 4.56773 2.03368 7.5
      vertex 5.93804 2.64379 7.5
      vertex 5.25861 3.8206 7.5
    endloop
  endfacet
  facet normal -0 0 1
    outer loop
      vertex 4.89074 -1.03956 7.5
      vertex 6.35796 -1.35143 7.5
      vertex 5 0 7.5
    endloop
  endfacet
  facet normal 0 0 1
    outer loop
      vertex 6.35796 -1.35143 7.5
      vertex 4.89074 -1.03956 7.5
      vertex 5.93804 -2.64379 7.5
    endloop
  endfacet
  facet normal 0 0 1
    outer loop
      vertex 6.35796 1.35143 7.5
      vertex 4.89074 1.03956 7.5
      vertex 5 0 7.5
    endloop
  endfacet
  facet normal 0 0 1
    outer loop
      vertex 5.93804 2.64379 7.5
      vertex 4.56773 2.03368 7.5
      vertex 4.89074 1.03956 7.5
    endloop
  endfacet
  facet normal 0 0 1
    outer loop
      vertex 4.04508 2.93893 7.5
      vertex 5.25861 3.8206 7.5
      vertex 4.34935 4.83044 7.5
    endloop
  endfacet
  facet normal 0 0 1
    outer loop
      vertex 5.25861 3.8206 7.5
      vertex 4.04508 2.93893 7.5
      vertex 4.56773 2.03368 7.5
    endloop
  endfacet
  facet normal 0 0 1
    outer loop
      vertex 4.34935 4.83044 7.5
      vertex 3.34565 3.71572 7.5
      vertex 4.04508 2.93893 7.5
    endloop
  endfacet
  facet normal 0 0 1
    outer loop
      vertex 3.25 5.62916 7.5
      vertex 3.34565 3.71572 7.5
      vertex 4.34935 4.83044 7.5
    endloop
  endfacet
  facet normal 0 0 1
    outer loop
      vertex 3.25 5.62916 7.5
      vertex 2.5 4.33013 7.5
      vertex 3.34565 3.71572 7.5
    endloop
  endfacet
  facet normal 0 0 1
    outer loop
      vertex 2.00861 6.18187 7.5
      vertex 2.5 4.33013 7.5
      vertex 3.25 5.62916 7.5
    endloop
  endfacet
  facet normal 0 0 1
    outer loop
      vertex 2.00861 6.18187 7.5
      vertex 1.54508 4.75528 7.5
      vertex 2.5 4.33013 7.5
    endloop
  endfacet
  facet normal 0 0 1
    outer loop
      vertex 0.679435 6.46439 7.5
      vertex 1.54508 4.75528 7.5
      vertex 2.00861 6.18187 7.5
    endloop
  endfacet
  facet normal 0 0 1
    outer loop
      vertex 0.679435 6.46439 7.5
      vertex 0.522642 4.97261 7.5
      vertex 1.54508 4.75528 7.5
    endloop
  endfacet
  facet normal 0 0 1
    outer loop
      vertex 0.679435 6.46439 7.5
      vertex -0.522642 4.97261 7.5
      vertex 0.522642 4.97261 7.5
    endloop
  endfacet
  facet normal -0 0 1
    outer loop
      vertex -0.679435 6.46439 7.5
      vertex -0.522642 4.97261 7.5
      vertex 0.679435 6.46439 7.5
    endloop
  endfacet
  facet normal 0 0 1
    outer loop
      vertex -0.679435 6.46439 7.5
      vertex -1.54508 4.75528 7.5
      vertex -0.522642 4.97261 7.5
    endloop
  endfacet
  facet normal -0 0 1
    outer loop
      vertex -2.00861 6.18187 7.5
      vertex -1.54508 4.75528 7.5
      vertex -0.679435 6.46439 7.5
    endloop
  endfacet
  facet normal 0 0 1
    outer loop
      vertex -2.00861 6.18187 7.5
      vertex -2.5 4.33013 7.5
      vertex -1.54508 4.75528 7.5
    endloop
  endfacet
  facet normal -0 0 1
    outer loop
      vertex -3.25 5.62916 7.5
      vertex -2.5 4.33013 7.5
      vertex -2.00861 6.18187 7.5
    endloop
  endfacet
  facet normal 0 0 1
    outer loop
      vertex -3.25 5.62916 7.5
      vertex -3.34565 3.71572 7.5
      vertex -2.5 4.33013 7.5
    endloop
  endfacet
  facet normal -0 0 1
    outer loop
      vertex -4.34935 4.83044 7.5
      vertex -3.34565 3.71572 7.5
      vertex -3.25 5.62916 7.5
    endloop
  endfacet
  facet normal 0 0 1
    outer loop
      vertex -3.34565 3.71572 7.5
      vertex -4.34935 4.83044 7.5
      vertex -4.04508 2.93893 7.5
    endloop
  endfacet
  facet normal -0 0 1
    outer loop
      vertex -5.25861 3.8206 7.5
      vertex -4.04508 2.93893 7.5
      vertex -4.34935 4.83044 7.5
    endloop
  endfacet
  facet normal 0 0 1
    outer loop
      vertex -4.04508 2.93893 7.5
      vertex -5.25861 3.8206 7.5
      vertex -4.56773 2.03368 7.5
    endloop
  endfacet
  facet normal 0 0 1
    outer loop
      vertex -4.56773 2.03368 7.5
      vertex -5.93804 2.64379 7.5
      vertex -4.89074 1.03956 7.5
    endloop
  endfacet
  facet normal -0 0 1
    outer loop
      vertex -5.93804 2.64379 7.5
      vertex -4.56773 2.03368 7.5
      vertex -5.25861 3.8206 7.5
    endloop
  endfacet
  facet normal -0 0 1
    outer loop
      vertex 4.56773 -2.03368 7.5
      vertex 5.93804 -2.64379 7.5
      vertex 4.89074 -1.03956 7.5
    endloop
  endfacet
  facet normal 0 0 1
    outer loop
      vertex 5.93804 -2.64379 7.5
      vertex 4.56773 -2.03368 7.5
      vertex 5.25861 -3.8206 7.5
    endloop
  endfacet
  facet normal -0 0 1
    outer loop
      vertex 4.04508 -2.93893 7.5
      vertex 5.25861 -3.8206 7.5
      vertex 4.56773 -2.03368 7.5
    endloop
  endfacet
  facet normal 0 0 1
    outer loop
      vertex 5.25861 -3.8206 7.5
      vertex 4.04508 -2.93893 7.5
      vertex 4.34935 -4.83044 7.5
    endloop
  endfacet
  facet normal -0 0 1
    outer loop
      vertex 3.34565 -3.71572 7.5
      vertex 4.34935 -4.83044 7.5
      vertex 4.04508 -2.93893 7.5
    endloop
  endfacet
  facet normal 0 0 1
    outer loop
      vertex 3.34565 -3.71572 7.5
      vertex 3.25 -5.62916 7.5
      vertex 4.34935 -4.83044 7.5
    endloop
  endfacet
  facet normal -0 0 1
    outer loop
      vertex 2.5 -4.33013 7.5
      vertex 3.25 -5.62916 7.5
      vertex 3.34565 -3.71572 7.5
    endloop
  endfacet
  facet normal 0 0 1
    outer loop
      vertex 2.5 -4.33013 7.5
      vertex 2.00861 -6.18187 7.5
      vertex 3.25 -5.62916 7.5
    endloop
  endfacet
  facet normal -0 0 1
    outer loop
      vertex 1.54508 -4.75528 7.5
      vertex 2.00861 -6.18187 7.5
      vertex 2.5 -4.33013 7.5
    endloop
  endfacet
  facet normal 0 0 1
    outer loop
      vertex 1.54508 -4.75528 7.5
      vertex 0.679435 -6.46439 7.5
      vertex 2.00861 -6.18187 7.5
    endloop
  endfacet
  facet normal -0 0 1
    outer loop
      vertex 0.522642 -4.97261 7.5
      vertex 0.679435 -6.46439 7.5
      vertex 1.54508 -4.75528 7.5
    endloop
  endfacet
  facet normal -0 0 1
    outer loop
      vertex -0.522642 -4.97261 7.5
      vertex 0.679435 -6.46439 7.5
      vertex 0.522642 -4.97261 7.5
    endloop
  endfacet
  facet normal 0 0 1
    outer loop
      vertex -0.522642 -4.97261 7.5
      vertex -0.679435 -6.46439 7.5
      vertex 0.679435 -6.46439 7.5
    endloop
  endfacet
  facet normal 0 0 1
    outer loop
      vertex -1.54508 -4.75528 7.5
      vertex -0.679435 -6.46439 7.5
      vertex -0.522642 -4.97261 7.5
    endloop
  endfacet
  facet normal 0 0 1
    outer loop
      vertex -1.54508 -4.75528 7.5
      vertex -2.00861 -6.18187 7.5
      vertex -0.679435 -6.46439 7.5
    endloop
  endfacet
  facet normal 0 0 1
    outer loop
      vertex -2.5 -4.33013 7.5
      vertex -2.00861 -6.18187 7.5
      vertex -1.54508 -4.75528 7.5
    endloop
  endfacet
  facet normal 0 0 1
    outer loop
      vertex -2.5 -4.33013 7.5
      vertex -3.25 -5.62916 7.5
      vertex -2.00861 -6.18187 7.5
    endloop
  endfacet
  facet normal 0 0 1
    outer loop
      vertex -3.34565 -3.71572 7.5
      vertex -3.25 -5.62916 7.5
      vertex -2.5 -4.33013 7.5
    endloop
  endfacet
  facet normal 0 0 1
    outer loop
      vertex -4.34935 -4.83044 7.5
      vertex -3.34565 -3.71572 7.5
      vertex -4.04508 -2.93893 7.5
    endloop
  endfacet
  facet normal 0 0 1
    outer loop
      vertex -3.34565 -3.71572 7.5
      vertex -4.34935 -4.83044 7.5
      vertex -3.25 -5.62916 7.5
    endloop
  endfacet
  facet normal 0 0 1
    outer loop
      vertex -5.25861 -3.8206 7.5
      vertex -4.04508 -2.93893 7.5
      vertex -4.56773 -2.03368 7.5
    endloop
  endfacet
  facet normal 0 0 1
    outer loop
      vertex -5.93804 -2.64379 7.5
      vertex -4.56773 -2.03368 7.5
      vertex -4.89074 -1.03956 7.5
    endloop
  endfacet
  facet normal 0 0 1
    outer loop
      vertex -4.04508 -2.93893 7.5
      vertex -5.25861 -3.8206 7.5
      vertex -4.34935 -4.83044 7.5
    endloop
  endfacet
  facet normal 0 0 1
    outer loop
      vertex -6.35796 -1.35143 7.5
      vertex -4.89074 -1.03956 7.5
      vertex -5 0 7.5
    endloop
  endfacet
  facet normal -0 0 1
    outer loop
      vertex -6.35796 1.35143 7.5
      vertex -4.89074 1.03956 7.5
      vertex -5.93804 2.64379 7.5
    endloop
  endfacet
  facet normal 0 0 1
    outer loop
      vertex -4.89074 1.03956 7.5
      vertex -6.35796 1.35143 7.5
      vertex -5 0 7.5
    endloop
  endfacet
  facet normal 0 0 1
    outer loop
      vertex -4.56773 -2.03368 7.5
      vertex -5.93804 -2.64379 7.5
      vertex -5.25861 -3.8206 7.5
    endloop
  endfacet
  facet normal 0 0 1
    outer loop
      vertex -6.5 0 7.5
      vertex -5 0 7.5
      vertex -6.35796 1.35143 7.5
    endloop
  endfacet
  facet normal 0 0 1
    outer loop
      vertex -4.89074 -1.03956 7.5
      vertex -6.35796 -1.35143 7.5
      vertex -5.93804 -2.64379 7.5
    endloop
  endfacet
  facet normal 0 0 1
    outer loop
      vertex -5 0 7.5
      vertex -6.5 0 7.5
      vertex -6.35796 -1.35143 7.5
    endloop
  endfacet
  facet normal -0.587785 0.809017 0
    outer loop
      vertex -3.25 5.62916 3
      vertex -4.34935 4.83044 7.5
      vertex -3.25 5.62916 7.5
    endloop
  endfacet
  facet normal -0.587785 0.809017 0
    outer loop
      vertex -4.34935 4.83044 7.5
      vertex -3.25 5.62916 3
      vertex -4.34935 4.83044 3
    endloop
  endfacet
  facet normal -0.207912 0.978148 0
    outer loop
      vertex -0.679435 6.46439 3
      vertex -2.00861 6.18187 7.5
      vertex -0.679435 6.46439 7.5
    endloop
  endfacet
  facet normal -0.207912 0.978148 0
    outer loop
      vertex -2.00861 6.18187 7.5
      vertex -0.679435 6.46439 3
      vertex -2.00861 6.18187 3
    endloop
  endfacet
  facet normal 0.994522 -0.104529 0
    outer loop
      vertex 6.35796 -1.35143 7.5
      vertex 6.5 0 3
      vertex 6.5 0 7.5
    endloop
  endfacet
  facet normal 0.994522 -0.104529 0
    outer loop
      vertex 6.5 0 3
      vertex 6.35796 -1.35143 7.5
      vertex 6.35796 -1.35143 3
    endloop
  endfacet
  facet normal -0 0 1
    outer loop
      vertex -1.56793 14.9178 3
      vertex -0.614744 14.2658 3
      vertex -0.546218 14.9178 3
    endloop
  endfacet
  facet normal 0 0 1
    outer loop
      vertex -0.500019 13.1743 3
      vertex -4.63525 14.2658 3
      vertex -0.160858 12.1305 3
    endloop
  endfacet
  facet normal 0 0 1
    outer loop
      vertex -0.160858 12.1305 3
      vertex -2.00861 6.18187 3
      vertex -0.679435 6.46439 3
    endloop
  endfacet
  facet normal 0 0 1
    outer loop
      vertex -6.99998 9.90831 3
      vertex -0.160858 12.1305 3
      vertex -4.63525 14.2658 3
    endloop
  endfacet
  facet normal 0 0 1
    outer loop
      vertex -0.160858 12.1305 3
      vertex -6.99998 9.90831 3
      vertex -2.00861 6.18187 3
    endloop
  endfacet
  facet normal -0 -0 1
    outer loop
      vertex -6.88525 8.81678 3
      vertex -2.00861 6.18187 3
      vertex -6.99998 9.90831 3
    endloop
  endfacet
  facet normal -0 0 1
    outer loop
      vertex -6.99998 7.72524 3
      vertex -3.25 5.62916 3
      vertex -6.88525 8.81678 3
    endloop
  endfacet
  facet normal 0 0 1
    outer loop
      vertex -3.25 5.62916 3
      vertex -6.99998 7.72524 3
      vertex -4.34935 4.83044 3
    endloop
  endfacet
  facet normal -0 0 1
    outer loop
      vertex -7.33914 6.68141 3
      vertex -4.34935 4.83044 3
      vertex -6.99998 7.72524 3
    endloop
  endfacet
  facet normal -0 0 1
    outer loop
      vertex -7.88792 5.73091 3
      vertex -5.25861 3.8206 3
      vertex -7.33914 6.68141 3
    endloop
  endfacet
  facet normal 0 0 1
    outer loop
      vertex -4.34935 4.83044 3
      vertex -7.33914 6.68141 3
      vertex -5.25861 3.8206 3
    endloop
  endfacet
  facet normal 0 0 1
    outer loop
      vertex -2.00861 6.18187 3
      vertex -6.88525 8.81678 3
      vertex -3.25 5.62916 3
    endloop
  endfacet
  facet normal 0 0 1
    outer loop
      vertex -4.63525 14.2658 3
      vertex -7.33914 10.9521 3
      vertex -6.99998 9.90831 3
    endloop
  endfacet
  facet normal -0 0 1
    outer loop
      vertex -7.5 12.9904 3
      vertex -7.33914 10.9521 3
      vertex -4.63525 14.2658 3
    endloop
  endfacet
  facet normal 0 0 1
    outer loop
      vertex -7.5 12.9904 3
      vertex -7.88792 11.9027 3
      vertex -7.33914 10.9521 3
    endloop
  endfacet
  facet normal 0 -0 1
    outer loop
      vertex -7.88792 11.9027 3
      vertex -7.5 12.9904 3
      vertex -8.32658 12.3898 3
    endloop
  endfacet
  facet normal 0 0 1
    outer loop
      vertex 10.2039 -2.13537 3
      vertex 5.93804 -2.64379 3
      vertex 10.7527 -3.08587 3
    endloop
  endfacet
  facet normal 0 0 1
    outer loop
      vertex 5.25861 -3.8206 3
      vertex 10.7527 -3.08587 3
      vertex 5.93804 -2.64379 3
    endloop
  endfacet
  facet normal 0 0 1
    outer loop
      vertex 10.7527 -3.08587 3
      vertex 5.25861 -3.8206 3
      vertex 7.26025 -9.71921 3
    endloop
  endfacet
  facet normal 0 0 1
    outer loop
      vertex 7.26025 -9.71921 3
      vertex 5.25861 -3.8206 3
      vertex 6.25759 -9.2728 3
    endloop
  endfacet
  facet normal -0 0 1
    outer loop
      vertex 4.34935 -4.83044 3
      vertex 6.25759 -9.2728 3
      vertex 5.25861 -3.8206 3
    endloop
  endfacet
  facet normal 0 0 1
    outer loop
      vertex 6.25759 -9.2728 3
      vertex 4.34935 -4.83044 3
      vertex 5.18403 -9.04461 3
    endloop
  endfacet
  facet normal -0 0 1
    outer loop
      vertex 3.25 -5.62916 3
      vertex 5.18403 -9.04461 3
      vertex 4.34935 -4.83044 3
    endloop
  endfacet
  facet normal 0 0 1
    outer loop
      vertex 5.18403 -9.04461 3
      vertex 3.25 -5.62916 3
      vertex 4.08648 -9.04461 3
    endloop
  endfacet
  facet normal -0 0 1
    outer loop
      vertex 2.00861 -6.18187 3
      vertex 4.08648 -9.04461 3
      vertex 3.25 -5.62916 3
    endloop
  endfacet
  facet normal 0 0 1
    outer loop
      vertex 4.08648 -9.04461 3
      vertex 2.00861 -6.18187 3
      vertex 3.01292 -9.2728 3
    endloop
  endfacet
  facet normal 0 0 1
    outer loop
      vertex 3.01292 -9.2728 3
      vertex 2.00861 -6.18187 3
      vertex 2.01025 -9.71921 3
    endloop
  endfacet
  facet normal -0 0 1
    outer loop
      vertex 0.679435 -6.46439 3
      vertex 2.01025 -9.71921 3
      vertex 2.00861 -6.18187 3
    endloop
  endfacet
  facet normal 0 0 1
    outer loop
      vertex 2.01025 -9.71921 3
      vertex 0.679435 -6.46439 3
      vertex 1.12232 -10.3643 3
    endloop
  endfacet
  facet normal -0 0 1
    outer loop
      vertex -0.679435 -6.46439 3
      vertex 1.12232 -10.3643 3
      vertex 0.679435 -6.46439 3
    endloop
  endfacet
  facet normal 0 0 1
    outer loop
      vertex 1.12232 -10.3643 3
      vertex -0.679435 -6.46439 3
      vertex 0.387916 -11.18 3
    endloop
  endfacet
  facet normal 0 0 1
    outer loop
      vertex -2.00861 -6.18187 3
      vertex 0.387916 -11.18 3
      vertex -0.679435 -6.46439 3
    endloop
  endfacet
  facet normal -0 0 1
    outer loop
      vertex -6.99998 -9.90831 3
      vertex -0.160858 -12.1305 3
      vertex -2.00861 -6.18187 3
    endloop
  endfacet
  facet normal 0 0 1
    outer loop
      vertex 0.387916 -11.18 3
      vertex -2.00861 -6.18187 3
      vertex -0.160858 -12.1305 3
    endloop
  endfacet
  facet normal 0 0 1
    outer loop
      vertex 13.7032 6.10105 3
      vertex 13.3777 4.99305 3
      vertex 14.0189 5.12935 3
    endloop
  endfacet
  facet normal 0 0 1
    outer loop
      vertex 13.7032 6.10105 3
      vertex 12.375 4.54663 3
      vertex 13.3777 4.99305 3
    endloop
  endfacet
  facet normal 0 0 1
    outer loop
      vertex 12.1353 8.81678 3
      vertex 12.375 4.54663 3
      vertex 13.7032 6.10105 3
    endloop
  endfacet
  facet normal 0 0 1
    outer loop
      vertex 12.1353 8.81678 3
      vertex 11.4871 3.90151 3
      vertex 12.375 4.54663 3
    endloop
  endfacet
  facet normal 0 0 1
    outer loop
      vertex 7.26025 9.71921 3
      vertex 11.4871 3.90151 3
      vertex 12.1353 8.81678 3
    endloop
  endfacet
  facet normal 0 0 1
    outer loop
      vertex 5.25861 3.8206 3
      vertex 11.4871 3.90151 3
      vertex 7.26025 9.71921 3
    endloop
  endfacet
  facet normal -0 0 1
    outer loop
      vertex 8.14819 10.3643 3
      vertex 12.1353 8.81678 3
      vertex 10.037 11.1472 3
    endloop
  endfacet
  facet normal -0 0 1
    outer loop
      vertex 7.26025 9.71921 3
      vertex 12.1353 8.81678 3
      vertex 8.14819 10.3643 3
    endloop
  endfacet
  facet normal 0 0 1
    outer loop
      vertex 11.4871 3.90151 3
      vertex 5.25861 3.8206 3
      vertex 10.7527 3.08587 3
    endloop
  endfacet
  facet normal -0 0 1
    outer loop
      vertex 8.88259 11.18 3
      vertex 10.037 11.1472 3
      vertex 9.21038 11.7477 3
    endloop
  endfacet
  facet normal 0 0 1
    outer loop
      vertex 13.3777 -4.99305 3
      vertex 13.7032 -6.10105 3
      vertex 14.0189 -5.12935 3
    endloop
  endfacet
  facet normal 0 0 1
    outer loop
      vertex 12.375 -4.54663 3
      vertex 13.7032 -6.10105 3
      vertex 13.3777 -4.99305 3
    endloop
  endfacet
  facet normal 0 0 1
    outer loop
      vertex 12.375 -4.54663 3
      vertex 12.1353 -8.81678 3
      vertex 13.7032 -6.10105 3
    endloop
  endfacet
  facet normal 0 0 1
    outer loop
      vertex 11.4871 -3.90151 3
      vertex 12.1353 -8.81678 3
      vertex 12.375 -4.54663 3
    endloop
  endfacet
  facet normal 0 0 1
    outer loop
      vertex 7.26025 -9.71921 3
      vertex 11.4871 -3.90151 3
      vertex 10.7527 -3.08587 3
    endloop
  endfacet
  facet normal 0 0 1
    outer loop
      vertex 5.93804 -2.64379 3
      vertex 10.2039 -2.13537 3
      vertex 6.35796 -1.35143 3
    endloop
  endfacet
  facet normal 0 0 1
    outer loop
      vertex 11.4871 -3.90151 3
      vertex 7.26025 -9.71921 3
      vertex 12.1353 -8.81678 3
    endloop
  endfacet
  facet normal 0 0 1
    outer loop
      vertex 6.35796 -1.35143 3
      vertex 9.86472 -1.09154 3
      vertex 6.5 0 3
    endloop
  endfacet
  facet normal -0 0 1
    outer loop
      vertex 6.5 0 3
      vertex 9.86472 -1.09154 3
      vertex 9.75 0 3
    endloop
  endfacet
  facet normal 0 0 1
    outer loop
      vertex 8.14819 10.3643 3
      vertex 10.037 11.1472 3
      vertex 8.88259 11.18 3
    endloop
  endfacet
  facet normal 0 0 1
    outer loop
      vertex 9.86472 -1.09154 3
      vertex 6.35796 -1.35143 3
      vertex 10.2039 -2.13537 3
    endloop
  endfacet
  facet normal 0 -0 1
    outer loop
      vertex 5.93804 2.64379 3
      vertex 10.7527 3.08587 3
      vertex 5.25861 3.8206 3
    endloop
  endfacet
  facet normal 0 0 1
    outer loop
      vertex 12.1353 -8.81678 3
      vertex 8.14819 -10.3643 3
      vertex 10.037 -11.1472 3
    endloop
  endfacet
  facet normal 0 0 1
    outer loop
      vertex 10.7527 3.08587 3
      vertex 5.93804 2.64379 3
      vertex 10.2039 2.13537 3
    endloop
  endfacet
  facet normal 0 0 1
    outer loop
      vertex 10.037 -11.1472 3
      vertex 8.88259 -11.18 3
      vertex 9.21038 -11.7477 3
    endloop
  endfacet
  facet normal 0 0 1
    outer loop
      vertex 10.2039 2.13537 3
      vertex 6.35796 1.35143 3
      vertex 9.86472 1.09154 3
    endloop
  endfacet
  facet normal 0 0 1
    outer loop
      vertex 10.037 -11.1472 3
      vertex 8.14819 -10.3643 3
      vertex 8.88259 -11.18 3
    endloop
  endfacet
  facet normal 0 0 1
    outer loop
      vertex 12.1353 -8.81678 3
      vertex 7.26025 -9.71921 3
      vertex 8.14819 -10.3643 3
    endloop
  endfacet
  facet normal 0 0 1
    outer loop
      vertex 9.86472 1.09154 3
      vertex 6.5 0 3
      vertex 9.75 0 3
    endloop
  endfacet
  facet normal 0 0 1
    outer loop
      vertex 5.25861 3.8206 3
      vertex 7.26025 9.71921 3
      vertex 6.25759 9.2728 3
    endloop
  endfacet
  facet normal 0 -0 1
    outer loop
      vertex 6.5 0 3
      vertex 9.86472 1.09154 3
      vertex 6.35796 1.35143 3
    endloop
  endfacet
  facet normal 0 -0 1
    outer loop
      vertex 6.35796 1.35143 3
      vertex 10.2039 2.13537 3
      vertex 5.93804 2.64379 3
    endloop
  endfacet
  facet normal 0 0 1
    outer loop
      vertex 4.34935 4.83044 3
      vertex 6.25759 9.2728 3
      vertex 5.18403 9.04461 3
    endloop
  endfacet
  facet normal 0 0 1
    outer loop
      vertex 6.25759 9.2728 3
      vertex 4.34935 4.83044 3
      vertex 5.25861 3.8206 3
    endloop
  endfacet
  facet normal 0 0 1
    outer loop
      vertex 3.25 5.62916 3
      vertex 5.18403 9.04461 3
      vertex 4.08648 9.04461 3
    endloop
  endfacet
  facet normal 0 0 1
    outer loop
      vertex 5.18403 9.04461 3
      vertex 3.25 5.62916 3
      vertex 4.34935 4.83044 3
    endloop
  endfacet
  facet normal 0 0 1
    outer loop
      vertex 2.00861 6.18187 3
      vertex 4.08648 9.04461 3
      vertex 3.01292 9.2728 3
    endloop
  endfacet
  facet normal 0 0 1
    outer loop
      vertex 2.00861 6.18187 3
      vertex 3.01292 9.2728 3
      vertex 2.01025 9.71921 3
    endloop
  endfacet
  facet normal 0 0 1
    outer loop
      vertex 4.08648 9.04461 3
      vertex 2.00861 6.18187 3
      vertex 3.25 5.62916 3
    endloop
  endfacet
  facet normal 0 0 1
    outer loop
      vertex 0.679435 6.46439 3
      vertex 2.01025 9.71921 3
      vertex 1.12232 10.3643 3
    endloop
  endfacet
  facet normal 0 0 1
    outer loop
      vertex 2.01025 9.71921 3
      vertex 0.679435 6.46439 3
      vertex 2.00861 6.18187 3
    endloop
  endfacet
  facet normal 0 0 1
    outer loop
      vertex -0.679435 6.46439 3
      vertex 1.12232 10.3643 3
      vertex 0.387916 11.18 3
    endloop
  endfacet
  facet normal 0 0 1
    outer loop
      vertex -0.679435 6.46439 3
      vertex 0.387916 11.18 3
      vertex -0.160858 12.1305 3
    endloop
  endfacet
  facet normal -0 0 1
    outer loop
      vertex -4.63525 14.2658 3
      vertex -0.500019 13.1743 3
      vertex -1.56793 14.9178 3
    endloop
  endfacet
  facet normal 0 0 1
    outer loop
      vertex 1.12232 10.3643 3
      vertex -0.679435 6.46439 3
      vertex 0.679435 6.46439 3
    endloop
  endfacet
  facet normal 0 0 1
    outer loop
      vertex -1.56793 14.9178 3
      vertex -0.500019 13.1743 3
      vertex -0.614744 14.2658 3
    endloop
  endfacet
  facet normal 0 0 1
    outer loop
      vertex -0.614744 -14.2658 3
      vertex -1.56793 -14.9178 3
      vertex -0.546218 -14.9178 3
    endloop
  endfacet
  facet normal 0 -0 1
    outer loop
      vertex -4.63525 -14.2658 3
      vertex -0.160858 -12.1305 3
      vertex -6.99998 -9.90831 3
    endloop
  endfacet
  facet normal 0 -0 1
    outer loop
      vertex -1.56793 -14.9178 3
      vertex -0.500019 -13.1743 3
      vertex -4.63525 -14.2658 3
    endloop
  endfacet
  facet normal 0 0 1
    outer loop
      vertex -6.88525 -8.81678 3
      vertex -2.00861 -6.18187 3
      vertex -3.25 -5.62916 3
    endloop
  endfacet
  facet normal 0 0 1
    outer loop
      vertex -6.99998 -7.72524 3
      vertex -3.25 -5.62916 3
      vertex -4.34935 -4.83044 3
    endloop
  endfacet
  facet normal 0 0 1
    outer loop
      vertex -2.00861 -6.18187 3
      vertex -6.88525 -8.81678 3
      vertex -6.99998 -9.90831 3
    endloop
  endfacet
  facet normal 0 0 1
    outer loop
      vertex -6.99998 -7.72524 3
      vertex -4.34935 -4.83044 3
      vertex -5.25861 -3.8206 3
    endloop
  endfacet
  facet normal 0 0 1
    outer loop
      vertex -6.99998 -7.72524 3
      vertex -5.25861 -3.8206 3
      vertex -5.93804 -2.64379 3
    endloop
  endfacet
  facet normal 0 0 1
    outer loop
      vertex -6.99998 -7.72524 3
      vertex -5.93804 -2.64379 3
      vertex -6.35796 -1.35143 3
    endloop
  endfacet
  facet normal -0 0 1
    outer loop
      vertex -8.62232 4.91527 3
      vertex -5.25861 3.8206 3
      vertex -7.88792 5.73091 3
    endloop
  endfacet
  facet normal 0 0 1
    outer loop
      vertex -6.99998 -7.72524 3
      vertex -6.35796 -1.35143 3
      vertex -6.5 0 3
    endloop
  endfacet
  facet normal 0 0 1
    outer loop
      vertex -3.25 -5.62916 3
      vertex -6.99998 -7.72524 3
      vertex -6.88525 -8.81678 3
    endloop
  endfacet
  facet normal 0 0 1
    outer loop
      vertex -0.500019 -13.1743 3
      vertex -1.56793 -14.9178 3
      vertex -0.614744 -14.2658 3
    endloop
  endfacet
  facet normal -0 0 1
    outer loop
      vertex -7.33914 -10.9521 3
      vertex -4.63525 -14.2658 3
      vertex -6.99998 -9.90831 3
    endloop
  endfacet
  facet normal 0 0 1
    outer loop
      vertex -7.33914 -10.9521 3
      vertex -7.5 -12.9904 3
      vertex -4.63525 -14.2658 3
    endloop
  endfacet
  facet normal -0 0 1
    outer loop
      vertex -7.88792 -11.9027 3
      vertex -7.5 -12.9904 3
      vertex -7.33914 -10.9521 3
    endloop
  endfacet
  facet normal 0 0 1
    outer loop
      vertex -7.5 -12.9904 3
      vertex -7.88792 -11.9027 3
      vertex -8.32658 -12.3898 3
    endloop
  endfacet
  facet normal 0 0 1
    outer loop
      vertex -5.25861 3.8206 3
      vertex -8.62232 4.91527 3
      vertex -5.93804 2.64379 3
    endloop
  endfacet
  facet normal 0 0 1
    outer loop
      vertex -0.160858 -12.1305 3
      vertex -4.63525 -14.2658 3
      vertex -0.500019 -13.1743 3
    endloop
  endfacet
  facet normal -0 0 1
    outer loop
      vertex -9.51025 4.27014 3
      vertex -5.93804 2.64379 3
      vertex -8.62232 4.91527 3
    endloop
  endfacet
  facet normal 0 0 1
    outer loop
      vertex -6.5 0 3
      vertex -7.33914 -6.68141 3
      vertex -6.99998 -7.72524 3
    endloop
  endfacet
  facet normal 0 0 1
    outer loop
      vertex -5.93804 2.64379 3
      vertex -9.51025 4.27014 3
      vertex -6.35796 1.35143 3
    endloop
  endfacet
  facet normal 0 0 1
    outer loop
      vertex -6.5 0 3
      vertex -7.88792 -5.73091 3
      vertex -7.33914 -6.68141 3
    endloop
  endfacet
  facet normal -0 0 1
    outer loop
      vertex -10.5129 3.82373 3
      vertex -6.35796 1.35143 3
      vertex -9.51025 4.27014 3
    endloop
  endfacet
  facet normal 0 0 1
    outer loop
      vertex -6.5 0 3
      vertex -8.62232 -4.91527 3
      vertex -7.88792 -5.73091 3
    endloop
  endfacet
  facet normal 0 0 1
    outer loop
      vertex -6.35796 1.35143 3
      vertex -10.5129 3.82373 3
      vertex -6.5 0 3
    endloop
  endfacet
  facet normal 0 0 1
    outer loop
      vertex -6.5 0 3
      vertex -9.51025 -4.27014 3
      vertex -8.62232 -4.91527 3
    endloop
  endfacet
  facet normal -0 0 1
    outer loop
      vertex -11.5865 3.59554 3
      vertex -6.5 0 3
      vertex -10.5129 3.82373 3
    endloop
  endfacet
  facet normal 0 0 1
    outer loop
      vertex -6.5 0 3
      vertex -10.5129 -3.82373 3
      vertex -9.51025 -4.27014 3
    endloop
  endfacet
  facet normal 0 0 1
    outer loop
      vertex -11.5865 -3.59554 3
      vertex -6.5 0 3
      vertex -11.5865 3.59554 3
    endloop
  endfacet
  facet normal 0 0 1
    outer loop
      vertex -6.5 0 3
      vertex -11.5865 -3.59554 3
      vertex -10.5129 -3.82373 3
    endloop
  endfacet
  facet normal 0 0 1
    outer loop
      vertex -15 0 3
      vertex -11.5865 3.59554 3
      vertex -12.684 3.59554 3
    endloop
  endfacet
  facet normal 0 0 1
    outer loop
      vertex -11.5865 3.59554 3
      vertex -15 0 3
      vertex -11.5865 -3.59554 3
    endloop
  endfacet
  facet normal 0 0 1
    outer loop
      vertex -14.6722 3.11868 3
      vertex -12.684 3.59554 3
      vertex -13.7576 3.82373 3
    endloop
  endfacet
  facet normal 0 0 1
    outer loop
      vertex -11.5865 -3.59554 3
      vertex -15 0 3
      vertex -12.684 -3.59554 3
    endloop
  endfacet
  facet normal 0 0 1
    outer loop
      vertex -14.6722 3.11868 3
      vertex -13.7576 3.82373 3
      vertex -14.3565 4.09038 3
    endloop
  endfacet
  facet normal 0 0 1
    outer loop
      vertex -12.684 3.59554 3
      vertex -14.6722 3.11868 3
      vertex -15 0 3
    endloop
  endfacet
  facet normal -0 -0 1
    outer loop
      vertex -14.6722 -3.11868 3
      vertex -12.684 -3.59554 3
      vertex -15 0 3
    endloop
  endfacet
  facet normal 0 0 1
    outer loop
      vertex -12.684 -3.59554 3
      vertex -14.6722 -3.11868 3
      vertex -13.7576 -3.82373 3
    endloop
  endfacet
  facet normal 0 0 1
    outer loop
      vertex -13.7576 -3.82373 3
      vertex -14.6722 -3.11868 3
      vertex -14.3565 -4.09038 3
    endloop
  endfacet
  facet normal 0 0 1
    outer loop
      vertex 4.89074 1.03956 3
      vertex 4.89074 -1.03956 3
      vertex 5 0 3
    endloop
  endfacet
  facet normal 0 0 1
    outer loop
      vertex 4.56773 2.03368 3
      vertex 4.89074 -1.03956 3
      vertex 4.89074 1.03956 3
    endloop
  endfacet
  facet normal 0 0 1
    outer loop
      vertex 4.56773 2.03368 3
      vertex 4.56773 -2.03368 3
      vertex 4.89074 -1.03956 3
    endloop
  endfacet
  facet normal 0 0 1
    outer loop
      vertex 4.04508 2.93893 3
      vertex 4.56773 -2.03368 3
      vertex 4.56773 2.03368 3
    endloop
  endfacet
  facet normal 0 0 1
    outer loop
      vertex 4.04508 2.93893 3
      vertex 4.04508 -2.93893 3
      vertex 4.56773 -2.03368 3
    endloop
  endfacet
  facet normal 0 0 1
    outer loop
      vertex 3.34565 3.71572 3
      vertex 4.04508 -2.93893 3
      vertex 4.04508 2.93893 3
    endloop
  endfacet
  facet normal 0 0 1
    outer loop
      vertex 3.34565 3.71572 3
      vertex 3.34565 -3.71572 3
      vertex 4.04508 -2.93893 3
    endloop
  endfacet
  facet normal 0 0 1
    outer loop
      vertex 2.5 4.33013 3
      vertex 3.34565 -3.71572 3
      vertex 3.34565 3.71572 3
    endloop
  endfacet
  facet normal 0 0 1
    outer loop
      vertex 2.5 4.33013 3
      vertex 2.5 -4.33013 3
      vertex 3.34565 -3.71572 3
    endloop
  endfacet
  facet normal 0 0 1
    outer loop
      vertex 1.54508 4.75528 3
      vertex 2.5 -4.33013 3
      vertex 2.5 4.33013 3
    endloop
  endfacet
  facet normal 0 0 1
    outer loop
      vertex 1.54508 4.75528 3
      vertex 1.54508 -4.75528 3
      vertex 2.5 -4.33013 3
    endloop
  endfacet
  facet normal 0 0 1
    outer loop
      vertex 0.549999 4.96679 3
      vertex 1.54508 -4.75528 3
      vertex 1.54508 4.75528 3
    endloop
  endfacet
  facet normal 0 0 1
    outer loop
      vertex 1.54508 -4.75528 3
      vertex 0.549999 4.96679 3
      vertex 0.549999 -4.96679 3
    endloop
  endfacet
  facet normal -0 0 1
    outer loop
      vertex -1.54508 4.75528 3
      vertex -0.549999 -4.96679 3
      vertex -0.549999 4.96679 3
    endloop
  endfacet
  facet normal 0 0 1
    outer loop
      vertex -1.54508 4.75528 3
      vertex -1.54508 -4.75528 3
      vertex -0.549999 -4.96679 3
    endloop
  endfacet
  facet normal -0 0 1
    outer loop
      vertex -2.5 4.33013 3
      vertex -1.54508 -4.75528 3
      vertex -1.54508 4.75528 3
    endloop
  endfacet
  facet normal 0 0 1
    outer loop
      vertex -2.5 4.33013 3
      vertex -2.5 -4.33013 3
      vertex -1.54508 -4.75528 3
    endloop
  endfacet
  facet normal -0 0 1
    outer loop
      vertex -3.34565 3.71572 3
      vertex -2.5 -4.33013 3
      vertex -2.5 4.33013 3
    endloop
  endfacet
  facet normal 0 0 1
    outer loop
      vertex -3.34565 3.71572 3
      vertex -3.34565 -3.71572 3
      vertex -2.5 -4.33013 3
    endloop
  endfacet
  facet normal -0 0 1
    outer loop
      vertex -4.04508 2.93893 3
      vertex -3.34565 -3.71572 3
      vertex -3.34565 3.71572 3
    endloop
  endfacet
  facet normal 0 0 1
    outer loop
      vertex -4.04508 2.93893 3
      vertex -4.04508 -2.93893 3
      vertex -3.34565 -3.71572 3
    endloop
  endfacet
  facet normal -0 0 1
    outer loop
      vertex -4.56773 2.03368 3
      vertex -4.04508 -2.93893 3
      vertex -4.04508 2.93893 3
    endloop
  endfacet
  facet normal 0 0 1
    outer loop
      vertex -4.56773 2.03368 3
      vertex -4.56773 -2.03368 3
      vertex -4.04508 -2.93893 3
    endloop
  endfacet
  facet normal -0 0 1
    outer loop
      vertex -4.89074 1.03956 3
      vertex -4.56773 -2.03368 3
      vertex -4.56773 2.03368 3
    endloop
  endfacet
  facet normal 0 0 1
    outer loop
      vertex -4.89074 1.03956 3
      vertex -4.89074 -1.03956 3
      vertex -4.56773 -2.03368 3
    endloop
  endfacet
  facet normal 0 -0 1
    outer loop
      vertex -4.89074 -1.03956 3
      vertex -4.89074 1.03956 3
      vertex -5 0 3
    endloop
  endfacet
  facet normal 0.866025 -0.5 0
    outer loop
      vertex 5.25861 -3.8206 7.5
      vertex 5.93804 -2.64379 3
      vertex 5.93804 -2.64379 7.5
    endloop
  endfacet
  facet normal 0.866025 -0.5 0
    outer loop
      vertex 5.93804 -2.64379 3
      vertex 5.25861 -3.8206 7.5
      vertex 5.25861 -3.8206 3
    endloop
  endfacet
  facet normal -0.866025 -0.5 0
    outer loop
      vertex -5.25861 -3.8206 3
      vertex -5.93804 -2.64379 7.5
      vertex -5.93804 -2.64379 3
    endloop
  endfacet
  facet normal -0.866025 -0.5 0
    outer loop
      vertex -5.93804 -2.64379 7.5
      vertex -5.25861 -3.8206 3
      vertex -5.25861 -3.8206 7.5
    endloop
  endfacet
  facet normal 0.587786 -0.809017 0
    outer loop
      vertex 3.25 -5.62916 3
      vertex 4.34935 -4.83044 7.5
      vertex 3.25 -5.62916 7.5
    endloop
  endfacet
  facet normal 0.587786 -0.809017 0
    outer loop
      vertex 4.34935 -4.83044 7.5
      vertex 3.25 -5.62916 3
      vertex 4.34935 -4.83044 3
    endloop
  endfacet
  facet normal -0.207912 -0.978148 0
    outer loop
      vertex -2.00861 -6.18187 3
      vertex -0.679435 -6.46439 7.5
      vertex -2.00861 -6.18187 7.5
    endloop
  endfacet
  facet normal -0.207912 -0.978148 -0
    outer loop
      vertex -0.679435 -6.46439 7.5
      vertex -2.00861 -6.18187 3
      vertex -0.679435 -6.46439 3
    endloop
  endfacet
  facet normal -0.743145 -0.669131 0
    outer loop
      vertex -4.34935 -4.83044 3
      vertex -5.25861 -3.8206 7.5
      vertex -5.25861 -3.8206 3
    endloop
  endfacet
  facet normal -0.743145 -0.669131 0
    outer loop
      vertex -5.25861 -3.8206 7.5
      vertex -4.34935 -4.83044 3
      vertex -4.34935 -4.83044 7.5
    endloop
  endfacet
  facet normal -0.951056 -0.309017 0
    outer loop
      vertex -5.93804 -2.64379 3
      vertex -6.35796 -1.35143 7.5
      vertex -6.35796 -1.35143 3
    endloop
  endfacet
  facet normal -0.951056 -0.309017 0
    outer loop
      vertex -6.35796 -1.35143 7.5
      vertex -5.93804 -2.64379 3
      vertex -5.93804 -2.64379 7.5
    endloop
  endfacet
  facet normal -0.994522 -0.104529 0
    outer loop
      vertex -6.35796 -1.35143 3
      vertex -6.5 0 7.5
      vertex -6.5 0 3
    endloop
  endfacet
  facet normal -0.994522 -0.104529 0
    outer loop
      vertex -6.5 0 7.5
      vertex -6.35796 -1.35143 3
      vertex -6.35796 -1.35143 7.5
    endloop
  endfacet
  facet normal 0.406736 -0.913546 0
    outer loop
      vertex 2.00861 -6.18187 3
      vertex 3.25 -5.62916 7.5
      vertex 2.00861 -6.18187 7.5
    endloop
  endfacet
  facet normal 0.406736 -0.913546 0
    outer loop
      vertex 3.25 -5.62916 7.5
      vertex 2.00861 -6.18187 3
      vertex 3.25 -5.62916 3
    endloop
  endfacet
  facet normal 0.207912 -0.978148 0
    outer loop
      vertex 0.679435 -6.46439 3
      vertex 2.00861 -6.18187 7.5
      vertex 0.679435 -6.46439 7.5
    endloop
  endfacet
  facet normal 0.207912 -0.978148 0
    outer loop
      vertex 2.00861 -6.18187 7.5
      vertex 0.679435 -6.46439 3
      vertex 2.00861 -6.18187 3
    endloop
  endfacet
  facet normal 0.743145 -0.669131 0
    outer loop
      vertex 4.34935 -4.83044 7.5
      vertex 5.25861 -3.8206 3
      vertex 5.25861 -3.8206 7.5
    endloop
  endfacet
  facet normal 0.743145 -0.669131 0
    outer loop
      vertex 5.25861 -3.8206 3
      vertex 4.34935 -4.83044 7.5
      vertex 4.34935 -4.83044 3
    endloop
  endfacet
  facet normal -0.406736 -0.913546 0
    outer loop
      vertex -3.25 -5.62916 3
      vertex -2.00861 -6.18187 7.5
      vertex -3.25 -5.62916 7.5
    endloop
  endfacet
  facet normal -0.406736 -0.913546 -0
    outer loop
      vertex -2.00861 -6.18187 7.5
      vertex -3.25 -5.62916 3
      vertex -2.00861 -6.18187 3
    endloop
  endfacet
  facet normal -0.587786 -0.809017 0
    outer loop
      vertex -4.34935 -4.83044 3
      vertex -3.25 -5.62916 7.5
      vertex -4.34935 -4.83044 7.5
    endloop
  endfacet
  facet normal -0.587786 -0.809017 -0
    outer loop
      vertex -3.25 -5.62916 7.5
      vertex -4.34935 -4.83044 3
      vertex -3.25 -5.62916 3
    endloop
  endfacet
  facet normal -0.994522 -0.104529 0
    outer loop
      vertex 5 0 3
      vertex 4.89074 1.03956 7.5
      vertex 4.89074 1.03956 3
    endloop
  endfacet
  facet normal -0.994522 -0.104529 0
    outer loop
      vertex 4.89074 1.03956 7.5
      vertex 5 0 3
      vertex 5 0 7.5
    endloop
  endfacet
  facet normal 0.994522 -0.104529 0
    outer loop
      vertex -5 0 7.5
      vertex -4.89074 1.03956 3
      vertex -4.89074 1.03956 7.5
    endloop
  endfacet
  facet normal 0.994522 -0.104529 0
    outer loop
      vertex -4.89074 1.03956 3
      vertex -5 0 7.5
      vertex -5 0 3
    endloop
  endfacet
  facet normal 0 -1 0
    outer loop
      vertex -0.522642 4.97261 5.1
      vertex 0.522642 4.97261 7.5
      vertex -0.522642 4.97261 7.5
    endloop
  endfacet
  facet normal 0 -1 -0
    outer loop
      vertex 0.522642 4.97261 7.5
      vertex -0.522642 4.97261 5.1
      vertex 0.522642 4.97261 5.1
    endloop
  endfacet
  facet normal 0 1 -0
    outer loop
      vertex 0.522642 -4.97261 5.1
      vertex -0.522642 -4.97261 7.5
      vertex 0.522642 -4.97261 7.5
    endloop
  endfacet
  facet normal 0 1 0
    outer loop
      vertex -0.522642 -4.97261 7.5
      vertex 0.522642 -4.97261 5.1
      vertex -0.522642 -4.97261 5.1
    endloop
  endfacet
  facet normal -0.587785 -0.809017 0
    outer loop
      vertex 2.5 4.33013 3
      vertex 3.34565 3.71572 7.5
      vertex 2.5 4.33013 7.5
    endloop
  endfacet
  facet normal -0.587785 -0.809017 -0
    outer loop
      vertex 3.34565 3.71572 7.5
      vertex 2.5 4.33013 3
      vertex 3.34565 3.71572 3
    endloop
  endfacet
  facet normal -0.406737 -0.913545 0
    outer loop
      vertex 1.54508 4.75528 3
      vertex 2.5 4.33013 7.5
      vertex 1.54508 4.75528 7.5
    endloop
  endfacet
  facet normal -0.406737 -0.913545 -0
    outer loop
      vertex 2.5 4.33013 7.5
      vertex 1.54508 4.75528 3
      vertex 2.5 4.33013 3
    endloop
  endfacet
  facet normal 0.587785 -0.809017 0
    outer loop
      vertex -3.34565 3.71572 3
      vertex -2.5 4.33013 7.5
      vertex -3.34565 3.71572 7.5
    endloop
  endfacet
  facet normal 0.587785 -0.809017 0
    outer loop
      vertex -2.5 4.33013 7.5
      vertex -3.34565 3.71572 3
      vertex -2.5 4.33013 3
    endloop
  endfacet
  facet normal 0.207911 -0.978148 4.81776e-08
    outer loop
      vertex -1.54508 4.75528 7.5
      vertex -0.549999 4.96679 5.1
      vertex -0.522642 4.97261 7.5
    endloop
  endfacet
  facet normal 0.207911 -0.978148 0
    outer loop
      vertex -1.54508 4.75528 3
      vertex -0.549999 4.96679 5.1
      vertex -1.54508 4.75528 7.5
    endloop
  endfacet
  facet normal 0.207911 -0.978148 0
    outer loop
      vertex -0.549999 4.96679 5.1
      vertex -1.54508 4.75528 3
      vertex -0.549999 4.96679 3
    endloop
  endfacet
  facet normal 0.207915 -0.978147 0
    outer loop
      vertex -0.522642 4.97261 7.5
      vertex -0.549999 4.96679 5.1
      vertex -0.522642 4.97261 5.1
    endloop
  endfacet
  facet normal -0.951057 0.309017 0
    outer loop
      vertex 4.56773 -2.03368 3
      vertex 4.89074 -1.03956 7.5
      vertex 4.89074 -1.03956 3
    endloop
  endfacet
  facet normal -0.951057 0.309017 0
    outer loop
      vertex 4.89074 -1.03956 7.5
      vertex 4.56773 -2.03368 3
      vertex 4.56773 -2.03368 7.5
    endloop
  endfacet
  facet normal -0.866025 -0.5 0
    outer loop
      vertex 4.56773 2.03368 3
      vertex 4.04508 2.93893 7.5
      vertex 4.04508 2.93893 3
    endloop
  endfacet
  facet normal -0.866025 -0.5 0
    outer loop
      vertex 4.04508 2.93893 7.5
      vertex 4.56773 2.03368 3
      vertex 4.56773 2.03368 7.5
    endloop
  endfacet
  facet normal -0.951057 -0.309017 0
    outer loop
      vertex 4.89074 1.03956 3
      vertex 4.56773 2.03368 7.5
      vertex 4.56773 2.03368 3
    endloop
  endfacet
  facet normal -0.951057 -0.309017 0
    outer loop
      vertex 4.56773 2.03368 7.5
      vertex 4.89074 1.03956 3
      vertex 4.89074 1.03956 7.5
    endloop
  endfacet
  facet normal -0.743145 -0.669131 0
    outer loop
      vertex 4.04508 2.93893 3
      vertex 3.34565 3.71572 7.5
      vertex 3.34565 3.71572 3
    endloop
  endfacet
  facet normal -0.743145 -0.669131 0
    outer loop
      vertex 3.34565 3.71572 7.5
      vertex 4.04508 2.93893 3
      vertex 4.04508 2.93893 7.5
    endloop
  endfacet
  facet normal -0.207915 -0.978147 0
    outer loop
      vertex 0.549999 4.96679 5.1
      vertex 0.522642 4.97261 7.5
      vertex 0.522642 4.97261 5.1
    endloop
  endfacet
  facet normal -0.207911 -0.978148 4.81776e-08
    outer loop
      vertex 0.522642 4.97261 7.5
      vertex 0.549999 4.96679 5.1
      vertex 1.54508 4.75528 7.5
    endloop
  endfacet
  facet normal -0.207911 -0.978148 0
    outer loop
      vertex 1.54508 4.75528 3
      vertex 0.549999 4.96679 5.1
      vertex 0.549999 4.96679 3
    endloop
  endfacet
  facet normal -0.207911 -0.978148 0
    outer loop
      vertex 0.549999 4.96679 5.1
      vertex 1.54508 4.75528 3
      vertex 1.54508 4.75528 7.5
    endloop
  endfacet
  facet normal 0.866025 -0.5 0
    outer loop
      vertex -4.56773 2.03368 7.5
      vertex -4.04508 2.93893 3
      vertex -4.04508 2.93893 7.5
    endloop
  endfacet
  facet normal 0.866025 -0.5 0
    outer loop
      vertex -4.04508 2.93893 3
      vertex -4.56773 2.03368 7.5
      vertex -4.56773 2.03368 3
    endloop
  endfacet
  facet normal 0.743145 -0.669131 0
    outer loop
      vertex -4.04508 2.93893 7.5
      vertex -3.34565 3.71572 3
      vertex -3.34565 3.71572 7.5
    endloop
  endfacet
  facet normal 0.743145 -0.669131 0
    outer loop
      vertex -3.34565 3.71572 3
      vertex -4.04508 2.93893 7.5
      vertex -4.04508 2.93893 3
    endloop
  endfacet
  facet normal 0.951057 -0.309017 0
    outer loop
      vertex -4.89074 1.03956 7.5
      vertex -4.56773 2.03368 3
      vertex -4.56773 2.03368 7.5
    endloop
  endfacet
  facet normal 0.951057 -0.309017 0
    outer loop
      vertex -4.56773 2.03368 3
      vertex -4.89074 1.03956 7.5
      vertex -4.89074 1.03956 3
    endloop
  endfacet
  facet normal 0.406737 -0.913545 0
    outer loop
      vertex -2.5 4.33013 3
      vertex -1.54508 4.75528 7.5
      vertex -2.5 4.33013 7.5
    endloop
  endfacet
  facet normal 0.406737 -0.913545 0
    outer loop
      vertex -1.54508 4.75528 7.5
      vertex -2.5 4.33013 3
      vertex -1.54508 4.75528 3
    endloop
  endfacet
  facet normal -0.994522 0.104529 0
    outer loop
      vertex 4.89074 -1.03956 3
      vertex 5 0 7.5
      vertex 5 0 3
    endloop
  endfacet
  facet normal -0.994522 0.104529 0
    outer loop
      vertex 5 0 7.5
      vertex 4.89074 -1.03956 3
      vertex 4.89074 -1.03956 7.5
    endloop
  endfacet
  facet normal -0.207911 0.978148 4.81776e-08
    outer loop
      vertex 1.54508 -4.75528 7.5
      vertex 0.549999 -4.96679 5.1
      vertex 0.522642 -4.97261 7.5
    endloop
  endfacet
  facet normal -0.207911 0.978148 0
    outer loop
      vertex 1.54508 -4.75528 3
      vertex 0.549999 -4.96679 5.1
      vertex 1.54508 -4.75528 7.5
    endloop
  endfacet
  facet normal -0.207911 0.978148 0
    outer loop
      vertex 0.549999 -4.96679 5.1
      vertex 1.54508 -4.75528 3
      vertex 0.549999 -4.96679 3
    endloop
  endfacet
  facet normal -0.207915 0.978147 0
    outer loop
      vertex 0.522642 -4.97261 7.5
      vertex 0.549999 -4.96679 5.1
      vertex 0.522642 -4.97261 5.1
    endloop
  endfacet
  facet normal -0.866025 0.5 0
    outer loop
      vertex 4.04508 -2.93893 3
      vertex 4.56773 -2.03368 7.5
      vertex 4.56773 -2.03368 3
    endloop
  endfacet
  facet normal -0.866025 0.5 0
    outer loop
      vertex 4.56773 -2.03368 7.5
      vertex 4.04508 -2.93893 3
      vertex 4.04508 -2.93893 7.5
    endloop
  endfacet
  facet normal 0.587785 0.809017 -0
    outer loop
      vertex -2.5 -4.33013 3
      vertex -3.34565 -3.71572 7.5
      vertex -2.5 -4.33013 7.5
    endloop
  endfacet
  facet normal 0.587785 0.809017 0
    outer loop
      vertex -3.34565 -3.71572 7.5
      vertex -2.5 -4.33013 3
      vertex -3.34565 -3.71572 3
    endloop
  endfacet
  facet normal 0.866025 0.5 0
    outer loop
      vertex -4.04508 -2.93893 7.5
      vertex -4.56773 -2.03368 3
      vertex -4.56773 -2.03368 7.5
    endloop
  endfacet
  facet normal 0.866025 0.5 0
    outer loop
      vertex -4.56773 -2.03368 3
      vertex -4.04508 -2.93893 7.5
      vertex -4.04508 -2.93893 3
    endloop
  endfacet
  facet normal 0.743145 0.669131 0
    outer loop
      vertex -3.34565 -3.71572 7.5
      vertex -4.04508 -2.93893 3
      vertex -4.04508 -2.93893 7.5
    endloop
  endfacet
  facet normal 0.743145 0.669131 0
    outer loop
      vertex -4.04508 -2.93893 3
      vertex -3.34565 -3.71572 7.5
      vertex -3.34565 -3.71572 3
    endloop
  endfacet
  facet normal -0.587785 0.809017 0
    outer loop
      vertex 3.34565 -3.71572 3
      vertex 2.5 -4.33013 7.5
      vertex 3.34565 -3.71572 7.5
    endloop
  endfacet
  facet normal -0.587785 0.809017 0
    outer loop
      vertex 2.5 -4.33013 7.5
      vertex 3.34565 -3.71572 3
      vertex 2.5 -4.33013 3
    endloop
  endfacet
  facet normal -0.406737 0.913545 0
    outer loop
      vertex 2.5 -4.33013 3
      vertex 1.54508 -4.75528 7.5
      vertex 2.5 -4.33013 7.5
    endloop
  endfacet
  facet normal -0.406737 0.913545 0
    outer loop
      vertex 1.54508 -4.75528 7.5
      vertex 2.5 -4.33013 3
      vertex 1.54508 -4.75528 3
    endloop
  endfacet
  facet normal 0.207915 0.978147 0
    outer loop
      vertex -0.549999 -4.96679 5.1
      vertex -0.522642 -4.97261 7.5
      vertex -0.522642 -4.97261 5.1
    endloop
  endfacet
  facet normal 0.207911 0.978148 4.81776e-08
    outer loop
      vertex -0.522642 -4.97261 7.5
      vertex -0.549999 -4.96679 5.1
      vertex -1.54508 -4.75528 7.5
    endloop
  endfacet
  facet normal 0.207911 0.978148 0
    outer loop
      vertex -1.54508 -4.75528 3
      vertex -0.549999 -4.96679 5.1
      vertex -0.549999 -4.96679 3
    endloop
  endfacet
  facet normal 0.207911 0.978148 0
    outer loop
      vertex -0.549999 -4.96679 5.1
      vertex -1.54508 -4.75528 3
      vertex -1.54508 -4.75528 7.5
    endloop
  endfacet
  facet normal 0.951057 0.309017 0
    outer loop
      vertex -4.56773 -2.03368 7.5
      vertex -4.89074 -1.03956 3
      vertex -4.89074 -1.03956 7.5
    endloop
  endfacet
  facet normal 0.951057 0.309017 0
    outer loop
      vertex -4.89074 -1.03956 3
      vertex -4.56773 -2.03368 7.5
      vertex -4.56773 -2.03368 3
    endloop
  endfacet
  facet normal 0.994522 0.104529 0
    outer loop
      vertex -4.89074 -1.03956 7.5
      vertex -5 0 3
      vertex -5 0 7.5
    endloop
  endfacet
  facet normal 0.994522 0.104529 0
    outer loop
      vertex -5 0 3
      vertex -4.89074 -1.03956 7.5
      vertex -4.89074 -1.03956 3
    endloop
  endfacet
  facet normal -0.743145 0.669131 0
    outer loop
      vertex 3.34565 -3.71572 3
      vertex 4.04508 -2.93893 7.5
      vertex 4.04508 -2.93893 3
    endloop
  endfacet
  facet normal -0.743145 0.669131 0
    outer loop
      vertex 4.04508 -2.93893 7.5
      vertex 3.34565 -3.71572 3
      vertex 3.34565 -3.71572 7.5
    endloop
  endfacet
  facet normal 0.406737 0.913545 -0
    outer loop
      vertex -1.54508 -4.75528 3
      vertex -2.5 -4.33013 7.5
      vertex -1.54508 -4.75528 7.5
    endloop
  endfacet
  facet normal 0.406737 0.913545 0
    outer loop
      vertex -2.5 -4.33013 7.5
      vertex -1.54508 -4.75528 3
      vertex -2.5 -4.33013 3
    endloop
  endfacet
  facet normal -1 0 0
    outer loop
      vertex -0.549999 -4.96679 3
      vertex -0.549999 4.96679 5.1
      vertex -0.549999 4.96679 3
    endloop
  endfacet
  facet normal -1 -0 0
    outer loop
      vertex -0.549999 4.96679 5.1
      vertex -0.549999 -4.96679 3
      vertex -0.549999 -4.96679 5.1
    endloop
  endfacet
  facet normal 0 0 1
    outer loop
      vertex -0.549999 4.96679 5.1
      vertex 0.549999 4.96679 5.1
      vertex 0.522642 4.97261 5.1
    endloop
  endfacet
  facet normal 0 0 1
    outer loop
      vertex 0.549999 4.96679 5.1
      vertex -0.549999 4.96679 5.1
      vertex 0.549999 -4.96679 5.1
    endloop
  endfacet
  facet normal 0 0 1
    outer loop
      vertex -0.549999 4.96679 5.1
      vertex 0.522642 4.97261 5.1
      vertex -0.522642 4.97261 5.1
    endloop
  endfacet
  facet normal 0 0 1
    outer loop
      vertex -0.549999 -4.96679 5.1
      vertex 0.549999 -4.96679 5.1
      vertex -0.549999 4.96679 5.1
    endloop
  endfacet
  facet normal 0 0 1
    outer loop
      vertex 0.549999 -4.96679 5.1
      vertex -0.549999 -4.96679 5.1
      vertex 0.522642 -4.97261 5.1
    endloop
  endfacet
  facet normal 0 0 1
    outer loop
      vertex 0.522642 -4.97261 5.1
      vertex -0.549999 -4.96679 5.1
      vertex -0.522642 -4.97261 5.1
    endloop
  endfacet
  facet normal 1 -0 0
    outer loop
      vertex 0.549999 -4.96679 5.1
      vertex 0.549999 4.96679 3
      vertex 0.549999 4.96679 5.1
    endloop
  endfacet
  facet normal 1 0 0
    outer loop
      vertex 0.549999 4.96679 3
      vertex 0.549999 -4.96679 5.1
      vertex 0.549999 -4.96679 3
    endloop
  endfacet
  facet normal 0.743146 -0.66913 0
    outer loop
      vertex 10.7527 3.08587 3
      vertex 11.4871 3.90151 0
      vertex 11.4871 3.90151 3
    endloop
  endfacet
  facet normal 0.743146 -0.66913 0
    outer loop
      vertex 11.4871 3.90151 0
      vertex 10.7527 3.08587 3
      vertex 10.7527 3.08587 0
    endloop
  endfacet
  facet normal 0.406736 -0.913546 0
    outer loop
      vertex 12.375 4.54663 0
      vertex 13.3777 4.99305 3
      vertex 12.375 4.54663 3
    endloop
  endfacet
  facet normal 0.406736 -0.913546 0
    outer loop
      vertex 13.3777 4.99305 3
      vertex 12.375 4.54663 0
      vertex 13.3777 4.99305 0
    endloop
  endfacet
  facet normal 0.951056 0.309018 0
    outer loop
      vertex 10.2039 -2.13537 3
      vertex 9.86472 -1.09154 0
      vertex 9.86472 -1.09154 3
    endloop
  endfacet
  facet normal 0.951056 0.309018 0
    outer loop
      vertex 9.86472 -1.09154 0
      vertex 10.2039 -2.13537 3
      vertex 10.2039 -2.13537 0
    endloop
  endfacet
  facet normal 0.951056 -0.309018 0
    outer loop
      vertex 9.86472 1.09154 3
      vertex 10.2039 2.13537 0
      vertex 10.2039 2.13537 3
    endloop
  endfacet
  facet normal 0.951056 -0.309018 0
    outer loop
      vertex 10.2039 2.13537 0
      vertex 9.86472 1.09154 3
      vertex 9.86472 1.09154 0
    endloop
  endfacet
  facet normal -0 0 -1
    outer loop
      vertex 1.12232 10.3643 0
      vertex -6.99998 7.72524 0
      vertex 0.387916 11.18 0
    endloop
  endfacet
  facet normal 0 0 -1
    outer loop
      vertex -1.56793 -14.9178 0
      vertex -0.614744 -14.2658 0
      vertex -0.546218 -14.9178 0
    endloop
  endfacet
  facet normal 0 0 -1
    outer loop
      vertex 13.7032 -6.10105 0
      vertex 13.3777 -4.99305 0
      vertex 14.0189 -5.12935 0
    endloop
  endfacet
  facet normal 0 0 -1
    outer loop
      vertex 13.7032 -6.10105 0
      vertex 12.375 -4.54663 0
      vertex 13.3777 -4.99305 0
    endloop
  endfacet
  facet normal 0 0 -1
    outer loop
      vertex 12.1353 -8.81678 0
      vertex 12.375 -4.54663 0
      vertex 13.7032 -6.10105 0
    endloop
  endfacet
  facet normal 0 0 -1
    outer loop
      vertex 12.1353 -8.81678 0
      vertex 11.4871 -3.90151 0
      vertex 12.375 -4.54663 0
    endloop
  endfacet
  facet normal 0 0 -1
    outer loop
      vertex 7.26025 -9.71921 0
      vertex 11.4871 -3.90151 0
      vertex 12.1353 -8.81678 0
    endloop
  endfacet
  facet normal -0 0 -1
    outer loop
      vertex 11.4871 -3.90151 0
      vertex 7.26025 -9.71921 0
      vertex 10.7527 -3.08587 0
    endloop
  endfacet
  facet normal 0 0 -1
    outer loop
      vertex 8.14819 -10.3643 0
      vertex 12.1353 -8.81678 0
      vertex 10.037 -11.1472 0
    endloop
  endfacet
  facet normal 0 0 -1
    outer loop
      vertex 7.26025 -9.71921 0
      vertex 12.1353 -8.81678 0
      vertex 8.14819 -10.3643 0
    endloop
  endfacet
  facet normal 0 0 -1
    outer loop
      vertex 6.25759 -9.2728 0
      vertex 10.7527 -3.08587 0
      vertex 7.26025 -9.71921 0
    endloop
  endfacet
  facet normal 0 0 -1
    outer loop
      vertex 8.88259 -11.18 0
      vertex 10.037 -11.1472 0
      vertex 9.21038 -11.7477 0
    endloop
  endfacet
  facet normal 0 0 -1
    outer loop
      vertex 13.3777 4.99305 0
      vertex 13.7032 6.10105 0
      vertex 14.0189 5.12935 0
    endloop
  endfacet
  facet normal 0 0 -1
    outer loop
      vertex 12.375 4.54663 0
      vertex 13.7032 6.10105 0
      vertex 13.3777 4.99305 0
    endloop
  endfacet
  facet normal 0 0 -1
    outer loop
      vertex 12.375 4.54663 0
      vertex 12.1353 8.81678 0
      vertex 13.7032 6.10105 0
    endloop
  endfacet
  facet normal 0 0 -1
    outer loop
      vertex 11.4871 3.90151 0
      vertex 12.1353 8.81678 0
      vertex 12.375 4.54663 0
    endloop
  endfacet
  facet normal 0 0 -1
    outer loop
      vertex 7.26025 9.71921 0
      vertex 11.4871 3.90151 0
      vertex 10.7527 3.08587 0
    endloop
  endfacet
  facet normal 0 0 -1
    outer loop
      vertex 6.25759 9.2728 0
      vertex 10.7527 3.08587 0
      vertex 10.2039 2.13537 0
    endloop
  endfacet
  facet normal 0 0 -1
    outer loop
      vertex 11.4871 3.90151 0
      vertex 7.26025 9.71921 0
      vertex 12.1353 8.81678 0
    endloop
  endfacet
  facet normal 0 0 -1
    outer loop
      vertex 5.18403 9.04461 0
      vertex 10.2039 2.13537 0
      vertex 9.86472 1.09154 0
    endloop
  endfacet
  facet normal 0 0 -1
    outer loop
      vertex 4.08648 9.04461 0
      vertex 9.86472 1.09154 0
      vertex 9.75 0 0
    endloop
  endfacet
  facet normal 0 0 -1
    outer loop
      vertex 8.14819 -10.3643 0
      vertex 10.037 -11.1472 0
      vertex 8.88259 -11.18 0
    endloop
  endfacet
  facet normal -0 0 -1
    outer loop
      vertex 10.7527 -3.08587 0
      vertex 6.25759 -9.2728 0
      vertex 10.2039 -2.13537 0
    endloop
  endfacet
  facet normal 0 0 -1
    outer loop
      vertex 5.18403 -9.04461 0
      vertex 10.2039 -2.13537 0
      vertex 6.25759 -9.2728 0
    endloop
  endfacet
  facet normal 0 0 -1
    outer loop
      vertex 10.037 11.1472 0
      vertex 8.88259 11.18 0
      vertex 9.21038 11.7477 0
    endloop
  endfacet
  facet normal -0 0 -1
    outer loop
      vertex 10.2039 -2.13537 0
      vertex 5.18403 -9.04461 0
      vertex 9.86472 -1.09154 0
    endloop
  endfacet
  facet normal -0 0 -1
    outer loop
      vertex 10.037 11.1472 0
      vertex 8.14819 10.3643 0
      vertex 8.88259 11.18 0
    endloop
  endfacet
  facet normal 0 0 -1
    outer loop
      vertex 12.1353 8.81678 0
      vertex 7.26025 9.71921 0
      vertex 8.14819 10.3643 0
    endloop
  endfacet
  facet normal 0 0 -1
    outer loop
      vertex 12.1353 8.81678 0
      vertex 8.14819 10.3643 0
      vertex 10.037 11.1472 0
    endloop
  endfacet
  facet normal 0 0 -1
    outer loop
      vertex 4.08648 -9.04461 0
      vertex 9.86472 -1.09154 0
      vertex 5.18403 -9.04461 0
    endloop
  endfacet
  facet normal 0 0 -1
    outer loop
      vertex 10.7527 3.08587 0
      vertex 6.25759 9.2728 0
      vertex 7.26025 9.71921 0
    endloop
  endfacet
  facet normal -0 0 -1
    outer loop
      vertex 9.86472 -1.09154 0
      vertex 4.08648 -9.04461 0
      vertex 9.75 0 0
    endloop
  endfacet
  facet normal 0 0 -1
    outer loop
      vertex 10.2039 2.13537 0
      vertex 5.18403 9.04461 0
      vertex 6.25759 9.2728 0
    endloop
  endfacet
  facet normal 0 0 -1
    outer loop
      vertex 3.01292 -9.2728 0
      vertex 9.75 0 0
      vertex 4.08648 -9.04461 0
    endloop
  endfacet
  facet normal 0 0 -1
    outer loop
      vertex 9.86472 1.09154 0
      vertex 4.08648 9.04461 0
      vertex 5.18403 9.04461 0
    endloop
  endfacet
  facet normal 0 0 -1
    outer loop
      vertex 3.01292 9.2728 0
      vertex 9.75 0 0
      vertex 3.01292 -9.2728 0
    endloop
  endfacet
  facet normal 0 0 -1
    outer loop
      vertex 9.75 0 0
      vertex 3.01292 9.2728 0
      vertex 4.08648 9.04461 0
    endloop
  endfacet
  facet normal 0 0 -1
    outer loop
      vertex -7.33914 -6.68141 0
      vertex 3.01292 -9.2728 0
      vertex 2.01025 -9.71921 0
    endloop
  endfacet
  facet normal 0 0 -1
    outer loop
      vertex 3.01292 -9.2728 0
      vertex -7.33914 -6.68141 0
      vertex 3.01292 9.2728 0
    endloop
  endfacet
  facet normal 0 0 -1
    outer loop
      vertex -7.33914 -6.68141 0
      vertex 2.01025 -9.71921 0
      vertex 1.12232 -10.3643 0
    endloop
  endfacet
  facet normal 0 0 -1
    outer loop
      vertex -7.33914 6.68141 0
      vertex 3.01292 9.2728 0
      vertex -7.33914 -6.68141 0
    endloop
  endfacet
  facet normal 0 0 -1
    outer loop
      vertex -7.33914 -6.68141 0
      vertex 1.12232 -10.3643 0
      vertex 0.387916 -11.18 0
    endloop
  endfacet
  facet normal -0 0 -1
    outer loop
      vertex 3.01292 9.2728 0
      vertex -7.33914 6.68141 0
      vertex 2.01025 9.71921 0
    endloop
  endfacet
  facet normal 0 0 -1
    outer loop
      vertex -7.33914 -6.68141 0
      vertex 0.387916 -11.18 0
      vertex -0.160858 -12.1305 0
    endloop
  endfacet
  facet normal -0 0 -1
    outer loop
      vertex 2.01025 9.71921 0
      vertex -7.33914 6.68141 0
      vertex 1.12232 10.3643 0
    endloop
  endfacet
  facet normal 0 0 -1
    outer loop
      vertex -7.33914 -6.68141 0
      vertex -0.500019 -13.1743 0
      vertex -1.56793 -14.9178 0
    endloop
  endfacet
  facet normal 0 0 -1
    outer loop
      vertex -0.500019 -13.1743 0
      vertex -7.33914 -6.68141 0
      vertex -0.160858 -12.1305 0
    endloop
  endfacet
  facet normal 0 0 -1
    outer loop
      vertex -1.56793 -14.9178 0
      vertex -0.500019 -13.1743 0
      vertex -0.614744 -14.2658 0
    endloop
  endfacet
  facet normal 0 -0 -1
    outer loop
      vertex -6.99998 7.72524 0
      vertex 1.12232 10.3643 0
      vertex -7.33914 6.68141 0
    endloop
  endfacet
  facet normal 0 0 -1
    outer loop
      vertex -0.614744 14.2658 0
      vertex -1.56793 14.9178 0
      vertex -0.546218 14.9178 0
    endloop
  endfacet
  facet normal 0 -0 -1
    outer loop
      vertex -6.88525 8.81678 0
      vertex 0.387916 11.18 0
      vertex -6.99998 7.72524 0
    endloop
  endfacet
  facet normal 0 0 -1
    outer loop
      vertex -6.99998 -9.90831 0
      vertex -1.56793 -14.9178 0
      vertex -4.63525 -14.2658 0
    endloop
  endfacet
  facet normal 0 0 -1
    outer loop
      vertex -7.33914 -6.68141 0
      vertex -1.56793 -14.9178 0
      vertex -6.99998 -7.72524 0
    endloop
  endfacet
  facet normal 0 0 -1
    outer loop
      vertex -1.56793 -14.9178 0
      vertex -6.88525 -8.81678 0
      vertex -6.99998 -7.72524 0
    endloop
  endfacet
  facet normal 0 0 -1
    outer loop
      vertex -1.56793 -14.9178 0
      vertex -6.99998 -9.90831 0
      vertex -6.88525 -8.81678 0
    endloop
  endfacet
  facet normal 0 0 -1
    outer loop
      vertex -4.63525 -14.2658 0
      vertex -7.33914 -10.9521 0
      vertex -6.99998 -9.90831 0
    endloop
  endfacet
  facet normal 0 0 -1
    outer loop
      vertex -7.5 -12.9904 0
      vertex -7.33914 -10.9521 0
      vertex -4.63525 -14.2658 0
    endloop
  endfacet
  facet normal 0 0 -1
    outer loop
      vertex -7.5 -12.9904 0
      vertex -7.88792 -11.9027 0
      vertex -7.33914 -10.9521 0
    endloop
  endfacet
  facet normal 0 -0 -1
    outer loop
      vertex -7.88792 -11.9027 0
      vertex -7.5 -12.9904 0
      vertex -8.32658 -12.3898 0
    endloop
  endfacet
  facet normal 0 0 -1
    outer loop
      vertex -0.160858 12.1305 0
      vertex -4.63525 14.2658 0
      vertex -0.500019 13.1743 0
    endloop
  endfacet
  facet normal 0 -0 -1
    outer loop
      vertex -1.56793 14.9178 0
      vertex -0.500019 13.1743 0
      vertex -4.63525 14.2658 0
    endloop
  endfacet
  facet normal 0 0 -1
    outer loop
      vertex -6.99998 9.90831 0
      vertex -0.160858 12.1305 0
      vertex -6.88525 8.81678 0
    endloop
  endfacet
  facet normal 0 -0 -1
    outer loop
      vertex -4.63525 14.2658 0
      vertex -0.160858 12.1305 0
      vertex -6.99998 9.90831 0
    endloop
  endfacet
  facet normal 0 0 -1
    outer loop
      vertex -7.88792 -5.73091 0
      vertex -7.33914 6.68141 0
      vertex -7.33914 -6.68141 0
    endloop
  endfacet
  facet normal 0 0 -1
    outer loop
      vertex -7.88792 -5.73091 0
      vertex -7.88792 5.73091 0
      vertex -7.33914 6.68141 0
    endloop
  endfacet
  facet normal 0 0 -1
    outer loop
      vertex -8.62232 -4.91527 0
      vertex -7.88792 5.73091 0
      vertex -7.88792 -5.73091 0
    endloop
  endfacet
  facet normal 0 0 -1
    outer loop
      vertex -8.62232 -4.91527 0
      vertex -8.62232 4.91527 0
      vertex -7.88792 5.73091 0
    endloop
  endfacet
  facet normal 0 0 -1
    outer loop
      vertex -9.51025 -4.27014 0
      vertex -8.62232 4.91527 0
      vertex -8.62232 -4.91527 0
    endloop
  endfacet
  facet normal 0 0 -1
    outer loop
      vertex -9.51025 -4.27014 0
      vertex -9.51025 4.27014 0
      vertex -8.62232 4.91527 0
    endloop
  endfacet
  facet normal 0 0 -1
    outer loop
      vertex -10.5129 -3.82373 0
      vertex -9.51025 4.27014 0
      vertex -9.51025 -4.27014 0
    endloop
  endfacet
  facet normal 0 0 -1
    outer loop
      vertex -10.5129 -3.82373 0
      vertex -10.5129 3.82373 0
      vertex -9.51025 4.27014 0
    endloop
  endfacet
  facet normal 0 0 -1
    outer loop
      vertex -11.5865 -3.59554 0
      vertex -10.5129 3.82373 0
      vertex -10.5129 -3.82373 0
    endloop
  endfacet
  facet normal 0 0 -1
    outer loop
      vertex -11.5865 -3.59554 0
      vertex -11.5865 3.59554 0
      vertex -10.5129 3.82373 0
    endloop
  endfacet
  facet normal 0 0 -1
    outer loop
      vertex -15 0 0
      vertex -11.5865 -3.59554 0
      vertex -12.684 -3.59554 0
    endloop
  endfacet
  facet normal 0 0 -1
    outer loop
      vertex -11.5865 -3.59554 0
      vertex -15 0 0
      vertex -11.5865 3.59554 0
    endloop
  endfacet
  facet normal 0 0 -1
    outer loop
      vertex -14.6722 -3.11868 0
      vertex -12.684 -3.59554 0
      vertex -13.7576 -3.82373 0
    endloop
  endfacet
  facet normal -0 0 -1
    outer loop
      vertex -11.5865 3.59554 0
      vertex -15 0 0
      vertex -12.684 3.59554 0
    endloop
  endfacet
  facet normal 0 0 -1
    outer loop
      vertex -14.6722 -3.11868 0
      vertex -13.7576 -3.82373 0
      vertex -14.3565 -4.09038 0
    endloop
  endfacet
  facet normal 0 0 -1
    outer loop
      vertex -12.684 -3.59554 0
      vertex -14.6722 -3.11868 0
      vertex -15 0 0
    endloop
  endfacet
  facet normal 0 -0 -1
    outer loop
      vertex -14.6722 3.11868 0
      vertex -12.684 3.59554 0
      vertex -15 0 0
    endloop
  endfacet
  facet normal -0 0 -1
    outer loop
      vertex -12.684 3.59554 0
      vertex -14.6722 3.11868 0
      vertex -13.7576 3.82373 0
    endloop
  endfacet
  facet normal -0 0 -1
    outer loop
      vertex -13.7576 3.82373 0
      vertex -14.6722 3.11868 0
      vertex -14.3565 4.09038 0
    endloop
  endfacet
  facet normal -0 0 -1
    outer loop
      vertex 0.387916 11.18 0
      vertex -6.88525 8.81678 0
      vertex -0.160858 12.1305 0
    endloop
  endfacet
  facet normal 0 0 -1
    outer loop
      vertex -0.500019 13.1743 0
      vertex -1.56793 14.9178 0
      vertex -0.614744 14.2658 0
    endloop
  endfacet
  facet normal 0 0 -1
    outer loop
      vertex -7.33914 10.9521 0
      vertex -4.63525 14.2658 0
      vertex -6.99998 9.90831 0
    endloop
  endfacet
  facet normal 0 0 -1
    outer loop
      vertex -7.33914 10.9521 0
      vertex -7.5 12.9904 0
      vertex -4.63525 14.2658 0
    endloop
  endfacet
  facet normal 0 0 -1
    outer loop
      vertex -7.88792 11.9027 0
      vertex -7.5 12.9904 0
      vertex -7.33914 10.9521 0
    endloop
  endfacet
  facet normal 0 0 -1
    outer loop
      vertex -7.5 12.9904 0
      vertex -7.88792 11.9027 0
      vertex -8.32658 12.3898 0
    endloop
  endfacet
  facet normal 0.866025 -0.5 0
    outer loop
      vertex 10.2039 2.13537 3
      vertex 10.7527 3.08587 0
      vertex 10.7527 3.08587 3
    endloop
  endfacet
  facet normal 0.866025 -0.5 0
    outer loop
      vertex 10.7527 3.08587 0
      vertex 10.2039 2.13537 3
      vertex 10.2039 2.13537 0
    endloop
  endfacet
  facet normal 0.994522 -0.104528 0
    outer loop
      vertex 9.75 0 3
      vertex 9.86472 1.09154 0
      vertex 9.86472 1.09154 3
    endloop
  endfacet
  facet normal 0.994522 -0.104528 0
    outer loop
      vertex 9.86472 1.09154 0
      vertex 9.75 0 3
      vertex 9.75 0 0
    endloop
  endfacet
  facet normal 0.587785 -0.809018 0
    outer loop
      vertex 11.4871 3.90151 0
      vertex 12.375 4.54663 3
      vertex 11.4871 3.90151 3
    endloop
  endfacet
  facet normal 0.587785 -0.809018 0
    outer loop
      vertex 12.375 4.54663 3
      vertex 11.4871 3.90151 0
      vertex 12.375 4.54663 0
    endloop
  endfacet
  facet normal 0.207912 -0.978148 0
    outer loop
      vertex 13.3777 4.99305 0
      vertex 14.0189 5.12935 3
      vertex 13.3777 4.99305 3
    endloop
  endfacet
  facet normal 0.207912 -0.978148 0
    outer loop
      vertex 14.0189 5.12935 3
      vertex 13.3777 4.99305 0
      vertex 14.0189 5.12935 0
    endloop
  endfacet
  facet normal 0.587785 0.809017 -0
    outer loop
      vertex 12.375 -4.54663 0
      vertex 11.4871 -3.90151 3
      vertex 12.375 -4.54663 3
    endloop
  endfacet
  facet normal 0.587785 0.809017 0
    outer loop
      vertex 11.4871 -3.90151 3
      vertex 12.375 -4.54663 0
      vertex 11.4871 -3.90151 0
    endloop
  endfacet
  facet normal 0.207912 0.978148 -0
    outer loop
      vertex 14.0189 -5.12935 0
      vertex 13.3777 -4.99305 3
      vertex 14.0189 -5.12935 3
    endloop
  endfacet
  facet normal 0.207912 0.978148 0
    outer loop
      vertex 13.3777 -4.99305 3
      vertex 14.0189 -5.12935 0
      vertex 13.3777 -4.99305 0
    endloop
  endfacet
  facet normal 0.866025 0.5 0
    outer loop
      vertex 10.7527 -3.08587 3
      vertex 10.2039 -2.13537 0
      vertex 10.2039 -2.13537 3
    endloop
  endfacet
  facet normal 0.866025 0.5 0
    outer loop
      vertex 10.2039 -2.13537 0
      vertex 10.7527 -3.08587 3
      vertex 10.7527 -3.08587 0
    endloop
  endfacet
  facet normal 0.743146 0.66913 0
    outer loop
      vertex 11.4871 -3.90151 3
      vertex 10.7527 -3.08587 0
      vertex 10.7527 -3.08587 3
    endloop
  endfacet
  facet normal 0.743146 0.66913 0
    outer loop
      vertex 10.7527 -3.08587 0
      vertex 11.4871 -3.90151 3
      vertex 11.4871 -3.90151 0
    endloop
  endfacet
  facet normal 0.994522 0.104528 0
    outer loop
      vertex 9.86472 -1.09154 3
      vertex 9.75 0 0
      vertex 9.75 0 3
    endloop
  endfacet
  facet normal 0.994522 0.104528 0
    outer loop
      vertex 9.75 0 0
      vertex 9.86472 -1.09154 3
      vertex 9.86472 -1.09154 0
    endloop
  endfacet
  facet normal 0.406736 0.913546 -0
    outer loop
      vertex 13.3777 -4.99305 0
      vertex 12.375 -4.54663 3
      vertex 13.3777 -4.99305 3
    endloop
  endfacet
  facet normal 0.406736 0.913546 0
    outer loop
      vertex 12.375 -4.54663 3
      vertex 13.3777 -4.99305 0
      vertex 12.375 -4.54663 0
    endloop
  endfacet
  facet normal 0.207912 0.978148 -0
    outer loop
      vertex 4.08648 9.04461 0
      vertex 3.01292 9.2728 3
      vertex 4.08648 9.04461 3
    endloop
  endfacet
  facet normal 0.207912 0.978148 0
    outer loop
      vertex 3.01292 9.2728 3
      vertex 4.08648 9.04461 0
      vertex 3.01292 9.2728 0
    endloop
  endfacet
  facet normal 0.994522 -0.104528 0
    outer loop
      vertex -0.614744 14.2658 3
      vertex -0.546218 14.9178 0
      vertex -0.546218 14.9178 3
    endloop
  endfacet
  facet normal 0.994522 -0.104528 0
    outer loop
      vertex -0.546218 14.9178 0
      vertex -0.614744 14.2658 3
      vertex -0.614744 14.2658 0
    endloop
  endfacet
  facet normal 0.994522 0.104528 0
    outer loop
      vertex -0.500019 13.1743 3
      vertex -0.614744 14.2658 0
      vertex -0.614744 14.2658 3
    endloop
  endfacet
  facet normal 0.994522 0.104528 0
    outer loop
      vertex -0.614744 14.2658 0
      vertex -0.500019 13.1743 3
      vertex -0.500019 13.1743 0
    endloop
  endfacet
  facet normal -0.406736 0.913546 0
    outer loop
      vertex 7.26025 9.71921 0
      vertex 6.25759 9.2728 3
      vertex 7.26025 9.71921 3
    endloop
  endfacet
  facet normal -0.406736 0.913546 0
    outer loop
      vertex 6.25759 9.2728 3
      vertex 7.26025 9.71921 0
      vertex 6.25759 9.2728 0
    endloop
  endfacet
  facet normal 0.743145 0.669131 0
    outer loop
      vertex 1.12232 10.3643 3
      vertex 0.387916 11.18 0
      vertex 0.387916 11.18 3
    endloop
  endfacet
  facet normal 0.743145 0.669131 0
    outer loop
      vertex 0.387916 11.18 0
      vertex 1.12232 10.3643 3
      vertex 1.12232 10.3643 0
    endloop
  endfacet
  facet normal 0.406736 0.913546 -0
    outer loop
      vertex 3.01292 9.2728 0
      vertex 2.01025 9.71921 3
      vertex 3.01292 9.2728 3
    endloop
  endfacet
  facet normal 0.406736 0.913546 0
    outer loop
      vertex 2.01025 9.71921 3
      vertex 3.01292 9.2728 0
      vertex 2.01025 9.71921 0
    endloop
  endfacet
  facet normal 0.951057 0.309017 0
    outer loop
      vertex -0.160858 12.1305 3
      vertex -0.500019 13.1743 0
      vertex -0.500019 13.1743 3
    endloop
  endfacet
  facet normal 0.951057 0.309017 0
    outer loop
      vertex -0.500019 13.1743 0
      vertex -0.160858 12.1305 3
      vertex -0.160858 12.1305 0
    endloop
  endfacet
  facet normal 0 1 -0
    outer loop
      vertex 5.18403 9.04461 0
      vertex 4.08648 9.04461 3
      vertex 5.18403 9.04461 3
    endloop
  endfacet
  facet normal 0 1 0
    outer loop
      vertex 4.08648 9.04461 3
      vertex 5.18403 9.04461 0
      vertex 4.08648 9.04461 0
    endloop
  endfacet
  facet normal 0.587786 0.809017 -0
    outer loop
      vertex 2.01025 9.71921 0
      vertex 1.12232 10.3643 3
      vertex 2.01025 9.71921 3
    endloop
  endfacet
  facet normal 0.587786 0.809017 0
    outer loop
      vertex 1.12232 10.3643 3
      vertex 2.01025 9.71921 0
      vertex 1.12232 10.3643 0
    endloop
  endfacet
  facet normal 0.866026 0.5 0
    outer loop
      vertex 0.387916 11.18 3
      vertex -0.160858 12.1305 0
      vertex -0.160858 12.1305 3
    endloop
  endfacet
  facet normal 0.866026 0.5 0
    outer loop
      vertex -0.160858 12.1305 0
      vertex 0.387916 11.18 3
      vertex 0.387916 11.18 0
    endloop
  endfacet
  facet normal -0.743145 0.669131 0
    outer loop
      vertex 8.14819 10.3643 0
      vertex 8.88259 11.18 3
      vertex 8.88259 11.18 0
    endloop
  endfacet
  facet normal -0.743145 0.669131 0
    outer loop
      vertex 8.88259 11.18 3
      vertex 8.14819 10.3643 0
      vertex 8.14819 10.3643 3
    endloop
  endfacet
  facet normal -0.587786 0.809017 0
    outer loop
      vertex 8.14819 10.3643 0
      vertex 7.26025 9.71921 3
      vertex 8.14819 10.3643 3
    endloop
  endfacet
  facet normal -0.587786 0.809017 0
    outer loop
      vertex 7.26025 9.71921 3
      vertex 8.14819 10.3643 0
      vertex 7.26025 9.71921 0
    endloop
  endfacet
  facet normal -0.207912 0.978148 0
    outer loop
      vertex 6.25759 9.2728 0
      vertex 5.18403 9.04461 3
      vertex 6.25759 9.2728 3
    endloop
  endfacet
  facet normal -0.207912 0.978148 0
    outer loop
      vertex 5.18403 9.04461 3
      vertex 6.25759 9.2728 0
      vertex 5.18403 9.04461 0
    endloop
  endfacet
  facet normal -0.866026 0.499999 0
    outer loop
      vertex 8.88259 11.18 0
      vertex 9.21038 11.7477 3
      vertex 9.21038 11.7477 0
    endloop
  endfacet
  facet normal -0.866026 0.499999 0
    outer loop
      vertex 9.21038 11.7477 3
      vertex 8.88259 11.18 0
      vertex 8.88259 11.18 3
    endloop
  endfacet
  facet normal -0.951057 -0.309017 0
    outer loop
      vertex -6.99998 9.90831 0
      vertex -7.33914 10.9521 3
      vertex -7.33914 10.9521 0
    endloop
  endfacet
  facet normal -0.951057 -0.309017 0
    outer loop
      vertex -7.33914 10.9521 3
      vertex -6.99998 9.90831 0
      vertex -6.99998 9.90831 3
    endloop
  endfacet
  facet normal -0.866025 -0.5 0
    outer loop
      vertex -7.33914 10.9521 0
      vertex -7.88792 11.9027 3
      vertex -7.88792 11.9027 0
    endloop
  endfacet
  facet normal -0.866025 -0.5 0
    outer loop
      vertex -7.88792 11.9027 3
      vertex -7.33914 10.9521 0
      vertex -7.33914 10.9521 3
    endloop
  endfacet
  facet normal -0.406736 0.913546 0
    outer loop
      vertex -9.51025 4.27014 0
      vertex -10.5129 3.82373 3
      vertex -9.51025 4.27014 3
    endloop
  endfacet
  facet normal -0.406736 0.913546 0
    outer loop
      vertex -10.5129 3.82373 3
      vertex -9.51025 4.27014 0
      vertex -10.5129 3.82373 0
    endloop
  endfacet
  facet normal -0.743145 0.669131 0
    outer loop
      vertex -8.62232 4.91527 0
      vertex -7.88792 5.73091 3
      vertex -7.88792 5.73091 0
    endloop
  endfacet
  facet normal -0.743145 0.669131 0
    outer loop
      vertex -7.88792 5.73091 3
      vertex -8.62232 4.91527 0
      vertex -8.62232 4.91527 3
    endloop
  endfacet
  facet normal 0 1 -0
    outer loop
      vertex -11.5865 3.59554 0
      vertex -12.684 3.59554 3
      vertex -11.5865 3.59554 3
    endloop
  endfacet
  facet normal 0 1 0
    outer loop
      vertex -12.684 3.59554 3
      vertex -11.5865 3.59554 0
      vertex -12.684 3.59554 0
    endloop
  endfacet
  facet normal 0.406737 0.913545 -0
    outer loop
      vertex -13.7576 3.82373 0
      vertex -14.3565 4.09038 3
      vertex -13.7576 3.82373 3
    endloop
  endfacet
  facet normal 0.406737 0.913545 0
    outer loop
      vertex -14.3565 4.09038 3
      vertex -13.7576 3.82373 0
      vertex -14.3565 4.09038 0
    endloop
  endfacet
  facet normal -0.743144 -0.669131 0
    outer loop
      vertex -7.88792 11.9027 0
      vertex -8.32658 12.3898 3
      vertex -8.32658 12.3898 0
    endloop
  endfacet
  facet normal -0.743144 -0.669131 0
    outer loop
      vertex -8.32658 12.3898 3
      vertex -7.88792 11.9027 0
      vertex -7.88792 11.9027 3
    endloop
  endfacet
  facet normal -0.994522 -0.104528 0
    outer loop
      vertex -6.88525 8.81678 0
      vertex -6.99998 9.90831 3
      vertex -6.99998 9.90831 0
    endloop
  endfacet
  facet normal -0.994522 -0.104528 0
    outer loop
      vertex -6.99998 9.90831 3
      vertex -6.88525 8.81678 0
      vertex -6.88525 8.81678 3
    endloop
  endfacet
  facet normal -0.951057 0.309017 0
    outer loop
      vertex -7.33914 6.68141 0
      vertex -6.99998 7.72524 3
      vertex -6.99998 7.72524 0
    endloop
  endfacet
  facet normal -0.951057 0.309017 0
    outer loop
      vertex -6.99998 7.72524 3
      vertex -7.33914 6.68141 0
      vertex -7.33914 6.68141 3
    endloop
  endfacet
  facet normal -0.587786 0.809017 0
    outer loop
      vertex -8.62232 4.91527 0
      vertex -9.51025 4.27014 3
      vertex -8.62232 4.91527 3
    endloop
  endfacet
  facet normal -0.587786 0.809017 0
    outer loop
      vertex -9.51025 4.27014 3
      vertex -8.62232 4.91527 0
      vertex -9.51025 4.27014 0
    endloop
  endfacet
  facet normal -0.866025 0.5 0
    outer loop
      vertex -7.88792 5.73091 0
      vertex -7.33914 6.68141 3
      vertex -7.33914 6.68141 0
    endloop
  endfacet
  facet normal -0.866025 0.5 0
    outer loop
      vertex -7.33914 6.68141 3
      vertex -7.88792 5.73091 0
      vertex -7.88792 5.73091 3
    endloop
  endfacet
  facet normal -0.207912 0.978148 0
    outer loop
      vertex -10.5129 3.82373 0
      vertex -11.5865 3.59554 3
      vertex -10.5129 3.82373 3
    endloop
  endfacet
  facet normal -0.207912 0.978148 0
    outer loop
      vertex -11.5865 3.59554 3
      vertex -10.5129 3.82373 0
      vertex -11.5865 3.59554 0
    endloop
  endfacet
  facet normal 0.207912 0.978148 -0
    outer loop
      vertex -12.684 3.59554 0
      vertex -13.7576 3.82373 3
      vertex -12.684 3.59554 3
    endloop
  endfacet
  facet normal 0.207912 0.978148 0
    outer loop
      vertex -13.7576 3.82373 3
      vertex -12.684 3.59554 0
      vertex -13.7576 3.82373 0
    endloop
  endfacet
  facet normal -0.994522 0.104528 0
    outer loop
      vertex -6.99998 7.72524 0
      vertex -6.88525 8.81678 3
      vertex -6.88525 8.81678 0
    endloop
  endfacet
  facet normal -0.994522 0.104528 0
    outer loop
      vertex -6.88525 8.81678 3
      vertex -6.99998 7.72524 0
      vertex -6.99998 7.72524 3
    endloop
  endfacet
  facet normal -0.866025 -0.5 0
    outer loop
      vertex -7.33914 -6.68141 0
      vertex -7.88792 -5.73091 3
      vertex -7.88792 -5.73091 0
    endloop
  endfacet
  facet normal -0.866025 -0.5 0
    outer loop
      vertex -7.88792 -5.73091 3
      vertex -7.33914 -6.68141 0
      vertex -7.33914 -6.68141 3
    endloop
  endfacet
  facet normal -0.994522 -0.104528 0
    outer loop
      vertex -6.88525 -8.81678 0
      vertex -6.99998 -7.72524 3
      vertex -6.99998 -7.72524 0
    endloop
  endfacet
  facet normal -0.994522 -0.104528 0
    outer loop
      vertex -6.99998 -7.72524 3
      vertex -6.88525 -8.81678 0
      vertex -6.88525 -8.81678 3
    endloop
  endfacet
  facet normal -0.994522 0.104528 0
    outer loop
      vertex -6.99998 -9.90831 0
      vertex -6.88525 -8.81678 3
      vertex -6.88525 -8.81678 0
    endloop
  endfacet
  facet normal -0.994522 0.104528 0
    outer loop
      vertex -6.88525 -8.81678 3
      vertex -6.99998 -9.90831 0
      vertex -6.99998 -9.90831 3
    endloop
  endfacet
  facet normal -0.951057 -0.309017 0
    outer loop
      vertex -6.99998 -7.72524 0
      vertex -7.33914 -6.68141 3
      vertex -7.33914 -6.68141 0
    endloop
  endfacet
  facet normal -0.951057 -0.309017 0
    outer loop
      vertex -7.33914 -6.68141 3
      vertex -6.99998 -7.72524 0
      vertex -6.99998 -7.72524 3
    endloop
  endfacet
  facet normal -0.951057 0.309017 0
    outer loop
      vertex -7.33914 -10.9521 0
      vertex -6.99998 -9.90831 3
      vertex -6.99998 -9.90831 0
    endloop
  endfacet
  facet normal -0.951057 0.309017 0
    outer loop
      vertex -6.99998 -9.90831 3
      vertex -7.33914 -10.9521 0
      vertex -7.33914 -10.9521 3
    endloop
  endfacet
  facet normal -0.743144 0.669131 0
    outer loop
      vertex -8.32658 -12.3898 0
      vertex -7.88792 -11.9027 3
      vertex -7.88792 -11.9027 0
    endloop
  endfacet
  facet normal -0.743144 0.669131 0
    outer loop
      vertex -7.88792 -11.9027 3
      vertex -8.32658 -12.3898 0
      vertex -8.32658 -12.3898 3
    endloop
  endfacet
  facet normal -0.866025 0.5 0
    outer loop
      vertex -7.88792 -11.9027 0
      vertex -7.33914 -10.9521 3
      vertex -7.33914 -10.9521 0
    endloop
  endfacet
  facet normal -0.866025 0.5 0
    outer loop
      vertex -7.33914 -10.9521 3
      vertex -7.88792 -11.9027 0
      vertex -7.88792 -11.9027 3
    endloop
  endfacet
  facet normal -0.207912 -0.978148 0
    outer loop
      vertex -11.5865 -3.59554 0
      vertex -10.5129 -3.82373 3
      vertex -11.5865 -3.59554 3
    endloop
  endfacet
  facet normal -0.207912 -0.978148 -0
    outer loop
      vertex -10.5129 -3.82373 3
      vertex -11.5865 -3.59554 0
      vertex -10.5129 -3.82373 0
    endloop
  endfacet
  facet normal 0.406737 -0.913545 0
    outer loop
      vertex -14.3565 -4.09038 0
      vertex -13.7576 -3.82373 3
      vertex -14.3565 -4.09038 3
    endloop
  endfacet
  facet normal 0.406737 -0.913545 0
    outer loop
      vertex -13.7576 -3.82373 3
      vertex -14.3565 -4.09038 0
      vertex -13.7576 -3.82373 0
    endloop
  endfacet
  facet normal -0.406736 -0.913546 0
    outer loop
      vertex -10.5129 -3.82373 0
      vertex -9.51025 -4.27014 3
      vertex -10.5129 -3.82373 3
    endloop
  endfacet
  facet normal -0.406736 -0.913546 -0
    outer loop
      vertex -9.51025 -4.27014 3
      vertex -10.5129 -3.82373 0
      vertex -9.51025 -4.27014 0
    endloop
  endfacet
  facet normal -0.587786 -0.809017 0
    outer loop
      vertex -9.51025 -4.27014 0
      vertex -8.62232 -4.91527 3
      vertex -9.51025 -4.27014 3
    endloop
  endfacet
  facet normal -0.587786 -0.809017 -0
    outer loop
      vertex -8.62232 -4.91527 3
      vertex -9.51025 -4.27014 0
      vertex -8.62232 -4.91527 0
    endloop
  endfacet
  facet normal -0.743145 -0.669131 0
    outer loop
      vertex -7.88792 -5.73091 0
      vertex -8.62232 -4.91527 3
      vertex -8.62232 -4.91527 0
    endloop
  endfacet
  facet normal -0.743145 -0.669131 0
    outer loop
      vertex -8.62232 -4.91527 3
      vertex -7.88792 -5.73091 0
      vertex -7.88792 -5.73091 3
    endloop
  endfacet
  facet normal 0.207912 -0.978148 0
    outer loop
      vertex -13.7576 -3.82373 0
      vertex -12.684 -3.59554 3
      vertex -13.7576 -3.82373 3
    endloop
  endfacet
  facet normal 0.207912 -0.978148 0
    outer loop
      vertex -12.684 -3.59554 3
      vertex -13.7576 -3.82373 0
      vertex -12.684 -3.59554 0
    endloop
  endfacet
  facet normal 0 -1 0
    outer loop
      vertex -12.684 -3.59554 0
      vertex -11.5865 -3.59554 3
      vertex -12.684 -3.59554 3
    endloop
  endfacet
  facet normal 0 -1 -0
    outer loop
      vertex -11.5865 -3.59554 3
      vertex -12.684 -3.59554 0
      vertex -11.5865 -3.59554 0
    endloop
  endfacet
  facet normal 0.207912 -0.978148 0
    outer loop
      vertex 3.01292 -9.2728 0
      vertex 4.08648 -9.04461 3
      vertex 3.01292 -9.2728 3
    endloop
  endfacet
  facet normal 0.207912 -0.978148 0
    outer loop
      vertex 4.08648 -9.04461 3
      vertex 3.01292 -9.2728 0
      vertex 4.08648 -9.04461 0
    endloop
  endfacet
  facet normal 0.866026 -0.5 0
    outer loop
      vertex -0.160858 -12.1305 3
      vertex 0.387916 -11.18 0
      vertex 0.387916 -11.18 3
    endloop
  endfacet
  facet normal 0.866026 -0.5 0
    outer loop
      vertex 0.387916 -11.18 0
      vertex -0.160858 -12.1305 3
      vertex -0.160858 -12.1305 0
    endloop
  endfacet
  facet normal -0.587786 -0.809017 0
    outer loop
      vertex 7.26025 -9.71921 0
      vertex 8.14819 -10.3643 3
      vertex 7.26025 -9.71921 3
    endloop
  endfacet
  facet normal -0.587786 -0.809017 -0
    outer loop
      vertex 8.14819 -10.3643 3
      vertex 7.26025 -9.71921 0
      vertex 8.14819 -10.3643 0
    endloop
  endfacet
  facet normal -0.866026 -0.499999 0
    outer loop
      vertex 9.21038 -11.7477 0
      vertex 8.88259 -11.18 3
      vertex 8.88259 -11.18 0
    endloop
  endfacet
  facet normal -0.866026 -0.499999 0
    outer loop
      vertex 8.88259 -11.18 3
      vertex 9.21038 -11.7477 0
      vertex 9.21038 -11.7477 3
    endloop
  endfacet
  facet normal 0.587786 -0.809017 0
    outer loop
      vertex 1.12232 -10.3643 0
      vertex 2.01025 -9.71921 3
      vertex 1.12232 -10.3643 3
    endloop
  endfacet
  facet normal 0.587786 -0.809017 0
    outer loop
      vertex 2.01025 -9.71921 3
      vertex 1.12232 -10.3643 0
      vertex 2.01025 -9.71921 0
    endloop
  endfacet
  facet normal -0.207912 -0.978148 0
    outer loop
      vertex 5.18403 -9.04461 0
      vertex 6.25759 -9.2728 3
      vertex 5.18403 -9.04461 3
    endloop
  endfacet
  facet normal -0.207912 -0.978148 -0
    outer loop
      vertex 6.25759 -9.2728 3
      vertex 5.18403 -9.04461 0
      vertex 6.25759 -9.2728 0
    endloop
  endfacet
  facet normal -0.406736 -0.913546 0
    outer loop
      vertex 6.25759 -9.2728 0
      vertex 7.26025 -9.71921 3
      vertex 6.25759 -9.2728 3
    endloop
  endfacet
  facet normal -0.406736 -0.913546 -0
    outer loop
      vertex 7.26025 -9.71921 3
      vertex 6.25759 -9.2728 0
      vertex 7.26025 -9.71921 0
    endloop
  endfacet
  facet normal 0 -1 0
    outer loop
      vertex 4.08648 -9.04461 0
      vertex 5.18403 -9.04461 3
      vertex 4.08648 -9.04461 3
    endloop
  endfacet
  facet normal 0 -1 -0
    outer loop
      vertex 5.18403 -9.04461 3
      vertex 4.08648 -9.04461 0
      vertex 5.18403 -9.04461 0
    endloop
  endfacet
  facet normal -0.743145 -0.669131 0
    outer loop
      vertex 8.88259 -11.18 0
      vertex 8.14819 -10.3643 3
      vertex 8.14819 -10.3643 0
    endloop
  endfacet
  facet normal -0.743145 -0.669131 0
    outer loop
      vertex 8.14819 -10.3643 3
      vertex 8.88259 -11.18 0
      vertex 8.88259 -11.18 3
    endloop
  endfacet
  facet normal 0.994522 -0.104528 0
    outer loop
      vertex -0.614744 -14.2658 3
      vertex -0.500019 -13.1743 0
      vertex -0.500019 -13.1743 3
    endloop
  endfacet
  facet normal 0.994522 -0.104528 0
    outer loop
      vertex -0.500019 -13.1743 0
      vertex -0.614744 -14.2658 3
      vertex -0.614744 -14.2658 0
    endloop
  endfacet
  facet normal 0.951057 -0.309017 0
    outer loop
      vertex -0.500019 -13.1743 3
      vertex -0.160858 -12.1305 0
      vertex -0.160858 -12.1305 3
    endloop
  endfacet
  facet normal 0.951057 -0.309017 0
    outer loop
      vertex -0.160858 -12.1305 0
      vertex -0.500019 -13.1743 3
      vertex -0.500019 -13.1743 0
    endloop
  endfacet
  facet normal 0.994522 0.104528 0
    outer loop
      vertex -0.546218 -14.9178 3
      vertex -0.614744 -14.2658 0
      vertex -0.614744 -14.2658 3
    endloop
  endfacet
  facet normal 0.994522 0.104528 0
    outer loop
      vertex -0.614744 -14.2658 0
      vertex -0.546218 -14.9178 3
      vertex -0.546218 -14.9178 0
    endloop
  endfacet
  facet normal 0.743145 -0.669131 0
    outer loop
      vertex 0.387916 -11.18 3
      vertex 1.12232 -10.3643 0
      vertex 1.12232 -10.3643 3
    endloop
  endfacet
  facet normal 0.743145 -0.669131 0
    outer loop
      vertex 1.12232 -10.3643 0
      vertex 0.387916 -11.18 3
      vertex 0.387916 -11.18 0
    endloop
  endfacet
  facet normal 0.406736 -0.913546 0
    outer loop
      vertex 2.01025 -9.71921 0
      vertex 3.01292 -9.2728 3
      vertex 2.01025 -9.71921 3
    endloop
  endfacet
  facet normal 0.406736 -0.913546 0
    outer loop
      vertex 3.01292 -9.2728 3
      vertex 2.01025 -9.71921 0
      vertex 3.01292 -9.2728 0
    endloop
  endfacet
  facet normal -0.994522 0.104529 0
    outer loop
      vertex -15 0 0
      vertex -14.6722 3.11868 3
      vertex -14.6722 3.11868 0
    endloop
  endfacet
  facet normal -0.994522 0.104529 0
    outer loop
      vertex -14.6722 3.11868 3
      vertex -15 0 0
      vertex -15 0 3
    endloop
  endfacet
  facet normal 0 1 -0
    outer loop
      vertex -0.546218 14.9178 0
      vertex -1.56793 14.9178 3
      vertex -0.546218 14.9178 3
    endloop
  endfacet
  facet normal 0 1 0
    outer loop
      vertex -1.56793 14.9178 3
      vertex -0.546218 14.9178 0
      vertex -1.56793 14.9178 0
    endloop
  endfacet
  facet normal 0 -1 0
    outer loop
      vertex -1.56793 -14.9178 0
      vertex -0.546218 -14.9178 3
      vertex -1.56793 -14.9178 3
    endloop
  endfacet
  facet normal 0 -1 -0
    outer loop
      vertex -0.546218 -14.9178 3
      vertex -1.56793 -14.9178 0
      vertex -0.546218 -14.9178 0
    endloop
  endfacet
  facet normal 0.743145 0.669131 0
    outer loop
      vertex 12.1353 8.81678 3
      vertex 10.037 11.1472 0
      vertex 10.037 11.1472 3
    endloop
  endfacet
  facet normal 0.743145 0.669131 0
    outer loop
      vertex 10.037 11.1472 0
      vertex 12.1353 8.81678 3
      vertex 12.1353 8.81678 0
    endloop
  endfacet
  facet normal -0.587785 0.809017 0
    outer loop
      vertex -7.5 12.9904 0
      vertex -8.32658 12.3898 3
      vertex -7.5 12.9904 3
    endloop
  endfacet
  facet normal -0.587785 0.809017 0
    outer loop
      vertex -8.32658 12.3898 3
      vertex -7.5 12.9904 0
      vertex -8.32658 12.3898 0
    endloop
  endfacet
  facet normal -0.207912 0.978148 0
    outer loop
      vertex -1.56793 14.9178 0
      vertex -4.63525 14.2658 3
      vertex -1.56793 14.9178 3
    endloop
  endfacet
  facet normal -0.207912 0.978148 0
    outer loop
      vertex -4.63525 14.2658 3
      vertex -1.56793 14.9178 0
      vertex -4.63525 14.2658 0
    endloop
  endfacet
  facet normal 0.951057 -0.309017 0
    outer loop
      vertex 13.7032 -6.10105 3
      vertex 14.0189 -5.12935 0
      vertex 14.0189 -5.12935 3
    endloop
  endfacet
  facet normal 0.951057 -0.309017 0
    outer loop
      vertex 14.0189 -5.12935 0
      vertex 13.7032 -6.10105 3
      vertex 13.7032 -6.10105 0
    endloop
  endfacet
  facet normal 0.866025 0.5 0
    outer loop
      vertex 13.7032 6.10105 3
      vertex 12.1353 8.81678 0
      vertex 12.1353 8.81678 3
    endloop
  endfacet
  facet normal 0.866025 0.5 0
    outer loop
      vertex 12.1353 8.81678 0
      vertex 13.7032 6.10105 3
      vertex 13.7032 6.10105 0
    endloop
  endfacet
  facet normal 0.951057 0.309017 0
    outer loop
      vertex 14.0189 5.12935 3
      vertex 13.7032 6.10105 0
      vertex 13.7032 6.10105 3
    endloop
  endfacet
  facet normal 0.951057 0.309017 0
    outer loop
      vertex 13.7032 6.10105 0
      vertex 14.0189 5.12935 3
      vertex 14.0189 5.12935 0
    endloop
  endfacet
  facet normal 0.587785 0.809017 -0
    outer loop
      vertex 10.037 11.1472 0
      vertex 9.21038 11.7477 3
      vertex 10.037 11.1472 3
    endloop
  endfacet
  facet normal 0.587785 0.809017 0
    outer loop
      vertex 9.21038 11.7477 3
      vertex 10.037 11.1472 0
      vertex 9.21038 11.7477 0
    endloop
  endfacet
  facet normal -0.951056 0.309017 0
    outer loop
      vertex -14.6722 3.11868 0
      vertex -14.3565 4.09038 3
      vertex -14.3565 4.09038 0
    endloop
  endfacet
  facet normal -0.951056 0.309017 0
    outer loop
      vertex -14.3565 4.09038 3
      vertex -14.6722 3.11868 0
      vertex -14.6722 3.11868 3
    endloop
  endfacet
  facet normal -0.406737 0.913545 0
    outer loop
      vertex -4.63525 14.2658 0
      vertex -7.5 12.9904 3
      vertex -4.63525 14.2658 3
    endloop
  endfacet
  facet normal -0.406737 0.913545 0
    outer loop
      vertex -7.5 12.9904 3
      vertex -4.63525 14.2658 0
      vertex -7.5 12.9904 0
    endloop
  endfacet
  facet normal 0.866025 -0.5 0
    outer loop
      vertex 12.1353 -8.81678 3
      vertex 13.7032 -6.10105 0
      vertex 13.7032 -6.10105 3
    endloop
  endfacet
  facet normal 0.866025 -0.5 0
    outer loop
      vertex 13.7032 -6.10105 0
      vertex 12.1353 -8.81678 3
      vertex 12.1353 -8.81678 0
    endloop
  endfacet
  facet normal -0.587785 -0.809017 0
    outer loop
      vertex -8.32658 -12.3898 0
      vertex -7.5 -12.9904 3
      vertex -8.32658 -12.3898 3
    endloop
  endfacet
  facet normal -0.587785 -0.809017 -0
    outer loop
      vertex -7.5 -12.9904 3
      vertex -8.32658 -12.3898 0
      vertex -7.5 -12.9904 0
    endloop
  endfacet
  facet normal 0.587785 -0.809017 0
    outer loop
      vertex 9.21038 -11.7477 0
      vertex 10.037 -11.1472 3
      vertex 9.21038 -11.7477 3
    endloop
  endfacet
  facet normal 0.587785 -0.809017 0
    outer loop
      vertex 10.037 -11.1472 3
      vertex 9.21038 -11.7477 0
      vertex 10.037 -11.1472 0
    endloop
  endfacet
  facet normal -0.207912 -0.978148 0
    outer loop
      vertex -4.63525 -14.2658 0
      vertex -1.56793 -14.9178 3
      vertex -4.63525 -14.2658 3
    endloop
  endfacet
  facet normal -0.207912 -0.978148 -0
    outer loop
      vertex -1.56793 -14.9178 3
      vertex -4.63525 -14.2658 0
      vertex -1.56793 -14.9178 0
    endloop
  endfacet
  facet normal -0.951056 -0.309017 0
    outer loop
      vertex -14.3565 -4.09038 0
      vertex -14.6722 -3.11868 3
      vertex -14.6722 -3.11868 0
    endloop
  endfacet
  facet normal -0.951056 -0.309017 0
    outer loop
      vertex -14.6722 -3.11868 3
      vertex -14.3565 -4.09038 0
      vertex -14.3565 -4.09038 3
    endloop
  endfacet
  facet normal -0.994522 -0.104529 0
    outer loop
      vertex -14.6722 -3.11868 0
      vertex -15 0 3
      vertex -15 0 0
    endloop
  endfacet
  facet normal -0.994522 -0.104529 0
    outer loop
      vertex -15 0 3
      vertex -14.6722 -3.11868 0
      vertex -14.6722 -3.11868 3
    endloop
  endfacet
  facet normal 0.743145 -0.669131 0
    outer loop
      vertex 10.037 -11.1472 3
      vertex 12.1353 -8.81678 0
      vertex 12.1353 -8.81678 3
    endloop
  endfacet
  facet normal 0.743145 -0.669131 0
    outer loop
      vertex 12.1353 -8.81678 0
      vertex 10.037 -11.1472 3
      vertex 10.037 -11.1472 0
    endloop
  endfacet
  facet normal -0.406737 -0.913545 0
    outer loop
      vertex -7.5 -12.9904 0
      vertex -4.63525 -14.2658 3
      vertex -7.5 -12.9904 3
    endloop
  endfacet
  facet normal -0.406737 -0.913545 -0
    outer loop
      vertex -4.63525 -14.2658 3
      vertex -7.5 -12.9904 0
      vertex -4.63525 -14.2658 0
    endloop
  endfacet
endsolid OpenSCAD_Model
