solid OpenSCAD_Model
  facet normal 0.992115 0.125333 0
    outer loop
      vertex 5.3 0 5.5
      vertex 5.13349 1.31806 3
      vertex 5.13349 1.31806 5.5
    endloop
  endfacet
  facet normal 0.992115 0.125333 0
    outer loop
      vertex 5.13349 1.31806 3
      vertex 5.3 0 5.5
      vertex 5.3 0 3
    endloop
  endfacet
  facet normal -1 0 0
    outer loop
      vertex -5.25821 -0.664266 3
      vertex -5.25821 0.664266 5.5
      vertex -5.25821 0.664266 3
    endloop
  endfacet
  facet normal -1 -0 0
    outer loop
      vertex -5.25821 0.664266 5.5
      vertex -5.25821 -0.664266 3
      vertex -5.25821 -0.664266 5.5
    endloop
  endfacet
  facet normal -0.0627903 0.998027 0
    outer loop
      vertex 0.332789 5.28954 3
      vertex -0.99312 5.20612 5.5
      vertex 0.332789 5.28954 5.5
    endloop
  endfacet
  facet normal -0.0627903 0.998027 0
    outer loop
      vertex -0.99312 5.20612 5.5
      vertex 0.332789 5.28954 3
      vertex -0.99312 5.20612 3
    endloop
  endfacet
  facet normal 0.637424 0.770513 -0
    outer loop
      vertex 3.86353 3.6281 3
      vertex 2.83988 4.47494 5.5
      vertex 3.86353 3.6281 5.5
    endloop
  endfacet
  facet normal 0.637424 0.770513 0
    outer loop
      vertex 2.83988 4.47494 5.5
      vertex 3.86353 3.6281 3
      vertex 2.83988 4.47494 3
    endloop
  endfacet
  facet normal 0.929777 0.368124 0
    outer loop
      vertex 5.13349 1.31806 5.5
      vertex 4.64443 2.55329 3
      vertex 4.64443 2.55329 5.5
    endloop
  endfacet
  facet normal 0.929777 0.368124 0
    outer loop
      vertex 4.64443 2.55329 3
      vertex 5.13349 1.31806 5.5
      vertex 5.13349 1.31806 3
    endloop
  endfacet
  facet normal -0.728969 0.684547 0
    outer loop
      vertex -4.28779 3.11526 3
      vertex -3.37835 4.08372 5.5
      vertex -3.37835 4.08372 3
    endloop
  endfacet
  facet normal -0.728969 0.684547 0
    outer loop
      vertex -3.37835 4.08372 5.5
      vertex -4.28779 3.11526 3
      vertex -4.28779 3.11526 5.5
    endloop
  endfacet
  facet normal 0 0 1
    outer loop
      vertex 3.23316 0 5.5
      vertex 5.3 0 5.5
      vertex 5.13349 1.31806 5.5
    endloop
  endfacet
  facet normal 0 0 1
    outer loop
      vertex 3.23316 0 5.5
      vertex 5.13349 1.31806 5.5
      vertex 4.64443 2.55329 5.5
    endloop
  endfacet
  facet normal 0 0 1
    outer loop
      vertex 5.3 0 5.5
      vertex 3.23316 0 5.5
      vertex 5.13349 -1.31806 5.5
    endloop
  endfacet
  facet normal -0 0 1
    outer loop
      vertex 1.61658 2.8 5.5
      vertex 4.64443 2.55329 5.5
      vertex 3.86353 3.6281 5.5
    endloop
  endfacet
  facet normal 0 0 1
    outer loop
      vertex 5.13349 -1.31806 5.5
      vertex 3.23316 0 5.5
      vertex 4.64443 -2.55329 5.5
    endloop
  endfacet
  facet normal 0 0 1
    outer loop
      vertex 1.61658 -2.8 5.5
      vertex 4.64443 -2.55329 5.5
      vertex 3.23316 0 5.5
    endloop
  endfacet
  facet normal 0 0 1
    outer loop
      vertex 1.61658 2.8 5.5
      vertex 3.86353 3.6281 5.5
      vertex 2.83988 4.47494 5.5
    endloop
  endfacet
  facet normal 0 0 1
    outer loop
      vertex 1.61658 2.8 5.5
      vertex 2.83988 4.47494 5.5
      vertex 1.63779 5.0406 5.5
    endloop
  endfacet
  facet normal 0 0 1
    outer loop
      vertex 4.64443 2.55329 5.5
      vertex 1.61658 2.8 5.5
      vertex 3.23316 0 5.5
    endloop
  endfacet
  facet normal 0 0 1
    outer loop
      vertex 0.332789 5.28954 5.5
      vertex 1.61658 2.8 5.5
      vertex 1.63779 5.0406 5.5
    endloop
  endfacet
  facet normal 0 0 1
    outer loop
      vertex -1.61658 2.8 5.5
      vertex 0.332789 5.28954 5.5
      vertex -0.99312 5.20612 5.5
    endloop
  endfacet
  facet normal 0 0 1
    outer loop
      vertex 0.332789 5.28954 5.5
      vertex -1.61658 2.8 5.5
      vertex 1.61658 2.8 5.5
    endloop
  endfacet
  facet normal -0 0 1
    outer loop
      vertex -2.25663 4.79558 5.5
      vertex -1.61658 2.8 5.5
      vertex -0.99312 5.20612 5.5
    endloop
  endfacet
  facet normal -0 0 1
    outer loop
      vertex -3.37835 4.08372 5.5
      vertex -1.61658 2.8 5.5
      vertex -2.25663 4.79558 5.5
    endloop
  endfacet
  facet normal -0 0 1
    outer loop
      vertex -4.28779 3.11526 5.5
      vertex -1.61658 2.8 5.5
      vertex -3.37835 4.08372 5.5
    endloop
  endfacet
  facet normal 0 0 1
    outer loop
      vertex 4.64443 -2.55329 5.5
      vertex 1.61658 -2.8 5.5
      vertex 3.86353 -3.6281 5.5
    endloop
  endfacet
  facet normal 0 0 1
    outer loop
      vertex 3.86353 -3.6281 5.5
      vertex 1.61658 -2.8 5.5
      vertex 2.83988 -4.47494 5.5
    endloop
  endfacet
  facet normal 0 0 1
    outer loop
      vertex 2.83988 -4.47494 5.5
      vertex 1.61658 -2.8 5.5
      vertex 1.63779 -5.0406 5.5
    endloop
  endfacet
  facet normal 0 0 1
    outer loop
      vertex 1.61658 -2.8 5.5
      vertex 0.332789 -5.28954 5.5
      vertex 1.63779 -5.0406 5.5
    endloop
  endfacet
  facet normal -0 0 1
    outer loop
      vertex -1.61658 -2.8 5.5
      vertex 0.332789 -5.28954 5.5
      vertex 1.61658 -2.8 5.5
    endloop
  endfacet
  facet normal 0 0 1
    outer loop
      vertex 0.332789 -5.28954 5.5
      vertex -1.61658 -2.8 5.5
      vertex -0.99312 -5.20612 5.5
    endloop
  endfacet
  facet normal 0 0 1
    outer loop
      vertex -1.61658 -2.8 5.5
      vertex -2.25663 -4.79558 5.5
      vertex -0.99312 -5.20612 5.5
    endloop
  endfacet
  facet normal 0 0 1
    outer loop
      vertex -4.28779 -3.11526 5.5
      vertex -1.61658 -2.8 5.5
      vertex -3.23316 0 5.5
    endloop
  endfacet
  facet normal 0 0 1
    outer loop
      vertex -1.61658 -2.8 5.5
      vertex -3.37835 -4.08372 5.5
      vertex -2.25663 -4.79558 5.5
    endloop
  endfacet
  facet normal 0 0 1
    outer loop
      vertex -1.61658 2.8 5.5
      vertex -4.28779 3.11526 5.5
      vertex -3.23316 0 5.5
    endloop
  endfacet
  facet normal -0 0 1
    outer loop
      vertex -4.92781 1.95106 5.5
      vertex -3.23316 0 5.5
      vertex -4.28779 3.11526 5.5
    endloop
  endfacet
  facet normal 0 0 1
    outer loop
      vertex -1.61658 -2.8 5.5
      vertex -4.28779 -3.11526 5.5
      vertex -3.37835 -4.08372 5.5
    endloop
  endfacet
  facet normal -0 0 1
    outer loop
      vertex -5.25821 0.664266 5.5
      vertex -3.23316 0 5.5
      vertex -4.92781 1.95106 5.5
    endloop
  endfacet
  facet normal 0 0 1
    outer loop
      vertex -3.23316 0 5.5
      vertex -4.92781 -1.95106 5.5
      vertex -4.28779 -3.11526 5.5
    endloop
  endfacet
  facet normal 0 0 1
    outer loop
      vertex -5.25821 -0.664266 5.5
      vertex -3.23316 0 5.5
      vertex -5.25821 0.664266 5.5
    endloop
  endfacet
  facet normal 0 0 1
    outer loop
      vertex -3.23316 0 5.5
      vertex -5.25821 -0.664266 5.5
      vertex -4.92781 -1.95106 5.5
    endloop
  endfacet
  facet normal -0.309017 0.951056 0
    outer loop
      vertex -0.99312 5.20612 3
      vertex -2.25663 4.79558 5.5
      vertex -0.99312 5.20612 5.5
    endloop
  endfacet
  facet normal -0.309017 0.951056 0
    outer loop
      vertex -2.25663 4.79558 5.5
      vertex -0.99312 5.20612 3
      vertex -2.25663 4.79558 3
    endloop
  endfacet
  facet normal 0.809017 -0.587786 0
    outer loop
      vertex 3.86353 -3.6281 5.5
      vertex 4.64443 -2.55329 3
      vertex 4.64443 -2.55329 5.5
    endloop
  endfacet
  facet normal 0.809017 -0.587786 0
    outer loop
      vertex 4.64443 -2.55329 3
      vertex 3.86353 -3.6281 5.5
      vertex 3.86353 -3.6281 3
    endloop
  endfacet
  facet normal 0.929777 -0.368124 0
    outer loop
      vertex 4.64443 -2.55329 5.5
      vertex 5.13349 -1.31806 3
      vertex 5.13349 -1.31806 5.5
    endloop
  endfacet
  facet normal 0.929777 -0.368124 0
    outer loop
      vertex 5.13349 -1.31806 3
      vertex 4.64443 -2.55329 5.5
      vertex 4.64443 -2.55329 3
    endloop
  endfacet
  facet normal -0 0 1
    outer loop
      vertex -1.87381 9.82287 3
      vertex 0.113826 9.13457 3
      vertex 0.113826 9.88656 3
    endloop
  endfacet
  facet normal 0 0 1
    outer loop
      vertex -1.87381 9.82287 3
      vertex 0.113826 9.88656 3
      vertex 0.129839 9.94893 3
    endloop
  endfacet
  facet normal 0 0 1
    outer loop
      vertex 0.113826 9.13457 3
      vertex -1.87381 9.82287 3
      vertex -0.99312 5.20612 3
    endloop
  endfacet
  facet normal 0 0 1
    outer loop
      vertex -1.87381 9.82287 3
      vertex -2.25663 4.79558 3
      vertex -0.99312 5.20612 3
    endloop
  endfacet
  facet normal -0 0 1
    outer loop
      vertex -4.25779 9.04827 3
      vertex -2.25663 4.79558 3
      vertex -1.87381 9.82287 3
    endloop
  endfacet
  facet normal 0 0 1
    outer loop
      vertex -2.25663 4.79558 3
      vertex -4.25779 9.04827 3
      vertex -5.18442 6.62392 3
    endloop
  endfacet
  facet normal -0 -0 1
    outer loop
      vertex -5.09017 5.87785 3
      vertex -2.25663 4.79558 3
      vertex -5.18442 6.62392 3
    endloop
  endfacet
  facet normal -0 0 1
    outer loop
      vertex -5.18442 5.13178 3
      vertex -3.37835 4.08372 3
      vertex -5.09017 5.87785 3
    endloop
  endfacet
  facet normal -0 0 1
    outer loop
      vertex -5.46125 4.43259 3
      vertex -3.37835 4.08372 3
      vertex -5.18442 5.13178 3
    endloop
  endfacet
  facet normal 0 0 1
    outer loop
      vertex -2.25663 4.79558 3
      vertex -5.09017 5.87785 3
      vertex -3.37835 4.08372 3
    endloop
  endfacet
  facet normal 0 0 1
    outer loop
      vertex -4.25779 9.04827 3
      vertex -5.46125 7.32311 3
      vertex -5.18442 6.62392 3
    endloop
  endfacet
  facet normal 0 0 1
    outer loop
      vertex -4.25779 9.04827 3
      vertex -5.90326 7.93149 3
      vertex -5.46125 7.32311 3
    endloop
  endfacet
  facet normal 0 -0 1
    outer loop
      vertex -5.90326 7.93149 3
      vertex -4.25779 9.04827 3
      vertex -5.95288 7.97254 3
    endloop
  endfacet
  facet normal 0 0 1
    outer loop
      vertex 7.28969 -6.84547 3
      vertex 5.27708 -7.45692 3
      vertex 5.71909 -8.0653 3
    endloop
  endfacet
  facet normal 0 0 1
    outer loop
      vertex 4.64443 -2.55329 3
      vertex 7.57295 -1.76336 3
      vertex 5.13349 -1.31806 3
    endloop
  endfacet
  facet normal 0 -0 1
    outer loop
      vertex 4.69765 -6.97758 3
      vertex 7.57295 -1.76336 3
      vertex 4.64443 -2.55329 3
    endloop
  endfacet
  facet normal 0 0 1
    outer loop
      vertex 7.57295 -1.76336 3
      vertex 4.69765 -6.97758 3
      vertex 5.27708 -7.45692 3
    endloop
  endfacet
  facet normal -0 0 1
    outer loop
      vertex 3.86353 -3.6281 3
      vertex 4.69765 -6.97758 3
      vertex 4.64443 -2.55329 3
    endloop
  endfacet
  facet normal 0 0 1
    outer loop
      vertex 4.69765 -6.97758 3
      vertex 3.86353 -3.6281 3
      vertex 4.01722 -6.6574 3
    endloop
  endfacet
  facet normal -0 0 1
    outer loop
      vertex 2.83988 -4.47494 3
      vertex 4.01722 -6.6574 3
      vertex 3.86353 -3.6281 3
    endloop
  endfacet
  facet normal 0 0 1
    outer loop
      vertex 4.01722 -6.6574 3
      vertex 2.83988 -4.47494 3
      vertex 3.27854 -6.51648 3
    endloop
  endfacet
  facet normal 0 0 1
    outer loop
      vertex 2.83988 -4.47494 3
      vertex 2.52803 -6.5637 3
      vertex 3.27854 -6.51648 3
    endloop
  endfacet
  facet normal -0 0 1
    outer loop
      vertex 1.63779 -5.0406 3
      vertex 2.52803 -6.5637 3
      vertex 2.83988 -4.47494 3
    endloop
  endfacet
  facet normal 0 0 1
    outer loop
      vertex 2.52803 -6.5637 3
      vertex 1.63779 -5.0406 3
      vertex 1.81283 -6.79608 3
    endloop
  endfacet
  facet normal -0 0 1
    outer loop
      vertex 0.332789 -5.28954 3
      vertex 1.81283 -6.79608 3
      vertex 1.63779 -5.0406 3
    endloop
  endfacet
  facet normal 0 0 1
    outer loop
      vertex 1.81283 -6.79608 3
      vertex 0.332789 -5.28954 3
      vertex 1.1779 -7.19903 3
    endloop
  endfacet
  facet normal 0 0 1
    outer loop
      vertex 1.1779 -7.19903 3
      vertex 0.332789 -5.28954 3
      vertex 0.663118 -7.74721 3
    endloop
  endfacet
  facet normal 0 0 1
    outer loop
      vertex -0.99312 -5.20612 3
      vertex 0.663118 -7.74721 3
      vertex 0.332789 -5.28954 3
    endloop
  endfacet
  facet normal 0 0 1
    outer loop
      vertex 0.663118 -7.74721 3
      vertex -0.99312 -5.20612 3
      vertex 0.30084 -8.40619 3
    endloop
  endfacet
  facet normal 0 0 1
    outer loop
      vertex 0.30084 -8.40619 3
      vertex -1.87381 -9.82287 3
      vertex 0.113826 -9.13457 3
    endloop
  endfacet
  facet normal 0 0 1
    outer loop
      vertex -1.87381 -9.82287 3
      vertex 0.30084 -8.40619 3
      vertex -0.99312 -5.20612 3
    endloop
  endfacet
  facet normal 0 0 1
    outer loop
      vertex 8.76307 4.81754 3
      vertex 9.43786 2.94686 3
      vertex 9.50212 2.9509 3
    endloop
  endfacet
  facet normal 0 0 1
    outer loop
      vertex 8.76307 4.81754 3
      vertex 8.72266 2.71448 3
      vertex 9.43786 2.94686 3
    endloop
  endfacet
  facet normal 0 0 1
    outer loop
      vertex 8.76307 4.81754 3
      vertex 8.08773 2.31154 3
      vertex 8.72266 2.71448 3
    endloop
  endfacet
  facet normal -0 0 1
    outer loop
      vertex 4.64443 2.55329 3
      vertex 8.08773 2.31154 3
      vertex 8.76307 4.81754 3
    endloop
  endfacet
  facet normal 0 0 1
    outer loop
      vertex 4.64443 2.55329 3
      vertex 8.76307 4.81754 3
      vertex 7.28969 6.84547 3
    endloop
  endfacet
  facet normal 0 0 1
    outer loop
      vertex 8.08773 2.31154 3
      vertex 4.64443 2.55329 3
      vertex 7.57295 1.76336 3
    endloop
  endfacet
  facet normal 0 -0 1
    outer loop
      vertex 5.13349 1.31806 3
      vertex 7.57295 1.76336 3
      vertex 4.64443 2.55329 3
    endloop
  endfacet
  facet normal -0 0 1
    outer loop
      vertex 5.27708 7.45692 3
      vertex 7.28969 6.84547 3
      vertex 5.71909 8.0653 3
    endloop
  endfacet
  facet normal -0 0 1
    outer loop
      vertex 5.71909 8.0653 3
      vertex 7.28969 6.84547 3
      vertex 5.74279 8.12517 3
    endloop
  endfacet
  facet normal 0 0 1
    outer loop
      vertex 9.43786 -2.94686 3
      vertex 8.76307 -4.81754 3
      vertex 9.50212 -2.9509 3
    endloop
  endfacet
  facet normal 0 0 1
    outer loop
      vertex 8.72266 -2.71448 3
      vertex 8.76307 -4.81754 3
      vertex 9.43786 -2.94686 3
    endloop
  endfacet
  facet normal 0 0 1
    outer loop
      vertex 8.08773 -2.31154 3
      vertex 8.76307 -4.81754 3
      vertex 8.72266 -2.71448 3
    endloop
  endfacet
  facet normal 0 0 1
    outer loop
      vertex 7.28969 -6.84547 3
      vertex 8.08773 -2.31154 3
      vertex 7.57295 -1.76336 3
    endloop
  endfacet
  facet normal 0 0 1
    outer loop
      vertex 8.08773 -2.31154 3
      vertex 7.28969 -6.84547 3
      vertex 8.76307 -4.81754 3
    endloop
  endfacet
  facet normal 0 0 1
    outer loop
      vertex 7.02366 -0.375999 3
      vertex 5.13349 -1.31806 3
      vertex 7.21067 -1.10437 3
    endloop
  endfacet
  facet normal 0 0 1
    outer loop
      vertex 5.13349 -1.31806 3
      vertex 7.02366 -0.375999 3
      vertex 5.3 0 3
    endloop
  endfacet
  facet normal -0 0 1
    outer loop
      vertex 4.69765 6.97758 3
      vertex 7.28969 6.84547 3
      vertex 5.27708 7.45692 3
    endloop
  endfacet
  facet normal 0 0 1
    outer loop
      vertex 7.21067 -1.10437 3
      vertex 5.13349 -1.31806 3
      vertex 7.57295 -1.76336 3
    endloop
  endfacet
  facet normal 0 0 1
    outer loop
      vertex 7.57295 1.76336 3
      vertex 5.13349 1.31806 3
      vertex 7.21067 1.10437 3
    endloop
  endfacet
  facet normal 0 0 1
    outer loop
      vertex 7.57295 -1.76336 3
      vertex 5.27708 -7.45692 3
      vertex 7.28969 -6.84547 3
    endloop
  endfacet
  facet normal 0 0 1
    outer loop
      vertex 7.28969 -6.84547 3
      vertex 5.71909 -8.0653 3
      vertex 5.74279 -8.12517 3
    endloop
  endfacet
  facet normal 0 0 1
    outer loop
      vertex 7.21067 1.10437 3
      vertex 5.13349 1.31806 3
      vertex 7.02366 0.375999 3
    endloop
  endfacet
  facet normal 0 0 1
    outer loop
      vertex 7.02366 0.375999 3
      vertex 5.3 0 3
      vertex 7.02366 -0.375999 3
    endloop
  endfacet
  facet normal 0 0 1
    outer loop
      vertex 3.86353 3.6281 3
      vertex 7.28969 6.84547 3
      vertex 4.69765 6.97758 3
    endloop
  endfacet
  facet normal 0 -0 1
    outer loop
      vertex 5.3 0 3
      vertex 7.02366 0.375999 3
      vertex 5.13349 1.31806 3
    endloop
  endfacet
  facet normal 0 0 1
    outer loop
      vertex 3.86353 3.6281 3
      vertex 4.69765 6.97758 3
      vertex 4.01722 6.6574 3
    endloop
  endfacet
  facet normal 0 0 1
    outer loop
      vertex 7.28969 6.84547 3
      vertex 3.86353 3.6281 3
      vertex 4.64443 2.55329 3
    endloop
  endfacet
  facet normal 0 0 1
    outer loop
      vertex 2.83988 4.47494 3
      vertex 4.01722 6.6574 3
      vertex 3.27854 6.51648 3
    endloop
  endfacet
  facet normal 0 0 1
    outer loop
      vertex 4.01722 6.6574 3
      vertex 2.83988 4.47494 3
      vertex 3.86353 3.6281 3
    endloop
  endfacet
  facet normal 0 0 1
    outer loop
      vertex 2.52803 6.5637 3
      vertex 2.83988 4.47494 3
      vertex 3.27854 6.51648 3
    endloop
  endfacet
  facet normal 0 0 1
    outer loop
      vertex 1.63779 5.0406 3
      vertex 2.52803 6.5637 3
      vertex 1.81283 6.79608 3
    endloop
  endfacet
  facet normal 0 0 1
    outer loop
      vertex 2.52803 6.5637 3
      vertex 1.63779 5.0406 3
      vertex 2.83988 4.47494 3
    endloop
  endfacet
  facet normal 0 0 1
    outer loop
      vertex 0.332789 5.28954 3
      vertex 1.81283 6.79608 3
      vertex 1.1779 7.19903 3
    endloop
  endfacet
  facet normal 0 0 1
    outer loop
      vertex 0.332789 5.28954 3
      vertex 1.1779 7.19903 3
      vertex 0.663118 7.74721 3
    endloop
  endfacet
  facet normal 0 0 1
    outer loop
      vertex 1.81283 6.79608 3
      vertex 0.332789 5.28954 3
      vertex 1.63779 5.0406 3
    endloop
  endfacet
  facet normal 0 0 1
    outer loop
      vertex -0.99312 5.20612 3
      vertex 0.663118 7.74721 3
      vertex 0.30084 8.40619 3
    endloop
  endfacet
  facet normal 0 0 1
    outer loop
      vertex -0.99312 5.20612 3
      vertex 0.30084 8.40619 3
      vertex 0.113826 9.13457 3
    endloop
  endfacet
  facet normal 0 0 1
    outer loop
      vertex 0.663118 7.74721 3
      vertex -0.99312 5.20612 3
      vertex 0.332789 5.28954 3
    endloop
  endfacet
  facet normal 0 0 1
    outer loop
      vertex 0.113826 -9.88656 3
      vertex -1.87381 -9.82287 3
      vertex 0.129839 -9.94893 3
    endloop
  endfacet
  facet normal 0 0 1
    outer loop
      vertex 0.113826 -9.13457 3
      vertex -1.87381 -9.82287 3
      vertex 0.113826 -9.88656 3
    endloop
  endfacet
  facet normal 0 0 1
    outer loop
      vertex -2.25663 -4.79558 3
      vertex -1.87381 -9.82287 3
      vertex -0.99312 -5.20612 3
    endloop
  endfacet
  facet normal 0 0 1
    outer loop
      vertex -5.09017 -5.87785 3
      vertex -2.25663 -4.79558 3
      vertex -3.37835 -4.08372 3
    endloop
  endfacet
  facet normal 0 -0 1
    outer loop
      vertex -4.25779 -9.04827 3
      vertex -2.25663 -4.79558 3
      vertex -5.18442 -6.62392 3
    endloop
  endfacet
  facet normal 0 0 1
    outer loop
      vertex -5.46125 -4.43259 3
      vertex -3.37835 -4.08372 3
      vertex -4.28779 -3.11526 3
    endloop
  endfacet
  facet normal 0 0 1
    outer loop
      vertex -5.90326 -3.82421 3
      vertex -4.28779 -3.11526 3
      vertex -4.92781 -1.95106 3
    endloop
  endfacet
  facet normal 0 0 1
    outer loop
      vertex -2.25663 -4.79558 3
      vertex -5.09017 -5.87785 3
      vertex -5.18442 -6.62392 3
    endloop
  endfacet
  facet normal 0 0 1
    outer loop
      vertex -2.25663 -4.79558 3
      vertex -4.25779 -9.04827 3
      vertex -1.87381 -9.82287 3
    endloop
  endfacet
  facet normal -0 0 1
    outer loop
      vertex -5.46125 -7.32311 3
      vertex -4.25779 -9.04827 3
      vertex -5.18442 -6.62392 3
    endloop
  endfacet
  facet normal -0 0 1
    outer loop
      vertex -5.90326 -7.93149 3
      vertex -4.25779 -9.04827 3
      vertex -5.46125 -7.32311 3
    endloop
  endfacet
  facet normal 0 0 1
    outer loop
      vertex -4.25779 -9.04827 3
      vertex -5.90326 -7.93149 3
      vertex -5.95288 -7.97254 3
    endloop
  endfacet
  facet normal 0 0 1
    outer loop
      vertex -3.37835 -4.08372 3
      vertex -5.18442 -5.13178 3
      vertex -5.09017 -5.87785 3
    endloop
  endfacet
  facet normal 0 0 1
    outer loop
      vertex -7.16312 -3.02468 3
      vertex -4.92781 -1.95106 3
      vertex -5.25821 -0.664266 3
    endloop
  endfacet
  facet normal -0 0 1
    outer loop
      vertex -7.16312 3.02468 3
      vertex -4.92781 1.95106 3
      vertex -6.48269 3.34487 3
    endloop
  endfacet
  facet normal 0 0 1
    outer loop
      vertex -3.37835 -4.08372 3
      vertex -5.46125 -4.43259 3
      vertex -5.18442 -5.13178 3
    endloop
  endfacet
  facet normal 0 0 1
    outer loop
      vertex -4.92781 1.95106 3
      vertex -7.16312 3.02468 3
      vertex -5.25821 0.664266 3
    endloop
  endfacet
  facet normal 0 0 1
    outer loop
      vertex -4.28779 -3.11526 3
      vertex -5.90326 -3.82421 3
      vertex -5.46125 -4.43259 3
    endloop
  endfacet
  facet normal -0 0 1
    outer loop
      vertex -7.9018 2.88377 3
      vertex -5.25821 0.664266 3
      vertex -7.16312 3.02468 3
    endloop
  endfacet
  facet normal 0 0 1
    outer loop
      vertex -4.92781 -1.95106 3
      vertex -6.48269 -3.34487 3
      vertex -5.90326 -3.82421 3
    endloop
  endfacet
  facet normal -0 0 1
    outer loop
      vertex -9.92115 1.25333 3
      vertex -5.25821 0.664266 3
      vertex -7.9018 2.88377 3
    endloop
  endfacet
  facet normal 0 0 1
    outer loop
      vertex -4.92781 -1.95106 3
      vertex -7.16312 -3.02468 3
      vertex -6.48269 -3.34487 3
    endloop
  endfacet
  facet normal 0 0 1
    outer loop
      vertex -5.25821 0.664266 3
      vertex -9.92115 1.25333 3
      vertex -5.25821 -0.664266 3
    endloop
  endfacet
  facet normal 0 0 1
    outer loop
      vertex -5.25821 -0.664266 3
      vertex -7.9018 -2.88377 3
      vertex -7.16312 -3.02468 3
    endloop
  endfacet
  facet normal 0 0 1
    outer loop
      vertex -9.92115 1.25333 3
      vertex -7.9018 2.88377 3
      vertex -8.65231 2.93099 3
    endloop
  endfacet
  facet normal 0 0 1
    outer loop
      vertex -9.92115 -1.25333 3
      vertex -5.25821 -0.664266 3
      vertex -9.92115 1.25333 3
    endloop
  endfacet
  facet normal 0 0 1
    outer loop
      vertex -9.92115 1.25333 3
      vertex -8.65231 2.93099 3
      vertex -9.36751 3.16337 3
    endloop
  endfacet
  facet normal 0 0 1
    outer loop
      vertex -5.25821 -0.664266 3
      vertex -9.92115 -1.25333 3
      vertex -7.9018 -2.88377 3
    endloop
  endfacet
  facet normal 0 0 1
    outer loop
      vertex -9.92115 1.25333 3
      vertex -9.36751 3.16337 3
      vertex -9.42187 3.19787 3
    endloop
  endfacet
  facet normal 0 0 1
    outer loop
      vertex -7.9018 -2.88377 3
      vertex -9.92115 -1.25333 3
      vertex -8.65231 -2.93099 3
    endloop
  endfacet
  facet normal 0 0 1
    outer loop
      vertex -8.65231 -2.93099 3
      vertex -9.92115 -1.25333 3
      vertex -9.36751 -3.16337 3
    endloop
  endfacet
  facet normal 0 0 1
    outer loop
      vertex -9.36751 -3.16337 3
      vertex -9.92115 -1.25333 3
      vertex -9.42187 -3.19787 3
    endloop
  endfacet
  facet normal 0 0 1
    outer loop
      vertex -3.37835 4.08372 3
      vertex -5.46125 4.43259 3
      vertex -4.28779 3.11526 3
    endloop
  endfacet
  facet normal -0 0 1
    outer loop
      vertex -5.90326 3.82421 3
      vertex -4.28779 3.11526 3
      vertex -5.46125 4.43259 3
    endloop
  endfacet
  facet normal -0 0 1
    outer loop
      vertex -6.48269 3.34487 3
      vertex -4.92781 1.95106 3
      vertex -5.90326 3.82421 3
    endloop
  endfacet
  facet normal 0 0 1
    outer loop
      vertex -4.28779 3.11526 3
      vertex -5.90326 3.82421 3
      vertex -4.92781 1.95106 3
    endloop
  endfacet
  facet normal 0.809017 0.587786 0
    outer loop
      vertex 4.64443 2.55329 5.5
      vertex 3.86353 3.6281 3
      vertex 3.86353 3.6281 5.5
    endloop
  endfacet
  facet normal 0.809017 0.587786 0
    outer loop
      vertex 3.86353 3.6281 3
      vertex 4.64443 2.55329 5.5
      vertex 4.64443 2.55329 3
    endloop
  endfacet
  facet normal 0.187381 0.982287 -0
    outer loop
      vertex 1.63779 5.0406 3
      vertex 0.332789 5.28954 5.5
      vertex 1.63779 5.0406 5.5
    endloop
  endfacet
  facet normal 0.187381 0.982287 0
    outer loop
      vertex 0.332789 5.28954 5.5
      vertex 1.63779 5.0406 3
      vertex 0.332789 5.28954 3
    endloop
  endfacet
  facet normal 0.425779 0.904827 -0
    outer loop
      vertex 2.83988 4.47494 3
      vertex 1.63779 5.0406 5.5
      vertex 2.83988 4.47494 5.5
    endloop
  endfacet
  facet normal 0.425779 0.904827 0
    outer loop
      vertex 1.63779 5.0406 5.5
      vertex 2.83988 4.47494 3
      vertex 1.63779 5.0406 3
    endloop
  endfacet
  facet normal -0.876307 0.481754 0
    outer loop
      vertex -4.92781 1.95106 3
      vertex -4.28779 3.11526 5.5
      vertex -4.28779 3.11526 3
    endloop
  endfacet
  facet normal -0.876307 0.481754 0
    outer loop
      vertex -4.28779 3.11526 5.5
      vertex -4.92781 1.95106 3
      vertex -4.92781 1.95106 5.5
    endloop
  endfacet
  facet normal -0.968583 0.24869 0
    outer loop
      vertex -5.25821 0.664266 3
      vertex -4.92781 1.95106 5.5
      vertex -4.92781 1.95106 3
    endloop
  endfacet
  facet normal -0.968583 0.24869 0
    outer loop
      vertex -4.92781 1.95106 5.5
      vertex -5.25821 0.664266 3
      vertex -5.25821 0.664266 5.5
    endloop
  endfacet
  facet normal -0.535827 0.844328 0
    outer loop
      vertex -2.25663 4.79558 3
      vertex -3.37835 4.08372 5.5
      vertex -2.25663 4.79558 5.5
    endloop
  endfacet
  facet normal -0.535827 0.844328 0
    outer loop
      vertex -3.37835 4.08372 5.5
      vertex -2.25663 4.79558 3
      vertex -3.37835 4.08372 3
    endloop
  endfacet
  facet normal 0.992115 -0.125333 0
    outer loop
      vertex 5.13349 -1.31806 5.5
      vertex 5.3 0 3
      vertex 5.3 0 5.5
    endloop
  endfacet
  facet normal 0.992115 -0.125333 0
    outer loop
      vertex 5.3 0 3
      vertex 5.13349 -1.31806 5.5
      vertex 5.13349 -1.31806 3
    endloop
  endfacet
  facet normal 0.187381 -0.982287 0
    outer loop
      vertex 0.332789 -5.28954 3
      vertex 1.63779 -5.0406 5.5
      vertex 0.332789 -5.28954 5.5
    endloop
  endfacet
  facet normal 0.187381 -0.982287 0
    outer loop
      vertex 1.63779 -5.0406 5.5
      vertex 0.332789 -5.28954 3
      vertex 1.63779 -5.0406 3
    endloop
  endfacet
  facet normal 0.637424 -0.770513 0
    outer loop
      vertex 2.83988 -4.47494 3
      vertex 3.86353 -3.6281 5.5
      vertex 2.83988 -4.47494 5.5
    endloop
  endfacet
  facet normal 0.637424 -0.770513 0
    outer loop
      vertex 3.86353 -3.6281 5.5
      vertex 2.83988 -4.47494 3
      vertex 3.86353 -3.6281 3
    endloop
  endfacet
  facet normal -0.535827 -0.844328 0
    outer loop
      vertex -3.37835 -4.08372 3
      vertex -2.25663 -4.79558 5.5
      vertex -3.37835 -4.08372 5.5
    endloop
  endfacet
  facet normal -0.535827 -0.844328 -0
    outer loop
      vertex -2.25663 -4.79558 5.5
      vertex -3.37835 -4.08372 3
      vertex -2.25663 -4.79558 3
    endloop
  endfacet
  facet normal -0.0627903 -0.998027 0
    outer loop
      vertex -0.99312 -5.20612 3
      vertex 0.332789 -5.28954 5.5
      vertex -0.99312 -5.20612 5.5
    endloop
  endfacet
  facet normal -0.0627903 -0.998027 -0
    outer loop
      vertex 0.332789 -5.28954 5.5
      vertex -0.99312 -5.20612 3
      vertex 0.332789 -5.28954 3
    endloop
  endfacet
  facet normal -0.728969 -0.684547 0
    outer loop
      vertex -3.37835 -4.08372 3
      vertex -4.28779 -3.11526 5.5
      vertex -4.28779 -3.11526 3
    endloop
  endfacet
  facet normal -0.728969 -0.684547 0
    outer loop
      vertex -4.28779 -3.11526 5.5
      vertex -3.37835 -4.08372 3
      vertex -3.37835 -4.08372 5.5
    endloop
  endfacet
  facet normal -0.968583 -0.24869 0
    outer loop
      vertex -4.92781 -1.95106 3
      vertex -5.25821 -0.664266 5.5
      vertex -5.25821 -0.664266 3
    endloop
  endfacet
  facet normal -0.968583 -0.24869 0
    outer loop
      vertex -5.25821 -0.664266 5.5
      vertex -4.92781 -1.95106 3
      vertex -4.92781 -1.95106 5.5
    endloop
  endfacet
  facet normal 0.425779 -0.904827 0
    outer loop
      vertex 1.63779 -5.0406 3
      vertex 2.83988 -4.47494 5.5
      vertex 1.63779 -5.0406 5.5
    endloop
  endfacet
  facet normal 0.425779 -0.904827 0
    outer loop
      vertex 2.83988 -4.47494 5.5
      vertex 1.63779 -5.0406 3
      vertex 2.83988 -4.47494 3
    endloop
  endfacet
  facet normal -0.309017 -0.951056 0
    outer loop
      vertex -2.25663 -4.79558 3
      vertex -0.99312 -5.20612 5.5
      vertex -2.25663 -4.79558 5.5
    endloop
  endfacet
  facet normal -0.309017 -0.951056 -0
    outer loop
      vertex -0.99312 -5.20612 5.5
      vertex -2.25663 -4.79558 3
      vertex -0.99312 -5.20612 3
    endloop
  endfacet
  facet normal -0.876307 -0.481754 0
    outer loop
      vertex -4.28779 -3.11526 3
      vertex -4.92781 -1.95106 5.5
      vertex -4.92781 -1.95106 3
    endloop
  endfacet
  facet normal -0.876307 -0.481754 0
    outer loop
      vertex -4.92781 -1.95106 5.5
      vertex -4.28779 -3.11526 3
      vertex -4.28779 -3.11526 5.5
    endloop
  endfacet
  facet normal -1 0 0
    outer loop
      vertex -9.92115 -1.25333 0
      vertex -9.92115 1.25333 3
      vertex -9.92115 1.25333 0
    endloop
  endfacet
  facet normal -1 -0 0
    outer loop
      vertex -9.92115 1.25333 3
      vertex -9.92115 -1.25333 0
      vertex -9.92115 -1.25333 3
    endloop
  endfacet
  facet normal -0.0627903 0.998027 0
    outer loop
      vertex 0.129839 9.94893 0
      vertex -1.87381 9.82287 3
      vertex 0.129839 9.94893 3
    endloop
  endfacet
  facet normal -0.0627903 0.998027 0
    outer loop
      vertex -1.87381 9.82287 3
      vertex 0.129839 9.94893 0
      vertex -1.87381 9.82287 0
    endloop
  endfacet
  facet normal 0.637424 0.770513 -0
    outer loop
      vertex 7.28969 6.84547 0
      vertex 5.74279 8.12517 3
      vertex 7.28969 6.84547 3
    endloop
  endfacet
  facet normal 0.637424 0.770513 0
    outer loop
      vertex 5.74279 8.12517 3
      vertex 7.28969 6.84547 0
      vertex 5.74279 8.12517 0
    endloop
  endfacet
  facet normal -0.309017 0.951057 0
    outer loop
      vertex -1.87381 9.82287 0
      vertex -4.25779 9.04827 3
      vertex -1.87381 9.82287 3
    endloop
  endfacet
  facet normal -0.309017 0.951057 0
    outer loop
      vertex -4.25779 9.04827 3
      vertex -1.87381 9.82287 0
      vertex -4.25779 9.04827 0
    endloop
  endfacet
  facet normal 0.809017 0.587785 0
    outer loop
      vertex 8.76307 4.81754 3
      vertex 7.28969 6.84547 0
      vertex 7.28969 6.84547 3
    endloop
  endfacet
  facet normal 0.809017 0.587785 0
    outer loop
      vertex 7.28969 6.84547 0
      vertex 8.76307 4.81754 3
      vertex 8.76307 4.81754 0
    endloop
  endfacet
  facet normal 0.929776 0.368125 0
    outer loop
      vertex 9.50212 2.9509 3
      vertex 8.76307 4.81754 0
      vertex 8.76307 4.81754 3
    endloop
  endfacet
  facet normal 0.929776 0.368125 0
    outer loop
      vertex 8.76307 4.81754 0
      vertex 9.50212 2.9509 3
      vertex 9.50212 2.9509 0
    endloop
  endfacet
  facet normal -0.968583 0.24869 0
    outer loop
      vertex -9.92115 1.25333 0
      vertex -9.42187 3.19787 3
      vertex -9.42187 3.19787 0
    endloop
  endfacet
  facet normal -0.968583 0.24869 0
    outer loop
      vertex -9.42187 3.19787 3
      vertex -9.92115 1.25333 0
      vertex -9.92115 1.25333 3
    endloop
  endfacet
  facet normal -0.535827 0.844328 0
    outer loop
      vertex -4.25779 9.04827 0
      vertex -5.95288 7.97254 3
      vertex -4.25779 9.04827 3
    endloop
  endfacet
  facet normal -0.535827 0.844328 0
    outer loop
      vertex -5.95288 7.97254 3
      vertex -4.25779 9.04827 0
      vertex -5.95288 7.97254 0
    endloop
  endfacet
  facet normal 0 0 -1
    outer loop
      vertex -1.87381 -9.82287 0
      vertex 0.113826 -9.13457 0
      vertex 0.113826 -9.88656 0
    endloop
  endfacet
  facet normal 0 0 -1
    outer loop
      vertex -1.87381 -9.82287 0
      vertex 0.113826 -9.88656 0
      vertex 0.129839 -9.94893 0
    endloop
  endfacet
  facet normal 0 0 -1
    outer loop
      vertex -5.09017 -5.87785 0
      vertex 0.113826 -9.13457 0
      vertex -1.87381 -9.82287 0
    endloop
  endfacet
  facet normal 0 0 -1
    outer loop
      vertex 0.113826 -9.13457 0
      vertex -5.09017 -5.87785 0
      vertex -1.61658 -2.8 0
    endloop
  endfacet
  facet normal 0 0 -1
    outer loop
      vertex -5.18442 -6.62392 0
      vertex -1.87381 -9.82287 0
      vertex -4.25779 -9.04827 0
    endloop
  endfacet
  facet normal 0 0 -1
    outer loop
      vertex 4.01722 6.6574 0
      vertex 1.61658 2.8 0
      vertex 3.27854 6.51648 0
    endloop
  endfacet
  facet normal -0 0 -1
    outer loop
      vertex 3.27854 6.51648 0
      vertex 1.61658 2.8 0
      vertex 2.52803 6.5637 0
    endloop
  endfacet
  facet normal -0 0 -1
    outer loop
      vertex 2.52803 6.5637 0
      vertex 1.61658 2.8 0
      vertex 1.81283 6.79608 0
    endloop
  endfacet
  facet normal 0 0 -1
    outer loop
      vertex 1.61658 2.8 0
      vertex 1.1779 7.19903 0
      vertex 1.81283 6.79608 0
    endloop
  endfacet
  facet normal 0 0 -1
    outer loop
      vertex -1.61658 2.8 0
      vertex 1.1779 7.19903 0
      vertex 1.61658 2.8 0
    endloop
  endfacet
  facet normal -0 0 -1
    outer loop
      vertex 1.1779 7.19903 0
      vertex -1.61658 2.8 0
      vertex 0.663118 7.74721 0
    endloop
  endfacet
  facet normal 0 0 -1
    outer loop
      vertex -5.09017 5.87785 0
      vertex 0.663118 7.74721 0
      vertex -1.61658 2.8 0
    endloop
  endfacet
  facet normal 0 0 -1
    outer loop
      vertex -5.18442 6.62392 0
      vertex 0.30084 8.40619 0
      vertex -5.09017 5.87785 0
    endloop
  endfacet
  facet normal -0 0 -1
    outer loop
      vertex 0.663118 7.74721 0
      vertex -5.09017 5.87785 0
      vertex 0.30084 8.40619 0
    endloop
  endfacet
  facet normal 0 0 -1
    outer loop
      vertex 8.76307 -4.81754 0
      vertex 9.43786 -2.94686 0
      vertex 9.50212 -2.9509 0
    endloop
  endfacet
  facet normal 0 0 -1
    outer loop
      vertex 8.76307 -4.81754 0
      vertex 8.72266 -2.71448 0
      vertex 9.43786 -2.94686 0
    endloop
  endfacet
  facet normal 0 0 -1
    outer loop
      vertex 8.76307 -4.81754 0
      vertex 8.08773 -2.31154 0
      vertex 8.72266 -2.71448 0
    endloop
  endfacet
  facet normal 0 0 -1
    outer loop
      vertex 4.69765 -6.97758 0
      vertex 8.08773 -2.31154 0
      vertex 8.76307 -4.81754 0
    endloop
  endfacet
  facet normal 0 0 -1
    outer loop
      vertex 4.69765 -6.97758 0
      vertex 8.76307 -4.81754 0
      vertex 7.28969 -6.84547 0
    endloop
  endfacet
  facet normal -0 0 -1
    outer loop
      vertex 8.08773 -2.31154 0
      vertex 4.69765 -6.97758 0
      vertex 7.57295 -1.76336 0
    endloop
  endfacet
  facet normal 0 0 -1
    outer loop
      vertex 4.01722 -6.6574 0
      vertex 7.57295 -1.76336 0
      vertex 4.69765 -6.97758 0
    endloop
  endfacet
  facet normal 0 0 -1
    outer loop
      vertex 5.27708 -7.45692 0
      vertex 7.28969 -6.84547 0
      vertex 5.71909 -8.0653 0
    endloop
  endfacet
  facet normal 0 0 -1
    outer loop
      vertex 5.71909 -8.0653 0
      vertex 7.28969 -6.84547 0
      vertex 5.74279 -8.12517 0
    endloop
  endfacet
  facet normal 0 0 -1
    outer loop
      vertex 9.43786 2.94686 0
      vertex 8.76307 4.81754 0
      vertex 9.50212 2.9509 0
    endloop
  endfacet
  facet normal 0 0 -1
    outer loop
      vertex 8.72266 2.71448 0
      vertex 8.76307 4.81754 0
      vertex 9.43786 2.94686 0
    endloop
  endfacet
  facet normal 0 0 -1
    outer loop
      vertex 8.08773 2.31154 0
      vertex 8.76307 4.81754 0
      vertex 8.72266 2.71448 0
    endloop
  endfacet
  facet normal 0 0 -1
    outer loop
      vertex 4.69765 6.97758 0
      vertex 8.08773 2.31154 0
      vertex 7.57295 1.76336 0
    endloop
  endfacet
  facet normal 0 0 -1
    outer loop
      vertex 8.08773 2.31154 0
      vertex 4.69765 6.97758 0
      vertex 8.76307 4.81754 0
    endloop
  endfacet
  facet normal 0 0 -1
    outer loop
      vertex 1.61658 2.8 0
      vertex 7.21067 1.10437 0
      vertex 3.23316 0 0
    endloop
  endfacet
  facet normal 0 0 -1
    outer loop
      vertex 3.23316 0 0
      vertex 7.21067 1.10437 0
      vertex 7.02366 0.375999 0
    endloop
  endfacet
  facet normal 0 0 -1
    outer loop
      vertex 4.69765 -6.97758 0
      vertex 7.28969 -6.84547 0
      vertex 5.27708 -7.45692 0
    endloop
  endfacet
  facet normal 0 0 -1
    outer loop
      vertex 1.61658 -2.8 0
      vertex 7.57295 -1.76336 0
      vertex 4.01722 -6.6574 0
    endloop
  endfacet
  facet normal -0 0 -1
    outer loop
      vertex 7.57295 -1.76336 0
      vertex 1.61658 -2.8 0
      vertex 7.21067 -1.10437 0
    endloop
  endfacet
  facet normal 0 0 -1
    outer loop
      vertex 7.28969 6.84547 0
      vertex 5.71909 8.0653 0
      vertex 5.74279 8.12517 0
    endloop
  endfacet
  facet normal 0 0 -1
    outer loop
      vertex 7.21067 1.10437 0
      vertex 1.61658 2.8 0
      vertex 7.57295 1.76336 0
    endloop
  endfacet
  facet normal 0 0 -1
    outer loop
      vertex 7.57295 1.76336 0
      vertex 4.01722 6.6574 0
      vertex 4.69765 6.97758 0
    endloop
  endfacet
  facet normal 0 -0 -1
    outer loop
      vertex 3.23316 0 0
      vertex 7.21067 -1.10437 0
      vertex 1.61658 -2.8 0
    endloop
  endfacet
  facet normal 0 0 -1
    outer loop
      vertex 7.28969 6.84547 0
      vertex 5.27708 7.45692 0
      vertex 5.71909 8.0653 0
    endloop
  endfacet
  facet normal 0 0 -1
    outer loop
      vertex 7.02366 -0.375999 0
      vertex 3.23316 0 0
      vertex 7.02366 0.375999 0
    endloop
  endfacet
  facet normal 0 0 -1
    outer loop
      vertex 7.28969 6.84547 0
      vertex 4.69765 6.97758 0
      vertex 5.27708 7.45692 0
    endloop
  endfacet
  facet normal 0 0 -1
    outer loop
      vertex 1.61658 -2.8 0
      vertex 4.01722 -6.6574 0
      vertex 3.27854 -6.51648 0
    endloop
  endfacet
  facet normal 0 0 -1
    outer loop
      vertex 8.76307 4.81754 0
      vertex 4.69765 6.97758 0
      vertex 7.28969 6.84547 0
    endloop
  endfacet
  facet normal 0 0 -1
    outer loop
      vertex 7.57295 1.76336 0
      vertex 1.61658 2.8 0
      vertex 4.01722 6.6574 0
    endloop
  endfacet
  facet normal 0 0 -1
    outer loop
      vertex 1.61658 -2.8 0
      vertex 3.27854 -6.51648 0
      vertex 2.52803 -6.5637 0
    endloop
  endfacet
  facet normal 0 0 -1
    outer loop
      vertex 1.61658 -2.8 0
      vertex 2.52803 -6.5637 0
      vertex 1.81283 -6.79608 0
    endloop
  endfacet
  facet normal 0 0 -1
    outer loop
      vertex 7.21067 -1.10437 0
      vertex 3.23316 0 0
      vertex 7.02366 -0.375999 0
    endloop
  endfacet
  facet normal 0 0 -1
    outer loop
      vertex 1.1779 -7.19903 0
      vertex 1.61658 -2.8 0
      vertex 1.81283 -6.79608 0
    endloop
  endfacet
  facet normal 0 0 -1
    outer loop
      vertex -1.61658 -2.8 0
      vertex 1.1779 -7.19903 0
      vertex 0.663118 -7.74721 0
    endloop
  endfacet
  facet normal 0 0 -1
    outer loop
      vertex -1.61658 -2.8 0
      vertex 0.663118 -7.74721 0
      vertex 0.30084 -8.40619 0
    endloop
  endfacet
  facet normal 0 0 -1
    outer loop
      vertex -1.61658 -2.8 0
      vertex 0.30084 -8.40619 0
      vertex 0.113826 -9.13457 0
    endloop
  endfacet
  facet normal 0 0 -1
    outer loop
      vertex 1.1779 -7.19903 0
      vertex -1.61658 -2.8 0
      vertex 1.61658 -2.8 0
    endloop
  endfacet
  facet normal -0 0 -1
    outer loop
      vertex 0.113826 9.88656 0
      vertex -1.87381 9.82287 0
      vertex 0.129839 9.94893 0
    endloop
  endfacet
  facet normal 0 0 -1
    outer loop
      vertex 0.113826 9.13457 0
      vertex -1.87381 9.82287 0
      vertex 0.113826 9.88656 0
    endloop
  endfacet
  facet normal 0 0 -1
    outer loop
      vertex -5.90326 3.82421 0
      vertex -1.61658 2.8 0
      vertex -3.23316 0 0
    endloop
  endfacet
  facet normal 0 -0 -1
    outer loop
      vertex -5.09017 5.87785 0
      vertex -1.61658 2.8 0
      vertex -5.18442 5.13178 0
    endloop
  endfacet
  facet normal 0 0 -1
    outer loop
      vertex -1.61658 -2.8 0
      vertex -5.09017 -5.87785 0
      vertex -5.18442 -5.13178 0
    endloop
  endfacet
  facet normal 0 0 -1
    outer loop
      vertex -5.46125 -4.43259 0
      vertex -1.61658 -2.8 0
      vertex -5.18442 -5.13178 0
    endloop
  endfacet
  facet normal 0 0 -1
    outer loop
      vertex -1.87381 -9.82287 0
      vertex -5.18442 -6.62392 0
      vertex -5.09017 -5.87785 0
    endloop
  endfacet
  facet normal 0 0 -1
    outer loop
      vertex -4.25779 -9.04827 0
      vertex -5.46125 -7.32311 0
      vertex -5.18442 -6.62392 0
    endloop
  endfacet
  facet normal 0 0 -1
    outer loop
      vertex -4.25779 -9.04827 0
      vertex -5.90326 -7.93149 0
      vertex -5.46125 -7.32311 0
    endloop
  endfacet
  facet normal 0 -0 -1
    outer loop
      vertex -5.90326 -7.93149 0
      vertex -4.25779 -9.04827 0
      vertex -5.95288 -7.97254 0
    endloop
  endfacet
  facet normal 0 0 -1
    outer loop
      vertex 0.30084 8.40619 0
      vertex -1.87381 9.82287 0
      vertex 0.113826 9.13457 0
    endloop
  endfacet
  facet normal -0 0 -1
    outer loop
      vertex 0.30084 8.40619 0
      vertex -5.18442 6.62392 0
      vertex -1.87381 9.82287 0
    endloop
  endfacet
  facet normal -0 0 -1
    outer loop
      vertex -1.61658 -2.8 0
      vertex -5.90326 -3.82421 0
      vertex -3.23316 0 0
    endloop
  endfacet
  facet normal 0 0 -1
    outer loop
      vertex -1.61658 2.8 0
      vertex -5.46125 4.43259 0
      vertex -5.18442 5.13178 0
    endloop
  endfacet
  facet normal 0 0 -1
    outer loop
      vertex -6.48269 -3.34487 0
      vertex -3.23316 0 0
      vertex -5.90326 -3.82421 0
    endloop
  endfacet
  facet normal 0 0 -1
    outer loop
      vertex -1.61658 2.8 0
      vertex -5.90326 3.82421 0
      vertex -5.46125 4.43259 0
    endloop
  endfacet
  facet normal 0 0 -1
    outer loop
      vertex -7.16312 -3.02468 0
      vertex -3.23316 0 0
      vertex -6.48269 -3.34487 0
    endloop
  endfacet
  facet normal 0 0 -1
    outer loop
      vertex -3.23316 0 0
      vertex -6.48269 3.34487 0
      vertex -5.90326 3.82421 0
    endloop
  endfacet
  facet normal 0 0 -1
    outer loop
      vertex -7.16312 3.02468 0
      vertex -3.23316 0 0
      vertex -7.16312 -3.02468 0
    endloop
  endfacet
  facet normal 0 0 -1
    outer loop
      vertex -3.23316 0 0
      vertex -7.16312 3.02468 0
      vertex -6.48269 3.34487 0
    endloop
  endfacet
  facet normal 0 0 -1
    outer loop
      vertex -7.9018 -2.88377 0
      vertex -7.16312 3.02468 0
      vertex -7.16312 -3.02468 0
    endloop
  endfacet
  facet normal 0 0 -1
    outer loop
      vertex -7.9018 -2.88377 0
      vertex -7.9018 2.88377 0
      vertex -7.16312 3.02468 0
    endloop
  endfacet
  facet normal 0 0 -1
    outer loop
      vertex -9.92115 -1.25333 0
      vertex -7.9018 -2.88377 0
      vertex -8.65231 -2.93099 0
    endloop
  endfacet
  facet normal 0 0 -1
    outer loop
      vertex -7.9018 -2.88377 0
      vertex -9.92115 -1.25333 0
      vertex -7.9018 2.88377 0
    endloop
  endfacet
  facet normal 0 0 -1
    outer loop
      vertex -9.92115 -1.25333 0
      vertex -8.65231 -2.93099 0
      vertex -9.36751 -3.16337 0
    endloop
  endfacet
  facet normal 0 0 -1
    outer loop
      vertex -9.92115 1.25333 0
      vertex -7.9018 2.88377 0
      vertex -9.92115 -1.25333 0
    endloop
  endfacet
  facet normal 0 0 -1
    outer loop
      vertex -9.92115 -1.25333 0
      vertex -9.36751 -3.16337 0
      vertex -9.42187 -3.19787 0
    endloop
  endfacet
  facet normal -0 0 -1
    outer loop
      vertex -7.9018 2.88377 0
      vertex -9.92115 1.25333 0
      vertex -8.65231 2.93099 0
    endloop
  endfacet
  facet normal -0 0 -1
    outer loop
      vertex -8.65231 2.93099 0
      vertex -9.92115 1.25333 0
      vertex -9.36751 3.16337 0
    endloop
  endfacet
  facet normal -0 0 -1
    outer loop
      vertex -9.36751 3.16337 0
      vertex -9.92115 1.25333 0
      vertex -9.42187 3.19787 0
    endloop
  endfacet
  facet normal 0 0 -1
    outer loop
      vertex -5.90326 -3.82421 0
      vertex -1.61658 -2.8 0
      vertex -5.46125 -4.43259 0
    endloop
  endfacet
  facet normal 0 0 -1
    outer loop
      vertex -1.87381 9.82287 0
      vertex -5.18442 6.62392 0
      vertex -4.25779 9.04827 0
    endloop
  endfacet
  facet normal 0 0 -1
    outer loop
      vertex -5.46125 7.32311 0
      vertex -4.25779 9.04827 0
      vertex -5.18442 6.62392 0
    endloop
  endfacet
  facet normal 0 0 -1
    outer loop
      vertex -5.90326 7.93149 0
      vertex -4.25779 9.04827 0
      vertex -5.46125 7.32311 0
    endloop
  endfacet
  facet normal 0 0 -1
    outer loop
      vertex -4.25779 9.04827 0
      vertex -5.90326 7.93149 0
      vertex -5.95288 7.97254 0
    endloop
  endfacet
  facet normal 0.809017 -0.587785 0
    outer loop
      vertex 7.28969 -6.84547 3
      vertex 8.76307 -4.81754 0
      vertex 8.76307 -4.81754 3
    endloop
  endfacet
  facet normal 0.809017 -0.587785 0
    outer loop
      vertex 8.76307 -4.81754 0
      vertex 7.28969 -6.84547 3
      vertex 7.28969 -6.84547 0
    endloop
  endfacet
  facet normal 0.929776 -0.368125 0
    outer loop
      vertex 8.76307 -4.81754 3
      vertex 9.50212 -2.9509 0
      vertex 9.50212 -2.9509 3
    endloop
  endfacet
  facet normal 0.929776 -0.368125 0
    outer loop
      vertex 9.50212 -2.9509 0
      vertex 8.76307 -4.81754 3
      vertex 8.76307 -4.81754 0
    endloop
  endfacet
  facet normal -0.309017 -0.951057 0
    outer loop
      vertex -4.25779 -9.04827 0
      vertex -1.87381 -9.82287 3
      vertex -4.25779 -9.04827 3
    endloop
  endfacet
  facet normal -0.309017 -0.951057 -0
    outer loop
      vertex -1.87381 -9.82287 3
      vertex -4.25779 -9.04827 0
      vertex -1.87381 -9.82287 0
    endloop
  endfacet
  facet normal -0.968583 -0.24869 0
    outer loop
      vertex -9.42187 -3.19787 0
      vertex -9.92115 -1.25333 3
      vertex -9.92115 -1.25333 0
    endloop
  endfacet
  facet normal -0.968583 -0.24869 0
    outer loop
      vertex -9.92115 -1.25333 3
      vertex -9.42187 -3.19787 0
      vertex -9.42187 -3.19787 3
    endloop
  endfacet
  facet normal -0.0627903 -0.998027 0
    outer loop
      vertex -1.87381 -9.82287 0
      vertex 0.129839 -9.94893 3
      vertex -1.87381 -9.82287 3
    endloop
  endfacet
  facet normal -0.0627903 -0.998027 -0
    outer loop
      vertex 0.129839 -9.94893 3
      vertex -1.87381 -9.82287 0
      vertex 0.129839 -9.94893 0
    endloop
  endfacet
  facet normal -0.535827 -0.844328 0
    outer loop
      vertex -5.95288 -7.97254 0
      vertex -4.25779 -9.04827 3
      vertex -5.95288 -7.97254 3
    endloop
  endfacet
  facet normal -0.535827 -0.844328 -0
    outer loop
      vertex -4.25779 -9.04827 3
      vertex -5.95288 -7.97254 0
      vertex -4.25779 -9.04827 0
    endloop
  endfacet
  facet normal 0.637424 -0.770513 0
    outer loop
      vertex 5.74279 -8.12517 0
      vertex 7.28969 -6.84547 3
      vertex 5.74279 -8.12517 3
    endloop
  endfacet
  facet normal 0.637424 -0.770513 0
    outer loop
      vertex 7.28969 -6.84547 3
      vertex 5.74279 -8.12517 0
      vertex 7.28969 -6.84547 0
    endloop
  endfacet
  facet normal 0 -1 0
    outer loop
      vertex -1.61658 2.8 0
      vertex 1.61658 2.8 5.5
      vertex -1.61658 2.8 5.5
    endloop
  endfacet
  facet normal 0 -1 -0
    outer loop
      vertex 1.61658 2.8 5.5
      vertex -1.61658 2.8 0
      vertex 1.61658 2.8 0
    endloop
  endfacet
  facet normal 0 1 -0
    outer loop
      vertex 1.61658 -2.8 0
      vertex -1.61658 -2.8 5.5
      vertex 1.61658 -2.8 5.5
    endloop
  endfacet
  facet normal 0 1 0
    outer loop
      vertex -1.61658 -2.8 5.5
      vertex 1.61658 -2.8 0
      vertex -1.61658 -2.8 0
    endloop
  endfacet
  facet normal -0.866025 -0.5 0
    outer loop
      vertex 3.23316 0 0
      vertex 1.61658 2.8 5.5
      vertex 1.61658 2.8 0
    endloop
  endfacet
  facet normal -0.866025 -0.5 0
    outer loop
      vertex 1.61658 2.8 5.5
      vertex 3.23316 0 0
      vertex 3.23316 0 5.5
    endloop
  endfacet
  facet normal 0.866025 0.5 0
    outer loop
      vertex -1.61658 -2.8 5.5
      vertex -3.23316 0 0
      vertex -3.23316 0 5.5
    endloop
  endfacet
  facet normal 0.866025 0.5 0
    outer loop
      vertex -3.23316 0 0
      vertex -1.61658 -2.8 5.5
      vertex -1.61658 -2.8 0
    endloop
  endfacet
  facet normal 0.866025 -0.5 0
    outer loop
      vertex -3.23316 0 5.5
      vertex -1.61658 2.8 0
      vertex -1.61658 2.8 5.5
    endloop
  endfacet
  facet normal 0.866025 -0.5 0
    outer loop
      vertex -1.61658 2.8 0
      vertex -3.23316 0 5.5
      vertex -3.23316 0 0
    endloop
  endfacet
  facet normal -0.866025 0.5 0
    outer loop
      vertex 1.61658 -2.8 0
      vertex 3.23316 0 5.5
      vertex 3.23316 0 0
    endloop
  endfacet
  facet normal -0.866025 0.5 0
    outer loop
      vertex 3.23316 0 5.5
      vertex 1.61658 -2.8 0
      vertex 1.61658 -2.8 5.5
    endloop
  endfacet
  facet normal 1 -0 0
    outer loop
      vertex 7.02366 -0.375999 3
      vertex 7.02366 0.375999 0
      vertex 7.02366 0.375999 3
    endloop
  endfacet
  facet normal 1 0 0
    outer loop
      vertex 7.02366 0.375999 0
      vertex 7.02366 -0.375999 3
      vertex 7.02366 -0.375999 0
    endloop
  endfacet
  facet normal 0.535826 -0.844328 0
    outer loop
      vertex 8.08773 2.31154 0
      vertex 8.72266 2.71448 3
      vertex 8.08773 2.31154 3
    endloop
  endfacet
  facet normal 0.535826 -0.844328 0
    outer loop
      vertex 8.72266 2.71448 3
      vertex 8.08773 2.31154 0
      vertex 8.72266 2.71448 0
    endloop
  endfacet
  facet normal 0.968583 -0.24869 0
    outer loop
      vertex 7.02366 0.375999 3
      vertex 7.21067 1.10437 0
      vertex 7.21067 1.10437 3
    endloop
  endfacet
  facet normal 0.968583 -0.24869 0
    outer loop
      vertex 7.21067 1.10437 0
      vertex 7.02366 0.375999 3
      vertex 7.02366 0.375999 0
    endloop
  endfacet
  facet normal 0.728969 -0.684547 0
    outer loop
      vertex 7.57295 1.76336 3
      vertex 8.08773 2.31154 0
      vertex 8.08773 2.31154 3
    endloop
  endfacet
  facet normal 0.728969 -0.684547 0
    outer loop
      vertex 8.08773 2.31154 0
      vertex 7.57295 1.76336 3
      vertex 7.57295 1.76336 0
    endloop
  endfacet
  facet normal 0.0627914 -0.998027 0
    outer loop
      vertex 9.43786 2.94686 0
      vertex 9.50212 2.9509 3
      vertex 9.43786 2.94686 3
    endloop
  endfacet
  facet normal 0.0627914 -0.998027 0
    outer loop
      vertex 9.50212 2.9509 3
      vertex 9.43786 2.94686 0
      vertex 9.50212 2.9509 0
    endloop
  endfacet
  facet normal 0.876307 -0.481753 0
    outer loop
      vertex 7.21067 1.10437 3
      vertex 7.57295 1.76336 0
      vertex 7.57295 1.76336 3
    endloop
  endfacet
  facet normal 0.876307 -0.481753 0
    outer loop
      vertex 7.57295 1.76336 0
      vertex 7.21067 1.10437 3
      vertex 7.21067 1.10437 0
    endloop
  endfacet
  facet normal 0.309017 -0.951056 0
    outer loop
      vertex 8.72266 2.71448 0
      vertex 9.43786 2.94686 3
      vertex 8.72266 2.71448 3
    endloop
  endfacet
  facet normal 0.309017 -0.951056 0
    outer loop
      vertex 9.43786 2.94686 3
      vertex 8.72266 2.71448 0
      vertex 9.43786 2.94686 0
    endloop
  endfacet
  facet normal 0.535826 0.844328 -0
    outer loop
      vertex 8.72266 -2.71448 0
      vertex 8.08773 -2.31154 3
      vertex 8.72266 -2.71448 3
    endloop
  endfacet
  facet normal 0.535826 0.844328 0
    outer loop
      vertex 8.08773 -2.31154 3
      vertex 8.72266 -2.71448 0
      vertex 8.08773 -2.31154 0
    endloop
  endfacet
  facet normal 0.728969 0.684547 0
    outer loop
      vertex 8.08773 -2.31154 3
      vertex 7.57295 -1.76336 0
      vertex 7.57295 -1.76336 3
    endloop
  endfacet
  facet normal 0.728969 0.684547 0
    outer loop
      vertex 7.57295 -1.76336 0
      vertex 8.08773 -2.31154 3
      vertex 8.08773 -2.31154 0
    endloop
  endfacet
  facet normal 0.968583 0.24869 0
    outer loop
      vertex 7.21067 -1.10437 3
      vertex 7.02366 -0.375999 0
      vertex 7.02366 -0.375999 3
    endloop
  endfacet
  facet normal 0.968583 0.24869 0
    outer loop
      vertex 7.02366 -0.375999 0
      vertex 7.21067 -1.10437 3
      vertex 7.21067 -1.10437 0
    endloop
  endfacet
  facet normal 0.0627914 0.998027 -0
    outer loop
      vertex 9.50212 -2.9509 0
      vertex 9.43786 -2.94686 3
      vertex 9.50212 -2.9509 3
    endloop
  endfacet
  facet normal 0.0627914 0.998027 0
    outer loop
      vertex 9.43786 -2.94686 3
      vertex 9.50212 -2.9509 0
      vertex 9.43786 -2.94686 0
    endloop
  endfacet
  facet normal 0.309017 0.951056 -0
    outer loop
      vertex 9.43786 -2.94686 0
      vertex 8.72266 -2.71448 3
      vertex 9.43786 -2.94686 3
    endloop
  endfacet
  facet normal 0.309017 0.951056 0
    outer loop
      vertex 8.72266 -2.71448 3
      vertex 9.43786 -2.94686 0
      vertex 8.72266 -2.71448 0
    endloop
  endfacet
  facet normal 0.876307 0.481753 0
    outer loop
      vertex 7.57295 -1.76336 3
      vertex 7.21067 -1.10437 0
      vertex 7.21067 -1.10437 3
    endloop
  endfacet
  facet normal 0.876307 0.481753 0
    outer loop
      vertex 7.21067 -1.10437 0
      vertex 7.57295 -1.76336 3
      vertex 7.57295 -1.76336 0
    endloop
  endfacet
  facet normal 0.968583 -0.248691 0
    outer loop
      vertex 0.113826 9.88656 3
      vertex 0.129839 9.94893 0
      vertex 0.129839 9.94893 3
    endloop
  endfacet
  facet normal 0.968583 -0.248691 0
    outer loop
      vertex 0.129839 9.94893 0
      vertex 0.113826 9.88656 3
      vertex 0.113826 9.88656 0
    endloop
  endfacet
  facet normal 0.876307 0.481753 0
    outer loop
      vertex 0.663118 7.74721 3
      vertex 0.30084 8.40619 0
      vertex 0.30084 8.40619 3
    endloop
  endfacet
  facet normal 0.876307 0.481753 0
    outer loop
      vertex 0.30084 8.40619 0
      vertex 0.663118 7.74721 3
      vertex 0.663118 7.74721 0
    endloop
  endfacet
  facet normal 1 -0 0
    outer loop
      vertex 0.113826 9.13457 3
      vertex 0.113826 9.88656 0
      vertex 0.113826 9.88656 3
    endloop
  endfacet
  facet normal 1 0 0
    outer loop
      vertex 0.113826 9.88656 0
      vertex 0.113826 9.13457 3
      vertex 0.113826 9.13457 0
    endloop
  endfacet
  facet normal 0.728968 0.684548 0
    outer loop
      vertex 1.1779 7.19903 3
      vertex 0.663118 7.74721 0
      vertex 0.663118 7.74721 3
    endloop
  endfacet
  facet normal 0.728968 0.684548 0
    outer loop
      vertex 0.663118 7.74721 0
      vertex 1.1779 7.19903 3
      vertex 1.1779 7.19903 0
    endloop
  endfacet
  facet normal 0.309017 0.951056 -0
    outer loop
      vertex 2.52803 6.5637 0
      vertex 1.81283 6.79608 3
      vertex 2.52803 6.5637 3
    endloop
  endfacet
  facet normal 0.309017 0.951056 0
    outer loop
      vertex 1.81283 6.79608 3
      vertex 2.52803 6.5637 0
      vertex 1.81283 6.79608 0
    endloop
  endfacet
  facet normal 0.968583 0.24869 0
    outer loop
      vertex 0.30084 8.40619 3
      vertex 0.113826 9.13457 0
      vertex 0.113826 9.13457 3
    endloop
  endfacet
  facet normal 0.968583 0.24869 0
    outer loop
      vertex 0.113826 9.13457 0
      vertex 0.30084 8.40619 3
      vertex 0.30084 8.40619 0
    endloop
  endfacet
  facet normal 0.535827 0.844328 -0
    outer loop
      vertex 1.81283 6.79608 0
      vertex 1.1779 7.19903 3
      vertex 1.81283 6.79608 3
    endloop
  endfacet
  facet normal 0.535827 0.844328 0
    outer loop
      vertex 1.1779 7.19903 3
      vertex 1.81283 6.79608 0
      vertex 1.1779 7.19903 0
    endloop
  endfacet
  facet normal -0.809017 0.587785 0
    outer loop
      vertex 5.27708 7.45692 0
      vertex 5.71909 8.0653 3
      vertex 5.71909 8.0653 0
    endloop
  endfacet
  facet normal -0.809017 0.587785 0
    outer loop
      vertex 5.71909 8.0653 3
      vertex 5.27708 7.45692 0
      vertex 5.27708 7.45692 3
    endloop
  endfacet
  facet normal -0.637424 0.770513 0
    outer loop
      vertex 5.27708 7.45692 0
      vertex 4.69765 6.97758 3
      vertex 5.27708 7.45692 3
    endloop
  endfacet
  facet normal -0.637424 0.770513 0
    outer loop
      vertex 4.69765 6.97758 3
      vertex 5.27708 7.45692 0
      vertex 4.69765 6.97758 0
    endloop
  endfacet
  facet normal -0.425779 0.904827 0
    outer loop
      vertex 4.69765 6.97758 0
      vertex 4.01722 6.6574 3
      vertex 4.69765 6.97758 3
    endloop
  endfacet
  facet normal -0.425779 0.904827 0
    outer loop
      vertex 4.01722 6.6574 3
      vertex 4.69765 6.97758 0
      vertex 4.01722 6.6574 0
    endloop
  endfacet
  facet normal -0.187382 0.982287 0
    outer loop
      vertex 4.01722 6.6574 0
      vertex 3.27854 6.51648 3
      vertex 4.01722 6.6574 3
    endloop
  endfacet
  facet normal -0.187382 0.982287 0
    outer loop
      vertex 3.27854 6.51648 3
      vertex 4.01722 6.6574 0
      vertex 3.27854 6.51648 0
    endloop
  endfacet
  facet normal 0.0627904 0.998027 -0
    outer loop
      vertex 3.27854 6.51648 0
      vertex 2.52803 6.5637 3
      vertex 3.27854 6.51648 3
    endloop
  endfacet
  facet normal 0.0627904 0.998027 0
    outer loop
      vertex 2.52803 6.5637 3
      vertex 3.27854 6.51648 0
      vertex 2.52803 6.5637 0
    endloop
  endfacet
  facet normal -0.929775 0.368127 0
    outer loop
      vertex 5.71909 8.0653 0
      vertex 5.74279 8.12517 3
      vertex 5.74279 8.12517 0
    endloop
  endfacet
  facet normal -0.929775 0.368127 0
    outer loop
      vertex 5.74279 8.12517 3
      vertex 5.71909 8.0653 0
      vertex 5.71909 8.0653 3
    endloop
  endfacet
  facet normal -0.637424 0.770513 0
    outer loop
      vertex -5.90326 3.82421 0
      vertex -6.48269 3.34487 3
      vertex -5.90326 3.82421 3
    endloop
  endfacet
  facet normal -0.637424 0.770513 0
    outer loop
      vertex -6.48269 3.34487 3
      vertex -5.90326 3.82421 0
      vertex -6.48269 3.34487 0
    endloop
  endfacet
  facet normal -0.809017 -0.587786 0
    outer loop
      vertex -5.46125 7.32311 0
      vertex -5.90326 7.93149 3
      vertex -5.90326 7.93149 0
    endloop
  endfacet
  facet normal -0.809017 -0.587786 0
    outer loop
      vertex -5.90326 7.93149 3
      vertex -5.46125 7.32311 0
      vertex -5.46125 7.32311 3
    endloop
  endfacet
  facet normal 0.309017 0.951056 -0
    outer loop
      vertex -8.65231 2.93099 0
      vertex -9.36751 3.16337 3
      vertex -8.65231 2.93099 3
    endloop
  endfacet
  facet normal 0.309017 0.951056 0
    outer loop
      vertex -9.36751 3.16337 3
      vertex -8.65231 2.93099 0
      vertex -9.36751 3.16337 0
    endloop
  endfacet
  facet normal -0.42578 0.904827 0
    outer loop
      vertex -6.48269 3.34487 0
      vertex -7.16312 3.02468 3
      vertex -6.48269 3.34487 3
    endloop
  endfacet
  facet normal -0.42578 0.904827 0
    outer loop
      vertex -7.16312 3.02468 3
      vertex -6.48269 3.34487 0
      vertex -7.16312 3.02468 0
    endloop
  endfacet
  facet normal -0.929776 0.368125 0
    outer loop
      vertex -5.46125 4.43259 0
      vertex -5.18442 5.13178 3
      vertex -5.18442 5.13178 0
    endloop
  endfacet
  facet normal -0.929776 0.368125 0
    outer loop
      vertex -5.18442 5.13178 3
      vertex -5.46125 4.43259 0
      vertex -5.46125 4.43259 3
    endloop
  endfacet
  facet normal -0.929776 -0.368125 0
    outer loop
      vertex -5.18442 6.62392 0
      vertex -5.46125 7.32311 3
      vertex -5.46125 7.32311 0
    endloop
  endfacet
  facet normal -0.929776 -0.368125 0
    outer loop
      vertex -5.46125 7.32311 3
      vertex -5.18442 6.62392 0
      vertex -5.18442 6.62392 3
    endloop
  endfacet
  facet normal 0.53583 0.844326 -0
    outer loop
      vertex -9.36751 3.16337 0
      vertex -9.42187 3.19787 3
      vertex -9.36751 3.16337 3
    endloop
  endfacet
  facet normal 0.53583 0.844326 0
    outer loop
      vertex -9.42187 3.19787 3
      vertex -9.36751 3.16337 0
      vertex -9.42187 3.19787 0
    endloop
  endfacet
  facet normal -0.809017 0.587786 0
    outer loop
      vertex -5.90326 3.82421 0
      vertex -5.46125 4.43259 3
      vertex -5.46125 4.43259 0
    endloop
  endfacet
  facet normal -0.809017 0.587786 0
    outer loop
      vertex -5.46125 4.43259 3
      vertex -5.90326 3.82421 0
      vertex -5.90326 3.82421 3
    endloop
  endfacet
  facet normal 0.0627904 0.998027 -0
    outer loop
      vertex -7.9018 2.88377 0
      vertex -8.65231 2.93099 3
      vertex -7.9018 2.88377 3
    endloop
  endfacet
  facet normal 0.0627904 0.998027 0
    outer loop
      vertex -8.65231 2.93099 3
      vertex -7.9018 2.88377 0
      vertex -8.65231 2.93099 0
    endloop
  endfacet
  facet normal -0.187381 0.982287 0
    outer loop
      vertex -7.16312 3.02468 0
      vertex -7.9018 2.88377 3
      vertex -7.16312 3.02468 3
    endloop
  endfacet
  facet normal -0.187381 0.982287 0
    outer loop
      vertex -7.9018 2.88377 3
      vertex -7.16312 3.02468 0
      vertex -7.9018 2.88377 0
    endloop
  endfacet
  facet normal -0.637425 -0.770512 0
    outer loop
      vertex -5.95288 7.97254 0
      vertex -5.90326 7.93149 3
      vertex -5.95288 7.97254 3
    endloop
  endfacet
  facet normal -0.637425 -0.770512 -0
    outer loop
      vertex -5.90326 7.93149 3
      vertex -5.95288 7.97254 0
      vertex -5.90326 7.93149 0
    endloop
  endfacet
  facet normal -0.992115 0.125332 0
    outer loop
      vertex -5.18442 5.13178 0
      vertex -5.09017 5.87785 3
      vertex -5.09017 5.87785 0
    endloop
  endfacet
  facet normal -0.992115 0.125332 0
    outer loop
      vertex -5.09017 5.87785 3
      vertex -5.18442 5.13178 0
      vertex -5.18442 5.13178 3
    endloop
  endfacet
  facet normal -0.992115 -0.125332 0
    outer loop
      vertex -5.09017 5.87785 0
      vertex -5.18442 6.62392 3
      vertex -5.18442 6.62392 0
    endloop
  endfacet
  facet normal -0.992115 -0.125332 0
    outer loop
      vertex -5.18442 6.62392 3
      vertex -5.09017 5.87785 0
      vertex -5.09017 5.87785 3
    endloop
  endfacet
  facet normal -0.929776 -0.368125 0
    outer loop
      vertex -5.18442 -5.13178 0
      vertex -5.46125 -4.43259 3
      vertex -5.46125 -4.43259 0
    endloop
  endfacet
  facet normal -0.929776 -0.368125 0
    outer loop
      vertex -5.46125 -4.43259 3
      vertex -5.18442 -5.13178 0
      vertex -5.18442 -5.13178 3
    endloop
  endfacet
  facet normal -0.809017 0.587786 0
    outer loop
      vertex -5.90326 -7.93149 0
      vertex -5.46125 -7.32311 3
      vertex -5.46125 -7.32311 0
    endloop
  endfacet
  facet normal -0.809017 0.587786 0
    outer loop
      vertex -5.46125 -7.32311 3
      vertex -5.90326 -7.93149 0
      vertex -5.90326 -7.93149 3
    endloop
  endfacet
  facet normal -0.992115 -0.125332 0
    outer loop
      vertex -5.09017 -5.87785 0
      vertex -5.18442 -5.13178 3
      vertex -5.18442 -5.13178 0
    endloop
  endfacet
  facet normal -0.992115 -0.125332 0
    outer loop
      vertex -5.18442 -5.13178 3
      vertex -5.09017 -5.87785 0
      vertex -5.09017 -5.87785 3
    endloop
  endfacet
  facet normal -0.637425 0.770512 0
    outer loop
      vertex -5.90326 -7.93149 0
      vertex -5.95288 -7.97254 3
      vertex -5.90326 -7.93149 3
    endloop
  endfacet
  facet normal -0.637425 0.770512 0
    outer loop
      vertex -5.95288 -7.97254 3
      vertex -5.90326 -7.93149 0
      vertex -5.95288 -7.97254 0
    endloop
  endfacet
  facet normal -0.809017 -0.587786 0
    outer loop
      vertex -5.46125 -4.43259 0
      vertex -5.90326 -3.82421 3
      vertex -5.90326 -3.82421 0
    endloop
  endfacet
  facet normal -0.809017 -0.587786 0
    outer loop
      vertex -5.90326 -3.82421 3
      vertex -5.46125 -4.43259 0
      vertex -5.46125 -4.43259 3
    endloop
  endfacet
  facet normal -0.929776 0.368125 0
    outer loop
      vertex -5.46125 -7.32311 0
      vertex -5.18442 -6.62392 3
      vertex -5.18442 -6.62392 0
    endloop
  endfacet
  facet normal -0.929776 0.368125 0
    outer loop
      vertex -5.18442 -6.62392 3
      vertex -5.46125 -7.32311 0
      vertex -5.46125 -7.32311 3
    endloop
  endfacet
  facet normal -0.992115 0.125332 0
    outer loop
      vertex -5.18442 -6.62392 0
      vertex -5.09017 -5.87785 3
      vertex -5.09017 -5.87785 0
    endloop
  endfacet
  facet normal -0.992115 0.125332 0
    outer loop
      vertex -5.09017 -5.87785 3
      vertex -5.18442 -6.62392 0
      vertex -5.18442 -6.62392 3
    endloop
  endfacet
  facet normal -0.42578 -0.904827 0
    outer loop
      vertex -7.16312 -3.02468 0
      vertex -6.48269 -3.34487 3
      vertex -7.16312 -3.02468 3
    endloop
  endfacet
  facet normal -0.42578 -0.904827 -0
    outer loop
      vertex -6.48269 -3.34487 3
      vertex -7.16312 -3.02468 0
      vertex -6.48269 -3.34487 0
    endloop
  endfacet
  facet normal -0.637424 -0.770513 0
    outer loop
      vertex -6.48269 -3.34487 0
      vertex -5.90326 -3.82421 3
      vertex -6.48269 -3.34487 3
    endloop
  endfacet
  facet normal -0.637424 -0.770513 -0
    outer loop
      vertex -5.90326 -3.82421 3
      vertex -6.48269 -3.34487 0
      vertex -5.90326 -3.82421 0
    endloop
  endfacet
  facet normal -0.187381 -0.982287 0
    outer loop
      vertex -7.9018 -2.88377 0
      vertex -7.16312 -3.02468 3
      vertex -7.9018 -2.88377 3
    endloop
  endfacet
  facet normal -0.187381 -0.982287 -0
    outer loop
      vertex -7.16312 -3.02468 3
      vertex -7.9018 -2.88377 0
      vertex -7.16312 -3.02468 0
    endloop
  endfacet
  facet normal 0.53583 -0.844326 0
    outer loop
      vertex -9.42187 -3.19787 0
      vertex -9.36751 -3.16337 3
      vertex -9.42187 -3.19787 3
    endloop
  endfacet
  facet normal 0.53583 -0.844326 0
    outer loop
      vertex -9.36751 -3.16337 3
      vertex -9.42187 -3.19787 0
      vertex -9.36751 -3.16337 0
    endloop
  endfacet
  facet normal 0.309017 -0.951056 0
    outer loop
      vertex -9.36751 -3.16337 0
      vertex -8.65231 -2.93099 3
      vertex -9.36751 -3.16337 3
    endloop
  endfacet
  facet normal 0.309017 -0.951056 0
    outer loop
      vertex -8.65231 -2.93099 3
      vertex -9.36751 -3.16337 0
      vertex -8.65231 -2.93099 0
    endloop
  endfacet
  facet normal 0.0627904 -0.998027 0
    outer loop
      vertex -8.65231 -2.93099 0
      vertex -7.9018 -2.88377 3
      vertex -8.65231 -2.93099 3
    endloop
  endfacet
  facet normal 0.0627904 -0.998027 0
    outer loop
      vertex -7.9018 -2.88377 3
      vertex -8.65231 -2.93099 0
      vertex -7.9018 -2.88377 0
    endloop
  endfacet
  facet normal 0.309017 -0.951056 0
    outer loop
      vertex 1.81283 -6.79608 0
      vertex 2.52803 -6.5637 3
      vertex 1.81283 -6.79608 3
    endloop
  endfacet
  facet normal 0.309017 -0.951056 0
    outer loop
      vertex 2.52803 -6.5637 3
      vertex 1.81283 -6.79608 0
      vertex 2.52803 -6.5637 0
    endloop
  endfacet
  facet normal -0.929775 -0.368127 0
    outer loop
      vertex 5.74279 -8.12517 0
      vertex 5.71909 -8.0653 3
      vertex 5.71909 -8.0653 0
    endloop
  endfacet
  facet normal -0.929775 -0.368127 0
    outer loop
      vertex 5.71909 -8.0653 3
      vertex 5.74279 -8.12517 0
      vertex 5.74279 -8.12517 3
    endloop
  endfacet
  facet normal -0.425779 -0.904827 0
    outer loop
      vertex 4.01722 -6.6574 0
      vertex 4.69765 -6.97758 3
      vertex 4.01722 -6.6574 3
    endloop
  endfacet
  facet normal -0.425779 -0.904827 -0
    outer loop
      vertex 4.69765 -6.97758 3
      vertex 4.01722 -6.6574 0
      vertex 4.69765 -6.97758 0
    endloop
  endfacet
  facet normal -0.187382 -0.982287 0
    outer loop
      vertex 3.27854 -6.51648 0
      vertex 4.01722 -6.6574 3
      vertex 3.27854 -6.51648 3
    endloop
  endfacet
  facet normal -0.187382 -0.982287 -0
    outer loop
      vertex 4.01722 -6.6574 3
      vertex 3.27854 -6.51648 0
      vertex 4.01722 -6.6574 0
    endloop
  endfacet
  facet normal -0.809017 -0.587785 0
    outer loop
      vertex 5.71909 -8.0653 0
      vertex 5.27708 -7.45692 3
      vertex 5.27708 -7.45692 0
    endloop
  endfacet
  facet normal -0.809017 -0.587785 0
    outer loop
      vertex 5.27708 -7.45692 3
      vertex 5.71909 -8.0653 0
      vertex 5.71909 -8.0653 3
    endloop
  endfacet
  facet normal 0.0627904 -0.998027 0
    outer loop
      vertex 2.52803 -6.5637 0
      vertex 3.27854 -6.51648 3
      vertex 2.52803 -6.5637 3
    endloop
  endfacet
  facet normal 0.0627904 -0.998027 0
    outer loop
      vertex 3.27854 -6.51648 3
      vertex 2.52803 -6.5637 0
      vertex 3.27854 -6.51648 0
    endloop
  endfacet
  facet normal -0.637424 -0.770513 0
    outer loop
      vertex 4.69765 -6.97758 0
      vertex 5.27708 -7.45692 3
      vertex 4.69765 -6.97758 3
    endloop
  endfacet
  facet normal -0.637424 -0.770513 -0
    outer loop
      vertex 5.27708 -7.45692 3
      vertex 4.69765 -6.97758 0
      vertex 5.27708 -7.45692 0
    endloop
  endfacet
  facet normal 0.876307 -0.481753 0
    outer loop
      vertex 0.30084 -8.40619 3
      vertex 0.663118 -7.74721 0
      vertex 0.663118 -7.74721 3
    endloop
  endfacet
  facet normal 0.876307 -0.481753 0
    outer loop
      vertex 0.663118 -7.74721 0
      vertex 0.30084 -8.40619 3
      vertex 0.30084 -8.40619 0
    endloop
  endfacet
  facet normal 0.968583 0.248691 0
    outer loop
      vertex 0.129839 -9.94893 3
      vertex 0.113826 -9.88656 0
      vertex 0.113826 -9.88656 3
    endloop
  endfacet
  facet normal 0.968583 0.248691 0
    outer loop
      vertex 0.113826 -9.88656 0
      vertex 0.129839 -9.94893 3
      vertex 0.129839 -9.94893 0
    endloop
  endfacet
  facet normal 0.728968 -0.684548 0
    outer loop
      vertex 0.663118 -7.74721 3
      vertex 1.1779 -7.19903 0
      vertex 1.1779 -7.19903 3
    endloop
  endfacet
  facet normal 0.728968 -0.684548 0
    outer loop
      vertex 1.1779 -7.19903 0
      vertex 0.663118 -7.74721 3
      vertex 0.663118 -7.74721 0
    endloop
  endfacet
  facet normal 0.535827 -0.844328 0
    outer loop
      vertex 1.1779 -7.19903 0
      vertex 1.81283 -6.79608 3
      vertex 1.1779 -7.19903 3
    endloop
  endfacet
  facet normal 0.535827 -0.844328 0
    outer loop
      vertex 1.81283 -6.79608 3
      vertex 1.1779 -7.19903 0
      vertex 1.81283 -6.79608 0
    endloop
  endfacet
  facet normal 1 -0 0
    outer loop
      vertex 0.113826 -9.88656 3
      vertex 0.113826 -9.13457 0
      vertex 0.113826 -9.13457 3
    endloop
  endfacet
  facet normal 1 0 0
    outer loop
      vertex 0.113826 -9.13457 0
      vertex 0.113826 -9.88656 3
      vertex 0.113826 -9.88656 0
    endloop
  endfacet
  facet normal 0.968583 -0.24869 0
    outer loop
      vertex 0.113826 -9.13457 3
      vertex 0.30084 -8.40619 0
      vertex 0.30084 -8.40619 3
    endloop
  endfacet
  facet normal 0.968583 -0.24869 0
    outer loop
      vertex 0.30084 -8.40619 0
      vertex 0.113826 -9.13457 3
      vertex 0.113826 -9.13457 0
    endloop
  endfacet
endsolid OpenSCAD_Model
