solid OpenSCAD_Model
  facet normal 0.992115 0.125333 0
    outer loop
      vertex 6.05 0 5.5
      vertex 5.85993 1.50457 3
      vertex 5.85993 1.50457 5.5
    endloop
  endfacet
  facet normal 0.992115 0.125333 0
    outer loop
      vertex 5.85993 1.50457 3
      vertex 6.05 0 5.5
      vertex 6.05 0 3
    endloop
  endfacet
  facet normal -1 0 0
    outer loop
      vertex -6.00229 -0.758265 3
      vertex -6.00229 0.758265 5.5
      vertex -6.00229 0.758265 3
    endloop
  endfacet
  facet normal -1 -0 0
    outer loop
      vertex -6.00229 0.758265 5.5
      vertex -6.00229 -0.758265 3
      vertex -6.00229 -0.758265 5.5
    endloop
  endfacet
  facet normal -0.0627903 0.998027 0
    outer loop
      vertex 0.379882 6.03806 3
      vertex -1.13366 5.94284 5.5
      vertex 0.379882 6.03806 5.5
    endloop
  endfacet
  facet normal -0.0627903 0.998027 0
    outer loop
      vertex -1.13366 5.94284 5.5
      vertex 0.379882 6.03806 3
      vertex -1.13366 5.94284 3
    endloop
  endfacet
  facet normal 0.637424 0.770513 -0
    outer loop
      vertex 4.41026 4.14151 3
      vertex 3.24175 5.10818 5.5
      vertex 4.41026 4.14151 5.5
    endloop
  endfacet
  facet normal 0.637424 0.770513 0
    outer loop
      vertex 3.24175 5.10818 5.5
      vertex 4.41026 4.14151 3
      vertex 3.24175 5.10818 3
    endloop
  endfacet
  facet normal 0.929777 0.368124 0
    outer loop
      vertex 5.85993 1.50457 5.5
      vertex 5.30165 2.91461 3
      vertex 5.30165 2.91461 5.5
    endloop
  endfacet
  facet normal 0.929777 0.368124 0
    outer loop
      vertex 5.30165 2.91461 3
      vertex 5.85993 1.50457 5.5
      vertex 5.85993 1.50457 3
    endloop
  endfacet
  facet normal -0.728969 0.684547 0
    outer loop
      vertex -4.89455 3.5561 3
      vertex -3.85641 4.6616 5.5
      vertex -3.85641 4.6616 3
    endloop
  endfacet
  facet normal -0.728969 0.684547 0
    outer loop
      vertex -3.85641 4.6616 5.5
      vertex -4.89455 3.5561 3
      vertex -4.89455 3.5561 5.5
    endloop
  endfacet
  facet normal 0 0 1
    outer loop
      vertex 4.09919 0 5.5
      vertex 6.05 0 5.5
      vertex 5.85993 1.50457 5.5
    endloop
  endfacet
  facet normal 0 0 1
    outer loop
      vertex 4.09919 0 5.5
      vertex 5.85993 1.50457 5.5
      vertex 5.30165 2.91461 5.5
    endloop
  endfacet
  facet normal 0 0 1
    outer loop
      vertex 6.05 0 5.5
      vertex 4.09919 0 5.5
      vertex 5.85993 -1.50457 5.5
    endloop
  endfacet
  facet normal -0 0 1
    outer loop
      vertex 2.04959 3.55 5.5
      vertex 5.30165 2.91461 5.5
      vertex 4.41026 4.14151 5.5
    endloop
  endfacet
  facet normal 0 0 1
    outer loop
      vertex 5.85993 -1.50457 5.5
      vertex 4.09919 0 5.5
      vertex 5.30165 -2.91461 5.5
    endloop
  endfacet
  facet normal 0 0 1
    outer loop
      vertex 2.04959 -3.55 5.5
      vertex 5.30165 -2.91461 5.5
      vertex 4.09919 0 5.5
    endloop
  endfacet
  facet normal 0 0 1
    outer loop
      vertex 2.04959 3.55 5.5
      vertex 4.41026 4.14151 5.5
      vertex 3.24175 5.10818 5.5
    endloop
  endfacet
  facet normal 0 0 1
    outer loop
      vertex 5.30165 2.91461 5.5
      vertex 2.04959 3.55 5.5
      vertex 4.09919 0 5.5
    endloop
  endfacet
  facet normal 0 0 1
    outer loop
      vertex 1.86955 5.75389 5.5
      vertex 2.04959 3.55 5.5
      vertex 3.24175 5.10818 5.5
    endloop
  endfacet
  facet normal 0 0 1
    outer loop
      vertex 0.379882 6.03806 5.5
      vertex 2.04959 3.55 5.5
      vertex 1.86955 5.75389 5.5
    endloop
  endfacet
  facet normal 0 0 1
    outer loop
      vertex -2.04959 3.55 5.5
      vertex 0.379882 6.03806 5.5
      vertex -1.13366 5.94284 5.5
    endloop
  endfacet
  facet normal 0 0 1
    outer loop
      vertex 0.379882 6.03806 5.5
      vertex -2.04959 3.55 5.5
      vertex 2.04959 3.55 5.5
    endloop
  endfacet
  facet normal -0 0 1
    outer loop
      vertex -2.57596 5.4742 5.5
      vertex -2.04959 3.55 5.5
      vertex -1.13366 5.94284 5.5
    endloop
  endfacet
  facet normal -0 0 1
    outer loop
      vertex -3.85641 4.6616 5.5
      vertex -2.04959 3.55 5.5
      vertex -2.57596 5.4742 5.5
    endloop
  endfacet
  facet normal -0 0 1
    outer loop
      vertex -4.89455 3.5561 5.5
      vertex -2.04959 3.55 5.5
      vertex -3.85641 4.6616 5.5
    endloop
  endfacet
  facet normal 0 0 1
    outer loop
      vertex -2.04959 3.55 5.5
      vertex -4.89455 3.5561 5.5
      vertex -4.09919 0 5.5
    endloop
  endfacet
  facet normal 0 0 1
    outer loop
      vertex 5.30165 -2.91461 5.5
      vertex 2.04959 -3.55 5.5
      vertex 4.41026 -4.14151 5.5
    endloop
  endfacet
  facet normal 0 0 1
    outer loop
      vertex 4.41026 -4.14151 5.5
      vertex 2.04959 -3.55 5.5
      vertex 3.24175 -5.10818 5.5
    endloop
  endfacet
  facet normal 0 0 1
    outer loop
      vertex 2.04959 -3.55 5.5
      vertex 1.86955 -5.75389 5.5
      vertex 3.24175 -5.10818 5.5
    endloop
  endfacet
  facet normal 0 0 1
    outer loop
      vertex 2.04959 -3.55 5.5
      vertex 0.379882 -6.03806 5.5
      vertex 1.86955 -5.75389 5.5
    endloop
  endfacet
  facet normal -0 0 1
    outer loop
      vertex -2.04959 -3.55 5.5
      vertex 0.379882 -6.03806 5.5
      vertex 2.04959 -3.55 5.5
    endloop
  endfacet
  facet normal 0 0 1
    outer loop
      vertex 0.379882 -6.03806 5.5
      vertex -2.04959 -3.55 5.5
      vertex -1.13366 -5.94284 5.5
    endloop
  endfacet
  facet normal 0 0 1
    outer loop
      vertex -2.04959 -3.55 5.5
      vertex -2.57596 -5.4742 5.5
      vertex -1.13366 -5.94284 5.5
    endloop
  endfacet
  facet normal 0 0 1
    outer loop
      vertex -2.04959 -3.55 5.5
      vertex -3.85641 -4.6616 5.5
      vertex -2.57596 -5.4742 5.5
    endloop
  endfacet
  facet normal 0 0 1
    outer loop
      vertex -4.89455 -3.5561 5.5
      vertex -2.04959 -3.55 5.5
      vertex -4.09919 0 5.5
    endloop
  endfacet
  facet normal -0 0 1
    outer loop
      vertex -5.62515 2.22715 5.5
      vertex -4.09919 0 5.5
      vertex -4.89455 3.5561 5.5
    endloop
  endfacet
  facet normal 0 0 1
    outer loop
      vertex -2.04959 -3.55 5.5
      vertex -4.89455 -3.5561 5.5
      vertex -3.85641 -4.6616 5.5
    endloop
  endfacet
  facet normal -0 0 1
    outer loop
      vertex -6.00229 0.758265 5.5
      vertex -4.09919 0 5.5
      vertex -5.62515 2.22715 5.5
    endloop
  endfacet
  facet normal 0 0 1
    outer loop
      vertex -4.09919 0 5.5
      vertex -5.62515 -2.22715 5.5
      vertex -4.89455 -3.5561 5.5
    endloop
  endfacet
  facet normal 0 0 1
    outer loop
      vertex -6.00229 -0.758265 5.5
      vertex -4.09919 0 5.5
      vertex -6.00229 0.758265 5.5
    endloop
  endfacet
  facet normal 0 0 1
    outer loop
      vertex -4.09919 0 5.5
      vertex -6.00229 -0.758265 5.5
      vertex -5.62515 -2.22715 5.5
    endloop
  endfacet
  facet normal -0.535827 0.844328 0
    outer loop
      vertex -2.57596 5.4742 3
      vertex -3.85641 4.6616 5.5
      vertex -2.57596 5.4742 5.5
    endloop
  endfacet
  facet normal -0.535827 0.844328 0
    outer loop
      vertex -3.85641 4.6616 5.5
      vertex -2.57596 5.4742 3
      vertex -3.85641 4.6616 3
    endloop
  endfacet
  facet normal -0 0 1
    outer loop
      vertex -2.01435 10.5596 3
      vertex 0.122362 9.81966 3
      vertex 0.122362 10.6281 3
    endloop
  endfacet
  facet normal 0 0 1
    outer loop
      vertex -2.01435 10.5596 3
      vertex 0.122362 10.6281 3
      vertex 0.139576 10.6951 3
    endloop
  endfacet
  facet normal 0 0 1
    outer loop
      vertex 0.122362 9.81966 3
      vertex -2.01435 10.5596 3
      vertex -1.13366 5.94284 3
    endloop
  endfacet
  facet normal 0 0 1
    outer loop
      vertex -2.01435 10.5596 3
      vertex -2.57596 5.4742 3
      vertex -1.13366 5.94284 3
    endloop
  endfacet
  facet normal -0 0 1
    outer loop
      vertex -4.57713 9.72689 3
      vertex -2.57596 5.4742 3
      vertex -2.01435 10.5596 3
    endloop
  endfacet
  facet normal -0 0 1
    outer loop
      vertex -5.57325 7.12072 3
      vertex -2.57596 5.4742 3
      vertex -4.57713 9.72689 3
    endloop
  endfacet
  facet normal -0 -0 1
    outer loop
      vertex -5.47193 6.31869 3
      vertex -2.57596 5.4742 3
      vertex -5.57325 7.12072 3
    endloop
  endfacet
  facet normal -0 0 1
    outer loop
      vertex -5.57325 5.51667 3
      vertex -3.85641 4.6616 3
      vertex -5.47193 6.31869 3
    endloop
  endfacet
  facet normal 0 0 1
    outer loop
      vertex -2.57596 5.4742 3
      vertex -5.47193 6.31869 3
      vertex -3.85641 4.6616 3
    endloop
  endfacet
  facet normal 0 0 1
    outer loop
      vertex -4.57713 9.72689 3
      vertex -5.87084 7.87235 3
      vertex -5.57325 7.12072 3
    endloop
  endfacet
  facet normal 0 0 1
    outer loop
      vertex -4.57713 9.72689 3
      vertex -6.34601 8.52636 3
      vertex -5.87084 7.87235 3
    endloop
  endfacet
  facet normal 0 -0 1
    outer loop
      vertex -6.34601 8.52636 3
      vertex -4.57713 9.72689 3
      vertex -6.39934 8.57048 3
    endloop
  endfacet
  facet normal 0 0 1
    outer loop
      vertex 9.4203 -5.17885 3
      vertex 5.30165 -2.91461 3
      vertex 7.83641 -7.35888 3
    endloop
  endfacet
  facet normal -0 0 1
    outer loop
      vertex 4.41026 -4.14151 3
      vertex 7.83641 -7.35888 3
      vertex 5.30165 -2.91461 3
    endloop
  endfacet
  facet normal 0 0 1
    outer loop
      vertex 7.83641 -7.35888 3
      vertex 5.67286 -8.01619 3
      vertex 6.14802 -8.6702 3
    endloop
  endfacet
  facet normal 0 0 1
    outer loop
      vertex 7.83641 -7.35888 3
      vertex 5.04997 -7.5009 3
      vertex 5.67286 -8.01619 3
    endloop
  endfacet
  facet normal 0 0 1
    outer loop
      vertex 7.83641 -7.35888 3
      vertex 4.41026 -4.14151 3
      vertex 5.04997 -7.5009 3
    endloop
  endfacet
  facet normal 0 0 1
    outer loop
      vertex 4.41026 -4.14151 3
      vertex 4.31851 -7.1567 3
      vertex 5.04997 -7.5009 3
    endloop
  endfacet
  facet normal -0 0 1
    outer loop
      vertex 3.24175 -5.10818 3
      vertex 4.31851 -7.1567 3
      vertex 4.41026 -4.14151 3
    endloop
  endfacet
  facet normal 0 0 1
    outer loop
      vertex 4.31851 -7.1567 3
      vertex 3.24175 -5.10818 3
      vertex 3.52443 -7.00522 3
    endloop
  endfacet
  facet normal 0 0 1
    outer loop
      vertex 3.24175 -5.10818 3
      vertex 2.71763 -7.05598 3
      vertex 3.52443 -7.00522 3
    endloop
  endfacet
  facet normal -0 0 1
    outer loop
      vertex 1.86955 -5.75389 3
      vertex 2.71763 -7.05598 3
      vertex 3.24175 -5.10818 3
    endloop
  endfacet
  facet normal 0 0 1
    outer loop
      vertex 2.71763 -7.05598 3
      vertex 1.86955 -5.75389 3
      vertex 1.94879 -7.30579 3
    endloop
  endfacet
  facet normal -0 0 1
    outer loop
      vertex 0.379882 -6.03806 3
      vertex 1.94879 -7.30579 3
      vertex 1.86955 -5.75389 3
    endloop
  endfacet
  facet normal 0 0 1
    outer loop
      vertex 1.94879 -7.30579 3
      vertex 0.379882 -6.03806 3
      vertex 1.26624 -7.73895 3
    endloop
  endfacet
  facet normal 0 0 1
    outer loop
      vertex 1.26624 -7.73895 3
      vertex 0.379882 -6.03806 3
      vertex 0.712852 -8.32825 3
    endloop
  endfacet
  facet normal 0 0 1
    outer loop
      vertex -1.13366 -5.94284 3
      vertex 0.712852 -8.32825 3
      vertex 0.379882 -6.03806 3
    endloop
  endfacet
  facet normal 0 0 1
    outer loop
      vertex 0.712852 -8.32825 3
      vertex -1.13366 -5.94284 3
      vertex 0.323403 -9.03666 3
    endloop
  endfacet
  facet normal 0 0 1
    outer loop
      vertex 0.323403 -9.03666 3
      vertex -2.01435 -10.5596 3
      vertex 0.122362 -9.81966 3
    endloop
  endfacet
  facet normal 0 0 1
    outer loop
      vertex -2.01435 -10.5596 3
      vertex 0.323403 -9.03666 3
      vertex -1.13366 -5.94284 3
    endloop
  endfacet
  facet normal 0 0 1
    outer loop
      vertex 9.4203 5.17885 3
      vertex 10.1457 3.16788 3
      vertex 10.2148 3.17222 3
    endloop
  endfacet
  facet normal 0 0 1
    outer loop
      vertex 9.4203 5.17885 3
      vertex 9.37686 2.91807 3
      vertex 10.1457 3.16788 3
    endloop
  endfacet
  facet normal 0 0 1
    outer loop
      vertex 9.4203 5.17885 3
      vertex 8.69431 2.4849 3
      vertex 9.37686 2.91807 3
    endloop
  endfacet
  facet normal -0 0 1
    outer loop
      vertex 5.30165 2.91461 3
      vertex 8.69431 2.4849 3
      vertex 9.4203 5.17885 3
    endloop
  endfacet
  facet normal 0 0 1
    outer loop
      vertex 5.30165 2.91461 3
      vertex 9.4203 5.17885 3
      vertex 7.83641 7.35888 3
    endloop
  endfacet
  facet normal 0 0 1
    outer loop
      vertex 8.69431 2.4849 3
      vertex 5.30165 2.91461 3
      vertex 8.14092 1.89561 3
    endloop
  endfacet
  facet normal 0 -0 1
    outer loop
      vertex 5.85993 1.50457 3
      vertex 8.14092 1.89561 3
      vertex 5.30165 2.91461 3
    endloop
  endfacet
  facet normal -0 0 1
    outer loop
      vertex 5.67286 8.01619 3
      vertex 7.83641 7.35888 3
      vertex 6.14802 8.6702 3
    endloop
  endfacet
  facet normal -0 0 1
    outer loop
      vertex 6.14802 8.6702 3
      vertex 7.83641 7.35888 3
      vertex 6.1735 8.73456 3
    endloop
  endfacet
  facet normal 0 0 1
    outer loop
      vertex 10.1457 -3.16788 3
      vertex 9.4203 -5.17885 3
      vertex 10.2148 -3.17222 3
    endloop
  endfacet
  facet normal 0 0 1
    outer loop
      vertex 9.37686 -2.91807 3
      vertex 9.4203 -5.17885 3
      vertex 10.1457 -3.16788 3
    endloop
  endfacet
  facet normal 0 0 1
    outer loop
      vertex 8.69431 -2.4849 3
      vertex 9.4203 -5.17885 3
      vertex 9.37686 -2.91807 3
    endloop
  endfacet
  facet normal 0 0 1
    outer loop
      vertex 5.30165 -2.91461 3
      vertex 8.14092 -1.89561 3
      vertex 5.85993 -1.50457 3
    endloop
  endfacet
  facet normal 0 0 1
    outer loop
      vertex 8.14092 -1.89561 3
      vertex 5.30165 -2.91461 3
      vertex 8.69431 -2.4849 3
    endloop
  endfacet
  facet normal 0 0 1
    outer loop
      vertex 7.55043 -0.4042 3
      vertex 5.85993 -1.50457 3
      vertex 7.75147 -1.1872 3
    endloop
  endfacet
  facet normal 0 0 1
    outer loop
      vertex 5.85993 -1.50457 3
      vertex 7.55043 -0.4042 3
      vertex 6.05 0 3
    endloop
  endfacet
  facet normal 0 0 1
    outer loop
      vertex 8.14092 1.89561 3
      vertex 5.85993 1.50457 3
      vertex 7.75147 1.1872 3
    endloop
  endfacet
  facet normal 0 0 1
    outer loop
      vertex 7.75147 -1.1872 3
      vertex 5.85993 -1.50457 3
      vertex 8.14092 -1.89561 3
    endloop
  endfacet
  facet normal 0 0 1
    outer loop
      vertex 7.75147 1.1872 3
      vertex 5.85993 1.50457 3
      vertex 7.55043 0.4042 3
    endloop
  endfacet
  facet normal 0 0 1
    outer loop
      vertex 8.69431 -2.4849 3
      vertex 5.30165 -2.91461 3
      vertex 9.4203 -5.17885 3
    endloop
  endfacet
  facet normal 0 0 1
    outer loop
      vertex 7.83641 -7.35888 3
      vertex 6.14802 -8.6702 3
      vertex 6.1735 -8.73456 3
    endloop
  endfacet
  facet normal 0 0 1
    outer loop
      vertex 7.55043 0.4042 3
      vertex 6.05 0 3
      vertex 7.55043 -0.4042 3
    endloop
  endfacet
  facet normal -0 0 1
    outer loop
      vertex 5.04997 7.5009 3
      vertex 7.83641 7.35888 3
      vertex 5.67286 8.01619 3
    endloop
  endfacet
  facet normal 0 -0 1
    outer loop
      vertex 6.05 0 3
      vertex 7.55043 0.4042 3
      vertex 5.85993 1.50457 3
    endloop
  endfacet
  facet normal 0 0 1
    outer loop
      vertex 4.41026 4.14151 3
      vertex 7.83641 7.35888 3
      vertex 5.04997 7.5009 3
    endloop
  endfacet
  facet normal 0 0 1
    outer loop
      vertex 7.83641 7.35888 3
      vertex 4.41026 4.14151 3
      vertex 5.30165 2.91461 3
    endloop
  endfacet
  facet normal -0 0 1
    outer loop
      vertex 4.31851 7.1567 3
      vertex 4.41026 4.14151 3
      vertex 5.04997 7.5009 3
    endloop
  endfacet
  facet normal 0 0 1
    outer loop
      vertex 3.24175 5.10818 3
      vertex 4.31851 7.1567 3
      vertex 3.52443 7.00522 3
    endloop
  endfacet
  facet normal 0 0 1
    outer loop
      vertex 4.31851 7.1567 3
      vertex 3.24175 5.10818 3
      vertex 4.41026 4.14151 3
    endloop
  endfacet
  facet normal 0 0 1
    outer loop
      vertex 2.71763 7.05598 3
      vertex 3.24175 5.10818 3
      vertex 3.52443 7.00522 3
    endloop
  endfacet
  facet normal 0 0 1
    outer loop
      vertex 1.86955 5.75389 3
      vertex 2.71763 7.05598 3
      vertex 1.94879 7.30579 3
    endloop
  endfacet
  facet normal 0 0 1
    outer loop
      vertex 2.71763 7.05598 3
      vertex 1.86955 5.75389 3
      vertex 3.24175 5.10818 3
    endloop
  endfacet
  facet normal 0 0 1
    outer loop
      vertex 0.379882 6.03806 3
      vertex 1.94879 7.30579 3
      vertex 1.26624 7.73895 3
    endloop
  endfacet
  facet normal 0 0 1
    outer loop
      vertex 0.379882 6.03806 3
      vertex 1.26624 7.73895 3
      vertex 0.712852 8.32825 3
    endloop
  endfacet
  facet normal 0 0 1
    outer loop
      vertex 1.94879 7.30579 3
      vertex 0.379882 6.03806 3
      vertex 1.86955 5.75389 3
    endloop
  endfacet
  facet normal 0 0 1
    outer loop
      vertex -1.13366 5.94284 3
      vertex 0.712852 8.32825 3
      vertex 0.323403 9.03666 3
    endloop
  endfacet
  facet normal 0 0 1
    outer loop
      vertex -1.13366 5.94284 3
      vertex 0.323403 9.03666 3
      vertex 0.122362 9.81966 3
    endloop
  endfacet
  facet normal 0 0 1
    outer loop
      vertex 0.712852 8.32825 3
      vertex -1.13366 5.94284 3
      vertex 0.379882 6.03806 3
    endloop
  endfacet
  facet normal 0 0 1
    outer loop
      vertex 0.122362 -9.81966 3
      vertex -2.01435 -10.5596 3
      vertex 0.122362 -10.6281 3
    endloop
  endfacet
  facet normal 0 0 1
    outer loop
      vertex 0.122362 -10.6281 3
      vertex -2.01435 -10.5596 3
      vertex 0.139576 -10.6951 3
    endloop
  endfacet
  facet normal 0 0 1
    outer loop
      vertex -2.57596 -5.4742 3
      vertex -2.01435 -10.5596 3
      vertex -1.13366 -5.94284 3
    endloop
  endfacet
  facet normal 0 0 1
    outer loop
      vertex -5.47193 -6.31869 3
      vertex -2.57596 -5.4742 3
      vertex -3.85641 -4.6616 3
    endloop
  endfacet
  facet normal 0 0 1
    outer loop
      vertex -2.57596 -5.4742 3
      vertex -4.57713 -9.72689 3
      vertex -2.01435 -10.5596 3
    endloop
  endfacet
  facet normal 0 0 1
    outer loop
      vertex -5.87084 -4.76504 3
      vertex -3.85641 -4.6616 3
      vertex -4.89455 -3.5561 3
    endloop
  endfacet
  facet normal 0 0 1
    outer loop
      vertex -2.57596 -5.4742 3
      vertex -5.47193 -6.31869 3
      vertex -5.57325 -7.12072 3
    endloop
  endfacet
  facet normal 0 0 1
    outer loop
      vertex -2.57596 -5.4742 3
      vertex -5.57325 -7.12072 3
      vertex -4.57713 -9.72689 3
    endloop
  endfacet
  facet normal -0 0 1
    outer loop
      vertex -5.87084 -7.87235 3
      vertex -4.57713 -9.72689 3
      vertex -5.57325 -7.12072 3
    endloop
  endfacet
  facet normal -0 0 1
    outer loop
      vertex -6.34601 -8.52636 3
      vertex -4.57713 -9.72689 3
      vertex -5.87084 -7.87235 3
    endloop
  endfacet
  facet normal 0 0 1
    outer loop
      vertex -4.57713 -9.72689 3
      vertex -6.34601 -8.52636 3
      vertex -6.39934 -8.57048 3
    endloop
  endfacet
  facet normal 0 0 1
    outer loop
      vertex -3.85641 -4.6616 3
      vertex -5.57325 -5.51667 3
      vertex -5.47193 -6.31869 3
    endloop
  endfacet
  facet normal 0 0 1
    outer loop
      vertex -6.34601 -4.11103 3
      vertex -4.89455 -3.5561 3
      vertex -5.62515 -2.22715 3
    endloop
  endfacet
  facet normal 0 0 1
    outer loop
      vertex -3.85641 -4.6616 3
      vertex -5.87084 -4.76504 3
      vertex -5.57325 -5.51667 3
    endloop
  endfacet
  facet normal 0 0 1
    outer loop
      vertex -7.70035 -3.25153 3
      vertex -5.62515 -2.22715 3
      vertex -6.00229 -0.758265 3
    endloop
  endfacet
  facet normal 0 0 1
    outer loop
      vertex -5.62515 2.22715 3
      vertex -7.70035 3.25153 3
      vertex -6.00229 0.758265 3
    endloop
  endfacet
  facet normal 0 0 1
    outer loop
      vertex -4.89455 -3.5561 3
      vertex -6.34601 -4.11103 3
      vertex -5.87084 -4.76504 3
    endloop
  endfacet
  facet normal -0 0 1
    outer loop
      vertex -8.49443 3.10005 3
      vertex -6.00229 0.758265 3
      vertex -7.70035 3.25153 3
    endloop
  endfacet
  facet normal 0 0 1
    outer loop
      vertex -5.62515 -2.22715 3
      vertex -6.96889 -3.59573 3
      vertex -6.34601 -4.11103 3
    endloop
  endfacet
  facet normal -0 0 1
    outer loop
      vertex -10.6652 1.34733 3
      vertex -6.00229 0.758265 3
      vertex -8.49443 3.10005 3
    endloop
  endfacet
  facet normal 0 0 1
    outer loop
      vertex -5.62515 -2.22715 3
      vertex -7.70035 -3.25153 3
      vertex -6.96889 -3.59573 3
    endloop
  endfacet
  facet normal 0 0 1
    outer loop
      vertex -6.00229 0.758265 3
      vertex -10.6652 1.34733 3
      vertex -6.00229 -0.758265 3
    endloop
  endfacet
  facet normal 0 0 1
    outer loop
      vertex -6.00229 -0.758265 3
      vertex -8.49443 -3.10005 3
      vertex -7.70035 -3.25153 3
    endloop
  endfacet
  facet normal 0 0 1
    outer loop
      vertex -10.6652 1.34733 3
      vertex -8.49443 3.10005 3
      vertex -9.30124 3.15082 3
    endloop
  endfacet
  facet normal 0 0 1
    outer loop
      vertex -10.6652 -1.34733 3
      vertex -6.00229 -0.758265 3
      vertex -10.6652 1.34733 3
    endloop
  endfacet
  facet normal 0 0 1
    outer loop
      vertex -10.6652 1.34733 3
      vertex -9.30124 3.15082 3
      vertex -10.0701 3.40062 3
    endloop
  endfacet
  facet normal 0 0 1
    outer loop
      vertex -6.00229 -0.758265 3
      vertex -10.6652 -1.34733 3
      vertex -8.49443 -3.10005 3
    endloop
  endfacet
  facet normal 0 0 1
    outer loop
      vertex -10.6652 1.34733 3
      vertex -10.0701 3.40062 3
      vertex -10.1285 3.43771 3
    endloop
  endfacet
  facet normal 0 0 1
    outer loop
      vertex -8.49443 -3.10005 3
      vertex -10.6652 -1.34733 3
      vertex -9.30124 -3.15082 3
    endloop
  endfacet
  facet normal 0 0 1
    outer loop
      vertex -9.30124 -3.15082 3
      vertex -10.6652 -1.34733 3
      vertex -10.0701 -3.40062 3
    endloop
  endfacet
  facet normal 0 0 1
    outer loop
      vertex -10.0701 -3.40062 3
      vertex -10.6652 -1.34733 3
      vertex -10.1285 -3.43771 3
    endloop
  endfacet
  facet normal -0 0 1
    outer loop
      vertex -5.87084 4.76504 3
      vertex -3.85641 4.6616 3
      vertex -5.57325 5.51667 3
    endloop
  endfacet
  facet normal 0 0 1
    outer loop
      vertex -3.85641 4.6616 3
      vertex -5.87084 4.76504 3
      vertex -4.89455 3.5561 3
    endloop
  endfacet
  facet normal -0 0 1
    outer loop
      vertex -6.34601 4.11103 3
      vertex -4.89455 3.5561 3
      vertex -5.87084 4.76504 3
    endloop
  endfacet
  facet normal 0 0 1
    outer loop
      vertex -4.89455 3.5561 3
      vertex -6.34601 4.11103 3
      vertex -5.62515 2.22715 3
    endloop
  endfacet
  facet normal -0 0 1
    outer loop
      vertex -7.70035 3.25153 3
      vertex -5.62515 2.22715 3
      vertex -6.96889 3.59573 3
    endloop
  endfacet
  facet normal -0 0 1
    outer loop
      vertex -6.96889 3.59573 3
      vertex -5.62515 2.22715 3
      vertex -6.34601 4.11103 3
    endloop
  endfacet
  facet normal 0.809017 0.587785 0
    outer loop
      vertex 5.30165 2.91461 5.5
      vertex 4.41026 4.14151 3
      vertex 4.41026 4.14151 5.5
    endloop
  endfacet
  facet normal 0.809017 0.587785 0
    outer loop
      vertex 4.41026 4.14151 3
      vertex 5.30165 2.91461 5.5
      vertex 5.30165 2.91461 3
    endloop
  endfacet
  facet normal 0.187381 0.982287 -0
    outer loop
      vertex 1.86955 5.75389 3
      vertex 0.379882 6.03806 5.5
      vertex 1.86955 5.75389 5.5
    endloop
  endfacet
  facet normal 0.187381 0.982287 0
    outer loop
      vertex 0.379882 6.03806 5.5
      vertex 1.86955 5.75389 3
      vertex 0.379882 6.03806 3
    endloop
  endfacet
  facet normal 0.425779 0.904827 -0
    outer loop
      vertex 3.24175 5.10818 3
      vertex 1.86955 5.75389 5.5
      vertex 3.24175 5.10818 5.5
    endloop
  endfacet
  facet normal 0.425779 0.904827 0
    outer loop
      vertex 1.86955 5.75389 5.5
      vertex 3.24175 5.10818 3
      vertex 1.86955 5.75389 3
    endloop
  endfacet
  facet normal -0.876307 0.481754 0
    outer loop
      vertex -5.62515 2.22715 3
      vertex -4.89455 3.5561 5.5
      vertex -4.89455 3.5561 3
    endloop
  endfacet
  facet normal -0.876307 0.481754 0
    outer loop
      vertex -4.89455 3.5561 5.5
      vertex -5.62515 2.22715 3
      vertex -5.62515 2.22715 5.5
    endloop
  endfacet
  facet normal -0.968583 0.24869 0
    outer loop
      vertex -6.00229 0.758265 3
      vertex -5.62515 2.22715 5.5
      vertex -5.62515 2.22715 3
    endloop
  endfacet
  facet normal -0.968583 0.24869 0
    outer loop
      vertex -5.62515 2.22715 5.5
      vertex -6.00229 0.758265 3
      vertex -6.00229 0.758265 5.5
    endloop
  endfacet
  facet normal -0.309017 0.951056 0
    outer loop
      vertex -1.13366 5.94284 3
      vertex -2.57596 5.4742 5.5
      vertex -1.13366 5.94284 5.5
    endloop
  endfacet
  facet normal -0.309017 0.951056 0
    outer loop
      vertex -2.57596 5.4742 5.5
      vertex -1.13366 5.94284 3
      vertex -2.57596 5.4742 3
    endloop
  endfacet
  facet normal 0.809017 -0.587785 0
    outer loop
      vertex 4.41026 -4.14151 5.5
      vertex 5.30165 -2.91461 3
      vertex 5.30165 -2.91461 5.5
    endloop
  endfacet
  facet normal 0.809017 -0.587785 0
    outer loop
      vertex 5.30165 -2.91461 3
      vertex 4.41026 -4.14151 5.5
      vertex 4.41026 -4.14151 3
    endloop
  endfacet
  facet normal 0.187381 -0.982287 0
    outer loop
      vertex 0.379882 -6.03806 3
      vertex 1.86955 -5.75389 5.5
      vertex 0.379882 -6.03806 5.5
    endloop
  endfacet
  facet normal 0.187381 -0.982287 0
    outer loop
      vertex 1.86955 -5.75389 5.5
      vertex 0.379882 -6.03806 3
      vertex 1.86955 -5.75389 3
    endloop
  endfacet
  facet normal -0.535827 -0.844328 0
    outer loop
      vertex -3.85641 -4.6616 3
      vertex -2.57596 -5.4742 5.5
      vertex -3.85641 -4.6616 5.5
    endloop
  endfacet
  facet normal -0.535827 -0.844328 -0
    outer loop
      vertex -2.57596 -5.4742 5.5
      vertex -3.85641 -4.6616 3
      vertex -2.57596 -5.4742 3
    endloop
  endfacet
  facet normal -0.0627903 -0.998027 0
    outer loop
      vertex -1.13366 -5.94284 3
      vertex 0.379882 -6.03806 5.5
      vertex -1.13366 -5.94284 5.5
    endloop
  endfacet
  facet normal -0.0627903 -0.998027 -0
    outer loop
      vertex 0.379882 -6.03806 5.5
      vertex -1.13366 -5.94284 3
      vertex 0.379882 -6.03806 3
    endloop
  endfacet
  facet normal -0.728969 -0.684547 0
    outer loop
      vertex -3.85641 -4.6616 3
      vertex -4.89455 -3.5561 5.5
      vertex -4.89455 -3.5561 3
    endloop
  endfacet
  facet normal -0.728969 -0.684547 0
    outer loop
      vertex -4.89455 -3.5561 5.5
      vertex -3.85641 -4.6616 3
      vertex -3.85641 -4.6616 5.5
    endloop
  endfacet
  facet normal -0.968583 -0.24869 0
    outer loop
      vertex -5.62515 -2.22715 3
      vertex -6.00229 -0.758265 5.5
      vertex -6.00229 -0.758265 3
    endloop
  endfacet
  facet normal -0.968583 -0.24869 0
    outer loop
      vertex -6.00229 -0.758265 5.5
      vertex -5.62515 -2.22715 3
      vertex -5.62515 -2.22715 5.5
    endloop
  endfacet
  facet normal 0.637424 -0.770513 0
    outer loop
      vertex 3.24175 -5.10818 3
      vertex 4.41026 -4.14151 5.5
      vertex 3.24175 -5.10818 5.5
    endloop
  endfacet
  facet normal 0.637424 -0.770513 0
    outer loop
      vertex 4.41026 -4.14151 5.5
      vertex 3.24175 -5.10818 3
      vertex 4.41026 -4.14151 3
    endloop
  endfacet
  facet normal 0.929777 -0.368124 0
    outer loop
      vertex 5.30165 -2.91461 5.5
      vertex 5.85993 -1.50457 3
      vertex 5.85993 -1.50457 5.5
    endloop
  endfacet
  facet normal 0.929777 -0.368124 0
    outer loop
      vertex 5.85993 -1.50457 3
      vertex 5.30165 -2.91461 5.5
      vertex 5.30165 -2.91461 3
    endloop
  endfacet
  facet normal -0.309017 -0.951056 0
    outer loop
      vertex -2.57596 -5.4742 3
      vertex -1.13366 -5.94284 5.5
      vertex -2.57596 -5.4742 5.5
    endloop
  endfacet
  facet normal -0.309017 -0.951056 -0
    outer loop
      vertex -1.13366 -5.94284 5.5
      vertex -2.57596 -5.4742 3
      vertex -1.13366 -5.94284 3
    endloop
  endfacet
  facet normal -0.876307 -0.481754 0
    outer loop
      vertex -4.89455 -3.5561 3
      vertex -5.62515 -2.22715 5.5
      vertex -5.62515 -2.22715 3
    endloop
  endfacet
  facet normal -0.876307 -0.481754 0
    outer loop
      vertex -5.62515 -2.22715 5.5
      vertex -4.89455 -3.5561 3
      vertex -4.89455 -3.5561 5.5
    endloop
  endfacet
  facet normal 0.425779 -0.904827 0
    outer loop
      vertex 1.86955 -5.75389 3
      vertex 3.24175 -5.10818 5.5
      vertex 1.86955 -5.75389 5.5
    endloop
  endfacet
  facet normal 0.425779 -0.904827 0
    outer loop
      vertex 3.24175 -5.10818 5.5
      vertex 1.86955 -5.75389 3
      vertex 3.24175 -5.10818 3
    endloop
  endfacet
  facet normal 0.992115 -0.125333 0
    outer loop
      vertex 5.85993 -1.50457 5.5
      vertex 6.05 0 3
      vertex 6.05 0 5.5
    endloop
  endfacet
  facet normal 0.992115 -0.125333 0
    outer loop
      vertex 6.05 0 3
      vertex 5.85993 -1.50457 5.5
      vertex 5.85993 -1.50457 3
    endloop
  endfacet
  facet normal -1 0 0
    outer loop
      vertex -10.6652 -1.34733 0
      vertex -10.6652 1.34733 3
      vertex -10.6652 1.34733 0
    endloop
  endfacet
  facet normal -1 -0 0
    outer loop
      vertex -10.6652 1.34733 3
      vertex -10.6652 -1.34733 0
      vertex -10.6652 -1.34733 3
    endloop
  endfacet
  facet normal -0.0627904 0.998027 0
    outer loop
      vertex 0.139576 10.6951 0
      vertex -2.01435 10.5596 3
      vertex 0.139576 10.6951 3
    endloop
  endfacet
  facet normal -0.0627904 0.998027 0
    outer loop
      vertex -2.01435 10.5596 3
      vertex 0.139576 10.6951 0
      vertex -2.01435 10.5596 0
    endloop
  endfacet
  facet normal 0.809017 -0.587785 0
    outer loop
      vertex 7.83641 -7.35888 3
      vertex 9.4203 -5.17885 0
      vertex 9.4203 -5.17885 3
    endloop
  endfacet
  facet normal 0.809017 -0.587785 0
    outer loop
      vertex 9.4203 -5.17885 0
      vertex 7.83641 -7.35888 3
      vertex 7.83641 -7.35888 0
    endloop
  endfacet
  facet normal 0.637424 0.770513 -0
    outer loop
      vertex 7.83641 7.35888 0
      vertex 6.1735 8.73456 3
      vertex 7.83641 7.35888 3
    endloop
  endfacet
  facet normal 0.637424 0.770513 0
    outer loop
      vertex 6.1735 8.73456 3
      vertex 7.83641 7.35888 0
      vertex 6.1735 8.73456 0
    endloop
  endfacet
  facet normal -0.535827 0.844328 0
    outer loop
      vertex -4.57713 9.72689 0
      vertex -6.39934 8.57048 3
      vertex -4.57713 9.72689 3
    endloop
  endfacet
  facet normal -0.535827 0.844328 0
    outer loop
      vertex -6.39934 8.57048 3
      vertex -4.57713 9.72689 0
      vertex -6.39934 8.57048 0
    endloop
  endfacet
  facet normal 0 0 -1
    outer loop
      vertex 0.122362 -10.6281 0
      vertex -2.01435 -10.5596 0
      vertex 0.122362 -9.81966 0
    endloop
  endfacet
  facet normal 0 0 -1
    outer loop
      vertex -2.01435 -10.5596 0
      vertex 0.122362 -10.6281 0
      vertex 0.139576 -10.6951 0
    endloop
  endfacet
  facet normal 0 0 -1
    outer loop
      vertex 9.4203 -5.17885 0
      vertex 10.1457 -3.16788 0
      vertex 10.2148 -3.17222 0
    endloop
  endfacet
  facet normal 0 0 -1
    outer loop
      vertex 9.4203 -5.17885 0
      vertex 9.37686 -2.91807 0
      vertex 10.1457 -3.16788 0
    endloop
  endfacet
  facet normal 0 0 -1
    outer loop
      vertex 9.4203 -5.17885 0
      vertex 8.69431 -2.4849 0
      vertex 9.37686 -2.91807 0
    endloop
  endfacet
  facet normal 0 0 -1
    outer loop
      vertex 5.04997 -7.5009 0
      vertex 8.69431 -2.4849 0
      vertex 9.4203 -5.17885 0
    endloop
  endfacet
  facet normal 0 0 -1
    outer loop
      vertex 5.04997 -7.5009 0
      vertex 9.4203 -5.17885 0
      vertex 7.83641 -7.35888 0
    endloop
  endfacet
  facet normal -0 0 -1
    outer loop
      vertex 8.69431 -2.4849 0
      vertex 5.04997 -7.5009 0
      vertex 8.14092 -1.89561 0
    endloop
  endfacet
  facet normal 0 0 -1
    outer loop
      vertex 4.31851 -7.1567 0
      vertex 8.14092 -1.89561 0
      vertex 5.04997 -7.5009 0
    endloop
  endfacet
  facet normal 0 0 -1
    outer loop
      vertex 5.67286 -8.01619 0
      vertex 7.83641 -7.35888 0
      vertex 6.14802 -8.6702 0
    endloop
  endfacet
  facet normal 0 0 -1
    outer loop
      vertex 6.14802 -8.6702 0
      vertex 7.83641 -7.35888 0
      vertex 6.1735 -8.73456 0
    endloop
  endfacet
  facet normal 0 0 -1
    outer loop
      vertex 10.1457 3.16788 0
      vertex 9.4203 5.17885 0
      vertex 10.2148 3.17222 0
    endloop
  endfacet
  facet normal 0 0 -1
    outer loop
      vertex 9.37686 2.91807 0
      vertex 9.4203 5.17885 0
      vertex 10.1457 3.16788 0
    endloop
  endfacet
  facet normal 0 0 -1
    outer loop
      vertex 8.69431 2.4849 0
      vertex 9.4203 5.17885 0
      vertex 9.37686 2.91807 0
    endloop
  endfacet
  facet normal 0 0 -1
    outer loop
      vertex 5.04997 7.5009 0
      vertex 8.69431 2.4849 0
      vertex 8.14092 1.89561 0
    endloop
  endfacet
  facet normal 0 0 -1
    outer loop
      vertex 8.69431 2.4849 0
      vertex 5.04997 7.5009 0
      vertex 9.4203 5.17885 0
    endloop
  endfacet
  facet normal 0 0 -1
    outer loop
      vertex 2.04959 3.55 0
      vertex 8.14092 1.89561 0
      vertex 7.75147 1.1872 0
    endloop
  endfacet
  facet normal 0 0 -1
    outer loop
      vertex 4.09919 0 0
      vertex 7.75147 1.1872 0
      vertex 7.55043 0.4042 0
    endloop
  endfacet
  facet normal 0 0 -1
    outer loop
      vertex 5.04997 -7.5009 0
      vertex 7.83641 -7.35888 0
      vertex 5.67286 -8.01619 0
    endloop
  endfacet
  facet normal 0 0 -1
    outer loop
      vertex 2.04959 -3.55 0
      vertex 8.14092 -1.89561 0
      vertex 4.31851 -7.1567 0
    endloop
  endfacet
  facet normal -0 0 -1
    outer loop
      vertex 7.75147 1.1872 0
      vertex 4.09919 0 0
      vertex 2.04959 3.55 0
    endloop
  endfacet
  facet normal 0 0 -1
    outer loop
      vertex 7.83641 7.35888 0
      vertex 6.14802 8.6702 0
      vertex 6.1735 8.73456 0
    endloop
  endfacet
  facet normal -0 0 -1
    outer loop
      vertex 8.14092 -1.89561 0
      vertex 2.04959 -3.55 0
      vertex 7.75147 -1.1872 0
    endloop
  endfacet
  facet normal 0 0 -1
    outer loop
      vertex 8.14092 1.89561 0
      vertex 4.31851 7.1567 0
      vertex 5.04997 7.5009 0
    endloop
  endfacet
  facet normal 0 -0 -1
    outer loop
      vertex 4.09919 0 0
      vertex 7.75147 -1.1872 0
      vertex 2.04959 -3.55 0
    endloop
  endfacet
  facet normal 0 0 -1
    outer loop
      vertex 7.83641 7.35888 0
      vertex 5.67286 8.01619 0
      vertex 6.14802 8.6702 0
    endloop
  endfacet
  facet normal 0 0 -1
    outer loop
      vertex 7.55043 -0.4042 0
      vertex 4.09919 0 0
      vertex 7.55043 0.4042 0
    endloop
  endfacet
  facet normal 0 0 -1
    outer loop
      vertex 7.83641 7.35888 0
      vertex 5.04997 7.5009 0
      vertex 5.67286 8.01619 0
    endloop
  endfacet
  facet normal 0 0 -1
    outer loop
      vertex 9.4203 5.17885 0
      vertex 5.04997 7.5009 0
      vertex 7.83641 7.35888 0
    endloop
  endfacet
  facet normal 0 0 -1
    outer loop
      vertex 2.04959 -3.55 0
      vertex 4.31851 -7.1567 0
      vertex 3.52443 -7.00522 0
    endloop
  endfacet
  facet normal 0 0 -1
    outer loop
      vertex 2.04959 -3.55 0
      vertex 3.52443 -7.00522 0
      vertex 2.71763 -7.05598 0
    endloop
  endfacet
  facet normal 0 0 -1
    outer loop
      vertex 7.75147 -1.1872 0
      vertex 4.09919 0 0
      vertex 7.55043 -0.4042 0
    endloop
  endfacet
  facet normal 0 0 -1
    outer loop
      vertex 1.94879 -7.30579 0
      vertex 2.04959 -3.55 0
      vertex 2.71763 -7.05598 0
    endloop
  endfacet
  facet normal 0 0 -1
    outer loop
      vertex 1.26624 -7.73895 0
      vertex 2.04959 -3.55 0
      vertex 1.94879 -7.30579 0
    endloop
  endfacet
  facet normal 0 0 -1
    outer loop
      vertex -2.04959 -3.55 0
      vertex 1.26624 -7.73895 0
      vertex 0.712852 -8.32825 0
    endloop
  endfacet
  facet normal 0 0 -1
    outer loop
      vertex -5.47193 -6.31869 0
      vertex 0.712852 -8.32825 0
      vertex 0.323403 -9.03666 0
    endloop
  endfacet
  facet normal 0 0 -1
    outer loop
      vertex -2.01435 -10.5596 0
      vertex 0.323403 -9.03666 0
      vertex 0.122362 -9.81966 0
    endloop
  endfacet
  facet normal 0 0 -1
    outer loop
      vertex -5.57325 -7.12072 0
      vertex 0.323403 -9.03666 0
      vertex -2.01435 -10.5596 0
    endloop
  endfacet
  facet normal 0 0 -1
    outer loop
      vertex 1.26624 -7.73895 0
      vertex -2.04959 -3.55 0
      vertex 2.04959 -3.55 0
    endloop
  endfacet
  facet normal 0 0 -1
    outer loop
      vertex 0.712852 -8.32825 0
      vertex -5.47193 -6.31869 0
      vertex -2.04959 -3.55 0
    endloop
  endfacet
  facet normal 0 0 -1
    outer loop
      vertex -5.57325 -7.12072 0
      vertex -2.01435 -10.5596 0
      vertex -4.57713 -9.72689 0
    endloop
  endfacet
  facet normal 0 0 -1
    outer loop
      vertex 8.14092 1.89561 0
      vertex 2.04959 3.55 0
      vertex 4.31851 7.1567 0
    endloop
  endfacet
  facet normal 0 0 -1
    outer loop
      vertex 4.31851 7.1567 0
      vertex 2.04959 3.55 0
      vertex 3.52443 7.00522 0
    endloop
  endfacet
  facet normal -0 0 -1
    outer loop
      vertex 3.52443 7.00522 0
      vertex 2.04959 3.55 0
      vertex 2.71763 7.05598 0
    endloop
  endfacet
  facet normal 0 0 -1
    outer loop
      vertex 2.04959 3.55 0
      vertex 1.94879 7.30579 0
      vertex 2.71763 7.05598 0
    endloop
  endfacet
  facet normal 0 0 -1
    outer loop
      vertex 2.04959 3.55 0
      vertex 1.26624 7.73895 0
      vertex 1.94879 7.30579 0
    endloop
  endfacet
  facet normal 0 0 -1
    outer loop
      vertex -2.04959 3.55 0
      vertex 1.26624 7.73895 0
      vertex 2.04959 3.55 0
    endloop
  endfacet
  facet normal -0 0 -1
    outer loop
      vertex 1.26624 7.73895 0
      vertex -2.04959 3.55 0
      vertex 0.712852 8.32825 0
    endloop
  endfacet
  facet normal 0 0 -1
    outer loop
      vertex 0.122362 9.81966 0
      vertex -2.01435 10.5596 0
      vertex 0.122362 10.6281 0
    endloop
  endfacet
  facet normal 0 0 -1
    outer loop
      vertex 0.323403 9.03666 0
      vertex -2.01435 10.5596 0
      vertex 0.122362 9.81966 0
    endloop
  endfacet
  facet normal 0 0 -1
    outer loop
      vertex -5.47193 6.31869 0
      vertex 0.712852 8.32825 0
      vertex -2.04959 3.55 0
    endloop
  endfacet
  facet normal -0 0 -1
    outer loop
      vertex 0.712852 8.32825 0
      vertex -5.47193 6.31869 0
      vertex 0.323403 9.03666 0
    endloop
  endfacet
  facet normal 0 0 -1
    outer loop
      vertex -6.34601 4.11103 0
      vertex -2.04959 3.55 0
      vertex -4.09919 0 0
    endloop
  endfacet
  facet normal 0 -0 -1
    outer loop
      vertex -5.47193 6.31869 0
      vertex -2.04959 3.55 0
      vertex -5.57325 5.51667 0
    endloop
  endfacet
  facet normal 0 0 -1
    outer loop
      vertex -2.04959 -3.55 0
      vertex -5.47193 -6.31869 0
      vertex -5.57325 -5.51667 0
    endloop
  endfacet
  facet normal 0 0 -1
    outer loop
      vertex -5.87084 -4.76504 0
      vertex -2.04959 -3.55 0
      vertex -5.57325 -5.51667 0
    endloop
  endfacet
  facet normal 0 0 -1
    outer loop
      vertex 0.323403 -9.03666 0
      vertex -5.57325 -7.12072 0
      vertex -5.47193 -6.31869 0
    endloop
  endfacet
  facet normal 0 0 -1
    outer loop
      vertex -4.57713 -9.72689 0
      vertex -5.87084 -7.87235 0
      vertex -5.57325 -7.12072 0
    endloop
  endfacet
  facet normal 0 0 -1
    outer loop
      vertex -4.57713 -9.72689 0
      vertex -6.34601 -8.52636 0
      vertex -5.87084 -7.87235 0
    endloop
  endfacet
  facet normal 0 -0 -1
    outer loop
      vertex -6.34601 -8.52636 0
      vertex -4.57713 -9.72689 0
      vertex -6.39934 -8.57048 0
    endloop
  endfacet
  facet normal 0 0 -1
    outer loop
      vertex -5.57325 7.12072 0
      vertex 0.323403 9.03666 0
      vertex -5.47193 6.31869 0
    endloop
  endfacet
  facet normal -0 0 -1
    outer loop
      vertex 0.323403 9.03666 0
      vertex -5.57325 7.12072 0
      vertex -2.01435 10.5596 0
    endloop
  endfacet
  facet normal -0 0 -1
    outer loop
      vertex -2.04959 -3.55 0
      vertex -6.34601 -4.11103 0
      vertex -4.09919 0 0
    endloop
  endfacet
  facet normal 0 0 -1
    outer loop
      vertex -2.04959 3.55 0
      vertex -5.87084 4.76504 0
      vertex -5.57325 5.51667 0
    endloop
  endfacet
  facet normal 0 0 -1
    outer loop
      vertex -6.96889 -3.59573 0
      vertex -4.09919 0 0
      vertex -6.34601 -4.11103 0
    endloop
  endfacet
  facet normal 0 0 -1
    outer loop
      vertex -2.04959 3.55 0
      vertex -6.34601 4.11103 0
      vertex -5.87084 4.76504 0
    endloop
  endfacet
  facet normal 0 0 -1
    outer loop
      vertex -7.70035 -3.25153 0
      vertex -4.09919 0 0
      vertex -6.96889 -3.59573 0
    endloop
  endfacet
  facet normal 0 0 -1
    outer loop
      vertex -4.09919 0 0
      vertex -6.96889 3.59573 0
      vertex -6.34601 4.11103 0
    endloop
  endfacet
  facet normal 0 0 -1
    outer loop
      vertex -7.70035 3.25153 0
      vertex -4.09919 0 0
      vertex -7.70035 -3.25153 0
    endloop
  endfacet
  facet normal 0 0 -1
    outer loop
      vertex -4.09919 0 0
      vertex -7.70035 3.25153 0
      vertex -6.96889 3.59573 0
    endloop
  endfacet
  facet normal 0 0 -1
    outer loop
      vertex -8.49443 -3.10005 0
      vertex -7.70035 3.25153 0
      vertex -7.70035 -3.25153 0
    endloop
  endfacet
  facet normal 0 0 -1
    outer loop
      vertex -8.49443 -3.10005 0
      vertex -8.49443 3.10005 0
      vertex -7.70035 3.25153 0
    endloop
  endfacet
  facet normal 0 0 -1
    outer loop
      vertex -10.6652 -1.34733 0
      vertex -8.49443 -3.10005 0
      vertex -9.30124 -3.15082 0
    endloop
  endfacet
  facet normal 0 0 -1
    outer loop
      vertex -8.49443 -3.10005 0
      vertex -10.6652 -1.34733 0
      vertex -8.49443 3.10005 0
    endloop
  endfacet
  facet normal 0 0 -1
    outer loop
      vertex -10.6652 -1.34733 0
      vertex -9.30124 -3.15082 0
      vertex -10.0701 -3.40062 0
    endloop
  endfacet
  facet normal 0 0 -1
    outer loop
      vertex -10.6652 1.34733 0
      vertex -8.49443 3.10005 0
      vertex -10.6652 -1.34733 0
    endloop
  endfacet
  facet normal 0 0 -1
    outer loop
      vertex -10.6652 -1.34733 0
      vertex -10.0701 -3.40062 0
      vertex -10.1285 -3.43771 0
    endloop
  endfacet
  facet normal -0 0 -1
    outer loop
      vertex -8.49443 3.10005 0
      vertex -10.6652 1.34733 0
      vertex -9.30124 3.15082 0
    endloop
  endfacet
  facet normal -0 0 -1
    outer loop
      vertex -9.30124 3.15082 0
      vertex -10.6652 1.34733 0
      vertex -10.0701 3.40062 0
    endloop
  endfacet
  facet normal -0 0 -1
    outer loop
      vertex -10.0701 3.40062 0
      vertex -10.6652 1.34733 0
      vertex -10.1285 3.43771 0
    endloop
  endfacet
  facet normal 0 0 -1
    outer loop
      vertex -6.34601 -4.11103 0
      vertex -2.04959 -3.55 0
      vertex -5.87084 -4.76504 0
    endloop
  endfacet
  facet normal 0 0 -1
    outer loop
      vertex -2.01435 10.5596 0
      vertex -5.57325 7.12072 0
      vertex -4.57713 9.72689 0
    endloop
  endfacet
  facet normal 0 0 -1
    outer loop
      vertex -5.87084 7.87235 0
      vertex -4.57713 9.72689 0
      vertex -5.57325 7.12072 0
    endloop
  endfacet
  facet normal 0 0 -1
    outer loop
      vertex -6.34601 8.52636 0
      vertex -4.57713 9.72689 0
      vertex -5.87084 7.87235 0
    endloop
  endfacet
  facet normal 0 0 -1
    outer loop
      vertex -4.57713 9.72689 0
      vertex -6.34601 8.52636 0
      vertex -6.39934 8.57048 0
    endloop
  endfacet
  facet normal 0 0 -1
    outer loop
      vertex 0.139576 10.6951 0
      vertex 0.122362 10.6281 0
      vertex -2.01435 10.5596 0
    endloop
  endfacet
  facet normal 0.809017 0.587785 0
    outer loop
      vertex 9.4203 5.17885 3
      vertex 7.83641 7.35888 0
      vertex 7.83641 7.35888 3
    endloop
  endfacet
  facet normal 0.809017 0.587785 0
    outer loop
      vertex 7.83641 7.35888 0
      vertex 9.4203 5.17885 3
      vertex 9.4203 5.17885 0
    endloop
  endfacet
  facet normal 0.929777 0.368125 0
    outer loop
      vertex 10.2148 3.17222 3
      vertex 9.4203 5.17885 0
      vertex 9.4203 5.17885 3
    endloop
  endfacet
  facet normal 0.929777 0.368125 0
    outer loop
      vertex 9.4203 5.17885 0
      vertex 10.2148 3.17222 3
      vertex 10.2148 3.17222 0
    endloop
  endfacet
  facet normal -0.968583 0.24869 0
    outer loop
      vertex -10.6652 1.34733 0
      vertex -10.1285 3.43771 3
      vertex -10.1285 3.43771 0
    endloop
  endfacet
  facet normal -0.968583 0.24869 0
    outer loop
      vertex -10.1285 3.43771 3
      vertex -10.6652 1.34733 0
      vertex -10.6652 1.34733 3
    endloop
  endfacet
  facet normal -0.309017 0.951057 0
    outer loop
      vertex -2.01435 10.5596 0
      vertex -4.57713 9.72689 3
      vertex -2.01435 10.5596 3
    endloop
  endfacet
  facet normal -0.309017 0.951057 0
    outer loop
      vertex -4.57713 9.72689 3
      vertex -2.01435 10.5596 0
      vertex -4.57713 9.72689 0
    endloop
  endfacet
  facet normal -0.968583 -0.24869 0
    outer loop
      vertex -10.1285 -3.43771 0
      vertex -10.6652 -1.34733 3
      vertex -10.6652 -1.34733 0
    endloop
  endfacet
  facet normal -0.968583 -0.24869 0
    outer loop
      vertex -10.6652 -1.34733 3
      vertex -10.1285 -3.43771 0
      vertex -10.1285 -3.43771 3
    endloop
  endfacet
  facet normal 0.929777 -0.368125 0
    outer loop
      vertex 9.4203 -5.17885 3
      vertex 10.2148 -3.17222 0
      vertex 10.2148 -3.17222 3
    endloop
  endfacet
  facet normal 0.929777 -0.368125 0
    outer loop
      vertex 10.2148 -3.17222 0
      vertex 9.4203 -5.17885 3
      vertex 9.4203 -5.17885 0
    endloop
  endfacet
  facet normal -0.535827 -0.844328 0
    outer loop
      vertex -6.39934 -8.57048 0
      vertex -4.57713 -9.72689 3
      vertex -6.39934 -8.57048 3
    endloop
  endfacet
  facet normal -0.535827 -0.844328 -0
    outer loop
      vertex -4.57713 -9.72689 3
      vertex -6.39934 -8.57048 0
      vertex -4.57713 -9.72689 0
    endloop
  endfacet
  facet normal 0.637424 -0.770513 0
    outer loop
      vertex 6.1735 -8.73456 0
      vertex 7.83641 -7.35888 3
      vertex 6.1735 -8.73456 3
    endloop
  endfacet
  facet normal 0.637424 -0.770513 0
    outer loop
      vertex 7.83641 -7.35888 3
      vertex 6.1735 -8.73456 0
      vertex 7.83641 -7.35888 0
    endloop
  endfacet
  facet normal -0.0627904 -0.998027 0
    outer loop
      vertex -2.01435 -10.5596 0
      vertex 0.139576 -10.6951 3
      vertex -2.01435 -10.5596 3
    endloop
  endfacet
  facet normal -0.0627904 -0.998027 -0
    outer loop
      vertex 0.139576 -10.6951 3
      vertex -2.01435 -10.5596 0
      vertex 0.139576 -10.6951 0
    endloop
  endfacet
  facet normal -0.309017 -0.951057 0
    outer loop
      vertex -4.57713 -9.72689 0
      vertex -2.01435 -10.5596 3
      vertex -4.57713 -9.72689 3
    endloop
  endfacet
  facet normal -0.309017 -0.951057 -0
    outer loop
      vertex -2.01435 -10.5596 3
      vertex -4.57713 -9.72689 0
      vertex -2.01435 -10.5596 0
    endloop
  endfacet
  facet normal 0 -1 0
    outer loop
      vertex -2.04959 3.55 0
      vertex 2.04959 3.55 5.5
      vertex -2.04959 3.55 5.5
    endloop
  endfacet
  facet normal 0 -1 -0
    outer loop
      vertex 2.04959 3.55 5.5
      vertex -2.04959 3.55 0
      vertex 2.04959 3.55 0
    endloop
  endfacet
  facet normal 0 1 -0
    outer loop
      vertex 2.04959 -3.55 0
      vertex -2.04959 -3.55 5.5
      vertex 2.04959 -3.55 5.5
    endloop
  endfacet
  facet normal 0 1 0
    outer loop
      vertex -2.04959 -3.55 5.5
      vertex 2.04959 -3.55 0
      vertex -2.04959 -3.55 0
    endloop
  endfacet
  facet normal -0.866025 -0.5 0
    outer loop
      vertex 4.09919 0 0
      vertex 2.04959 3.55 5.5
      vertex 2.04959 3.55 0
    endloop
  endfacet
  facet normal -0.866025 -0.5 0
    outer loop
      vertex 2.04959 3.55 5.5
      vertex 4.09919 0 0
      vertex 4.09919 0 5.5
    endloop
  endfacet
  facet normal 0.866025 0.5 0
    outer loop
      vertex -2.04959 -3.55 5.5
      vertex -4.09919 0 0
      vertex -4.09919 0 5.5
    endloop
  endfacet
  facet normal 0.866025 0.5 0
    outer loop
      vertex -4.09919 0 0
      vertex -2.04959 -3.55 5.5
      vertex -2.04959 -3.55 0
    endloop
  endfacet
  facet normal 0.866025 -0.5 0
    outer loop
      vertex -4.09919 0 5.5
      vertex -2.04959 3.55 0
      vertex -2.04959 3.55 5.5
    endloop
  endfacet
  facet normal 0.866025 -0.5 0
    outer loop
      vertex -2.04959 3.55 0
      vertex -4.09919 0 5.5
      vertex -4.09919 0 0
    endloop
  endfacet
  facet normal -0.866025 0.5 0
    outer loop
      vertex 2.04959 -3.55 0
      vertex 4.09919 0 5.5
      vertex 4.09919 0 0
    endloop
  endfacet
  facet normal -0.866025 0.5 0
    outer loop
      vertex 4.09919 0 5.5
      vertex 2.04959 -3.55 0
      vertex 2.04959 -3.55 5.5
    endloop
  endfacet
  facet normal 1 -0 0
    outer loop
      vertex 7.55043 -0.4042 3
      vertex 7.55043 0.4042 0
      vertex 7.55043 0.4042 3
    endloop
  endfacet
  facet normal 1 0 0
    outer loop
      vertex 7.55043 0.4042 0
      vertex 7.55043 -0.4042 3
      vertex 7.55043 -0.4042 0
    endloop
  endfacet
  facet normal 0.0627917 -0.998027 0
    outer loop
      vertex 10.1457 3.16788 0
      vertex 10.2148 3.17222 3
      vertex 10.1457 3.16788 3
    endloop
  endfacet
  facet normal 0.0627917 -0.998027 0
    outer loop
      vertex 10.2148 3.17222 3
      vertex 10.1457 3.16788 0
      vertex 10.2148 3.17222 0
    endloop
  endfacet
  facet normal 0.728968 -0.684548 0
    outer loop
      vertex 8.14092 1.89561 3
      vertex 8.69431 2.4849 0
      vertex 8.69431 2.4849 3
    endloop
  endfacet
  facet normal 0.728968 -0.684548 0
    outer loop
      vertex 8.69431 2.4849 0
      vertex 8.14092 1.89561 3
      vertex 8.14092 1.89561 0
    endloop
  endfacet
  facet normal 0.309017 -0.951056 0
    outer loop
      vertex 9.37686 2.91807 0
      vertex 10.1457 3.16788 3
      vertex 9.37686 2.91807 3
    endloop
  endfacet
  facet normal 0.309017 -0.951056 0
    outer loop
      vertex 10.1457 3.16788 3
      vertex 9.37686 2.91807 0
      vertex 10.1457 3.16788 0
    endloop
  endfacet
  facet normal 0.876307 -0.481754 0
    outer loop
      vertex 7.75147 1.1872 3
      vertex 8.14092 1.89561 0
      vertex 8.14092 1.89561 3
    endloop
  endfacet
  facet normal 0.876307 -0.481754 0
    outer loop
      vertex 8.14092 1.89561 0
      vertex 7.75147 1.1872 3
      vertex 7.75147 1.1872 0
    endloop
  endfacet
  facet normal 0.968583 -0.24869 0
    outer loop
      vertex 7.55043 0.4042 3
      vertex 7.75147 1.1872 0
      vertex 7.75147 1.1872 3
    endloop
  endfacet
  facet normal 0.968583 -0.24869 0
    outer loop
      vertex 7.75147 1.1872 0
      vertex 7.55043 0.4042 3
      vertex 7.55043 0.4042 0
    endloop
  endfacet
  facet normal 0.535827 -0.844328 0
    outer loop
      vertex 8.69431 2.4849 0
      vertex 9.37686 2.91807 3
      vertex 8.69431 2.4849 3
    endloop
  endfacet
  facet normal 0.535827 -0.844328 0
    outer loop
      vertex 9.37686 2.91807 3
      vertex 8.69431 2.4849 0
      vertex 9.37686 2.91807 0
    endloop
  endfacet
  facet normal 0.728968 0.684548 0
    outer loop
      vertex 8.69431 -2.4849 3
      vertex 8.14092 -1.89561 0
      vertex 8.14092 -1.89561 3
    endloop
  endfacet
  facet normal 0.728968 0.684548 0
    outer loop
      vertex 8.14092 -1.89561 0
      vertex 8.69431 -2.4849 3
      vertex 8.69431 -2.4849 0
    endloop
  endfacet
  facet normal 0.0627917 0.998027 -0
    outer loop
      vertex 10.2148 -3.17222 0
      vertex 10.1457 -3.16788 3
      vertex 10.2148 -3.17222 3
    endloop
  endfacet
  facet normal 0.0627917 0.998027 0
    outer loop
      vertex 10.1457 -3.16788 3
      vertex 10.2148 -3.17222 0
      vertex 10.1457 -3.16788 0
    endloop
  endfacet
  facet normal 0.535827 0.844328 -0
    outer loop
      vertex 9.37686 -2.91807 0
      vertex 8.69431 -2.4849 3
      vertex 9.37686 -2.91807 3
    endloop
  endfacet
  facet normal 0.535827 0.844328 0
    outer loop
      vertex 8.69431 -2.4849 3
      vertex 9.37686 -2.91807 0
      vertex 8.69431 -2.4849 0
    endloop
  endfacet
  facet normal 0.876307 0.481754 0
    outer loop
      vertex 8.14092 -1.89561 3
      vertex 7.75147 -1.1872 0
      vertex 7.75147 -1.1872 3
    endloop
  endfacet
  facet normal 0.876307 0.481754 0
    outer loop
      vertex 7.75147 -1.1872 0
      vertex 8.14092 -1.89561 3
      vertex 8.14092 -1.89561 0
    endloop
  endfacet
  facet normal 0.968583 0.24869 0
    outer loop
      vertex 7.75147 -1.1872 3
      vertex 7.55043 -0.4042 0
      vertex 7.55043 -0.4042 3
    endloop
  endfacet
  facet normal 0.968583 0.24869 0
    outer loop
      vertex 7.55043 -0.4042 0
      vertex 7.75147 -1.1872 3
      vertex 7.75147 -1.1872 0
    endloop
  endfacet
  facet normal 0.309017 0.951056 -0
    outer loop
      vertex 10.1457 -3.16788 0
      vertex 9.37686 -2.91807 3
      vertex 10.1457 -3.16788 3
    endloop
  endfacet
  facet normal 0.309017 0.951056 0
    outer loop
      vertex 9.37686 -2.91807 3
      vertex 10.1457 -3.16788 0
      vertex 9.37686 -2.91807 0
    endloop
  endfacet
  facet normal 0.968583 -0.24869 0
    outer loop
      vertex 0.122362 10.6281 3
      vertex 0.139576 10.6951 0
      vertex 0.139576 10.6951 3
    endloop
  endfacet
  facet normal 0.968583 -0.24869 0
    outer loop
      vertex 0.139576 10.6951 0
      vertex 0.122362 10.6281 3
      vertex 0.122362 10.6281 0
    endloop
  endfacet
  facet normal 0.876307 0.481754 0
    outer loop
      vertex 0.712852 8.32825 3
      vertex 0.323403 9.03666 0
      vertex 0.323403 9.03666 3
    endloop
  endfacet
  facet normal 0.876307 0.481754 0
    outer loop
      vertex 0.323403 9.03666 0
      vertex 0.712852 8.32825 3
      vertex 0.712852 8.32825 0
    endloop
  endfacet
  facet normal 0.728969 0.684547 0
    outer loop
      vertex 1.26624 7.73895 3
      vertex 0.712852 8.32825 0
      vertex 0.712852 8.32825 3
    endloop
  endfacet
  facet normal 0.728969 0.684547 0
    outer loop
      vertex 0.712852 8.32825 0
      vertex 1.26624 7.73895 3
      vertex 1.26624 7.73895 0
    endloop
  endfacet
  facet normal 1 -0 0
    outer loop
      vertex 0.122362 9.81966 3
      vertex 0.122362 10.6281 0
      vertex 0.122362 10.6281 3
    endloop
  endfacet
  facet normal 1 0 0
    outer loop
      vertex 0.122362 10.6281 0
      vertex 0.122362 9.81966 3
      vertex 0.122362 9.81966 0
    endloop
  endfacet
  facet normal 0.535826 0.844328 -0
    outer loop
      vertex 1.94879 7.30579 0
      vertex 1.26624 7.73895 3
      vertex 1.94879 7.30579 3
    endloop
  endfacet
  facet normal 0.535826 0.844328 0
    outer loop
      vertex 1.26624 7.73895 3
      vertex 1.94879 7.30579 0
      vertex 1.26624 7.73895 0
    endloop
  endfacet
  facet normal 0.968583 0.24869 0
    outer loop
      vertex 0.323403 9.03666 3
      vertex 0.122362 9.81966 0
      vertex 0.122362 9.81966 3
    endloop
  endfacet
  facet normal 0.968583 0.24869 0
    outer loop
      vertex 0.122362 9.81966 0
      vertex 0.323403 9.03666 3
      vertex 0.323403 9.03666 0
    endloop
  endfacet
  facet normal 0.0627911 0.998027 -0
    outer loop
      vertex 3.52443 7.00522 0
      vertex 2.71763 7.05598 3
      vertex 3.52443 7.00522 3
    endloop
  endfacet
  facet normal 0.0627911 0.998027 0
    outer loop
      vertex 2.71763 7.05598 3
      vertex 3.52443 7.00522 0
      vertex 2.71763 7.05598 0
    endloop
  endfacet
  facet normal 0.309017 0.951056 -0
    outer loop
      vertex 2.71763 7.05598 0
      vertex 1.94879 7.30579 3
      vertex 2.71763 7.05598 3
    endloop
  endfacet
  facet normal 0.309017 0.951056 0
    outer loop
      vertex 1.94879 7.30579 3
      vertex 2.71763 7.05598 0
      vertex 1.94879 7.30579 0
    endloop
  endfacet
  facet normal -0.929776 0.368127 0
    outer loop
      vertex 6.14802 8.6702 0
      vertex 6.1735 8.73456 3
      vertex 6.1735 8.73456 0
    endloop
  endfacet
  facet normal -0.929776 0.368127 0
    outer loop
      vertex 6.1735 8.73456 3
      vertex 6.14802 8.6702 0
      vertex 6.14802 8.6702 3
    endloop
  endfacet
  facet normal -0.637424 0.770513 0
    outer loop
      vertex 5.67286 8.01619 0
      vertex 5.04997 7.5009 3
      vertex 5.67286 8.01619 3
    endloop
  endfacet
  facet normal -0.637424 0.770513 0
    outer loop
      vertex 5.04997 7.5009 3
      vertex 5.67286 8.01619 0
      vertex 5.04997 7.5009 0
    endloop
  endfacet
  facet normal -0.425779 0.904827 0
    outer loop
      vertex 5.04997 7.5009 0
      vertex 4.31851 7.1567 3
      vertex 5.04997 7.5009 3
    endloop
  endfacet
  facet normal -0.425779 0.904827 0
    outer loop
      vertex 4.31851 7.1567 3
      vertex 5.04997 7.5009 0
      vertex 4.31851 7.1567 0
    endloop
  endfacet
  facet normal -0.187382 0.982287 0
    outer loop
      vertex 4.31851 7.1567 0
      vertex 3.52443 7.00522 3
      vertex 4.31851 7.1567 3
    endloop
  endfacet
  facet normal -0.187382 0.982287 0
    outer loop
      vertex 3.52443 7.00522 3
      vertex 4.31851 7.1567 0
      vertex 3.52443 7.00522 0
    endloop
  endfacet
  facet normal -0.809017 0.587785 0
    outer loop
      vertex 5.67286 8.01619 0
      vertex 6.14802 8.6702 3
      vertex 6.14802 8.6702 0
    endloop
  endfacet
  facet normal -0.809017 0.587785 0
    outer loop
      vertex 6.14802 8.6702 3
      vertex 5.67286 8.01619 0
      vertex 5.67286 8.01619 3
    endloop
  endfacet
  facet normal -0.637422 -0.770514 0
    outer loop
      vertex -6.39934 8.57048 0
      vertex -6.34601 8.52636 3
      vertex -6.39934 8.57048 3
    endloop
  endfacet
  facet normal -0.637422 -0.770514 -0
    outer loop
      vertex -6.34601 8.52636 3
      vertex -6.39934 8.57048 0
      vertex -6.34601 8.52636 0
    endloop
  endfacet
  facet normal -0.992115 -0.125333 0
    outer loop
      vertex -5.47193 6.31869 0
      vertex -5.57325 7.12072 3
      vertex -5.57325 7.12072 0
    endloop
  endfacet
  facet normal -0.992115 -0.125333 0
    outer loop
      vertex -5.57325 7.12072 3
      vertex -5.47193 6.31869 0
      vertex -5.47193 6.31869 3
    endloop
  endfacet
  facet normal -0.929777 -0.368124 0
    outer loop
      vertex -5.57325 7.12072 0
      vertex -5.87084 7.87235 3
      vertex -5.87084 7.87235 0
    endloop
  endfacet
  facet normal -0.929777 -0.368124 0
    outer loop
      vertex -5.87084 7.87235 3
      vertex -5.57325 7.12072 0
      vertex -5.57325 7.12072 3
    endloop
  endfacet
  facet normal -0.42578 0.904827 0
    outer loop
      vertex -6.96889 3.59573 0
      vertex -7.70035 3.25153 3
      vertex -6.96889 3.59573 3
    endloop
  endfacet
  facet normal -0.42578 0.904827 0
    outer loop
      vertex -7.70035 3.25153 3
      vertex -6.96889 3.59573 0
      vertex -7.70035 3.25153 0
    endloop
  endfacet
  facet normal -0.809017 0.587785 0
    outer loop
      vertex -6.34601 4.11103 0
      vertex -5.87084 4.76504 3
      vertex -5.87084 4.76504 0
    endloop
  endfacet
  facet normal -0.809017 0.587785 0
    outer loop
      vertex -5.87084 4.76504 3
      vertex -6.34601 4.11103 0
      vertex -6.34601 4.11103 3
    endloop
  endfacet
  facet normal -0.187381 0.982287 0
    outer loop
      vertex -7.70035 3.25153 0
      vertex -8.49443 3.10005 3
      vertex -7.70035 3.25153 3
    endloop
  endfacet
  facet normal -0.187381 0.982287 0
    outer loop
      vertex -8.49443 3.10005 3
      vertex -7.70035 3.25153 0
      vertex -8.49443 3.10005 0
    endloop
  endfacet
  facet normal 0.309016 0.951057 -0
    outer loop
      vertex -9.30124 3.15082 0
      vertex -10.0701 3.40062 3
      vertex -9.30124 3.15082 3
    endloop
  endfacet
  facet normal 0.309016 0.951057 0
    outer loop
      vertex -10.0701 3.40062 3
      vertex -9.30124 3.15082 0
      vertex -10.0701 3.40062 0
    endloop
  endfacet
  facet normal -0.809017 -0.587785 0
    outer loop
      vertex -5.87084 7.87235 0
      vertex -6.34601 8.52636 3
      vertex -6.34601 8.52636 0
    endloop
  endfacet
  facet normal -0.809017 -0.587785 0
    outer loop
      vertex -6.34601 8.52636 3
      vertex -5.87084 7.87235 0
      vertex -5.87084 7.87235 3
    endloop
  endfacet
  facet normal -0.929777 0.368124 0
    outer loop
      vertex -5.87084 4.76504 0
      vertex -5.57325 5.51667 3
      vertex -5.57325 5.51667 0
    endloop
  endfacet
  facet normal -0.929777 0.368124 0
    outer loop
      vertex -5.57325 5.51667 3
      vertex -5.87084 4.76504 0
      vertex -5.87084 4.76504 3
    endloop
  endfacet
  facet normal 0.535828 0.844327 -0
    outer loop
      vertex -10.0701 3.40062 0
      vertex -10.1285 3.43771 3
      vertex -10.0701 3.40062 3
    endloop
  endfacet
  facet normal 0.535828 0.844327 0
    outer loop
      vertex -10.1285 3.43771 3
      vertex -10.0701 3.40062 0
      vertex -10.1285 3.43771 0
    endloop
  endfacet
  facet normal -0.637424 0.770513 0
    outer loop
      vertex -6.34601 4.11103 0
      vertex -6.96889 3.59573 3
      vertex -6.34601 4.11103 3
    endloop
  endfacet
  facet normal -0.637424 0.770513 0
    outer loop
      vertex -6.96889 3.59573 3
      vertex -6.34601 4.11103 0
      vertex -6.96889 3.59573 0
    endloop
  endfacet
  facet normal 0.062791 0.998027 -0
    outer loop
      vertex -8.49443 3.10005 0
      vertex -9.30124 3.15082 3
      vertex -8.49443 3.10005 3
    endloop
  endfacet
  facet normal 0.062791 0.998027 0
    outer loop
      vertex -9.30124 3.15082 3
      vertex -8.49443 3.10005 0
      vertex -9.30124 3.15082 0
    endloop
  endfacet
  facet normal -0.992115 0.125333 0
    outer loop
      vertex -5.57325 5.51667 0
      vertex -5.47193 6.31869 3
      vertex -5.47193 6.31869 0
    endloop
  endfacet
  facet normal -0.992115 0.125333 0
    outer loop
      vertex -5.47193 6.31869 3
      vertex -5.57325 5.51667 0
      vertex -5.57325 5.51667 3
    endloop
  endfacet
  facet normal -0.809017 -0.587785 0
    outer loop
      vertex -5.87084 -4.76504 0
      vertex -6.34601 -4.11103 3
      vertex -6.34601 -4.11103 0
    endloop
  endfacet
  facet normal -0.809017 -0.587785 0
    outer loop
      vertex -6.34601 -4.11103 3
      vertex -5.87084 -4.76504 0
      vertex -5.87084 -4.76504 3
    endloop
  endfacet
  facet normal -0.992115 0.125333 0
    outer loop
      vertex -5.57325 -7.12072 0
      vertex -5.47193 -6.31869 3
      vertex -5.47193 -6.31869 0
    endloop
  endfacet
  facet normal -0.992115 0.125333 0
    outer loop
      vertex -5.47193 -6.31869 3
      vertex -5.57325 -7.12072 0
      vertex -5.57325 -7.12072 3
    endloop
  endfacet
  facet normal -0.809017 0.587785 0
    outer loop
      vertex -6.34601 -8.52636 0
      vertex -5.87084 -7.87235 3
      vertex -5.87084 -7.87235 0
    endloop
  endfacet
  facet normal -0.809017 0.587785 0
    outer loop
      vertex -5.87084 -7.87235 3
      vertex -6.34601 -8.52636 0
      vertex -6.34601 -8.52636 3
    endloop
  endfacet
  facet normal -0.637422 0.770514 0
    outer loop
      vertex -6.34601 -8.52636 0
      vertex -6.39934 -8.57048 3
      vertex -6.34601 -8.52636 3
    endloop
  endfacet
  facet normal -0.637422 0.770514 0
    outer loop
      vertex -6.39934 -8.57048 3
      vertex -6.34601 -8.52636 0
      vertex -6.39934 -8.57048 0
    endloop
  endfacet
  facet normal -0.992115 -0.125333 0
    outer loop
      vertex -5.47193 -6.31869 0
      vertex -5.57325 -5.51667 3
      vertex -5.57325 -5.51667 0
    endloop
  endfacet
  facet normal -0.992115 -0.125333 0
    outer loop
      vertex -5.57325 -5.51667 3
      vertex -5.47193 -6.31869 0
      vertex -5.47193 -6.31869 3
    endloop
  endfacet
  facet normal -0.929777 -0.368124 0
    outer loop
      vertex -5.57325 -5.51667 0
      vertex -5.87084 -4.76504 3
      vertex -5.87084 -4.76504 0
    endloop
  endfacet
  facet normal -0.929777 -0.368124 0
    outer loop
      vertex -5.87084 -4.76504 3
      vertex -5.57325 -5.51667 0
      vertex -5.57325 -5.51667 3
    endloop
  endfacet
  facet normal -0.929777 0.368124 0
    outer loop
      vertex -5.87084 -7.87235 0
      vertex -5.57325 -7.12072 3
      vertex -5.57325 -7.12072 0
    endloop
  endfacet
  facet normal -0.929777 0.368124 0
    outer loop
      vertex -5.57325 -7.12072 3
      vertex -5.87084 -7.87235 0
      vertex -5.87084 -7.87235 3
    endloop
  endfacet
  facet normal 0.062791 -0.998027 0
    outer loop
      vertex -9.30124 -3.15082 0
      vertex -8.49443 -3.10005 3
      vertex -9.30124 -3.15082 3
    endloop
  endfacet
  facet normal 0.062791 -0.998027 0
    outer loop
      vertex -8.49443 -3.10005 3
      vertex -9.30124 -3.15082 0
      vertex -8.49443 -3.10005 0
    endloop
  endfacet
  facet normal -0.187381 -0.982287 0
    outer loop
      vertex -8.49443 -3.10005 0
      vertex -7.70035 -3.25153 3
      vertex -8.49443 -3.10005 3
    endloop
  endfacet
  facet normal -0.187381 -0.982287 -0
    outer loop
      vertex -7.70035 -3.25153 3
      vertex -8.49443 -3.10005 0
      vertex -7.70035 -3.25153 0
    endloop
  endfacet
  facet normal 0.535828 -0.844327 0
    outer loop
      vertex -10.1285 -3.43771 0
      vertex -10.0701 -3.40062 3
      vertex -10.1285 -3.43771 3
    endloop
  endfacet
  facet normal 0.535828 -0.844327 0
    outer loop
      vertex -10.0701 -3.40062 3
      vertex -10.1285 -3.43771 0
      vertex -10.0701 -3.40062 0
    endloop
  endfacet
  facet normal 0.309016 -0.951057 0
    outer loop
      vertex -10.0701 -3.40062 0
      vertex -9.30124 -3.15082 3
      vertex -10.0701 -3.40062 3
    endloop
  endfacet
  facet normal 0.309016 -0.951057 0
    outer loop
      vertex -9.30124 -3.15082 3
      vertex -10.0701 -3.40062 0
      vertex -9.30124 -3.15082 0
    endloop
  endfacet
  facet normal -0.42578 -0.904827 0
    outer loop
      vertex -7.70035 -3.25153 0
      vertex -6.96889 -3.59573 3
      vertex -7.70035 -3.25153 3
    endloop
  endfacet
  facet normal -0.42578 -0.904827 -0
    outer loop
      vertex -6.96889 -3.59573 3
      vertex -7.70035 -3.25153 0
      vertex -6.96889 -3.59573 0
    endloop
  endfacet
  facet normal -0.637424 -0.770513 0
    outer loop
      vertex -6.96889 -3.59573 0
      vertex -6.34601 -4.11103 3
      vertex -6.96889 -3.59573 3
    endloop
  endfacet
  facet normal -0.637424 -0.770513 -0
    outer loop
      vertex -6.34601 -4.11103 3
      vertex -6.96889 -3.59573 0
      vertex -6.34601 -4.11103 0
    endloop
  endfacet
  facet normal 0.309017 -0.951056 0
    outer loop
      vertex 1.94879 -7.30579 0
      vertex 2.71763 -7.05598 3
      vertex 1.94879 -7.30579 3
    endloop
  endfacet
  facet normal 0.309017 -0.951056 0
    outer loop
      vertex 2.71763 -7.05598 3
      vertex 1.94879 -7.30579 0
      vertex 2.71763 -7.05598 0
    endloop
  endfacet
  facet normal -0.929776 -0.368127 0
    outer loop
      vertex 6.1735 -8.73456 0
      vertex 6.14802 -8.6702 3
      vertex 6.14802 -8.6702 0
    endloop
  endfacet
  facet normal -0.929776 -0.368127 0
    outer loop
      vertex 6.14802 -8.6702 3
      vertex 6.1735 -8.73456 0
      vertex 6.1735 -8.73456 3
    endloop
  endfacet
  facet normal -0.425779 -0.904827 0
    outer loop
      vertex 4.31851 -7.1567 0
      vertex 5.04997 -7.5009 3
      vertex 4.31851 -7.1567 3
    endloop
  endfacet
  facet normal -0.425779 -0.904827 -0
    outer loop
      vertex 5.04997 -7.5009 3
      vertex 4.31851 -7.1567 0
      vertex 5.04997 -7.5009 0
    endloop
  endfacet
  facet normal -0.187382 -0.982287 0
    outer loop
      vertex 3.52443 -7.00522 0
      vertex 4.31851 -7.1567 3
      vertex 3.52443 -7.00522 3
    endloop
  endfacet
  facet normal -0.187382 -0.982287 -0
    outer loop
      vertex 4.31851 -7.1567 3
      vertex 3.52443 -7.00522 0
      vertex 4.31851 -7.1567 0
    endloop
  endfacet
  facet normal -0.809017 -0.587785 0
    outer loop
      vertex 6.14802 -8.6702 0
      vertex 5.67286 -8.01619 3
      vertex 5.67286 -8.01619 0
    endloop
  endfacet
  facet normal -0.809017 -0.587785 0
    outer loop
      vertex 5.67286 -8.01619 3
      vertex 6.14802 -8.6702 0
      vertex 6.14802 -8.6702 3
    endloop
  endfacet
  facet normal 0.0627911 -0.998027 0
    outer loop
      vertex 2.71763 -7.05598 0
      vertex 3.52443 -7.00522 3
      vertex 2.71763 -7.05598 3
    endloop
  endfacet
  facet normal 0.0627911 -0.998027 0
    outer loop
      vertex 3.52443 -7.00522 3
      vertex 2.71763 -7.05598 0
      vertex 3.52443 -7.00522 0
    endloop
  endfacet
  facet normal -0.637424 -0.770513 0
    outer loop
      vertex 5.04997 -7.5009 0
      vertex 5.67286 -8.01619 3
      vertex 5.04997 -7.5009 3
    endloop
  endfacet
  facet normal -0.637424 -0.770513 -0
    outer loop
      vertex 5.67286 -8.01619 3
      vertex 5.04997 -7.5009 0
      vertex 5.67286 -8.01619 0
    endloop
  endfacet
  facet normal 0.876307 -0.481754 0
    outer loop
      vertex 0.323403 -9.03666 3
      vertex 0.712852 -8.32825 0
      vertex 0.712852 -8.32825 3
    endloop
  endfacet
  facet normal 0.876307 -0.481754 0
    outer loop
      vertex 0.712852 -8.32825 0
      vertex 0.323403 -9.03666 3
      vertex 0.323403 -9.03666 0
    endloop
  endfacet
  facet normal 1 -0 0
    outer loop
      vertex 0.122362 -10.6281 3
      vertex 0.122362 -9.81966 0
      vertex 0.122362 -9.81966 3
    endloop
  endfacet
  facet normal 1 0 0
    outer loop
      vertex 0.122362 -9.81966 0
      vertex 0.122362 -10.6281 3
      vertex 0.122362 -10.6281 0
    endloop
  endfacet
  facet normal 0.968583 0.24869 0
    outer loop
      vertex 0.139576 -10.6951 3
      vertex 0.122362 -10.6281 0
      vertex 0.122362 -10.6281 3
    endloop
  endfacet
  facet normal 0.968583 0.24869 0
    outer loop
      vertex 0.122362 -10.6281 0
      vertex 0.139576 -10.6951 3
      vertex 0.139576 -10.6951 0
    endloop
  endfacet
  facet normal 0.968583 -0.24869 0
    outer loop
      vertex 0.122362 -9.81966 3
      vertex 0.323403 -9.03666 0
      vertex 0.323403 -9.03666 3
    endloop
  endfacet
  facet normal 0.968583 -0.24869 0
    outer loop
      vertex 0.323403 -9.03666 0
      vertex 0.122362 -9.81966 3
      vertex 0.122362 -9.81966 0
    endloop
  endfacet
  facet normal 0.728969 -0.684547 0
    outer loop
      vertex 0.712852 -8.32825 3
      vertex 1.26624 -7.73895 0
      vertex 1.26624 -7.73895 3
    endloop
  endfacet
  facet normal 0.728969 -0.684547 0
    outer loop
      vertex 1.26624 -7.73895 0
      vertex 0.712852 -8.32825 3
      vertex 0.712852 -8.32825 0
    endloop
  endfacet
  facet normal 0.535826 -0.844328 0
    outer loop
      vertex 1.26624 -7.73895 0
      vertex 1.94879 -7.30579 3
      vertex 1.26624 -7.73895 3
    endloop
  endfacet
  facet normal 0.535826 -0.844328 0
    outer loop
      vertex 1.94879 -7.30579 3
      vertex 1.26624 -7.73895 0
      vertex 1.94879 -7.30579 0
    endloop
  endfacet
endsolid OpenSCAD_Model
