solid OpenSCAD_Model
  facet normal 0.992115 0.125333 0
    outer loop
      vertex 5.3 0 5.5
      vertex 5.13349 1.31806 3
      vertex 5.13349 1.31806 5.5
    endloop
  endfacet
  facet normal 0.992115 0.125333 0
    outer loop
      vertex 5.13349 1.31806 3
      vertex 5.3 0 5.5
      vertex 5.3 0 3
    endloop
  endfacet
  facet normal -1 0 0
    outer loop
      vertex -5.25821 -0.664266 3
      vertex -5.25821 0.664266 5.5
      vertex -5.25821 0.664266 3
    endloop
  endfacet
  facet normal -1 -0 0
    outer loop
      vertex -5.25821 0.664266 5.5
      vertex -5.25821 -0.664266 3
      vertex -5.25821 -0.664266 5.5
    endloop
  endfacet
  facet normal -0.0627903 0.998027 0
    outer loop
      vertex 0.332789 5.28954 3
      vertex -0.99312 5.20612 5.5
      vertex 0.332789 5.28954 5.5
    endloop
  endfacet
  facet normal -0.0627903 0.998027 0
    outer loop
      vertex -0.99312 5.20612 5.5
      vertex 0.332789 5.28954 3
      vertex -0.99312 5.20612 3
    endloop
  endfacet
  facet normal 0.637424 0.770513 -0
    outer loop
      vertex 3.86353 3.6281 3
      vertex 2.83988 4.47494 5.5
      vertex 3.86353 3.6281 5.5
    endloop
  endfacet
  facet normal 0.637424 0.770513 0
    outer loop
      vertex 2.83988 4.47494 5.5
      vertex 3.86353 3.6281 3
      vertex 2.83988 4.47494 3
    endloop
  endfacet
  facet normal 0.929777 0.368124 0
    outer loop
      vertex 5.13349 1.31806 5.5
      vertex 4.64443 2.55329 3
      vertex 4.64443 2.55329 5.5
    endloop
  endfacet
  facet normal 0.929777 0.368124 0
    outer loop
      vertex 4.64443 2.55329 3
      vertex 5.13349 1.31806 5.5
      vertex 5.13349 1.31806 3
    endloop
  endfacet
  facet normal -0.728969 0.684547 0
    outer loop
      vertex -4.28779 3.11526 3
      vertex -3.37835 4.08372 5.5
      vertex -3.37835 4.08372 3
    endloop
  endfacet
  facet normal -0.728969 0.684547 0
    outer loop
      vertex -3.37835 4.08372 5.5
      vertex -4.28779 3.11526 3
      vertex -4.28779 3.11526 5.5
    endloop
  endfacet
  facet normal 0 0 1
    outer loop
      vertex 3.23316 0 5.5
      vertex 5.3 0 5.5
      vertex 5.13349 1.31806 5.5
    endloop
  endfacet
  facet normal 0 0 1
    outer loop
      vertex 3.23316 0 5.5
      vertex 5.13349 1.31806 5.5
      vertex 4.64443 2.55329 5.5
    endloop
  endfacet
  facet normal 0 0 1
    outer loop
      vertex 5.3 0 5.5
      vertex 3.23316 0 5.5
      vertex 5.13349 -1.31806 5.5
    endloop
  endfacet
  facet normal -0 0 1
    outer loop
      vertex 1.61658 2.8 5.5
      vertex 4.64443 2.55329 5.5
      vertex 3.86353 3.6281 5.5
    endloop
  endfacet
  facet normal 0 0 1
    outer loop
      vertex 5.13349 -1.31806 5.5
      vertex 3.23316 0 5.5
      vertex 4.64443 -2.55329 5.5
    endloop
  endfacet
  facet normal 0 0 1
    outer loop
      vertex 1.61658 -2.8 5.5
      vertex 4.64443 -2.55329 5.5
      vertex 3.23316 0 5.5
    endloop
  endfacet
  facet normal 0 0 1
    outer loop
      vertex 1.61658 2.8 5.5
      vertex 3.86353 3.6281 5.5
      vertex 2.83988 4.47494 5.5
    endloop
  endfacet
  facet normal 0 0 1
    outer loop
      vertex 1.61658 2.8 5.5
      vertex 2.83988 4.47494 5.5
      vertex 1.63779 5.0406 5.5
    endloop
  endfacet
  facet normal 0 0 1
    outer loop
      vertex 4.64443 2.55329 5.5
      vertex 1.61658 2.8 5.5
      vertex 3.23316 0 5.5
    endloop
  endfacet
  facet normal 0 0 1
    outer loop
      vertex 0.332789 5.28954 5.5
      vertex 1.61658 2.8 5.5
      vertex 1.63779 5.0406 5.5
    endloop
  endfacet
  facet normal 0 0 1
    outer loop
      vertex -1.61658 2.8 5.5
      vertex 0.332789 5.28954 5.5
      vertex -0.99312 5.20612 5.5
    endloop
  endfacet
  facet normal 0 0 1
    outer loop
      vertex 0.332789 5.28954 5.5
      vertex -1.61658 2.8 5.5
      vertex 1.61658 2.8 5.5
    endloop
  endfacet
  facet normal -0 0 1
    outer loop
      vertex -2.25663 4.79558 5.5
      vertex -1.61658 2.8 5.5
      vertex -0.99312 5.20612 5.5
    endloop
  endfacet
  facet normal -0 0 1
    outer loop
      vertex -3.37835 4.08372 5.5
      vertex -1.61658 2.8 5.5
      vertex -2.25663 4.79558 5.5
    endloop
  endfacet
  facet normal -0 0 1
    outer loop
      vertex -4.28779 3.11526 5.5
      vertex -1.61658 2.8 5.5
      vertex -3.37835 4.08372 5.5
    endloop
  endfacet
  facet normal 0 0 1
    outer loop
      vertex 4.64443 -2.55329 5.5
      vertex 1.61658 -2.8 5.5
      vertex 3.86353 -3.6281 5.5
    endloop
  endfacet
  facet normal 0 0 1
    outer loop
      vertex 3.86353 -3.6281 5.5
      vertex 1.61658 -2.8 5.5
      vertex 2.83988 -4.47494 5.5
    endloop
  endfacet
  facet normal 0 0 1
    outer loop
      vertex 2.83988 -4.47494 5.5
      vertex 1.61658 -2.8 5.5
      vertex 1.63779 -5.0406 5.5
    endloop
  endfacet
  facet normal 0 0 1
    outer loop
      vertex 1.61658 -2.8 5.5
      vertex 0.332789 -5.28954 5.5
      vertex 1.63779 -5.0406 5.5
    endloop
  endfacet
  facet normal -0 0 1
    outer loop
      vertex -1.61658 -2.8 5.5
      vertex 0.332789 -5.28954 5.5
      vertex 1.61658 -2.8 5.5
    endloop
  endfacet
  facet normal 0 0 1
    outer loop
      vertex 0.332789 -5.28954 5.5
      vertex -1.61658 -2.8 5.5
      vertex -0.99312 -5.20612 5.5
    endloop
  endfacet
  facet normal 0 0 1
    outer loop
      vertex -1.61658 -2.8 5.5
      vertex -2.25663 -4.79558 5.5
      vertex -0.99312 -5.20612 5.5
    endloop
  endfacet
  facet normal 0 0 1
    outer loop
      vertex -4.28779 -3.11526 5.5
      vertex -1.61658 -2.8 5.5
      vertex -3.23316 0 5.5
    endloop
  endfacet
  facet normal 0 0 1
    outer loop
      vertex -1.61658 -2.8 5.5
      vertex -3.37835 -4.08372 5.5
      vertex -2.25663 -4.79558 5.5
    endloop
  endfacet
  facet normal 0 0 1
    outer loop
      vertex -1.61658 2.8 5.5
      vertex -4.28779 3.11526 5.5
      vertex -3.23316 0 5.5
    endloop
  endfacet
  facet normal -0 0 1
    outer loop
      vertex -4.92781 1.95106 5.5
      vertex -3.23316 0 5.5
      vertex -4.28779 3.11526 5.5
    endloop
  endfacet
  facet normal 0 0 1
    outer loop
      vertex -1.61658 -2.8 5.5
      vertex -4.28779 -3.11526 5.5
      vertex -3.37835 -4.08372 5.5
    endloop
  endfacet
  facet normal -0 0 1
    outer loop
      vertex -5.25821 0.664266 5.5
      vertex -3.23316 0 5.5
      vertex -4.92781 1.95106 5.5
    endloop
  endfacet
  facet normal 0 0 1
    outer loop
      vertex -3.23316 0 5.5
      vertex -4.92781 -1.95106 5.5
      vertex -4.28779 -3.11526 5.5
    endloop
  endfacet
  facet normal 0 0 1
    outer loop
      vertex -5.25821 -0.664266 5.5
      vertex -3.23316 0 5.5
      vertex -5.25821 0.664266 5.5
    endloop
  endfacet
  facet normal 0 0 1
    outer loop
      vertex -3.23316 0 5.5
      vertex -5.25821 -0.664266 5.5
      vertex -4.92781 -1.95106 5.5
    endloop
  endfacet
  facet normal -0.309017 0.951056 0
    outer loop
      vertex -0.99312 5.20612 3
      vertex -2.25663 4.79558 5.5
      vertex -0.99312 5.20612 5.5
    endloop
  endfacet
  facet normal -0.309017 0.951056 0
    outer loop
      vertex -2.25663 4.79558 5.5
      vertex -0.99312 5.20612 3
      vertex -2.25663 4.79558 3
    endloop
  endfacet
  facet normal 0.809017 -0.587786 0
    outer loop
      vertex 3.86353 -3.6281 5.5
      vertex 4.64443 -2.55329 3
      vertex 4.64443 -2.55329 5.5
    endloop
  endfacet
  facet normal 0.809017 -0.587786 0
    outer loop
      vertex 4.64443 -2.55329 3
      vertex 3.86353 -3.6281 5.5
      vertex 3.86353 -3.6281 3
    endloop
  endfacet
  facet normal 0.929777 -0.368124 0
    outer loop
      vertex 4.64443 -2.55329 5.5
      vertex 5.13349 -1.31806 3
      vertex 5.13349 -1.31806 5.5
    endloop
  endfacet
  facet normal 0.929777 -0.368124 0
    outer loop
      vertex 5.13349 -1.31806 3
      vertex 4.64443 -2.55329 5.5
      vertex 4.64443 -2.55329 3
    endloop
  endfacet
  facet normal 0 0 1
    outer loop
      vertex 13.1446 7.22631 3
      vertex 12.7647 4.75034 3
      vertex 13.9699 5.14193 3
    endloop
  endfacet
  facet normal 0 0 1
    outer loop
      vertex 13.1446 7.22631 3
      vertex 11.6535 4.04519 3
      vertex 12.7647 4.75034 3
    endloop
  endfacet
  facet normal 0 0 1
    outer loop
      vertex 10.9345 10.2682 3
      vertex 11.6535 4.04519 3
      vertex 13.1446 7.22631 3
    endloop
  endfacet
  facet normal -0 0 1
    outer loop
      vertex 7.44835 9.83313 3
      vertex 11.6535 4.04519 3
      vertex 10.9345 10.2682 3
    endloop
  endfacet
  facet normal 0 0 1
    outer loop
      vertex 11.6535 4.04519 3
      vertex 7.44835 9.83313 3
      vertex 10.7527 3.08587 3
    endloop
  endfacet
  facet normal -0 0 1
    outer loop
      vertex 6.25759 9.2728 3
      vertex 10.7527 3.08587 3
      vertex 7.44835 9.83313 3
    endloop
  endfacet
  facet normal 0 0 1
    outer loop
      vertex 7.44835 9.83313 3
      vertex 10.9345 10.2682 3
      vertex 8.46234 10.672 3
    endloop
  endfacet
  facet normal -0 0 1
    outer loop
      vertex 8.46234 10.672 3
      vertex 10.9345 10.2682 3
      vertex 9.2072 11.6972 3
    endloop
  endfacet
  facet normal 0 0 1
    outer loop
      vertex 12.7647 -4.75034 3
      vertex 13.1446 -7.22631 3
      vertex 13.9699 -5.14193 3
    endloop
  endfacet
  facet normal 0 0 1
    outer loop
      vertex 11.6535 -4.04519 3
      vertex 13.1446 -7.22631 3
      vertex 12.7647 -4.75034 3
    endloop
  endfacet
  facet normal 0 0 1
    outer loop
      vertex 11.6535 -4.04519 3
      vertex 10.9345 -10.2682 3
      vertex 13.1446 -7.22631 3
    endloop
  endfacet
  facet normal 0 0 1
    outer loop
      vertex 7.44835 -9.83313 3
      vertex 11.6535 -4.04519 3
      vertex 10.7527 -3.08587 3
    endloop
  endfacet
  facet normal -0 0 1
    outer loop
      vertex 4.64443 -2.55329 3
      vertex 10.7527 -3.08587 3
      vertex 10.1187 -1.93265 3
    endloop
  endfacet
  facet normal -0 0 1
    outer loop
      vertex 5.13349 -1.31806 3
      vertex 10.1187 -1.93265 3
      vertex 9.7914 -0.657999 3
    endloop
  endfacet
  facet normal 0 0 1
    outer loop
      vertex 11.6535 -4.04519 3
      vertex 7.44835 -9.83313 3
      vertex 10.9345 -10.2682 3
    endloop
  endfacet
  facet normal 0 0 1
    outer loop
      vertex 4.64443 2.55329 3
      vertex 10.7527 3.08587 3
      vertex 6.25759 9.2728 3
    endloop
  endfacet
  facet normal 0 0 1
    outer loop
      vertex 10.7527 3.08587 3
      vertex 4.64443 2.55329 3
      vertex 10.1187 1.93265 3
    endloop
  endfacet
  facet normal 0 0 1
    outer loop
      vertex 5.13349 -1.31806 3
      vertex 9.7914 -0.657999 3
      vertex 5.3 0 3
    endloop
  endfacet
  facet normal 0 0 1
    outer loop
      vertex 10.1187 1.93265 3
      vertex 5.13349 1.31806 3
      vertex 9.7914 0.657999 3
    endloop
  endfacet
  facet normal 0 0 1
    outer loop
      vertex 10.9345 -10.2682 3
      vertex 8.46234 -10.672 3
      vertex 9.2072 -11.6972 3
    endloop
  endfacet
  facet normal 0 -0 1
    outer loop
      vertex 5.13349 1.31806 3
      vertex 10.1187 1.93265 3
      vertex 4.64443 2.55329 3
    endloop
  endfacet
  facet normal 0 0 1
    outer loop
      vertex 10.1187 -1.93265 3
      vertex 5.13349 -1.31806 3
      vertex 4.64443 -2.55329 3
    endloop
  endfacet
  facet normal 0 0 1
    outer loop
      vertex 10.9345 -10.2682 3
      vertex 7.44835 -9.83313 3
      vertex 8.46234 -10.672 3
    endloop
  endfacet
  facet normal 0 0 1
    outer loop
      vertex 9.7914 0.657999 3
      vertex 5.3 0 3
      vertex 9.7914 -0.657999 3
    endloop
  endfacet
  facet normal 0 0 1
    outer loop
      vertex 3.86353 3.6281 3
      vertex 6.25759 9.2728 3
      vertex 4.9649 9.02621 3
    endloop
  endfacet
  facet normal 0 -0 1
    outer loop
      vertex 5.3 0 3
      vertex 9.7914 0.657999 3
      vertex 5.13349 1.31806 3
    endloop
  endfacet
  facet normal 0 0 1
    outer loop
      vertex 6.25759 9.2728 3
      vertex 3.86353 3.6281 3
      vertex 4.64443 2.55329 3
    endloop
  endfacet
  facet normal 0 0 1
    outer loop
      vertex 2.83988 4.47494 3
      vertex 4.9649 9.02621 3
      vertex 3.6515 9.10884 3
    endloop
  endfacet
  facet normal 0 0 1
    outer loop
      vertex 4.9649 9.02621 3
      vertex 2.83988 4.47494 3
      vertex 3.86353 3.6281 3
    endloop
  endfacet
  facet normal 0 0 1
    outer loop
      vertex 1.63779 5.0406 3
      vertex 3.6515 9.10884 3
      vertex 2.39991 9.5155 3
    endloop
  endfacet
  facet normal 0 0 1
    outer loop
      vertex 3.6515 9.10884 3
      vertex 1.63779 5.0406 3
      vertex 2.83988 4.47494 3
    endloop
  endfacet
  facet normal 0 0 1
    outer loop
      vertex 0.332789 5.28954 3
      vertex 2.39991 9.5155 3
      vertex 1.28878 10.2207 3
    endloop
  endfacet
  facet normal 0 0 1
    outer loop
      vertex -0.99312 5.20612 3
      vertex 1.28878 10.2207 3
      vertex 0.387916 11.18 3
    endloop
  endfacet
  facet normal 0 0 1
    outer loop
      vertex 2.39991 9.5155 3
      vertex 0.332789 5.28954 3
      vertex 1.63779 5.0406 3
    endloop
  endfacet
  facet normal 0 0 1
    outer loop
      vertex -6.88525 8.81678 3
      vertex 0.387916 11.18 3
      vertex -0.246071 12.3332 3
    endloop
  endfacet
  facet normal 0 0 1
    outer loop
      vertex -2.81072 14.7343 3
      vertex -0.246071 12.3332 3
      vertex -0.573347 13.6078 3
    endloop
  endfacet
  facet normal 0 0 1
    outer loop
      vertex 1.28878 10.2207 3
      vertex -0.99312 5.20612 3
      vertex 0.332789 5.28954 3
    endloop
  endfacet
  facet normal -0 0 1
    outer loop
      vertex -9.32216 4.38406 3
      vertex -4.92781 1.95106 3
      vertex -8.30817 5.22291 3
    endloop
  endfacet
  facet normal 0 0 1
    outer loop
      vertex -5.25821 -0.664266 3
      vertex -7.05019 -7.51116 3
      vertex -6.88525 -8.81678 3
    endloop
  endfacet
  facet normal 0 0 1
    outer loop
      vertex -4.92781 1.95106 3
      vertex -9.32216 4.38406 3
      vertex -5.25821 0.664266 3
    endloop
  endfacet
  facet normal 0 0 1
    outer loop
      vertex -5.25821 -0.664266 3
      vertex -7.53464 -6.28757 3
      vertex -7.05019 -7.51116 3
    endloop
  endfacet
  facet normal -0 0 1
    outer loop
      vertex -10.5129 3.82373 3
      vertex -5.25821 0.664266 3
      vertex -9.32216 4.38406 3
    endloop
  endfacet
  facet normal 0 0 1
    outer loop
      vertex -5.25821 -0.664266 3
      vertex -8.30817 -5.22291 3
      vertex -7.53464 -6.28757 3
    endloop
  endfacet
  facet normal 0 0 1
    outer loop
      vertex -5.25821 0.664266 3
      vertex -10.5129 3.82373 3
      vertex -5.25821 -0.664266 3
    endloop
  endfacet
  facet normal 0 0 1
    outer loop
      vertex -5.25821 -0.664266 3
      vertex -9.32216 -4.38406 3
      vertex -8.30817 -5.22291 3
    endloop
  endfacet
  facet normal 0 0 1
    outer loop
      vertex -10.5129 -3.82373 3
      vertex -5.25821 -0.664266 3
      vertex -10.5129 3.82373 3
    endloop
  endfacet
  facet normal 0 0 1
    outer loop
      vertex -5.25821 -0.664266 3
      vertex -10.5129 -3.82373 3
      vertex -9.32216 -4.38406 3
    endloop
  endfacet
  facet normal -0 0 1
    outer loop
      vertex -11.8056 3.57714 3
      vertex -10.5129 -3.82373 3
      vertex -10.5129 3.82373 3
    endloop
  endfacet
  facet normal 0 0 1
    outer loop
      vertex -11.8056 3.57714 3
      vertex -11.8056 -3.57714 3
      vertex -10.5129 -3.82373 3
    endloop
  endfacet
  facet normal 0 0 1
    outer loop
      vertex -14.8817 1.88 3
      vertex -11.8056 3.57714 3
      vertex -13.119 3.65977 3
    endloop
  endfacet
  facet normal 0 0 1
    outer loop
      vertex -11.8056 3.57714 3
      vertex -14.8817 1.88 3
      vertex -11.8056 -3.57714 3
    endloop
  endfacet
  facet normal 0 0 1
    outer loop
      vertex -14.8817 1.88 3
      vertex -13.119 3.65977 3
      vertex -14.3242 4.05136 3
    endloop
  endfacet
  facet normal -0 0 1
    outer loop
      vertex -14.8817 -1.88 3
      vertex -11.8056 -3.57714 3
      vertex -14.8817 1.88 3
    endloop
  endfacet
  facet normal 0 0 1
    outer loop
      vertex -11.8056 -3.57714 3
      vertex -14.8817 -1.88 3
      vertex -13.119 -3.65977 3
    endloop
  endfacet
  facet normal 0 0 1
    outer loop
      vertex -13.119 -3.65977 3
      vertex -14.8817 -1.88 3
      vertex -14.3242 -4.05136 3
    endloop
  endfacet
  facet normal -0 0 1
    outer loop
      vertex -7.05019 -10.1224 3
      vertex -0.246071 -12.3332 3
      vertex -6.88525 -8.81678 3
    endloop
  endfacet
  facet normal 0 0 1
    outer loop
      vertex -0.246071 -12.3332 3
      vertex -7.05019 -10.1224 3
      vertex -6.38669 -13.5724 3
    endloop
  endfacet
  facet normal -0 0 1
    outer loop
      vertex -7.53464 -11.346 3
      vertex -6.38669 -13.5724 3
      vertex -7.05019 -10.1224 3
    endloop
  endfacet
  facet normal 0 0 1
    outer loop
      vertex -6.38669 -13.5724 3
      vertex -7.53464 -11.346 3
      vertex -8.2795 -12.3712 3
    endloop
  endfacet
  facet normal -0 0 1
    outer loop
      vertex -2.81072 14.7343 3
      vertex -0.573347 13.6078 3
      vertex -0.573347 14.8751 3
    endloop
  endfacet
  facet normal -0 0 1
    outer loop
      vertex -6.38669 13.5724 3
      vertex -0.246071 12.3332 3
      vertex -2.81072 14.7343 3
    endloop
  endfacet
  facet normal 0 0 1
    outer loop
      vertex 0.387916 11.18 3
      vertex -6.88525 8.81678 3
      vertex -0.99312 5.20612 3
    endloop
  endfacet
  facet normal 0 0 1
    outer loop
      vertex -0.99312 5.20612 3
      vertex -6.88525 8.81678 3
      vertex -2.25663 4.79558 3
    endloop
  endfacet
  facet normal -0 0 1
    outer loop
      vertex -7.05019 7.51116 3
      vertex -2.25663 4.79558 3
      vertex -6.88525 8.81678 3
    endloop
  endfacet
  facet normal 0 0 1
    outer loop
      vertex -2.25663 4.79558 3
      vertex -7.05019 7.51116 3
      vertex -3.37835 4.08372 3
    endloop
  endfacet
  facet normal -0 0 1
    outer loop
      vertex -7.53464 6.28757 3
      vertex -3.37835 4.08372 3
      vertex -7.05019 7.51116 3
    endloop
  endfacet
  facet normal 0 0 1
    outer loop
      vertex -3.37835 4.08372 3
      vertex -7.53464 6.28757 3
      vertex -4.28779 3.11526 3
    endloop
  endfacet
  facet normal 0 0 1
    outer loop
      vertex -7.05019 10.1224 3
      vertex -0.246071 12.3332 3
      vertex -6.38669 13.5724 3
    endloop
  endfacet
  facet normal 0 0 1
    outer loop
      vertex 10.7527 -3.08587 3
      vertex 4.64443 -2.55329 3
      vertex 6.25759 -9.2728 3
    endloop
  endfacet
  facet normal 0 0 1
    outer loop
      vertex 10.7527 -3.08587 3
      vertex 6.25759 -9.2728 3
      vertex 7.44835 -9.83313 3
    endloop
  endfacet
  facet normal -0 0 1
    outer loop
      vertex 3.86353 -3.6281 3
      vertex 6.25759 -9.2728 3
      vertex 4.64443 -2.55329 3
    endloop
  endfacet
  facet normal 0 0 1
    outer loop
      vertex 6.25759 -9.2728 3
      vertex 3.86353 -3.6281 3
      vertex 4.9649 -9.02621 3
    endloop
  endfacet
  facet normal -0 0 1
    outer loop
      vertex 2.83988 -4.47494 3
      vertex 4.9649 -9.02621 3
      vertex 3.86353 -3.6281 3
    endloop
  endfacet
  facet normal 0 0 1
    outer loop
      vertex 4.9649 -9.02621 3
      vertex 2.83988 -4.47494 3
      vertex 3.6515 -9.10884 3
    endloop
  endfacet
  facet normal -0 0 1
    outer loop
      vertex 1.63779 -5.0406 3
      vertex 3.6515 -9.10884 3
      vertex 2.83988 -4.47494 3
    endloop
  endfacet
  facet normal 0 0 1
    outer loop
      vertex 3.6515 -9.10884 3
      vertex 1.63779 -5.0406 3
      vertex 2.39991 -9.5155 3
    endloop
  endfacet
  facet normal -0 0 1
    outer loop
      vertex 0.332789 -5.28954 3
      vertex 2.39991 -9.5155 3
      vertex 1.63779 -5.0406 3
    endloop
  endfacet
  facet normal 0 0 1
    outer loop
      vertex 2.39991 -9.5155 3
      vertex 0.332789 -5.28954 3
      vertex 1.28878 -10.2207 3
    endloop
  endfacet
  facet normal 0 0 1
    outer loop
      vertex -0.99312 -5.20612 3
      vertex 1.28878 -10.2207 3
      vertex 0.332789 -5.28954 3
    endloop
  endfacet
  facet normal 0 0 1
    outer loop
      vertex 1.28878 -10.2207 3
      vertex -0.99312 -5.20612 3
      vertex 0.387916 -11.18 3
    endloop
  endfacet
  facet normal 0 0 1
    outer loop
      vertex -2.25663 -4.79558 3
      vertex 0.387916 -11.18 3
      vertex -0.99312 -5.20612 3
    endloop
  endfacet
  facet normal -0 0 1
    outer loop
      vertex -6.88525 -8.81678 3
      vertex 0.387916 -11.18 3
      vertex -2.25663 -4.79558 3
    endloop
  endfacet
  facet normal 0 0 1
    outer loop
      vertex -6.88525 -8.81678 3
      vertex -0.246071 -12.3332 3
      vertex 0.387916 -11.18 3
    endloop
  endfacet
  facet normal 0 -0 1
    outer loop
      vertex -2.81072 -14.7343 3
      vertex -0.246071 -12.3332 3
      vertex -6.38669 -13.5724 3
    endloop
  endfacet
  facet normal 0 0 1
    outer loop
      vertex -0.573347 -13.6078 3
      vertex -2.81072 -14.7343 3
      vertex -0.573347 -14.8751 3
    endloop
  endfacet
  facet normal 0 0 1
    outer loop
      vertex -6.88525 -8.81678 3
      vertex -2.25663 -4.79558 3
      vertex -3.37835 -4.08372 3
    endloop
  endfacet
  facet normal 0 0 1
    outer loop
      vertex -6.88525 -8.81678 3
      vertex -3.37835 -4.08372 3
      vertex -4.28779 -3.11526 3
    endloop
  endfacet
  facet normal 0 0 1
    outer loop
      vertex -6.88525 -8.81678 3
      vertex -4.28779 -3.11526 3
      vertex -4.92781 -1.95106 3
    endloop
  endfacet
  facet normal 0 0 1
    outer loop
      vertex -6.88525 -8.81678 3
      vertex -4.92781 -1.95106 3
      vertex -5.25821 -0.664266 3
    endloop
  endfacet
  facet normal 0 0 1
    outer loop
      vertex -0.246071 -12.3332 3
      vertex -2.81072 -14.7343 3
      vertex -0.573347 -13.6078 3
    endloop
  endfacet
  facet normal -0 0 1
    outer loop
      vertex -8.30817 5.22291 3
      vertex -4.28779 3.11526 3
      vertex -7.53464 6.28757 3
    endloop
  endfacet
  facet normal 0 0 1
    outer loop
      vertex -4.28779 3.11526 3
      vertex -8.30817 5.22291 3
      vertex -4.92781 1.95106 3
    endloop
  endfacet
  facet normal 0 0 1
    outer loop
      vertex -0.246071 12.3332 3
      vertex -7.05019 10.1224 3
      vertex -6.88525 8.81678 3
    endloop
  endfacet
  facet normal 0 0 1
    outer loop
      vertex -6.38669 13.5724 3
      vertex -7.53464 11.346 3
      vertex -7.05019 10.1224 3
    endloop
  endfacet
  facet normal 0 -0 1
    outer loop
      vertex -7.53464 11.346 3
      vertex -6.38669 13.5724 3
      vertex -8.2795 12.3712 3
    endloop
  endfacet
  facet normal 0.809017 0.587786 0
    outer loop
      vertex 4.64443 2.55329 5.5
      vertex 3.86353 3.6281 3
      vertex 3.86353 3.6281 5.5
    endloop
  endfacet
  facet normal 0.809017 0.587786 0
    outer loop
      vertex 3.86353 3.6281 3
      vertex 4.64443 2.55329 5.5
      vertex 4.64443 2.55329 3
    endloop
  endfacet
  facet normal 0.187381 0.982287 -0
    outer loop
      vertex 1.63779 5.0406 3
      vertex 0.332789 5.28954 5.5
      vertex 1.63779 5.0406 5.5
    endloop
  endfacet
  facet normal 0.187381 0.982287 0
    outer loop
      vertex 0.332789 5.28954 5.5
      vertex 1.63779 5.0406 3
      vertex 0.332789 5.28954 3
    endloop
  endfacet
  facet normal 0.425779 0.904827 -0
    outer loop
      vertex 2.83988 4.47494 3
      vertex 1.63779 5.0406 5.5
      vertex 2.83988 4.47494 5.5
    endloop
  endfacet
  facet normal 0.425779 0.904827 0
    outer loop
      vertex 1.63779 5.0406 5.5
      vertex 2.83988 4.47494 3
      vertex 1.63779 5.0406 3
    endloop
  endfacet
  facet normal -0.876307 0.481754 0
    outer loop
      vertex -4.92781 1.95106 3
      vertex -4.28779 3.11526 5.5
      vertex -4.28779 3.11526 3
    endloop
  endfacet
  facet normal -0.876307 0.481754 0
    outer loop
      vertex -4.28779 3.11526 5.5
      vertex -4.92781 1.95106 3
      vertex -4.92781 1.95106 5.5
    endloop
  endfacet
  facet normal -0.968583 0.24869 0
    outer loop
      vertex -5.25821 0.664266 3
      vertex -4.92781 1.95106 5.5
      vertex -4.92781 1.95106 3
    endloop
  endfacet
  facet normal -0.968583 0.24869 0
    outer loop
      vertex -4.92781 1.95106 5.5
      vertex -5.25821 0.664266 3
      vertex -5.25821 0.664266 5.5
    endloop
  endfacet
  facet normal -0.535827 0.844328 0
    outer loop
      vertex -2.25663 4.79558 3
      vertex -3.37835 4.08372 5.5
      vertex -2.25663 4.79558 5.5
    endloop
  endfacet
  facet normal -0.535827 0.844328 0
    outer loop
      vertex -3.37835 4.08372 5.5
      vertex -2.25663 4.79558 3
      vertex -3.37835 4.08372 3
    endloop
  endfacet
  facet normal 0.992115 -0.125333 0
    outer loop
      vertex 5.13349 -1.31806 5.5
      vertex 5.3 0 3
      vertex 5.3 0 5.5
    endloop
  endfacet
  facet normal 0.992115 -0.125333 0
    outer loop
      vertex 5.3 0 3
      vertex 5.13349 -1.31806 5.5
      vertex 5.13349 -1.31806 3
    endloop
  endfacet
  facet normal 0.187381 -0.982287 0
    outer loop
      vertex 0.332789 -5.28954 3
      vertex 1.63779 -5.0406 5.5
      vertex 0.332789 -5.28954 5.5
    endloop
  endfacet
  facet normal 0.187381 -0.982287 0
    outer loop
      vertex 1.63779 -5.0406 5.5
      vertex 0.332789 -5.28954 3
      vertex 1.63779 -5.0406 3
    endloop
  endfacet
  facet normal 0.637424 -0.770513 0
    outer loop
      vertex 2.83988 -4.47494 3
      vertex 3.86353 -3.6281 5.5
      vertex 2.83988 -4.47494 5.5
    endloop
  endfacet
  facet normal 0.637424 -0.770513 0
    outer loop
      vertex 3.86353 -3.6281 5.5
      vertex 2.83988 -4.47494 3
      vertex 3.86353 -3.6281 3
    endloop
  endfacet
  facet normal -0.535827 -0.844328 0
    outer loop
      vertex -3.37835 -4.08372 3
      vertex -2.25663 -4.79558 5.5
      vertex -3.37835 -4.08372 5.5
    endloop
  endfacet
  facet normal -0.535827 -0.844328 -0
    outer loop
      vertex -2.25663 -4.79558 5.5
      vertex -3.37835 -4.08372 3
      vertex -2.25663 -4.79558 3
    endloop
  endfacet
  facet normal -0.0627903 -0.998027 0
    outer loop
      vertex -0.99312 -5.20612 3
      vertex 0.332789 -5.28954 5.5
      vertex -0.99312 -5.20612 5.5
    endloop
  endfacet
  facet normal -0.0627903 -0.998027 -0
    outer loop
      vertex 0.332789 -5.28954 5.5
      vertex -0.99312 -5.20612 3
      vertex 0.332789 -5.28954 3
    endloop
  endfacet
  facet normal -0.728969 -0.684547 0
    outer loop
      vertex -3.37835 -4.08372 3
      vertex -4.28779 -3.11526 5.5
      vertex -4.28779 -3.11526 3
    endloop
  endfacet
  facet normal -0.728969 -0.684547 0
    outer loop
      vertex -4.28779 -3.11526 5.5
      vertex -3.37835 -4.08372 3
      vertex -3.37835 -4.08372 5.5
    endloop
  endfacet
  facet normal -0.968583 -0.24869 0
    outer loop
      vertex -4.92781 -1.95106 3
      vertex -5.25821 -0.664266 5.5
      vertex -5.25821 -0.664266 3
    endloop
  endfacet
  facet normal -0.968583 -0.24869 0
    outer loop
      vertex -5.25821 -0.664266 5.5
      vertex -4.92781 -1.95106 3
      vertex -4.92781 -1.95106 5.5
    endloop
  endfacet
  facet normal 0.425779 -0.904827 0
    outer loop
      vertex 1.63779 -5.0406 3
      vertex 2.83988 -4.47494 5.5
      vertex 1.63779 -5.0406 5.5
    endloop
  endfacet
  facet normal 0.425779 -0.904827 0
    outer loop
      vertex 2.83988 -4.47494 5.5
      vertex 1.63779 -5.0406 3
      vertex 2.83988 -4.47494 3
    endloop
  endfacet
  facet normal -0.309017 -0.951056 0
    outer loop
      vertex -2.25663 -4.79558 3
      vertex -0.99312 -5.20612 5.5
      vertex -2.25663 -4.79558 5.5
    endloop
  endfacet
  facet normal -0.309017 -0.951056 -0
    outer loop
      vertex -0.99312 -5.20612 5.5
      vertex -2.25663 -4.79558 3
      vertex -0.99312 -5.20612 3
    endloop
  endfacet
  facet normal -0.876307 -0.481754 0
    outer loop
      vertex -4.28779 -3.11526 3
      vertex -4.92781 -1.95106 5.5
      vertex -4.92781 -1.95106 3
    endloop
  endfacet
  facet normal -0.876307 -0.481754 0
    outer loop
      vertex -4.92781 -1.95106 5.5
      vertex -4.28779 -3.11526 3
      vertex -4.28779 -3.11526 5.5
    endloop
  endfacet
  facet normal -1 0 0
    outer loop
      vertex -14.8817 -1.88 0
      vertex -14.8817 1.88 3
      vertex -14.8817 1.88 0
    endloop
  endfacet
  facet normal -1 -0 0
    outer loop
      vertex -14.8817 1.88 3
      vertex -14.8817 -1.88 0
      vertex -14.8817 -1.88 3
    endloop
  endfacet
  facet normal -0.0627908 0.998027 0
    outer loop
      vertex -0.573347 14.8751 0
      vertex -2.81072 14.7343 3
      vertex -0.573347 14.8751 3
    endloop
  endfacet
  facet normal -0.0627908 0.998027 0
    outer loop
      vertex -2.81072 14.7343 3
      vertex -0.573347 14.8751 0
      vertex -2.81072 14.7343 0
    endloop
  endfacet
  facet normal 0.637424 0.770513 -0
    outer loop
      vertex 10.9345 10.2682 0
      vertex 9.2072 11.6972 3
      vertex 10.9345 10.2682 3
    endloop
  endfacet
  facet normal 0.637424 0.770513 0
    outer loop
      vertex 9.2072 11.6972 3
      vertex 10.9345 10.2682 0
      vertex 9.2072 11.6972 0
    endloop
  endfacet
  facet normal 0.929777 0.368124 0
    outer loop
      vertex 13.9699 5.14193 3
      vertex 13.1446 7.22631 0
      vertex 13.1446 7.22631 3
    endloop
  endfacet
  facet normal 0.929777 0.368124 0
    outer loop
      vertex 13.1446 7.22631 0
      vertex 13.9699 5.14193 3
      vertex 13.9699 5.14193 0
    endloop
  endfacet
  facet normal -0.535827 0.844328 0
    outer loop
      vertex -6.38669 13.5724 0
      vertex -8.2795 12.3712 3
      vertex -6.38669 13.5724 3
    endloop
  endfacet
  facet normal -0.535827 0.844328 0
    outer loop
      vertex -8.2795 12.3712 3
      vertex -6.38669 13.5724 0
      vertex -8.2795 12.3712 0
    endloop
  endfacet
  facet normal 0.809017 -0.587785 0
    outer loop
      vertex 10.9345 -10.2682 3
      vertex 13.1446 -7.22631 0
      vertex 13.1446 -7.22631 3
    endloop
  endfacet
  facet normal 0.809017 -0.587785 0
    outer loop
      vertex 13.1446 -7.22631 0
      vertex 10.9345 -10.2682 3
      vertex 10.9345 -10.2682 0
    endloop
  endfacet
  facet normal 0.929777 -0.368124 0
    outer loop
      vertex 13.1446 -7.22631 3
      vertex 13.9699 -5.14193 0
      vertex 13.9699 -5.14193 3
    endloop
  endfacet
  facet normal 0.929777 -0.368124 0
    outer loop
      vertex 13.9699 -5.14193 0
      vertex 13.1446 -7.22631 3
      vertex 13.1446 -7.22631 0
    endloop
  endfacet
  facet normal 0 0 -1
    outer loop
      vertex 13.1446 -7.22631 0
      vertex 12.7647 -4.75034 0
      vertex 13.9699 -5.14193 0
    endloop
  endfacet
  facet normal 0 0 -1
    outer loop
      vertex 13.1446 -7.22631 0
      vertex 11.6535 -4.04519 0
      vertex 12.7647 -4.75034 0
    endloop
  endfacet
  facet normal 0 0 -1
    outer loop
      vertex 10.9345 -10.2682 0
      vertex 11.6535 -4.04519 0
      vertex 13.1446 -7.22631 0
    endloop
  endfacet
  facet normal 0 0 -1
    outer loop
      vertex 7.44835 -9.83313 0
      vertex 11.6535 -4.04519 0
      vertex 10.9345 -10.2682 0
    endloop
  endfacet
  facet normal -0 0 -1
    outer loop
      vertex 11.6535 -4.04519 0
      vertex 7.44835 -9.83313 0
      vertex 10.7527 -3.08587 0
    endloop
  endfacet
  facet normal 0 0 -1
    outer loop
      vertex 6.25759 -9.2728 0
      vertex 10.7527 -3.08587 0
      vertex 7.44835 -9.83313 0
    endloop
  endfacet
  facet normal 0 0 -1
    outer loop
      vertex 7.44835 -9.83313 0
      vertex 10.9345 -10.2682 0
      vertex 8.46234 -10.672 0
    endloop
  endfacet
  facet normal 0 0 -1
    outer loop
      vertex 8.46234 -10.672 0
      vertex 10.9345 -10.2682 0
      vertex 9.2072 -11.6972 0
    endloop
  endfacet
  facet normal 0 0 -1
    outer loop
      vertex 12.7647 4.75034 0
      vertex 13.1446 7.22631 0
      vertex 13.9699 5.14193 0
    endloop
  endfacet
  facet normal 0 0 -1
    outer loop
      vertex 11.6535 4.04519 0
      vertex 13.1446 7.22631 0
      vertex 12.7647 4.75034 0
    endloop
  endfacet
  facet normal 0 0 -1
    outer loop
      vertex 11.6535 4.04519 0
      vertex 10.9345 10.2682 0
      vertex 13.1446 7.22631 0
    endloop
  endfacet
  facet normal 0 0 -1
    outer loop
      vertex 7.44835 9.83313 0
      vertex 11.6535 4.04519 0
      vertex 10.7527 3.08587 0
    endloop
  endfacet
  facet normal 0 0 -1
    outer loop
      vertex 6.25759 9.2728 0
      vertex 10.7527 3.08587 0
      vertex 10.1187 1.93265 0
    endloop
  endfacet
  facet normal 0 0 -1
    outer loop
      vertex 3.23316 0 0
      vertex 10.1187 1.93265 0
      vertex 9.7914 0.657999 0
    endloop
  endfacet
  facet normal 0 0 -1
    outer loop
      vertex 11.6535 4.04519 0
      vertex 7.44835 9.83313 0
      vertex 10.9345 10.2682 0
    endloop
  endfacet
  facet normal -0 0 -1
    outer loop
      vertex 10.7527 -3.08587 0
      vertex 6.25759 -9.2728 0
      vertex 10.1187 -1.93265 0
    endloop
  endfacet
  facet normal 0 0 -1
    outer loop
      vertex 4.9649 -9.02621 0
      vertex 10.1187 -1.93265 0
      vertex 6.25759 -9.2728 0
    endloop
  endfacet
  facet normal 0 0 -1
    outer loop
      vertex 10.9345 10.2682 0
      vertex 8.46234 10.672 0
      vertex 9.2072 11.6972 0
    endloop
  endfacet
  facet normal 0 0 -1
    outer loop
      vertex 1.61658 -2.8 0
      vertex 10.1187 -1.93265 0
      vertex 4.9649 -9.02621 0
    endloop
  endfacet
  facet normal -0 0 -1
    outer loop
      vertex 10.1187 1.93265 0
      vertex 3.23316 0 0
      vertex 1.61658 2.8 0
    endloop
  endfacet
  facet normal 0 0 -1
    outer loop
      vertex 9.7914 -0.657999 0
      vertex 3.23316 0 0
      vertex 9.7914 0.657999 0
    endloop
  endfacet
  facet normal -0 0 -1
    outer loop
      vertex 10.9345 10.2682 0
      vertex 7.44835 9.83313 0
      vertex 8.46234 10.672 0
    endloop
  endfacet
  facet normal 0 -0 -1
    outer loop
      vertex 3.23316 0 0
      vertex 10.1187 -1.93265 0
      vertex 1.61658 -2.8 0
    endloop
  endfacet
  facet normal 0 0 -1
    outer loop
      vertex 10.7527 3.08587 0
      vertex 6.25759 9.2728 0
      vertex 7.44835 9.83313 0
    endloop
  endfacet
  facet normal 0 0 -1
    outer loop
      vertex 1.61658 -2.8 0
      vertex 4.9649 -9.02621 0
      vertex 3.6515 -9.10884 0
    endloop
  endfacet
  facet normal 0 0 -1
    outer loop
      vertex 10.1187 1.93265 0
      vertex 1.61658 2.8 0
      vertex 4.9649 9.02621 0
    endloop
  endfacet
  facet normal 0 0 -1
    outer loop
      vertex 10.1187 1.93265 0
      vertex 4.9649 9.02621 0
      vertex 6.25759 9.2728 0
    endloop
  endfacet
  facet normal 0 0 -1
    outer loop
      vertex 1.61658 -2.8 0
      vertex 3.6515 -9.10884 0
      vertex 2.39991 -9.5155 0
    endloop
  endfacet
  facet normal 0 0 -1
    outer loop
      vertex 10.1187 -1.93265 0
      vertex 3.23316 0 0
      vertex 9.7914 -0.657999 0
    endloop
  endfacet
  facet normal 0 0 -1
    outer loop
      vertex -1.61658 -2.8 0
      vertex 2.39991 -9.5155 0
      vertex 1.28878 -10.2207 0
    endloop
  endfacet
  facet normal 0 0 -1
    outer loop
      vertex -7.05019 -7.51116 0
      vertex 1.28878 -10.2207 0
      vertex 0.387916 -11.18 0
    endloop
  endfacet
  facet normal 0 0 -1
    outer loop
      vertex -6.88525 -8.81678 0
      vertex 0.387916 -11.18 0
      vertex -0.246071 -12.3332 0
    endloop
  endfacet
  facet normal 0 0 -1
    outer loop
      vertex -2.81072 -14.7343 0
      vertex -0.246071 -12.3332 0
      vertex -0.573347 -13.6078 0
    endloop
  endfacet
  facet normal 0 0 -1
    outer loop
      vertex 2.39991 -9.5155 0
      vertex -1.61658 -2.8 0
      vertex 1.61658 -2.8 0
    endloop
  endfacet
  facet normal 0 0 -1
    outer loop
      vertex -8.30817 -5.22291 0
      vertex -1.61658 -2.8 0
      vertex -7.53464 -6.28757 0
    endloop
  endfacet
  facet normal 0 0 -1
    outer loop
      vertex -3.23316 0 0
      vertex -7.05019 7.51116 0
      vertex -6.88525 8.81678 0
    endloop
  endfacet
  facet normal -0 0 -1
    outer loop
      vertex -1.61658 -2.8 0
      vertex -8.30817 -5.22291 0
      vertex -3.23316 0 0
    endloop
  endfacet
  facet normal 0 0 -1
    outer loop
      vertex -3.23316 0 0
      vertex -7.53464 6.28757 0
      vertex -7.05019 7.51116 0
    endloop
  endfacet
  facet normal 0 0 -1
    outer loop
      vertex -9.32216 -4.38406 0
      vertex -3.23316 0 0
      vertex -8.30817 -5.22291 0
    endloop
  endfacet
  facet normal 0 0 -1
    outer loop
      vertex -3.23316 0 0
      vertex -8.30817 5.22291 0
      vertex -7.53464 6.28757 0
    endloop
  endfacet
  facet normal 0 0 -1
    outer loop
      vertex -9.32216 4.38406 0
      vertex -3.23316 0 0
      vertex -9.32216 -4.38406 0
    endloop
  endfacet
  facet normal 0 0 -1
    outer loop
      vertex -3.23316 0 0
      vertex -9.32216 4.38406 0
      vertex -8.30817 5.22291 0
    endloop
  endfacet
  facet normal 0 0 -1
    outer loop
      vertex -10.5129 -3.82373 0
      vertex -9.32216 4.38406 0
      vertex -9.32216 -4.38406 0
    endloop
  endfacet
  facet normal 0 0 -1
    outer loop
      vertex -10.5129 -3.82373 0
      vertex -10.5129 3.82373 0
      vertex -9.32216 4.38406 0
    endloop
  endfacet
  facet normal 0 0 -1
    outer loop
      vertex -11.8056 -3.57714 0
      vertex -10.5129 3.82373 0
      vertex -10.5129 -3.82373 0
    endloop
  endfacet
  facet normal 0 0 -1
    outer loop
      vertex -11.8056 -3.57714 0
      vertex -11.8056 3.57714 0
      vertex -10.5129 3.82373 0
    endloop
  endfacet
  facet normal 0 0 -1
    outer loop
      vertex -14.8817 -1.88 0
      vertex -11.8056 -3.57714 0
      vertex -13.119 -3.65977 0
    endloop
  endfacet
  facet normal 0 0 -1
    outer loop
      vertex -11.8056 -3.57714 0
      vertex -14.8817 -1.88 0
      vertex -11.8056 3.57714 0
    endloop
  endfacet
  facet normal 0 0 -1
    outer loop
      vertex -14.8817 -1.88 0
      vertex -13.119 -3.65977 0
      vertex -14.3242 -4.05136 0
    endloop
  endfacet
  facet normal 0 0 -1
    outer loop
      vertex -14.8817 1.88 0
      vertex -11.8056 3.57714 0
      vertex -14.8817 -1.88 0
    endloop
  endfacet
  facet normal -0 0 -1
    outer loop
      vertex -11.8056 3.57714 0
      vertex -14.8817 1.88 0
      vertex -13.119 3.65977 0
    endloop
  endfacet
  facet normal -0 0 -1
    outer loop
      vertex -13.119 3.65977 0
      vertex -14.8817 1.88 0
      vertex -14.3242 4.05136 0
    endloop
  endfacet
  facet normal 0 0 -1
    outer loop
      vertex -7.05019 10.1224 0
      vertex -0.246071 12.3332 0
      vertex -6.88525 8.81678 0
    endloop
  endfacet
  facet normal -0 0 -1
    outer loop
      vertex -0.246071 12.3332 0
      vertex -7.05019 10.1224 0
      vertex -6.38669 13.5724 0
    endloop
  endfacet
  facet normal 0 0 -1
    outer loop
      vertex -7.53464 11.346 0
      vertex -6.38669 13.5724 0
      vertex -7.05019 10.1224 0
    endloop
  endfacet
  facet normal 0 0 -1
    outer loop
      vertex -6.38669 13.5724 0
      vertex -7.53464 11.346 0
      vertex -8.2795 12.3712 0
    endloop
  endfacet
  facet normal 0 0 -1
    outer loop
      vertex -2.81072 -14.7343 0
      vertex -0.573347 -13.6078 0
      vertex -0.573347 -14.8751 0
    endloop
  endfacet
  facet normal -0 0 -1
    outer loop
      vertex -0.246071 -12.3332 0
      vertex -2.81072 -14.7343 0
      vertex -7.05019 -10.1224 0
    endloop
  endfacet
  facet normal 0 0 -1
    outer loop
      vertex -7.05019 -7.51116 0
      vertex 0.387916 -11.18 0
      vertex -6.88525 -8.81678 0
    endloop
  endfacet
  facet normal 0 0 -1
    outer loop
      vertex -7.05019 -10.1224 0
      vertex -2.81072 -14.7343 0
      vertex -6.38669 -13.5724 0
    endloop
  endfacet
  facet normal -0 0 -1
    outer loop
      vertex 4.9649 9.02621 0
      vertex 1.61658 2.8 0
      vertex 3.6515 9.10884 0
    endloop
  endfacet
  facet normal -0 0 -1
    outer loop
      vertex 3.6515 9.10884 0
      vertex 1.61658 2.8 0
      vertex 2.39991 9.5155 0
    endloop
  endfacet
  facet normal 0 0 -1
    outer loop
      vertex -1.61658 2.8 0
      vertex 2.39991 9.5155 0
      vertex 1.61658 2.8 0
    endloop
  endfacet
  facet normal -0 0 -1
    outer loop
      vertex 2.39991 9.5155 0
      vertex -1.61658 2.8 0
      vertex 1.28878 10.2207 0
    endloop
  endfacet
  facet normal 0 0 -1
    outer loop
      vertex -6.88525 8.81678 0
      vertex 1.28878 10.2207 0
      vertex -1.61658 2.8 0
    endloop
  endfacet
  facet normal -0 0 -1
    outer loop
      vertex 1.28878 10.2207 0
      vertex -6.88525 8.81678 0
      vertex 0.387916 11.18 0
    endloop
  endfacet
  facet normal 0 0 -1
    outer loop
      vertex -6.88525 8.81678 0
      vertex -0.246071 12.3332 0
      vertex 0.387916 11.18 0
    endloop
  endfacet
  facet normal 0 -0 -1
    outer loop
      vertex -2.81072 14.7343 0
      vertex -0.246071 12.3332 0
      vertex -6.38669 13.5724 0
    endloop
  endfacet
  facet normal 0 0 -1
    outer loop
      vertex -0.573347 13.6078 0
      vertex -2.81072 14.7343 0
      vertex -0.573347 14.8751 0
    endloop
  endfacet
  facet normal 0 0 -1
    outer loop
      vertex -6.88525 8.81678 0
      vertex -1.61658 2.8 0
      vertex -3.23316 0 0
    endloop
  endfacet
  facet normal 0 0 -1
    outer loop
      vertex 1.28878 -10.2207 0
      vertex -7.05019 -7.51116 0
      vertex -1.61658 -2.8 0
    endloop
  endfacet
  facet normal 0 0 -1
    outer loop
      vertex -7.53464 -6.28757 0
      vertex -1.61658 -2.8 0
      vertex -7.05019 -7.51116 0
    endloop
  endfacet
  facet normal 0 0 -1
    outer loop
      vertex -0.246071 12.3332 0
      vertex -2.81072 14.7343 0
      vertex -0.573347 13.6078 0
    endloop
  endfacet
  facet normal 0 0 -1
    outer loop
      vertex -0.246071 -12.3332 0
      vertex -7.05019 -10.1224 0
      vertex -6.88525 -8.81678 0
    endloop
  endfacet
  facet normal 0 0 -1
    outer loop
      vertex -6.38669 -13.5724 0
      vertex -7.53464 -11.346 0
      vertex -7.05019 -10.1224 0
    endloop
  endfacet
  facet normal 0 -0 -1
    outer loop
      vertex -7.53464 -11.346 0
      vertex -6.38669 -13.5724 0
      vertex -8.2795 -12.3712 0
    endloop
  endfacet
  facet normal 0.809017 0.587785 0
    outer loop
      vertex 13.1446 7.22631 3
      vertex 10.9345 10.2682 0
      vertex 10.9345 10.2682 3
    endloop
  endfacet
  facet normal 0.809017 0.587785 0
    outer loop
      vertex 10.9345 10.2682 0
      vertex 13.1446 7.22631 3
      vertex 13.1446 7.22631 0
    endloop
  endfacet
  facet normal -0.968583 0.24869 0
    outer loop
      vertex -14.8817 1.88 0
      vertex -14.3242 4.05136 3
      vertex -14.3242 4.05136 0
    endloop
  endfacet
  facet normal -0.968583 0.24869 0
    outer loop
      vertex -14.3242 4.05136 3
      vertex -14.8817 1.88 0
      vertex -14.8817 1.88 3
    endloop
  endfacet
  facet normal -0.309017 0.951056 0
    outer loop
      vertex -2.81072 14.7343 0
      vertex -6.38669 13.5724 3
      vertex -2.81072 14.7343 3
    endloop
  endfacet
  facet normal -0.309017 0.951056 0
    outer loop
      vertex -6.38669 13.5724 3
      vertex -2.81072 14.7343 0
      vertex -6.38669 13.5724 0
    endloop
  endfacet
  facet normal 0.637424 -0.770513 0
    outer loop
      vertex 9.2072 -11.6972 0
      vertex 10.9345 -10.2682 3
      vertex 9.2072 -11.6972 3
    endloop
  endfacet
  facet normal 0.637424 -0.770513 0
    outer loop
      vertex 10.9345 -10.2682 3
      vertex 9.2072 -11.6972 0
      vertex 10.9345 -10.2682 0
    endloop
  endfacet
  facet normal -0.535827 -0.844328 0
    outer loop
      vertex -8.2795 -12.3712 0
      vertex -6.38669 -13.5724 3
      vertex -8.2795 -12.3712 3
    endloop
  endfacet
  facet normal -0.535827 -0.844328 -0
    outer loop
      vertex -6.38669 -13.5724 3
      vertex -8.2795 -12.3712 0
      vertex -6.38669 -13.5724 0
    endloop
  endfacet
  facet normal -0.0627908 -0.998027 0
    outer loop
      vertex -2.81072 -14.7343 0
      vertex -0.573347 -14.8751 3
      vertex -2.81072 -14.7343 3
    endloop
  endfacet
  facet normal -0.0627908 -0.998027 -0
    outer loop
      vertex -0.573347 -14.8751 3
      vertex -2.81072 -14.7343 0
      vertex -0.573347 -14.8751 0
    endloop
  endfacet
  facet normal -0.968583 -0.24869 0
    outer loop
      vertex -14.3242 -4.05136 0
      vertex -14.8817 -1.88 3
      vertex -14.8817 -1.88 0
    endloop
  endfacet
  facet normal -0.968583 -0.24869 0
    outer loop
      vertex -14.8817 -1.88 3
      vertex -14.3242 -4.05136 0
      vertex -14.3242 -4.05136 3
    endloop
  endfacet
  facet normal -0.309017 -0.951056 0
    outer loop
      vertex -6.38669 -13.5724 0
      vertex -2.81072 -14.7343 3
      vertex -6.38669 -13.5724 3
    endloop
  endfacet
  facet normal -0.309017 -0.951056 -0
    outer loop
      vertex -2.81072 -14.7343 3
      vertex -6.38669 -13.5724 0
      vertex -2.81072 -14.7343 0
    endloop
  endfacet
  facet normal 0 -1 0
    outer loop
      vertex -1.61658 2.8 0
      vertex 1.61658 2.8 5.5
      vertex -1.61658 2.8 5.5
    endloop
  endfacet
  facet normal 0 -1 -0
    outer loop
      vertex 1.61658 2.8 5.5
      vertex -1.61658 2.8 0
      vertex 1.61658 2.8 0
    endloop
  endfacet
  facet normal 0 1 -0
    outer loop
      vertex 1.61658 -2.8 0
      vertex -1.61658 -2.8 5.5
      vertex 1.61658 -2.8 5.5
    endloop
  endfacet
  facet normal 0 1 0
    outer loop
      vertex -1.61658 -2.8 5.5
      vertex 1.61658 -2.8 0
      vertex -1.61658 -2.8 0
    endloop
  endfacet
  facet normal -0.866025 -0.5 0
    outer loop
      vertex 3.23316 0 0
      vertex 1.61658 2.8 5.5
      vertex 1.61658 2.8 0
    endloop
  endfacet
  facet normal -0.866025 -0.5 0
    outer loop
      vertex 1.61658 2.8 5.5
      vertex 3.23316 0 0
      vertex 3.23316 0 5.5
    endloop
  endfacet
  facet normal 0.866025 0.5 0
    outer loop
      vertex -1.61658 -2.8 5.5
      vertex -3.23316 0 0
      vertex -3.23316 0 5.5
    endloop
  endfacet
  facet normal 0.866025 0.5 0
    outer loop
      vertex -3.23316 0 0
      vertex -1.61658 -2.8 5.5
      vertex -1.61658 -2.8 0
    endloop
  endfacet
  facet normal 0.866025 -0.5 0
    outer loop
      vertex -3.23316 0 5.5
      vertex -1.61658 2.8 0
      vertex -1.61658 2.8 5.5
    endloop
  endfacet
  facet normal 0.866025 -0.5 0
    outer loop
      vertex -1.61658 2.8 0
      vertex -3.23316 0 5.5
      vertex -3.23316 0 0
    endloop
  endfacet
  facet normal -0.866025 0.5 0
    outer loop
      vertex 1.61658 -2.8 0
      vertex 3.23316 0 5.5
      vertex 3.23316 0 0
    endloop
  endfacet
  facet normal -0.866025 0.5 0
    outer loop
      vertex 3.23316 0 5.5
      vertex 1.61658 -2.8 0
      vertex 1.61658 -2.8 5.5
    endloop
  endfacet
  facet normal 1 -0 0
    outer loop
      vertex 9.7914 -0.657999 3
      vertex 9.7914 0.657999 0
      vertex 9.7914 0.657999 3
    endloop
  endfacet
  facet normal 1 0 0
    outer loop
      vertex 9.7914 0.657999 0
      vertex 9.7914 -0.657999 3
      vertex 9.7914 -0.657999 0
    endloop
  endfacet
  facet normal 0.728969 0.684547 0
    outer loop
      vertex 11.6535 -4.04519 3
      vertex 10.7527 -3.08587 0
      vertex 10.7527 -3.08587 3
    endloop
  endfacet
  facet normal 0.728969 0.684547 0
    outer loop
      vertex 10.7527 -3.08587 0
      vertex 11.6535 -4.04519 3
      vertex 11.6535 -4.04519 0
    endloop
  endfacet
  facet normal 0.728969 -0.684547 0
    outer loop
      vertex 10.7527 3.08587 3
      vertex 11.6535 4.04519 0
      vertex 11.6535 4.04519 3
    endloop
  endfacet
  facet normal 0.728969 -0.684547 0
    outer loop
      vertex 11.6535 4.04519 0
      vertex 10.7527 3.08587 3
      vertex 10.7527 3.08587 0
    endloop
  endfacet
  facet normal 0.309017 -0.951057 0
    outer loop
      vertex 12.7647 4.75034 0
      vertex 13.9699 5.14193 3
      vertex 12.7647 4.75034 3
    endloop
  endfacet
  facet normal 0.309017 -0.951057 0
    outer loop
      vertex 13.9699 5.14193 3
      vertex 12.7647 4.75034 0
      vertex 13.9699 5.14193 0
    endloop
  endfacet
  facet normal 0.535827 0.844328 -0
    outer loop
      vertex 12.7647 -4.75034 0
      vertex 11.6535 -4.04519 3
      vertex 12.7647 -4.75034 3
    endloop
  endfacet
  facet normal 0.535827 0.844328 0
    outer loop
      vertex 11.6535 -4.04519 3
      vertex 12.7647 -4.75034 0
      vertex 11.6535 -4.04519 0
    endloop
  endfacet
  facet normal 0.968583 0.24869 0
    outer loop
      vertex 10.1187 -1.93265 3
      vertex 9.7914 -0.657999 0
      vertex 9.7914 -0.657999 3
    endloop
  endfacet
  facet normal 0.968583 0.24869 0
    outer loop
      vertex 9.7914 -0.657999 0
      vertex 10.1187 -1.93265 3
      vertex 10.1187 -1.93265 0
    endloop
  endfacet
  facet normal 0.876307 -0.481754 0
    outer loop
      vertex 10.1187 1.93265 3
      vertex 10.7527 3.08587 0
      vertex 10.7527 3.08587 3
    endloop
  endfacet
  facet normal 0.876307 -0.481754 0
    outer loop
      vertex 10.7527 3.08587 0
      vertex 10.1187 1.93265 3
      vertex 10.1187 1.93265 0
    endloop
  endfacet
  facet normal 0.968583 -0.24869 0
    outer loop
      vertex 9.7914 0.657999 3
      vertex 10.1187 1.93265 0
      vertex 10.1187 1.93265 3
    endloop
  endfacet
  facet normal 0.968583 -0.24869 0
    outer loop
      vertex 10.1187 1.93265 0
      vertex 9.7914 0.657999 3
      vertex 9.7914 0.657999 0
    endloop
  endfacet
  facet normal 0.535827 -0.844328 0
    outer loop
      vertex 11.6535 4.04519 0
      vertex 12.7647 4.75034 3
      vertex 11.6535 4.04519 3
    endloop
  endfacet
  facet normal 0.535827 -0.844328 0
    outer loop
      vertex 12.7647 4.75034 3
      vertex 11.6535 4.04519 0
      vertex 12.7647 4.75034 0
    endloop
  endfacet
  facet normal 0.309017 0.951057 -0
    outer loop
      vertex 13.9699 -5.14193 0
      vertex 12.7647 -4.75034 3
      vertex 13.9699 -5.14193 3
    endloop
  endfacet
  facet normal 0.309017 0.951057 0
    outer loop
      vertex 12.7647 -4.75034 3
      vertex 13.9699 -5.14193 0
      vertex 12.7647 -4.75034 0
    endloop
  endfacet
  facet normal 0.876307 0.481754 0
    outer loop
      vertex 10.7527 -3.08587 3
      vertex 10.1187 -1.93265 0
      vertex 10.1187 -1.93265 3
    endloop
  endfacet
  facet normal 0.876307 0.481754 0
    outer loop
      vertex 10.1187 -1.93265 0
      vertex 10.7527 -3.08587 3
      vertex 10.7527 -3.08587 0
    endloop
  endfacet
  facet normal 0.876307 0.481753 0
    outer loop
      vertex 0.387916 11.18 3
      vertex -0.246071 12.3332 0
      vertex -0.246071 12.3332 3
    endloop
  endfacet
  facet normal 0.876307 0.481753 0
    outer loop
      vertex -0.246071 12.3332 0
      vertex 0.387916 11.18 3
      vertex 0.387916 11.18 0
    endloop
  endfacet
  facet normal 1 -0 0
    outer loop
      vertex -0.573347 13.6078 3
      vertex -0.573347 14.8751 0
      vertex -0.573347 14.8751 3
    endloop
  endfacet
  facet normal 1 0 0
    outer loop
      vertex -0.573347 14.8751 0
      vertex -0.573347 13.6078 3
      vertex -0.573347 13.6078 0
    endloop
  endfacet
  facet normal 0.728969 0.684547 0
    outer loop
      vertex 1.28878 10.2207 3
      vertex 0.387916 11.18 0
      vertex 0.387916 11.18 3
    endloop
  endfacet
  facet normal 0.728969 0.684547 0
    outer loop
      vertex 0.387916 11.18 0
      vertex 1.28878 10.2207 3
      vertex 1.28878 10.2207 0
    endloop
  endfacet
  facet normal 0.309017 0.951057 -0
    outer loop
      vertex 3.6515 9.10884 0
      vertex 2.39991 9.5155 3
      vertex 3.6515 9.10884 3
    endloop
  endfacet
  facet normal 0.309017 0.951057 0
    outer loop
      vertex 2.39991 9.5155 3
      vertex 3.6515 9.10884 0
      vertex 2.39991 9.5155 0
    endloop
  endfacet
  facet normal 0.968583 0.24869 0
    outer loop
      vertex -0.246071 12.3332 3
      vertex -0.573347 13.6078 0
      vertex -0.573347 13.6078 3
    endloop
  endfacet
  facet normal 0.968583 0.24869 0
    outer loop
      vertex -0.573347 13.6078 0
      vertex -0.246071 12.3332 3
      vertex -0.246071 12.3332 0
    endloop
  endfacet
  facet normal 0.535827 0.844328 -0
    outer loop
      vertex 2.39991 9.5155 0
      vertex 1.28878 10.2207 3
      vertex 2.39991 9.5155 3
    endloop
  endfacet
  facet normal 0.535827 0.844328 0
    outer loop
      vertex 1.28878 10.2207 3
      vertex 2.39991 9.5155 0
      vertex 1.28878 10.2207 0
    endloop
  endfacet
  facet normal -0.637424 0.770513 0
    outer loop
      vertex 8.46234 10.672 0
      vertex 7.44835 9.83313 3
      vertex 8.46234 10.672 3
    endloop
  endfacet
  facet normal -0.637424 0.770513 0
    outer loop
      vertex 7.44835 9.83313 3
      vertex 8.46234 10.672 0
      vertex 7.44835 9.83313 0
    endloop
  endfacet
  facet normal -0.42578 0.904827 0
    outer loop
      vertex 7.44835 9.83313 0
      vertex 6.25759 9.2728 3
      vertex 7.44835 9.83313 3
    endloop
  endfacet
  facet normal -0.42578 0.904827 0
    outer loop
      vertex 6.25759 9.2728 3
      vertex 7.44835 9.83313 0
      vertex 6.25759 9.2728 0
    endloop
  endfacet
  facet normal -0.187381 0.982287 0
    outer loop
      vertex 6.25759 9.2728 0
      vertex 4.9649 9.02621 3
      vertex 6.25759 9.2728 3
    endloop
  endfacet
  facet normal -0.187381 0.982287 0
    outer loop
      vertex 4.9649 9.02621 3
      vertex 6.25759 9.2728 0
      vertex 4.9649 9.02621 0
    endloop
  endfacet
  facet normal 0.0627904 0.998027 -0
    outer loop
      vertex 4.9649 9.02621 0
      vertex 3.6515 9.10884 3
      vertex 4.9649 9.02621 3
    endloop
  endfacet
  facet normal 0.0627904 0.998027 0
    outer loop
      vertex 3.6515 9.10884 3
      vertex 4.9649 9.02621 0
      vertex 3.6515 9.10884 0
    endloop
  endfacet
  facet normal -0.809017 0.587785 0
    outer loop
      vertex 8.46234 10.672 0
      vertex 9.2072 11.6972 3
      vertex 9.2072 11.6972 0
    endloop
  endfacet
  facet normal -0.809017 0.587785 0
    outer loop
      vertex 9.2072 11.6972 3
      vertex 8.46234 10.672 0
      vertex 8.46234 10.672 3
    endloop
  endfacet
  facet normal -0.809017 0.587785 0
    outer loop
      vertex -8.30817 5.22291 0
      vertex -7.53464 6.28757 3
      vertex -7.53464 6.28757 0
    endloop
  endfacet
  facet normal -0.809017 0.587785 0
    outer loop
      vertex -7.53464 6.28757 3
      vertex -8.30817 5.22291 0
      vertex -8.30817 5.22291 3
    endloop
  endfacet
  facet normal -0.992115 -0.125333 0
    outer loop
      vertex -6.88525 8.81678 0
      vertex -7.05019 10.1224 3
      vertex -7.05019 10.1224 0
    endloop
  endfacet
  facet normal -0.992115 -0.125333 0
    outer loop
      vertex -7.05019 10.1224 3
      vertex -6.88525 8.81678 0
      vertex -6.88525 8.81678 3
    endloop
  endfacet
  facet normal -0.187381 0.982287 0
    outer loop
      vertex -10.5129 3.82373 0
      vertex -11.8056 3.57714 3
      vertex -10.5129 3.82373 3
    endloop
  endfacet
  facet normal -0.187381 0.982287 0
    outer loop
      vertex -11.8056 3.57714 3
      vertex -10.5129 3.82373 0
      vertex -11.8056 3.57714 0
    endloop
  endfacet
  facet normal -0.425779 0.904827 0
    outer loop
      vertex -9.32216 4.38406 0
      vertex -10.5129 3.82373 3
      vertex -9.32216 4.38406 3
    endloop
  endfacet
  facet normal -0.425779 0.904827 0
    outer loop
      vertex -10.5129 3.82373 3
      vertex -9.32216 4.38406 0
      vertex -10.5129 3.82373 0
    endloop
  endfacet
  facet normal 0.309017 0.951057 -0
    outer loop
      vertex -13.119 3.65977 0
      vertex -14.3242 4.05136 3
      vertex -13.119 3.65977 3
    endloop
  endfacet
  facet normal 0.309017 0.951057 0
    outer loop
      vertex -14.3242 4.05136 3
      vertex -13.119 3.65977 0
      vertex -14.3242 4.05136 0
    endloop
  endfacet
  facet normal -0.929777 -0.368124 0
    outer loop
      vertex -7.05019 10.1224 0
      vertex -7.53464 11.346 3
      vertex -7.53464 11.346 0
    endloop
  endfacet
  facet normal -0.929777 -0.368124 0
    outer loop
      vertex -7.53464 11.346 3
      vertex -7.05019 10.1224 0
      vertex -7.05019 10.1224 3
    endloop
  endfacet
  facet normal -0.929776 0.368125 0
    outer loop
      vertex -7.53464 6.28757 0
      vertex -7.05019 7.51116 3
      vertex -7.05019 7.51116 0
    endloop
  endfacet
  facet normal -0.929776 0.368125 0
    outer loop
      vertex -7.05019 7.51116 3
      vertex -7.53464 6.28757 0
      vertex -7.53464 6.28757 3
    endloop
  endfacet
  facet normal -0.637424 0.770513 0
    outer loop
      vertex -8.30817 5.22291 0
      vertex -9.32216 4.38406 3
      vertex -8.30817 5.22291 3
    endloop
  endfacet
  facet normal -0.637424 0.770513 0
    outer loop
      vertex -9.32216 4.38406 3
      vertex -8.30817 5.22291 0
      vertex -9.32216 4.38406 0
    endloop
  endfacet
  facet normal 0.0627904 0.998027 -0
    outer loop
      vertex -11.8056 3.57714 0
      vertex -13.119 3.65977 3
      vertex -11.8056 3.57714 3
    endloop
  endfacet
  facet normal 0.0627904 0.998027 0
    outer loop
      vertex -13.119 3.65977 3
      vertex -11.8056 3.57714 0
      vertex -13.119 3.65977 0
    endloop
  endfacet
  facet normal -0.809017 -0.587785 0
    outer loop
      vertex -7.53464 11.346 0
      vertex -8.2795 12.3712 3
      vertex -8.2795 12.3712 0
    endloop
  endfacet
  facet normal -0.809017 -0.587785 0
    outer loop
      vertex -8.2795 12.3712 3
      vertex -7.53464 11.346 0
      vertex -7.53464 11.346 3
    endloop
  endfacet
  facet normal -0.992115 0.125333 0
    outer loop
      vertex -7.05019 7.51116 0
      vertex -6.88525 8.81678 3
      vertex -6.88525 8.81678 0
    endloop
  endfacet
  facet normal -0.992115 0.125333 0
    outer loop
      vertex -6.88525 8.81678 3
      vertex -7.05019 7.51116 0
      vertex -7.05019 7.51116 3
    endloop
  endfacet
  facet normal -0.809017 -0.587785 0
    outer loop
      vertex -7.53464 -6.28757 0
      vertex -8.30817 -5.22291 3
      vertex -8.30817 -5.22291 0
    endloop
  endfacet
  facet normal -0.809017 -0.587785 0
    outer loop
      vertex -8.30817 -5.22291 3
      vertex -7.53464 -6.28757 0
      vertex -7.53464 -6.28757 3
    endloop
  endfacet
  facet normal -0.992115 0.125333 0
    outer loop
      vertex -7.05019 -10.1224 0
      vertex -6.88525 -8.81678 3
      vertex -6.88525 -8.81678 0
    endloop
  endfacet
  facet normal -0.992115 0.125333 0
    outer loop
      vertex -6.88525 -8.81678 3
      vertex -7.05019 -10.1224 0
      vertex -7.05019 -10.1224 3
    endloop
  endfacet
  facet normal -0.992115 -0.125333 0
    outer loop
      vertex -6.88525 -8.81678 0
      vertex -7.05019 -7.51116 3
      vertex -7.05019 -7.51116 0
    endloop
  endfacet
  facet normal -0.992115 -0.125333 0
    outer loop
      vertex -7.05019 -7.51116 3
      vertex -6.88525 -8.81678 0
      vertex -6.88525 -8.81678 3
    endloop
  endfacet
  facet normal -0.809017 0.587785 0
    outer loop
      vertex -8.2795 -12.3712 0
      vertex -7.53464 -11.346 3
      vertex -7.53464 -11.346 0
    endloop
  endfacet
  facet normal -0.809017 0.587785 0
    outer loop
      vertex -7.53464 -11.346 3
      vertex -8.2795 -12.3712 0
      vertex -8.2795 -12.3712 3
    endloop
  endfacet
  facet normal -0.929776 -0.368125 0
    outer loop
      vertex -7.05019 -7.51116 0
      vertex -7.53464 -6.28757 3
      vertex -7.53464 -6.28757 0
    endloop
  endfacet
  facet normal -0.929776 -0.368125 0
    outer loop
      vertex -7.53464 -6.28757 3
      vertex -7.05019 -7.51116 0
      vertex -7.05019 -7.51116 3
    endloop
  endfacet
  facet normal -0.929777 0.368124 0
    outer loop
      vertex -7.53464 -11.346 0
      vertex -7.05019 -10.1224 3
      vertex -7.05019 -10.1224 0
    endloop
  endfacet
  facet normal -0.929777 0.368124 0
    outer loop
      vertex -7.05019 -10.1224 3
      vertex -7.53464 -11.346 0
      vertex -7.53464 -11.346 3
    endloop
  endfacet
  facet normal -0.187381 -0.982287 0
    outer loop
      vertex -11.8056 -3.57714 0
      vertex -10.5129 -3.82373 3
      vertex -11.8056 -3.57714 3
    endloop
  endfacet
  facet normal -0.187381 -0.982287 -0
    outer loop
      vertex -10.5129 -3.82373 3
      vertex -11.8056 -3.57714 0
      vertex -10.5129 -3.82373 0
    endloop
  endfacet
  facet normal 0.309017 -0.951057 0
    outer loop
      vertex -14.3242 -4.05136 0
      vertex -13.119 -3.65977 3
      vertex -14.3242 -4.05136 3
    endloop
  endfacet
  facet normal 0.309017 -0.951057 0
    outer loop
      vertex -13.119 -3.65977 3
      vertex -14.3242 -4.05136 0
      vertex -13.119 -3.65977 0
    endloop
  endfacet
  facet normal 0.0627904 -0.998027 0
    outer loop
      vertex -13.119 -3.65977 0
      vertex -11.8056 -3.57714 3
      vertex -13.119 -3.65977 3
    endloop
  endfacet
  facet normal 0.0627904 -0.998027 0
    outer loop
      vertex -11.8056 -3.57714 3
      vertex -13.119 -3.65977 0
      vertex -11.8056 -3.57714 0
    endloop
  endfacet
  facet normal -0.425779 -0.904827 0
    outer loop
      vertex -10.5129 -3.82373 0
      vertex -9.32216 -4.38406 3
      vertex -10.5129 -3.82373 3
    endloop
  endfacet
  facet normal -0.425779 -0.904827 -0
    outer loop
      vertex -9.32216 -4.38406 3
      vertex -10.5129 -3.82373 0
      vertex -9.32216 -4.38406 0
    endloop
  endfacet
  facet normal -0.637424 -0.770513 0
    outer loop
      vertex -9.32216 -4.38406 0
      vertex -8.30817 -5.22291 3
      vertex -9.32216 -4.38406 3
    endloop
  endfacet
  facet normal -0.637424 -0.770513 -0
    outer loop
      vertex -8.30817 -5.22291 3
      vertex -9.32216 -4.38406 0
      vertex -8.30817 -5.22291 0
    endloop
  endfacet
  facet normal 0.309017 -0.951057 0
    outer loop
      vertex 2.39991 -9.5155 0
      vertex 3.6515 -9.10884 3
      vertex 2.39991 -9.5155 3
    endloop
  endfacet
  facet normal 0.309017 -0.951057 0
    outer loop
      vertex 3.6515 -9.10884 3
      vertex 2.39991 -9.5155 0
      vertex 3.6515 -9.10884 0
    endloop
  endfacet
  facet normal -0.42578 -0.904827 0
    outer loop
      vertex 6.25759 -9.2728 0
      vertex 7.44835 -9.83313 3
      vertex 6.25759 -9.2728 3
    endloop
  endfacet
  facet normal -0.42578 -0.904827 -0
    outer loop
      vertex 7.44835 -9.83313 3
      vertex 6.25759 -9.2728 0
      vertex 7.44835 -9.83313 0
    endloop
  endfacet
  facet normal -0.809017 -0.587785 0
    outer loop
      vertex 9.2072 -11.6972 0
      vertex 8.46234 -10.672 3
      vertex 8.46234 -10.672 0
    endloop
  endfacet
  facet normal -0.809017 -0.587785 0
    outer loop
      vertex 8.46234 -10.672 3
      vertex 9.2072 -11.6972 0
      vertex 9.2072 -11.6972 3
    endloop
  endfacet
  facet normal -0.187381 -0.982287 0
    outer loop
      vertex 4.9649 -9.02621 0
      vertex 6.25759 -9.2728 3
      vertex 4.9649 -9.02621 3
    endloop
  endfacet
  facet normal -0.187381 -0.982287 -0
    outer loop
      vertex 6.25759 -9.2728 3
      vertex 4.9649 -9.02621 0
      vertex 6.25759 -9.2728 0
    endloop
  endfacet
  facet normal 0.0627904 -0.998027 0
    outer loop
      vertex 3.6515 -9.10884 0
      vertex 4.9649 -9.02621 3
      vertex 3.6515 -9.10884 3
    endloop
  endfacet
  facet normal 0.0627904 -0.998027 0
    outer loop
      vertex 4.9649 -9.02621 3
      vertex 3.6515 -9.10884 0
      vertex 4.9649 -9.02621 0
    endloop
  endfacet
  facet normal -0.637424 -0.770513 0
    outer loop
      vertex 7.44835 -9.83313 0
      vertex 8.46234 -10.672 3
      vertex 7.44835 -9.83313 3
    endloop
  endfacet
  facet normal -0.637424 -0.770513 -0
    outer loop
      vertex 8.46234 -10.672 3
      vertex 7.44835 -9.83313 0
      vertex 8.46234 -10.672 0
    endloop
  endfacet
  facet normal 0.876307 -0.481753 0
    outer loop
      vertex -0.246071 -12.3332 3
      vertex 0.387916 -11.18 0
      vertex 0.387916 -11.18 3
    endloop
  endfacet
  facet normal 0.876307 -0.481753 0
    outer loop
      vertex 0.387916 -11.18 0
      vertex -0.246071 -12.3332 3
      vertex -0.246071 -12.3332 0
    endloop
  endfacet
  facet normal 1 -0 0
    outer loop
      vertex -0.573347 -14.8751 3
      vertex -0.573347 -13.6078 0
      vertex -0.573347 -13.6078 3
    endloop
  endfacet
  facet normal 1 0 0
    outer loop
      vertex -0.573347 -13.6078 0
      vertex -0.573347 -14.8751 3
      vertex -0.573347 -14.8751 0
    endloop
  endfacet
  facet normal 0.968583 -0.24869 0
    outer loop
      vertex -0.573347 -13.6078 3
      vertex -0.246071 -12.3332 0
      vertex -0.246071 -12.3332 3
    endloop
  endfacet
  facet normal 0.968583 -0.24869 0
    outer loop
      vertex -0.246071 -12.3332 0
      vertex -0.573347 -13.6078 3
      vertex -0.573347 -13.6078 0
    endloop
  endfacet
  facet normal 0.728969 -0.684547 0
    outer loop
      vertex 0.387916 -11.18 3
      vertex 1.28878 -10.2207 0
      vertex 1.28878 -10.2207 3
    endloop
  endfacet
  facet normal 0.728969 -0.684547 0
    outer loop
      vertex 1.28878 -10.2207 0
      vertex 0.387916 -11.18 3
      vertex 0.387916 -11.18 0
    endloop
  endfacet
  facet normal 0.535827 -0.844328 0
    outer loop
      vertex 1.28878 -10.2207 0
      vertex 2.39991 -9.5155 3
      vertex 1.28878 -10.2207 3
    endloop
  endfacet
  facet normal 0.535827 -0.844328 0
    outer loop
      vertex 2.39991 -9.5155 3
      vertex 1.28878 -10.2207 0
      vertex 2.39991 -9.5155 0
    endloop
  endfacet
endsolid OpenSCAD_Model
