solid OpenSCAD_Model
  facet normal 0 0.20791 -0.978148
    outer loop
      vertex 5 37.85 41.2657
      vertex 28 37.85 41.2657
      vertex 28 36.6 41
    endloop
  endfacet
  facet normal 0 0.20791 -0.978148
    outer loop
      vertex 5 37.85 41.2657
      vertex 28 36.6 41
      vertex 5 36.6 41
    endloop
  endfacet
  facet normal 0 0.207915 -0.978147
    outer loop
      vertex 28 37.85 41.2657
      vertex 5 37.85 41.2657
      vertex 28 38.6337 41.4323
    endloop
  endfacet
  facet normal 0 0.207915 -0.978147
    outer loop
      vertex 28 38.6337 41.4323
      vertex 5 37.85 41.2657
      vertex 5 38.6337 41.4323
    endloop
  endfacet
  facet normal -1 -5.33637e-08 -2.5105e-07
    outer loop
      vertex 5 34.5663 41.4323
      vertex 5 35.35 43.1651
      vertex 5 35.35 41.2657
    endloop
  endfacet
  facet normal -1 -1.80461e-07 -1.93569e-07
    outer loop
      vertex 5 35.35 43.1651
      vertex 5 34.5663 41.4323
      vertex 5 32.2699 48.5
    endloop
  endfacet
  facet normal 0 -0.743145 0.66913
    outer loop
      vertex 5 32.2699 48.5
      vertex 28 33.6611 50.0451
      vertex 5 33.6611 50.0451
    endloop
  endfacet
  facet normal 0 -0.743145 0.66913
    outer loop
      vertex 28 33.6611 50.0451
      vertex 5 32.2699 48.5
      vertex 28 32.2699 48.5
    endloop
  endfacet
  facet normal -1 1.28329e-07 -1.7663e-07
    outer loop
      vertex 5 38.6337 41.4323
      vertex 5 40.9301 48.5
      vertex 5 40.3157 42.6543
    endloop
  endfacet
  facet normal -1 0 0
    outer loop
      vertex 5 35.35 48.5
      vertex 5 33.6611 50.0451
      vertex 5 35.35 50.797
    endloop
  endfacet
  facet normal -1 0 -0
    outer loop
      vertex 5 33.6611 50.0451
      vertex 5 35.35 48.5
      vertex 5 32.2699 48.5
    endloop
  endfacet
  facet normal -1 0 0
    outer loop
      vertex 5 37.85 48.5
      vertex 5 39.5389 50.0451
      vertex 5 40.9301 48.5
    endloop
  endfacet
  facet normal -1 -0 0
    outer loop
      vertex 5 39.5389 50.0451
      vertex 5 37.85 48.5
      vertex 5 37.85 50.797
    endloop
  endfacet
  facet normal -1 -1.28329e-07 -1.7663e-07
    outer loop
      vertex 5 32.8843 42.6543
      vertex 5 32.2699 48.5
      vertex 5 34.5663 41.4323
    endloop
  endfacet
  facet normal 0 -0.207916 -0.978147
    outer loop
      vertex 5 35.35 41.2657
      vertex 28 35.35 41.2657
      vertex 28 34.5663 41.4323
    endloop
  endfacet
  facet normal 0 -0.207916 -0.978147
    outer loop
      vertex 5 35.35 41.2657
      vertex 28 34.5663 41.4323
      vertex 5 34.5663 41.4323
    endloop
  endfacet
  facet normal -0 -0.20791 -0.978148
    outer loop
      vertex 28 35.35 41.2657
      vertex 5 35.35 41.2657
      vertex 28 36.6 41
    endloop
  endfacet
  facet normal -0 -0.20791 -0.978148
    outer loop
      vertex 28 36.6 41
      vertex 5 35.35 41.2657
      vertex 5 36.6 41
    endloop
  endfacet
  facet normal -0 0.743145 0.66913
    outer loop
      vertex 5 40.9301 48.5
      vertex 5 39.5389 50.0451
      vertex 28 40.9301 48.5
    endloop
  endfacet
  facet normal -1 3.45461e-07 -1.99452e-07
    outer loop
      vertex 5 40.3157 42.6543
      vertex 5 40.9301 48.5
      vertex 5 41.3553 44.4549
    endloop
  endfacet
  facet normal 0 0.743145 0.66913
    outer loop
      vertex 28 40.9301 48.5
      vertex 5 39.5389 50.0451
      vertex 28 39.5389 50.0451
    endloop
  endfacet
  facet normal -0 0 1
    outer loop
      vertex 5 37.6396 50.8907
      vertex 28 35.5604 50.8907
      vertex 28 37.6396 50.8907
    endloop
  endfacet
  facet normal 0 0 1
    outer loop
      vertex 28 35.5604 50.8907
      vertex 5 37.6396 50.8907
      vertex 5 35.5604 50.8907
    endloop
  endfacet
  facet normal -1 0 -8.93801e-08
    outer loop
      vertex 5 35.35 43.1651
      vertex 5 32.2699 48.5
      vertex 5 35.35 48.5
    endloop
  endfacet
  facet normal -1 0 -8.93801e-08
    outer loop
      vertex 5 37.85 43.1651
      vertex 5 37.85 48.5
      vertex 5 40.9301 48.5
    endloop
  endfacet
  facet normal -1 5.33634e-08 -2.5105e-07
    outer loop
      vertex 5 37.85 43.1651
      vertex 5 38.6337 41.4323
      vertex 5 37.85 41.2657
    endloop
  endfacet
  facet normal -1 1.8046e-07 -1.93569e-07
    outer loop
      vertex 5 38.6337 41.4323
      vertex 5 37.85 43.1651
      vertex 5 40.9301 48.5
    endloop
  endfacet
  facet normal 0 0.994522 -0.104528
    outer loop
      vertex 28 41.3553 44.4549
      vertex 5 41.5726 46.5226
      vertex 28 41.5726 46.5226
    endloop
  endfacet
  facet normal 0 0.994522 -0.104528
    outer loop
      vertex 5 41.5726 46.5226
      vertex 28 41.3553 44.4549
      vertex 5 41.3553 44.4549
    endloop
  endfacet
  facet normal -0 0.406736 0.913546
    outer loop
      vertex 5 37.85 50.797
      vertex 28 37.85 50.797
      vertex 28 39.5389 50.0451
    endloop
  endfacet
  facet normal 0 0.406744 0.913542
    outer loop
      vertex 28 37.85 50.797
      vertex 5 37.85 50.797
      vertex 28 37.6396 50.8907
    endloop
  endfacet
  facet normal -0 0.406736 0.913546
    outer loop
      vertex 5 39.5389 50.0451
      vertex 5 37.85 50.797
      vertex 28 39.5389 50.0451
    endloop
  endfacet
  facet normal 0 0.406744 0.913542
    outer loop
      vertex 28 37.6396 50.8907
      vertex 5 37.85 50.797
      vertex 5 37.6396 50.8907
    endloop
  endfacet
  facet normal 0 -0.951056 0.309017
    outer loop
      vertex 5 31.6274 46.5226
      vertex 28 32.2699 48.5
      vertex 5 32.2699 48.5
    endloop
  endfacet
  facet normal 0 -0.951056 0.309017
    outer loop
      vertex 28 32.2699 48.5
      vertex 5 31.6274 46.5226
      vertex 28 31.6274 46.5226
    endloop
  endfacet
  facet normal -1 -1.12156e-06 -1.1788e-07
    outer loop
      vertex 5 31.6274 46.5226
      vertex 5 32.2699 48.5
      vertex 5 31.8447 44.4549
    endloop
  endfacet
  facet normal 0 -0.406744 0.913542
    outer loop
      vertex 5 35.35 50.797
      vertex 28 35.35 50.797
      vertex 28 35.5604 50.8907
    endloop
  endfacet
  facet normal 0 -0.406744 0.913542
    outer loop
      vertex 5 35.35 50.797
      vertex 28 35.5604 50.8907
      vertex 5 35.5604 50.8907
    endloop
  endfacet
  facet normal 0 -0.406737 0.913545
    outer loop
      vertex 28 35.35 50.797
      vertex 5 35.35 50.797
      vertex 28 33.6611 50.0451
    endloop
  endfacet
  facet normal 0 -0.406737 0.913545
    outer loop
      vertex 5 35.35 50.797
      vertex 5 33.6611 50.0451
      vertex 28 33.6611 50.0451
    endloop
  endfacet
  facet normal -1 -3.4546e-07 -1.99452e-07
    outer loop
      vertex 5 31.8447 44.4549
      vertex 5 32.2699 48.5
      vertex 5 32.8843 42.6543
    endloop
  endfacet
  facet normal 0 0.866025 -0.5
    outer loop
      vertex 28 40.3157 42.6543
      vertex 5 41.3553 44.4549
      vertex 28 41.3553 44.4549
    endloop
  endfacet
  facet normal 0 0.866025 -0.5
    outer loop
      vertex 5 41.3553 44.4549
      vertex 28 40.3157 42.6543
      vertex 5 40.3157 42.6543
    endloop
  endfacet
  facet normal 0 0.587785 -0.809017
    outer loop
      vertex 5 38.6337 41.4323
      vertex 28 40.3157 42.6543
      vertex 28 38.6337 41.4323
    endloop
  endfacet
  facet normal 0 0.587785 -0.809017
    outer loop
      vertex 28 40.3157 42.6543
      vertex 5 38.6337 41.4323
      vertex 5 40.3157 42.6543
    endloop
  endfacet
  facet normal -1 1.12156e-06 -1.17881e-07
    outer loop
      vertex 5 41.3553 44.4549
      vertex 5 40.9301 48.5
      vertex 5 41.5726 46.5226
    endloop
  endfacet
  facet normal 0 0.951056 0.309017
    outer loop
      vertex 5 41.5726 46.5226
      vertex 5 40.9301 48.5
      vertex 28 40.9301 48.5
    endloop
  endfacet
  facet normal 0 -0.994522 -0.104528
    outer loop
      vertex 5 31.8447 44.4549
      vertex 28 31.6274 46.5226
      vertex 5 31.6274 46.5226
    endloop
  endfacet
  facet normal 0 -0.994522 -0.104528
    outer loop
      vertex 28 31.6274 46.5226
      vertex 5 31.8447 44.4549
      vertex 28 31.8447 44.4549
    endloop
  endfacet
  facet normal -1 0 0
    outer loop
      vertex 28 37.6396 50.8907
      vertex 28 37.85 51
      vertex 28 37.85 50.797
    endloop
  endfacet
  facet normal -1 0 0
    outer loop
      vertex 28 35.5604 50.8907
      vertex 28 37.85 51
      vertex 28 37.6396 50.8907
    endloop
  endfacet
  facet normal -1 0 0
    outer loop
      vertex 28 35.5604 50.8907
      vertex 28 35.35 51
      vertex 28 37.85 51
    endloop
  endfacet
  facet normal -1 0 0
    outer loop
      vertex 28 35.35 51
      vertex 28 35.5604 50.8907
      vertex 28 35.35 50.797
    endloop
  endfacet
  facet normal -1 0 -0
    outer loop
      vertex 28 37.85 41.2657
      vertex 28 37.85 41
      vertex 28 36.6 41
    endloop
  endfacet
  facet normal -1 0 0
    outer loop
      vertex 28 35.35 41.2657
      vertex 28 36.6 41
      vertex 28 35.35 41
    endloop
  endfacet
  facet normal 1 0 0
    outer loop
      vertex 28 37.85 41.2657
      vertex 28 41.5726 46.5226
      vertex 28 40.9301 48.5
    endloop
  endfacet
  facet normal 1 0 0
    outer loop
      vertex 28 41.5726 46.5226
      vertex 28 37.85 41.2657
      vertex 28 41.3553 44.4549
    endloop
  endfacet
  facet normal 1 0 0
    outer loop
      vertex 28 37.85 50.797
      vertex 28 40.9301 48.5
      vertex 28 39.5389 50.0451
    endloop
  endfacet
  facet normal 1 0 0
    outer loop
      vertex 28 41.3553 44.4549
      vertex 28 37.85 41.2657
      vertex 28 40.3157 42.6543
    endloop
  endfacet
  facet normal 1 0 0
    outer loop
      vertex 28 40.9301 48.5
      vertex 28 37.85 50.797
      vertex 28 37.85 41.2657
    endloop
  endfacet
  facet normal 1 0 0
    outer loop
      vertex 28 40.3157 42.6543
      vertex 28 37.85 41.2657
      vertex 28 38.6337 41.4323
    endloop
  endfacet
  facet normal 1 -0 0
    outer loop
      vertex 28 32.2699 48.5
      vertex 28 35.35 41.2657
      vertex 28 35.35 50.797
    endloop
  endfacet
  facet normal 1 0 0
    outer loop
      vertex 28 32.2699 48.5
      vertex 28 35.35 50.797
      vertex 28 33.6611 50.0451
    endloop
  endfacet
  facet normal 1 0 0
    outer loop
      vertex 28 35.35 41.2657
      vertex 28 32.8843 42.6543
      vertex 28 34.5663 41.4323
    endloop
  endfacet
  facet normal 1 -0 0
    outer loop
      vertex 28 31.6274 46.5226
      vertex 28 35.35 41.2657
      vertex 28 32.2699 48.5
    endloop
  endfacet
  facet normal 1 0 0
    outer loop
      vertex 28 35.35 41.2657
      vertex 28 31.8447 44.4549
      vertex 28 32.8843 42.6543
    endloop
  endfacet
  facet normal 1 0 0
    outer loop
      vertex 28 35.35 41.2657
      vertex 28 31.6274 46.5226
      vertex 28 31.8447 44.4549
    endloop
  endfacet
  facet normal 0 -0.587785 -0.809017
    outer loop
      vertex 5 32.8843 42.6543
      vertex 28 34.5663 41.4323
      vertex 28 32.8843 42.6543
    endloop
  endfacet
  facet normal -0 -0.587785 -0.809017
    outer loop
      vertex 28 34.5663 41.4323
      vertex 5 32.8843 42.6543
      vertex 5 34.5663 41.4323
    endloop
  endfacet
  facet normal 0 -0.866025 -0.500001
    outer loop
      vertex 5 32.8843 42.6543
      vertex 28 31.8447 44.4549
      vertex 5 31.8447 44.4549
    endloop
  endfacet
  facet normal 0 -0.866025 -0.500001
    outer loop
      vertex 28 31.8447 44.4549
      vertex 5 32.8843 42.6543
      vertex 28 32.8843 42.6543
    endloop
  endfacet
  facet normal 0 0.951056 0.309017
    outer loop
      vertex 28 41.5726 46.5226
      vertex 5 41.5726 46.5226
      vertex 28 40.9301 48.5
    endloop
  endfacet
  facet normal -1 0 0
    outer loop
      vertex 0 35.35 41
      vertex 0 37.85 51
      vertex 0 37.85 41
    endloop
  endfacet
  facet normal -1 -0 0
    outer loop
      vertex 0 37.85 51
      vertex 0 35.35 41
      vertex 0 35.35 51
    endloop
  endfacet
  facet normal -0 0 1
    outer loop
      vertex 0 37.85 51
      vertex 5 35.35 51
      vertex 5 37.85 51
    endloop
  endfacet
  facet normal 0 0 1
    outer loop
      vertex 5 35.35 51
      vertex 0 37.85 51
      vertex 0 35.35 51
    endloop
  endfacet
  facet normal 1 0 0
    outer loop
      vertex 5 37.85 51
      vertex 5 37.6396 50.8907
      vertex 5 37.85 50.797
    endloop
  endfacet
  facet normal 1 0 0
    outer loop
      vertex 5 37.85 51
      vertex 5 35.5604 50.8907
      vertex 5 37.6396 50.8907
    endloop
  endfacet
  facet normal 1 -0 0
    outer loop
      vertex 5 35.35 51
      vertex 5 35.5604 50.8907
      vertex 5 37.85 51
    endloop
  endfacet
  facet normal 1 0 0
    outer loop
      vertex 5 35.5604 50.8907
      vertex 5 35.35 51
      vertex 5 35.35 50.797
    endloop
  endfacet
  facet normal 1 0 0
    outer loop
      vertex 5 35.35 41.2657
      vertex 5 35.35 41
      vertex 5 36.6 41
    endloop
  endfacet
  facet normal 1 0 0
    outer loop
      vertex 5 37.85 41.2657
      vertex 5 36.6 41
      vertex 5 37.85 41
    endloop
  endfacet
  facet normal 0 0 -1
    outer loop
      vertex 0 35.35 41
      vertex 5 36.6 41
      vertex 5 35.35 41
    endloop
  endfacet
  facet normal 0 0 -1
    outer loop
      vertex 0 37.85 41
      vertex 5 36.6 41
      vertex 0 35.35 41
    endloop
  endfacet
  facet normal 0 0 -1
    outer loop
      vertex 5 36.6 41
      vertex 0 37.85 41
      vertex 5 37.85 41
    endloop
  endfacet
  facet normal 0 -1 0
    outer loop
      vertex 0 35.35 51
      vertex 5 35.35 50.797
      vertex 5 35.35 51
    endloop
  endfacet
  facet normal 0 -1 0
    outer loop
      vertex 0 35.35 51
      vertex 5 35.35 48.5
      vertex 5 35.35 50.797
    endloop
  endfacet
  facet normal 0 -1 0
    outer loop
      vertex 0 35.35 41
      vertex 5 35.35 48.5
      vertex 0 35.35 51
    endloop
  endfacet
  facet normal 0 -1 -0
    outer loop
      vertex 5 35.35 48.5
      vertex 0 35.35 41
      vertex 5 35.35 43.1651
    endloop
  endfacet
  facet normal 0 -1 -0
    outer loop
      vertex 5 35.35 43.1651
      vertex 0 35.35 41
      vertex 5 35.35 41.2657
    endloop
  endfacet
  facet normal 0 -1 -0
    outer loop
      vertex 5 35.35 41.2657
      vertex 0 35.35 41
      vertex 5 35.35 41
    endloop
  endfacet
  facet normal 0 1 0
    outer loop
      vertex 5 37.85 51
      vertex 5 37.85 50.797
      vertex 0 37.85 51
    endloop
  endfacet
  facet normal 0 1 -0
    outer loop
      vertex 5 37.85 48.5
      vertex 0 37.85 51
      vertex 5 37.85 50.797
    endloop
  endfacet
  facet normal 0 1 0
    outer loop
      vertex 0 37.85 41
      vertex 5 37.85 48.5
      vertex 5 37.85 43.1651
    endloop
  endfacet
  facet normal 0 1 0
    outer loop
      vertex 0 37.85 41
      vertex 5 37.85 43.1651
      vertex 5 37.85 41.2657
    endloop
  endfacet
  facet normal 0 1 0
    outer loop
      vertex 0 37.85 41
      vertex 5 37.85 41.2657
      vertex 5 37.85 41
    endloop
  endfacet
  facet normal 0 1 0
    outer loop
      vertex 5 37.85 48.5
      vertex 0 37.85 41
      vertex 0 37.85 51
    endloop
  endfacet
  facet normal -0 0 1
    outer loop
      vertex 28 37.85 51
      vertex 33 35.35 51
      vertex 33 37.85 51
    endloop
  endfacet
  facet normal 0 0 1
    outer loop
      vertex 33 35.35 51
      vertex 28 37.85 51
      vertex 28 35.35 51
    endloop
  endfacet
  facet normal 1 -0 0
    outer loop
      vertex 33 35.35 51
      vertex 33 37.85 41
      vertex 33 37.85 51
    endloop
  endfacet
  facet normal 1 0 0
    outer loop
      vertex 33 37.85 41
      vertex 33 35.35 51
      vertex 33 35.35 41
    endloop
  endfacet
  facet normal 0 0 -1
    outer loop
      vertex 28 36.6 41
      vertex 33 35.35 41
      vertex 28 35.35 41
    endloop
  endfacet
  facet normal 0 0 -1
    outer loop
      vertex 33 35.35 41
      vertex 28 36.6 41
      vertex 33 37.85 41
    endloop
  endfacet
  facet normal -0 0 -1
    outer loop
      vertex 33 37.85 41
      vertex 28 36.6 41
      vertex 28 37.85 41
    endloop
  endfacet
  facet normal 0 -1 0
    outer loop
      vertex 28 35.35 50.797
      vertex 33 35.35 51
      vertex 28 35.35 51
    endloop
  endfacet
  facet normal 0 -1 0
    outer loop
      vertex 28 35.35 41.2657
      vertex 33 35.35 51
      vertex 28 35.35 50.797
    endloop
  endfacet
  facet normal 0 -1 0
    outer loop
      vertex 33 35.35 41
      vertex 28 35.35 41.2657
      vertex 28 35.35 41
    endloop
  endfacet
  facet normal 0 -1 0
    outer loop
      vertex 28 35.35 41.2657
      vertex 33 35.35 41
      vertex 33 35.35 51
    endloop
  endfacet
  facet normal 0 1 0
    outer loop
      vertex 33 37.85 51
      vertex 28 37.85 50.797
      vertex 28 37.85 51
    endloop
  endfacet
  facet normal 0 1 0
    outer loop
      vertex 33 37.85 51
      vertex 28 37.85 41.2657
      vertex 28 37.85 50.797
    endloop
  endfacet
  facet normal 0 1 -0
    outer loop
      vertex 33 37.85 41
      vertex 28 37.85 41.2657
      vertex 33 37.85 51
    endloop
  endfacet
  facet normal 0 1 0
    outer loop
      vertex 28 37.85 41.2657
      vertex 33 37.85 41
      vertex 28 37.85 41
    endloop
  endfacet
endsolid OpenSCAD_Model
