solid OpenSCAD_Model
  facet normal -1 0 0
    outer loop
      vertex 0 69 0
      vertex 0 41.5 2
      vertex 0 69 2
    endloop
  endfacet
  facet normal -1 0 0
    outer loop
      vertex 0 41.5 2
      vertex 0 37.95 41
      vertex 0 41.5 51
    endloop
  endfacet
  facet normal -1 0 0
    outer loop
      vertex 0 41.5 2
      vertex 0 35.25 41
      vertex 0 37.95 41
    endloop
  endfacet
  facet normal -1 0 0
    outer loop
      vertex 0 31.5 51
      vertex 0 35.25 41
      vertex 0 31.5 2
    endloop
  endfacet
  facet normal -1 0 0
    outer loop
      vertex 0 41.5 2
      vertex 0 31.5 2
      vertex 0 35.25 41
    endloop
  endfacet
  facet normal -1 0 0
    outer loop
      vertex 0 69 0
      vertex 0 31.5 2
      vertex 0 41.5 2
    endloop
  endfacet
  facet normal -1 0 0
    outer loop
      vertex 0 0 0
      vertex 0 31.5 2
      vertex 0 69 0
    endloop
  endfacet
  facet normal -1 -0 0
    outer loop
      vertex 0 31.5 2
      vertex 0 0 0
      vertex 0 0 2
    endloop
  endfacet
  facet normal -1 -0 0
    outer loop
      vertex 0 41.5 51
      vertex 0 37.95 41
      vertex 0 37.95 51
    endloop
  endfacet
  facet normal -1 0 0
    outer loop
      vertex 0 35.25 41
      vertex 0 31.5 51
      vertex 0 35.25 51
    endloop
  endfacet
  facet normal -0 0 1
    outer loop
      vertex 0 35.25 51
      vertex 4 31.5 51
      vertex 4 35.25 51
    endloop
  endfacet
  facet normal 0 0 1
    outer loop
      vertex 4 31.5 51
      vertex 0 35.25 51
      vertex 0 31.5 51
    endloop
  endfacet
  facet normal -0 0 1
    outer loop
      vertex 0 41.5 51
      vertex 4 37.95 51
      vertex 4 41.5 51
    endloop
  endfacet
  facet normal 0 0 1
    outer loop
      vertex 4 37.95 51
      vertex 0 41.5 51
      vertex 0 37.95 51
    endloop
  endfacet
  facet normal 1 0 0
    outer loop
      vertex 4 35.25 51
      vertex 4 31.5 51
      vertex 4 35.25 41
    endloop
  endfacet
  facet normal 1 0 0
    outer loop
      vertex 4 37.95 41
      vertex 4 41.5 51
      vertex 4 37.95 51
    endloop
  endfacet
  facet normal 1 0 0
    outer loop
      vertex 4 41.5 51
      vertex 4 37.95 41
      vertex 4 41.5 2
    endloop
  endfacet
  facet normal 1 -0 0
    outer loop
      vertex 4 35.25 41
      vertex 4 41.5 2
      vertex 4 37.95 41
    endloop
  endfacet
  facet normal 1 0 0
    outer loop
      vertex 4 31.5 2
      vertex 4 35.25 41
      vertex 4 31.5 51
    endloop
  endfacet
  facet normal 1 0 0
    outer loop
      vertex 4 35.25 41
      vertex 4 31.5 2
      vertex 4 41.5 2
    endloop
  endfacet
  facet normal 0 1 -0
    outer loop
      vertex 4 41.5 2
      vertex 0 41.5 51
      vertex 4 41.5 51
    endloop
  endfacet
  facet normal 0 1 0
    outer loop
      vertex 0 41.5 51
      vertex 4 41.5 2
      vertex 0 41.5 2
    endloop
  endfacet
  facet normal 0 0 1
    outer loop
      vertex 8 21.0964 2
      vertex 16.5 21.4036 2
      vertex 12.2993 34.5 2
    endloop
  endfacet
  facet normal 0 0 1
    outer loop
      vertex 16.5 21.4036 2
      vertex 8 21.0964 2
      vertex 12.2007 8 2
    endloop
  endfacet
  facet normal 0 0 1
    outer loop
      vertex 12.2007 8 2
      vertex 8 21.0964 2
      vertex 9.5 4 2
    endloop
  endfacet
  facet normal 0 0 1
    outer loop
      vertex 0 0 2
      vertex 9.5 4 2
      vertex 8 21.0964 2
    endloop
  endfacet
  facet normal 0 0 1
    outer loop
      vertex 8 47.9036 2
      vertex 4 31.5 2
      vertex 8 21.0964 2
    endloop
  endfacet
  facet normal -0 0 1
    outer loop
      vertex 0 31.5 2
      vertex 8 21.0964 2
      vertex 4 31.5 2
    endloop
  endfacet
  facet normal 0 0 1
    outer loop
      vertex 8 21.0964 2
      vertex 0 31.5 2
      vertex 0 0 2
    endloop
  endfacet
  facet normal 0 0 1
    outer loop
      vertex 9.5 4 2
      vertex 0 0 2
      vertex 9.5 0 2
    endloop
  endfacet
  facet normal 0 0 1
    outer loop
      vertex 25 21.0964 2
      vertex 20.7993 8 2
      vertex 23.5 4 2
    endloop
  endfacet
  facet normal -0 0 1
    outer loop
      vertex 16.5 21.4036 2
      vertex 25 21.0964 2
      vertex 20.7007 34.5 2
    endloop
  endfacet
  facet normal 0 0 1
    outer loop
      vertex 12.2993 34.5 2
      vertex 20.7007 34.5 2
      vertex 16.5 47.5964 2
    endloop
  endfacet
  facet normal 0 0 1
    outer loop
      vertex 25 21.0964 2
      vertex 16.5 21.4036 2
      vertex 20.7993 8 2
    endloop
  endfacet
  facet normal 0 0 1
    outer loop
      vertex 20.7007 34.5 2
      vertex 12.2993 34.5 2
      vertex 16.5 21.4036 2
    endloop
  endfacet
  facet normal -0 0 1
    outer loop
      vertex 8 47.9036 2
      vertex 16.5 47.5964 2
      vertex 12.2007 61 2
    endloop
  endfacet
  facet normal 0 0 1
    outer loop
      vertex 16.5 47.5964 2
      vertex 8 47.9036 2
      vertex 12.2993 34.5 2
    endloop
  endfacet
  facet normal -0 0 1
    outer loop
      vertex 25 47.9036 2
      vertex 33 41.5 2
      vertex 33 69 2
    endloop
  endfacet
  facet normal 0 0 1
    outer loop
      vertex 29 41.5 2
      vertex 25 47.9036 2
      vertex 29 31.5 2
    endloop
  endfacet
  facet normal 0 0 1
    outer loop
      vertex 33 41.5 2
      vertex 25 47.9036 2
      vertex 29 41.5 2
    endloop
  endfacet
  facet normal 0 0 1
    outer loop
      vertex 33 69 2
      vertex 20.7993 61 2
      vertex 25 47.9036 2
    endloop
  endfacet
  facet normal 0 0 1
    outer loop
      vertex 33 69 2
      vertex 12.2007 61 2
      vertex 20.7993 61 2
    endloop
  endfacet
  facet normal 0 0 1
    outer loop
      vertex 4 31.5 2
      vertex 8 47.9036 2
      vertex 4 41.5 2
    endloop
  endfacet
  facet normal 0 0 1
    outer loop
      vertex 0 69 2
      vertex 8 47.9036 2
      vertex 12.2007 61 2
    endloop
  endfacet
  facet normal -0 0 1
    outer loop
      vertex 0 69 2
      vertex 12.2007 61 2
      vertex 33 69 2
    endloop
  endfacet
  facet normal 0 0 1
    outer loop
      vertex 8 47.9036 2
      vertex 0 69 2
      vertex 0 41.5 2
    endloop
  endfacet
  facet normal 0 0 1
    outer loop
      vertex 8 47.9036 2
      vertex 0 41.5 2
      vertex 4 41.5 2
    endloop
  endfacet
  facet normal 0 0 1
    outer loop
      vertex 25 21.0964 2
      vertex 33 31.5 2
      vertex 29 31.5 2
    endloop
  endfacet
  facet normal 0 0 1
    outer loop
      vertex 25 21.0964 2
      vertex 29 31.5 2
      vertex 25 47.9036 2
    endloop
  endfacet
  facet normal 0 0 1
    outer loop
      vertex 33 31.5 2
      vertex 25 21.0964 2
      vertex 33 0 2
    endloop
  endfacet
  facet normal -0 0 1
    outer loop
      vertex 23.5 4 2
      vertex 33 0 2
      vertex 25 21.0964 2
    endloop
  endfacet
  facet normal 0 0 1
    outer loop
      vertex 33 0 2
      vertex 23.5 4 2
      vertex 23.5 0 2
    endloop
  endfacet
  facet normal 0 0 1
    outer loop
      vertex 16.5 47.5964 2
      vertex 25 47.9036 2
      vertex 20.7993 61 2
    endloop
  endfacet
  facet normal 0 0 1
    outer loop
      vertex 25 47.9036 2
      vertex 16.5 47.5964 2
      vertex 20.7007 34.5 2
    endloop
  endfacet
  facet normal -0 0 1
    outer loop
      vertex 12.2007 8 2
      vertex 23.5 4 2
      vertex 20.7993 8 2
    endloop
  endfacet
  facet normal 0 0 1
    outer loop
      vertex 23.5 4 2
      vertex 12.2007 8 2
      vertex 9.5 4 2
    endloop
  endfacet
  facet normal 0 -1 0
    outer loop
      vertex 0 31.5 2
      vertex 4 31.5 51
      vertex 0 31.5 51
    endloop
  endfacet
  facet normal 0 -1 -0
    outer loop
      vertex 4 31.5 51
      vertex 0 31.5 2
      vertex 4 31.5 2
    endloop
  endfacet
  facet normal 0 -1 0
    outer loop
      vertex 0 37.95 41
      vertex 4 37.95 51
      vertex 0 37.95 51
    endloop
  endfacet
  facet normal 0 -1 -0
    outer loop
      vertex 4 37.95 51
      vertex 0 37.95 41
      vertex 4 37.95 41
    endloop
  endfacet
  facet normal -0 0 1
    outer loop
      vertex 0 37.95 41
      vertex 4 35.25 41
      vertex 4 37.95 41
    endloop
  endfacet
  facet normal 0 0 1
    outer loop
      vertex 4 35.25 41
      vertex 0 37.95 41
      vertex 0 35.25 41
    endloop
  endfacet
  facet normal 0 1 -0
    outer loop
      vertex 4 35.25 41
      vertex 0 35.25 51
      vertex 4 35.25 51
    endloop
  endfacet
  facet normal 0 1 0
    outer loop
      vertex 0 35.25 51
      vertex 4 35.25 41
      vertex 0 35.25 41
    endloop
  endfacet
  facet normal -1 0 0
    outer loop
      vertex 29 41.5 2
      vertex 29 37.95 41
      vertex 29 41.5 51
    endloop
  endfacet
  facet normal -1 0 0
    outer loop
      vertex 29 41.5 2
      vertex 29 35.25 41
      vertex 29 37.95 41
    endloop
  endfacet
  facet normal -1 0 0
    outer loop
      vertex 29 31.5 2
      vertex 29 35.25 41
      vertex 29 41.5 2
    endloop
  endfacet
  facet normal -1 0 0
    outer loop
      vertex 29 31.5 51
      vertex 29 35.25 41
      vertex 29 31.5 2
    endloop
  endfacet
  facet normal -1 0 0
    outer loop
      vertex 29 35.25 41
      vertex 29 31.5 51
      vertex 29 35.25 51
    endloop
  endfacet
  facet normal -1 -0 0
    outer loop
      vertex 29 41.5 51
      vertex 29 37.95 41
      vertex 29 37.95 51
    endloop
  endfacet
  facet normal -0 0 1
    outer loop
      vertex 29 35.25 51
      vertex 33 31.5 51
      vertex 33 35.25 51
    endloop
  endfacet
  facet normal 0 0 1
    outer loop
      vertex 33 31.5 51
      vertex 29 35.25 51
      vertex 29 31.5 51
    endloop
  endfacet
  facet normal -0 0 1
    outer loop
      vertex 29 41.5 51
      vertex 33 37.95 51
      vertex 33 41.5 51
    endloop
  endfacet
  facet normal 0 0 1
    outer loop
      vertex 33 37.95 51
      vertex 29 41.5 51
      vertex 29 37.95 51
    endloop
  endfacet
  facet normal 1 0 0
    outer loop
      vertex 33 35.25 51
      vertex 33 31.5 51
      vertex 33 35.25 41
    endloop
  endfacet
  facet normal 1 0 0
    outer loop
      vertex 33 37.95 41
      vertex 33 41.5 51
      vertex 33 37.95 51
    endloop
  endfacet
  facet normal 1 -0 0
    outer loop
      vertex 33 41.5 2
      vertex 33 69 0
      vertex 33 69 2
    endloop
  endfacet
  facet normal 1 0 0
    outer loop
      vertex 33 41.5 51
      vertex 33 37.95 41
      vertex 33 41.5 2
    endloop
  endfacet
  facet normal 1 -0 0
    outer loop
      vertex 33 35.25 41
      vertex 33 41.5 2
      vertex 33 37.95 41
    endloop
  endfacet
  facet normal 1 0 0
    outer loop
      vertex 33 31.5 2
      vertex 33 35.25 41
      vertex 33 31.5 51
    endloop
  endfacet
  facet normal 1 0 0
    outer loop
      vertex 33 35.25 41
      vertex 33 31.5 2
      vertex 33 41.5 2
    endloop
  endfacet
  facet normal 1 -0 0
    outer loop
      vertex 33 31.5 2
      vertex 33 69 0
      vertex 33 41.5 2
    endloop
  endfacet
  facet normal 1 0 0
    outer loop
      vertex 33 0 0
      vertex 33 31.5 2
      vertex 33 0 2
    endloop
  endfacet
  facet normal 1 0 0
    outer loop
      vertex 33 31.5 2
      vertex 33 0 0
      vertex 33 69 0
    endloop
  endfacet
  facet normal 0 1 -0
    outer loop
      vertex 33 41.5 2
      vertex 29 41.5 51
      vertex 33 41.5 51
    endloop
  endfacet
  facet normal 0 1 0
    outer loop
      vertex 29 41.5 51
      vertex 33 41.5 2
      vertex 29 41.5 2
    endloop
  endfacet
  facet normal 0 -1 0
    outer loop
      vertex 29 31.5 2
      vertex 33 31.5 51
      vertex 29 31.5 51
    endloop
  endfacet
  facet normal 0 -1 -0
    outer loop
      vertex 33 31.5 51
      vertex 29 31.5 2
      vertex 33 31.5 2
    endloop
  endfacet
  facet normal 0 -1 0
    outer loop
      vertex 29 37.95 41
      vertex 33 37.95 51
      vertex 29 37.95 51
    endloop
  endfacet
  facet normal 0 -1 -0
    outer loop
      vertex 33 37.95 51
      vertex 29 37.95 41
      vertex 33 37.95 41
    endloop
  endfacet
  facet normal -0 0 1
    outer loop
      vertex 29 37.95 41
      vertex 33 35.25 41
      vertex 33 37.95 41
    endloop
  endfacet
  facet normal 0 0 1
    outer loop
      vertex 33 35.25 41
      vertex 29 37.95 41
      vertex 29 35.25 41
    endloop
  endfacet
  facet normal 0 1 -0
    outer loop
      vertex 33 35.25 41
      vertex 29 35.25 51
      vertex 33 35.25 51
    endloop
  endfacet
  facet normal 0 1 0
    outer loop
      vertex 29 35.25 51
      vertex 33 35.25 41
      vertex 29 35.25 41
    endloop
  endfacet
  facet normal -1 0 0
    outer loop
      vertex 9.5 0 2
      vertex 9.5 4 10
      vertex 9.5 4 2
    endloop
  endfacet
  facet normal -1 -0 0
    outer loop
      vertex 9.5 4 10
      vertex 9.5 0 2
      vertex 9.5 0 10
    endloop
  endfacet
  facet normal -0 0 1
    outer loop
      vertex 9.5 4 10
      vertex 23.5 0 10
      vertex 23.5 4 10
    endloop
  endfacet
  facet normal 0 0 1
    outer loop
      vertex 23.5 0 10
      vertex 9.5 4 10
      vertex 9.5 0 10
    endloop
  endfacet
  facet normal 1 -0 0
    outer loop
      vertex 23.5 0 10
      vertex 23.5 4 2
      vertex 23.5 4 10
    endloop
  endfacet
  facet normal 1 0 0
    outer loop
      vertex 23.5 4 2
      vertex 23.5 0 10
      vertex 23.5 0 2
    endloop
  endfacet
  facet normal 0 1 0
    outer loop
      vertex 23.5 4 10
      vertex 16.3955 4 6.99452
      vertex 9.5 4 10
    endloop
  endfacet
  facet normal 0 1 0
    outer loop
      vertex 23.5 4 10
      vertex 16.809 4 6.95106
      vertex 16.3955 4 6.99452
    endloop
  endfacet
  facet normal 0 1 0
    outer loop
      vertex 23.5 4 10
      vertex 17.1691 4 6.74314
      vertex 16.809 4 6.95106
    endloop
  endfacet
  facet normal 0 1 0
    outer loop
      vertex 23.5 4 10
      vertex 17.4135 4 6.40674
      vertex 17.1691 4 6.74314
    endloop
  endfacet
  facet normal 0 1 0
    outer loop
      vertex 23.5 4 10
      vertex 17.5 4 6
      vertex 17.4135 4 6.40674
    endloop
  endfacet
  facet normal 0 1 -0
    outer loop
      vertex 23.5 4 2
      vertex 17.5 4 6
      vertex 23.5 4 10
    endloop
  endfacet
  facet normal 0 1 0
    outer loop
      vertex 17.5 4 6
      vertex 23.5 4 2
      vertex 17.4135 4 5.59326
    endloop
  endfacet
  facet normal 0 1 0
    outer loop
      vertex 16.809 4 5.04894
      vertex 23.5 4 2
      vertex 16.3955 4 5.00548
    endloop
  endfacet
  facet normal 0 1 0
    outer loop
      vertex 17.1691 4 5.25686
      vertex 23.5 4 2
      vertex 16.809 4 5.04894
    endloop
  endfacet
  facet normal 0 1 0
    outer loop
      vertex 17.4135 4 5.59326
      vertex 23.5 4 2
      vertex 17.1691 4 5.25686
    endloop
  endfacet
  facet normal 0 1 -0
    outer loop
      vertex 16 4 6.86602
      vertex 9.5 4 10
      vertex 16.3955 4 6.99452
    endloop
  endfacet
  facet normal 0 1 -0
    outer loop
      vertex 15.691 4 6.58778
      vertex 9.5 4 10
      vertex 16 4 6.86602
    endloop
  endfacet
  facet normal 0 1 -0
    outer loop
      vertex 15.5219 4 6.20791
      vertex 9.5 4 10
      vertex 15.691 4 6.58778
    endloop
  endfacet
  facet normal 0 1 -0
    outer loop
      vertex 15.5219 4 5.79209
      vertex 9.5 4 10
      vertex 15.5219 4 6.20791
    endloop
  endfacet
  facet normal 0 1 0
    outer loop
      vertex 9.5 4 2
      vertex 15.5219 4 5.79209
      vertex 15.691 4 5.41221
    endloop
  endfacet
  facet normal 0 1 0
    outer loop
      vertex 9.5 4 2
      vertex 15.691 4 5.41221
      vertex 16 4 5.13397
    endloop
  endfacet
  facet normal 0 1 0
    outer loop
      vertex 9.5 4 2
      vertex 16.3955 4 5.00548
      vertex 23.5 4 2
    endloop
  endfacet
  facet normal 0 1 0
    outer loop
      vertex 15.5219 4 5.79209
      vertex 9.5 4 2
      vertex 9.5 4 10
    endloop
  endfacet
  facet normal 0 1 0
    outer loop
      vertex 16.3955 4 5.00548
      vertex 9.5 4 2
      vertex 16 4 5.13397
    endloop
  endfacet
  facet normal 0 -1 0
    outer loop
      vertex 0 0 0
      vertex 9.5 0 2
      vertex 0 0 2
    endloop
  endfacet
  facet normal 0 -1 -0
    outer loop
      vertex 9.5 0 2
      vertex 0 0 0
      vertex 23.5 0 2
    endloop
  endfacet
  facet normal 0 -1 0
    outer loop
      vertex 33 0 0
      vertex 23.5 0 2
      vertex 0 0 0
    endloop
  endfacet
  facet normal 0 -1 0
    outer loop
      vertex 23.5 0 2
      vertex 33 0 0
      vertex 33 0 2
    endloop
  endfacet
  facet normal 0 -1 0
    outer loop
      vertex 9.5 0 10
      vertex 16.3955 0 6.99452
      vertex 23.5 0 10
    endloop
  endfacet
  facet normal 0 -1 0
    outer loop
      vertex 9.5 0 10
      vertex 16 0 6.86602
      vertex 16.3955 0 6.99452
    endloop
  endfacet
  facet normal 0 -1 0
    outer loop
      vertex 9.5 0 10
      vertex 15.691 0 6.58778
      vertex 16 0 6.86602
    endloop
  endfacet
  facet normal 0 -1 0
    outer loop
      vertex 9.5 0 10
      vertex 15.5219 0 6.20791
      vertex 15.691 0 6.58778
    endloop
  endfacet
  facet normal 0 -1 0
    outer loop
      vertex 9.5 0 10
      vertex 15.5219 0 5.79209
      vertex 15.5219 0 6.20791
    endloop
  endfacet
  facet normal 0 -1 0
    outer loop
      vertex 9.5 0 2
      vertex 15.5219 0 5.79209
      vertex 9.5 0 10
    endloop
  endfacet
  facet normal 0 -1 -0
    outer loop
      vertex 15.5219 0 5.79209
      vertex 9.5 0 2
      vertex 15.691 0 5.41221
    endloop
  endfacet
  facet normal 0 -1 -0
    outer loop
      vertex 16 0 5.13397
      vertex 9.5 0 2
      vertex 16.3955 0 5.00548
    endloop
  endfacet
  facet normal 0 -1 -0
    outer loop
      vertex 15.691 0 5.41221
      vertex 9.5 0 2
      vertex 16 0 5.13397
    endloop
  endfacet
  facet normal 0 -1 0
    outer loop
      vertex 16.809 0 6.95106
      vertex 23.5 0 10
      vertex 16.3955 0 6.99452
    endloop
  endfacet
  facet normal 0 -1 0
    outer loop
      vertex 17.1691 0 6.74314
      vertex 23.5 0 10
      vertex 16.809 0 6.95106
    endloop
  endfacet
  facet normal 0 -1 0
    outer loop
      vertex 17.4135 0 6.40674
      vertex 23.5 0 10
      vertex 17.1691 0 6.74314
    endloop
  endfacet
  facet normal 0 -1 0
    outer loop
      vertex 17.5 0 6
      vertex 23.5 0 10
      vertex 17.4135 0 6.40674
    endloop
  endfacet
  facet normal 0 -1 0
    outer loop
      vertex 23.5 0 2
      vertex 17.5 0 6
      vertex 17.4135 0 5.59326
    endloop
  endfacet
  facet normal 0 -1 0
    outer loop
      vertex 23.5 0 2
      vertex 17.4135 0 5.59326
      vertex 17.1691 0 5.25686
    endloop
  endfacet
  facet normal 0 -1 0
    outer loop
      vertex 23.5 0 2
      vertex 16.3955 0 5.00548
      vertex 9.5 0 2
    endloop
  endfacet
  facet normal 0 -1 0
    outer loop
      vertex 17.5 0 6
      vertex 23.5 0 2
      vertex 23.5 0 10
    endloop
  endfacet
  facet normal 0 -1 0
    outer loop
      vertex 16.809 0 5.04894
      vertex 23.5 0 2
      vertex 17.1691 0 5.25686
    endloop
  endfacet
  facet normal 0 -1 0
    outer loop
      vertex 16.3955 0 5.00548
      vertex 23.5 0 2
      vertex 16.809 0 5.04894
    endloop
  endfacet
  facet normal -0.978147 0 -0.207916
    outer loop
      vertex 17.5 0 6
      vertex 17.4135 4 6.40674
      vertex 17.5 4 6
    endloop
  endfacet
  facet normal -0.978147 -0 -0.207916
    outer loop
      vertex 17.4135 4 6.40674
      vertex 17.5 0 6
      vertex 17.4135 0 6.40674
    endloop
  endfacet
  facet normal -0.809018 0 -0.587784
    outer loop
      vertex 17.4135 0 6.40674
      vertex 17.1691 4 6.74314
      vertex 17.4135 4 6.40674
    endloop
  endfacet
  facet normal -0.809018 -0 -0.587784
    outer loop
      vertex 17.1691 4 6.74314
      vertex 17.4135 0 6.40674
      vertex 17.1691 0 6.74314
    endloop
  endfacet
  facet normal 1 -0 0
    outer loop
      vertex 15.5219 0 6.20791
      vertex 15.5219 4 5.79209
      vertex 15.5219 4 6.20791
    endloop
  endfacet
  facet normal 1 0 0
    outer loop
      vertex 15.5219 4 5.79209
      vertex 15.5219 0 6.20791
      vertex 15.5219 0 5.79209
    endloop
  endfacet
  facet normal 0.309018 0 -0.951056
    outer loop
      vertex 16 0 6.86602
      vertex 16.3955 4 6.99452
      vertex 16.3955 0 6.99452
    endloop
  endfacet
  facet normal 0.309018 0 -0.951056
    outer loop
      vertex 16.3955 4 6.99452
      vertex 16 0 6.86602
      vertex 16 4 6.86602
    endloop
  endfacet
  facet normal -0.500002 0 0.866024
    outer loop
      vertex 16.809 4 5.04894
      vertex 17.1691 0 5.25686
      vertex 17.1691 4 5.25686
    endloop
  endfacet
  facet normal -0.500002 0 0.866024
    outer loop
      vertex 17.1691 0 5.25686
      vertex 16.809 4 5.04894
      vertex 16.809 0 5.04894
    endloop
  endfacet
  facet normal -0.500002 0 -0.866024
    outer loop
      vertex 16.809 0 6.95106
      vertex 17.1691 4 6.74314
      vertex 17.1691 0 6.74314
    endloop
  endfacet
  facet normal -0.500002 0 -0.866024
    outer loop
      vertex 17.1691 4 6.74314
      vertex 16.809 0 6.95106
      vertex 16.809 4 6.95106
    endloop
  endfacet
  facet normal 0.913545 0 -0.406738
    outer loop
      vertex 15.691 0 6.58778
      vertex 15.5219 4 6.20791
      vertex 15.691 4 6.58778
    endloop
  endfacet
  facet normal 0.913545 0 -0.406738
    outer loop
      vertex 15.5219 4 6.20791
      vertex 15.691 0 6.58778
      vertex 15.5219 0 6.20791
    endloop
  endfacet
  facet normal 0.66913 0 -0.743145
    outer loop
      vertex 15.691 0 6.58778
      vertex 16 4 6.86602
      vertex 16 0 6.86602
    endloop
  endfacet
  facet normal 0.66913 0 -0.743145
    outer loop
      vertex 16 4 6.86602
      vertex 15.691 0 6.58778
      vertex 15.691 4 6.58778
    endloop
  endfacet
  facet normal 0.913545 -0 0.406738
    outer loop
      vertex 15.5219 0 5.79209
      vertex 15.691 4 5.41221
      vertex 15.5219 4 5.79209
    endloop
  endfacet
  facet normal 0.913545 0 0.406738
    outer loop
      vertex 15.691 4 5.41221
      vertex 15.5219 0 5.79209
      vertex 15.691 0 5.41221
    endloop
  endfacet
  facet normal -0.104526 0 -0.994522
    outer loop
      vertex 16.3955 0 6.99452
      vertex 16.809 4 6.95106
      vertex 16.809 0 6.95106
    endloop
  endfacet
  facet normal -0.104526 0 -0.994522
    outer loop
      vertex 16.809 4 6.95106
      vertex 16.3955 0 6.99452
      vertex 16.3955 4 6.99452
    endloop
  endfacet
  facet normal -0.809018 0 0.587784
    outer loop
      vertex 17.1691 0 5.25686
      vertex 17.4135 4 5.59326
      vertex 17.1691 4 5.25686
    endloop
  endfacet
  facet normal -0.809018 0 0.587784
    outer loop
      vertex 17.4135 4 5.59326
      vertex 17.1691 0 5.25686
      vertex 17.4135 0 5.59326
    endloop
  endfacet
  facet normal -0.978147 0 0.207915
    outer loop
      vertex 17.4135 0 5.59326
      vertex 17.5 4 6
      vertex 17.4135 4 5.59326
    endloop
  endfacet
  facet normal -0.978147 0 0.207915
    outer loop
      vertex 17.5 4 6
      vertex 17.4135 0 5.59326
      vertex 17.5 0 6
    endloop
  endfacet
  facet normal 0.309018 0 0.951056
    outer loop
      vertex 16 4 5.13397
      vertex 16.3955 0 5.00548
      vertex 16.3955 4 5.00548
    endloop
  endfacet
  facet normal 0.309018 0 0.951056
    outer loop
      vertex 16.3955 0 5.00548
      vertex 16 4 5.13397
      vertex 16 0 5.13397
    endloop
  endfacet
  facet normal -0.104526 0 0.994522
    outer loop
      vertex 16.3955 4 5.00548
      vertex 16.809 0 5.04894
      vertex 16.809 4 5.04894
    endloop
  endfacet
  facet normal -0.104526 0 0.994522
    outer loop
      vertex 16.809 0 5.04894
      vertex 16.3955 4 5.00548
      vertex 16.3955 0 5.00548
    endloop
  endfacet
  facet normal 0.66913 0 0.743145
    outer loop
      vertex 15.691 4 5.41221
      vertex 16 0 5.13397
      vertex 16 4 5.13397
    endloop
  endfacet
  facet normal 0.66913 0 0.743145
    outer loop
      vertex 16 0 5.13397
      vertex 15.691 4 5.41221
      vertex 15.691 0 5.41221
    endloop
  endfacet
  facet normal 0 1 -0
    outer loop
      vertex 33 69 0
      vertex 0 69 2
      vertex 33 69 2
    endloop
  endfacet
  facet normal 0 1 0
    outer loop
      vertex 0 69 2
      vertex 33 69 0
      vertex 0 69 0
    endloop
  endfacet
  facet normal 0 0 -1
    outer loop
      vertex 8 47.9036 0
      vertex 16.5 47.5964 0
      vertex 12.2993 34.5 0
    endloop
  endfacet
  facet normal 0 0 -1
    outer loop
      vertex 16.5 47.5964 0
      vertex 8 47.9036 0
      vertex 12.2007 61 0
    endloop
  endfacet
  facet normal 0 0 -1
    outer loop
      vertex 16.5 47.5964 0
      vertex 25 47.9036 0
      vertex 20.7007 34.5 0
    endloop
  endfacet
  facet normal 0 0 -1
    outer loop
      vertex 12.2993 34.5 0
      vertex 20.7007 34.5 0
      vertex 16.5 21.4036 0
    endloop
  endfacet
  facet normal -0 0 -1
    outer loop
      vertex 25 47.9036 0
      vertex 16.5 47.5964 0
      vertex 20.7993 61 0
    endloop
  endfacet
  facet normal 0 0 -1
    outer loop
      vertex 20.7007 34.5 0
      vertex 12.2993 34.5 0
      vertex 16.5 47.5964 0
    endloop
  endfacet
  facet normal 0 0 -1
    outer loop
      vertex 8 21.0964 0
      vertex 16.5 21.4036 0
      vertex 12.2007 8 0
    endloop
  endfacet
  facet normal -0 0 -1
    outer loop
      vertex 16.5 21.4036 0
      vertex 8 21.0964 0
      vertex 12.2993 34.5 0
    endloop
  endfacet
  facet normal 0 0 -1
    outer loop
      vertex 33 0 0
      vertex 25 21.0964 0
      vertex 33 69 0
    endloop
  endfacet
  facet normal 0 0 -1
    outer loop
      vertex 33 0 0
      vertex 20.7993 8 0
      vertex 25 21.0964 0
    endloop
  endfacet
  facet normal 0 0 -1
    outer loop
      vertex 33 0 0
      vertex 12.2007 8 0
      vertex 20.7993 8 0
    endloop
  endfacet
  facet normal -0 0 -1
    outer loop
      vertex 8 21.0964 0
      vertex 0 0 0
      vertex 8 47.9036 0
    endloop
  endfacet
  facet normal -0 0 -1
    outer loop
      vertex 12.2007 8 0
      vertex 0 0 0
      vertex 8 21.0964 0
    endloop
  endfacet
  facet normal 0 0 -1
    outer loop
      vertex 0 0 0
      vertex 12.2007 8 0
      vertex 33 0 0
    endloop
  endfacet
  facet normal 0 0 -1
    outer loop
      vertex 25 47.9036 0
      vertex 33 69 0
      vertex 25 21.0964 0
    endloop
  endfacet
  facet normal 0 0 -1
    outer loop
      vertex 20.7993 61 0
      vertex 33 69 0
      vertex 25 47.9036 0
    endloop
  endfacet
  facet normal 0 0 -1
    outer loop
      vertex 12.2007 61 0
      vertex 33 69 0
      vertex 20.7993 61 0
    endloop
  endfacet
  facet normal 0 0 -1
    outer loop
      vertex 12.2007 61 0
      vertex 0 69 0
      vertex 33 69 0
    endloop
  endfacet
  facet normal 0 0 -1
    outer loop
      vertex 8 47.9036 0
      vertex 0 69 0
      vertex 12.2007 61 0
    endloop
  endfacet
  facet normal 0 0 -1
    outer loop
      vertex 0 69 0
      vertex 8 47.9036 0
      vertex 0 0 0
    endloop
  endfacet
  facet normal 0 0 -1
    outer loop
      vertex 16.5 21.4036 0
      vertex 25 21.0964 0
      vertex 20.7993 8 0
    endloop
  endfacet
  facet normal 0 0 -1
    outer loop
      vertex 25 21.0964 0
      vertex 16.5 21.4036 0
      vertex 20.7007 34.5 0
    endloop
  endfacet
  facet normal 1 -0 0
    outer loop
      vertex 8 21.0964 2
      vertex 8 47.9036 0
      vertex 8 47.9036 2
    endloop
  endfacet
  facet normal 1 0 0
    outer loop
      vertex 8 47.9036 0
      vertex 8 21.0964 2
      vertex 8 21.0964 0
    endloop
  endfacet
  facet normal -1 0 0
    outer loop
      vertex 25 21.0964 0
      vertex 25 47.9036 2
      vertex 25 47.9036 0
    endloop
  endfacet
  facet normal -1 -0 0
    outer loop
      vertex 25 47.9036 2
      vertex 25 21.0964 0
      vertex 25 21.0964 2
    endloop
  endfacet
  facet normal 0 -1 0
    outer loop
      vertex 12.2007 61 0
      vertex 20.7993 61 2
      vertex 12.2007 61 2
    endloop
  endfacet
  facet normal 0 -1 -0
    outer loop
      vertex 20.7993 61 2
      vertex 12.2007 61 0
      vertex 20.7993 61 0
    endloop
  endfacet
  facet normal 0 1 -0
    outer loop
      vertex 20.7993 8 0
      vertex 12.2007 8 2
      vertex 20.7993 8 2
    endloop
  endfacet
  facet normal 0 1 0
    outer loop
      vertex 12.2007 8 2
      vertex 20.7993 8 0
      vertex 12.2007 8 0
    endloop
  endfacet
  facet normal 0.952215 -0.305428 0
    outer loop
      vertex 12.2007 8 2
      vertex 16.5 21.4036 0
      vertex 16.5 21.4036 2
    endloop
  endfacet
  facet normal 0.952215 -0.305428 0
    outer loop
      vertex 16.5 21.4036 0
      vertex 12.2007 8 2
      vertex 12.2007 8 0
    endloop
  endfacet
  facet normal 0.952215 -0.305428 0
    outer loop
      vertex 20.7007 34.5 2
      vertex 25 47.9036 0
      vertex 25 47.9036 2
    endloop
  endfacet
  facet normal 0.952215 -0.305428 0
    outer loop
      vertex 25 47.9036 0
      vertex 20.7007 34.5 2
      vertex 20.7007 34.5 0
    endloop
  endfacet
  facet normal -0.952215 0.305428 0
    outer loop
      vertex 8 21.0964 0
      vertex 12.2993 34.5 2
      vertex 12.2993 34.5 0
    endloop
  endfacet
  facet normal -0.952215 0.305428 0
    outer loop
      vertex 12.2993 34.5 2
      vertex 8 21.0964 0
      vertex 8 21.0964 2
    endloop
  endfacet
  facet normal -0.952215 0.305427 0
    outer loop
      vertex 16.5 47.5964 0
      vertex 20.7993 61 2
      vertex 20.7993 61 0
    endloop
  endfacet
  facet normal -0.952215 0.305427 0
    outer loop
      vertex 20.7993 61 2
      vertex 16.5 47.5964 0
      vertex 16.5 47.5964 2
    endloop
  endfacet
  facet normal 0.952215 0.305428 0
    outer loop
      vertex 16.5 47.5964 2
      vertex 12.2007 61 0
      vertex 12.2007 61 2
    endloop
  endfacet
  facet normal 0.952215 0.305428 0
    outer loop
      vertex 12.2007 61 0
      vertex 16.5 47.5964 2
      vertex 16.5 47.5964 0
    endloop
  endfacet
  facet normal 0.952215 0.305428 0
    outer loop
      vertex 25 21.0964 2
      vertex 20.7007 34.5 0
      vertex 20.7007 34.5 2
    endloop
  endfacet
  facet normal 0.952215 0.305428 0
    outer loop
      vertex 20.7007 34.5 0
      vertex 25 21.0964 2
      vertex 25 21.0964 0
    endloop
  endfacet
  facet normal -0.952215 -0.305428 0
    outer loop
      vertex 12.2993 34.5 0
      vertex 8 47.9036 2
      vertex 8 47.9036 0
    endloop
  endfacet
  facet normal -0.952215 -0.305428 0
    outer loop
      vertex 8 47.9036 2
      vertex 12.2993 34.5 0
      vertex 12.2993 34.5 2
    endloop
  endfacet
  facet normal -0.952215 -0.305428 0
    outer loop
      vertex 20.7993 8 0
      vertex 16.5 21.4036 2
      vertex 16.5 21.4036 0
    endloop
  endfacet
  facet normal -0.952215 -0.305428 0
    outer loop
      vertex 16.5 21.4036 2
      vertex 20.7993 8 0
      vertex 20.7993 8 2
    endloop
  endfacet
endsolid OpenSCAD_Model
