solid OpenSCAD_Model
  facet normal -1 0 0
    outer loop
      vertex 0 69 0
      vertex 0 41.5 2
      vertex 0 69 2
    endloop
  endfacet
  facet normal -1 0 0
    outer loop
      vertex 0 41.5 2
      vertex 0 37.95 41
      vertex 0 41.5 53.5
    endloop
  endfacet
  facet normal -1 0 0
    outer loop
      vertex 0 41.5 2
      vertex 0 35.25 41
      vertex 0 37.95 41
    endloop
  endfacet
  facet normal -1 0 0
    outer loop
      vertex 0 31.5 53.5
      vertex 0 35.25 41
      vertex 0 31.5 2
    endloop
  endfacet
  facet normal -1 0 0
    outer loop
      vertex 0 41.5 2
      vertex 0 31.5 2
      vertex 0 35.25 41
    endloop
  endfacet
  facet normal -1 0 0
    outer loop
      vertex 0 69 0
      vertex 0 31.5 2
      vertex 0 41.5 2
    endloop
  endfacet
  facet normal -1 0 0
    outer loop
      vertex 0 0 0
      vertex 0 31.5 2
      vertex 0 69 0
    endloop
  endfacet
  facet normal -1 -0 0
    outer loop
      vertex 0 31.5 2
      vertex 0 0 0
      vertex 0 0 2
    endloop
  endfacet
  facet normal -1 -0 0
    outer loop
      vertex 0 41.5 53.5
      vertex 0 37.95 41
      vertex 0 37.95 53.5
    endloop
  endfacet
  facet normal -1 0 0
    outer loop
      vertex 0 35.25 41
      vertex 0 31.5 53.5
      vertex 0 35.25 53.5
    endloop
  endfacet
  facet normal -0 0 1
    outer loop
      vertex 0 35.25 53.5
      vertex 4 31.5 53.5
      vertex 4 35.25 53.5
    endloop
  endfacet
  facet normal 0 0 1
    outer loop
      vertex 4 31.5 53.5
      vertex 0 35.25 53.5
      vertex 0 31.5 53.5
    endloop
  endfacet
  facet normal -0 0 1
    outer loop
      vertex 0 41.5 53.5
      vertex 4 37.95 53.5
      vertex 4 41.5 53.5
    endloop
  endfacet
  facet normal 0 0 1
    outer loop
      vertex 4 37.95 53.5
      vertex 0 41.5 53.5
      vertex 0 37.95 53.5
    endloop
  endfacet
  facet normal 1 0 0
    outer loop
      vertex 4 35.25 53.5
      vertex 4 31.5 53.5
      vertex 4 35.25 41
    endloop
  endfacet
  facet normal 1 0 0
    outer loop
      vertex 4 37.95 41
      vertex 4 41.5 53.5
      vertex 4 37.95 53.5
    endloop
  endfacet
  facet normal 1 0 0
    outer loop
      vertex 4 41.5 53.5
      vertex 4 37.95 41
      vertex 4 41.5 2
    endloop
  endfacet
  facet normal 1 -0 0
    outer loop
      vertex 4 35.25 41
      vertex 4 41.5 2
      vertex 4 37.95 41
    endloop
  endfacet
  facet normal 1 0 0
    outer loop
      vertex 4 31.5 2
      vertex 4 35.25 41
      vertex 4 31.5 53.5
    endloop
  endfacet
  facet normal 1 0 0
    outer loop
      vertex 4 35.25 41
      vertex 4 31.5 2
      vertex 4 41.5 2
    endloop
  endfacet
  facet normal 0 0 1
    outer loop
      vertex 28 69 2
      vertex 24 41.5 2
      vertex 28 41.5 2
    endloop
  endfacet
  facet normal 0 0 1
    outer loop
      vertex 4 31.5 2
      vertex 24 31.5 2
      vertex 24 41.5 2
    endloop
  endfacet
  facet normal 0 0 1
    outer loop
      vertex 24 31.5 2
      vertex 4 31.5 2
      vertex 21 4 2
    endloop
  endfacet
  facet normal 0 0 1
    outer loop
      vertex 4 41.5 2
      vertex 24 41.5 2
      vertex 28 69 2
    endloop
  endfacet
  facet normal 0 0 1
    outer loop
      vertex 21 4 2
      vertex 4 31.5 2
      vertex 7 4 2
    endloop
  endfacet
  facet normal 0 0 1
    outer loop
      vertex 24 41.5 2
      vertex 4 41.5 2
      vertex 4 31.5 2
    endloop
  endfacet
  facet normal -0 0 1
    outer loop
      vertex 0 69 2
      vertex 4 41.5 2
      vertex 28 69 2
    endloop
  endfacet
  facet normal 0 0 1
    outer loop
      vertex 4 41.5 2
      vertex 0 69 2
      vertex 0 41.5 2
    endloop
  endfacet
  facet normal 0 0 1
    outer loop
      vertex 21 4 2
      vertex 28 31.5 2
      vertex 24 31.5 2
    endloop
  endfacet
  facet normal 0 0 1
    outer loop
      vertex 28 31.5 2
      vertex 21 4 2
      vertex 28 0 2
    endloop
  endfacet
  facet normal 0 0 1
    outer loop
      vertex 28 0 2
      vertex 21 4 2
      vertex 21 0 2
    endloop
  endfacet
  facet normal -0 0 1
    outer loop
      vertex 0 31.5 2
      vertex 7 4 2
      vertex 4 31.5 2
    endloop
  endfacet
  facet normal 0 0 1
    outer loop
      vertex 7 4 2
      vertex 0 31.5 2
      vertex 0 0 2
    endloop
  endfacet
  facet normal 0 0 1
    outer loop
      vertex 7 4 2
      vertex 0 0 2
      vertex 7 0 2
    endloop
  endfacet
  facet normal 0 -1 0
    outer loop
      vertex 0 31.5 2
      vertex 4 31.5 53.5
      vertex 0 31.5 53.5
    endloop
  endfacet
  facet normal 0 -1 -0
    outer loop
      vertex 4 31.5 53.5
      vertex 0 31.5 2
      vertex 4 31.5 2
    endloop
  endfacet
  facet normal 0 1 -0
    outer loop
      vertex 4 41.5 2
      vertex 0 41.5 53.5
      vertex 4 41.5 53.5
    endloop
  endfacet
  facet normal 0 1 0
    outer loop
      vertex 0 41.5 53.5
      vertex 4 41.5 2
      vertex 0 41.5 2
    endloop
  endfacet
  facet normal 0 -1 0
    outer loop
      vertex 0 37.95 41
      vertex 4 37.95 53.5
      vertex 0 37.95 53.5
    endloop
  endfacet
  facet normal 0 -1 -0
    outer loop
      vertex 4 37.95 53.5
      vertex 0 37.95 41
      vertex 4 37.95 41
    endloop
  endfacet
  facet normal -0 0 1
    outer loop
      vertex 0 37.95 41
      vertex 4 35.25 41
      vertex 4 37.95 41
    endloop
  endfacet
  facet normal 0 0 1
    outer loop
      vertex 4 35.25 41
      vertex 0 37.95 41
      vertex 0 35.25 41
    endloop
  endfacet
  facet normal 0 1 -0
    outer loop
      vertex 4 35.25 41
      vertex 0 35.25 53.5
      vertex 4 35.25 53.5
    endloop
  endfacet
  facet normal 0 1 0
    outer loop
      vertex 0 35.25 53.5
      vertex 4 35.25 41
      vertex 0 35.25 41
    endloop
  endfacet
  facet normal -1 0 0
    outer loop
      vertex 24 41.5 2
      vertex 24 37.95 41
      vertex 24 41.5 53.5
    endloop
  endfacet
  facet normal -1 0 0
    outer loop
      vertex 24 41.5 2
      vertex 24 35.25 41
      vertex 24 37.95 41
    endloop
  endfacet
  facet normal -1 0 0
    outer loop
      vertex 24 31.5 2
      vertex 24 35.25 41
      vertex 24 41.5 2
    endloop
  endfacet
  facet normal -1 0 0
    outer loop
      vertex 24 31.5 53.5
      vertex 24 35.25 41
      vertex 24 31.5 2
    endloop
  endfacet
  facet normal -1 0 0
    outer loop
      vertex 24 35.25 41
      vertex 24 31.5 53.5
      vertex 24 35.25 53.5
    endloop
  endfacet
  facet normal -1 -0 0
    outer loop
      vertex 24 41.5 53.5
      vertex 24 37.95 41
      vertex 24 37.95 53.5
    endloop
  endfacet
  facet normal -0 0 1
    outer loop
      vertex 24 35.25 53.5
      vertex 28 31.5 53.5
      vertex 28 35.25 53.5
    endloop
  endfacet
  facet normal 0 0 1
    outer loop
      vertex 28 31.5 53.5
      vertex 24 35.25 53.5
      vertex 24 31.5 53.5
    endloop
  endfacet
  facet normal -0 0 1
    outer loop
      vertex 24 41.5 53.5
      vertex 28 37.95 53.5
      vertex 28 41.5 53.5
    endloop
  endfacet
  facet normal 0 0 1
    outer loop
      vertex 28 37.95 53.5
      vertex 24 41.5 53.5
      vertex 24 37.95 53.5
    endloop
  endfacet
  facet normal 1 0 0
    outer loop
      vertex 28 35.25 53.5
      vertex 28 31.5 53.5
      vertex 28 35.25 41
    endloop
  endfacet
  facet normal 1 0 0
    outer loop
      vertex 28 37.95 41
      vertex 28 41.5 53.5
      vertex 28 37.95 53.5
    endloop
  endfacet
  facet normal 1 -0 0
    outer loop
      vertex 28 41.5 2
      vertex 28 69 0
      vertex 28 69 2
    endloop
  endfacet
  facet normal 1 0 0
    outer loop
      vertex 28 41.5 53.5
      vertex 28 37.95 41
      vertex 28 41.5 2
    endloop
  endfacet
  facet normal 1 -0 0
    outer loop
      vertex 28 35.25 41
      vertex 28 41.5 2
      vertex 28 37.95 41
    endloop
  endfacet
  facet normal 1 0 0
    outer loop
      vertex 28 31.5 2
      vertex 28 35.25 41
      vertex 28 31.5 53.5
    endloop
  endfacet
  facet normal 1 0 0
    outer loop
      vertex 28 35.25 41
      vertex 28 31.5 2
      vertex 28 41.5 2
    endloop
  endfacet
  facet normal 1 -0 0
    outer loop
      vertex 28 31.5 2
      vertex 28 69 0
      vertex 28 41.5 2
    endloop
  endfacet
  facet normal 1 0 0
    outer loop
      vertex 28 0 0
      vertex 28 31.5 2
      vertex 28 0 2
    endloop
  endfacet
  facet normal 1 0 0
    outer loop
      vertex 28 31.5 2
      vertex 28 0 0
      vertex 28 69 0
    endloop
  endfacet
  facet normal 0 -1 0
    outer loop
      vertex 24 31.5 2
      vertex 28 31.5 53.5
      vertex 24 31.5 53.5
    endloop
  endfacet
  facet normal 0 -1 -0
    outer loop
      vertex 28 31.5 53.5
      vertex 24 31.5 2
      vertex 28 31.5 2
    endloop
  endfacet
  facet normal 0 1 -0
    outer loop
      vertex 28 41.5 2
      vertex 24 41.5 53.5
      vertex 28 41.5 53.5
    endloop
  endfacet
  facet normal 0 1 0
    outer loop
      vertex 24 41.5 53.5
      vertex 28 41.5 2
      vertex 24 41.5 2
    endloop
  endfacet
  facet normal 0 -1 0
    outer loop
      vertex 24 37.95 41
      vertex 28 37.95 53.5
      vertex 24 37.95 53.5
    endloop
  endfacet
  facet normal 0 -1 -0
    outer loop
      vertex 28 37.95 53.5
      vertex 24 37.95 41
      vertex 28 37.95 41
    endloop
  endfacet
  facet normal -0 0 1
    outer loop
      vertex 24 37.95 41
      vertex 28 35.25 41
      vertex 28 37.95 41
    endloop
  endfacet
  facet normal 0 0 1
    outer loop
      vertex 28 35.25 41
      vertex 24 37.95 41
      vertex 24 35.25 41
    endloop
  endfacet
  facet normal 0 1 -0
    outer loop
      vertex 28 35.25 41
      vertex 24 35.25 53.5
      vertex 28 35.25 53.5
    endloop
  endfacet
  facet normal 0 1 0
    outer loop
      vertex 24 35.25 53.5
      vertex 28 35.25 41
      vertex 24 35.25 41
    endloop
  endfacet
  facet normal -1 0 0
    outer loop
      vertex 7 0 2
      vertex 7 4 10
      vertex 7 4 2
    endloop
  endfacet
  facet normal -1 -0 0
    outer loop
      vertex 7 4 10
      vertex 7 0 2
      vertex 7 0 10
    endloop
  endfacet
  facet normal -0 0 1
    outer loop
      vertex 7 4 10
      vertex 21 0 10
      vertex 21 4 10
    endloop
  endfacet
  facet normal 0 0 1
    outer loop
      vertex 21 0 10
      vertex 7 4 10
      vertex 7 0 10
    endloop
  endfacet
  facet normal 1 -0 0
    outer loop
      vertex 21 0 10
      vertex 21 4 2
      vertex 21 4 10
    endloop
  endfacet
  facet normal 1 0 0
    outer loop
      vertex 21 4 2
      vertex 21 0 10
      vertex 21 0 2
    endloop
  endfacet
  facet normal 0 1 0
    outer loop
      vertex 21 4 10
      vertex 13.8955 4 6.99452
      vertex 7 4 10
    endloop
  endfacet
  facet normal 0 1 0
    outer loop
      vertex 21 4 10
      vertex 14.309 4 6.95106
      vertex 13.8955 4 6.99452
    endloop
  endfacet
  facet normal 0 1 0
    outer loop
      vertex 21 4 10
      vertex 14.6691 4 6.74314
      vertex 14.309 4 6.95106
    endloop
  endfacet
  facet normal 0 1 0
    outer loop
      vertex 21 4 10
      vertex 14.9135 4 6.40674
      vertex 14.6691 4 6.74314
    endloop
  endfacet
  facet normal 0 1 0
    outer loop
      vertex 21 4 10
      vertex 15 4 6
      vertex 14.9135 4 6.40674
    endloop
  endfacet
  facet normal 0 1 -0
    outer loop
      vertex 21 4 2
      vertex 15 4 6
      vertex 21 4 10
    endloop
  endfacet
  facet normal 0 1 0
    outer loop
      vertex 15 4 6
      vertex 21 4 2
      vertex 14.9135 4 5.59326
    endloop
  endfacet
  facet normal 0 1 0
    outer loop
      vertex 14.309 4 5.04894
      vertex 21 4 2
      vertex 13.8955 4 5.00548
    endloop
  endfacet
  facet normal 0 1 0
    outer loop
      vertex 14.6691 4 5.25686
      vertex 21 4 2
      vertex 14.309 4 5.04894
    endloop
  endfacet
  facet normal 0 1 0
    outer loop
      vertex 14.9135 4 5.59326
      vertex 21 4 2
      vertex 14.6691 4 5.25686
    endloop
  endfacet
  facet normal 0 1 -0
    outer loop
      vertex 13.5 4 6.86602
      vertex 7 4 10
      vertex 13.8955 4 6.99452
    endloop
  endfacet
  facet normal 0 1 -0
    outer loop
      vertex 13.191 4 6.58778
      vertex 7 4 10
      vertex 13.5 4 6.86602
    endloop
  endfacet
  facet normal 0 1 -0
    outer loop
      vertex 13.0219 4 6.20791
      vertex 7 4 10
      vertex 13.191 4 6.58778
    endloop
  endfacet
  facet normal 0 1 -0
    outer loop
      vertex 13.0219 4 5.79209
      vertex 7 4 10
      vertex 13.0219 4 6.20791
    endloop
  endfacet
  facet normal 0 1 0
    outer loop
      vertex 7 4 2
      vertex 13.0219 4 5.79209
      vertex 13.191 4 5.41221
    endloop
  endfacet
  facet normal 0 1 0
    outer loop
      vertex 7 4 2
      vertex 13.191 4 5.41221
      vertex 13.5 4 5.13397
    endloop
  endfacet
  facet normal 0 1 0
    outer loop
      vertex 7 4 2
      vertex 13.8955 4 5.00548
      vertex 21 4 2
    endloop
  endfacet
  facet normal 0 1 0
    outer loop
      vertex 13.0219 4 5.79209
      vertex 7 4 2
      vertex 7 4 10
    endloop
  endfacet
  facet normal 0 1 0
    outer loop
      vertex 13.8955 4 5.00548
      vertex 7 4 2
      vertex 13.5 4 5.13397
    endloop
  endfacet
  facet normal 0 -1 0
    outer loop
      vertex 0 0 0
      vertex 7 0 2
      vertex 0 0 2
    endloop
  endfacet
  facet normal 0 -1 -0
    outer loop
      vertex 7 0 2
      vertex 0 0 0
      vertex 21 0 2
    endloop
  endfacet
  facet normal 0 -1 0
    outer loop
      vertex 28 0 0
      vertex 21 0 2
      vertex 0 0 0
    endloop
  endfacet
  facet normal 0 -1 0
    outer loop
      vertex 21 0 2
      vertex 28 0 0
      vertex 28 0 2
    endloop
  endfacet
  facet normal 0 -1 0
    outer loop
      vertex 7 0 10
      vertex 13.8955 0 6.99452
      vertex 21 0 10
    endloop
  endfacet
  facet normal 0 -1 0
    outer loop
      vertex 7 0 10
      vertex 13.5 0 6.86602
      vertex 13.8955 0 6.99452
    endloop
  endfacet
  facet normal 0 -1 0
    outer loop
      vertex 7 0 10
      vertex 13.191 0 6.58778
      vertex 13.5 0 6.86602
    endloop
  endfacet
  facet normal 0 -1 0
    outer loop
      vertex 7 0 10
      vertex 13.0219 0 6.20791
      vertex 13.191 0 6.58778
    endloop
  endfacet
  facet normal 0 -1 0
    outer loop
      vertex 7 0 10
      vertex 13.0219 0 5.79209
      vertex 13.0219 0 6.20791
    endloop
  endfacet
  facet normal 0 -1 0
    outer loop
      vertex 7 0 2
      vertex 13.0219 0 5.79209
      vertex 7 0 10
    endloop
  endfacet
  facet normal 0 -1 -0
    outer loop
      vertex 13.0219 0 5.79209
      vertex 7 0 2
      vertex 13.191 0 5.41221
    endloop
  endfacet
  facet normal 0 -1 -0
    outer loop
      vertex 13.5 0 5.13397
      vertex 7 0 2
      vertex 13.8955 0 5.00548
    endloop
  endfacet
  facet normal 0 -1 -0
    outer loop
      vertex 13.191 0 5.41221
      vertex 7 0 2
      vertex 13.5 0 5.13397
    endloop
  endfacet
  facet normal 0 -1 0
    outer loop
      vertex 14.309 0 6.95106
      vertex 21 0 10
      vertex 13.8955 0 6.99452
    endloop
  endfacet
  facet normal 0 -1 0
    outer loop
      vertex 14.6691 0 6.74314
      vertex 21 0 10
      vertex 14.309 0 6.95106
    endloop
  endfacet
  facet normal 0 -1 0
    outer loop
      vertex 14.9135 0 6.40674
      vertex 21 0 10
      vertex 14.6691 0 6.74314
    endloop
  endfacet
  facet normal 0 -1 0
    outer loop
      vertex 15 0 6
      vertex 21 0 10
      vertex 14.9135 0 6.40674
    endloop
  endfacet
  facet normal 0 -1 0
    outer loop
      vertex 21 0 2
      vertex 15 0 6
      vertex 14.9135 0 5.59326
    endloop
  endfacet
  facet normal 0 -1 0
    outer loop
      vertex 21 0 2
      vertex 14.9135 0 5.59326
      vertex 14.6691 0 5.25686
    endloop
  endfacet
  facet normal 0 -1 0
    outer loop
      vertex 21 0 2
      vertex 13.8955 0 5.00548
      vertex 7 0 2
    endloop
  endfacet
  facet normal 0 -1 0
    outer loop
      vertex 15 0 6
      vertex 21 0 2
      vertex 21 0 10
    endloop
  endfacet
  facet normal 0 -1 0
    outer loop
      vertex 14.309 0 5.04894
      vertex 21 0 2
      vertex 14.6691 0 5.25686
    endloop
  endfacet
  facet normal 0 -1 0
    outer loop
      vertex 13.8955 0 5.00548
      vertex 21 0 2
      vertex 14.309 0 5.04894
    endloop
  endfacet
  facet normal -0.978147 0 -0.207914
    outer loop
      vertex 15 0 6
      vertex 14.9135 4 6.40674
      vertex 15 4 6
    endloop
  endfacet
  facet normal -0.978147 -0 -0.207914
    outer loop
      vertex 14.9135 4 6.40674
      vertex 15 0 6
      vertex 14.9135 0 6.40674
    endloop
  endfacet
  facet normal -0.809017 0 -0.587785
    outer loop
      vertex 14.9135 0 6.40674
      vertex 14.6691 4 6.74314
      vertex 14.9135 4 6.40674
    endloop
  endfacet
  facet normal -0.809017 -0 -0.587785
    outer loop
      vertex 14.6691 4 6.74314
      vertex 14.9135 0 6.40674
      vertex 14.6691 0 6.74314
    endloop
  endfacet
  facet normal 1 -0 0
    outer loop
      vertex 13.0219 0 6.20791
      vertex 13.0219 4 5.79209
      vertex 13.0219 4 6.20791
    endloop
  endfacet
  facet normal 1 0 0
    outer loop
      vertex 13.0219 4 5.79209
      vertex 13.0219 0 6.20791
      vertex 13.0219 0 5.79209
    endloop
  endfacet
  facet normal 0.309017 0 -0.951057
    outer loop
      vertex 13.5 0 6.86602
      vertex 13.8955 4 6.99452
      vertex 13.8955 0 6.99452
    endloop
  endfacet
  facet normal 0.309017 0 -0.951057
    outer loop
      vertex 13.8955 4 6.99452
      vertex 13.5 0 6.86602
      vertex 13.5 4 6.86602
    endloop
  endfacet
  facet normal -0.500001 0 0.866025
    outer loop
      vertex 14.309 4 5.04894
      vertex 14.6691 0 5.25686
      vertex 14.6691 4 5.25686
    endloop
  endfacet
  facet normal -0.500001 0 0.866025
    outer loop
      vertex 14.6691 0 5.25686
      vertex 14.309 4 5.04894
      vertex 14.309 0 5.04894
    endloop
  endfacet
  facet normal -0.500001 0 -0.866025
    outer loop
      vertex 14.309 0 6.95106
      vertex 14.6691 4 6.74314
      vertex 14.6691 0 6.74314
    endloop
  endfacet
  facet normal -0.500001 0 -0.866025
    outer loop
      vertex 14.6691 4 6.74314
      vertex 14.309 0 6.95106
      vertex 14.309 4 6.95106
    endloop
  endfacet
  facet normal 0.913545 0 -0.406738
    outer loop
      vertex 13.191 0 6.58778
      vertex 13.0219 4 6.20791
      vertex 13.191 4 6.58778
    endloop
  endfacet
  facet normal 0.913545 0 -0.406738
    outer loop
      vertex 13.0219 4 6.20791
      vertex 13.191 0 6.58778
      vertex 13.0219 0 6.20791
    endloop
  endfacet
  facet normal 0.66913 0 -0.743145
    outer loop
      vertex 13.191 0 6.58778
      vertex 13.5 4 6.86602
      vertex 13.5 0 6.86602
    endloop
  endfacet
  facet normal 0.66913 0 -0.743145
    outer loop
      vertex 13.5 4 6.86602
      vertex 13.191 0 6.58778
      vertex 13.191 4 6.58778
    endloop
  endfacet
  facet normal 0.913545 -0 0.406738
    outer loop
      vertex 13.0219 0 5.79209
      vertex 13.191 4 5.41221
      vertex 13.0219 4 5.79209
    endloop
  endfacet
  facet normal 0.913545 0 0.406738
    outer loop
      vertex 13.191 4 5.41221
      vertex 13.0219 0 5.79209
      vertex 13.191 0 5.41221
    endloop
  endfacet
  facet normal -0.104527 0 -0.994522
    outer loop
      vertex 13.8955 0 6.99452
      vertex 14.309 4 6.95106
      vertex 14.309 0 6.95106
    endloop
  endfacet
  facet normal -0.104527 0 -0.994522
    outer loop
      vertex 14.309 4 6.95106
      vertex 13.8955 0 6.99452
      vertex 13.8955 4 6.99452
    endloop
  endfacet
  facet normal -0.809017 0 0.587785
    outer loop
      vertex 14.6691 0 5.25686
      vertex 14.9135 4 5.59326
      vertex 14.6691 4 5.25686
    endloop
  endfacet
  facet normal -0.809017 0 0.587785
    outer loop
      vertex 14.9135 4 5.59326
      vertex 14.6691 0 5.25686
      vertex 14.9135 0 5.59326
    endloop
  endfacet
  facet normal -0.978147 0 0.207913
    outer loop
      vertex 14.9135 0 5.59326
      vertex 15 4 6
      vertex 14.9135 4 5.59326
    endloop
  endfacet
  facet normal -0.978147 0 0.207913
    outer loop
      vertex 15 4 6
      vertex 14.9135 0 5.59326
      vertex 15 0 6
    endloop
  endfacet
  facet normal 0.309017 0 0.951057
    outer loop
      vertex 13.5 4 5.13397
      vertex 13.8955 0 5.00548
      vertex 13.8955 4 5.00548
    endloop
  endfacet
  facet normal 0.309017 0 0.951057
    outer loop
      vertex 13.8955 0 5.00548
      vertex 13.5 4 5.13397
      vertex 13.5 0 5.13397
    endloop
  endfacet
  facet normal -0.104527 0 0.994522
    outer loop
      vertex 13.8955 4 5.00548
      vertex 14.309 0 5.04894
      vertex 14.309 4 5.04894
    endloop
  endfacet
  facet normal -0.104527 0 0.994522
    outer loop
      vertex 14.309 0 5.04894
      vertex 13.8955 4 5.00548
      vertex 13.8955 0 5.00548
    endloop
  endfacet
  facet normal 0.66913 0 0.743145
    outer loop
      vertex 13.191 4 5.41221
      vertex 13.5 0 5.13397
      vertex 13.5 4 5.13397
    endloop
  endfacet
  facet normal 0.66913 0 0.743145
    outer loop
      vertex 13.5 0 5.13397
      vertex 13.191 4 5.41221
      vertex 13.191 0 5.41221
    endloop
  endfacet
  facet normal 0 1 -0
    outer loop
      vertex 28 69 0
      vertex 0 69 2
      vertex 28 69 2
    endloop
  endfacet
  facet normal 0 1 0
    outer loop
      vertex 0 69 2
      vertex 28 69 0
      vertex 0 69 0
    endloop
  endfacet
  facet normal 0 0 -1
    outer loop
      vertex 0 0 0
      vertex 28 69 0
      vertex 28 0 0
    endloop
  endfacet
  facet normal -0 0 -1
    outer loop
      vertex 28 69 0
      vertex 0 0 0
      vertex 0 69 0
    endloop
  endfacet
endsolid OpenSCAD_Model
