solid OpenSCAD_Model
  facet normal 0 0 1
    outer loop
      vertex 17 5 10
      vertex 14 0 10
      vertex 17 -5 10
    endloop
  endfacet
  facet normal 0 0 1
    outer loop
      vertex 17 5 10
      vertex 9 0 10
      vertex 14 0 10
    endloop
  endfacet
  facet normal 0 0 1
    outer loop
      vertex 9 0 10
      vertex 5 0 10
      vertex 9 -21 10
    endloop
  endfacet
  facet normal -0 0 1
    outer loop
      vertex 0 5 10
      vertex 9 0 10
      vertex 17 5 10
    endloop
  endfacet
  facet normal 0 0 1
    outer loop
      vertex 9 0 10
      vertex 0 5 10
      vertex 5 0 10
    endloop
  endfacet
  facet normal 0 0 1
    outer loop
      vertex 5 0 10
      vertex 0 5 10
      vertex 2.20649 0 10
    endloop
  endfacet
  facet normal -0 0 1
    outer loop
      vertex -1.83497 5 10
      vertex 2.20649 0 10
      vertex 0 5 10
    endloop
  endfacet
  facet normal 0 0 1
    outer loop
      vertex -6.90206 -3.77646 10
      vertex 2.20649 0 10
      vertex -1.83497 5 10
    endloop
  endfacet
  facet normal 0 0 1
    outer loop
      vertex 2.20649 0 10
      vertex -6.90206 -3.77646 10
      vertex -1.7059 -6.77646 10
    endloop
  endfacet
  facet normal 0 0 1
    outer loop
      vertex 17 -5 10
      vertex 14 0 10
      vertex 14 -5 10
    endloop
  endfacet
  facet normal -0 0 1
    outer loop
      vertex 9 -21 10
      vertex 12 -24 10
      vertex 12 -21 10
    endloop
  endfacet
  facet normal 0 0 1
    outer loop
      vertex 9 -21 10
      vertex 5 -24 10
      vertex 12 -24 10
    endloop
  endfacet
  facet normal 0 0 1
    outer loop
      vertex 5 -24 10
      vertex 9 -21 10
      vertex 5 0 10
    endloop
  endfacet
  facet normal -0.866025 0.5 4.00054e-07
    outer loop
      vertex -3.09459 2.81827 2.20239
      vertex -1.83497 5 0
      vertex -3.08536 2.83426 1.90895
    endloop
  endfacet
  facet normal -0.866025 0.5 -2.9802e-07
    outer loop
      vertex -1.83497 5 0
      vertex -3.1129 2.78655 1.62015
      vertex -3.08536 2.83426 1.90895
    endloop
  endfacet
  facet normal -0.866025 0.5 -2.2561e-07
    outer loop
      vertex -1.83497 5 0
      vertex -3.11941 2.77528 1.55192
      vertex -3.1129 2.78655 1.62015
    endloop
  endfacet
  facet normal -0.866025 0.5 -2.03773e-07
    outer loop
      vertex -1.83497 5 0
      vertex -3.19679 2.64125 1.22305
      vertex -3.11941 2.77528 1.55192
    endloop
  endfacet
  facet normal -0.866025 0.5 -2.10012e-08
    outer loop
      vertex -1.83497 5 0
      vertex -3.31263 2.44061 0.942995
      vertex -3.19679 2.64125 1.22305
    endloop
  endfacet
  facet normal -0.866025 0.5 9.34302e-08
    outer loop
      vertex -1.83497 5 0
      vertex -3.45966 2.18596 0.729355
      vertex -3.31263 2.44061 0.942995
    endloop
  endfacet
  facet normal -0.866025 0.5 1.26564e-06
    outer loop
      vertex -1.83497 5 0
      vertex -3.49194 2.13003 0.703787
      vertex -3.45966 2.18596 0.729355
    endloop
  endfacet
  facet normal -0.866025 0.5 -1.50288e-07
    outer loop
      vertex -1.83497 5 0
      vertex -3.62863 1.89329 0.595554
      vertex -3.49194 2.13003 0.703787
    endloop
  endfacet
  facet normal -0.866025 0.5 -5.08222e-07
    outer loop
      vertex -1.83497 5 0
      vertex -3.77447 1.64068 0.558704
      vertex -3.62863 1.89329 0.595554
    endloop
  endfacet
  facet normal -0.866025 0.5 2.86038e-06
    outer loop
      vertex -1.83497 5 0
      vertex -3.80893 1.581 0.549999
      vertex -3.77447 1.64068 0.558704
    endloop
  endfacet
  facet normal -0.866025 0.5 -6.41674e-08
    outer loop
      vertex -6.90206 -3.77646 0
      vertex -3.80893 1.581 0.549999
      vertex -1.83497 5 0
    endloop
  endfacet
  facet normal -0.866025 0.5 1.92457e-07
    outer loop
      vertex -3.80893 1.581 0.549999
      vertex -6.90206 -3.77646 0
      vertex -3.95477 1.32839 0.586849
    endloop
  endfacet
  facet normal -0.866025 0.5 -8.30975e-08
    outer loop
      vertex -4.49844 0.386725 1.55192
      vertex -6.90206 -3.77646 0
      vertex -4.5325 0.327742 1.90895
    endloop
  endfacet
  facet normal -0.866026 0.499999 1.88453e-06
    outer loop
      vertex -4.48366 0.412335 1.48908
      vertex -6.90206 -3.77646 0
      vertex -4.49844 0.386725 1.55192
    endloop
  endfacet
  facet normal -0.866025 0.5 -1.08084e-06
    outer loop
      vertex -4.42106 0.520747 1.22305
      vertex -6.90206 -3.77646 0
      vertex -4.48366 0.412335 1.48908
    endloop
  endfacet
  facet normal -0.866025 0.5 3.89549e-07
    outer loop
      vertex -4.32736 0.68305 0.99651
      vertex -6.90206 -3.77646 0
      vertex -4.42106 0.520747 1.22305
    endloop
  endfacet
  facet normal -0.866025 0.5 9.45124e-07
    outer loop
      vertex -4.30522 0.72139 0.942995
      vertex -6.90206 -3.77646 0
      vertex -4.32736 0.68305 0.99651
    endloop
  endfacet
  facet normal -0.866025 0.5 -3.05309e-07
    outer loop
      vertex -4.1582 0.976045 0.729355
      vertex -6.90206 -3.77646 0
      vertex -4.30522 0.72139 0.942995
    endloop
  endfacet
  facet normal -0.866025 0.5 1.17045e-06
    outer loop
      vertex -3.98923 1.26871 0.595554
      vertex -6.90206 -3.77646 0
      vertex -4.1582 0.976045 0.729355
    endloop
  endfacet
  facet normal -0.866025 0.500001 -7.24893e-06
    outer loop
      vertex -3.95477 1.32839 0.586849
      vertex -6.90206 -3.77646 0
      vertex -3.98923 1.26871 0.595554
    endloop
  endfacet
  facet normal -0.866026 0.5 -6.08586e-07
    outer loop
      vertex -3.09677 2.8145 2.2717
      vertex -1.83497 5 0
      vertex -3.09459 2.81827 2.20239
    endloop
  endfacet
  facet normal -0.866024 0.500002 2.90596e-06
    outer loop
      vertex -3.1075 2.79591 2.33776
      vertex -1.83497 5 0
      vertex -3.09677 2.8145 2.2717
    endloop
  endfacet
  facet normal -0.866025 0.5 -8.44658e-09
    outer loop
      vertex -3.15293 2.71723 2.61738
      vertex -1.83497 5 0
      vertex -3.1075 2.79591 2.33776
    endloop
  endfacet
  facet normal -0.866025 0.5 0
    outer loop
      vertex -1.83497 5 0
      vertex -3.15293 2.71723 2.61738
      vertex -1.83497 5 10
    endloop
  endfacet
  facet normal -0.866025 0.5 -9.90152e-08
    outer loop
      vertex -3.2317 2.58079 2.86562
      vertex -1.83497 5 10
      vertex -3.15293 2.71723 2.61738
    endloop
  endfacet
  facet normal -0.866026 0.499999 2.93344e-07
    outer loop
      vertex -3.2503 2.54856 2.92426
      vertex -1.83497 5 10
      vertex -3.2317 2.58079 2.86562
    endloop
  endfacet
  facet normal -0.866025 0.5 -1.99294e-08
    outer loop
      vertex -3.38278 2.3191 3.17307
      vertex -1.83497 5 10
      vertex -3.2503 2.54856 2.92426
    endloop
  endfacet
  facet normal -0.866025 0.5 -7.49232e-08
    outer loop
      vertex -3.54204 2.04327 3.34818
      vertex -1.83497 5 10
      vertex -3.38278 2.3191 3.17307
    endloop
  endfacet
  facet normal -0.866025 0.5 3.00182e-08
    outer loop
      vertex -3.57567 1.98501 3.36545
      vertex -1.83497 5 10
      vertex -3.54204 2.04327 3.34818
    endloop
  endfacet
  facet normal -0.866026 0.5 2.35864e-07
    outer loop
      vertex -3.71806 1.73839 3.43857
      vertex -1.83497 5 10
      vertex -3.57567 1.98501 3.36545
    endloop
  endfacet
  facet normal -0.866025 0.5 -1.46405e-07
    outer loop
      vertex -3.89979 1.42362 3.43857
      vertex -1.83497 5 10
      vertex -3.71806 1.73839 3.43857
    endloop
  endfacet
  facet normal -0.866025 0.5 7.8413e-08
    outer loop
      vertex -6.90206 -3.77646 10
      vertex -3.89979 1.42362 3.43857
      vertex -4.07582 1.11873 3.34818
    endloop
  endfacet
  facet normal -0.866025 0.5 1.26214e-07
    outer loop
      vertex -6.90206 -3.77646 10
      vertex -4.07582 1.11873 3.34818
      vertex -4.23507 0.842897 3.17307
    endloop
  endfacet
  facet normal -0.866026 0.5 -4.56704e-07
    outer loop
      vertex -6.90206 -3.77646 10
      vertex -4.23507 0.842897 3.17307
      vertex -4.36755 0.61344 2.92426
    endloop
  endfacet
  facet normal -0.866026 0.5 8.13179e-07
    outer loop
      vertex -6.90206 -3.77646 0
      vertex -4.53032 0.331518 1.97827
      vertex -4.5325 0.327742 1.90895
    endloop
  endfacet
  facet normal -0.866025 0.5 -5.95034e-07
    outer loop
      vertex -6.90206 -3.77646 0
      vertex -4.52109 0.347507 2.2717
      vertex -4.53032 0.331518 1.97827
    endloop
  endfacet
  facet normal -0.866026 0.499999 1.26025e-06
    outer loop
      vertex -6.90206 -3.77646 0
      vertex -4.47566 0.426189 2.55132
      vertex -4.52109 0.347507 2.2717
    endloop
  endfacet
  facet normal -0.866025 0.5 -6.0711e-07
    outer loop
      vertex -6.90206 -3.77646 0
      vertex -4.46493 0.444776 2.61738
      vertex -4.47566 0.426189 2.55132
    endloop
  endfacet
  facet normal -0.866025 0.5 0
    outer loop
      vertex -6.90206 -3.77646 10
      vertex -4.46493 0.444776 2.61738
      vertex -6.90206 -3.77646 0
    endloop
  endfacet
  facet normal -0.866025 0.5 1.26509e-07
    outer loop
      vertex -4.46493 0.444776 2.61738
      vertex -6.90206 -3.77646 10
      vertex -4.36755 0.61344 2.92426
    endloop
  endfacet
  facet normal -0.866025 0.5 2.52233e-09
    outer loop
      vertex -3.89979 1.42362 3.43857
      vertex -6.90206 -3.77646 10
      vertex -1.83497 5 10
    endloop
  endfacet
  facet normal -0.5 -0.866025 0
    outer loop
      vertex -6.90206 -3.77646 0
      vertex -1.7059 -6.77646 10
      vertex -6.90206 -3.77646 10
    endloop
  endfacet
  facet normal -0.5 -0.866025 -0
    outer loop
      vertex -1.7059 -6.77646 10
      vertex -6.90206 -3.77646 0
      vertex -1.7059 -6.77646 0
    endloop
  endfacet
  facet normal 0 0 -1
    outer loop
      vertex 12 -24 0
      vertex 9 -21 0
      vertex 12 -21 0
    endloop
  endfacet
  facet normal 0 0 -1
    outer loop
      vertex 5 0 0
      vertex 9 -21 0
      vertex 5 -24 0
    endloop
  endfacet
  facet normal 0 0 -1
    outer loop
      vertex 5 -24 0
      vertex 9 -21 0
      vertex 12 -24 0
    endloop
  endfacet
  facet normal 0 0 -1
    outer loop
      vertex 14 0 0
      vertex 17 -5 0
      vertex 14 -5 0
    endloop
  endfacet
  facet normal 0 0 -1
    outer loop
      vertex 17 -5 0
      vertex 14 0 0
      vertex 17 5 0
    endloop
  endfacet
  facet normal 0 0 -1
    outer loop
      vertex 9 0 0
      vertex 17 5 0
      vertex 14 0 0
    endloop
  endfacet
  facet normal 0 0 -1
    outer loop
      vertex 9 -21 0
      vertex 5 0 0
      vertex 9 0 0
    endloop
  endfacet
  facet normal 0 0 -1
    outer loop
      vertex 0 5 0
      vertex 9 0 0
      vertex 5 0 0
    endloop
  endfacet
  facet normal 0 0 -1
    outer loop
      vertex 0 5 0
      vertex 5 0 0
      vertex 2.20649 0 0
    endloop
  endfacet
  facet normal 0 0 -1
    outer loop
      vertex 9 0 0
      vertex 0 5 0
      vertex 17 5 0
    endloop
  endfacet
  facet normal 0 0 -1
    outer loop
      vertex -6.90206 -3.77646 0
      vertex 2.20649 0 0
      vertex -1.7059 -6.77646 0
    endloop
  endfacet
  facet normal 0 0 -1
    outer loop
      vertex 2.20649 0 0
      vertex -1.83497 5 0
      vertex 0 5 0
    endloop
  endfacet
  facet normal -0 0 -1
    outer loop
      vertex 2.20649 0 0
      vertex -6.90206 -3.77646 0
      vertex -1.83497 5 0
    endloop
  endfacet
  facet normal 0.866025 -0.5 0
    outer loop
      vertex 2.10841 -0.169869 1.98474
      vertex 2.20649 0 0
      vertex 2.20649 0 10
    endloop
  endfacet
  facet normal 0.866029 -0.499995 6.33885e-07
    outer loop
      vertex 2.20649 0 0
      vertex 2.10841 -0.169869 1.98474
      vertex 2.1108 -0.16574 1.90895
    endloop
  endfacet
  facet normal 0.866024 -0.500003 7.75808e-08
    outer loop
      vertex 2.20649 0 10
      vertex 2.09938 -0.185505 2.2717
      vertex 2.10841 -0.169869 1.98474
    endloop
  endfacet
  facet normal 0.866026 -0.499999 -4.30136e-08
    outer loop
      vertex 2.20649 0 10
      vertex 2.05496 -0.262453 2.54516
      vertex 2.09938 -0.185505 2.2717
    endloop
  endfacet
  facet normal 0.866023 -0.500003 1.58736e-07
    outer loop
      vertex 2.20649 0 10
      vertex 2.04323 -0.282774 2.61738
      vertex 2.05496 -0.262453 2.54516
    endloop
  endfacet
  facet normal 0.866026 -0.499999 -7.72699e-08
    outer loop
      vertex 2.20649 0 10
      vertex 2.02288 -0.31801 2.68149
      vertex 2.04323 -0.282774 2.61738
    endloop
  endfacet
  facet normal 0.866025 -0.5 -8.23864e-09
    outer loop
      vertex 2.20649 0 10
      vertex 1.94585 -0.451437 2.92426
      vertex 2.02288 -0.31801 2.68149
    endloop
  endfacet
  facet normal 0.866025 -0.5 -7.90804e-09
    outer loop
      vertex 2.20649 0 10
      vertex 1.81337 -0.680896 3.17307
      vertex 1.94585 -0.451437 2.92426
    endloop
  endfacet
  facet normal 0.866025 -0.5 2.56023e-08
    outer loop
      vertex 2.20649 0 10
      vertex 1.65412 -0.956732 3.34818
      vertex 1.81337 -0.680896 3.17307
    endloop
  endfacet
  facet normal 0.866025 -0.5 -3.63615e-08
    outer loop
      vertex 2.20649 0 10
      vertex 1.51487 -1.19792 3.41968
      vertex 1.65412 -0.956732 3.34818
    endloop
  endfacet
  facet normal 0.866025 -0.500001 1.60632e-07
    outer loop
      vertex 2.20649 0 10
      vertex 1.47809 -1.26161 3.43857
      vertex 1.51487 -1.19792 3.41968
    endloop
  endfacet
  facet normal 0.866025 -0.5 -1.83061e-08
    outer loop
      vertex 2.20649 0 10
      vertex 1.29636 -1.57638 3.43857
      vertex 1.47809 -1.26161 3.43857
    endloop
  endfacet
  facet normal 0.866025 -0.5 2.52362e-08
    outer loop
      vertex 2.20649 0 10
      vertex 1.12034 -1.88127 3.34818
      vertex 1.29636 -1.57638 3.43857
    endloop
  endfacet
  facet normal 0.866025 -0.5 -1.04835e-08
    outer loop
      vertex -1.7059 -6.77646 10
      vertex 1.12034 -1.88127 3.34818
      vertex 2.20649 0 10
    endloop
  endfacet
  facet normal 0.866025 -0.5 5.98829e-08
    outer loop
      vertex 1.12034 -1.88127 3.34818
      vertex -1.7059 -6.77646 10
      vertex 0.961082 -2.1571 3.17307
    endloop
  endfacet
  facet normal 0.866025 -0.5 8.93554e-08
    outer loop
      vertex 0.961082 -2.1571 3.17307
      vertex -1.7059 -6.77646 10
      vertex 0.828604 -2.38656 2.92426
    endloop
  endfacet
  facet normal 0.866025 -0.5 3.65549e-07
    outer loop
      vertex 0.675068 -2.65249 2.2717
      vertex -1.7059 -6.77646 0
      vertex 0.672684 -2.65662 2.19592
    endloop
  endfacet
  facet normal 0.866025 -0.5 -9.39985e-08
    outer loop
      vertex 0.6868 -2.63217 2.34392
      vertex -1.7059 -6.77646 0
      vertex 0.675068 -2.65249 2.2717
    endloop
  endfacet
  facet normal 0.866025 -0.5 -8.02501e-08
    outer loop
      vertex 0.731226 -2.55522 2.61738
      vertex -1.7059 -6.77646 0
      vertex 0.6868 -2.63217 2.34392
    endloop
  endfacet
  facet normal 0.866025 -0.5 0
    outer loop
      vertex -1.7059 -6.77646 0
      vertex 0.731226 -2.55522 2.61738
      vertex -1.7059 -6.77646 10
    endloop
  endfacet
  facet normal 0.866025 -0.5 -8.45199e-09
    outer loop
      vertex 0.828604 -2.38656 2.92426
      vertex -1.7059 -6.77646 10
      vertex 0.731226 -2.55522 2.61738
    endloop
  endfacet
  facet normal 0.866024 -0.500002 -1.92014e-07
    outer loop
      vertex 2.10368 -0.178062 1.83437
      vertex 2.20649 0 0
      vertex 2.1108 -0.16574 1.90895
    endloop
  endfacet
  facet normal 0.866026 -0.5 5.06471e-08
    outer loop
      vertex 2.07674 -0.224722 1.55192
      vertex 2.20649 0 0
      vertex 2.10368 -0.178062 1.83437
    endloop
  endfacet
  facet normal 0.866025 -0.5 1.70694e-08
    outer loop
      vertex 1.99936 -0.358746 1.22305
      vertex 2.20649 0 0
      vertex 2.07674 -0.224722 1.55192
    endloop
  endfacet
  facet normal 0.866025 -0.5 -2.25353e-08
    outer loop
      vertex 1.88352 -0.559388 0.942995
      vertex 2.20649 0 0
      vertex 1.99936 -0.358746 1.22305
    endloop
  endfacet
  facet normal 0.866025 -0.5 -3.01418e-08
    outer loop
      vertex 1.7365 -0.814043 0.729355
      vertex 2.20649 0 0
      vertex 1.88352 -0.559388 0.942995
    endloop
  endfacet
  facet normal 0.866025 -0.5 1.9039e-07
    outer loop
      vertex 1.60283 -1.04557 0.623507
      vertex 2.20649 0 0
      vertex 1.7365 -0.814043 0.729355
    endloop
  endfacet
  facet normal 0.866025 -0.5 1.39093e-07
    outer loop
      vertex 1.56753 -1.10671 0.595554
      vertex 2.20649 0 0
      vertex 1.60283 -1.04557 0.623507
    endloop
  endfacet
  facet normal 0.866025 -0.500001 -1.32619e-06
    outer loop
      vertex 1.52986 -1.17195 0.586037
      vertex 2.20649 0 0
      vertex 1.56753 -1.10671 0.595554
    endloop
  endfacet
  facet normal 0.866025 -0.5 4.43741e-07
    outer loop
      vertex 1.38723 -1.419 0.549999
      vertex 2.20649 0 0
      vertex 1.52986 -1.17195 0.586037
    endloop
  endfacet
  facet normal 0.866025 -0.5 2.92952e-08
    outer loop
      vertex 1.34956 -1.48424 0.559516
      vertex 2.20649 0 0
      vertex 1.38723 -1.419 0.549999
    endloop
  endfacet
  facet normal 0.866025 -0.5 -3.00752e-07
    outer loop
      vertex 1.20693 -1.73129 0.595554
      vertex 2.20649 0 0
      vertex 1.34956 -1.48424 0.559516
    endloop
  endfacet
  facet normal 0.866025 -0.5 -3.31215e-07
    outer loop
      vertex -1.7059 -6.77646 0
      vertex 0.799289 -2.43734 1.16454
      vertex 0.775088 -2.47925 1.22305
    endloop
  endfacet
  facet normal 0.866025 -0.5 -8.57501e-08
    outer loop
      vertex 0.672684 -2.65662 2.19592
      vertex -1.7059 -6.77646 0
      vertex 0.663656 -2.67226 1.90895
    endloop
  endfacet
  facet normal 0.866025 -0.5 -5.36119e-08
    outer loop
      vertex 0.663656 -2.67226 1.90895
      vertex -1.7059 -6.77646 0
      vertex 0.69771 -2.61328 1.55192
    endloop
  endfacet
  facet normal 0.866025 -0.5 1.93124e-07
    outer loop
      vertex 0.69771 -2.61328 1.55192
      vertex -1.7059 -6.77646 0
      vertex 0.758923 -2.50725 1.29176
    endloop
  endfacet
  facet normal 0.866025 -0.5 -1.97961e-08
    outer loop
      vertex 1.20693 -1.73129 0.595554
      vertex -1.7059 -6.77646 0
      vertex 2.20649 0 0
    endloop
  endfacet
  facet normal 0.866025 -0.5 5.42179e-09
    outer loop
      vertex 1.03795 -2.02395 0.729355
      vertex -1.7059 -6.77646 0
      vertex 1.20693 -1.73129 0.595554
    endloop
  endfacet
  facet normal 0.866025 -0.5 1.13694e-07
    outer loop
      vertex 0.890929 -2.27861 0.942995
      vertex -1.7059 -6.77646 0
      vertex 1.03795 -2.02395 0.729355
    endloop
  endfacet
  facet normal 0.866025 -0.5 1.33594e-07
    outer loop
      vertex 0.799289 -2.43734 1.16454
      vertex -1.7059 -6.77646 0
      vertex 0.890929 -2.27861 0.942995
    endloop
  endfacet
  facet normal 0.866025 -0.5 -7.77027e-07
    outer loop
      vertex 0.758923 -2.50725 1.29176
      vertex -1.7059 -6.77646 0
      vertex 0.775088 -2.47925 1.22305
    endloop
  endfacet
  facet normal 0 1 -0
    outer loop
      vertex 17 5 0
      vertex 0 5 10
      vertex 17 5 10
    endloop
  endfacet
  facet normal 0 1 0
    outer loop
      vertex 0 5 10
      vertex 17 5 0
      vertex 0 5 0
    endloop
  endfacet
  facet normal 0 1 -0
    outer loop
      vertex 0 5 0
      vertex -1.83497 5 10
      vertex 0 5 10
    endloop
  endfacet
  facet normal 0 1 0
    outer loop
      vertex -1.83497 5 10
      vertex 0 5 0
      vertex -1.83497 5 0
    endloop
  endfacet
  facet normal 0 -1 0
    outer loop
      vertex 9 0 0
      vertex 14 0 10
      vertex 9 0 10
    endloop
  endfacet
  facet normal 0 -1 -0
    outer loop
      vertex 14 0 10
      vertex 9 0 0
      vertex 14 0 0
    endloop
  endfacet
  facet normal 0 -1 0
    outer loop
      vertex 2.20649 0 0
      vertex 5 0 10
      vertex 2.20649 0 10
    endloop
  endfacet
  facet normal 0 -1 -0
    outer loop
      vertex 5 0 10
      vertex 2.20649 0 0
      vertex 5 0 0
    endloop
  endfacet
  facet normal -1 0 0
    outer loop
      vertex 5 -24 0
      vertex 5 0 10
      vertex 5 0 0
    endloop
  endfacet
  facet normal -1 -0 0
    outer loop
      vertex 5 0 10
      vertex 5 -24 0
      vertex 5 -24 10
    endloop
  endfacet
  facet normal 1 -0 0
    outer loop
      vertex 9 -21 10
      vertex 9 0 0
      vertex 9 0 10
    endloop
  endfacet
  facet normal 1 0 0
    outer loop
      vertex 9 0 0
      vertex 9 -21 10
      vertex 9 -21 0
    endloop
  endfacet
  facet normal 0 -1 0
    outer loop
      vertex 5 -24 0
      vertex 12 -24 10
      vertex 5 -24 10
    endloop
  endfacet
  facet normal 0 -1 -0
    outer loop
      vertex 12 -24 10
      vertex 5 -24 0
      vertex 12 -24 0
    endloop
  endfacet
  facet normal 1 -0 0
    outer loop
      vertex 17 -5 10
      vertex 17 5 0
      vertex 17 5 10
    endloop
  endfacet
  facet normal 1 0 0
    outer loop
      vertex 17 5 0
      vertex 17 -5 10
      vertex 17 -5 0
    endloop
  endfacet
  facet normal -1 0 0
    outer loop
      vertex 14 -5 0
      vertex 14 0 10
      vertex 14 0 0
    endloop
  endfacet
  facet normal -1 -0 0
    outer loop
      vertex 14 0 10
      vertex 14 -5 0
      vertex 14 -5 10
    endloop
  endfacet
  facet normal 0 -1 0
    outer loop
      vertex 14 -5 0
      vertex 17 -5 10
      vertex 14 -5 10
    endloop
  endfacet
  facet normal 0 -1 -0
    outer loop
      vertex 17 -5 10
      vertex 14 -5 0
      vertex 17 -5 0
    endloop
  endfacet
  facet normal 1 -0 0
    outer loop
      vertex 12 -24 10
      vertex 12 -21 0
      vertex 12 -21 10
    endloop
  endfacet
  facet normal 1 0 0
    outer loop
      vertex 12 -21 0
      vertex 12 -24 10
      vertex 12 -24 0
    endloop
  endfacet
  facet normal 0 1 -0
    outer loop
      vertex 12 -21 0
      vertex 9 -21 10
      vertex 12 -21 10
    endloop
  endfacet
  facet normal 0 1 0
    outer loop
      vertex 9 -21 10
      vertex 12 -21 0
      vertex 9 -21 0
    endloop
  endfacet
  facet normal 0.0626676 0.108543 0.992114
    outer loop
      vertex -3.95477 1.32839 0.586849
      vertex 1.20693 -1.73129 0.595554
      vertex 1.34956 -1.48424 0.559516
    endloop
  endfacet
  facet normal 0.0626677 0.108544 0.992114
    outer loop
      vertex 1.20693 -1.73129 0.595554
      vertex -3.95477 1.32839 0.586849
      vertex -3.98923 1.26871 0.595554
    endloop
  endfacet
  facet normal -0.124346 -0.215373 -0.968583
    outer loop
      vertex -3.57567 1.98501 3.36545
      vertex 1.65412 -0.956732 3.34818
      vertex 1.51487 -1.19792 3.41968
    endloop
  endfacet
  facet normal -0.124345 -0.215372 -0.968583
    outer loop
      vertex 1.65412 -0.956732 3.34818
      vertex -3.57567 1.98501 3.36545
      vertex -3.54204 2.04327 3.34818
    endloop
  endfacet
  facet normal 0.184062 0.318805 0.929777
    outer loop
      vertex -3.98923 1.26871 0.595554
      vertex 1.03795 -2.02395 0.729355
      vertex 1.20693 -1.73129 0.595554
    endloop
  endfacet
  facet normal 0.184062 0.318805 0.929777
    outer loop
      vertex 1.03795 -2.02395 0.729355
      vertex -3.98923 1.26871 0.595554
      vertex -4.1582 0.976045 0.729355
    endloop
  endfacet
  facet normal 0.0626673 0.108543 0.992115
    outer loop
      vertex -3.80893 1.581 0.549999
      vertex 1.34956 -1.48424 0.559516
      vertex 1.38723 -1.419 0.549999
    endloop
  endfacet
  facet normal 0.0626674 0.108543 0.992114
    outer loop
      vertex 1.34956 -1.48424 0.559516
      vertex -3.80893 1.581 0.549999
      vertex -3.95477 1.32839 0.586849
    endloop
  endfacet
  facet normal -0.0626675 -0.108543 0.992114
    outer loop
      vertex -3.77447 1.64068 0.558704
      vertex 1.38723 -1.419 0.549999
      vertex 1.52986 -1.17195 0.586037
    endloop
  endfacet
  facet normal -0.0626676 -0.108543 0.992114
    outer loop
      vertex 1.38723 -1.419 0.549999
      vertex -3.77447 1.64068 0.558704
      vertex -3.80893 1.581 0.549999
    endloop
  endfacet
  facet normal 0.499013 0.864317 -0.0627903
    outer loop
      vertex 0.663656 -2.67226 1.90895
      vertex -4.53032 0.331518 1.97827
      vertex 0.672684 -2.65662 2.19592
    endloop
  endfacet
  facet normal 0.499013 0.864317 -0.0627908
    outer loop
      vertex -4.53032 0.331518 1.97827
      vertex 0.663656 -2.67226 1.90895
      vertex -4.5325 0.327742 1.90895
    endloop
  endfacet
  facet normal 0.499013 0.864316 -0.0627915
    outer loop
      vertex 0.672684 -2.65662 2.19592
      vertex -4.52109 0.347507 2.2717
      vertex 0.675068 -2.65249 2.2717
    endloop
  endfacet
  facet normal 0.499013 0.864316 -0.0627916
    outer loop
      vertex -4.52109 0.347507 2.2717
      vertex 0.672684 -2.65662 2.19592
      vertex -4.53032 0.331518 1.97827
    endloop
  endfacet
  facet normal -0.491144 -0.850686 0.18738
    outer loop
      vertex -3.08536 2.83426 1.90895
      vertex 2.10368 -0.178062 1.83437
      vertex 2.1108 -0.16574 1.90895
    endloop
  endfacet
  facet normal -0.491144 -0.850686 0.18738
    outer loop
      vertex 2.10368 -0.178062 1.83437
      vertex -3.08536 2.83426 1.90895
      vertex -3.1129 2.78655 1.62015
    endloop
  endfacet
  facet normal -0.499013 -0.864316 -0.0627912
    outer loop
      vertex -3.09459 2.81827 2.20239
      vertex 2.09938 -0.185505 2.2717
      vertex -3.09677 2.8145 2.2717
    endloop
  endfacet
  facet normal -0.499013 -0.864316 -0.062792
    outer loop
      vertex 2.09938 -0.185505 2.2717
      vertex -3.09459 2.81827 2.20239
      vertex 2.10841 -0.169869 1.98474
    endloop
  endfacet
  facet normal 0.293892 0.509036 0.809017
    outer loop
      vertex -4.1582 0.976045 0.729355
      vertex 0.890929 -2.27861 0.942995
      vertex 1.03795 -2.02395 0.729355
    endloop
  endfacet
  facet normal 0.293892 0.509036 0.809017
    outer loop
      vertex 0.890929 -2.27861 0.942995
      vertex -4.1582 0.976045 0.729355
      vertex -4.30522 0.72139 0.942995
    endloop
  endfacet
  facet normal -0.184062 -0.318805 0.929777
    outer loop
      vertex -3.62863 1.89329 0.595554
      vertex 1.60283 -1.04557 0.623507
      vertex -3.49194 2.13003 0.703787
    endloop
  endfacet
  facet normal -0.184062 -0.318804 0.929777
    outer loop
      vertex 1.60283 -1.04557 0.623507
      vertex -3.62863 1.89329 0.595554
      vertex 1.56753 -1.10671 0.595554
    endloop
  endfacet
  facet normal -0.184061 -0.318804 0.929777
    outer loop
      vertex -3.49194 2.13003 0.703787
      vertex 1.7365 -0.814043 0.729355
      vertex -3.45966 2.18596 0.729355
    endloop
  endfacet
  facet normal -0.184062 -0.318805 0.929777
    outer loop
      vertex 1.7365 -0.814043 0.729355
      vertex -3.49194 2.13003 0.703787
      vertex 1.60283 -1.04557 0.623507
    endloop
  endfacet
  facet normal -0.475528 -0.823639 -0.309017
    outer loop
      vertex -3.1075 2.79591 2.33776
      vertex 2.04323 -0.282774 2.61738
      vertex -3.15293 2.71723 2.61738
    endloop
  endfacet
  facet normal -0.475528 -0.823639 -0.309017
    outer loop
      vertex 2.04323 -0.282774 2.61738
      vertex -3.1075 2.79591 2.33776
      vertex 2.05496 -0.262453 2.54516
    endloop
  endfacet
  facet normal -0.499013 -0.864316 -0.0627912
    outer loop
      vertex -3.08536 2.83426 1.90895
      vertex 2.10841 -0.169869 1.98474
      vertex -3.09459 2.81827 2.20239
    endloop
  endfacet
  facet normal -0.499013 -0.864317 -0.0627906
    outer loop
      vertex 2.10841 -0.169869 1.98474
      vertex -3.08536 2.83426 1.90895
      vertex 2.1108 -0.16574 1.90895
    endloop
  endfacet
  facet normal -0.422163 -0.731208 -0.535829
    outer loop
      vertex -3.2317 2.58079 2.86562
      vertex 1.94585 -0.451437 2.92426
      vertex -3.2503 2.54856 2.92426
    endloop
  endfacet
  facet normal -0.422164 -0.731209 -0.535828
    outer loop
      vertex 1.94585 -0.451437 2.92426
      vertex -3.2317 2.58079 2.86562
      vertex 2.02288 -0.31801 2.68149
    endloop
  endfacet
  facet normal 0.475528 0.823639 -0.309018
    outer loop
      vertex 0.675068 -2.65249 2.2717
      vertex -4.47566 0.426189 2.55132
      vertex 0.6868 -2.63217 2.34392
    endloop
  endfacet
  facet normal 0.475528 0.823639 -0.309018
    outer loop
      vertex -4.47566 0.426189 2.55132
      vertex 0.675068 -2.65249 2.2717
      vertex -4.52109 0.347507 2.2717
    endloop
  endfacet
  facet normal 0.240877 0.417211 -0.876307
    outer loop
      vertex 0.961082 -2.1571 3.17307
      vertex -4.07582 1.11873 3.34818
      vertex 1.12034 -1.88127 3.34818
    endloop
  endfacet
  facet normal 0.240877 0.417211 -0.876307
    outer loop
      vertex -4.07582 1.11873 3.34818
      vertex 0.961082 -2.1571 3.17307
      vertex -4.23507 0.842897 3.17307
    endloop
  endfacet
  facet normal 0 0 -1
    outer loop
      vertex 1.29636 -1.57638 3.43857
      vertex -3.71806 1.73839 3.43857
      vertex 1.47809 -1.26161 3.43857
    endloop
  endfacet
  facet normal 0 -0 -1
    outer loop
      vertex -3.71806 1.73839 3.43857
      vertex 1.29636 -1.57638 3.43857
      vertex -3.89979 1.42362 3.43857
    endloop
  endfacet
  facet normal 0.452413 0.783603 0.42578
    outer loop
      vertex -4.42106 0.520747 1.22305
      vertex 0.758923 -2.50725 1.29176
      vertex 0.775088 -2.47925 1.22305
    endloop
  endfacet
  facet normal 0.452413 0.783603 0.42578
    outer loop
      vertex 0.758923 -2.50725 1.29176
      vertex -4.42106 0.520747 1.22305
      vertex -4.48366 0.412335 1.48908
    endloop
  endfacet
  facet normal 0.385256 0.667284 0.637424
    outer loop
      vertex -4.32736 0.68305 0.99651
      vertex 0.775088 -2.47925 1.22305
      vertex 0.799289 -2.43734 1.16454
    endloop
  endfacet
  facet normal 0.385257 0.667285 0.637423
    outer loop
      vertex 0.775088 -2.47925 1.22305
      vertex -4.32736 0.68305 0.99651
      vertex -4.42106 0.520747 1.22305
    endloop
  endfacet
  facet normal 0.385257 0.667284 0.637424
    outer loop
      vertex -4.30522 0.72139 0.942995
      vertex 0.799289 -2.43734 1.16454
      vertex 0.890929 -2.27861 0.942995
    endloop
  endfacet
  facet normal 0.385257 0.667284 0.637424
    outer loop
      vertex 0.799289 -2.43734 1.16454
      vertex -4.30522 0.72139 0.942995
      vertex -4.32736 0.68305 0.99651
    endloop
  endfacet
  facet normal -0.385257 -0.667285 0.637423
    outer loop
      vertex 1.88352 -0.559388 0.942995
      vertex -3.19679 2.64125 1.22305
      vertex -3.31263 2.44061 0.942995
    endloop
  endfacet
  facet normal -0.385257 -0.667285 0.637423
    outer loop
      vertex -3.19679 2.64125 1.22305
      vertex 1.88352 -0.559388 0.942995
      vertex 1.99936 -0.358746 1.22305
    endloop
  endfacet
  facet normal -0.491144 -0.850686 0.187381
    outer loop
      vertex 2.07674 -0.224722 1.55192
      vertex -3.1129 2.78655 1.62015
      vertex -3.11941 2.77528 1.55192
    endloop
  endfacet
  facet normal -0.491144 -0.850686 0.187381
    outer loop
      vertex -3.1129 2.78655 1.62015
      vertex 2.07674 -0.224722 1.55192
      vertex 2.10368 -0.178062 1.83437
    endloop
  endfacet
  facet normal -0.240877 -0.417211 -0.876307
    outer loop
      vertex 1.65412 -0.956732 3.34818
      vertex -3.38278 2.3191 3.17307
      vertex 1.81337 -0.680896 3.17307
    endloop
  endfacet
  facet normal -0.240877 -0.417211 -0.876307
    outer loop
      vertex -3.38278 2.3191 3.17307
      vertex 1.65412 -0.956732 3.34818
      vertex -3.54204 2.04327 3.34818
    endloop
  endfacet
  facet normal 0.452414 0.783604 0.425777
    outer loop
      vertex 0.69771 -2.61328 1.55192
      vertex -4.48366 0.412335 1.48908
      vertex -4.49844 0.386725 1.55192
    endloop
  endfacet
  facet normal 0.452414 0.783604 0.425778
    outer loop
      vertex -4.48366 0.412335 1.48908
      vertex 0.69771 -2.61328 1.55192
      vertex 0.758923 -2.50725 1.29176
    endloop
  endfacet
  facet normal -0.422164 -0.73121 -0.535826
    outer loop
      vertex -3.15293 2.71723 2.61738
      vertex 2.02288 -0.31801 2.68149
      vertex -3.2317 2.58079 2.86562
    endloop
  endfacet
  facet normal -0.422164 -0.73121 -0.535826
    outer loop
      vertex 2.02288 -0.31801 2.68149
      vertex -3.15293 2.71723 2.61738
      vertex 2.04323 -0.282774 2.61738
    endloop
  endfacet
  facet normal 0.491143 0.850685 0.187383
    outer loop
      vertex -4.49844 0.386725 1.55192
      vertex 0.663656 -2.67226 1.90895
      vertex 0.69771 -2.61328 1.55192
    endloop
  endfacet
  facet normal 0.491143 0.850685 0.187383
    outer loop
      vertex 0.663656 -2.67226 1.90895
      vertex -4.49844 0.386725 1.55192
      vertex -4.5325 0.327742 1.90895
    endloop
  endfacet
  facet normal 0.342274 0.592835 -0.728968
    outer loop
      vertex 0.828604 -2.38656 2.92426
      vertex -4.23507 0.842897 3.17307
      vertex 0.961082 -2.1571 3.17307
    endloop
  endfacet
  facet normal 0.342274 0.592836 -0.728968
    outer loop
      vertex -4.23507 0.842897 3.17307
      vertex 0.828604 -2.38656 2.92426
      vertex -4.36755 0.61344 2.92426
    endloop
  endfacet
  facet normal 0.422164 0.731209 -0.535827
    outer loop
      vertex 0.731226 -2.55522 2.61738
      vertex -4.36755 0.61344 2.92426
      vertex 0.828604 -2.38656 2.92426
    endloop
  endfacet
  facet normal 0.422164 0.731209 -0.535828
    outer loop
      vertex -4.36755 0.61344 2.92426
      vertex 0.731226 -2.55522 2.61738
      vertex -4.46493 0.444776 2.61738
    endloop
  endfacet
  facet normal 0.475528 0.823639 -0.309019
    outer loop
      vertex 0.6868 -2.63217 2.34392
      vertex -4.46493 0.444776 2.61738
      vertex 0.731226 -2.55522 2.61738
    endloop
  endfacet
  facet normal 0.475528 0.823639 -0.309019
    outer loop
      vertex -4.46493 0.444776 2.61738
      vertex 0.6868 -2.63217 2.34392
      vertex -4.47566 0.426189 2.55132
    endloop
  endfacet
  facet normal -0.0626674 -0.108543 0.992115
    outer loop
      vertex -3.62863 1.89329 0.595554
      vertex 1.52986 -1.17195 0.586037
      vertex 1.56753 -1.10671 0.595554
    endloop
  endfacet
  facet normal -0.0626675 -0.108543 0.992114
    outer loop
      vertex 1.52986 -1.17195 0.586037
      vertex -3.62863 1.89329 0.595554
      vertex -3.77447 1.64068 0.558704
    endloop
  endfacet
  facet normal -0.452413 -0.783602 0.425781
    outer loop
      vertex 1.99936 -0.358746 1.22305
      vertex -3.11941 2.77528 1.55192
      vertex -3.19679 2.64125 1.22305
    endloop
  endfacet
  facet normal -0.452413 -0.783602 0.425781
    outer loop
      vertex -3.11941 2.77528 1.55192
      vertex 1.99936 -0.358746 1.22305
      vertex 2.07674 -0.224722 1.55192
    endloop
  endfacet
  facet normal -0.293893 -0.509037 0.809017
    outer loop
      vertex -3.31263 2.44061 0.942995
      vertex 1.7365 -0.814043 0.729355
      vertex 1.88352 -0.559388 0.942995
    endloop
  endfacet
  facet normal -0.293893 -0.509037 0.809017
    outer loop
      vertex 1.7365 -0.814043 0.729355
      vertex -3.31263 2.44061 0.942995
      vertex -3.45966 2.18596 0.729355
    endloop
  endfacet
  facet normal -0.475529 -0.82364 -0.309015
    outer loop
      vertex -3.09677 2.8145 2.2717
      vertex 2.05496 -0.262453 2.54516
      vertex -3.1075 2.79591 2.33776
    endloop
  endfacet
  facet normal -0.475528 -0.82364 -0.309015
    outer loop
      vertex 2.05496 -0.262453 2.54516
      vertex -3.09677 2.8145 2.2717
      vertex 2.09938 -0.185505 2.2717
    endloop
  endfacet
  facet normal -0.342273 -0.592835 -0.728969
    outer loop
      vertex 1.81337 -0.680896 3.17307
      vertex -3.2503 2.54856 2.92426
      vertex 1.94585 -0.451437 2.92426
    endloop
  endfacet
  facet normal -0.342273 -0.592835 -0.728969
    outer loop
      vertex -3.2503 2.54856 2.92426
      vertex 1.81337 -0.680896 3.17307
      vertex -3.38278 2.3191 3.17307
    endloop
  endfacet
  facet normal 0.124346 0.215373 -0.968583
    outer loop
      vertex 1.12034 -1.88127 3.34818
      vertex -3.89979 1.42362 3.43857
      vertex 1.29636 -1.57638 3.43857
    endloop
  endfacet
  facet normal 0.124346 0.215373 -0.968583
    outer loop
      vertex -3.89979 1.42362 3.43857
      vertex 1.12034 -1.88127 3.34818
      vertex -4.07582 1.11873 3.34818
    endloop
  endfacet
  facet normal -0.124346 -0.215374 -0.968582
    outer loop
      vertex -3.71806 1.73839 3.43857
      vertex 1.51487 -1.19792 3.41968
      vertex 1.47809 -1.26161 3.43857
    endloop
  endfacet
  facet normal -0.124346 -0.215374 -0.968583
    outer loop
      vertex 1.51487 -1.19792 3.41968
      vertex -3.71806 1.73839 3.43857
      vertex -3.57567 1.98501 3.36545
    endloop
  endfacet
endsolid OpenSCAD_Model
