solid OpenSCAD_Model
  facet normal 1 0 0
    outer loop
      vertex 25 30 20
      vertex 25 35 60
      vertex 25 30 60
    endloop
  endfacet
  facet normal 1 0 0
    outer loop
      vertex 25 35 60
      vertex 25 30 20
      vertex 25 35 0
    endloop
  endfacet
  facet normal 1 -0 0
    outer loop
      vertex 25 15 5
      vertex 25 35 0
      vertex 25 30 20
    endloop
  endfacet
  facet normal 1 0 0
    outer loop
      vertex 25 0 0
      vertex 25 15 5
      vertex 25 0 5
    endloop
  endfacet
  facet normal 1 0 0
    outer loop
      vertex 25 15 5
      vertex 25 0 0
      vertex 25 35 0
    endloop
  endfacet
  facet normal 0 0 1
    outer loop
      vertex 25 15 5
      vertex 16.5 7.5 5
      vertex 25 0 5
    endloop
  endfacet
  facet normal 0 0 1
    outer loop
      vertex 25 15 5
      vertex 16.4553 8.09617 5
      vertex 16.5 7.5 5
    endloop
  endfacet
  facet normal 0 0 1
    outer loop
      vertex 25 15 5
      vertex 16.3223 8.67902 5
      vertex 16.4553 8.09617 5
    endloop
  endfacet
  facet normal 0 0 1
    outer loop
      vertex 25 15 5
      vertex 16.1039 9.23553 5
      vertex 16.3223 8.67902 5
    endloop
  endfacet
  facet normal 0 0 1
    outer loop
      vertex 25 15 5
      vertex 15.805 9.75328 5
      vertex 16.1039 9.23553 5
    endloop
  endfacet
  facet normal 0 0 1
    outer loop
      vertex 25 15 5
      vertex 15.4322 10.2207 5
      vertex 15.805 9.75328 5
    endloop
  endfacet
  facet normal 0 0 1
    outer loop
      vertex 25 15 5
      vertex 14.994 10.6273 5
      vertex 15.4322 10.2207 5
    endloop
  endfacet
  facet normal 0 0 1
    outer loop
      vertex 25 15 5
      vertex 14.5 10.9641 5
      vertex 14.994 10.6273 5
    endloop
  endfacet
  facet normal 0 0 1
    outer loop
      vertex 25 15 5
      vertex 13.9614 11.2235 5
      vertex 14.5 10.9641 5
    endloop
  endfacet
  facet normal 0 0 1
    outer loop
      vertex 25 15 5
      vertex 13.3901 11.3997 5
      vertex 13.9614 11.2235 5
    endloop
  endfacet
  facet normal 0 0 1
    outer loop
      vertex 25 15 5
      vertex 12.7989 11.4888 5
      vertex 13.3901 11.3997 5
    endloop
  endfacet
  facet normal 0 0 1
    outer loop
      vertex 25 15 5
      vertex 12.2011 11.4888 5
      vertex 12.7989 11.4888 5
    endloop
  endfacet
  facet normal -0 0 1
    outer loop
      vertex 0 15 5
      vertex 12.2011 11.4888 5
      vertex 25 15 5
    endloop
  endfacet
  facet normal 0 0 1
    outer loop
      vertex 8.54468 8.09617 5
      vertex 0 15 5
      vertex 8.5 7.5 5
    endloop
  endfacet
  facet normal 0 0 1
    outer loop
      vertex 8.67771 8.67902 5
      vertex 0 15 5
      vertex 8.54468 8.09617 5
    endloop
  endfacet
  facet normal 0 0 1
    outer loop
      vertex 8.89612 9.23553 5
      vertex 0 15 5
      vertex 8.67771 8.67902 5
    endloop
  endfacet
  facet normal 0 0 1
    outer loop
      vertex 9.19505 9.75328 5
      vertex 0 15 5
      vertex 8.89612 9.23553 5
    endloop
  endfacet
  facet normal 0 0 1
    outer loop
      vertex 9.56779 10.2207 5
      vertex 0 15 5
      vertex 9.19505 9.75328 5
    endloop
  endfacet
  facet normal 0 0 1
    outer loop
      vertex 10.006 10.6273 5
      vertex 0 15 5
      vertex 9.56779 10.2207 5
    endloop
  endfacet
  facet normal 0 0 1
    outer loop
      vertex 10.5 10.9641 5
      vertex 0 15 5
      vertex 10.006 10.6273 5
    endloop
  endfacet
  facet normal 0 0 1
    outer loop
      vertex 11.0386 11.2235 5
      vertex 0 15 5
      vertex 10.5 10.9641 5
    endloop
  endfacet
  facet normal 0 0 1
    outer loop
      vertex 11.6099 11.3997 5
      vertex 0 15 5
      vertex 11.0386 11.2235 5
    endloop
  endfacet
  facet normal 0 0 1
    outer loop
      vertex 12.2011 11.4888 5
      vertex 0 15 5
      vertex 11.6099 11.3997 5
    endloop
  endfacet
  facet normal -0 0 1
    outer loop
      vertex 16.4553 6.90383 5
      vertex 25 0 5
      vertex 16.5 7.5 5
    endloop
  endfacet
  facet normal -0 0 1
    outer loop
      vertex 16.3223 6.32098 5
      vertex 25 0 5
      vertex 16.4553 6.90383 5
    endloop
  endfacet
  facet normal -0 0 1
    outer loop
      vertex 16.1039 5.76447 5
      vertex 25 0 5
      vertex 16.3223 6.32098 5
    endloop
  endfacet
  facet normal -0 0 1
    outer loop
      vertex 15.805 5.24672 5
      vertex 25 0 5
      vertex 16.1039 5.76447 5
    endloop
  endfacet
  facet normal -0 0 1
    outer loop
      vertex 15.4322 4.77931 5
      vertex 25 0 5
      vertex 15.805 5.24672 5
    endloop
  endfacet
  facet normal -0 0 1
    outer loop
      vertex 14.994 4.37267 5
      vertex 25 0 5
      vertex 15.4322 4.77931 5
    endloop
  endfacet
  facet normal -0 0 1
    outer loop
      vertex 14.5 4.0359 5
      vertex 25 0 5
      vertex 14.994 4.37267 5
    endloop
  endfacet
  facet normal -0 0 1
    outer loop
      vertex 13.9614 3.77651 5
      vertex 25 0 5
      vertex 14.5 4.0359 5
    endloop
  endfacet
  facet normal -0 0 1
    outer loop
      vertex 13.3901 3.60029 5
      vertex 25 0 5
      vertex 13.9614 3.77651 5
    endloop
  endfacet
  facet normal -0 0 1
    outer loop
      vertex 12.7989 3.51119 5
      vertex 25 0 5
      vertex 13.3901 3.60029 5
    endloop
  endfacet
  facet normal -0 0 1
    outer loop
      vertex 12.2011 3.51119 5
      vertex 25 0 5
      vertex 12.7989 3.51119 5
    endloop
  endfacet
  facet normal 0 0 1
    outer loop
      vertex 0 0 5
      vertex 12.2011 3.51119 5
      vertex 11.6099 3.60029 5
    endloop
  endfacet
  facet normal 0 0 1
    outer loop
      vertex 0 0 5
      vertex 8.5 7.5 5
      vertex 0 15 5
    endloop
  endfacet
  facet normal 0 0 1
    outer loop
      vertex 8.5 7.5 5
      vertex 0 0 5
      vertex 8.54468 6.90383 5
    endloop
  endfacet
  facet normal 0 0 1
    outer loop
      vertex 8.54468 6.90383 5
      vertex 0 0 5
      vertex 8.67771 6.32098 5
    endloop
  endfacet
  facet normal 0 0 1
    outer loop
      vertex 8.67771 6.32098 5
      vertex 0 0 5
      vertex 8.89612 5.76447 5
    endloop
  endfacet
  facet normal 0 0 1
    outer loop
      vertex 8.89612 5.76447 5
      vertex 0 0 5
      vertex 9.19505 5.24672 5
    endloop
  endfacet
  facet normal 0 0 1
    outer loop
      vertex 12.2011 3.51119 5
      vertex 0 0 5
      vertex 25 0 5
    endloop
  endfacet
  facet normal 0 0 1
    outer loop
      vertex 11.0386 3.77651 5
      vertex 0 0 5
      vertex 11.6099 3.60029 5
    endloop
  endfacet
  facet normal 0 0 1
    outer loop
      vertex 10.5 4.0359 5
      vertex 0 0 5
      vertex 11.0386 3.77651 5
    endloop
  endfacet
  facet normal 0 0 1
    outer loop
      vertex 10.006 4.37267 5
      vertex 0 0 5
      vertex 10.5 4.0359 5
    endloop
  endfacet
  facet normal 0 0 1
    outer loop
      vertex 9.56779 4.77931 5
      vertex 0 0 5
      vertex 10.006 4.37267 5
    endloop
  endfacet
  facet normal 0 0 1
    outer loop
      vertex 9.19505 5.24672 5
      vertex 0 0 5
      vertex 9.56779 4.77931 5
    endloop
  endfacet
  facet normal 0 0 -1
    outer loop
      vertex 14.626 7.82044 0
      vertex 25 0 0
      vertex 14.65 7.5 0
    endloop
  endfacet
  facet normal 0 0 -1
    outer loop
      vertex 25 0 0
      vertex 14.626 7.17956 0
      vertex 14.65 7.5 0
    endloop
  endfacet
  facet normal 0 0 -1
    outer loop
      vertex 25 0 0
      vertex 14.5545 6.86628 0
      vertex 14.626 7.17956 0
    endloop
  endfacet
  facet normal 0 0 -1
    outer loop
      vertex 25 0 0
      vertex 14.4371 6.56715 0
      vertex 14.5545 6.86628 0
    endloop
  endfacet
  facet normal 0 0 -1
    outer loop
      vertex 25 0 0
      vertex 14.2764 6.28886 0
      vertex 14.4371 6.56715 0
    endloop
  endfacet
  facet normal 0 0 -1
    outer loop
      vertex 25 0 0
      vertex 14.0761 6.03763 0
      vertex 14.2764 6.28886 0
    endloop
  endfacet
  facet normal 0 0 -1
    outer loop
      vertex 25 0 0
      vertex 13.8405 5.81906 0
      vertex 14.0761 6.03763 0
    endloop
  endfacet
  facet normal 0 0 -1
    outer loop
      vertex 25 0 0
      vertex 13.575 5.63805 0
      vertex 13.8405 5.81906 0
    endloop
  endfacet
  facet normal 0 0 -1
    outer loop
      vertex 25 0 0
      vertex 13.2855 5.49862 0
      vertex 13.575 5.63805 0
    endloop
  endfacet
  facet normal 0 0 -1
    outer loop
      vertex 25 0 0
      vertex 12.9784 5.40391 0
      vertex 13.2855 5.49862 0
    endloop
  endfacet
  facet normal 0 0 -1
    outer loop
      vertex 25 0 0
      vertex 12.6607 5.35601 0
      vertex 12.9784 5.40391 0
    endloop
  endfacet
  facet normal 0 0 -1
    outer loop
      vertex 25 0 0
      vertex 12.3393 5.35601 0
      vertex 12.6607 5.35601 0
    endloop
  endfacet
  facet normal 0 0 -1
    outer loop
      vertex 0 0 0
      vertex 12.3393 5.35601 0
      vertex 25 0 0
    endloop
  endfacet
  facet normal -0 0 -1
    outer loop
      vertex 12.3393 5.35601 0
      vertex 0 0 0
      vertex 12.0216 5.40391 0
    endloop
  endfacet
  facet normal -0 0 -1
    outer loop
      vertex 10.374 7.17956 0
      vertex 0 0 0
      vertex 10.35 7.5 0
    endloop
  endfacet
  facet normal -0 0 -1
    outer loop
      vertex 10.4455 6.86628 0
      vertex 0 0 0
      vertex 10.374 7.17956 0
    endloop
  endfacet
  facet normal -0 0 -1
    outer loop
      vertex 10.5629 6.56715 0
      vertex 0 0 0
      vertex 10.4455 6.86628 0
    endloop
  endfacet
  facet normal -0 0 -1
    outer loop
      vertex 10.7236 6.28886 0
      vertex 0 0 0
      vertex 10.5629 6.56715 0
    endloop
  endfacet
  facet normal -0 0 -1
    outer loop
      vertex 10.9239 6.03763 0
      vertex 0 0 0
      vertex 10.7236 6.28886 0
    endloop
  endfacet
  facet normal -0 0 -1
    outer loop
      vertex 11.1595 5.81906 0
      vertex 0 0 0
      vertex 10.9239 6.03763 0
    endloop
  endfacet
  facet normal -0 0 -1
    outer loop
      vertex 11.425 5.63805 0
      vertex 0 0 0
      vertex 11.1595 5.81906 0
    endloop
  endfacet
  facet normal -0 0 -1
    outer loop
      vertex 11.7145 5.49862 0
      vertex 0 0 0
      vertex 11.425 5.63805 0
    endloop
  endfacet
  facet normal -0 0 -1
    outer loop
      vertex 12.0216 5.40391 0
      vertex 0 0 0
      vertex 11.7145 5.49862 0
    endloop
  endfacet
  facet normal 0 0 -1
    outer loop
      vertex 14.5545 8.13372 0
      vertex 25 0 0
      vertex 14.626 7.82044 0
    endloop
  endfacet
  facet normal 0 0 -1
    outer loop
      vertex 14.4371 8.43285 0
      vertex 25 0 0
      vertex 14.5545 8.13372 0
    endloop
  endfacet
  facet normal 0 0 -1
    outer loop
      vertex 25 0 0
      vertex 14.4371 8.43285 0
      vertex 25 35 0
    endloop
  endfacet
  facet normal 0 0 -1
    outer loop
      vertex 14.2764 8.71114 0
      vertex 25 35 0
      vertex 14.4371 8.43285 0
    endloop
  endfacet
  facet normal 0 0 -1
    outer loop
      vertex 14.0761 8.96237 0
      vertex 25 35 0
      vertex 14.2764 8.71114 0
    endloop
  endfacet
  facet normal 0 0 -1
    outer loop
      vertex 13.8405 9.18094 0
      vertex 25 35 0
      vertex 14.0761 8.96237 0
    endloop
  endfacet
  facet normal 0 0 -1
    outer loop
      vertex 13.575 9.36195 0
      vertex 25 35 0
      vertex 13.8405 9.18094 0
    endloop
  endfacet
  facet normal 0 0 -1
    outer loop
      vertex 13.2855 9.50138 0
      vertex 25 35 0
      vertex 13.575 9.36195 0
    endloop
  endfacet
  facet normal 0 0 -1
    outer loop
      vertex 12.9784 9.59609 0
      vertex 25 35 0
      vertex 13.2855 9.50138 0
    endloop
  endfacet
  facet normal 0 0 -1
    outer loop
      vertex 12.6607 9.64399 0
      vertex 25 35 0
      vertex 12.9784 9.59609 0
    endloop
  endfacet
  facet normal 0 0 -1
    outer loop
      vertex 12.3393 9.64399 0
      vertex 25 35 0
      vertex 12.6607 9.64399 0
    endloop
  endfacet
  facet normal 0 0 -1
    outer loop
      vertex 0 35 0
      vertex 12.3393 9.64399 0
      vertex 12.0216 9.59609 0
    endloop
  endfacet
  facet normal 0 0 -1
    outer loop
      vertex 0 35 0
      vertex 12.0216 9.59609 0
      vertex 11.7145 9.50138 0
    endloop
  endfacet
  facet normal 0 0 -1
    outer loop
      vertex 0 35 0
      vertex 11.7145 9.50138 0
      vertex 11.425 9.36195 0
    endloop
  endfacet
  facet normal 0 0 -1
    outer loop
      vertex 0 35 0
      vertex 11.425 9.36195 0
      vertex 11.1595 9.18094 0
    endloop
  endfacet
  facet normal 0 0 -1
    outer loop
      vertex 0 35 0
      vertex 11.1595 9.18094 0
      vertex 10.9239 8.96237 0
    endloop
  endfacet
  facet normal 0 0 -1
    outer loop
      vertex 0 35 0
      vertex 10.9239 8.96237 0
      vertex 10.7236 8.71114 0
    endloop
  endfacet
  facet normal 0 0 -1
    outer loop
      vertex 0 35 0
      vertex 10.7236 8.71114 0
      vertex 10.5629 8.43285 0
    endloop
  endfacet
  facet normal 0 0 -1
    outer loop
      vertex 0 0 0
      vertex 10.374 7.82044 0
      vertex 10.35 7.5 0
    endloop
  endfacet
  facet normal 0 0 -1
    outer loop
      vertex 0 0 0
      vertex 10.4455 8.13372 0
      vertex 10.374 7.82044 0
    endloop
  endfacet
  facet normal 0 0 -1
    outer loop
      vertex 0 0 0
      vertex 10.5629 8.43285 0
      vertex 10.4455 8.13372 0
    endloop
  endfacet
  facet normal 0 0 -1
    outer loop
      vertex 0 35 0
      vertex 10.5629 8.43285 0
      vertex 0 0 0
    endloop
  endfacet
  facet normal 0 0 -1
    outer loop
      vertex 12.3393 9.64399 0
      vertex 0 35 0
      vertex 25 35 0
    endloop
  endfacet
  facet normal -1 0 0
    outer loop
      vertex 0 35 0
      vertex 0 30 20
      vertex 0 35 60
    endloop
  endfacet
  facet normal -1 0 0
    outer loop
      vertex 0 35 0
      vertex 0 15 5
      vertex 0 30 20
    endloop
  endfacet
  facet normal -1 0 0
    outer loop
      vertex 0 0 0
      vertex 0 15 5
      vertex 0 35 0
    endloop
  endfacet
  facet normal -1 -0 0
    outer loop
      vertex 0 15 5
      vertex 0 0 0
      vertex 0 0 5
    endloop
  endfacet
  facet normal -1 -0 0
    outer loop
      vertex 0 35 60
      vertex 0 30 20
      vertex 0 30 60
    endloop
  endfacet
  facet normal 0 1 -0
    outer loop
      vertex 25 35 0
      vertex 0 35 60
      vertex 25 35 60
    endloop
  endfacet
  facet normal 0 1 0
    outer loop
      vertex 0 35 60
      vertex 25 35 0
      vertex 0 35 0
    endloop
  endfacet
  facet normal 0 -1 0
    outer loop
      vertex 0 0 0
      vertex 25 0 5
      vertex 0 0 5
    endloop
  endfacet
  facet normal 0 -1 -0
    outer loop
      vertex 25 0 5
      vertex 0 0 0
      vertex 25 0 0
    endloop
  endfacet
  facet normal -0 0 1
    outer loop
      vertex 0 35 60
      vertex 25 30 60
      vertex 25 35 60
    endloop
  endfacet
  facet normal 0 0 1
    outer loop
      vertex 25 30 60
      vertex 0 35 60
      vertex 0 30 60
    endloop
  endfacet
  facet normal 0 -1 0
    outer loop
      vertex 0 30 20
      vertex 25 30 60
      vertex 0 30 60
    endloop
  endfacet
  facet normal 0 -1 -0
    outer loop
      vertex 25 30 60
      vertex 0 30 20
      vertex 25 30 20
    endloop
  endfacet
  facet normal 0 -0.707107 0.707107
    outer loop
      vertex 0 15 5
      vertex 25 30 20
      vertex 0 30 20
    endloop
  endfacet
  facet normal 0 -0.707107 0.707107
    outer loop
      vertex 25 30 20
      vertex 0 15 5
      vertex 25 15 5
    endloop
  endfacet
  facet normal -0.974931 -0.222509 0
    outer loop
      vertex 14.626 7.82044 0
      vertex 14.5545 8.13372 3
      vertex 14.5545 8.13372 0
    endloop
  endfacet
  facet normal -0.974931 -0.222509 0
    outer loop
      vertex 14.5545 8.13372 3
      vertex 14.626 7.82044 0
      vertex 14.626 7.82044 3
    endloop
  endfacet
  facet normal -0.997207 -0.0746878 0
    outer loop
      vertex 14.65 7.5 0
      vertex 14.626 7.82044 3
      vertex 14.626 7.82044 0
    endloop
  endfacet
  facet normal -0.997207 -0.0746878 0
    outer loop
      vertex 14.626 7.82044 3
      vertex 14.65 7.5 0
      vertex 14.65 7.5 3
    endloop
  endfacet
  facet normal 0.865986 0.500068 0
    outer loop
      vertex 10.7236 6.28886 3
      vertex 10.5629 6.56715 0
      vertex 10.5629 6.56715 3
    endloop
  endfacet
  facet normal 0.865986 0.500068 0
    outer loop
      vertex 10.5629 6.56715 0
      vertex 10.7236 6.28886 3
      vertex 10.7236 6.28886 0
    endloop
  endfacet
  facet normal -0.865986 -0.500068 0
    outer loop
      vertex 14.4371 8.43285 0
      vertex 14.2764 8.71114 3
      vertex 14.2764 8.71114 0
    endloop
  endfacet
  facet normal -0.865986 -0.500068 0
    outer loop
      vertex 14.2764 8.71114 3
      vertex 14.4371 8.43285 0
      vertex 14.4371 8.43285 3
    endloop
  endfacet
  facet normal -0.781906 0.623396 0
    outer loop
      vertex 14.0761 6.03763 0
      vertex 14.2764 6.28886 3
      vertex 14.2764 6.28886 0
    endloop
  endfacet
  facet normal -0.781906 0.623396 0
    outer loop
      vertex 14.2764 6.28886 3
      vertex 14.0761 6.03763 0
      vertex 14.0761 6.03763 3
    endloop
  endfacet
  facet normal 0.680114 -0.733106 0
    outer loop
      vertex 10.9239 8.96237 0
      vertex 11.1595 9.18094 3
      vertex 10.9239 8.96237 3
    endloop
  endfacet
  facet normal 0.680114 -0.733106 0
    outer loop
      vertex 11.1595 9.18094 3
      vertex 10.9239 8.96237 0
      vertex 11.1595 9.18094 0
    endloop
  endfacet
  facet normal 0.680114 0.733106 -0
    outer loop
      vertex 11.1595 5.81906 0
      vertex 10.9239 6.03763 3
      vertex 11.1595 5.81906 3
    endloop
  endfacet
  facet normal 0.680114 0.733106 0
    outer loop
      vertex 10.9239 6.03763 3
      vertex 11.1595 5.81906 0
      vertex 10.9239 6.03763 0
    endloop
  endfacet
  facet normal -0.680114 -0.733106 0
    outer loop
      vertex 13.8405 9.18094 0
      vertex 14.0761 8.96237 3
      vertex 13.8405 9.18094 3
    endloop
  endfacet
  facet normal -0.680114 -0.733106 -0
    outer loop
      vertex 14.0761 8.96237 3
      vertex 13.8405 9.18094 0
      vertex 14.0761 8.96237 0
    endloop
  endfacet
  facet normal 0 1 -0
    outer loop
      vertex 12.6607 5.35601 0
      vertex 12.3393 5.35601 3
      vertex 12.6607 5.35601 3
    endloop
  endfacet
  facet normal 0 1 0
    outer loop
      vertex 12.3393 5.35601 3
      vertex 12.6607 5.35601 0
      vertex 12.3393 5.35601 0
    endloop
  endfacet
  facet normal 0.974931 -0.222509 0
    outer loop
      vertex 10.374 7.82044 3
      vertex 10.4455 8.13372 0
      vertex 10.4455 8.13372 3
    endloop
  endfacet
  facet normal 0.974931 -0.222509 0
    outer loop
      vertex 10.4455 8.13372 0
      vertex 10.374 7.82044 3
      vertex 10.374 7.82044 0
    endloop
  endfacet
  facet normal 0.781906 -0.623396 0
    outer loop
      vertex 10.7236 8.71114 3
      vertex 10.9239 8.96237 0
      vertex 10.9239 8.96237 3
    endloop
  endfacet
  facet normal 0.781906 -0.623396 0
    outer loop
      vertex 10.9239 8.96237 0
      vertex 10.7236 8.71114 3
      vertex 10.7236 8.71114 0
    endloop
  endfacet
  facet normal -0.865986 0.500068 0
    outer loop
      vertex 14.2764 6.28886 0
      vertex 14.4371 6.56715 3
      vertex 14.4371 6.56715 0
    endloop
  endfacet
  facet normal -0.865986 0.500068 0
    outer loop
      vertex 14.4371 6.56715 3
      vertex 14.2764 6.28886 0
      vertex 14.2764 6.28886 3
    endloop
  endfacet
  facet normal -0.149086 -0.988824 0
    outer loop
      vertex 12.6607 9.64399 0
      vertex 12.9784 9.59609 3
      vertex 12.6607 9.64399 3
    endloop
  endfacet
  facet normal -0.149086 -0.988824 -0
    outer loop
      vertex 12.9784 9.59609 3
      vertex 12.6607 9.64399 0
      vertex 12.9784 9.59609 0
    endloop
  endfacet
  facet normal -0.997207 0.0746878 0
    outer loop
      vertex 14.626 7.17956 0
      vertex 14.65 7.5 3
      vertex 14.65 7.5 0
    endloop
  endfacet
  facet normal -0.997207 0.0746878 0
    outer loop
      vertex 14.65 7.5 3
      vertex 14.626 7.17956 0
      vertex 14.626 7.17956 3
    endloop
  endfacet
  facet normal 0.294705 0.955588 -0
    outer loop
      vertex 12.0216 5.40391 0
      vertex 11.7145 5.49862 3
      vertex 12.0216 5.40391 3
    endloop
  endfacet
  facet normal 0.294705 0.955588 0
    outer loop
      vertex 11.7145 5.49862 3
      vertex 12.0216 5.40391 0
      vertex 11.7145 5.49862 0
    endloop
  endfacet
  facet normal 0.930874 0.365341 0
    outer loop
      vertex 10.5629 6.56715 3
      vertex 10.4455 6.86628 0
      vertex 10.4455 6.86628 3
    endloop
  endfacet
  facet normal 0.930874 0.365341 0
    outer loop
      vertex 10.4455 6.86628 0
      vertex 10.5629 6.56715 3
      vertex 10.5629 6.56715 0
    endloop
  endfacet
  facet normal -0.433919 -0.900952 0
    outer loop
      vertex 13.2855 9.50138 0
      vertex 13.575 9.36195 3
      vertex 13.2855 9.50138 3
    endloop
  endfacet
  facet normal -0.433919 -0.900952 -0
    outer loop
      vertex 13.575 9.36195 3
      vertex 13.2855 9.50138 0
      vertex 13.575 9.36195 0
    endloop
  endfacet
  facet normal 0.433919 0.900952 -0
    outer loop
      vertex 11.7145 5.49862 0
      vertex 11.425 5.63805 3
      vertex 11.7145 5.49862 3
    endloop
  endfacet
  facet normal 0.433919 0.900952 0
    outer loop
      vertex 11.425 5.63805 3
      vertex 11.7145 5.49862 0
      vertex 11.425 5.63805 0
    endloop
  endfacet
  facet normal 0 -1 0
    outer loop
      vertex 12.3393 9.64399 0
      vertex 12.6607 9.64399 3
      vertex 12.3393 9.64399 3
    endloop
  endfacet
  facet normal 0 -1 -0
    outer loop
      vertex 12.6607 9.64399 3
      vertex 12.3393 9.64399 0
      vertex 12.6607 9.64399 0
    endloop
  endfacet
  facet normal -0.294705 -0.955588 0
    outer loop
      vertex 12.9784 9.59609 0
      vertex 13.2855 9.50138 3
      vertex 12.9784 9.59609 3
    endloop
  endfacet
  facet normal -0.294705 -0.955588 -0
    outer loop
      vertex 13.2855 9.50138 3
      vertex 12.9784 9.59609 0
      vertex 13.2855 9.50138 0
    endloop
  endfacet
  facet normal -0.433919 0.900952 0
    outer loop
      vertex 13.575 5.63805 0
      vertex 13.2855 5.49862 3
      vertex 13.575 5.63805 3
    endloop
  endfacet
  facet normal -0.433919 0.900952 0
    outer loop
      vertex 13.2855 5.49862 3
      vertex 13.575 5.63805 0
      vertex 13.2855 5.49862 0
    endloop
  endfacet
  facet normal 0.433919 -0.900952 0
    outer loop
      vertex 11.425 9.36195 0
      vertex 11.7145 9.50138 3
      vertex 11.425 9.36195 3
    endloop
  endfacet
  facet normal 0.433919 -0.900952 0
    outer loop
      vertex 11.7145 9.50138 3
      vertex 11.425 9.36195 0
      vertex 11.7145 9.50138 0
    endloop
  endfacet
  facet normal -0.56331 -0.826246 0
    outer loop
      vertex 13.575 9.36195 0
      vertex 13.8405 9.18094 3
      vertex 13.575 9.36195 3
    endloop
  endfacet
  facet normal -0.56331 -0.826246 -0
    outer loop
      vertex 13.8405 9.18094 3
      vertex 13.575 9.36195 0
      vertex 13.8405 9.18094 0
    endloop
  endfacet
  facet normal -0.781906 -0.623396 0
    outer loop
      vertex 14.2764 8.71114 0
      vertex 14.0761 8.96237 3
      vertex 14.0761 8.96237 0
    endloop
  endfacet
  facet normal -0.781906 -0.623396 0
    outer loop
      vertex 14.0761 8.96237 3
      vertex 14.2764 8.71114 0
      vertex 14.2764 8.71114 3
    endloop
  endfacet
  facet normal -0.149086 0.988824 0
    outer loop
      vertex 12.9784 5.40391 0
      vertex 12.6607 5.35601 3
      vertex 12.9784 5.40391 3
    endloop
  endfacet
  facet normal -0.149086 0.988824 0
    outer loop
      vertex 12.6607 5.35601 3
      vertex 12.9784 5.40391 0
      vertex 12.6607 5.35601 0
    endloop
  endfacet
  facet normal 0.56331 -0.826246 0
    outer loop
      vertex 11.1595 9.18094 0
      vertex 11.425 9.36195 3
      vertex 11.1595 9.18094 3
    endloop
  endfacet
  facet normal 0.56331 -0.826246 0
    outer loop
      vertex 11.425 9.36195 3
      vertex 11.1595 9.18094 0
      vertex 11.425 9.36195 0
    endloop
  endfacet
  facet normal -0.974931 0.222509 0
    outer loop
      vertex 14.5545 6.86628 0
      vertex 14.626 7.17956 3
      vertex 14.626 7.17956 0
    endloop
  endfacet
  facet normal -0.974931 0.222509 0
    outer loop
      vertex 14.626 7.17956 3
      vertex 14.5545 6.86628 0
      vertex 14.5545 6.86628 3
    endloop
  endfacet
  facet normal -0.294705 0.955588 0
    outer loop
      vertex 13.2855 5.49862 0
      vertex 12.9784 5.40391 3
      vertex 13.2855 5.49862 3
    endloop
  endfacet
  facet normal -0.294705 0.955588 0
    outer loop
      vertex 12.9784 5.40391 3
      vertex 13.2855 5.49862 0
      vertex 12.9784 5.40391 0
    endloop
  endfacet
  facet normal 0.294705 -0.955588 0
    outer loop
      vertex 11.7145 9.50138 0
      vertex 12.0216 9.59609 3
      vertex 11.7145 9.50138 3
    endloop
  endfacet
  facet normal 0.294705 -0.955588 0
    outer loop
      vertex 12.0216 9.59609 3
      vertex 11.7145 9.50138 0
      vertex 12.0216 9.59609 0
    endloop
  endfacet
  facet normal -0.930874 -0.365341 0
    outer loop
      vertex 14.5545 8.13372 0
      vertex 14.4371 8.43285 3
      vertex 14.4371 8.43285 0
    endloop
  endfacet
  facet normal -0.930874 -0.365341 0
    outer loop
      vertex 14.4371 8.43285 3
      vertex 14.5545 8.13372 0
      vertex 14.5545 8.13372 3
    endloop
  endfacet
  facet normal 0.149086 -0.988824 0
    outer loop
      vertex 12.0216 9.59609 0
      vertex 12.3393 9.64399 3
      vertex 12.0216 9.59609 3
    endloop
  endfacet
  facet normal 0.149086 -0.988824 0
    outer loop
      vertex 12.3393 9.64399 3
      vertex 12.0216 9.59609 0
      vertex 12.3393 9.64399 0
    endloop
  endfacet
  facet normal 0.997207 -0.0746878 0
    outer loop
      vertex 10.35 7.5 3
      vertex 10.374 7.82044 0
      vertex 10.374 7.82044 3
    endloop
  endfacet
  facet normal 0.997207 -0.0746878 0
    outer loop
      vertex 10.374 7.82044 0
      vertex 10.35 7.5 3
      vertex 10.35 7.5 0
    endloop
  endfacet
  facet normal 0.974931 0.222509 0
    outer loop
      vertex 10.4455 6.86628 3
      vertex 10.374 7.17956 0
      vertex 10.374 7.17956 3
    endloop
  endfacet
  facet normal 0.974931 0.222509 0
    outer loop
      vertex 10.374 7.17956 0
      vertex 10.4455 6.86628 3
      vertex 10.4455 6.86628 0
    endloop
  endfacet
  facet normal 0.997207 0.0746878 0
    outer loop
      vertex 10.374 7.17956 3
      vertex 10.35 7.5 0
      vertex 10.35 7.5 3
    endloop
  endfacet
  facet normal 0.997207 0.0746878 0
    outer loop
      vertex 10.35 7.5 0
      vertex 10.374 7.17956 3
      vertex 10.374 7.17956 0
    endloop
  endfacet
  facet normal 0.781906 0.623396 0
    outer loop
      vertex 10.9239 6.03763 3
      vertex 10.7236 6.28886 0
      vertex 10.7236 6.28886 3
    endloop
  endfacet
  facet normal 0.781906 0.623396 0
    outer loop
      vertex 10.7236 6.28886 0
      vertex 10.9239 6.03763 3
      vertex 10.9239 6.03763 0
    endloop
  endfacet
  facet normal -0.930874 0.365341 0
    outer loop
      vertex 14.4371 6.56715 0
      vertex 14.5545 6.86628 3
      vertex 14.5545 6.86628 0
    endloop
  endfacet
  facet normal -0.930874 0.365341 0
    outer loop
      vertex 14.5545 6.86628 3
      vertex 14.4371 6.56715 0
      vertex 14.4371 6.56715 3
    endloop
  endfacet
  facet normal 0.930874 -0.365341 0
    outer loop
      vertex 10.4455 8.13372 3
      vertex 10.5629 8.43285 0
      vertex 10.5629 8.43285 3
    endloop
  endfacet
  facet normal 0.930874 -0.365341 0
    outer loop
      vertex 10.5629 8.43285 0
      vertex 10.4455 8.13372 3
      vertex 10.4455 8.13372 0
    endloop
  endfacet
  facet normal 0.149086 0.988824 -0
    outer loop
      vertex 12.3393 5.35601 0
      vertex 12.0216 5.40391 3
      vertex 12.3393 5.35601 3
    endloop
  endfacet
  facet normal 0.149086 0.988824 0
    outer loop
      vertex 12.0216 5.40391 3
      vertex 12.3393 5.35601 0
      vertex 12.0216 5.40391 0
    endloop
  endfacet
  facet normal 0.56331 0.826246 -0
    outer loop
      vertex 11.425 5.63805 0
      vertex 11.1595 5.81906 3
      vertex 11.425 5.63805 3
    endloop
  endfacet
  facet normal 0.56331 0.826246 0
    outer loop
      vertex 11.1595 5.81906 3
      vertex 11.425 5.63805 0
      vertex 11.1595 5.81906 0
    endloop
  endfacet
  facet normal 0.865986 -0.500068 0
    outer loop
      vertex 10.5629 8.43285 3
      vertex 10.7236 8.71114 0
      vertex 10.7236 8.71114 3
    endloop
  endfacet
  facet normal 0.865986 -0.500068 0
    outer loop
      vertex 10.7236 8.71114 0
      vertex 10.5629 8.43285 3
      vertex 10.5629 8.43285 0
    endloop
  endfacet
  facet normal -0.56331 0.826246 0
    outer loop
      vertex 13.8405 5.81906 0
      vertex 13.575 5.63805 3
      vertex 13.8405 5.81906 3
    endloop
  endfacet
  facet normal -0.56331 0.826246 0
    outer loop
      vertex 13.575 5.63805 3
      vertex 13.8405 5.81906 0
      vertex 13.575 5.63805 0
    endloop
  endfacet
  facet normal -0.680114 0.733106 0
    outer loop
      vertex 14.0761 6.03763 0
      vertex 13.8405 5.81906 3
      vertex 14.0761 6.03763 3
    endloop
  endfacet
  facet normal -0.680114 0.733106 0
    outer loop
      vertex 13.8405 5.81906 3
      vertex 14.0761 6.03763 0
      vertex 13.8405 5.81906 0
    endloop
  endfacet
  facet normal -0.781788 0.623544 0
    outer loop
      vertex 15.4322 4.77931 3
      vertex 15.805 5.24672 5
      vertex 15.805 5.24672 3
    endloop
  endfacet
  facet normal -0.781788 0.623544 0
    outer loop
      vertex 15.805 5.24672 5
      vertex 15.4322 4.77931 3
      vertex 15.4322 4.77931 5
    endloop
  endfacet
  facet normal -0.974939 -0.222471 0
    outer loop
      vertex 16.4553 8.09617 3
      vertex 16.3223 8.67902 5
      vertex 16.3223 8.67902 3
    endloop
  endfacet
  facet normal -0.974939 -0.222471 0
    outer loop
      vertex 16.3223 8.67902 5
      vertex 16.4553 8.09617 3
      vertex 16.4553 8.09617 5
    endloop
  endfacet
  facet normal -0.997201 -0.0747687 0
    outer loop
      vertex 16.5 7.5 3
      vertex 16.4553 8.09617 5
      vertex 16.4553 8.09617 3
    endloop
  endfacet
  facet normal -0.997201 -0.0747687 0
    outer loop
      vertex 16.4553 8.09617 5
      vertex 16.5 7.5 3
      vertex 16.5 7.5 5
    endloop
  endfacet
  facet normal -0.930882 -0.365321 0
    outer loop
      vertex 16.3223 8.67902 3
      vertex 16.1039 9.23553 5
      vertex 16.1039 9.23553 3
    endloop
  endfacet
  facet normal -0.930882 -0.365321 0
    outer loop
      vertex 16.1039 9.23553 5
      vertex 16.3223 8.67902 3
      vertex 16.3223 8.67902 5
    endloop
  endfacet
  facet normal -0.997201 0.0747687 0
    outer loop
      vertex 16.4553 6.90383 3
      vertex 16.5 7.5 5
      vertex 16.5 7.5 3
    endloop
  endfacet
  facet normal -0.997201 0.0747687 0
    outer loop
      vertex 16.5 7.5 5
      vertex 16.4553 6.90383 3
      vertex 16.4553 6.90383 5
    endloop
  endfacet
  facet normal -0.149027 0.988833 0
    outer loop
      vertex 13.3901 3.60029 3
      vertex 12.7989 3.51119 5
      vertex 13.3901 3.60029 5
    endloop
  endfacet
  facet normal -0.149027 0.988833 0
    outer loop
      vertex 12.7989 3.51119 5
      vertex 13.3901 3.60029 3
      vertex 12.7989 3.51119 3
    endloop
  endfacet
  facet normal 0.563316 -0.826241 0
    outer loop
      vertex 10.006 10.6273 3
      vertex 10.5 10.9641 5
      vertex 10.006 10.6273 5
    endloop
  endfacet
  facet normal 0.563316 -0.826241 0
    outer loop
      vertex 10.5 10.9641 5
      vertex 10.006 10.6273 3
      vertex 10.5 10.9641 3
    endloop
  endfacet
  facet normal 0.974929 -0.222518 0
    outer loop
      vertex 8.54468 8.09617 5
      vertex 8.67771 8.67902 3
      vertex 8.67771 8.67902 5
    endloop
  endfacet
  facet normal 0.974929 -0.222518 0
    outer loop
      vertex 8.67771 8.67902 3
      vertex 8.54468 8.09617 5
      vertex 8.54468 8.09617 3
    endloop
  endfacet
  facet normal -0.433916 -0.900953 0
    outer loop
      vertex 13.9614 11.2235 3
      vertex 14.5 10.9641 5
      vertex 13.9614 11.2235 5
    endloop
  endfacet
  facet normal -0.433916 -0.900953 -0
    outer loop
      vertex 14.5 10.9641 5
      vertex 13.9614 11.2235 3
      vertex 14.5 10.9641 3
    endloop
  endfacet
  facet normal 0 -1 0
    outer loop
      vertex 12.2011 11.4888 3
      vertex 12.7989 11.4888 5
      vertex 12.2011 11.4888 5
    endloop
  endfacet
  facet normal 0 -1 -0
    outer loop
      vertex 12.7989 11.4888 5
      vertex 12.2011 11.4888 3
      vertex 12.7989 11.4888 3
    endloop
  endfacet
  facet normal 0.86602 0.500009 0
    outer loop
      vertex 9.19505 5.24672 5
      vertex 8.89612 5.76447 3
      vertex 8.89612 5.76447 5
    endloop
  endfacet
  facet normal 0.86602 0.500009 0
    outer loop
      vertex 8.89612 5.76447 3
      vertex 9.19505 5.24672 5
      vertex 9.19505 5.24672 3
    endloop
  endfacet
  facet normal -0.930882 0.365321 0
    outer loop
      vertex 16.1039 5.76447 3
      vertex 16.3223 6.32098 5
      vertex 16.3223 6.32098 3
    endloop
  endfacet
  facet normal -0.930882 0.365321 0
    outer loop
      vertex 16.3223 6.32098 5
      vertex 16.1039 5.76447 3
      vertex 16.1039 5.76447 5
    endloop
  endfacet
  facet normal -0.866042 0.499971 0
    outer loop
      vertex 15.805 5.24672 3
      vertex 16.1039 5.76447 5
      vertex 16.1039 5.76447 3
    endloop
  endfacet
  facet normal -0.866042 0.499971 0
    outer loop
      vertex 16.1039 5.76447 5
      vertex 15.805 5.24672 3
      vertex 15.805 5.24672 5
    endloop
  endfacet
  facet normal 0.680173 -0.733051 0
    outer loop
      vertex 9.56779 10.2207 3
      vertex 10.006 10.6273 5
      vertex 9.56779 10.2207 5
    endloop
  endfacet
  facet normal 0.680173 -0.733051 0
    outer loop
      vertex 10.006 10.6273 5
      vertex 9.56779 10.2207 3
      vertex 10.006 10.6273 3
    endloop
  endfacet
  facet normal -0.433903 0.90096 0
    outer loop
      vertex 14.5 4.0359 3
      vertex 13.9614 3.77651 5
      vertex 14.5 4.0359 5
    endloop
  endfacet
  facet normal -0.433903 0.90096 0
    outer loop
      vertex 13.9614 3.77651 5
      vertex 14.5 4.0359 3
      vertex 13.9614 3.77651 3
    endloop
  endfacet
  facet normal 0.433916 -0.900953 0
    outer loop
      vertex 10.5 10.9641 3
      vertex 11.0386 11.2235 5
      vertex 10.5 10.9641 5
    endloop
  endfacet
  facet normal 0.433916 -0.900953 0
    outer loop
      vertex 11.0386 11.2235 5
      vertex 10.5 10.9641 3
      vertex 11.0386 11.2235 3
    endloop
  endfacet
  facet normal 0.930876 0.365335 0
    outer loop
      vertex 8.89612 5.76447 5
      vertex 8.67771 6.32098 3
      vertex 8.67771 6.32098 5
    endloop
  endfacet
  facet normal 0.930876 0.365335 0
    outer loop
      vertex 8.67771 6.32098 3
      vertex 8.89612 5.76447 5
      vertex 8.89612 5.76447 3
    endloop
  endfacet
  facet normal -0.294751 0.955574 0
    outer loop
      vertex 13.9614 3.77651 3
      vertex 13.3901 3.60029 5
      vertex 13.9614 3.77651 5
    endloop
  endfacet
  facet normal -0.294751 0.955574 0
    outer loop
      vertex 13.3901 3.60029 5
      vertex 13.9614 3.77651 3
      vertex 13.3901 3.60029 3
    endloop
  endfacet
  facet normal -0.680182 -0.733044 0
    outer loop
      vertex 14.994 10.6273 3
      vertex 15.4322 10.2207 5
      vertex 14.994 10.6273 5
    endloop
  endfacet
  facet normal -0.680182 -0.733044 -0
    outer loop
      vertex 15.4322 10.2207 5
      vertex 14.994 10.6273 3
      vertex 15.4322 10.2207 3
    endloop
  endfacet
  facet normal -0.974939 0.222471 0
    outer loop
      vertex 16.3223 6.32098 3
      vertex 16.4553 6.90383 5
      vertex 16.4553 6.90383 3
    endloop
  endfacet
  facet normal -0.974939 0.222471 0
    outer loop
      vertex 16.4553 6.90383 5
      vertex 16.3223 6.32098 3
      vertex 16.3223 6.32098 5
    endloop
  endfacet
  facet normal 0 0 1
    outer loop
      vertex 14.65 7.5 3
      vertex 16.5 7.5 3
      vertex 16.4553 8.09617 3
    endloop
  endfacet
  facet normal 0 0 1
    outer loop
      vertex 14.626 7.82044 3
      vertex 16.4553 8.09617 3
      vertex 16.3223 8.67902 3
    endloop
  endfacet
  facet normal 0 0 1
    outer loop
      vertex 16.5 7.5 3
      vertex 14.65 7.5 3
      vertex 16.4553 6.90383 3
    endloop
  endfacet
  facet normal 0 0 1
    outer loop
      vertex 14.5545 8.13372 3
      vertex 16.3223 8.67902 3
      vertex 16.1039 9.23553 3
    endloop
  endfacet
  facet normal -0 0 1
    outer loop
      vertex 14.626 7.17956 3
      vertex 16.4553 6.90383 3
      vertex 14.65 7.5 3
    endloop
  endfacet
  facet normal 0 0 1
    outer loop
      vertex 14.4371 8.43285 3
      vertex 16.1039 9.23553 3
      vertex 15.805 9.75328 3
    endloop
  endfacet
  facet normal 0 0 1
    outer loop
      vertex 16.4553 6.90383 3
      vertex 14.626 7.17956 3
      vertex 16.3223 6.32098 3
    endloop
  endfacet
  facet normal 0 0 1
    outer loop
      vertex 14.2764 8.71114 3
      vertex 15.805 9.75328 3
      vertex 15.4322 10.2207 3
    endloop
  endfacet
  facet normal -0 0 1
    outer loop
      vertex 14.5545 6.86628 3
      vertex 16.3223 6.32098 3
      vertex 14.626 7.17956 3
    endloop
  endfacet
  facet normal 0 0 1
    outer loop
      vertex 14.0761 8.96237 3
      vertex 15.4322 10.2207 3
      vertex 14.994 10.6273 3
    endloop
  endfacet
  facet normal 0 0 1
    outer loop
      vertex 16.3223 6.32098 3
      vertex 14.5545 6.86628 3
      vertex 16.1039 5.76447 3
    endloop
  endfacet
  facet normal -0 0 1
    outer loop
      vertex 14.4371 6.56715 3
      vertex 16.1039 5.76447 3
      vertex 14.5545 6.86628 3
    endloop
  endfacet
  facet normal 0 0 1
    outer loop
      vertex 16.4553 8.09617 3
      vertex 14.626 7.82044 3
      vertex 14.65 7.5 3
    endloop
  endfacet
  facet normal 0 0 1
    outer loop
      vertex 16.3223 8.67902 3
      vertex 14.5545 8.13372 3
      vertex 14.626 7.82044 3
    endloop
  endfacet
  facet normal 0 0 1
    outer loop
      vertex 13.8405 9.18094 3
      vertex 14.994 10.6273 3
      vertex 14.5 10.9641 3
    endloop
  endfacet
  facet normal 0 0 1
    outer loop
      vertex 16.1039 9.23553 3
      vertex 14.4371 8.43285 3
      vertex 14.5545 8.13372 3
    endloop
  endfacet
  facet normal 0 0 1
    outer loop
      vertex 15.805 9.75328 3
      vertex 14.2764 8.71114 3
      vertex 14.4371 8.43285 3
    endloop
  endfacet
  facet normal 0 0 1
    outer loop
      vertex 15.4322 10.2207 3
      vertex 14.0761 8.96237 3
      vertex 14.2764 8.71114 3
    endloop
  endfacet
  facet normal 0 0 1
    outer loop
      vertex 13.575 9.36195 3
      vertex 14.5 10.9641 3
      vertex 13.9614 11.2235 3
    endloop
  endfacet
  facet normal 0 0 1
    outer loop
      vertex 14.994 10.6273 3
      vertex 13.8405 9.18094 3
      vertex 14.0761 8.96237 3
    endloop
  endfacet
  facet normal 0 0 1
    outer loop
      vertex 14.5 10.9641 3
      vertex 13.575 9.36195 3
      vertex 13.8405 9.18094 3
    endloop
  endfacet
  facet normal 0 0 1
    outer loop
      vertex 13.2855 9.50138 3
      vertex 13.9614 11.2235 3
      vertex 13.3901 11.3997 3
    endloop
  endfacet
  facet normal 0 0 1
    outer loop
      vertex 13.9614 11.2235 3
      vertex 13.2855 9.50138 3
      vertex 13.575 9.36195 3
    endloop
  endfacet
  facet normal 0 0 1
    outer loop
      vertex 13.3901 11.3997 3
      vertex 12.9784 9.59609 3
      vertex 13.2855 9.50138 3
    endloop
  endfacet
  facet normal 0 0 1
    outer loop
      vertex 12.7989 11.4888 3
      vertex 12.9784 9.59609 3
      vertex 13.3901 11.3997 3
    endloop
  endfacet
  facet normal 0 0 1
    outer loop
      vertex 12.7989 11.4888 3
      vertex 12.6607 9.64399 3
      vertex 12.9784 9.59609 3
    endloop
  endfacet
  facet normal 0 0 1
    outer loop
      vertex 12.7989 11.4888 3
      vertex 12.3393 9.64399 3
      vertex 12.6607 9.64399 3
    endloop
  endfacet
  facet normal -0 0 1
    outer loop
      vertex 12.2011 11.4888 3
      vertex 12.3393 9.64399 3
      vertex 12.7989 11.4888 3
    endloop
  endfacet
  facet normal 0 0 1
    outer loop
      vertex 12.2011 11.4888 3
      vertex 12.0216 9.59609 3
      vertex 12.3393 9.64399 3
    endloop
  endfacet
  facet normal -0 0 1
    outer loop
      vertex 11.6099 11.3997 3
      vertex 12.0216 9.59609 3
      vertex 12.2011 11.4888 3
    endloop
  endfacet
  facet normal 0 0 1
    outer loop
      vertex 12.0216 9.59609 3
      vertex 11.6099 11.3997 3
      vertex 11.7145 9.50138 3
    endloop
  endfacet
  facet normal -0 0 1
    outer loop
      vertex 11.0386 11.2235 3
      vertex 11.7145 9.50138 3
      vertex 11.6099 11.3997 3
    endloop
  endfacet
  facet normal 0 0 1
    outer loop
      vertex 11.7145 9.50138 3
      vertex 11.0386 11.2235 3
      vertex 11.425 9.36195 3
    endloop
  endfacet
  facet normal -0 0 1
    outer loop
      vertex 10.5 10.9641 3
      vertex 11.425 9.36195 3
      vertex 11.0386 11.2235 3
    endloop
  endfacet
  facet normal 0 0 1
    outer loop
      vertex 11.425 9.36195 3
      vertex 10.5 10.9641 3
      vertex 11.1595 9.18094 3
    endloop
  endfacet
  facet normal -0 0 1
    outer loop
      vertex 10.006 10.6273 3
      vertex 11.1595 9.18094 3
      vertex 10.5 10.9641 3
    endloop
  endfacet
  facet normal 0 0 1
    outer loop
      vertex 11.1595 9.18094 3
      vertex 10.006 10.6273 3
      vertex 10.9239 8.96237 3
    endloop
  endfacet
  facet normal -0 0 1
    outer loop
      vertex 9.56779 10.2207 3
      vertex 10.9239 8.96237 3
      vertex 10.006 10.6273 3
    endloop
  endfacet
  facet normal 0 0 1
    outer loop
      vertex 10.9239 8.96237 3
      vertex 9.56779 10.2207 3
      vertex 10.7236 8.71114 3
    endloop
  endfacet
  facet normal -0 0 1
    outer loop
      vertex 9.19505 9.75328 3
      vertex 10.7236 8.71114 3
      vertex 9.56779 10.2207 3
    endloop
  endfacet
  facet normal 0 0 1
    outer loop
      vertex 10.7236 8.71114 3
      vertex 9.19505 9.75328 3
      vertex 10.5629 8.43285 3
    endloop
  endfacet
  facet normal -0 0 1
    outer loop
      vertex 8.89612 9.23553 3
      vertex 10.5629 8.43285 3
      vertex 9.19505 9.75328 3
    endloop
  endfacet
  facet normal 0 0 1
    outer loop
      vertex 16.1039 5.76447 3
      vertex 14.4371 6.56715 3
      vertex 15.805 5.24672 3
    endloop
  endfacet
  facet normal -0 0 1
    outer loop
      vertex 14.2764 6.28886 3
      vertex 15.805 5.24672 3
      vertex 14.4371 6.56715 3
    endloop
  endfacet
  facet normal 0 0 1
    outer loop
      vertex 15.805 5.24672 3
      vertex 14.2764 6.28886 3
      vertex 15.4322 4.77931 3
    endloop
  endfacet
  facet normal -0 0 1
    outer loop
      vertex 14.0761 6.03763 3
      vertex 15.4322 4.77931 3
      vertex 14.2764 6.28886 3
    endloop
  endfacet
  facet normal 0 0 1
    outer loop
      vertex 15.4322 4.77931 3
      vertex 14.0761 6.03763 3
      vertex 14.994 4.37267 3
    endloop
  endfacet
  facet normal -0 0 1
    outer loop
      vertex 13.8405 5.81906 3
      vertex 14.994 4.37267 3
      vertex 14.0761 6.03763 3
    endloop
  endfacet
  facet normal 0 0 1
    outer loop
      vertex 14.994 4.37267 3
      vertex 13.8405 5.81906 3
      vertex 14.5 4.0359 3
    endloop
  endfacet
  facet normal -0 0 1
    outer loop
      vertex 13.575 5.63805 3
      vertex 14.5 4.0359 3
      vertex 13.8405 5.81906 3
    endloop
  endfacet
  facet normal 0 0 1
    outer loop
      vertex 14.5 4.0359 3
      vertex 13.575 5.63805 3
      vertex 13.9614 3.77651 3
    endloop
  endfacet
  facet normal -0 0 1
    outer loop
      vertex 13.2855 5.49862 3
      vertex 13.9614 3.77651 3
      vertex 13.575 5.63805 3
    endloop
  endfacet
  facet normal 0 0 1
    outer loop
      vertex 13.9614 3.77651 3
      vertex 13.2855 5.49862 3
      vertex 13.3901 3.60029 3
    endloop
  endfacet
  facet normal -0 0 1
    outer loop
      vertex 12.9784 5.40391 3
      vertex 13.3901 3.60029 3
      vertex 13.2855 5.49862 3
    endloop
  endfacet
  facet normal 0 0 1
    outer loop
      vertex 12.9784 5.40391 3
      vertex 12.7989 3.51119 3
      vertex 13.3901 3.60029 3
    endloop
  endfacet
  facet normal -0 0 1
    outer loop
      vertex 12.6607 5.35601 3
      vertex 12.7989 3.51119 3
      vertex 12.9784 5.40391 3
    endloop
  endfacet
  facet normal -0 0 1
    outer loop
      vertex 12.3393 5.35601 3
      vertex 12.7989 3.51119 3
      vertex 12.6607 5.35601 3
    endloop
  endfacet
  facet normal 0 0 1
    outer loop
      vertex 12.3393 5.35601 3
      vertex 12.2011 3.51119 3
      vertex 12.7989 3.51119 3
    endloop
  endfacet
  facet normal 0 0 1
    outer loop
      vertex 12.0216 5.40391 3
      vertex 12.2011 3.51119 3
      vertex 12.3393 5.35601 3
    endloop
  endfacet
  facet normal 0 0 1
    outer loop
      vertex 11.6099 3.60029 3
      vertex 12.0216 5.40391 3
      vertex 11.7145 5.49862 3
    endloop
  endfacet
  facet normal 0 0 1
    outer loop
      vertex 12.0216 5.40391 3
      vertex 11.6099 3.60029 3
      vertex 12.2011 3.51119 3
    endloop
  endfacet
  facet normal 0 0 1
    outer loop
      vertex 11.0386 3.77651 3
      vertex 11.7145 5.49862 3
      vertex 11.425 5.63805 3
    endloop
  endfacet
  facet normal 0 0 1
    outer loop
      vertex 10.5 4.0359 3
      vertex 11.425 5.63805 3
      vertex 11.1595 5.81906 3
    endloop
  endfacet
  facet normal 0 0 1
    outer loop
      vertex 11.7145 5.49862 3
      vertex 11.0386 3.77651 3
      vertex 11.6099 3.60029 3
    endloop
  endfacet
  facet normal 0 0 1
    outer loop
      vertex 10.006 4.37267 3
      vertex 11.1595 5.81906 3
      vertex 10.9239 6.03763 3
    endloop
  endfacet
  facet normal 0 0 1
    outer loop
      vertex 9.56779 4.77931 3
      vertex 10.9239 6.03763 3
      vertex 10.7236 6.28886 3
    endloop
  endfacet
  facet normal 0 0 1
    outer loop
      vertex 9.19505 5.24672 3
      vertex 10.7236 6.28886 3
      vertex 10.5629 6.56715 3
    endloop
  endfacet
  facet normal 0 0 1
    outer loop
      vertex 11.425 5.63805 3
      vertex 10.5 4.0359 3
      vertex 11.0386 3.77651 3
    endloop
  endfacet
  facet normal 0 0 1
    outer loop
      vertex 8.89612 5.76447 3
      vertex 10.5629 6.56715 3
      vertex 10.4455 6.86628 3
    endloop
  endfacet
  facet normal 0 0 1
    outer loop
      vertex 8.67771 6.32098 3
      vertex 10.4455 6.86628 3
      vertex 10.374 7.17956 3
    endloop
  endfacet
  facet normal 0 0 1
    outer loop
      vertex 8.54468 6.90383 3
      vertex 10.374 7.17956 3
      vertex 10.35 7.5 3
    endloop
  endfacet
  facet normal 0 0 1
    outer loop
      vertex 10.5629 8.43285 3
      vertex 8.89612 9.23553 3
      vertex 10.4455 8.13372 3
    endloop
  endfacet
  facet normal 0 0 1
    outer loop
      vertex 11.1595 5.81906 3
      vertex 10.006 4.37267 3
      vertex 10.5 4.0359 3
    endloop
  endfacet
  facet normal -0 0 1
    outer loop
      vertex 8.67771 8.67902 3
      vertex 10.4455 8.13372 3
      vertex 8.89612 9.23553 3
    endloop
  endfacet
  facet normal 0 0 1
    outer loop
      vertex 10.9239 6.03763 3
      vertex 9.56779 4.77931 3
      vertex 10.006 4.37267 3
    endloop
  endfacet
  facet normal 0 0 1
    outer loop
      vertex 10.4455 8.13372 3
      vertex 8.67771 8.67902 3
      vertex 10.374 7.82044 3
    endloop
  endfacet
  facet normal 0 0 1
    outer loop
      vertex 10.7236 6.28886 3
      vertex 9.19505 5.24672 3
      vertex 9.56779 4.77931 3
    endloop
  endfacet
  facet normal -0 0 1
    outer loop
      vertex 8.54468 8.09617 3
      vertex 10.374 7.82044 3
      vertex 8.67771 8.67902 3
    endloop
  endfacet
  facet normal 0 0 1
    outer loop
      vertex 10.5629 6.56715 3
      vertex 8.89612 5.76447 3
      vertex 9.19505 5.24672 3
    endloop
  endfacet
  facet normal 0 0 1
    outer loop
      vertex 10.374 7.82044 3
      vertex 8.54468 8.09617 3
      vertex 10.35 7.5 3
    endloop
  endfacet
  facet normal 0 0 1
    outer loop
      vertex 10.4455 6.86628 3
      vertex 8.67771 6.32098 3
      vertex 8.89612 5.76447 3
    endloop
  endfacet
  facet normal 0 0 1
    outer loop
      vertex 8.5 7.5 3
      vertex 10.35 7.5 3
      vertex 8.54468 8.09617 3
    endloop
  endfacet
  facet normal 0 0 1
    outer loop
      vertex 10.374 7.17956 3
      vertex 8.54468 6.90383 3
      vertex 8.67771 6.32098 3
    endloop
  endfacet
  facet normal 0 0 1
    outer loop
      vertex 10.35 7.5 3
      vertex 8.5 7.5 3
      vertex 8.54468 6.90383 3
    endloop
  endfacet
  facet normal 0.563282 0.826265 -0
    outer loop
      vertex 10.5 4.0359 3
      vertex 10.006 4.37267 5
      vertex 10.5 4.0359 5
    endloop
  endfacet
  facet normal 0.563282 0.826265 0
    outer loop
      vertex 10.006 4.37267 5
      vertex 10.5 4.0359 3
      vertex 10.006 4.37267 3
    endloop
  endfacet
  facet normal -0.680218 0.73301 0
    outer loop
      vertex 15.4322 4.77931 3
      vertex 14.994 4.37267 5
      vertex 15.4322 4.77931 5
    endloop
  endfacet
  facet normal -0.680218 0.73301 0
    outer loop
      vertex 14.994 4.37267 5
      vertex 15.4322 4.77931 3
      vertex 14.994 4.37267 3
    endloop
  endfacet
  facet normal -0.29472 -0.955584 0
    outer loop
      vertex 13.3901 11.3997 3
      vertex 13.9614 11.2235 5
      vertex 13.3901 11.3997 5
    endloop
  endfacet
  facet normal -0.29472 -0.955584 -0
    outer loop
      vertex 13.9614 11.2235 5
      vertex 13.3901 11.3997 3
      vertex 13.9614 11.2235 3
    endloop
  endfacet
  facet normal -0.563316 -0.826241 0
    outer loop
      vertex 14.5 10.9641 3
      vertex 14.994 10.6273 5
      vertex 14.5 10.9641 5
    endloop
  endfacet
  facet normal -0.563316 -0.826241 -0
    outer loop
      vertex 14.994 10.6273 5
      vertex 14.5 10.9641 3
      vertex 14.994 10.6273 3
    endloop
  endfacet
  facet normal -0.563282 0.826265 0
    outer loop
      vertex 14.994 4.37267 3
      vertex 14.5 4.0359 5
      vertex 14.994 4.37267 5
    endloop
  endfacet
  facet normal -0.563282 0.826265 0
    outer loop
      vertex 14.5 4.0359 5
      vertex 14.994 4.37267 3
      vertex 14.5 4.0359 3
    endloop
  endfacet
  facet normal 0.29472 -0.955584 0
    outer loop
      vertex 11.0386 11.2235 3
      vertex 11.6099 11.3997 5
      vertex 11.0386 11.2235 5
    endloop
  endfacet
  facet normal 0.29472 -0.955584 0
    outer loop
      vertex 11.6099 11.3997 5
      vertex 11.0386 11.2235 3
      vertex 11.6099 11.3997 3
    endloop
  endfacet
  facet normal -0.781795 -0.623536 0
    outer loop
      vertex 15.805 9.75328 3
      vertex 15.4322 10.2207 5
      vertex 15.4322 10.2207 3
    endloop
  endfacet
  facet normal -0.781795 -0.623536 0
    outer loop
      vertex 15.4322 10.2207 5
      vertex 15.805 9.75328 3
      vertex 15.805 9.75328 5
    endloop
  endfacet
  facet normal 0.149027 -0.988833 0
    outer loop
      vertex 11.6099 11.3997 3
      vertex 12.2011 11.4888 5
      vertex 11.6099 11.3997 5
    endloop
  endfacet
  facet normal 0.149027 -0.988833 0
    outer loop
      vertex 12.2011 11.4888 5
      vertex 11.6099 11.3997 3
      vertex 12.2011 11.4888 3
    endloop
  endfacet
  facet normal -0.149027 -0.988833 0
    outer loop
      vertex 12.7989 11.4888 3
      vertex 13.3901 11.3997 5
      vertex 12.7989 11.4888 5
    endloop
  endfacet
  facet normal -0.149027 -0.988833 -0
    outer loop
      vertex 13.3901 11.3997 5
      vertex 12.7989 11.4888 3
      vertex 13.3901 11.3997 3
    endloop
  endfacet
  facet normal 0.433903 0.90096 -0
    outer loop
      vertex 11.0386 3.77651 3
      vertex 10.5 4.0359 5
      vertex 11.0386 3.77651 5
    endloop
  endfacet
  facet normal 0.433903 0.90096 0
    outer loop
      vertex 10.5 4.0359 5
      vertex 11.0386 3.77651 3
      vertex 10.5 4.0359 3
    endloop
  endfacet
  facet normal -0.866042 -0.499971 0
    outer loop
      vertex 16.1039 9.23553 3
      vertex 15.805 9.75328 5
      vertex 15.805 9.75328 3
    endloop
  endfacet
  facet normal -0.866042 -0.499971 0
    outer loop
      vertex 15.805 9.75328 5
      vertex 16.1039 9.23553 3
      vertex 16.1039 9.23553 5
    endloop
  endfacet
  facet normal 0.781837 0.623483 0
    outer loop
      vertex 9.56779 4.77931 5
      vertex 9.19505 5.24672 3
      vertex 9.19505 5.24672 5
    endloop
  endfacet
  facet normal 0.781837 0.623483 0
    outer loop
      vertex 9.19505 5.24672 3
      vertex 9.56779 4.77931 5
      vertex 9.56779 4.77931 3
    endloop
  endfacet
  facet normal 0.930876 -0.365335 0
    outer loop
      vertex 8.67771 8.67902 5
      vertex 8.89612 9.23553 3
      vertex 8.89612 9.23553 5
    endloop
  endfacet
  facet normal 0.930876 -0.365335 0
    outer loop
      vertex 8.89612 9.23553 3
      vertex 8.67771 8.67902 5
      vertex 8.67771 8.67902 3
    endloop
  endfacet
  facet normal 0.997203 0.0747355 0
    outer loop
      vertex 8.54468 6.90383 5
      vertex 8.5 7.5 3
      vertex 8.5 7.5 5
    endloop
  endfacet
  facet normal 0.997203 0.0747355 0
    outer loop
      vertex 8.5 7.5 3
      vertex 8.54468 6.90383 5
      vertex 8.54468 6.90383 3
    endloop
  endfacet
  facet normal 0.781844 -0.623474 0
    outer loop
      vertex 9.19505 9.75328 5
      vertex 9.56779 10.2207 3
      vertex 9.56779 10.2207 5
    endloop
  endfacet
  facet normal 0.781844 -0.623474 0
    outer loop
      vertex 9.56779 10.2207 3
      vertex 9.19505 9.75328 5
      vertex 9.19505 9.75328 3
    endloop
  endfacet
  facet normal 0.294751 0.955574 -0
    outer loop
      vertex 11.6099 3.60029 3
      vertex 11.0386 3.77651 5
      vertex 11.6099 3.60029 5
    endloop
  endfacet
  facet normal 0.294751 0.955574 0
    outer loop
      vertex 11.0386 3.77651 5
      vertex 11.6099 3.60029 3
      vertex 11.0386 3.77651 3
    endloop
  endfacet
  facet normal 0.149027 0.988833 -0
    outer loop
      vertex 12.2011 3.51119 3
      vertex 11.6099 3.60029 5
      vertex 12.2011 3.51119 5
    endloop
  endfacet
  facet normal 0.149027 0.988833 0
    outer loop
      vertex 11.6099 3.60029 5
      vertex 12.2011 3.51119 3
      vertex 11.6099 3.60029 3
    endloop
  endfacet
  facet normal 0.997203 -0.0747355 0
    outer loop
      vertex 8.5 7.5 5
      vertex 8.54468 8.09617 3
      vertex 8.54468 8.09617 5
    endloop
  endfacet
  facet normal 0.997203 -0.0747355 0
    outer loop
      vertex 8.54468 8.09617 3
      vertex 8.5 7.5 5
      vertex 8.5 7.5 3
    endloop
  endfacet
  facet normal 0 1 -0
    outer loop
      vertex 12.7989 3.51119 3
      vertex 12.2011 3.51119 5
      vertex 12.7989 3.51119 5
    endloop
  endfacet
  facet normal 0 1 0
    outer loop
      vertex 12.2011 3.51119 5
      vertex 12.7989 3.51119 3
      vertex 12.2011 3.51119 3
    endloop
  endfacet
  facet normal 0.974929 0.222518 0
    outer loop
      vertex 8.67771 6.32098 5
      vertex 8.54468 6.90383 3
      vertex 8.54468 6.90383 5
    endloop
  endfacet
  facet normal 0.974929 0.222518 0
    outer loop
      vertex 8.54468 6.90383 3
      vertex 8.67771 6.32098 5
      vertex 8.67771 6.32098 3
    endloop
  endfacet
  facet normal 0.86602 -0.500009 0
    outer loop
      vertex 8.89612 9.23553 5
      vertex 9.19505 9.75328 3
      vertex 9.19505 9.75328 5
    endloop
  endfacet
  facet normal 0.86602 -0.500009 0
    outer loop
      vertex 9.19505 9.75328 3
      vertex 8.89612 9.23553 5
      vertex 8.89612 9.23553 3
    endloop
  endfacet
  facet normal 0.680209 0.733018 -0
    outer loop
      vertex 10.006 4.37267 3
      vertex 9.56779 4.77931 5
      vertex 10.006 4.37267 5
    endloop
  endfacet
  facet normal 0.680209 0.733018 0
    outer loop
      vertex 9.56779 4.77931 5
      vertex 10.006 4.37267 3
      vertex 9.56779 4.77931 3
    endloop
  endfacet
endsolid OpenSCAD_Model
